M48
;GenerationSoftware,Autodesk,EAGLE,9.6.1*%
;CreationDate,2020-09-21T20:44:14Z*%
FMAT,2
ICI,OFF
METRIC,TZ,000.000
T8C0.700
T7C0.813
T6C0.900
T5C1.016
T4C1.300
T3C1.400
T2C1.499
T1C3.000
%
G90
M71
T1
X98000Y84000
X54000Y46000
X14000Y36000
X82000Y28000
X52000Y86000
T2
X68470Y43230
X68470Y58470
X79850Y20480
X79850Y5240
T3
X60480Y79420
X69480Y79420
X96410Y21110
X96410Y12110
X43110Y80100
X34110Y80100
T4
X56985Y20390
X56985Y8190
X68985Y8190
X68985Y20390
X34985Y22260
X28985Y20260
X28985Y8060
X40985Y8060
X40985Y20260
X81610Y68575
X79610Y62575
X81610Y56575
X93810Y56575
X93810Y68575
X79740Y40575
X81740Y34575
X93940Y34575
X93940Y46575
X81740Y46575
X62985Y22390
T5
X3480Y37960
X3480Y40500
X3480Y43040
X3480Y45580
X50250Y31440
X52790Y31440
X5000Y7000
X5000Y4460
X5000Y17000
X5000Y14460
X5000Y27000
X14410Y85820
X16950Y85820
X19490Y85820
X5000Y24460
X4520Y78610
X4520Y76070
X4520Y73530
X4520Y70990
X4520Y68450
X34410Y31440
X36950Y31440
X39490Y31440
X47710Y31440
T6
X30250Y55790
X25000Y26190
X11690Y15830
X19310Y15830
X12850Y8170
X7370Y75830
X25000Y33810
X14990Y75830
X19470Y21830
X11850Y21830
X40410Y55790
X48030Y55790
X20470Y8170
X37870Y55790
T7
X18040Y44830
X18040Y77850
X18040Y75310
X18040Y72770
X18040Y70230
X18040Y67690
X18040Y65150
X18040Y62610
X18040Y60070
X18040Y57530
X18040Y54990
X18040Y52450
X18040Y47370
X25660Y77850
X25660Y44830
X25660Y47370
X25660Y49910
X25660Y52450
X25660Y54990
X25660Y57530
X25660Y60070
X25660Y62610
X25660Y65150
X25660Y67690
X25660Y70230
X18040Y49910
X25660Y75310
X14730Y30000
X17270Y30000
X25660Y72770
T8
X10290Y62210
X8090Y53790
X12830Y62210
X35720Y65280
X2870Y85280
X5370Y85280
X10630Y53790
X4720Y56690
X33220Y65280
X4720Y61770
M30