G04 EAGLE Gerber RS-274X export*
G75*
%MOMM*%
%FSLAX34Y34*%
%LPD*%
%INBottom Copper*%
%IPPOS*%
%AMOC8*
5,1,8,0,0,1.08239X$1,22.5*%
G01*
%ADD10C,1.879600*%
%ADD11R,1.651000X1.651000*%
%ADD12C,1.651000*%
%ADD13C,2.247900*%
%ADD14C,1.600000*%
%ADD15C,1.524000*%
%ADD16R,2.540000X2.540000*%
%ADD17C,2.540000*%
%ADD18C,2.100000*%
%ADD19C,1.625600*%
%ADD20C,0.152400*%

G36*
X1058336Y10926D02*
X1058336Y10926D01*
X1058355Y10924D01*
X1058457Y10946D01*
X1058559Y10962D01*
X1058576Y10972D01*
X1058596Y10976D01*
X1058685Y11029D01*
X1058776Y11078D01*
X1058790Y11092D01*
X1058807Y11102D01*
X1058874Y11181D01*
X1058946Y11256D01*
X1058954Y11274D01*
X1058967Y11289D01*
X1059006Y11385D01*
X1059049Y11479D01*
X1059051Y11499D01*
X1059059Y11517D01*
X1059077Y11684D01*
X1059077Y888316D01*
X1059074Y888336D01*
X1059076Y888355D01*
X1059054Y888457D01*
X1059038Y888559D01*
X1059028Y888576D01*
X1059024Y888596D01*
X1058971Y888685D01*
X1058922Y888776D01*
X1058908Y888790D01*
X1058898Y888807D01*
X1058819Y888874D01*
X1058744Y888946D01*
X1058726Y888954D01*
X1058711Y888967D01*
X1058615Y889006D01*
X1058521Y889049D01*
X1058501Y889051D01*
X1058483Y889059D01*
X1058316Y889077D01*
X-8316Y889077D01*
X-8336Y889074D01*
X-8355Y889076D01*
X-8457Y889054D01*
X-8559Y889038D01*
X-8576Y889028D01*
X-8596Y889024D01*
X-8685Y888971D01*
X-8776Y888922D01*
X-8790Y888908D01*
X-8807Y888898D01*
X-8874Y888819D01*
X-8946Y888744D01*
X-8954Y888726D01*
X-8967Y888711D01*
X-9006Y888615D01*
X-9049Y888521D01*
X-9051Y888501D01*
X-9059Y888483D01*
X-9077Y888316D01*
X-9077Y11684D01*
X-9074Y11664D01*
X-9076Y11645D01*
X-9054Y11543D01*
X-9038Y11441D01*
X-9028Y11424D01*
X-9024Y11404D01*
X-8971Y11315D01*
X-8922Y11224D01*
X-8908Y11210D01*
X-8898Y11193D01*
X-8819Y11126D01*
X-8744Y11054D01*
X-8726Y11046D01*
X-8711Y11033D01*
X-8615Y10994D01*
X-8521Y10951D01*
X-8501Y10949D01*
X-8483Y10941D01*
X-8316Y10923D01*
X1058316Y10923D01*
X1058336Y10926D01*
G37*
%LPC*%
G36*
X687021Y67675D02*
X687021Y67675D01*
X681792Y69841D01*
X677791Y73842D01*
X675625Y79071D01*
X675625Y84729D01*
X677791Y89958D01*
X681792Y93959D01*
X687021Y96125D01*
X692679Y96125D01*
X697980Y93929D01*
X698094Y93902D01*
X698208Y93874D01*
X698214Y93874D01*
X698220Y93873D01*
X698337Y93884D01*
X698453Y93893D01*
X698459Y93895D01*
X698465Y93896D01*
X698572Y93944D01*
X698679Y93989D01*
X698685Y93994D01*
X698690Y93996D01*
X698703Y94009D01*
X698760Y94054D01*
X698810Y94094D01*
X787038Y182322D01*
X789850Y182322D01*
X789920Y182333D01*
X789992Y182335D01*
X790041Y182353D01*
X790092Y182361D01*
X790156Y182395D01*
X790223Y182420D01*
X790264Y182452D01*
X790310Y182477D01*
X790359Y182529D01*
X790415Y182573D01*
X790443Y182617D01*
X790479Y182655D01*
X790509Y182720D01*
X790548Y182780D01*
X790561Y182831D01*
X790583Y182878D01*
X790591Y182949D01*
X790608Y183019D01*
X790604Y183071D01*
X790610Y183122D01*
X790595Y183193D01*
X790589Y183264D01*
X790569Y183312D01*
X790558Y183363D01*
X790521Y183424D01*
X790493Y183490D01*
X790448Y183546D01*
X790431Y183574D01*
X790414Y183589D01*
X790388Y183621D01*
X787679Y186330D01*
X785736Y191022D01*
X785736Y201752D01*
X785733Y201772D01*
X785735Y201791D01*
X785713Y201893D01*
X785696Y201995D01*
X785687Y202012D01*
X785682Y202032D01*
X785629Y202121D01*
X785581Y202212D01*
X785567Y202226D01*
X785556Y202243D01*
X785478Y202310D01*
X785403Y202382D01*
X785385Y202390D01*
X785369Y202403D01*
X785273Y202442D01*
X785180Y202485D01*
X785160Y202487D01*
X785141Y202495D01*
X784975Y202513D01*
X709196Y202513D01*
X705374Y206335D01*
X705316Y206377D01*
X705264Y206426D01*
X705217Y206448D01*
X705175Y206479D01*
X705106Y206500D01*
X705041Y206530D01*
X704989Y206536D01*
X704939Y206551D01*
X704868Y206549D01*
X704797Y206557D01*
X704746Y206546D01*
X704694Y206545D01*
X704626Y206520D01*
X704556Y206505D01*
X704511Y206478D01*
X704463Y206460D01*
X704407Y206415D01*
X704345Y206379D01*
X704311Y206339D01*
X704271Y206307D01*
X704232Y206246D01*
X704185Y206192D01*
X704166Y206144D01*
X704138Y206100D01*
X704120Y206030D01*
X704093Y205964D01*
X704085Y205892D01*
X704077Y205861D01*
X704079Y205838D01*
X704075Y205797D01*
X704075Y201071D01*
X701909Y195842D01*
X697908Y191841D01*
X692679Y189675D01*
X687021Y189675D01*
X681792Y191841D01*
X677791Y195842D01*
X675595Y201143D01*
X675534Y201242D01*
X675474Y201343D01*
X675469Y201347D01*
X675465Y201352D01*
X675376Y201427D01*
X675287Y201503D01*
X675281Y201505D01*
X675276Y201509D01*
X675168Y201551D01*
X675059Y201595D01*
X675051Y201596D01*
X675046Y201597D01*
X675028Y201598D01*
X674892Y201613D01*
X590096Y201613D01*
X586390Y205319D01*
X586332Y205361D01*
X586280Y205410D01*
X586233Y205432D01*
X586191Y205463D01*
X586122Y205484D01*
X586057Y205514D01*
X586005Y205520D01*
X585955Y205535D01*
X585884Y205533D01*
X585813Y205541D01*
X585762Y205530D01*
X585710Y205529D01*
X585642Y205504D01*
X585572Y205489D01*
X585527Y205462D01*
X585479Y205444D01*
X585452Y205423D01*
X570612Y205423D01*
X570592Y205420D01*
X570573Y205422D01*
X570471Y205400D01*
X570369Y205383D01*
X570352Y205374D01*
X570332Y205370D01*
X570243Y205317D01*
X570152Y205268D01*
X570138Y205254D01*
X570121Y205244D01*
X570054Y205165D01*
X569983Y205090D01*
X569974Y205072D01*
X569961Y205057D01*
X569923Y204961D01*
X569879Y204867D01*
X569877Y204847D01*
X569869Y204829D01*
X569851Y204662D01*
X569851Y203899D01*
X569849Y203899D01*
X569849Y204662D01*
X569846Y204682D01*
X569848Y204701D01*
X569826Y204803D01*
X569809Y204905D01*
X569800Y204922D01*
X569796Y204942D01*
X569743Y205031D01*
X569694Y205122D01*
X569680Y205136D01*
X569670Y205153D01*
X569591Y205220D01*
X569516Y205291D01*
X569498Y205300D01*
X569483Y205313D01*
X569387Y205352D01*
X569293Y205395D01*
X569273Y205397D01*
X569255Y205405D01*
X569088Y205423D01*
X554661Y205423D01*
X554985Y207469D01*
X555726Y209750D01*
X556815Y211888D01*
X558225Y213829D01*
X559696Y215300D01*
X559738Y215358D01*
X559787Y215410D01*
X559809Y215457D01*
X559840Y215499D01*
X559861Y215568D01*
X559891Y215633D01*
X559897Y215685D01*
X559912Y215735D01*
X559910Y215806D01*
X559918Y215877D01*
X559907Y215928D01*
X559906Y215980D01*
X559881Y216048D01*
X559866Y216118D01*
X559839Y216163D01*
X559821Y216211D01*
X559776Y216267D01*
X559740Y216329D01*
X559700Y216363D01*
X559667Y216403D01*
X559607Y216442D01*
X559553Y216489D01*
X559504Y216508D01*
X559461Y216536D01*
X559391Y216554D01*
X559325Y216581D01*
X559253Y216589D01*
X559222Y216597D01*
X559199Y216595D01*
X559158Y216599D01*
X467838Y216599D01*
X466275Y218162D01*
X423111Y261326D01*
X423037Y261379D01*
X422968Y261438D01*
X422938Y261450D01*
X422911Y261469D01*
X422824Y261496D01*
X422740Y261530D01*
X422699Y261535D01*
X422676Y261542D01*
X422644Y261541D01*
X422573Y261549D01*
X375217Y261549D01*
X357713Y279053D01*
X357713Y301008D01*
X357699Y301098D01*
X357691Y301189D01*
X357679Y301219D01*
X357674Y301251D01*
X357631Y301332D01*
X357595Y301416D01*
X357569Y301448D01*
X357558Y301468D01*
X357535Y301491D01*
X357490Y301547D01*
X357307Y301730D01*
X357307Y356067D01*
X357293Y356157D01*
X357285Y356248D01*
X357273Y356278D01*
X357268Y356310D01*
X357225Y356391D01*
X357189Y356474D01*
X357163Y356507D01*
X357152Y356527D01*
X357129Y356549D01*
X357084Y356605D01*
X306615Y407074D01*
X306542Y407127D01*
X306472Y407187D01*
X306442Y407199D01*
X306416Y407218D01*
X306329Y407245D01*
X306244Y407279D01*
X306203Y407283D01*
X306181Y407290D01*
X306148Y407289D01*
X306077Y407297D01*
X294369Y407297D01*
X292806Y408860D01*
X262061Y439605D01*
X261967Y439673D01*
X261872Y439743D01*
X261866Y439745D01*
X261861Y439749D01*
X261750Y439783D01*
X261638Y439819D01*
X261632Y439819D01*
X261626Y439821D01*
X261509Y439818D01*
X261392Y439817D01*
X261385Y439815D01*
X261380Y439815D01*
X261363Y439808D01*
X261231Y439770D01*
X258520Y438647D01*
X254680Y438647D01*
X251132Y440117D01*
X248417Y442832D01*
X246947Y446380D01*
X246947Y450220D01*
X248417Y453768D01*
X251132Y456483D01*
X254680Y457953D01*
X258520Y457953D01*
X262068Y456483D01*
X264783Y453768D01*
X266253Y450220D01*
X266253Y446380D01*
X265130Y443669D01*
X265103Y443555D01*
X265074Y443442D01*
X265075Y443435D01*
X265074Y443429D01*
X265085Y443313D01*
X265094Y443196D01*
X265096Y443191D01*
X265097Y443184D01*
X265144Y443077D01*
X265190Y442970D01*
X265195Y442964D01*
X265197Y442960D01*
X265209Y442946D01*
X265295Y442839D01*
X296040Y412094D01*
X296114Y412041D01*
X296184Y411981D01*
X296214Y411969D01*
X296240Y411950D01*
X296327Y411923D01*
X296412Y411889D01*
X296453Y411885D01*
X296475Y411878D01*
X296507Y411879D01*
X296578Y411871D01*
X308287Y411871D01*
X361881Y358277D01*
X361881Y329171D01*
X361892Y329100D01*
X361894Y329029D01*
X361912Y328980D01*
X361920Y328928D01*
X361954Y328865D01*
X361979Y328798D01*
X362011Y328757D01*
X362036Y328711D01*
X362088Y328662D01*
X362132Y328606D01*
X362176Y328577D01*
X362214Y328542D01*
X362279Y328511D01*
X362339Y328473D01*
X362390Y328460D01*
X362437Y328438D01*
X362508Y328430D01*
X362578Y328413D01*
X362630Y328417D01*
X362681Y328411D01*
X362752Y328426D01*
X362823Y328432D01*
X362871Y328452D01*
X362922Y328463D01*
X362983Y328500D01*
X363049Y328528D01*
X363105Y328573D01*
X363133Y328589D01*
X363148Y328607D01*
X363180Y328633D01*
X364320Y329773D01*
X367681Y331165D01*
X371319Y331165D01*
X374680Y329773D01*
X377253Y327200D01*
X377348Y326970D01*
X377372Y326931D01*
X377388Y326888D01*
X377436Y326827D01*
X377477Y326761D01*
X377513Y326732D01*
X377541Y326696D01*
X377607Y326654D01*
X377667Y326604D01*
X377710Y326588D01*
X377748Y326563D01*
X377824Y326544D01*
X377896Y326516D01*
X377942Y326514D01*
X377987Y326503D01*
X378064Y326509D01*
X378142Y326506D01*
X378186Y326519D01*
X378232Y326522D01*
X378304Y326553D01*
X378378Y326574D01*
X378416Y326600D01*
X378458Y326618D01*
X378565Y326704D01*
X378580Y326715D01*
X378583Y326719D01*
X378589Y326723D01*
X484890Y433024D01*
X486453Y434587D01*
X531848Y434587D01*
X531872Y434591D01*
X531896Y434588D01*
X531993Y434610D01*
X532091Y434626D01*
X532112Y434638D01*
X532135Y434643D01*
X532220Y434695D01*
X532308Y434742D01*
X532324Y434759D01*
X532345Y434772D01*
X532409Y434848D01*
X532477Y434920D01*
X532487Y434942D01*
X532503Y434960D01*
X532539Y435053D01*
X532581Y435143D01*
X532584Y435167D01*
X532592Y435189D01*
X532597Y435289D01*
X532608Y435387D01*
X532603Y435411D01*
X532604Y435435D01*
X532577Y435531D01*
X532556Y435628D01*
X532543Y435648D01*
X532537Y435672D01*
X532481Y435754D01*
X532430Y435839D01*
X532411Y435855D01*
X532398Y435874D01*
X532318Y435934D01*
X532243Y435999D01*
X532220Y436008D01*
X532201Y436022D01*
X532045Y436083D01*
X530288Y436554D01*
X524551Y439866D01*
X519866Y444551D01*
X516554Y450288D01*
X514839Y456688D01*
X514839Y463312D01*
X516554Y469712D01*
X519866Y475449D01*
X524551Y480134D01*
X530288Y483446D01*
X536688Y485161D01*
X543312Y485161D01*
X549712Y483446D01*
X555449Y480134D01*
X560134Y475449D01*
X563446Y469712D01*
X565161Y463312D01*
X565161Y456688D01*
X563446Y450288D01*
X560134Y444551D01*
X555449Y439866D01*
X549712Y436554D01*
X547955Y436083D01*
X547933Y436073D01*
X547909Y436069D01*
X547822Y436023D01*
X547731Y435982D01*
X547713Y435966D01*
X547692Y435954D01*
X547624Y435883D01*
X547551Y435815D01*
X547539Y435794D01*
X547523Y435776D01*
X547481Y435686D01*
X547433Y435599D01*
X547429Y435575D01*
X547419Y435553D01*
X547408Y435454D01*
X547391Y435356D01*
X547395Y435332D01*
X547392Y435309D01*
X547413Y435212D01*
X547428Y435113D01*
X547439Y435092D01*
X547444Y435068D01*
X547495Y434983D01*
X547541Y434894D01*
X547558Y434878D01*
X547570Y434857D01*
X547646Y434792D01*
X547717Y434723D01*
X547739Y434713D01*
X547757Y434697D01*
X547850Y434660D01*
X547939Y434617D01*
X547963Y434614D01*
X547985Y434605D01*
X548152Y434587D01*
X671175Y434587D01*
X671194Y434590D01*
X671214Y434588D01*
X671315Y434610D01*
X671417Y434626D01*
X671435Y434636D01*
X671454Y434640D01*
X671543Y434693D01*
X671635Y434742D01*
X671648Y434756D01*
X671665Y434766D01*
X671733Y434845D01*
X671804Y434920D01*
X671812Y434938D01*
X671825Y434953D01*
X671864Y435049D01*
X671908Y435143D01*
X671910Y435163D01*
X671917Y435181D01*
X671936Y435348D01*
X671936Y446078D01*
X673879Y450770D01*
X677470Y454360D01*
X682161Y456304D01*
X687239Y456304D01*
X691930Y454360D01*
X695521Y450770D01*
X697464Y446078D01*
X697464Y418522D01*
X695521Y413830D01*
X691930Y410240D01*
X687239Y408296D01*
X682161Y408296D01*
X677470Y410240D01*
X673879Y413830D01*
X671936Y418522D01*
X671936Y429252D01*
X671933Y429272D01*
X671935Y429291D01*
X671913Y429393D01*
X671896Y429495D01*
X671887Y429512D01*
X671882Y429532D01*
X671829Y429621D01*
X671781Y429712D01*
X671767Y429726D01*
X671756Y429743D01*
X671678Y429810D01*
X671603Y429882D01*
X671585Y429890D01*
X671569Y429903D01*
X671473Y429942D01*
X671380Y429985D01*
X671360Y429987D01*
X671341Y429995D01*
X671175Y430013D01*
X488663Y430013D01*
X488572Y429999D01*
X488482Y429991D01*
X488452Y429979D01*
X488420Y429974D01*
X488339Y429931D01*
X488255Y429895D01*
X488223Y429869D01*
X488202Y429858D01*
X488180Y429835D01*
X488124Y429790D01*
X391421Y333087D01*
X391381Y333032D01*
X391334Y332983D01*
X391310Y332932D01*
X391277Y332887D01*
X391257Y332822D01*
X391228Y332761D01*
X391221Y332705D01*
X391205Y332652D01*
X391206Y332584D01*
X391198Y332517D01*
X391210Y332462D01*
X391211Y332406D01*
X391234Y332342D01*
X391248Y332276D01*
X391276Y332228D01*
X391296Y332175D01*
X391338Y332122D01*
X391372Y332064D01*
X391414Y332027D01*
X391449Y331983D01*
X391506Y331946D01*
X391557Y331902D01*
X391609Y331880D01*
X391656Y331850D01*
X391722Y331833D01*
X391784Y331807D01*
X391840Y331804D01*
X391895Y331790D01*
X391962Y331795D01*
X392030Y331790D01*
X392107Y331806D01*
X392140Y331809D01*
X392159Y331817D01*
X392194Y331824D01*
X392521Y331931D01*
X393377Y332066D01*
X393377Y315923D01*
X384739Y315923D01*
X384739Y322820D01*
X384989Y324399D01*
X385096Y324726D01*
X385106Y324793D01*
X385126Y324858D01*
X385124Y324914D01*
X385133Y324969D01*
X385121Y325036D01*
X385119Y325104D01*
X385100Y325156D01*
X385091Y325211D01*
X385058Y325271D01*
X385035Y325335D01*
X385000Y325378D01*
X384973Y325427D01*
X384924Y325474D01*
X384881Y325527D01*
X384834Y325557D01*
X384793Y325595D01*
X384731Y325623D01*
X384674Y325660D01*
X384620Y325673D01*
X384569Y325696D01*
X384501Y325703D01*
X384436Y325720D01*
X384380Y325715D01*
X384324Y325721D01*
X384258Y325706D01*
X384191Y325701D01*
X384139Y325679D01*
X384084Y325666D01*
X384027Y325631D01*
X383964Y325604D01*
X383903Y325555D01*
X383875Y325538D01*
X383861Y325522D01*
X383833Y325499D01*
X378868Y320534D01*
X378815Y320460D01*
X378802Y320446D01*
X378776Y320418D01*
X378773Y320412D01*
X378755Y320390D01*
X378743Y320360D01*
X378724Y320334D01*
X378698Y320250D01*
X378673Y320195D01*
X378671Y320183D01*
X378663Y320162D01*
X378659Y320121D01*
X378652Y320099D01*
X378653Y320067D01*
X378645Y319995D01*
X378645Y304961D01*
X377253Y301600D01*
X374680Y299027D01*
X371319Y297635D01*
X367681Y297635D01*
X364320Y299027D01*
X363586Y299761D01*
X363528Y299803D01*
X363476Y299852D01*
X363429Y299874D01*
X363387Y299905D01*
X363318Y299926D01*
X363253Y299956D01*
X363201Y299962D01*
X363151Y299977D01*
X363080Y299975D01*
X363009Y299983D01*
X362958Y299972D01*
X362906Y299971D01*
X362838Y299946D01*
X362768Y299931D01*
X362723Y299904D01*
X362675Y299886D01*
X362619Y299841D01*
X362557Y299805D01*
X362523Y299765D01*
X362483Y299733D01*
X362444Y299672D01*
X362397Y299618D01*
X362378Y299569D01*
X362350Y299526D01*
X362332Y299456D01*
X362305Y299390D01*
X362297Y299318D01*
X362289Y299287D01*
X362291Y299264D01*
X362287Y299223D01*
X362287Y281263D01*
X362301Y281172D01*
X362309Y281082D01*
X362321Y281052D01*
X362326Y281020D01*
X362369Y280939D01*
X362405Y280855D01*
X362431Y280823D01*
X362442Y280802D01*
X362465Y280780D01*
X362510Y280724D01*
X376889Y266345D01*
X376963Y266292D01*
X377032Y266233D01*
X377062Y266220D01*
X377089Y266202D01*
X377176Y266175D01*
X377260Y266141D01*
X377301Y266136D01*
X377324Y266129D01*
X377356Y266130D01*
X377427Y266122D01*
X424783Y266122D01*
X426345Y264560D01*
X469509Y221396D01*
X469583Y221343D01*
X469652Y221283D01*
X469683Y221271D01*
X469709Y221252D01*
X469796Y221225D01*
X469881Y221191D01*
X469921Y221187D01*
X469944Y221180D01*
X469976Y221181D01*
X470047Y221173D01*
X577005Y221173D01*
X578567Y219610D01*
X591768Y206410D01*
X591842Y206357D01*
X591911Y206297D01*
X591941Y206285D01*
X591967Y206266D01*
X592054Y206239D01*
X592139Y206205D01*
X592180Y206201D01*
X592202Y206194D01*
X592235Y206195D01*
X592306Y206187D01*
X605642Y206187D01*
X605712Y206198D01*
X605784Y206200D01*
X605833Y206218D01*
X605884Y206226D01*
X605948Y206260D01*
X606015Y206285D01*
X606056Y206317D01*
X606102Y206342D01*
X606151Y206394D01*
X606207Y206438D01*
X606235Y206482D01*
X606271Y206520D01*
X606301Y206585D01*
X606340Y206645D01*
X606353Y206696D01*
X606375Y206743D01*
X606383Y206814D01*
X606400Y206884D01*
X606396Y206936D01*
X606402Y206987D01*
X606387Y207058D01*
X606381Y207129D01*
X606361Y207177D01*
X606350Y207228D01*
X606313Y207289D01*
X606285Y207355D01*
X606240Y207411D01*
X606223Y207439D01*
X606206Y207454D01*
X606180Y207486D01*
X605476Y208190D01*
X511589Y302077D01*
X511552Y302104D01*
X511521Y302137D01*
X511453Y302175D01*
X511390Y302220D01*
X511346Y302234D01*
X511305Y302256D01*
X511229Y302270D01*
X511155Y302293D01*
X511109Y302291D01*
X511063Y302300D01*
X510986Y302288D01*
X510909Y302286D01*
X510865Y302271D01*
X510820Y302264D01*
X510751Y302229D01*
X510678Y302202D01*
X510642Y302173D01*
X510601Y302152D01*
X510546Y302097D01*
X510486Y302048D01*
X510461Y302009D01*
X510429Y301977D01*
X510363Y301857D01*
X510353Y301841D01*
X510351Y301836D01*
X510348Y301830D01*
X510253Y301600D01*
X507680Y299027D01*
X504319Y297635D01*
X500681Y297635D01*
X497320Y299027D01*
X494747Y301600D01*
X493355Y304961D01*
X493355Y323839D01*
X494747Y327200D01*
X497320Y329773D01*
X500681Y331165D01*
X504319Y331165D01*
X507680Y329773D01*
X510253Y327200D01*
X511645Y323839D01*
X511645Y308805D01*
X511659Y308714D01*
X511667Y308624D01*
X511679Y308594D01*
X511684Y308562D01*
X511727Y308481D01*
X511763Y308397D01*
X511789Y308365D01*
X511800Y308344D01*
X511823Y308322D01*
X511868Y308266D01*
X516833Y303301D01*
X516888Y303261D01*
X516937Y303214D01*
X516988Y303190D01*
X517033Y303157D01*
X517098Y303137D01*
X517159Y303108D01*
X517215Y303101D01*
X517268Y303085D01*
X517336Y303086D01*
X517403Y303078D01*
X517458Y303090D01*
X517514Y303091D01*
X517578Y303114D01*
X517644Y303128D01*
X517692Y303156D01*
X517745Y303176D01*
X517798Y303218D01*
X517856Y303252D01*
X517893Y303294D01*
X517937Y303329D01*
X517974Y303386D01*
X518018Y303437D01*
X518040Y303489D01*
X518070Y303536D01*
X518087Y303602D01*
X518113Y303664D01*
X518116Y303720D01*
X518130Y303775D01*
X518125Y303842D01*
X518130Y303910D01*
X518114Y303987D01*
X518111Y304020D01*
X518103Y304039D01*
X518096Y304074D01*
X517989Y304401D01*
X517739Y305980D01*
X517739Y312877D01*
X526377Y312877D01*
X526377Y296734D01*
X525521Y296869D01*
X525194Y296976D01*
X525127Y296986D01*
X525062Y297006D01*
X525006Y297004D01*
X524951Y297013D01*
X524884Y297001D01*
X524816Y296999D01*
X524764Y296980D01*
X524709Y296971D01*
X524649Y296938D01*
X524585Y296915D01*
X524542Y296880D01*
X524493Y296853D01*
X524446Y296804D01*
X524393Y296761D01*
X524363Y296714D01*
X524325Y296673D01*
X524297Y296611D01*
X524260Y296554D01*
X524247Y296500D01*
X524224Y296449D01*
X524217Y296381D01*
X524200Y296316D01*
X524205Y296260D01*
X524199Y296204D01*
X524214Y296138D01*
X524219Y296071D01*
X524241Y296019D01*
X524254Y295964D01*
X524289Y295907D01*
X524316Y295844D01*
X524365Y295783D01*
X524382Y295755D01*
X524398Y295741D01*
X524421Y295713D01*
X608710Y211424D01*
X608784Y211371D01*
X608854Y211311D01*
X608884Y211299D01*
X608910Y211280D01*
X608997Y211253D01*
X609082Y211219D01*
X609123Y211215D01*
X609145Y211208D01*
X609177Y211209D01*
X609249Y211201D01*
X614864Y211201D01*
X614884Y211204D01*
X614903Y211202D01*
X615005Y211224D01*
X615107Y211240D01*
X615124Y211250D01*
X615144Y211254D01*
X615233Y211307D01*
X615324Y211356D01*
X615338Y211370D01*
X615355Y211380D01*
X615422Y211459D01*
X615494Y211534D01*
X615502Y211552D01*
X615515Y211567D01*
X615554Y211663D01*
X615597Y211757D01*
X615599Y211777D01*
X615607Y211795D01*
X615625Y211962D01*
X615625Y237232D01*
X616518Y238125D01*
X643182Y238125D01*
X644075Y237232D01*
X644075Y211962D01*
X644078Y211942D01*
X644076Y211923D01*
X644098Y211821D01*
X644114Y211719D01*
X644124Y211702D01*
X644128Y211682D01*
X644181Y211593D01*
X644230Y211502D01*
X644244Y211488D01*
X644254Y211471D01*
X644333Y211404D01*
X644408Y211332D01*
X644426Y211324D01*
X644441Y211311D01*
X644537Y211272D01*
X644631Y211229D01*
X644651Y211227D01*
X644669Y211219D01*
X644836Y211201D01*
X672408Y211201D01*
X672498Y211215D01*
X672589Y211223D01*
X672619Y211235D01*
X672651Y211240D01*
X672731Y211283D01*
X672815Y211319D01*
X672847Y211345D01*
X672868Y211356D01*
X672890Y211379D01*
X672946Y211424D01*
X682695Y221173D01*
X697005Y221173D01*
X710868Y207310D01*
X710942Y207257D01*
X711011Y207197D01*
X711041Y207185D01*
X711067Y207166D01*
X711154Y207139D01*
X711239Y207105D01*
X711280Y207101D01*
X711302Y207094D01*
X711335Y207095D01*
X711406Y207087D01*
X784975Y207087D01*
X784994Y207090D01*
X785014Y207088D01*
X785115Y207110D01*
X785217Y207126D01*
X785235Y207136D01*
X785254Y207140D01*
X785343Y207193D01*
X785435Y207242D01*
X785448Y207256D01*
X785465Y207266D01*
X785533Y207345D01*
X785604Y207420D01*
X785612Y207438D01*
X785625Y207453D01*
X785664Y207549D01*
X785708Y207643D01*
X785710Y207663D01*
X785717Y207681D01*
X785736Y207848D01*
X785736Y218578D01*
X787679Y223270D01*
X791270Y226860D01*
X795961Y228804D01*
X801039Y228804D01*
X805730Y226860D01*
X809321Y223270D01*
X811264Y218578D01*
X811264Y192268D01*
X811276Y192198D01*
X811278Y192126D01*
X811296Y192077D01*
X811304Y192026D01*
X811338Y191962D01*
X811362Y191895D01*
X811395Y191854D01*
X811419Y191808D01*
X811471Y191759D01*
X811516Y191703D01*
X811560Y191675D01*
X811597Y191639D01*
X811662Y191609D01*
X811723Y191570D01*
X811773Y191557D01*
X811820Y191535D01*
X811892Y191527D01*
X811961Y191510D01*
X812013Y191514D01*
X812065Y191508D01*
X812135Y191523D01*
X812206Y191529D01*
X812254Y191549D01*
X812305Y191560D01*
X812367Y191597D01*
X812433Y191625D01*
X812489Y191670D01*
X812516Y191687D01*
X812532Y191704D01*
X812564Y191730D01*
X870033Y249200D01*
X870086Y249274D01*
X870146Y249343D01*
X870158Y249373D01*
X870177Y249399D01*
X870204Y249486D01*
X870238Y249571D01*
X870242Y249612D01*
X870249Y249635D01*
X870248Y249667D01*
X870256Y249738D01*
X870256Y301034D01*
X936890Y367668D01*
X936943Y367742D01*
X937003Y367811D01*
X937015Y367841D01*
X937034Y367867D01*
X937061Y367954D01*
X937095Y368039D01*
X937099Y368080D01*
X937106Y368102D01*
X937105Y368135D01*
X937113Y368206D01*
X937113Y450792D01*
X937094Y450907D01*
X937077Y451023D01*
X937075Y451028D01*
X937074Y451035D01*
X937019Y451137D01*
X936966Y451242D01*
X936961Y451246D01*
X936958Y451252D01*
X936874Y451332D01*
X936790Y451414D01*
X936784Y451418D01*
X936780Y451421D01*
X936763Y451429D01*
X936643Y451495D01*
X931342Y453691D01*
X927341Y457692D01*
X925175Y462921D01*
X925175Y468579D01*
X927341Y473808D01*
X931342Y477809D01*
X936571Y479975D01*
X942229Y479975D01*
X947458Y477809D01*
X951459Y473808D01*
X953625Y468579D01*
X953625Y462921D01*
X951459Y457692D01*
X947458Y453691D01*
X942157Y451495D01*
X942057Y451434D01*
X941957Y451374D01*
X941953Y451369D01*
X941948Y451365D01*
X941873Y451276D01*
X941797Y451187D01*
X941795Y451181D01*
X941791Y451176D01*
X941749Y451068D01*
X941705Y450959D01*
X941704Y450951D01*
X941703Y450946D01*
X941702Y450928D01*
X941687Y450792D01*
X941687Y365996D01*
X936965Y361274D01*
X936923Y361216D01*
X936874Y361164D01*
X936852Y361117D01*
X936821Y361075D01*
X936800Y361006D01*
X936770Y360941D01*
X936764Y360889D01*
X936749Y360839D01*
X936751Y360768D01*
X936743Y360697D01*
X936754Y360646D01*
X936755Y360594D01*
X936780Y360526D01*
X936795Y360456D01*
X936822Y360411D01*
X936840Y360363D01*
X936885Y360307D01*
X936921Y360245D01*
X936961Y360211D01*
X936993Y360171D01*
X937054Y360132D01*
X937108Y360085D01*
X937156Y360066D01*
X937200Y360038D01*
X937270Y360020D01*
X937336Y359993D01*
X937408Y359985D01*
X937439Y359977D01*
X937462Y359979D01*
X937503Y359975D01*
X942229Y359975D01*
X947458Y357809D01*
X951459Y353808D01*
X953625Y348579D01*
X953625Y342921D01*
X951459Y337692D01*
X947458Y333691D01*
X942229Y331525D01*
X936571Y331525D01*
X931342Y333691D01*
X927341Y337692D01*
X925175Y342921D01*
X925175Y347647D01*
X925164Y347718D01*
X925162Y347789D01*
X925144Y347838D01*
X925136Y347890D01*
X925102Y347953D01*
X925077Y348020D01*
X925045Y348061D01*
X925020Y348107D01*
X924968Y348156D01*
X924924Y348212D01*
X924880Y348241D01*
X924842Y348276D01*
X924777Y348307D01*
X924717Y348345D01*
X924666Y348358D01*
X924619Y348380D01*
X924548Y348388D01*
X924478Y348406D01*
X924426Y348401D01*
X924375Y348407D01*
X924304Y348392D01*
X924233Y348386D01*
X924185Y348366D01*
X924134Y348355D01*
X924073Y348318D01*
X924007Y348290D01*
X923951Y348245D01*
X923923Y348229D01*
X923908Y348211D01*
X923876Y348185D01*
X875053Y299362D01*
X875000Y299288D01*
X874940Y299219D01*
X874928Y299189D01*
X874909Y299162D01*
X874882Y299076D01*
X874848Y298991D01*
X874844Y298950D01*
X874837Y298927D01*
X874838Y298895D01*
X874830Y298824D01*
X874830Y247528D01*
X805050Y177748D01*
X789248Y177748D01*
X789157Y177734D01*
X789067Y177726D01*
X789037Y177714D01*
X789005Y177709D01*
X788924Y177666D01*
X788840Y177630D01*
X788808Y177604D01*
X788787Y177593D01*
X788765Y177570D01*
X788709Y177525D01*
X702044Y90860D01*
X701976Y90766D01*
X701906Y90671D01*
X701904Y90665D01*
X701900Y90660D01*
X701866Y90550D01*
X701830Y90438D01*
X701830Y90431D01*
X701828Y90425D01*
X701831Y90308D01*
X701832Y90192D01*
X701834Y90184D01*
X701834Y90179D01*
X701841Y90162D01*
X701879Y90030D01*
X704075Y84729D01*
X704075Y79071D01*
X701909Y73842D01*
X697908Y69841D01*
X692679Y67675D01*
X687021Y67675D01*
G37*
%LPD*%
%LPC*%
G36*
X254680Y514847D02*
X254680Y514847D01*
X251132Y516317D01*
X248417Y519032D01*
X246947Y522580D01*
X246947Y526420D01*
X248417Y529968D01*
X251132Y532683D01*
X254680Y534153D01*
X258520Y534153D01*
X262068Y532683D01*
X264783Y529968D01*
X265906Y527257D01*
X265968Y527157D01*
X266028Y527057D01*
X266032Y527053D01*
X266036Y527048D01*
X266126Y526973D01*
X266215Y526897D01*
X266220Y526895D01*
X266225Y526891D01*
X266334Y526849D01*
X266443Y526805D01*
X266450Y526804D01*
X266455Y526803D01*
X266473Y526802D01*
X266609Y526787D01*
X655797Y526787D01*
X660074Y522510D01*
X660148Y522457D01*
X660218Y522397D01*
X660248Y522385D01*
X660274Y522366D01*
X660361Y522339D01*
X660446Y522305D01*
X660487Y522301D01*
X660509Y522294D01*
X660541Y522295D01*
X660613Y522287D01*
X736952Y522287D01*
X736972Y522290D01*
X736991Y522288D01*
X737093Y522310D01*
X737195Y522326D01*
X737212Y522336D01*
X737232Y522340D01*
X737321Y522393D01*
X737412Y522442D01*
X737426Y522456D01*
X737443Y522466D01*
X737510Y522545D01*
X737582Y522620D01*
X737590Y522638D01*
X737603Y522653D01*
X737642Y522749D01*
X737685Y522843D01*
X737687Y522863D01*
X737695Y522881D01*
X737713Y523048D01*
X737713Y610597D01*
X803906Y676790D01*
X803974Y676884D01*
X804044Y676979D01*
X804046Y676985D01*
X804050Y676990D01*
X804084Y677100D01*
X804120Y677212D01*
X804120Y677219D01*
X804122Y677225D01*
X804119Y677340D01*
X804118Y677458D01*
X804116Y677466D01*
X804116Y677471D01*
X804109Y677488D01*
X804071Y677620D01*
X801875Y682921D01*
X801875Y688579D01*
X804041Y693808D01*
X808042Y697809D01*
X813271Y699975D01*
X818929Y699975D01*
X824158Y697809D01*
X828159Y693808D01*
X830325Y688579D01*
X830325Y682921D01*
X828159Y677692D01*
X824158Y673691D01*
X818929Y671525D01*
X813271Y671525D01*
X807970Y673721D01*
X807856Y673748D01*
X807742Y673776D01*
X807736Y673776D01*
X807730Y673777D01*
X807613Y673766D01*
X807497Y673757D01*
X807491Y673755D01*
X807485Y673754D01*
X807378Y673706D01*
X807271Y673661D01*
X807265Y673656D01*
X807260Y673654D01*
X807247Y673641D01*
X807140Y673556D01*
X742510Y608926D01*
X742457Y608852D01*
X742397Y608782D01*
X742385Y608752D01*
X742366Y608726D01*
X742339Y608639D01*
X742305Y608554D01*
X742301Y608513D01*
X742294Y608491D01*
X742295Y608459D01*
X742287Y608387D01*
X742287Y519053D01*
X740947Y517713D01*
X658403Y517713D01*
X654126Y521990D01*
X654052Y522043D01*
X653982Y522103D01*
X653952Y522115D01*
X653926Y522134D01*
X653839Y522161D01*
X653754Y522195D01*
X653713Y522199D01*
X653691Y522206D01*
X653659Y522205D01*
X653587Y522213D01*
X266609Y522213D01*
X266495Y522194D01*
X266379Y522177D01*
X266373Y522175D01*
X266367Y522174D01*
X266264Y522119D01*
X266159Y522066D01*
X266155Y522061D01*
X266149Y522058D01*
X266070Y521974D01*
X265987Y521890D01*
X265983Y521884D01*
X265980Y521880D01*
X265972Y521863D01*
X265906Y521743D01*
X264783Y519032D01*
X262068Y516317D01*
X258520Y514847D01*
X254680Y514847D01*
G37*
%LPD*%
%LPC*%
G36*
X32627Y368677D02*
X32627Y368677D01*
X28613Y370340D01*
X25540Y373413D01*
X23877Y377427D01*
X23877Y381773D01*
X25540Y385787D01*
X28613Y388860D01*
X29377Y389177D01*
X29416Y389201D01*
X29459Y389216D01*
X29520Y389265D01*
X29586Y389306D01*
X29616Y389342D01*
X29651Y389370D01*
X29694Y389436D01*
X29743Y389496D01*
X29760Y389538D01*
X29784Y389577D01*
X29804Y389653D01*
X29831Y389725D01*
X29833Y389771D01*
X29845Y389816D01*
X29839Y389893D01*
X29842Y389971D01*
X29829Y390015D01*
X29825Y390061D01*
X29795Y390132D01*
X29773Y390207D01*
X29747Y390245D01*
X29729Y390287D01*
X29644Y390394D01*
X29633Y390409D01*
X29629Y390412D01*
X29624Y390418D01*
X20829Y399213D01*
X20829Y410787D01*
X29013Y418971D01*
X30023Y418971D01*
X30119Y418986D01*
X30216Y418996D01*
X30240Y419006D01*
X30266Y419010D01*
X30352Y419056D01*
X30441Y419096D01*
X30460Y419113D01*
X30483Y419126D01*
X30550Y419196D01*
X30622Y419262D01*
X30635Y419285D01*
X30653Y419304D01*
X30694Y419392D01*
X30741Y419478D01*
X30745Y419503D01*
X30756Y419527D01*
X30767Y419624D01*
X30784Y419720D01*
X30781Y419746D01*
X30783Y419771D01*
X30763Y419867D01*
X30749Y419963D01*
X30737Y419986D01*
X30731Y420012D01*
X30681Y420095D01*
X30637Y420182D01*
X30618Y420201D01*
X30605Y420223D01*
X30531Y420286D01*
X30461Y420354D01*
X30433Y420370D01*
X30418Y420383D01*
X30387Y420395D01*
X30315Y420435D01*
X28613Y421140D01*
X25540Y424213D01*
X23877Y428227D01*
X23877Y432573D01*
X25540Y436587D01*
X28613Y439660D01*
X32627Y441323D01*
X36973Y441323D01*
X40987Y439660D01*
X44060Y436587D01*
X45723Y432573D01*
X45723Y429871D01*
X45734Y429800D01*
X45736Y429728D01*
X45754Y429679D01*
X45762Y429628D01*
X45796Y429565D01*
X45821Y429497D01*
X45853Y429457D01*
X45878Y429411D01*
X45930Y429361D01*
X45974Y429305D01*
X46018Y429277D01*
X46056Y429241D01*
X46121Y429211D01*
X46181Y429172D01*
X46232Y429160D01*
X46279Y429138D01*
X46350Y429130D01*
X46420Y429112D01*
X46472Y429116D01*
X46523Y429111D01*
X46594Y429126D01*
X46665Y429131D01*
X46713Y429152D01*
X46764Y429163D01*
X46825Y429200D01*
X46891Y429228D01*
X46947Y429272D01*
X46975Y429289D01*
X46990Y429307D01*
X47022Y429332D01*
X93249Y475560D01*
X93302Y475633D01*
X93362Y475703D01*
X93374Y475733D01*
X93393Y475759D01*
X93420Y475846D01*
X93454Y475931D01*
X93458Y475972D01*
X93465Y475994D01*
X93464Y476027D01*
X93472Y476098D01*
X93472Y543213D01*
X100987Y550728D01*
X101478Y550728D01*
X101569Y550742D01*
X101659Y550750D01*
X101689Y550762D01*
X101721Y550767D01*
X101802Y550810D01*
X101886Y550846D01*
X101918Y550872D01*
X101939Y550883D01*
X101961Y550906D01*
X102017Y550951D01*
X171705Y620639D01*
X171773Y620733D01*
X171843Y620828D01*
X171845Y620834D01*
X171849Y620839D01*
X171883Y620950D01*
X171919Y621062D01*
X171919Y621068D01*
X171921Y621074D01*
X171918Y621190D01*
X171917Y621308D01*
X171915Y621315D01*
X171915Y621320D01*
X171908Y621337D01*
X171870Y621469D01*
X170747Y624180D01*
X170747Y628020D01*
X171870Y630731D01*
X171897Y630845D01*
X171926Y630958D01*
X171925Y630965D01*
X171926Y630971D01*
X171915Y631087D01*
X171906Y631204D01*
X171904Y631209D01*
X171903Y631216D01*
X171856Y631323D01*
X171810Y631430D01*
X171805Y631436D01*
X171803Y631440D01*
X171791Y631454D01*
X171705Y631561D01*
X147613Y655653D01*
X147613Y746916D01*
X147594Y747031D01*
X147577Y747147D01*
X147575Y747152D01*
X147574Y747159D01*
X147519Y747261D01*
X147466Y747366D01*
X147461Y747370D01*
X147458Y747376D01*
X147374Y747456D01*
X147290Y747538D01*
X147284Y747542D01*
X147280Y747545D01*
X147263Y747553D01*
X147143Y747619D01*
X143713Y749040D01*
X140640Y752113D01*
X138977Y756127D01*
X138977Y760473D01*
X140640Y764487D01*
X143713Y767560D01*
X147727Y769223D01*
X152073Y769223D01*
X156087Y767560D01*
X159160Y764487D01*
X160823Y760473D01*
X160823Y756127D01*
X159160Y752113D01*
X156087Y749040D01*
X152657Y747619D01*
X152557Y747558D01*
X152457Y747498D01*
X152453Y747493D01*
X152448Y747490D01*
X152373Y747400D01*
X152297Y747311D01*
X152295Y747305D01*
X152291Y747300D01*
X152249Y747192D01*
X152205Y747083D01*
X152204Y747075D01*
X152203Y747070D01*
X152202Y747052D01*
X152187Y746916D01*
X152187Y657863D01*
X152201Y657772D01*
X152209Y657682D01*
X152221Y657652D01*
X152226Y657620D01*
X152269Y657539D01*
X152305Y657455D01*
X152331Y657423D01*
X152342Y657402D01*
X152365Y657380D01*
X152410Y657324D01*
X174939Y634795D01*
X175033Y634727D01*
X175128Y634657D01*
X175134Y634655D01*
X175139Y634651D01*
X175250Y634617D01*
X175362Y634581D01*
X175368Y634581D01*
X175374Y634579D01*
X175491Y634582D01*
X175608Y634583D01*
X175615Y634585D01*
X175620Y634585D01*
X175637Y634592D01*
X175769Y634630D01*
X178480Y635753D01*
X182320Y635753D01*
X185868Y634283D01*
X188583Y631568D01*
X190053Y628020D01*
X190053Y624180D01*
X188583Y620632D01*
X185868Y617917D01*
X182320Y616447D01*
X178480Y616447D01*
X175769Y617570D01*
X175655Y617597D01*
X175542Y617626D01*
X175535Y617625D01*
X175529Y617626D01*
X175413Y617615D01*
X175296Y617606D01*
X175291Y617604D01*
X175284Y617603D01*
X175177Y617556D01*
X175070Y617510D01*
X175064Y617505D01*
X175060Y617503D01*
X175046Y617491D01*
X174939Y617405D01*
X107412Y549878D01*
X107405Y549868D01*
X107395Y549861D01*
X107333Y549768D01*
X107268Y549678D01*
X107265Y549667D01*
X107258Y549657D01*
X107229Y549549D01*
X107196Y549443D01*
X107196Y549431D01*
X107193Y549420D01*
X107199Y549309D01*
X107202Y549197D01*
X107206Y549186D01*
X107207Y549174D01*
X107249Y549071D01*
X107287Y548966D01*
X107294Y548957D01*
X107299Y548946D01*
X107371Y548861D01*
X107441Y548774D01*
X107451Y548768D01*
X107458Y548759D01*
X107554Y548701D01*
X107647Y548641D01*
X107659Y548638D01*
X107669Y548632D01*
X107831Y548588D01*
X108828Y548430D01*
X110444Y547905D01*
X111958Y547133D01*
X113333Y546134D01*
X114534Y544933D01*
X115533Y543558D01*
X116305Y542044D01*
X116830Y540428D01*
X116989Y539423D01*
X107062Y539423D01*
X107042Y539420D01*
X107023Y539422D01*
X106921Y539400D01*
X106819Y539383D01*
X106802Y539374D01*
X106782Y539370D01*
X106693Y539317D01*
X106602Y539268D01*
X106588Y539254D01*
X106571Y539244D01*
X106504Y539165D01*
X106433Y539090D01*
X106424Y539072D01*
X106411Y539057D01*
X106373Y538961D01*
X106329Y538867D01*
X106327Y538847D01*
X106319Y538829D01*
X106301Y538662D01*
X106301Y537899D01*
X105538Y537899D01*
X105518Y537896D01*
X105499Y537898D01*
X105397Y537876D01*
X105295Y537859D01*
X105278Y537850D01*
X105258Y537846D01*
X105169Y537793D01*
X105078Y537744D01*
X105064Y537730D01*
X105047Y537720D01*
X104980Y537641D01*
X104909Y537566D01*
X104900Y537548D01*
X104887Y537533D01*
X104848Y537437D01*
X104805Y537343D01*
X104803Y537323D01*
X104795Y537305D01*
X104777Y537138D01*
X104777Y527211D01*
X103772Y527370D01*
X102156Y527895D01*
X100642Y528667D01*
X99254Y529675D01*
X99244Y529680D01*
X99235Y529688D01*
X99134Y529735D01*
X99035Y529785D01*
X99023Y529787D01*
X99012Y529792D01*
X98902Y529804D01*
X98791Y529820D01*
X98779Y529818D01*
X98768Y529819D01*
X98659Y529795D01*
X98549Y529775D01*
X98539Y529769D01*
X98527Y529767D01*
X98432Y529710D01*
X98334Y529656D01*
X98326Y529647D01*
X98316Y529641D01*
X98244Y529556D01*
X98169Y529474D01*
X98164Y529463D01*
X98156Y529454D01*
X98114Y529350D01*
X98070Y529249D01*
X98069Y529237D01*
X98064Y529225D01*
X98046Y529059D01*
X98046Y473888D01*
X96483Y472326D01*
X40679Y416522D01*
X40670Y416509D01*
X40658Y416499D01*
X40598Y416409D01*
X40536Y416322D01*
X40531Y416307D01*
X40522Y416293D01*
X40495Y416189D01*
X40464Y416087D01*
X40464Y416071D01*
X40460Y416056D01*
X40467Y415948D01*
X40470Y415841D01*
X40475Y415826D01*
X40476Y415810D01*
X40517Y415711D01*
X40554Y415610D01*
X40564Y415598D01*
X40570Y415583D01*
X40641Y415502D01*
X40708Y415418D01*
X40721Y415409D01*
X40732Y415397D01*
X40872Y415305D01*
X41057Y415211D01*
X42578Y414106D01*
X43906Y412778D01*
X45011Y411257D01*
X45864Y409583D01*
X46445Y407796D01*
X46646Y406523D01*
X35562Y406523D01*
X35542Y406520D01*
X35523Y406522D01*
X35421Y406500D01*
X35319Y406483D01*
X35302Y406474D01*
X35282Y406470D01*
X35193Y406417D01*
X35102Y406368D01*
X35088Y406354D01*
X35071Y406344D01*
X35004Y406265D01*
X34933Y406190D01*
X34924Y406172D01*
X34911Y406157D01*
X34873Y406061D01*
X34829Y405967D01*
X34827Y405947D01*
X34819Y405929D01*
X34801Y405762D01*
X34801Y404999D01*
X34038Y404999D01*
X34018Y404996D01*
X33999Y404998D01*
X33897Y404976D01*
X33795Y404959D01*
X33778Y404950D01*
X33758Y404946D01*
X33669Y404893D01*
X33578Y404844D01*
X33564Y404830D01*
X33547Y404820D01*
X33480Y404741D01*
X33409Y404666D01*
X33400Y404648D01*
X33387Y404633D01*
X33348Y404537D01*
X33305Y404443D01*
X33303Y404423D01*
X33295Y404405D01*
X33277Y404238D01*
X33277Y393549D01*
X33292Y393459D01*
X33299Y393368D01*
X33311Y393338D01*
X33317Y393306D01*
X33359Y393225D01*
X33395Y393141D01*
X33421Y393109D01*
X33432Y393089D01*
X33455Y393066D01*
X33500Y393011D01*
X35765Y390746D01*
X35838Y390693D01*
X35908Y390633D01*
X35938Y390621D01*
X35964Y390602D01*
X36051Y390575D01*
X36136Y390541D01*
X36177Y390537D01*
X36199Y390530D01*
X36232Y390531D01*
X36303Y390523D01*
X36973Y390523D01*
X40987Y388860D01*
X44060Y385787D01*
X45723Y381773D01*
X45723Y377427D01*
X44060Y373413D01*
X40987Y370340D01*
X36973Y368677D01*
X32627Y368677D01*
G37*
%LPD*%
%LPC*%
G36*
X814571Y451525D02*
X814571Y451525D01*
X809342Y453691D01*
X805341Y457692D01*
X803175Y462921D01*
X803175Y468579D01*
X805371Y473881D01*
X805398Y473994D01*
X805426Y474108D01*
X805426Y474114D01*
X805427Y474120D01*
X805416Y474237D01*
X805407Y474353D01*
X805405Y474359D01*
X805404Y474365D01*
X805356Y474472D01*
X805311Y474579D01*
X805306Y474585D01*
X805304Y474590D01*
X805291Y474603D01*
X805206Y474710D01*
X783326Y496590D01*
X783252Y496643D01*
X783182Y496703D01*
X783152Y496715D01*
X783126Y496734D01*
X783039Y496761D01*
X782954Y496795D01*
X782913Y496799D01*
X782891Y496806D01*
X782859Y496805D01*
X782787Y496813D01*
X266609Y496813D01*
X266495Y496794D01*
X266379Y496777D01*
X266373Y496775D01*
X266367Y496774D01*
X266264Y496719D01*
X266159Y496666D01*
X266155Y496661D01*
X266149Y496658D01*
X266070Y496574D01*
X265987Y496490D01*
X265983Y496484D01*
X265980Y496480D01*
X265972Y496463D01*
X265906Y496343D01*
X264783Y493632D01*
X262068Y490917D01*
X258520Y489447D01*
X254680Y489447D01*
X251132Y490917D01*
X248417Y493632D01*
X246947Y497180D01*
X246947Y501020D01*
X248417Y504568D01*
X251132Y507283D01*
X254680Y508753D01*
X258520Y508753D01*
X262068Y507283D01*
X264783Y504568D01*
X265906Y501857D01*
X265968Y501757D01*
X266028Y501657D01*
X266032Y501653D01*
X266036Y501648D01*
X266126Y501573D01*
X266215Y501497D01*
X266220Y501495D01*
X266225Y501491D01*
X266334Y501449D01*
X266443Y501405D01*
X266450Y501404D01*
X266455Y501403D01*
X266473Y501402D01*
X266609Y501387D01*
X784997Y501387D01*
X808440Y477944D01*
X808534Y477876D01*
X808629Y477806D01*
X808635Y477804D01*
X808640Y477800D01*
X808750Y477766D01*
X808862Y477730D01*
X808869Y477730D01*
X808875Y477728D01*
X808991Y477731D01*
X809108Y477732D01*
X809116Y477734D01*
X809121Y477734D01*
X809138Y477741D01*
X809269Y477779D01*
X814571Y479975D01*
X820229Y479975D01*
X825458Y477809D01*
X829459Y473808D01*
X831625Y468579D01*
X831625Y462921D01*
X829459Y457692D01*
X825458Y453691D01*
X820229Y451525D01*
X814571Y451525D01*
G37*
%LPD*%
%LPC*%
G36*
X795961Y28396D02*
X795961Y28396D01*
X791270Y30340D01*
X787679Y33930D01*
X785736Y38622D01*
X785736Y49352D01*
X785733Y49372D01*
X785735Y49391D01*
X785713Y49493D01*
X785696Y49595D01*
X785687Y49612D01*
X785682Y49632D01*
X785629Y49721D01*
X785581Y49812D01*
X785567Y49826D01*
X785556Y49843D01*
X785478Y49910D01*
X785403Y49982D01*
X785385Y49990D01*
X785369Y50003D01*
X785273Y50042D01*
X785180Y50085D01*
X785160Y50087D01*
X785141Y50095D01*
X784975Y50113D01*
X598403Y50113D01*
X578810Y69706D01*
X578716Y69774D01*
X578621Y69844D01*
X578615Y69846D01*
X578610Y69850D01*
X578500Y69884D01*
X578388Y69920D01*
X578381Y69920D01*
X578375Y69922D01*
X578258Y69919D01*
X578142Y69918D01*
X578134Y69916D01*
X578129Y69916D01*
X578112Y69909D01*
X577980Y69871D01*
X572679Y67675D01*
X567021Y67675D01*
X561792Y69841D01*
X557791Y73842D01*
X555625Y79071D01*
X555625Y84729D01*
X557791Y89958D01*
X561792Y93959D01*
X567021Y96125D01*
X572679Y96125D01*
X577908Y93959D01*
X581909Y89958D01*
X584075Y84729D01*
X584075Y79071D01*
X581879Y73770D01*
X581852Y73656D01*
X581824Y73542D01*
X581824Y73536D01*
X581823Y73530D01*
X581834Y73413D01*
X581843Y73297D01*
X581845Y73291D01*
X581846Y73285D01*
X581894Y73178D01*
X581939Y73071D01*
X581944Y73065D01*
X581946Y73060D01*
X581959Y73047D01*
X582044Y72940D01*
X600074Y54910D01*
X600148Y54857D01*
X600218Y54797D01*
X600248Y54785D01*
X600274Y54766D01*
X600361Y54739D01*
X600446Y54705D01*
X600487Y54701D01*
X600509Y54694D01*
X600541Y54695D01*
X600613Y54687D01*
X784975Y54687D01*
X784994Y54690D01*
X785014Y54688D01*
X785115Y54710D01*
X785217Y54726D01*
X785235Y54736D01*
X785254Y54740D01*
X785343Y54793D01*
X785435Y54842D01*
X785448Y54856D01*
X785465Y54866D01*
X785533Y54945D01*
X785604Y55020D01*
X785612Y55038D01*
X785625Y55053D01*
X785664Y55149D01*
X785708Y55243D01*
X785710Y55263D01*
X785717Y55281D01*
X785736Y55448D01*
X785736Y66178D01*
X787679Y70870D01*
X791270Y74460D01*
X795961Y76404D01*
X801039Y76404D01*
X805730Y74460D01*
X809321Y70870D01*
X811264Y66178D01*
X811264Y38622D01*
X809321Y33930D01*
X805730Y30340D01*
X801039Y28396D01*
X795961Y28396D01*
G37*
%LPD*%
%LPC*%
G36*
X407021Y188375D02*
X407021Y188375D01*
X401792Y190541D01*
X397791Y194542D01*
X395625Y199771D01*
X395625Y205429D01*
X397821Y210730D01*
X397848Y210844D01*
X397876Y210958D01*
X397876Y210964D01*
X397877Y210970D01*
X397866Y211087D01*
X397857Y211203D01*
X397855Y211209D01*
X397854Y211215D01*
X397806Y211322D01*
X397761Y211429D01*
X397756Y211435D01*
X397754Y211440D01*
X397741Y211453D01*
X397656Y211560D01*
X178113Y431103D01*
X178113Y438291D01*
X178094Y438405D01*
X178077Y438521D01*
X178075Y438527D01*
X178074Y438533D01*
X178019Y438636D01*
X177966Y438741D01*
X177961Y438745D01*
X177958Y438751D01*
X177874Y438830D01*
X177790Y438913D01*
X177784Y438917D01*
X177780Y438920D01*
X177763Y438928D01*
X177643Y438994D01*
X174932Y440117D01*
X172217Y442832D01*
X170747Y446380D01*
X170747Y450220D01*
X172217Y453768D01*
X174932Y456483D01*
X178480Y457953D01*
X182320Y457953D01*
X185868Y456483D01*
X188583Y453768D01*
X190053Y450220D01*
X190053Y446380D01*
X188583Y442832D01*
X185868Y440117D01*
X183157Y438994D01*
X183057Y438932D01*
X182957Y438872D01*
X182953Y438868D01*
X182948Y438864D01*
X182873Y438774D01*
X182797Y438685D01*
X182795Y438680D01*
X182791Y438675D01*
X182749Y438566D01*
X182705Y438457D01*
X182704Y438450D01*
X182703Y438445D01*
X182702Y438427D01*
X182687Y438291D01*
X182687Y433313D01*
X182701Y433222D01*
X182709Y433132D01*
X182721Y433102D01*
X182726Y433070D01*
X182769Y432989D01*
X182805Y432905D01*
X182831Y432873D01*
X182842Y432852D01*
X182865Y432830D01*
X182910Y432774D01*
X400890Y214794D01*
X400984Y214726D01*
X401079Y214656D01*
X401085Y214654D01*
X401090Y214650D01*
X401200Y214616D01*
X401312Y214580D01*
X401319Y214580D01*
X401325Y214578D01*
X401442Y214581D01*
X401558Y214582D01*
X401566Y214584D01*
X401571Y214584D01*
X401588Y214591D01*
X401720Y214629D01*
X407021Y216825D01*
X412679Y216825D01*
X417908Y214659D01*
X421909Y210658D01*
X424075Y205429D01*
X424075Y199771D01*
X421909Y194542D01*
X417908Y190541D01*
X412679Y188375D01*
X407021Y188375D01*
G37*
%LPD*%
%LPC*%
G36*
X516688Y834839D02*
X516688Y834839D01*
X510288Y836554D01*
X504551Y839866D01*
X499866Y844551D01*
X496554Y850288D01*
X494839Y856688D01*
X494839Y863312D01*
X496554Y869712D01*
X499866Y875449D01*
X504551Y880134D01*
X510288Y883446D01*
X516688Y885161D01*
X523312Y885161D01*
X529712Y883446D01*
X535449Y880134D01*
X540134Y875449D01*
X543446Y869712D01*
X545161Y863312D01*
X545161Y856688D01*
X543446Y850288D01*
X540134Y844551D01*
X535449Y839866D01*
X529712Y836554D01*
X523312Y834839D01*
X516688Y834839D01*
G37*
%LPD*%
%LPC*%
G36*
X816688Y254839D02*
X816688Y254839D01*
X810288Y256554D01*
X804551Y259866D01*
X799866Y264551D01*
X796554Y270288D01*
X794839Y276688D01*
X794839Y283312D01*
X796554Y289712D01*
X799866Y295449D01*
X804551Y300134D01*
X810288Y303446D01*
X816688Y305161D01*
X823312Y305161D01*
X829712Y303446D01*
X835449Y300134D01*
X840134Y295449D01*
X843446Y289712D01*
X845161Y283312D01*
X845161Y276688D01*
X843446Y270288D01*
X840134Y264551D01*
X835449Y259866D01*
X829712Y256554D01*
X823312Y254839D01*
X816688Y254839D01*
G37*
%LPD*%
%LPC*%
G36*
X976688Y814839D02*
X976688Y814839D01*
X970288Y816554D01*
X964551Y819866D01*
X959866Y824551D01*
X956554Y830288D01*
X954839Y836688D01*
X954839Y843312D01*
X956554Y849712D01*
X959866Y855449D01*
X964551Y860134D01*
X970288Y863446D01*
X976688Y865161D01*
X983312Y865161D01*
X989712Y863446D01*
X995449Y860134D01*
X1000134Y855449D01*
X1003446Y849712D01*
X1005161Y843312D01*
X1005161Y836688D01*
X1003446Y830288D01*
X1000134Y824551D01*
X995449Y819866D01*
X989712Y816554D01*
X983312Y814839D01*
X976688Y814839D01*
G37*
%LPD*%
%LPC*%
G36*
X136688Y334839D02*
X136688Y334839D01*
X130288Y336554D01*
X124551Y339866D01*
X119866Y344551D01*
X116554Y350288D01*
X114839Y356688D01*
X114839Y363312D01*
X116554Y369712D01*
X119866Y375449D01*
X124551Y380134D01*
X130288Y383446D01*
X136688Y385161D01*
X143312Y385161D01*
X149712Y383446D01*
X155449Y380134D01*
X160134Y375449D01*
X163446Y369712D01*
X165161Y363312D01*
X165161Y356688D01*
X163446Y350288D01*
X160134Y344551D01*
X155449Y339866D01*
X149712Y336554D01*
X143312Y334839D01*
X136688Y334839D01*
G37*
%LPD*%
%LPC*%
G36*
X682161Y560696D02*
X682161Y560696D01*
X677470Y562640D01*
X673879Y566230D01*
X671936Y570922D01*
X671936Y598478D01*
X673879Y603170D01*
X677470Y606760D01*
X682161Y608704D01*
X687239Y608704D01*
X691930Y606760D01*
X695521Y603170D01*
X697464Y598478D01*
X697464Y570922D01*
X695521Y566230D01*
X691930Y562640D01*
X687239Y560696D01*
X682161Y560696D01*
G37*
%LPD*%
%LPC*%
G36*
X784068Y391525D02*
X784068Y391525D01*
X783175Y392418D01*
X783175Y419082D01*
X784068Y419975D01*
X810732Y419975D01*
X811625Y419082D01*
X811625Y392418D01*
X810732Y391525D01*
X784068Y391525D01*
G37*
%LPD*%
%LPC*%
G36*
X336518Y208375D02*
X336518Y208375D01*
X335625Y209268D01*
X335625Y235932D01*
X336518Y236825D01*
X363182Y236825D01*
X364075Y235932D01*
X364075Y209268D01*
X363182Y208375D01*
X336518Y208375D01*
G37*
%LPD*%
%LPC*%
G36*
X782768Y611525D02*
X782768Y611525D01*
X781875Y612418D01*
X781875Y639082D01*
X782768Y639975D01*
X809432Y639975D01*
X810325Y639082D01*
X810325Y612418D01*
X809432Y611525D01*
X782768Y611525D01*
G37*
%LPD*%
%LPC*%
G36*
X287021Y66375D02*
X287021Y66375D01*
X281792Y68541D01*
X277791Y72542D01*
X275625Y77771D01*
X275625Y83429D01*
X277791Y88658D01*
X281792Y92659D01*
X287021Y94825D01*
X292679Y94825D01*
X297908Y92659D01*
X301909Y88658D01*
X304075Y83429D01*
X304075Y77771D01*
X301909Y72542D01*
X297908Y68541D01*
X292679Y66375D01*
X287021Y66375D01*
G37*
%LPD*%
%LPC*%
G36*
X407021Y66375D02*
X407021Y66375D01*
X401792Y68541D01*
X397791Y72542D01*
X395625Y77771D01*
X395625Y83429D01*
X397791Y88658D01*
X401792Y92659D01*
X407021Y94825D01*
X412679Y94825D01*
X417908Y92659D01*
X421909Y88658D01*
X424075Y83429D01*
X424075Y77771D01*
X421909Y72542D01*
X417908Y68541D01*
X412679Y66375D01*
X407021Y66375D01*
G37*
%LPD*%
%LPC*%
G36*
X935271Y551525D02*
X935271Y551525D01*
X930042Y553691D01*
X926041Y557692D01*
X923875Y562921D01*
X923875Y568579D01*
X926041Y573808D01*
X930042Y577809D01*
X935271Y579975D01*
X940929Y579975D01*
X946158Y577809D01*
X950159Y573808D01*
X952325Y568579D01*
X952325Y562921D01*
X950159Y557692D01*
X946158Y553691D01*
X940929Y551525D01*
X935271Y551525D01*
G37*
%LPD*%
%LPC*%
G36*
X935271Y671525D02*
X935271Y671525D01*
X930042Y673691D01*
X926041Y677692D01*
X923875Y682921D01*
X923875Y688579D01*
X926041Y693808D01*
X930042Y697809D01*
X935271Y699975D01*
X940929Y699975D01*
X946158Y697809D01*
X950159Y693808D01*
X952325Y688579D01*
X952325Y682921D01*
X950159Y677692D01*
X946158Y673691D01*
X940929Y671525D01*
X935271Y671525D01*
G37*
%LPD*%
%LPC*%
G36*
X78005Y192175D02*
X78005Y192175D01*
X74505Y193625D01*
X71825Y196305D01*
X70375Y199805D01*
X70375Y203595D01*
X71825Y207095D01*
X74505Y209775D01*
X77455Y210997D01*
X77516Y211035D01*
X77581Y211064D01*
X77620Y211099D01*
X77664Y211126D01*
X77710Y211182D01*
X77762Y211230D01*
X77788Y211276D01*
X77821Y211316D01*
X77846Y211383D01*
X77881Y211446D01*
X77890Y211497D01*
X77909Y211545D01*
X77912Y211617D01*
X77925Y211688D01*
X77917Y211739D01*
X77919Y211791D01*
X77899Y211860D01*
X77889Y211931D01*
X77865Y211977D01*
X77851Y212027D01*
X77810Y212086D01*
X77777Y212150D01*
X77740Y212187D01*
X77711Y212229D01*
X77653Y212272D01*
X77602Y212322D01*
X77539Y212357D01*
X77513Y212376D01*
X77491Y212383D01*
X77455Y212403D01*
X74505Y213625D01*
X71825Y216305D01*
X70375Y219805D01*
X70375Y223595D01*
X71825Y227095D01*
X74505Y229775D01*
X78005Y231225D01*
X81795Y231225D01*
X85295Y229775D01*
X87975Y227095D01*
X89425Y223595D01*
X89425Y219805D01*
X87975Y216305D01*
X85295Y213625D01*
X82345Y212403D01*
X82284Y212365D01*
X82219Y212336D01*
X82180Y212301D01*
X82136Y212274D01*
X82090Y212218D01*
X82038Y212170D01*
X82012Y212124D01*
X81979Y212084D01*
X81954Y212017D01*
X81919Y211954D01*
X81910Y211903D01*
X81891Y211855D01*
X81888Y211783D01*
X81875Y211712D01*
X81883Y211661D01*
X81881Y211609D01*
X81901Y211540D01*
X81911Y211469D01*
X81935Y211423D01*
X81949Y211373D01*
X81990Y211314D01*
X82023Y211250D01*
X82060Y211213D01*
X82089Y211171D01*
X82147Y211128D01*
X82198Y211078D01*
X82261Y211043D01*
X82287Y211024D01*
X82309Y211017D01*
X82345Y210997D01*
X85295Y209775D01*
X87975Y207095D01*
X89425Y203595D01*
X89425Y199805D01*
X87975Y196305D01*
X85295Y193625D01*
X81795Y192175D01*
X78005Y192175D01*
G37*
%LPD*%
%LPC*%
G36*
X78005Y55675D02*
X78005Y55675D01*
X74505Y57125D01*
X71825Y59805D01*
X70375Y63305D01*
X70375Y67095D01*
X71825Y70595D01*
X74505Y73275D01*
X77455Y74497D01*
X77516Y74535D01*
X77581Y74564D01*
X77620Y74599D01*
X77664Y74626D01*
X77710Y74682D01*
X77762Y74730D01*
X77788Y74776D01*
X77821Y74816D01*
X77846Y74883D01*
X77881Y74946D01*
X77890Y74997D01*
X77909Y75045D01*
X77912Y75117D01*
X77925Y75188D01*
X77917Y75239D01*
X77919Y75291D01*
X77899Y75360D01*
X77889Y75431D01*
X77865Y75477D01*
X77851Y75527D01*
X77810Y75586D01*
X77777Y75650D01*
X77740Y75687D01*
X77711Y75729D01*
X77653Y75772D01*
X77602Y75822D01*
X77539Y75857D01*
X77513Y75876D01*
X77491Y75883D01*
X77455Y75903D01*
X74505Y77125D01*
X71825Y79805D01*
X70375Y83305D01*
X70375Y87095D01*
X71825Y90595D01*
X74505Y93275D01*
X78005Y94725D01*
X81795Y94725D01*
X85295Y93275D01*
X87975Y90595D01*
X89425Y87095D01*
X89425Y83305D01*
X87975Y79805D01*
X85295Y77125D01*
X82345Y75903D01*
X82284Y75865D01*
X82219Y75836D01*
X82180Y75801D01*
X82136Y75774D01*
X82090Y75718D01*
X82038Y75670D01*
X82012Y75624D01*
X81979Y75584D01*
X81954Y75517D01*
X81919Y75454D01*
X81910Y75403D01*
X81891Y75355D01*
X81888Y75283D01*
X81875Y75212D01*
X81883Y75161D01*
X81881Y75109D01*
X81901Y75040D01*
X81911Y74969D01*
X81935Y74923D01*
X81949Y74873D01*
X81990Y74814D01*
X82023Y74750D01*
X82060Y74713D01*
X82089Y74671D01*
X82147Y74628D01*
X82198Y74578D01*
X82261Y74543D01*
X82287Y74524D01*
X82309Y74517D01*
X82345Y74497D01*
X85295Y73275D01*
X87975Y70595D01*
X89425Y67095D01*
X89425Y63305D01*
X87975Y59805D01*
X85295Y57125D01*
X81795Y55675D01*
X78005Y55675D01*
G37*
%LPD*%
%LPC*%
G36*
X78005Y128675D02*
X78005Y128675D01*
X74505Y130125D01*
X71825Y132805D01*
X70375Y136305D01*
X70375Y140095D01*
X71825Y143595D01*
X74505Y146275D01*
X77455Y147497D01*
X77516Y147535D01*
X77581Y147564D01*
X77620Y147599D01*
X77664Y147626D01*
X77710Y147682D01*
X77762Y147730D01*
X77788Y147776D01*
X77821Y147816D01*
X77846Y147883D01*
X77881Y147946D01*
X77890Y147997D01*
X77909Y148045D01*
X77912Y148117D01*
X77925Y148188D01*
X77917Y148239D01*
X77919Y148291D01*
X77899Y148360D01*
X77889Y148431D01*
X77865Y148477D01*
X77851Y148527D01*
X77810Y148586D01*
X77777Y148650D01*
X77740Y148687D01*
X77711Y148729D01*
X77653Y148772D01*
X77602Y148822D01*
X77539Y148857D01*
X77513Y148876D01*
X77491Y148883D01*
X77455Y148903D01*
X74505Y150125D01*
X71825Y152805D01*
X70375Y156305D01*
X70375Y160095D01*
X71825Y163595D01*
X74505Y166275D01*
X78005Y167725D01*
X81795Y167725D01*
X85295Y166275D01*
X87975Y163595D01*
X89425Y160095D01*
X89425Y156305D01*
X87975Y152805D01*
X85295Y150125D01*
X82345Y148903D01*
X82284Y148865D01*
X82219Y148836D01*
X82180Y148801D01*
X82136Y148774D01*
X82090Y148718D01*
X82038Y148670D01*
X82012Y148624D01*
X81979Y148584D01*
X81954Y148517D01*
X81919Y148454D01*
X81910Y148403D01*
X81891Y148355D01*
X81888Y148283D01*
X81875Y148212D01*
X81883Y148161D01*
X81881Y148109D01*
X81901Y148040D01*
X81911Y147969D01*
X81935Y147923D01*
X81949Y147873D01*
X81990Y147814D01*
X82023Y147750D01*
X82060Y147713D01*
X82089Y147671D01*
X82147Y147628D01*
X82198Y147578D01*
X82261Y147543D01*
X82287Y147524D01*
X82309Y147517D01*
X82345Y147497D01*
X85295Y146275D01*
X87975Y143595D01*
X89425Y140095D01*
X89425Y136305D01*
X87975Y132805D01*
X85295Y130125D01*
X81795Y128675D01*
X78005Y128675D01*
G37*
%LPD*%
%LPC*%
G36*
X193081Y841435D02*
X193081Y841435D01*
X189720Y842827D01*
X187147Y845400D01*
X185755Y848761D01*
X185755Y867639D01*
X187147Y871000D01*
X189720Y873573D01*
X193081Y874965D01*
X196719Y874965D01*
X200080Y873573D01*
X202653Y871000D01*
X204045Y867639D01*
X204045Y848761D01*
X202653Y845400D01*
X200080Y842827D01*
X196719Y841435D01*
X193081Y841435D01*
G37*
%LPD*%
%LPC*%
G36*
X142281Y841435D02*
X142281Y841435D01*
X138920Y842827D01*
X136347Y845400D01*
X134955Y848761D01*
X134955Y867639D01*
X136347Y871000D01*
X138920Y873573D01*
X142281Y874965D01*
X145919Y874965D01*
X149280Y873573D01*
X151853Y871000D01*
X153245Y867639D01*
X153245Y848761D01*
X151853Y845400D01*
X149280Y842827D01*
X145919Y841435D01*
X142281Y841435D01*
G37*
%LPD*%
%LPC*%
G36*
X475281Y297635D02*
X475281Y297635D01*
X471920Y299027D01*
X469347Y301600D01*
X467955Y304961D01*
X467955Y323839D01*
X469347Y327200D01*
X471920Y329773D01*
X475281Y331165D01*
X478919Y331165D01*
X482280Y329773D01*
X484853Y327200D01*
X486245Y323839D01*
X486245Y304961D01*
X484853Y301600D01*
X482280Y299027D01*
X478919Y297635D01*
X475281Y297635D01*
G37*
%LPD*%
%LPC*%
G36*
X342281Y297635D02*
X342281Y297635D01*
X338920Y299027D01*
X336347Y301600D01*
X334955Y304961D01*
X334955Y323839D01*
X336347Y327200D01*
X338920Y329773D01*
X342281Y331165D01*
X345919Y331165D01*
X349280Y329773D01*
X351853Y327200D01*
X353245Y323839D01*
X353245Y304961D01*
X351853Y301600D01*
X349280Y299027D01*
X345919Y297635D01*
X342281Y297635D01*
G37*
%LPD*%
%LPC*%
G36*
X602408Y782175D02*
X602408Y782175D01*
X597989Y784006D01*
X594606Y787389D01*
X592775Y791808D01*
X592775Y796592D01*
X594606Y801011D01*
X597989Y804394D01*
X602408Y806225D01*
X607192Y806225D01*
X611611Y804394D01*
X614994Y801011D01*
X616825Y796592D01*
X616825Y791808D01*
X614994Y787389D01*
X611611Y784006D01*
X607192Y782175D01*
X602408Y782175D01*
G37*
%LPD*%
%LPC*%
G36*
X961708Y109075D02*
X961708Y109075D01*
X957289Y110906D01*
X953906Y114289D01*
X952075Y118708D01*
X952075Y123492D01*
X953906Y127911D01*
X957289Y131294D01*
X961708Y133125D01*
X966492Y133125D01*
X970911Y131294D01*
X974294Y127911D01*
X976125Y123492D01*
X976125Y118708D01*
X974294Y114289D01*
X970911Y110906D01*
X966492Y109075D01*
X961708Y109075D01*
G37*
%LPD*%
%LPC*%
G36*
X692408Y782175D02*
X692408Y782175D01*
X687989Y784006D01*
X684606Y787389D01*
X682775Y791808D01*
X682775Y796592D01*
X684606Y801011D01*
X687989Y804394D01*
X692408Y806225D01*
X697192Y806225D01*
X701611Y804394D01*
X704994Y801011D01*
X706825Y796592D01*
X706825Y791808D01*
X704994Y787389D01*
X701611Y784006D01*
X697192Y782175D01*
X692408Y782175D01*
G37*
%LPD*%
%LPC*%
G36*
X428708Y788975D02*
X428708Y788975D01*
X424289Y790806D01*
X420906Y794189D01*
X419075Y798608D01*
X419075Y803392D01*
X420906Y807811D01*
X424289Y811194D01*
X428708Y813025D01*
X433492Y813025D01*
X437911Y811194D01*
X441294Y807811D01*
X443125Y803392D01*
X443125Y798608D01*
X441294Y794189D01*
X437911Y790806D01*
X433492Y788975D01*
X428708Y788975D01*
G37*
%LPD*%
%LPC*%
G36*
X961708Y199075D02*
X961708Y199075D01*
X957289Y200906D01*
X953906Y204289D01*
X952075Y208708D01*
X952075Y213492D01*
X953906Y217911D01*
X957289Y221294D01*
X961708Y223125D01*
X966492Y223125D01*
X970911Y221294D01*
X974294Y217911D01*
X976125Y213492D01*
X976125Y208708D01*
X974294Y204289D01*
X970911Y200906D01*
X966492Y199075D01*
X961708Y199075D01*
G37*
%LPD*%
%LPC*%
G36*
X44813Y843020D02*
X44813Y843020D01*
X43920Y843913D01*
X43920Y861687D01*
X44813Y862580D01*
X62587Y862580D01*
X63480Y861687D01*
X63480Y843913D01*
X62587Y843020D01*
X44813Y843020D01*
G37*
%LPD*%
%LPC*%
G36*
X348313Y643020D02*
X348313Y643020D01*
X347420Y643913D01*
X347420Y661687D01*
X348313Y662580D01*
X366087Y662580D01*
X366980Y661687D01*
X366980Y643913D01*
X366087Y643020D01*
X348313Y643020D01*
G37*
%LPD*%
%LPC*%
G36*
X32627Y444877D02*
X32627Y444877D01*
X28613Y446540D01*
X25540Y449613D01*
X23877Y453627D01*
X23877Y457973D01*
X25540Y461987D01*
X28613Y465060D01*
X32627Y466723D01*
X36973Y466723D01*
X40987Y465060D01*
X44060Y461987D01*
X45723Y457973D01*
X45723Y453627D01*
X44060Y449613D01*
X40987Y446540D01*
X36973Y444877D01*
X32627Y444877D01*
G37*
%LPD*%
%LPC*%
G36*
X300327Y546977D02*
X300327Y546977D01*
X296313Y548640D01*
X293240Y551713D01*
X291577Y555727D01*
X291577Y560073D01*
X293240Y564087D01*
X296313Y567160D01*
X300327Y568823D01*
X304673Y568823D01*
X308687Y567160D01*
X311760Y564087D01*
X313423Y560073D01*
X313423Y555727D01*
X311760Y551713D01*
X308687Y548640D01*
X304673Y546977D01*
X300327Y546977D01*
G37*
%LPD*%
%LPC*%
G36*
X126327Y70777D02*
X126327Y70777D01*
X122313Y72440D01*
X119240Y75513D01*
X117577Y79527D01*
X117577Y83873D01*
X119240Y87887D01*
X122313Y90960D01*
X126327Y92623D01*
X130673Y92623D01*
X134687Y90960D01*
X137760Y87887D01*
X139423Y83873D01*
X139423Y79527D01*
X137760Y75513D01*
X134687Y72440D01*
X130673Y70777D01*
X126327Y70777D01*
G37*
%LPD*%
%LPC*%
G36*
X43027Y775177D02*
X43027Y775177D01*
X39013Y776840D01*
X35940Y779913D01*
X34277Y783927D01*
X34277Y788273D01*
X35940Y792287D01*
X39013Y795360D01*
X43027Y797023D01*
X47373Y797023D01*
X51387Y795360D01*
X54460Y792287D01*
X56123Y788273D01*
X56123Y783927D01*
X54460Y779913D01*
X51387Y776840D01*
X47373Y775177D01*
X43027Y775177D01*
G37*
%LPD*%
%LPC*%
G36*
X401927Y546977D02*
X401927Y546977D01*
X397913Y548640D01*
X394840Y551713D01*
X393177Y555727D01*
X393177Y560073D01*
X394840Y564087D01*
X397913Y567160D01*
X401927Y568823D01*
X406273Y568823D01*
X410287Y567160D01*
X413360Y564087D01*
X415023Y560073D01*
X415023Y555727D01*
X413360Y551713D01*
X410287Y548640D01*
X406273Y546977D01*
X401927Y546977D01*
G37*
%LPD*%
%LPC*%
G36*
X43027Y749777D02*
X43027Y749777D01*
X39013Y751440D01*
X35940Y754513D01*
X34277Y758527D01*
X34277Y762873D01*
X35940Y766887D01*
X39013Y769960D01*
X43027Y771623D01*
X47373Y771623D01*
X51387Y769960D01*
X54460Y766887D01*
X56123Y762873D01*
X56123Y758527D01*
X54460Y754513D01*
X51387Y751440D01*
X47373Y749777D01*
X43027Y749777D01*
G37*
%LPD*%
%LPC*%
G36*
X71527Y747377D02*
X71527Y747377D01*
X67513Y749040D01*
X64440Y752113D01*
X62777Y756127D01*
X62777Y760473D01*
X64440Y764487D01*
X67513Y767560D01*
X71527Y769223D01*
X75873Y769223D01*
X79887Y767560D01*
X82960Y764487D01*
X84623Y760473D01*
X84623Y756127D01*
X82960Y752113D01*
X79887Y749040D01*
X75873Y747377D01*
X71527Y747377D01*
G37*
%LPD*%
%LPC*%
G36*
X114727Y147377D02*
X114727Y147377D01*
X110713Y149040D01*
X107640Y152113D01*
X105977Y156127D01*
X105977Y160473D01*
X107640Y164487D01*
X110713Y167560D01*
X114727Y169223D01*
X119073Y169223D01*
X123087Y167560D01*
X126160Y164487D01*
X127823Y160473D01*
X127823Y156127D01*
X126160Y152113D01*
X123087Y149040D01*
X119073Y147377D01*
X114727Y147377D01*
G37*
%LPD*%
%LPC*%
G36*
X43027Y724377D02*
X43027Y724377D01*
X39013Y726040D01*
X35940Y729113D01*
X34277Y733127D01*
X34277Y737473D01*
X35940Y741487D01*
X39013Y744560D01*
X43027Y746223D01*
X47373Y746223D01*
X51387Y744560D01*
X54460Y741487D01*
X56123Y737473D01*
X56123Y733127D01*
X54460Y729113D01*
X51387Y726040D01*
X47373Y724377D01*
X43027Y724377D01*
G37*
%LPD*%
%LPC*%
G36*
X116327Y207377D02*
X116327Y207377D01*
X112313Y209040D01*
X109240Y212113D01*
X107577Y216127D01*
X107577Y220473D01*
X109240Y224487D01*
X112313Y227560D01*
X116327Y229223D01*
X120673Y229223D01*
X124687Y227560D01*
X127760Y224487D01*
X129423Y220473D01*
X129423Y216127D01*
X127760Y212113D01*
X124687Y209040D01*
X120673Y207377D01*
X116327Y207377D01*
G37*
%LPD*%
%LPC*%
G36*
X43027Y698977D02*
X43027Y698977D01*
X39013Y700640D01*
X35940Y703713D01*
X34277Y707727D01*
X34277Y712073D01*
X35940Y716087D01*
X39013Y719160D01*
X43027Y720823D01*
X47373Y720823D01*
X51387Y719160D01*
X54460Y716087D01*
X56123Y712073D01*
X56123Y707727D01*
X54460Y703713D01*
X51387Y700640D01*
X47373Y698977D01*
X43027Y698977D01*
G37*
%LPD*%
%LPC*%
G36*
X45255Y557120D02*
X45255Y557120D01*
X41660Y558609D01*
X38909Y561360D01*
X37420Y564955D01*
X37420Y568845D01*
X38909Y572440D01*
X41660Y575191D01*
X45255Y576680D01*
X49145Y576680D01*
X52740Y575191D01*
X55491Y572440D01*
X56980Y568845D01*
X56980Y564955D01*
X55491Y561360D01*
X52740Y558609D01*
X49145Y557120D01*
X45255Y557120D01*
G37*
%LPD*%
%LPC*%
G36*
X78955Y528120D02*
X78955Y528120D01*
X75360Y529609D01*
X72609Y532360D01*
X71120Y535955D01*
X71120Y539845D01*
X72609Y543440D01*
X75360Y546191D01*
X78955Y547680D01*
X82845Y547680D01*
X86440Y546191D01*
X89191Y543440D01*
X90680Y539845D01*
X90680Y535955D01*
X89191Y532360D01*
X86440Y529609D01*
X82845Y528120D01*
X78955Y528120D01*
G37*
%LPD*%
%LPC*%
G36*
X100955Y612320D02*
X100955Y612320D01*
X97360Y613809D01*
X94609Y616560D01*
X93120Y620155D01*
X93120Y624045D01*
X94609Y627640D01*
X97360Y630391D01*
X100955Y631880D01*
X104845Y631880D01*
X108440Y630391D01*
X111191Y627640D01*
X112680Y624045D01*
X112680Y620155D01*
X111191Y616560D01*
X108440Y613809D01*
X104845Y612320D01*
X100955Y612320D01*
G37*
%LPD*%
%LPC*%
G36*
X45255Y607920D02*
X45255Y607920D01*
X41660Y609409D01*
X38909Y612160D01*
X37420Y615755D01*
X37420Y619645D01*
X38909Y623240D01*
X41660Y625991D01*
X45255Y627480D01*
X49145Y627480D01*
X52740Y625991D01*
X55491Y623240D01*
X56980Y619645D01*
X56980Y615755D01*
X55491Y612160D01*
X52740Y609409D01*
X49145Y607920D01*
X45255Y607920D01*
G37*
%LPD*%
%LPC*%
G36*
X178480Y489447D02*
X178480Y489447D01*
X174932Y490917D01*
X172217Y493632D01*
X170747Y497180D01*
X170747Y501020D01*
X172217Y504568D01*
X174932Y507283D01*
X178480Y508753D01*
X182320Y508753D01*
X185868Y507283D01*
X188583Y504568D01*
X190053Y501020D01*
X190053Y497180D01*
X188583Y493632D01*
X185868Y490917D01*
X182320Y489447D01*
X178480Y489447D01*
G37*
%LPD*%
%LPC*%
G36*
X254680Y591047D02*
X254680Y591047D01*
X251132Y592517D01*
X248417Y595232D01*
X246947Y598780D01*
X246947Y602620D01*
X248417Y606168D01*
X251132Y608883D01*
X254680Y610353D01*
X258520Y610353D01*
X262068Y608883D01*
X264783Y606168D01*
X266253Y602620D01*
X266253Y598780D01*
X264783Y595232D01*
X262068Y592517D01*
X258520Y591047D01*
X254680Y591047D01*
G37*
%LPD*%
%LPC*%
G36*
X178480Y464047D02*
X178480Y464047D01*
X174932Y465517D01*
X172217Y468232D01*
X170747Y471780D01*
X170747Y475620D01*
X172217Y479168D01*
X174932Y481883D01*
X178480Y483353D01*
X182320Y483353D01*
X185868Y481883D01*
X188583Y479168D01*
X190053Y475620D01*
X190053Y471780D01*
X188583Y468232D01*
X185868Y465517D01*
X182320Y464047D01*
X178480Y464047D01*
G37*
%LPD*%
%LPC*%
G36*
X178480Y514847D02*
X178480Y514847D01*
X174932Y516317D01*
X172217Y519032D01*
X170747Y522580D01*
X170747Y526420D01*
X172217Y529968D01*
X174932Y532683D01*
X178480Y534153D01*
X182320Y534153D01*
X185868Y532683D01*
X188583Y529968D01*
X190053Y526420D01*
X190053Y522580D01*
X188583Y519032D01*
X185868Y516317D01*
X182320Y514847D01*
X178480Y514847D01*
G37*
%LPD*%
%LPC*%
G36*
X178480Y565647D02*
X178480Y565647D01*
X174932Y567117D01*
X172217Y569832D01*
X170747Y573380D01*
X170747Y577220D01*
X172217Y580768D01*
X174932Y583483D01*
X178480Y584953D01*
X182320Y584953D01*
X185868Y583483D01*
X188583Y580768D01*
X190053Y577220D01*
X190053Y573380D01*
X188583Y569832D01*
X185868Y567117D01*
X182320Y565647D01*
X178480Y565647D01*
G37*
%LPD*%
%LPC*%
G36*
X178480Y667247D02*
X178480Y667247D01*
X174932Y668717D01*
X172217Y671432D01*
X170747Y674980D01*
X170747Y678820D01*
X172217Y682368D01*
X174932Y685083D01*
X178480Y686553D01*
X182320Y686553D01*
X185868Y685083D01*
X188583Y682368D01*
X190053Y678820D01*
X190053Y674980D01*
X188583Y671432D01*
X185868Y668717D01*
X182320Y667247D01*
X178480Y667247D01*
G37*
%LPD*%
%LPC*%
G36*
X254680Y667247D02*
X254680Y667247D01*
X251132Y668717D01*
X248417Y671432D01*
X246947Y674980D01*
X246947Y678820D01*
X248417Y682368D01*
X251132Y685083D01*
X254680Y686553D01*
X258520Y686553D01*
X262068Y685083D01*
X264783Y682368D01*
X266253Y678820D01*
X266253Y674980D01*
X264783Y671432D01*
X262068Y668717D01*
X258520Y667247D01*
X254680Y667247D01*
G37*
%LPD*%
%LPC*%
G36*
X254680Y464047D02*
X254680Y464047D01*
X251132Y465517D01*
X248417Y468232D01*
X246947Y471780D01*
X246947Y475620D01*
X248417Y479168D01*
X251132Y481883D01*
X254680Y483353D01*
X258520Y483353D01*
X262068Y481883D01*
X264783Y479168D01*
X266253Y475620D01*
X266253Y471780D01*
X264783Y468232D01*
X262068Y465517D01*
X258520Y464047D01*
X254680Y464047D01*
G37*
%LPD*%
%LPC*%
G36*
X254680Y768847D02*
X254680Y768847D01*
X251132Y770317D01*
X248417Y773032D01*
X246947Y776580D01*
X246947Y780420D01*
X248417Y783968D01*
X251132Y786683D01*
X254680Y788153D01*
X258520Y788153D01*
X262068Y786683D01*
X264783Y783968D01*
X266253Y780420D01*
X266253Y776580D01*
X264783Y773032D01*
X262068Y770317D01*
X258520Y768847D01*
X254680Y768847D01*
G37*
%LPD*%
%LPC*%
G36*
X178480Y768847D02*
X178480Y768847D01*
X174932Y770317D01*
X172217Y773032D01*
X170747Y776580D01*
X170747Y780420D01*
X172217Y783968D01*
X174932Y786683D01*
X178480Y788153D01*
X182320Y788153D01*
X185868Y786683D01*
X188583Y783968D01*
X190053Y780420D01*
X190053Y776580D01*
X188583Y773032D01*
X185868Y770317D01*
X182320Y768847D01*
X178480Y768847D01*
G37*
%LPD*%
%LPC*%
G36*
X254680Y743447D02*
X254680Y743447D01*
X251132Y744917D01*
X248417Y747632D01*
X246947Y751180D01*
X246947Y755020D01*
X248417Y758568D01*
X251132Y761283D01*
X254680Y762753D01*
X258520Y762753D01*
X262068Y761283D01*
X264783Y758568D01*
X266253Y755020D01*
X266253Y751180D01*
X264783Y747632D01*
X262068Y744917D01*
X258520Y743447D01*
X254680Y743447D01*
G37*
%LPD*%
%LPC*%
G36*
X178480Y743447D02*
X178480Y743447D01*
X174932Y744917D01*
X172217Y747632D01*
X170747Y751180D01*
X170747Y755020D01*
X172217Y758568D01*
X174932Y761283D01*
X178480Y762753D01*
X182320Y762753D01*
X185868Y761283D01*
X188583Y758568D01*
X190053Y755020D01*
X190053Y751180D01*
X188583Y747632D01*
X185868Y744917D01*
X182320Y743447D01*
X178480Y743447D01*
G37*
%LPD*%
%LPC*%
G36*
X254680Y718047D02*
X254680Y718047D01*
X251132Y719517D01*
X248417Y722232D01*
X246947Y725780D01*
X246947Y729620D01*
X248417Y733168D01*
X251132Y735883D01*
X254680Y737353D01*
X258520Y737353D01*
X262068Y735883D01*
X264783Y733168D01*
X266253Y729620D01*
X266253Y725780D01*
X264783Y722232D01*
X262068Y719517D01*
X258520Y718047D01*
X254680Y718047D01*
G37*
%LPD*%
%LPC*%
G36*
X178480Y718047D02*
X178480Y718047D01*
X174932Y719517D01*
X172217Y722232D01*
X170747Y725780D01*
X170747Y729620D01*
X172217Y733168D01*
X174932Y735883D01*
X178480Y737353D01*
X182320Y737353D01*
X185868Y735883D01*
X188583Y733168D01*
X190053Y729620D01*
X190053Y725780D01*
X188583Y722232D01*
X185868Y719517D01*
X182320Y718047D01*
X178480Y718047D01*
G37*
%LPD*%
%LPC*%
G36*
X254680Y692647D02*
X254680Y692647D01*
X251132Y694117D01*
X248417Y696832D01*
X246947Y700380D01*
X246947Y704220D01*
X248417Y707768D01*
X251132Y710483D01*
X254680Y711953D01*
X258520Y711953D01*
X262068Y710483D01*
X264783Y707768D01*
X266253Y704220D01*
X266253Y700380D01*
X264783Y696832D01*
X262068Y694117D01*
X258520Y692647D01*
X254680Y692647D01*
G37*
%LPD*%
%LPC*%
G36*
X178480Y692647D02*
X178480Y692647D01*
X174932Y694117D01*
X172217Y696832D01*
X170747Y700380D01*
X170747Y704220D01*
X172217Y707768D01*
X174932Y710483D01*
X178480Y711953D01*
X182320Y711953D01*
X185868Y710483D01*
X188583Y707768D01*
X190053Y704220D01*
X190053Y700380D01*
X188583Y696832D01*
X185868Y694117D01*
X182320Y692647D01*
X178480Y692647D01*
G37*
%LPD*%
%LPC*%
G36*
X254680Y565647D02*
X254680Y565647D01*
X251132Y567117D01*
X248417Y569832D01*
X246947Y573380D01*
X246947Y577220D01*
X248417Y580768D01*
X251132Y583483D01*
X254680Y584953D01*
X258520Y584953D01*
X262068Y583483D01*
X264783Y580768D01*
X266253Y577220D01*
X266253Y573380D01*
X264783Y569832D01*
X262068Y567117D01*
X258520Y565647D01*
X254680Y565647D01*
G37*
%LPD*%
%LPC*%
G36*
X178480Y641847D02*
X178480Y641847D01*
X174932Y643317D01*
X172217Y646032D01*
X170747Y649580D01*
X170747Y653420D01*
X172217Y656968D01*
X174932Y659683D01*
X178480Y661153D01*
X182320Y661153D01*
X185868Y659683D01*
X188583Y656968D01*
X190053Y653420D01*
X190053Y649580D01*
X188583Y646032D01*
X185868Y643317D01*
X182320Y641847D01*
X178480Y641847D01*
G37*
%LPD*%
%LPC*%
G36*
X254680Y641847D02*
X254680Y641847D01*
X251132Y643317D01*
X248417Y646032D01*
X246947Y649580D01*
X246947Y653420D01*
X248417Y656968D01*
X251132Y659683D01*
X254680Y661153D01*
X258520Y661153D01*
X262068Y659683D01*
X264783Y656968D01*
X266253Y653420D01*
X266253Y649580D01*
X264783Y646032D01*
X262068Y643317D01*
X258520Y641847D01*
X254680Y641847D01*
G37*
%LPD*%
%LPC*%
G36*
X254680Y540247D02*
X254680Y540247D01*
X251132Y541717D01*
X248417Y544432D01*
X246947Y547980D01*
X246947Y551820D01*
X248417Y555368D01*
X251132Y558083D01*
X254680Y559553D01*
X258520Y559553D01*
X262068Y558083D01*
X264783Y555368D01*
X266253Y551820D01*
X266253Y547980D01*
X264783Y544432D01*
X262068Y541717D01*
X258520Y540247D01*
X254680Y540247D01*
G37*
%LPD*%
%LPC*%
G36*
X178480Y540247D02*
X178480Y540247D01*
X174932Y541717D01*
X172217Y544432D01*
X170747Y547980D01*
X170747Y551820D01*
X172217Y555368D01*
X174932Y558083D01*
X178480Y559553D01*
X182320Y559553D01*
X185868Y558083D01*
X188583Y555368D01*
X190053Y551820D01*
X190053Y547980D01*
X188583Y544432D01*
X185868Y541717D01*
X182320Y540247D01*
X178480Y540247D01*
G37*
%LPD*%
%LPC*%
G36*
X291373Y204123D02*
X291373Y204123D01*
X291373Y217789D01*
X293419Y217465D01*
X295700Y216724D01*
X297838Y215635D01*
X299779Y214225D01*
X301475Y212529D01*
X302885Y210588D01*
X303974Y208450D01*
X304715Y206169D01*
X305039Y204123D01*
X291373Y204123D01*
G37*
%LPD*%
%LPC*%
G36*
X818923Y347273D02*
X818923Y347273D01*
X818923Y360939D01*
X820969Y360615D01*
X823250Y359874D01*
X825388Y358785D01*
X827329Y357375D01*
X829025Y355679D01*
X830435Y353738D01*
X831524Y351600D01*
X832265Y349319D01*
X832589Y347273D01*
X818923Y347273D01*
G37*
%LPD*%
%LPC*%
G36*
X817623Y567273D02*
X817623Y567273D01*
X817623Y580939D01*
X819669Y580615D01*
X821950Y579874D01*
X824088Y578785D01*
X826029Y577375D01*
X827725Y575679D01*
X829135Y573738D01*
X830224Y571600D01*
X830965Y569319D01*
X831289Y567273D01*
X817623Y567273D01*
G37*
%LPD*%
%LPC*%
G36*
X291373Y201077D02*
X291373Y201077D01*
X305039Y201077D01*
X304715Y199031D01*
X303974Y196750D01*
X302885Y194612D01*
X301475Y192671D01*
X299779Y190975D01*
X297838Y189565D01*
X295700Y188476D01*
X293419Y187735D01*
X291373Y187411D01*
X291373Y201077D01*
G37*
%LPD*%
%LPC*%
G36*
X802211Y347273D02*
X802211Y347273D01*
X802535Y349319D01*
X803276Y351600D01*
X804365Y353738D01*
X805775Y355679D01*
X807471Y357375D01*
X809412Y358785D01*
X811550Y359874D01*
X813831Y360615D01*
X815877Y360939D01*
X815877Y347273D01*
X802211Y347273D01*
G37*
%LPD*%
%LPC*%
G36*
X274661Y204123D02*
X274661Y204123D01*
X274985Y206169D01*
X275726Y208450D01*
X276815Y210588D01*
X278225Y212529D01*
X279921Y214225D01*
X281862Y215635D01*
X284000Y216724D01*
X286281Y217465D01*
X288327Y217789D01*
X288327Y204123D01*
X274661Y204123D01*
G37*
%LPD*%
%LPC*%
G36*
X571373Y202377D02*
X571373Y202377D01*
X585039Y202377D01*
X584715Y200331D01*
X583974Y198050D01*
X582885Y195912D01*
X581475Y193971D01*
X579779Y192275D01*
X577838Y190865D01*
X575700Y189776D01*
X573419Y189035D01*
X571373Y188711D01*
X571373Y202377D01*
G37*
%LPD*%
%LPC*%
G36*
X800911Y567273D02*
X800911Y567273D01*
X801235Y569319D01*
X801976Y571600D01*
X803065Y573738D01*
X804475Y575679D01*
X806171Y577375D01*
X808112Y578785D01*
X810250Y579874D01*
X812531Y580615D01*
X814577Y580939D01*
X814577Y567273D01*
X800911Y567273D01*
G37*
%LPD*%
%LPC*%
G36*
X817623Y564227D02*
X817623Y564227D01*
X831289Y564227D01*
X830965Y562181D01*
X830224Y559900D01*
X829135Y557762D01*
X827725Y555821D01*
X826029Y554125D01*
X824088Y552715D01*
X821950Y551626D01*
X819669Y550885D01*
X817623Y550561D01*
X817623Y564227D01*
G37*
%LPD*%
%LPC*%
G36*
X818923Y344227D02*
X818923Y344227D01*
X832589Y344227D01*
X832265Y342181D01*
X831524Y339900D01*
X830435Y337762D01*
X829025Y335821D01*
X827329Y334125D01*
X825388Y332715D01*
X823250Y331626D01*
X820969Y330885D01*
X818923Y330561D01*
X818923Y344227D01*
G37*
%LPD*%
%LPC*%
G36*
X286281Y187735D02*
X286281Y187735D01*
X284000Y188476D01*
X281862Y189565D01*
X279921Y190975D01*
X278225Y192671D01*
X276815Y194612D01*
X275726Y196750D01*
X274985Y199031D01*
X274661Y201077D01*
X288327Y201077D01*
X288327Y187411D01*
X286281Y187735D01*
G37*
%LPD*%
%LPC*%
G36*
X813831Y330885D02*
X813831Y330885D01*
X811550Y331626D01*
X809412Y332715D01*
X807471Y334125D01*
X805775Y335821D01*
X804365Y337762D01*
X803276Y339900D01*
X802535Y342181D01*
X802211Y344227D01*
X815877Y344227D01*
X815877Y330561D01*
X813831Y330885D01*
G37*
%LPD*%
%LPC*%
G36*
X566281Y189035D02*
X566281Y189035D01*
X564000Y189776D01*
X561862Y190865D01*
X559921Y192275D01*
X558225Y193971D01*
X556815Y195912D01*
X555726Y198050D01*
X554985Y200331D01*
X554661Y202377D01*
X568327Y202377D01*
X568327Y188711D01*
X566281Y189035D01*
G37*
%LPD*%
%LPC*%
G36*
X812531Y550885D02*
X812531Y550885D01*
X810250Y551626D01*
X808112Y552715D01*
X806171Y554125D01*
X804475Y555821D01*
X803065Y557762D01*
X801976Y559900D01*
X801235Y562181D01*
X800911Y564227D01*
X814577Y564227D01*
X814577Y550561D01*
X812531Y550885D01*
G37*
%LPD*%
%LPC*%
G36*
X171023Y859723D02*
X171023Y859723D01*
X171023Y875866D01*
X171879Y875731D01*
X173400Y875236D01*
X174825Y874510D01*
X176119Y873570D01*
X177250Y872439D01*
X178190Y871145D01*
X178916Y869720D01*
X179411Y868199D01*
X179661Y866620D01*
X179661Y859723D01*
X171023Y859723D01*
G37*
%LPD*%
%LPC*%
G36*
X396423Y315923D02*
X396423Y315923D01*
X396423Y332066D01*
X397279Y331931D01*
X398800Y331436D01*
X400225Y330710D01*
X401519Y329770D01*
X402650Y328639D01*
X403590Y327345D01*
X404316Y325920D01*
X404811Y324399D01*
X405061Y322820D01*
X405061Y315923D01*
X396423Y315923D01*
G37*
%LPD*%
%LPC*%
G36*
X529423Y315923D02*
X529423Y315923D01*
X529423Y332066D01*
X530279Y331931D01*
X531800Y331436D01*
X533225Y330710D01*
X534519Y329770D01*
X535650Y328639D01*
X536590Y327345D01*
X537316Y325920D01*
X537811Y324399D01*
X538061Y322820D01*
X538061Y315923D01*
X529423Y315923D01*
G37*
%LPD*%
%LPC*%
G36*
X529423Y312877D02*
X529423Y312877D01*
X538061Y312877D01*
X538061Y305980D01*
X537811Y304401D01*
X537316Y302880D01*
X536590Y301455D01*
X535650Y300161D01*
X534519Y299030D01*
X533225Y298090D01*
X531800Y297364D01*
X530279Y296869D01*
X529423Y296734D01*
X529423Y312877D01*
G37*
%LPD*%
%LPC*%
G36*
X171023Y856677D02*
X171023Y856677D01*
X179661Y856677D01*
X179661Y849780D01*
X179411Y848201D01*
X178916Y846680D01*
X178190Y845255D01*
X177250Y843961D01*
X176119Y842830D01*
X174825Y841890D01*
X173400Y841164D01*
X171879Y840669D01*
X171023Y840534D01*
X171023Y856677D01*
G37*
%LPD*%
%LPC*%
G36*
X396423Y312877D02*
X396423Y312877D01*
X405061Y312877D01*
X405061Y305980D01*
X404811Y304401D01*
X404316Y302880D01*
X403590Y301455D01*
X402650Y300161D01*
X401519Y299030D01*
X400225Y298090D01*
X398800Y297364D01*
X397279Y296869D01*
X396423Y296734D01*
X396423Y312877D01*
G37*
%LPD*%
%LPC*%
G36*
X517739Y315923D02*
X517739Y315923D01*
X517739Y322820D01*
X517989Y324399D01*
X518484Y325920D01*
X519210Y327345D01*
X520150Y328639D01*
X521281Y329770D01*
X522575Y330710D01*
X524000Y331436D01*
X525521Y331931D01*
X526377Y332066D01*
X526377Y315923D01*
X517739Y315923D01*
G37*
%LPD*%
%LPC*%
G36*
X159339Y859723D02*
X159339Y859723D01*
X159339Y866620D01*
X159589Y868199D01*
X160084Y869720D01*
X160810Y871145D01*
X161750Y872439D01*
X162881Y873570D01*
X164175Y874510D01*
X165600Y875236D01*
X167121Y875731D01*
X167977Y875866D01*
X167977Y859723D01*
X159339Y859723D01*
G37*
%LPD*%
%LPC*%
G36*
X167121Y840669D02*
X167121Y840669D01*
X165600Y841164D01*
X164175Y841890D01*
X162881Y842830D01*
X161750Y843961D01*
X160810Y845255D01*
X160084Y846680D01*
X159589Y848201D01*
X159339Y849780D01*
X159339Y856677D01*
X167977Y856677D01*
X167977Y840534D01*
X167121Y840669D01*
G37*
%LPD*%
%LPC*%
G36*
X392521Y296869D02*
X392521Y296869D01*
X391000Y297364D01*
X389575Y298090D01*
X388281Y299030D01*
X387150Y300161D01*
X386210Y301455D01*
X385484Y302880D01*
X384989Y304401D01*
X384739Y305980D01*
X384739Y312877D01*
X393377Y312877D01*
X393377Y296734D01*
X392521Y296869D01*
G37*
%LPD*%
%LPC*%
G36*
X342623Y802523D02*
X342623Y802523D01*
X342623Y813962D01*
X344154Y813720D01*
X346106Y813085D01*
X347935Y812153D01*
X349596Y810947D01*
X351047Y809496D01*
X352253Y807835D01*
X353185Y806006D01*
X353820Y804054D01*
X354062Y802523D01*
X342623Y802523D01*
G37*
%LPD*%
%LPC*%
G36*
X342623Y799477D02*
X342623Y799477D01*
X354062Y799477D01*
X353820Y797946D01*
X353185Y795994D01*
X352253Y794165D01*
X351047Y792504D01*
X349596Y791053D01*
X347935Y789847D01*
X346106Y788915D01*
X344154Y788280D01*
X342623Y788038D01*
X342623Y799477D01*
G37*
%LPD*%
%LPC*%
G36*
X328138Y802523D02*
X328138Y802523D01*
X328380Y804054D01*
X329015Y806006D01*
X329947Y807835D01*
X331153Y809496D01*
X332604Y810947D01*
X334265Y812153D01*
X336094Y813085D01*
X338046Y813720D01*
X339577Y813962D01*
X339577Y802523D01*
X328138Y802523D01*
G37*
%LPD*%
%LPC*%
G36*
X338046Y788280D02*
X338046Y788280D01*
X336094Y788915D01*
X334265Y789847D01*
X332604Y791053D01*
X331153Y792504D01*
X329947Y794165D01*
X329015Y795994D01*
X328380Y797946D01*
X328138Y799477D01*
X339577Y799477D01*
X339577Y788038D01*
X338046Y788280D01*
G37*
%LPD*%
%LPC*%
G36*
X481823Y559423D02*
X481823Y559423D01*
X481823Y569746D01*
X483096Y569545D01*
X484883Y568964D01*
X486557Y568111D01*
X488078Y567006D01*
X489406Y565678D01*
X490511Y564157D01*
X491364Y562483D01*
X491945Y560696D01*
X492146Y559423D01*
X481823Y559423D01*
G37*
%LPD*%
%LPC*%
G36*
X206223Y83223D02*
X206223Y83223D01*
X206223Y93546D01*
X207496Y93345D01*
X209283Y92764D01*
X210957Y91911D01*
X212478Y90806D01*
X213806Y89478D01*
X214911Y87957D01*
X215764Y86283D01*
X216345Y84496D01*
X216546Y83223D01*
X206223Y83223D01*
G37*
%LPD*%
%LPC*%
G36*
X380223Y559423D02*
X380223Y559423D01*
X380223Y569746D01*
X381496Y569545D01*
X383283Y568964D01*
X384957Y568111D01*
X386478Y567006D01*
X387806Y565678D01*
X388911Y564157D01*
X389764Y562483D01*
X390345Y560696D01*
X390546Y559423D01*
X380223Y559423D01*
G37*
%LPD*%
%LPC*%
G36*
X194623Y159823D02*
X194623Y159823D01*
X194623Y170146D01*
X195896Y169945D01*
X197683Y169364D01*
X199357Y168511D01*
X200878Y167406D01*
X202206Y166078D01*
X203311Y164557D01*
X204164Y162883D01*
X204745Y161096D01*
X204946Y159823D01*
X194623Y159823D01*
G37*
%LPD*%
%LPC*%
G36*
X46723Y686023D02*
X46723Y686023D01*
X46723Y696346D01*
X47996Y696145D01*
X49783Y695564D01*
X51457Y694711D01*
X52978Y693606D01*
X54306Y692278D01*
X55411Y690757D01*
X56264Y689083D01*
X56845Y687296D01*
X57046Y686023D01*
X46723Y686023D01*
G37*
%LPD*%
%LPC*%
G36*
X196223Y219823D02*
X196223Y219823D01*
X196223Y230146D01*
X197496Y229945D01*
X199283Y229364D01*
X200957Y228511D01*
X202478Y227406D01*
X203806Y226078D01*
X204911Y224557D01*
X205764Y222883D01*
X206345Y221096D01*
X206546Y219823D01*
X196223Y219823D01*
G37*
%LPD*%
%LPC*%
G36*
X206223Y80177D02*
X206223Y80177D01*
X216546Y80177D01*
X216345Y78904D01*
X215764Y77117D01*
X214911Y75443D01*
X213806Y73922D01*
X212478Y72594D01*
X210957Y71489D01*
X209283Y70636D01*
X207496Y70055D01*
X206223Y69854D01*
X206223Y80177D01*
G37*
%LPD*%
%LPC*%
G36*
X182854Y219823D02*
X182854Y219823D01*
X183055Y221096D01*
X183636Y222883D01*
X184489Y224557D01*
X185594Y226078D01*
X186922Y227406D01*
X188443Y228511D01*
X190117Y229364D01*
X191904Y229945D01*
X193177Y230146D01*
X193177Y219823D01*
X182854Y219823D01*
G37*
%LPD*%
%LPC*%
G36*
X192854Y83223D02*
X192854Y83223D01*
X193055Y84496D01*
X193636Y86283D01*
X194489Y87957D01*
X195594Y89478D01*
X196922Y90806D01*
X198443Y91911D01*
X200117Y92764D01*
X201904Y93345D01*
X203177Y93546D01*
X203177Y83223D01*
X192854Y83223D01*
G37*
%LPD*%
%LPC*%
G36*
X33354Y686023D02*
X33354Y686023D01*
X33555Y687296D01*
X34136Y689083D01*
X34989Y690757D01*
X36094Y692278D01*
X37422Y693606D01*
X38943Y694711D01*
X40617Y695564D01*
X42404Y696145D01*
X43677Y696346D01*
X43677Y686023D01*
X33354Y686023D01*
G37*
%LPD*%
%LPC*%
G36*
X196223Y216777D02*
X196223Y216777D01*
X206546Y216777D01*
X206345Y215504D01*
X205764Y213717D01*
X204911Y212043D01*
X203806Y210522D01*
X202478Y209194D01*
X200957Y208089D01*
X199283Y207236D01*
X197496Y206655D01*
X196223Y206454D01*
X196223Y216777D01*
G37*
%LPD*%
%LPC*%
G36*
X194623Y156777D02*
X194623Y156777D01*
X204946Y156777D01*
X204745Y155504D01*
X204164Y153717D01*
X203311Y152043D01*
X202206Y150522D01*
X200878Y149194D01*
X199357Y148089D01*
X197683Y147236D01*
X195896Y146655D01*
X194623Y146454D01*
X194623Y156777D01*
G37*
%LPD*%
%LPC*%
G36*
X36323Y403477D02*
X36323Y403477D01*
X46646Y403477D01*
X46445Y402204D01*
X45864Y400417D01*
X45011Y398743D01*
X43906Y397222D01*
X42578Y395894D01*
X41057Y394789D01*
X39383Y393936D01*
X37596Y393355D01*
X36323Y393154D01*
X36323Y403477D01*
G37*
%LPD*%
%LPC*%
G36*
X380223Y556377D02*
X380223Y556377D01*
X390546Y556377D01*
X390345Y555104D01*
X389764Y553317D01*
X388911Y551643D01*
X387806Y550122D01*
X386478Y548794D01*
X384957Y547689D01*
X383283Y546836D01*
X381496Y546255D01*
X380223Y546054D01*
X380223Y556377D01*
G37*
%LPD*%
%LPC*%
G36*
X181254Y159823D02*
X181254Y159823D01*
X181455Y161096D01*
X182036Y162883D01*
X182889Y164557D01*
X183994Y166078D01*
X185322Y167406D01*
X186843Y168511D01*
X188517Y169364D01*
X190304Y169945D01*
X191577Y170146D01*
X191577Y159823D01*
X181254Y159823D01*
G37*
%LPD*%
%LPC*%
G36*
X481823Y556377D02*
X481823Y556377D01*
X492146Y556377D01*
X491945Y555104D01*
X491364Y553317D01*
X490511Y551643D01*
X489406Y550122D01*
X488078Y548794D01*
X486557Y547689D01*
X484883Y546836D01*
X483096Y546255D01*
X481823Y546054D01*
X481823Y556377D01*
G37*
%LPD*%
%LPC*%
G36*
X46723Y682977D02*
X46723Y682977D01*
X57046Y682977D01*
X56845Y681704D01*
X56264Y679917D01*
X55411Y678243D01*
X54306Y676722D01*
X52978Y675394D01*
X51457Y674289D01*
X49783Y673436D01*
X47996Y672855D01*
X46723Y672654D01*
X46723Y682977D01*
G37*
%LPD*%
%LPC*%
G36*
X468454Y559423D02*
X468454Y559423D01*
X468655Y560696D01*
X469236Y562483D01*
X470089Y564157D01*
X471194Y565678D01*
X472522Y567006D01*
X474043Y568111D01*
X475717Y568964D01*
X477504Y569545D01*
X478777Y569746D01*
X478777Y559423D01*
X468454Y559423D01*
G37*
%LPD*%
%LPC*%
G36*
X366854Y559423D02*
X366854Y559423D01*
X367055Y560696D01*
X367636Y562483D01*
X368489Y564157D01*
X369594Y565678D01*
X370922Y567006D01*
X372443Y568111D01*
X374117Y568964D01*
X375904Y569545D01*
X377177Y569746D01*
X377177Y559423D01*
X366854Y559423D01*
G37*
%LPD*%
%LPC*%
G36*
X201904Y70055D02*
X201904Y70055D01*
X200117Y70636D01*
X198443Y71489D01*
X196922Y72594D01*
X195594Y73922D01*
X194489Y75443D01*
X193636Y77117D01*
X193055Y78904D01*
X192854Y80177D01*
X203177Y80177D01*
X203177Y69854D01*
X201904Y70055D01*
G37*
%LPD*%
%LPC*%
G36*
X190304Y146655D02*
X190304Y146655D01*
X188517Y147236D01*
X186843Y148089D01*
X185322Y149194D01*
X183994Y150522D01*
X182889Y152043D01*
X182036Y153717D01*
X181455Y155504D01*
X181254Y156777D01*
X191577Y156777D01*
X191577Y146454D01*
X190304Y146655D01*
G37*
%LPD*%
%LPC*%
G36*
X375904Y546255D02*
X375904Y546255D01*
X374117Y546836D01*
X372443Y547689D01*
X370922Y548794D01*
X369594Y550122D01*
X368489Y551643D01*
X367636Y553317D01*
X367055Y555104D01*
X366854Y556377D01*
X377177Y556377D01*
X377177Y546054D01*
X375904Y546255D01*
G37*
%LPD*%
%LPC*%
G36*
X477504Y546255D02*
X477504Y546255D01*
X475717Y546836D01*
X474043Y547689D01*
X472522Y548794D01*
X471194Y550122D01*
X470089Y551643D01*
X469236Y553317D01*
X468655Y555104D01*
X468454Y556377D01*
X478777Y556377D01*
X478777Y546054D01*
X477504Y546255D01*
G37*
%LPD*%
%LPC*%
G36*
X42404Y672855D02*
X42404Y672855D01*
X40617Y673436D01*
X38943Y674289D01*
X37422Y675394D01*
X36094Y676722D01*
X34989Y678243D01*
X34136Y679917D01*
X33555Y681704D01*
X33354Y682977D01*
X43677Y682977D01*
X43677Y672654D01*
X42404Y672855D01*
G37*
%LPD*%
%LPC*%
G36*
X191904Y206655D02*
X191904Y206655D01*
X190117Y207236D01*
X188443Y208089D01*
X186922Y209194D01*
X185594Y210522D01*
X184489Y212043D01*
X183636Y213717D01*
X183055Y215504D01*
X182854Y216777D01*
X193177Y216777D01*
X193177Y206454D01*
X191904Y206655D01*
G37*
%LPD*%
%LPC*%
G36*
X30223Y854323D02*
X30223Y854323D01*
X30223Y863489D01*
X31228Y863330D01*
X32844Y862805D01*
X34358Y862033D01*
X35733Y861034D01*
X36934Y859833D01*
X37933Y858458D01*
X38705Y856944D01*
X39230Y855328D01*
X39389Y854323D01*
X30223Y854323D01*
G37*
%LPD*%
%LPC*%
G36*
X129823Y623623D02*
X129823Y623623D01*
X129823Y632789D01*
X130828Y632630D01*
X132444Y632105D01*
X133958Y631333D01*
X135333Y630334D01*
X136534Y629133D01*
X137533Y627758D01*
X138305Y626244D01*
X138830Y624628D01*
X138989Y623623D01*
X129823Y623623D01*
G37*
%LPD*%
%LPC*%
G36*
X333723Y654323D02*
X333723Y654323D01*
X333723Y663489D01*
X334728Y663330D01*
X336344Y662805D01*
X337858Y662033D01*
X339233Y661034D01*
X340434Y659833D01*
X341433Y658458D01*
X342205Y656944D01*
X342730Y655328D01*
X342889Y654323D01*
X333723Y654323D01*
G37*
%LPD*%
%LPC*%
G36*
X18011Y854323D02*
X18011Y854323D01*
X18170Y855328D01*
X18695Y856944D01*
X19467Y858458D01*
X20466Y859833D01*
X21667Y861034D01*
X23042Y862033D01*
X24556Y862805D01*
X26172Y863330D01*
X27177Y863489D01*
X27177Y854323D01*
X18011Y854323D01*
G37*
%LPD*%
%LPC*%
G36*
X333723Y651277D02*
X333723Y651277D01*
X342889Y651277D01*
X342730Y650272D01*
X342205Y648656D01*
X341433Y647142D01*
X340434Y645767D01*
X339233Y644566D01*
X337858Y643567D01*
X336344Y642795D01*
X334728Y642270D01*
X333723Y642111D01*
X333723Y651277D01*
G37*
%LPD*%
%LPC*%
G36*
X30223Y851277D02*
X30223Y851277D01*
X39389Y851277D01*
X39230Y850272D01*
X38705Y848656D01*
X37933Y847142D01*
X36934Y845767D01*
X35733Y844566D01*
X34358Y843567D01*
X32844Y842795D01*
X31228Y842270D01*
X30223Y842111D01*
X30223Y851277D01*
G37*
%LPD*%
%LPC*%
G36*
X129823Y620577D02*
X129823Y620577D01*
X138989Y620577D01*
X138830Y619572D01*
X138305Y617956D01*
X137533Y616442D01*
X136534Y615067D01*
X135333Y613866D01*
X133958Y612867D01*
X132444Y612095D01*
X130828Y611570D01*
X129823Y611411D01*
X129823Y620577D01*
G37*
%LPD*%
%LPC*%
G36*
X107823Y536377D02*
X107823Y536377D01*
X116989Y536377D01*
X116830Y535372D01*
X116305Y533756D01*
X115533Y532242D01*
X114534Y530867D01*
X113333Y529666D01*
X111958Y528667D01*
X110444Y527895D01*
X108828Y527370D01*
X107823Y527211D01*
X107823Y536377D01*
G37*
%LPD*%
%LPC*%
G36*
X117611Y623623D02*
X117611Y623623D01*
X117770Y624628D01*
X118295Y626244D01*
X119067Y627758D01*
X120066Y629133D01*
X121267Y630334D01*
X122642Y631333D01*
X124156Y632105D01*
X125772Y632630D01*
X126777Y632789D01*
X126777Y623623D01*
X117611Y623623D01*
G37*
%LPD*%
%LPC*%
G36*
X321511Y654323D02*
X321511Y654323D01*
X321670Y655328D01*
X322195Y656944D01*
X322967Y658458D01*
X323966Y659833D01*
X325167Y661034D01*
X326542Y662033D01*
X328056Y662805D01*
X329672Y663330D01*
X330677Y663489D01*
X330677Y654323D01*
X321511Y654323D01*
G37*
%LPD*%
%LPC*%
G36*
X125772Y611570D02*
X125772Y611570D01*
X124156Y612095D01*
X122642Y612867D01*
X121267Y613866D01*
X120066Y615067D01*
X119067Y616442D01*
X118295Y617956D01*
X117770Y619572D01*
X117611Y620577D01*
X126777Y620577D01*
X126777Y611411D01*
X125772Y611570D01*
G37*
%LPD*%
%LPC*%
G36*
X329672Y642270D02*
X329672Y642270D01*
X328056Y642795D01*
X326542Y643567D01*
X325167Y644566D01*
X323966Y645767D01*
X322967Y647142D01*
X322195Y648656D01*
X321670Y650272D01*
X321511Y651277D01*
X330677Y651277D01*
X330677Y642111D01*
X329672Y642270D01*
G37*
%LPD*%
%LPC*%
G36*
X26172Y842270D02*
X26172Y842270D01*
X24556Y842795D01*
X23042Y843567D01*
X21667Y844566D01*
X20466Y845767D01*
X19467Y847142D01*
X18695Y848656D01*
X18170Y850272D01*
X18011Y851277D01*
X27177Y851277D01*
X27177Y842111D01*
X26172Y842270D01*
G37*
%LPD*%
%LPC*%
G36*
X181923Y602223D02*
X181923Y602223D01*
X181923Y611260D01*
X182898Y611106D01*
X184495Y610587D01*
X185992Y609825D01*
X187350Y608838D01*
X188538Y607650D01*
X189525Y606292D01*
X190287Y604795D01*
X190806Y603198D01*
X190960Y602223D01*
X181923Y602223D01*
G37*
%LPD*%
%LPC*%
G36*
X258123Y627623D02*
X258123Y627623D01*
X258123Y636660D01*
X259098Y636506D01*
X260695Y635987D01*
X262192Y635225D01*
X263550Y634238D01*
X264738Y633050D01*
X265725Y631692D01*
X266487Y630195D01*
X267006Y628598D01*
X267160Y627623D01*
X258123Y627623D01*
G37*
%LPD*%
%LPC*%
G36*
X169840Y602223D02*
X169840Y602223D01*
X169994Y603198D01*
X170513Y604795D01*
X171275Y606292D01*
X172262Y607650D01*
X173450Y608838D01*
X174808Y609825D01*
X176305Y610587D01*
X177902Y611106D01*
X178877Y611260D01*
X178877Y602223D01*
X169840Y602223D01*
G37*
%LPD*%
%LPC*%
G36*
X181923Y599177D02*
X181923Y599177D01*
X190960Y599177D01*
X190806Y598202D01*
X190287Y596605D01*
X189525Y595108D01*
X188538Y593750D01*
X187350Y592562D01*
X185992Y591575D01*
X184495Y590813D01*
X182898Y590294D01*
X181923Y590140D01*
X181923Y599177D01*
G37*
%LPD*%
%LPC*%
G36*
X246040Y627623D02*
X246040Y627623D01*
X246194Y628598D01*
X246713Y630195D01*
X247475Y631692D01*
X248462Y633050D01*
X249650Y634238D01*
X251008Y635225D01*
X252505Y635987D01*
X254102Y636506D01*
X255077Y636660D01*
X255077Y627623D01*
X246040Y627623D01*
G37*
%LPD*%
%LPC*%
G36*
X258123Y624577D02*
X258123Y624577D01*
X267160Y624577D01*
X267006Y623602D01*
X266487Y622005D01*
X265725Y620508D01*
X264738Y619150D01*
X263550Y617962D01*
X262192Y616975D01*
X260695Y616213D01*
X259098Y615694D01*
X258123Y615540D01*
X258123Y624577D01*
G37*
%LPD*%
%LPC*%
G36*
X177902Y590294D02*
X177902Y590294D01*
X176305Y590813D01*
X174808Y591575D01*
X173450Y592562D01*
X172262Y593750D01*
X171275Y595108D01*
X170513Y596605D01*
X169994Y598202D01*
X169840Y599177D01*
X178877Y599177D01*
X178877Y590140D01*
X177902Y590294D01*
G37*
%LPD*%
%LPC*%
G36*
X254102Y615694D02*
X254102Y615694D01*
X252505Y616213D01*
X251008Y616975D01*
X249650Y617962D01*
X248462Y619150D01*
X247475Y620508D01*
X246713Y622005D01*
X246194Y623602D01*
X246040Y624577D01*
X255077Y624577D01*
X255077Y615540D01*
X254102Y615694D01*
G37*
%LPD*%
%LPC*%
G36*
X169499Y858199D02*
X169499Y858199D01*
X169499Y858201D01*
X169501Y858201D01*
X169501Y858199D01*
X169499Y858199D01*
G37*
%LPD*%
%LPC*%
G36*
X194699Y218299D02*
X194699Y218299D01*
X194699Y218301D01*
X194701Y218301D01*
X194701Y218299D01*
X194699Y218299D01*
G37*
%LPD*%
%LPC*%
G36*
X394899Y314399D02*
X394899Y314399D01*
X394899Y314401D01*
X394901Y314401D01*
X394901Y314399D01*
X394899Y314399D01*
G37*
%LPD*%
%LPC*%
G36*
X527899Y314399D02*
X527899Y314399D01*
X527899Y314401D01*
X527901Y314401D01*
X527901Y314399D01*
X527899Y314399D01*
G37*
%LPD*%
%LPC*%
G36*
X289849Y202599D02*
X289849Y202599D01*
X289849Y202601D01*
X289851Y202601D01*
X289851Y202599D01*
X289849Y202599D01*
G37*
%LPD*%
%LPC*%
G36*
X816099Y565749D02*
X816099Y565749D01*
X816099Y565751D01*
X816101Y565751D01*
X816101Y565749D01*
X816099Y565749D01*
G37*
%LPD*%
%LPC*%
G36*
X45199Y684499D02*
X45199Y684499D01*
X45199Y684501D01*
X45201Y684501D01*
X45201Y684499D01*
X45199Y684499D01*
G37*
%LPD*%
%LPC*%
G36*
X480299Y557899D02*
X480299Y557899D01*
X480299Y557901D01*
X480301Y557901D01*
X480301Y557899D01*
X480299Y557899D01*
G37*
%LPD*%
%LPC*%
G36*
X378699Y557899D02*
X378699Y557899D01*
X378699Y557901D01*
X378701Y557901D01*
X378701Y557899D01*
X378699Y557899D01*
G37*
%LPD*%
%LPC*%
G36*
X817399Y345749D02*
X817399Y345749D01*
X817399Y345751D01*
X817401Y345751D01*
X817401Y345749D01*
X817399Y345749D01*
G37*
%LPD*%
%LPC*%
G36*
X256599Y626099D02*
X256599Y626099D01*
X256599Y626101D01*
X256601Y626101D01*
X256601Y626099D01*
X256599Y626099D01*
G37*
%LPD*%
%LPC*%
G36*
X128299Y622099D02*
X128299Y622099D01*
X128299Y622101D01*
X128301Y622101D01*
X128301Y622099D01*
X128299Y622099D01*
G37*
%LPD*%
%LPC*%
G36*
X193099Y158299D02*
X193099Y158299D01*
X193099Y158301D01*
X193101Y158301D01*
X193101Y158299D01*
X193099Y158299D01*
G37*
%LPD*%
%LPC*%
G36*
X180399Y600699D02*
X180399Y600699D01*
X180399Y600701D01*
X180401Y600701D01*
X180401Y600699D01*
X180399Y600699D01*
G37*
%LPD*%
%LPC*%
G36*
X341099Y800999D02*
X341099Y800999D01*
X341099Y801001D01*
X341101Y801001D01*
X341101Y800999D01*
X341099Y800999D01*
G37*
%LPD*%
%LPC*%
G36*
X332199Y652799D02*
X332199Y652799D01*
X332199Y652801D01*
X332201Y652801D01*
X332201Y652799D01*
X332199Y652799D01*
G37*
%LPD*%
%LPC*%
G36*
X204699Y81699D02*
X204699Y81699D01*
X204699Y81701D01*
X204701Y81701D01*
X204701Y81699D01*
X204699Y81699D01*
G37*
%LPD*%
%LPC*%
G36*
X28699Y852799D02*
X28699Y852799D01*
X28699Y852801D01*
X28701Y852801D01*
X28701Y852799D01*
X28699Y852799D01*
G37*
%LPD*%
D10*
X34800Y379600D03*
X34800Y405000D03*
X34800Y430400D03*
X34800Y455800D03*
D11*
X357200Y652800D03*
D12*
X332200Y652800D03*
D11*
X53700Y852800D03*
D12*
X28700Y852800D03*
X128300Y622100D03*
X102900Y622100D03*
X80900Y537900D03*
X106300Y537900D03*
D13*
X684700Y443540D02*
X684700Y421061D01*
X684700Y573461D02*
X684700Y595940D01*
X798500Y216040D02*
X798500Y193561D01*
X798500Y63640D02*
X798500Y41161D01*
D14*
X79900Y65200D03*
X79900Y85200D03*
D15*
X144100Y850580D02*
X144100Y865820D01*
X169500Y865820D02*
X169500Y850580D01*
X194900Y850580D02*
X194900Y865820D01*
D16*
X796100Y625750D03*
D17*
X816100Y565750D03*
X938100Y565750D03*
X938100Y685750D03*
X816100Y685750D03*
D16*
X797400Y405750D03*
D17*
X817400Y345750D03*
X939400Y345750D03*
X939400Y465750D03*
X817400Y465750D03*
D16*
X629850Y223900D03*
D17*
X569850Y203900D03*
X569850Y81900D03*
X689850Y81900D03*
X689850Y203900D03*
D16*
X349850Y222600D03*
D17*
X289850Y202600D03*
X289850Y80600D03*
X409850Y80600D03*
X409850Y202600D03*
D14*
X79900Y201700D03*
X79900Y221700D03*
D18*
X604800Y794200D03*
X694800Y794200D03*
X964100Y211100D03*
X964100Y121100D03*
X431100Y801000D03*
X341100Y801000D03*
D10*
X45200Y786100D03*
X45200Y760700D03*
X45200Y735300D03*
X45200Y709900D03*
X45200Y684500D03*
D15*
X344100Y322020D02*
X344100Y306780D01*
X369500Y306780D02*
X369500Y322020D01*
X394900Y322020D02*
X394900Y306780D01*
X477100Y306780D02*
X477100Y322020D01*
X502500Y322020D02*
X502500Y306780D01*
X527900Y306780D02*
X527900Y322020D01*
D10*
X149900Y758300D03*
X73700Y758300D03*
X128500Y81700D03*
X204700Y81700D03*
X193100Y158300D03*
X116900Y158300D03*
X194700Y218300D03*
X118500Y218300D03*
X404100Y557900D03*
X480300Y557900D03*
X302500Y557900D03*
X378700Y557900D03*
D14*
X79900Y138200D03*
X79900Y158200D03*
D19*
X180400Y778500D03*
X180400Y753100D03*
X180400Y727700D03*
X180400Y702300D03*
X180400Y676900D03*
X180400Y651500D03*
X180400Y626100D03*
X180400Y600700D03*
X180400Y575300D03*
X180400Y549900D03*
X180400Y524500D03*
X180400Y499100D03*
X180400Y473700D03*
X180400Y448300D03*
X256600Y448300D03*
X256600Y473700D03*
X256600Y499100D03*
X256600Y524500D03*
X256600Y549900D03*
X256600Y575300D03*
X256600Y600700D03*
X256600Y626100D03*
X256600Y651500D03*
X256600Y676900D03*
X256600Y702300D03*
X256600Y727700D03*
X256600Y753100D03*
X256600Y778500D03*
D12*
X47200Y566900D03*
X47200Y617700D03*
D20*
X689850Y81900D02*
X787985Y180035D01*
X939400Y366943D02*
X939400Y465750D01*
X804103Y180035D02*
X787985Y180035D01*
X804103Y180035D02*
X872543Y248476D01*
X872543Y300086D01*
X939400Y366943D01*
X149900Y656600D02*
X149900Y758300D01*
X149900Y656600D02*
X180400Y626100D01*
X23116Y409840D02*
X23116Y400160D01*
X23116Y409840D02*
X29960Y416684D01*
X95759Y542266D02*
X101934Y548441D01*
X34800Y388476D02*
X34800Y379600D01*
X37608Y416684D02*
X29960Y416684D01*
X37608Y416684D02*
X95759Y474835D01*
X23116Y400160D02*
X34800Y388476D01*
X95759Y474835D02*
X95759Y542266D01*
X101934Y548441D02*
X102741Y548441D01*
X180400Y626100D01*
X246186Y781514D02*
X169500Y858200D01*
X246186Y781514D02*
X246186Y774186D01*
X260914Y763514D02*
X267014Y757414D01*
X260914Y763514D02*
X256858Y763514D01*
X256600Y636772D02*
X256600Y626100D01*
X256858Y763514D02*
X246186Y774186D01*
X267014Y647186D02*
X256600Y636772D01*
X267014Y647186D02*
X267014Y757414D01*
X194700Y218300D02*
X194700Y159900D01*
X193100Y158300D01*
X204700Y146700D01*
X204700Y81700D01*
X194700Y218300D02*
X274150Y218300D01*
X289850Y202600D01*
X194700Y218300D02*
X46484Y366516D01*
X34800Y396124D02*
X34800Y405000D01*
X46484Y384440D02*
X46484Y366516D01*
X46484Y384440D02*
X34800Y396124D01*
X34800Y405000D02*
X106300Y476500D01*
X106300Y537900D01*
X231200Y600700D02*
X256600Y626100D01*
X231200Y600700D02*
X180400Y600700D01*
X399260Y546216D02*
X408940Y546216D01*
X420624Y557900D02*
X480300Y557900D01*
X387576Y557900D02*
X378700Y557900D01*
X408940Y546216D02*
X420624Y557900D01*
X399260Y546216D02*
X387576Y557900D01*
X378700Y557900D02*
X378700Y606300D01*
X332200Y652800D01*
X180400Y448300D02*
X180400Y432050D01*
X409850Y202600D01*
X295316Y409584D02*
X256600Y448300D01*
X591043Y203900D02*
X689850Y203900D01*
X307340Y409584D02*
X295316Y409584D01*
X576057Y218886D02*
X591043Y203900D01*
X468785Y218886D02*
X423835Y263835D01*
X468785Y218886D02*
X576057Y218886D01*
X360000Y302271D02*
X359594Y302677D01*
X360000Y302271D02*
X360000Y280000D01*
X359594Y357330D02*
X307340Y409584D01*
X359594Y357330D02*
X359594Y302677D01*
X360000Y280000D02*
X376165Y263835D01*
X423835Y263835D01*
X256600Y499100D02*
X784050Y499100D01*
X817400Y465750D01*
X654850Y524500D02*
X256600Y524500D01*
X740000Y609650D02*
X816100Y685750D01*
X740000Y609650D02*
X740000Y520000D01*
X659350Y520000D01*
X654850Y524500D01*
X599350Y52400D02*
X798500Y52400D01*
X599350Y52400D02*
X569850Y81900D01*
X369500Y314400D02*
X487400Y432300D01*
X684700Y432300D01*
X683643Y218886D02*
X696057Y218886D01*
X710143Y204800D02*
X798500Y204800D01*
X710143Y204800D02*
X696057Y218886D01*
X607986Y208914D02*
X502500Y314400D01*
X607986Y208914D02*
X673671Y208914D01*
X683643Y218886D01*
M02*
