G04 EAGLE Gerber RS-274X export*
G75*
%MOMM*%
%FSLAX34Y34*%
%LPD*%
%INTop Copper*%
%IPPOS*%
%AMOC8*
5,1,8,0,0,1.08239X$1,22.5*%
G01*
%ADD10C,1.879600*%
%ADD11R,1.651000X1.651000*%
%ADD12C,1.651000*%
%ADD13C,2.247900*%
%ADD14C,1.600000*%
%ADD15C,1.524000*%
%ADD16R,2.540000X2.540000*%
%ADD17C,2.540000*%
%ADD18C,2.100000*%
%ADD19C,1.625600*%
%ADD20C,0.152400*%

G36*
X1058336Y10926D02*
X1058336Y10926D01*
X1058355Y10924D01*
X1058457Y10946D01*
X1058559Y10962D01*
X1058576Y10972D01*
X1058596Y10976D01*
X1058685Y11029D01*
X1058776Y11078D01*
X1058790Y11092D01*
X1058807Y11102D01*
X1058874Y11181D01*
X1058946Y11256D01*
X1058954Y11274D01*
X1058967Y11289D01*
X1059006Y11385D01*
X1059049Y11479D01*
X1059051Y11499D01*
X1059059Y11517D01*
X1059077Y11684D01*
X1059077Y888316D01*
X1059074Y888336D01*
X1059076Y888355D01*
X1059054Y888457D01*
X1059038Y888559D01*
X1059028Y888576D01*
X1059024Y888596D01*
X1058971Y888685D01*
X1058922Y888776D01*
X1058908Y888790D01*
X1058898Y888807D01*
X1058819Y888874D01*
X1058744Y888946D01*
X1058726Y888954D01*
X1058711Y888967D01*
X1058615Y889006D01*
X1058521Y889049D01*
X1058501Y889051D01*
X1058483Y889059D01*
X1058316Y889077D01*
X-8316Y889077D01*
X-8336Y889074D01*
X-8355Y889076D01*
X-8457Y889054D01*
X-8559Y889038D01*
X-8576Y889028D01*
X-8596Y889024D01*
X-8685Y888971D01*
X-8776Y888922D01*
X-8790Y888908D01*
X-8807Y888898D01*
X-8874Y888819D01*
X-8946Y888744D01*
X-8954Y888726D01*
X-8967Y888711D01*
X-9006Y888615D01*
X-9049Y888521D01*
X-9051Y888501D01*
X-9059Y888483D01*
X-9077Y888316D01*
X-9077Y11684D01*
X-9074Y11664D01*
X-9076Y11645D01*
X-9054Y11543D01*
X-9038Y11441D01*
X-9028Y11424D01*
X-9024Y11404D01*
X-8971Y11315D01*
X-8922Y11224D01*
X-8908Y11210D01*
X-8898Y11193D01*
X-8819Y11126D01*
X-8744Y11054D01*
X-8726Y11046D01*
X-8711Y11033D01*
X-8615Y10994D01*
X-8521Y10951D01*
X-8501Y10949D01*
X-8483Y10941D01*
X-8316Y10923D01*
X1058316Y10923D01*
X1058336Y10926D01*
G37*
%LPC*%
G36*
X936571Y331525D02*
X936571Y331525D01*
X931342Y333691D01*
X927341Y337692D01*
X925175Y342921D01*
X925175Y348579D01*
X927371Y353880D01*
X927398Y353994D01*
X927426Y354108D01*
X927426Y354114D01*
X927427Y354120D01*
X927416Y354237D01*
X927407Y354353D01*
X927405Y354359D01*
X927404Y354365D01*
X927356Y354472D01*
X927311Y354579D01*
X927306Y354585D01*
X927304Y354590D01*
X927291Y354603D01*
X927206Y354710D01*
X922127Y359789D01*
X922127Y536128D01*
X935590Y549591D01*
X935643Y549665D01*
X935703Y549735D01*
X935715Y549765D01*
X935734Y549791D01*
X935761Y549878D01*
X935795Y549963D01*
X935799Y550004D01*
X935806Y550026D01*
X935805Y550058D01*
X935813Y550130D01*
X935813Y550792D01*
X935794Y550907D01*
X935777Y551023D01*
X935775Y551028D01*
X935774Y551035D01*
X935719Y551137D01*
X935666Y551242D01*
X935661Y551246D01*
X935658Y551252D01*
X935574Y551332D01*
X935490Y551414D01*
X935484Y551418D01*
X935480Y551421D01*
X935463Y551429D01*
X935343Y551495D01*
X930042Y553691D01*
X926041Y557692D01*
X923875Y562921D01*
X923875Y568579D01*
X924387Y569815D01*
X924414Y569928D01*
X924442Y570042D01*
X924442Y570048D01*
X924443Y570054D01*
X924432Y570171D01*
X924423Y570287D01*
X924421Y570293D01*
X924420Y570299D01*
X924372Y570407D01*
X924327Y570513D01*
X924322Y570519D01*
X924320Y570524D01*
X924307Y570537D01*
X924222Y570644D01*
X912676Y582190D01*
X912602Y582243D01*
X912532Y582303D01*
X912502Y582315D01*
X912476Y582334D01*
X912389Y582361D01*
X912304Y582395D01*
X912263Y582399D01*
X912241Y582406D01*
X912209Y582405D01*
X912137Y582413D01*
X817990Y582413D01*
X817927Y582403D01*
X817864Y582403D01*
X817807Y582383D01*
X817748Y582374D01*
X817691Y582344D01*
X817631Y582323D01*
X817583Y582286D01*
X817530Y582258D01*
X817486Y582212D01*
X817436Y582173D01*
X817402Y582124D01*
X817361Y582080D01*
X817334Y582022D01*
X817298Y581969D01*
X817283Y581911D01*
X817257Y581857D01*
X817250Y581794D01*
X817233Y581732D01*
X817237Y581672D01*
X817230Y581613D01*
X817244Y581550D01*
X817247Y581486D01*
X817270Y581431D01*
X817282Y581372D01*
X817315Y581317D01*
X817339Y581258D01*
X817378Y581213D01*
X817409Y581161D01*
X817457Y581120D01*
X817499Y581071D01*
X817550Y581040D01*
X817596Y581001D01*
X817655Y580977D01*
X817710Y580944D01*
X817793Y580922D01*
X817824Y580909D01*
X817848Y580907D01*
X817871Y580900D01*
X819669Y580615D01*
X821950Y579874D01*
X824088Y578785D01*
X826029Y577375D01*
X827725Y575679D01*
X829135Y573738D01*
X830224Y571600D01*
X830965Y569319D01*
X831289Y567273D01*
X816862Y567273D01*
X816842Y567270D01*
X816823Y567272D01*
X816721Y567250D01*
X816619Y567233D01*
X816602Y567224D01*
X816582Y567220D01*
X816493Y567167D01*
X816402Y567118D01*
X816388Y567104D01*
X816371Y567094D01*
X816304Y567015D01*
X816233Y566940D01*
X816224Y566922D01*
X816211Y566907D01*
X816173Y566811D01*
X816129Y566717D01*
X816127Y566697D01*
X816119Y566679D01*
X816101Y566512D01*
X816101Y565749D01*
X816099Y565749D01*
X816099Y566512D01*
X816096Y566532D01*
X816098Y566551D01*
X816076Y566652D01*
X816059Y566755D01*
X816050Y566772D01*
X816046Y566792D01*
X815993Y566881D01*
X815944Y566972D01*
X815930Y566986D01*
X815920Y567003D01*
X815841Y567070D01*
X815766Y567141D01*
X815748Y567150D01*
X815733Y567163D01*
X815637Y567202D01*
X815543Y567245D01*
X815523Y567247D01*
X815505Y567255D01*
X815338Y567273D01*
X800911Y567273D01*
X801235Y569319D01*
X801976Y571600D01*
X803065Y573738D01*
X804475Y575679D01*
X806171Y577375D01*
X808112Y578785D01*
X810250Y579874D01*
X812531Y580615D01*
X814329Y580900D01*
X814389Y580920D01*
X814452Y580931D01*
X814505Y580959D01*
X814562Y580977D01*
X814613Y581016D01*
X814670Y581046D01*
X814711Y581089D01*
X814759Y581125D01*
X814795Y581178D01*
X814839Y581224D01*
X814864Y581278D01*
X814898Y581328D01*
X814916Y581389D01*
X814943Y581447D01*
X814949Y581507D01*
X814966Y581564D01*
X814963Y581628D01*
X814970Y581691D01*
X814957Y581750D01*
X814954Y581810D01*
X814931Y581869D01*
X814918Y581932D01*
X814887Y581983D01*
X814865Y582039D01*
X814824Y582088D01*
X814791Y582143D01*
X814746Y582182D01*
X814707Y582228D01*
X814653Y582261D01*
X814604Y582303D01*
X814549Y582325D01*
X814498Y582357D01*
X814436Y582371D01*
X814376Y582395D01*
X814290Y582404D01*
X814258Y582412D01*
X814234Y582411D01*
X814210Y582413D01*
X698225Y582413D01*
X698206Y582410D01*
X698186Y582412D01*
X698085Y582390D01*
X697983Y582374D01*
X697965Y582364D01*
X697946Y582360D01*
X697857Y582307D01*
X697765Y582258D01*
X697752Y582244D01*
X697735Y582234D01*
X697667Y582155D01*
X697596Y582080D01*
X697588Y582062D01*
X697575Y582047D01*
X697536Y581951D01*
X697492Y581857D01*
X697490Y581837D01*
X697483Y581819D01*
X697464Y581652D01*
X697464Y570922D01*
X695521Y566230D01*
X691930Y562640D01*
X687239Y560696D01*
X683408Y560696D01*
X683337Y560685D01*
X683266Y560683D01*
X683217Y560665D01*
X683165Y560657D01*
X683102Y560623D01*
X683035Y560598D01*
X682994Y560566D01*
X682948Y560541D01*
X682898Y560489D01*
X682842Y560445D01*
X682814Y560401D01*
X682778Y560363D01*
X682748Y560298D01*
X682709Y560238D01*
X682697Y560187D01*
X682675Y560140D01*
X682667Y560069D01*
X682649Y559999D01*
X682653Y559947D01*
X682648Y559896D01*
X682663Y559825D01*
X682669Y559754D01*
X682689Y559706D01*
X682700Y559655D01*
X682737Y559594D01*
X682765Y559528D01*
X682810Y559472D01*
X682826Y559444D01*
X682844Y559429D01*
X682870Y559397D01*
X799687Y442580D01*
X799687Y420736D01*
X799690Y420716D01*
X799688Y420697D01*
X799710Y420595D01*
X799726Y420493D01*
X799736Y420476D01*
X799740Y420456D01*
X799793Y420367D01*
X799842Y420276D01*
X799856Y420262D01*
X799866Y420245D01*
X799945Y420178D01*
X800020Y420106D01*
X800038Y420098D01*
X800053Y420085D01*
X800149Y420046D01*
X800243Y420003D01*
X800263Y420001D01*
X800281Y419993D01*
X800448Y419975D01*
X810732Y419975D01*
X811625Y419082D01*
X811625Y392418D01*
X810732Y391525D01*
X784068Y391525D01*
X783175Y392418D01*
X783175Y419082D01*
X784068Y419975D01*
X794352Y419975D01*
X794372Y419978D01*
X794391Y419976D01*
X794493Y419998D01*
X794595Y420014D01*
X794612Y420024D01*
X794632Y420028D01*
X794721Y420081D01*
X794812Y420130D01*
X794826Y420144D01*
X794843Y420154D01*
X794910Y420233D01*
X794982Y420308D01*
X794990Y420326D01*
X795003Y420341D01*
X795042Y420437D01*
X795085Y420531D01*
X795087Y420551D01*
X795095Y420569D01*
X795113Y420736D01*
X795113Y440370D01*
X795099Y440460D01*
X795091Y440551D01*
X795079Y440581D01*
X795074Y440613D01*
X795031Y440693D01*
X794995Y440777D01*
X794969Y440809D01*
X794958Y440830D01*
X794935Y440852D01*
X794890Y440908D01*
X668888Y566911D01*
X668888Y726563D01*
X668873Y726653D01*
X668866Y726744D01*
X668853Y726774D01*
X668848Y726806D01*
X668805Y726886D01*
X668770Y726970D01*
X668744Y727002D01*
X668733Y727023D01*
X668710Y727045D01*
X668665Y727101D01*
X612076Y783690D01*
X611982Y783758D01*
X611888Y783828D01*
X611882Y783830D01*
X611877Y783833D01*
X611766Y783867D01*
X611654Y783904D01*
X611647Y783904D01*
X611641Y783906D01*
X611525Y783903D01*
X611408Y783902D01*
X611401Y783899D01*
X611396Y783899D01*
X611378Y783893D01*
X611247Y783855D01*
X607192Y782175D01*
X602408Y782175D01*
X597989Y784006D01*
X594606Y787389D01*
X592775Y791808D01*
X592775Y796592D01*
X593218Y797661D01*
X593229Y797705D01*
X593248Y797747D01*
X593256Y797824D01*
X593274Y797900D01*
X593270Y797946D01*
X593275Y797991D01*
X593258Y798068D01*
X593251Y798145D01*
X593232Y798187D01*
X593223Y798232D01*
X593183Y798299D01*
X593151Y798370D01*
X593120Y798404D01*
X593096Y798443D01*
X593037Y798494D01*
X592985Y798551D01*
X592944Y798573D01*
X592910Y798603D01*
X592837Y798632D01*
X592769Y798669D01*
X592724Y798678D01*
X592681Y798695D01*
X592545Y798710D01*
X592527Y798713D01*
X592522Y798712D01*
X592515Y798713D01*
X443677Y798713D01*
X443562Y798694D01*
X443446Y798677D01*
X443440Y798675D01*
X443434Y798674D01*
X443332Y798619D01*
X443227Y798566D01*
X443222Y798561D01*
X443217Y798558D01*
X443137Y798474D01*
X443054Y798390D01*
X443051Y798384D01*
X443047Y798380D01*
X443040Y798363D01*
X442974Y798243D01*
X441294Y794189D01*
X437911Y790806D01*
X433857Y789126D01*
X433757Y789065D01*
X433657Y789005D01*
X433653Y789000D01*
X433648Y788997D01*
X433573Y788907D01*
X433497Y788818D01*
X433495Y788812D01*
X433491Y788807D01*
X433449Y788699D01*
X433405Y788590D01*
X433404Y788582D01*
X433403Y788578D01*
X433402Y788559D01*
X433387Y788423D01*
X433387Y725753D01*
X367203Y659569D01*
X367150Y659495D01*
X367090Y659425D01*
X367078Y659395D01*
X367059Y659369D01*
X367032Y659282D01*
X366998Y659197D01*
X366994Y659156D01*
X366987Y659134D01*
X366988Y659102D01*
X366980Y659030D01*
X366980Y643913D01*
X366087Y643020D01*
X348313Y643020D01*
X347420Y643913D01*
X347420Y661687D01*
X348313Y662580D01*
X363430Y662580D01*
X363521Y662594D01*
X363611Y662602D01*
X363641Y662614D01*
X363673Y662619D01*
X363754Y662662D01*
X363838Y662698D01*
X363870Y662724D01*
X363891Y662735D01*
X363913Y662758D01*
X363969Y662803D01*
X428590Y727424D01*
X428643Y727498D01*
X428703Y727568D01*
X428715Y727598D01*
X428734Y727624D01*
X428761Y727711D01*
X428795Y727796D01*
X428799Y727837D01*
X428806Y727859D01*
X428805Y727891D01*
X428813Y727963D01*
X428813Y788423D01*
X428794Y788538D01*
X428777Y788654D01*
X428775Y788660D01*
X428774Y788666D01*
X428719Y788768D01*
X428666Y788873D01*
X428661Y788878D01*
X428658Y788883D01*
X428574Y788963D01*
X428490Y789046D01*
X428484Y789049D01*
X428480Y789053D01*
X428463Y789060D01*
X428343Y789126D01*
X424289Y790806D01*
X420906Y794189D01*
X419226Y798243D01*
X419165Y798343D01*
X419105Y798443D01*
X419100Y798447D01*
X419097Y798452D01*
X419007Y798527D01*
X418918Y798603D01*
X418912Y798605D01*
X418907Y798609D01*
X418799Y798651D01*
X418690Y798695D01*
X418682Y798696D01*
X418678Y798697D01*
X418659Y798698D01*
X418523Y798713D01*
X358235Y798713D01*
X354648Y802300D01*
X354574Y802353D01*
X354505Y802413D01*
X354475Y802425D01*
X354448Y802444D01*
X354361Y802471D01*
X354276Y802505D01*
X354236Y802509D01*
X354213Y802516D01*
X354181Y802515D01*
X354110Y802523D01*
X342623Y802523D01*
X342623Y814010D01*
X342608Y814100D01*
X342601Y814191D01*
X342589Y814221D01*
X342583Y814253D01*
X342541Y814333D01*
X342505Y814417D01*
X342479Y814449D01*
X342468Y814470D01*
X342445Y814492D01*
X342400Y814548D01*
X283732Y873216D01*
X283658Y873269D01*
X283589Y873329D01*
X283558Y873341D01*
X283532Y873360D01*
X283445Y873387D01*
X283360Y873421D01*
X283319Y873425D01*
X283297Y873432D01*
X283265Y873431D01*
X283194Y873439D01*
X202051Y873439D01*
X201980Y873428D01*
X201909Y873426D01*
X201860Y873408D01*
X201808Y873400D01*
X201745Y873366D01*
X201678Y873341D01*
X201637Y873309D01*
X201591Y873284D01*
X201542Y873232D01*
X201486Y873188D01*
X201457Y873144D01*
X201422Y873106D01*
X201391Y873041D01*
X201353Y872981D01*
X201340Y872930D01*
X201318Y872883D01*
X201310Y872812D01*
X201293Y872742D01*
X201297Y872690D01*
X201291Y872639D01*
X201306Y872568D01*
X201312Y872497D01*
X201332Y872449D01*
X201343Y872398D01*
X201380Y872337D01*
X201408Y872271D01*
X201453Y872215D01*
X201469Y872187D01*
X201486Y872173D01*
X201490Y872167D01*
X201495Y872163D01*
X201513Y872140D01*
X202653Y871000D01*
X204045Y867639D01*
X204045Y848761D01*
X202653Y845400D01*
X200080Y842827D01*
X196719Y841435D01*
X193862Y841435D01*
X193842Y841432D01*
X193823Y841434D01*
X193721Y841412D01*
X193619Y841396D01*
X193602Y841386D01*
X193582Y841382D01*
X193493Y841329D01*
X193402Y841280D01*
X193388Y841266D01*
X193371Y841256D01*
X193304Y841177D01*
X193232Y841102D01*
X193224Y841084D01*
X193211Y841069D01*
X193172Y840973D01*
X193129Y840879D01*
X193127Y840859D01*
X193119Y840841D01*
X193101Y840674D01*
X193101Y773239D01*
X184511Y764649D01*
X160232Y764649D01*
X160187Y764642D01*
X160141Y764644D01*
X160066Y764622D01*
X159989Y764610D01*
X159949Y764588D01*
X159905Y764575D01*
X159841Y764531D01*
X159772Y764494D01*
X159740Y764461D01*
X159703Y764435D01*
X159656Y764372D01*
X159603Y764316D01*
X159583Y764274D01*
X159556Y764238D01*
X159532Y764164D01*
X159499Y764093D01*
X159494Y764047D01*
X159480Y764004D01*
X159480Y763926D01*
X159472Y763849D01*
X159482Y763804D01*
X159482Y763758D01*
X159520Y763626D01*
X159524Y763608D01*
X159527Y763604D01*
X159529Y763597D01*
X160823Y760473D01*
X160823Y756127D01*
X159160Y752113D01*
X156087Y749040D01*
X152073Y747377D01*
X147727Y747377D01*
X143713Y749040D01*
X140640Y752113D01*
X138977Y756127D01*
X138977Y758829D01*
X138966Y758900D01*
X138964Y758972D01*
X138946Y759021D01*
X138938Y759072D01*
X138904Y759135D01*
X138879Y759203D01*
X138847Y759243D01*
X138822Y759289D01*
X138770Y759339D01*
X138726Y759395D01*
X138682Y759423D01*
X138644Y759459D01*
X138579Y759489D01*
X138519Y759528D01*
X138468Y759540D01*
X138421Y759562D01*
X138350Y759570D01*
X138280Y759588D01*
X138228Y759584D01*
X138177Y759589D01*
X138106Y759574D01*
X138035Y759569D01*
X137987Y759548D01*
X137936Y759537D01*
X137875Y759500D01*
X137809Y759472D01*
X137753Y759428D01*
X137725Y759411D01*
X137710Y759393D01*
X137678Y759368D01*
X136501Y758191D01*
X136500Y758190D01*
X135886Y757576D01*
X134324Y756013D01*
X85084Y756013D01*
X84969Y755994D01*
X84853Y755977D01*
X84848Y755975D01*
X84841Y755974D01*
X84739Y755919D01*
X84634Y755866D01*
X84630Y755861D01*
X84624Y755858D01*
X84544Y755774D01*
X84462Y755690D01*
X84458Y755684D01*
X84455Y755680D01*
X84447Y755663D01*
X84381Y755543D01*
X82960Y752113D01*
X79887Y749040D01*
X75873Y747377D01*
X71527Y747377D01*
X67513Y749040D01*
X64440Y752113D01*
X63019Y755543D01*
X62958Y755643D01*
X62898Y755743D01*
X62893Y755747D01*
X62890Y755752D01*
X62800Y755827D01*
X62711Y755903D01*
X62705Y755905D01*
X62700Y755909D01*
X62592Y755951D01*
X62483Y755995D01*
X62475Y755996D01*
X62470Y755997D01*
X62452Y755998D01*
X62316Y756013D01*
X55590Y756013D01*
X55475Y755994D01*
X55359Y755977D01*
X55353Y755975D01*
X55347Y755974D01*
X55245Y755919D01*
X55140Y755866D01*
X55135Y755861D01*
X55130Y755858D01*
X55050Y755774D01*
X54968Y755690D01*
X54964Y755684D01*
X54961Y755680D01*
X54953Y755663D01*
X54887Y755543D01*
X54460Y754513D01*
X51387Y751440D01*
X47373Y749777D01*
X43027Y749777D01*
X39013Y751440D01*
X35940Y754513D01*
X34277Y758527D01*
X34277Y762873D01*
X35940Y766887D01*
X39013Y769960D01*
X43027Y771623D01*
X47373Y771623D01*
X51387Y769960D01*
X54460Y766887D01*
X56123Y762873D01*
X56123Y761348D01*
X56126Y761328D01*
X56124Y761309D01*
X56146Y761207D01*
X56162Y761105D01*
X56172Y761088D01*
X56176Y761068D01*
X56229Y760979D01*
X56278Y760888D01*
X56292Y760874D01*
X56302Y760857D01*
X56381Y760790D01*
X56456Y760718D01*
X56474Y760710D01*
X56489Y760697D01*
X56585Y760658D01*
X56679Y760615D01*
X56699Y760613D01*
X56717Y760605D01*
X56884Y760587D01*
X62316Y760587D01*
X62431Y760606D01*
X62547Y760623D01*
X62552Y760625D01*
X62559Y760626D01*
X62661Y760681D01*
X62766Y760734D01*
X62770Y760739D01*
X62776Y760742D01*
X62856Y760826D01*
X62938Y760910D01*
X62942Y760916D01*
X62945Y760920D01*
X62953Y760937D01*
X63019Y761057D01*
X64440Y764487D01*
X67513Y767560D01*
X71527Y769223D01*
X75873Y769223D01*
X79887Y767560D01*
X82960Y764487D01*
X84381Y761057D01*
X84442Y760957D01*
X84502Y760857D01*
X84507Y760853D01*
X84510Y760848D01*
X84600Y760773D01*
X84689Y760697D01*
X84695Y760695D01*
X84700Y760691D01*
X84808Y760649D01*
X84917Y760605D01*
X84925Y760604D01*
X84930Y760603D01*
X84948Y760602D01*
X85084Y760587D01*
X132114Y760587D01*
X132204Y760601D01*
X132295Y760609D01*
X132325Y760621D01*
X132357Y760626D01*
X132437Y760669D01*
X132521Y760705D01*
X132553Y760731D01*
X132574Y760742D01*
X132596Y760765D01*
X132652Y760810D01*
X133267Y761424D01*
X136814Y764971D01*
X136814Y764972D01*
X142551Y770708D01*
X144113Y772271D01*
X170622Y772271D01*
X170712Y772285D01*
X170803Y772293D01*
X170832Y772305D01*
X170864Y772310D01*
X170945Y772353D01*
X171029Y772389D01*
X171061Y772415D01*
X171082Y772426D01*
X171104Y772449D01*
X171160Y772494D01*
X171705Y773039D01*
X171773Y773133D01*
X171843Y773228D01*
X171845Y773234D01*
X171849Y773239D01*
X171883Y773349D01*
X171919Y773462D01*
X171919Y773468D01*
X171921Y773474D01*
X171918Y773591D01*
X171917Y773708D01*
X171915Y773715D01*
X171915Y773720D01*
X171908Y773737D01*
X171870Y773869D01*
X170747Y776580D01*
X170747Y780420D01*
X171717Y782761D01*
X171727Y782805D01*
X171747Y782847D01*
X171755Y782924D01*
X171773Y783000D01*
X171769Y783046D01*
X171774Y783091D01*
X171757Y783168D01*
X171750Y783245D01*
X171731Y783287D01*
X171721Y783332D01*
X171682Y783399D01*
X171650Y783470D01*
X171619Y783504D01*
X171595Y783543D01*
X171536Y783594D01*
X171483Y783651D01*
X171443Y783673D01*
X171408Y783703D01*
X171336Y783732D01*
X171268Y783769D01*
X171223Y783778D01*
X171180Y783795D01*
X171044Y783810D01*
X171026Y783813D01*
X171021Y783812D01*
X171014Y783813D01*
X56584Y783813D01*
X56469Y783794D01*
X56353Y783777D01*
X56348Y783775D01*
X56341Y783774D01*
X56239Y783719D01*
X56134Y783666D01*
X56130Y783661D01*
X56124Y783658D01*
X56044Y783574D01*
X55962Y783490D01*
X55958Y783484D01*
X55955Y783480D01*
X55947Y783463D01*
X55881Y783343D01*
X54460Y779913D01*
X51387Y776840D01*
X47373Y775177D01*
X43027Y775177D01*
X39013Y776840D01*
X35940Y779913D01*
X34277Y783927D01*
X34277Y788273D01*
X35940Y792287D01*
X39013Y795360D01*
X42443Y796781D01*
X42543Y796842D01*
X42643Y796902D01*
X42647Y796907D01*
X42652Y796910D01*
X42727Y797000D01*
X42803Y797089D01*
X42805Y797095D01*
X42809Y797100D01*
X42851Y797208D01*
X42895Y797317D01*
X42896Y797325D01*
X42897Y797330D01*
X42898Y797348D01*
X42913Y797484D01*
X42913Y845247D01*
X43697Y846031D01*
X43750Y846105D01*
X43810Y846175D01*
X43822Y846205D01*
X43841Y846231D01*
X43868Y846318D01*
X43902Y846403D01*
X43906Y846444D01*
X43913Y846466D01*
X43912Y846498D01*
X43920Y846569D01*
X43920Y861687D01*
X44813Y862580D01*
X62587Y862580D01*
X63480Y861687D01*
X63480Y843913D01*
X62587Y843020D01*
X48248Y843020D01*
X48228Y843017D01*
X48209Y843019D01*
X48107Y842997D01*
X48005Y842981D01*
X47988Y842971D01*
X47968Y842967D01*
X47879Y842914D01*
X47788Y842865D01*
X47774Y842851D01*
X47757Y842841D01*
X47690Y842762D01*
X47618Y842687D01*
X47610Y842669D01*
X47597Y842654D01*
X47558Y842558D01*
X47515Y842464D01*
X47513Y842444D01*
X47505Y842426D01*
X47487Y842259D01*
X47487Y797484D01*
X47506Y797369D01*
X47523Y797253D01*
X47525Y797248D01*
X47526Y797241D01*
X47581Y797138D01*
X47634Y797034D01*
X47639Y797030D01*
X47642Y797024D01*
X47726Y796944D01*
X47810Y796862D01*
X47816Y796858D01*
X47820Y796855D01*
X47837Y796847D01*
X47957Y796781D01*
X51387Y795360D01*
X54460Y792287D01*
X55881Y788857D01*
X55942Y788757D01*
X56002Y788657D01*
X56007Y788653D01*
X56010Y788648D01*
X56100Y788573D01*
X56189Y788497D01*
X56195Y788495D01*
X56200Y788491D01*
X56308Y788449D01*
X56417Y788405D01*
X56425Y788404D01*
X56430Y788403D01*
X56448Y788402D01*
X56584Y788387D01*
X172010Y788387D01*
X172100Y788401D01*
X172191Y788409D01*
X172221Y788421D01*
X172253Y788426D01*
X172333Y788469D01*
X172417Y788505D01*
X172449Y788531D01*
X172470Y788542D01*
X172492Y788565D01*
X172548Y788610D01*
X175139Y791201D01*
X178465Y791201D01*
X178556Y791215D01*
X178646Y791223D01*
X178676Y791235D01*
X178708Y791240D01*
X178789Y791283D01*
X178873Y791319D01*
X178905Y791345D01*
X178926Y791356D01*
X178929Y791359D01*
X178948Y791379D01*
X179004Y791424D01*
X188304Y800724D01*
X188357Y800798D01*
X188417Y800868D01*
X188429Y800898D01*
X188448Y800924D01*
X188475Y801011D01*
X188509Y801096D01*
X188513Y801137D01*
X188520Y801159D01*
X188519Y801191D01*
X188527Y801263D01*
X188527Y843705D01*
X188513Y843795D01*
X188505Y843886D01*
X188493Y843916D01*
X188488Y843948D01*
X188445Y844028D01*
X188409Y844112D01*
X188383Y844144D01*
X188372Y844165D01*
X188349Y844187D01*
X188324Y844219D01*
X188322Y844221D01*
X188321Y844223D01*
X188304Y844243D01*
X187147Y845400D01*
X185755Y848761D01*
X185755Y867639D01*
X187147Y871000D01*
X188287Y872140D01*
X188329Y872198D01*
X188378Y872250D01*
X188400Y872297D01*
X188431Y872339D01*
X188452Y872408D01*
X188482Y872473D01*
X188488Y872525D01*
X188503Y872575D01*
X188501Y872646D01*
X188509Y872717D01*
X188498Y872768D01*
X188497Y872820D01*
X188472Y872888D01*
X188457Y872958D01*
X188430Y873003D01*
X188412Y873051D01*
X188367Y873107D01*
X188331Y873169D01*
X188291Y873203D01*
X188259Y873243D01*
X188198Y873282D01*
X188144Y873329D01*
X188095Y873348D01*
X188052Y873376D01*
X187982Y873394D01*
X187916Y873421D01*
X187844Y873429D01*
X187813Y873437D01*
X187790Y873435D01*
X187749Y873439D01*
X178018Y873439D01*
X178006Y873437D01*
X177994Y873439D01*
X177885Y873418D01*
X177775Y873400D01*
X177764Y873394D01*
X177753Y873392D01*
X177656Y873336D01*
X177558Y873284D01*
X177549Y873276D01*
X177539Y873270D01*
X177465Y873187D01*
X177388Y873106D01*
X177383Y873095D01*
X177375Y873086D01*
X177331Y872984D01*
X177285Y872883D01*
X177283Y872871D01*
X177278Y872860D01*
X177270Y872749D01*
X177257Y872639D01*
X177260Y872627D01*
X177259Y872615D01*
X177286Y872507D01*
X177310Y872398D01*
X177316Y872388D01*
X177319Y872376D01*
X177402Y872231D01*
X178190Y871145D01*
X178916Y869720D01*
X179411Y868199D01*
X179661Y866620D01*
X179661Y859723D01*
X170262Y859723D01*
X170242Y859720D01*
X170223Y859722D01*
X170121Y859700D01*
X170019Y859683D01*
X170002Y859674D01*
X169982Y859670D01*
X169893Y859617D01*
X169802Y859568D01*
X169788Y859554D01*
X169771Y859544D01*
X169704Y859465D01*
X169633Y859390D01*
X169624Y859372D01*
X169611Y859357D01*
X169573Y859261D01*
X169529Y859167D01*
X169527Y859147D01*
X169519Y859129D01*
X169501Y858962D01*
X169501Y858199D01*
X169499Y858199D01*
X169499Y858962D01*
X169496Y858979D01*
X169498Y858995D01*
X169498Y858997D01*
X169498Y859001D01*
X169476Y859103D01*
X169459Y859205D01*
X169450Y859222D01*
X169446Y859242D01*
X169393Y859331D01*
X169344Y859422D01*
X169330Y859436D01*
X169320Y859453D01*
X169241Y859520D01*
X169166Y859591D01*
X169148Y859600D01*
X169133Y859613D01*
X169037Y859652D01*
X168943Y859695D01*
X168923Y859697D01*
X168905Y859705D01*
X168738Y859723D01*
X159339Y859723D01*
X159339Y866620D01*
X159589Y868199D01*
X160084Y869720D01*
X160810Y871145D01*
X161750Y872439D01*
X162500Y873189D01*
X162512Y873206D01*
X162527Y873218D01*
X162583Y873305D01*
X162644Y873389D01*
X162649Y873408D01*
X162660Y873425D01*
X162686Y873525D01*
X162716Y873624D01*
X162715Y873644D01*
X162720Y873664D01*
X162712Y873767D01*
X162710Y873870D01*
X162703Y873889D01*
X162701Y873909D01*
X162661Y874004D01*
X162625Y874101D01*
X162613Y874117D01*
X162605Y874135D01*
X162500Y874266D01*
X161764Y875002D01*
X160538Y876228D01*
X160522Y876239D01*
X160510Y876255D01*
X160422Y876311D01*
X160339Y876371D01*
X160320Y876377D01*
X160303Y876388D01*
X160202Y876413D01*
X160103Y876444D01*
X160084Y876443D01*
X160064Y876448D01*
X159961Y876440D01*
X159858Y876437D01*
X159839Y876430D01*
X159819Y876429D01*
X159724Y876389D01*
X159627Y876353D01*
X159611Y876340D01*
X159593Y876333D01*
X159462Y876228D01*
X152910Y869676D01*
X152841Y869580D01*
X152772Y869487D01*
X152770Y869481D01*
X152766Y869476D01*
X152732Y869365D01*
X152696Y869253D01*
X152696Y869247D01*
X152694Y869241D01*
X152697Y869124D01*
X152698Y869007D01*
X152700Y869000D01*
X152700Y868995D01*
X152707Y868978D01*
X152745Y868846D01*
X153245Y867639D01*
X153245Y848761D01*
X151853Y845400D01*
X149280Y842827D01*
X145919Y841435D01*
X142281Y841435D01*
X138920Y842827D01*
X136347Y845400D01*
X134955Y848761D01*
X134955Y867639D01*
X136347Y871000D01*
X138920Y873573D01*
X142281Y874965D01*
X145919Y874965D01*
X149288Y873569D01*
X149300Y873554D01*
X149387Y873498D01*
X149471Y873438D01*
X149490Y873432D01*
X149507Y873421D01*
X149607Y873396D01*
X149706Y873366D01*
X149726Y873366D01*
X149745Y873361D01*
X149848Y873369D01*
X149952Y873372D01*
X149971Y873379D01*
X149990Y873380D01*
X150085Y873421D01*
X150183Y873456D01*
X150198Y873469D01*
X150217Y873477D01*
X150348Y873582D01*
X159053Y882287D01*
X160947Y882287D01*
X162510Y880724D01*
X164998Y878236D01*
X165072Y878183D01*
X165142Y878123D01*
X165172Y878111D01*
X165198Y878092D01*
X165285Y878065D01*
X165370Y878031D01*
X165411Y878027D01*
X165433Y878020D01*
X165465Y878021D01*
X165536Y878013D01*
X285403Y878013D01*
X359906Y803510D01*
X359980Y803457D01*
X360050Y803397D01*
X360080Y803385D01*
X360106Y803366D01*
X360193Y803339D01*
X360278Y803305D01*
X360319Y803301D01*
X360341Y803294D01*
X360373Y803295D01*
X360445Y803287D01*
X418523Y803287D01*
X418638Y803306D01*
X418754Y803323D01*
X418760Y803325D01*
X418766Y803326D01*
X418868Y803381D01*
X418973Y803434D01*
X418978Y803439D01*
X418983Y803442D01*
X419063Y803526D01*
X419146Y803610D01*
X419149Y803616D01*
X419153Y803620D01*
X419160Y803637D01*
X419226Y803757D01*
X420906Y807811D01*
X424289Y811194D01*
X428708Y813025D01*
X433492Y813025D01*
X437911Y811194D01*
X441294Y807811D01*
X442974Y803757D01*
X443035Y803657D01*
X443095Y803557D01*
X443100Y803553D01*
X443103Y803548D01*
X443193Y803473D01*
X443282Y803397D01*
X443288Y803395D01*
X443293Y803391D01*
X443401Y803349D01*
X443510Y803305D01*
X443518Y803304D01*
X443522Y803303D01*
X443541Y803302D01*
X443677Y803287D01*
X592255Y803287D01*
X592345Y803301D01*
X592436Y803309D01*
X592466Y803321D01*
X592498Y803326D01*
X592579Y803369D01*
X592663Y803405D01*
X592695Y803431D01*
X592715Y803442D01*
X592738Y803465D01*
X592794Y803510D01*
X598557Y809273D01*
X817811Y809273D01*
X929140Y697944D01*
X929234Y697876D01*
X929329Y697806D01*
X929335Y697804D01*
X929340Y697800D01*
X929450Y697766D01*
X929562Y697730D01*
X929569Y697730D01*
X929575Y697728D01*
X929691Y697731D01*
X929808Y697732D01*
X929816Y697734D01*
X929821Y697734D01*
X929838Y697741D01*
X929969Y697779D01*
X935271Y699975D01*
X940929Y699975D01*
X946158Y697809D01*
X950159Y693808D01*
X952325Y688579D01*
X952325Y682921D01*
X950129Y677620D01*
X950102Y677506D01*
X950074Y677392D01*
X950074Y677386D01*
X950073Y677380D01*
X950084Y677263D01*
X950093Y677147D01*
X950095Y677141D01*
X950096Y677135D01*
X950144Y677028D01*
X950189Y676921D01*
X950194Y676915D01*
X950196Y676910D01*
X950209Y676897D01*
X950294Y676790D01*
X955373Y671711D01*
X955373Y558595D01*
X941910Y545132D01*
X941857Y545058D01*
X941797Y544989D01*
X941785Y544959D01*
X941766Y544933D01*
X941739Y544846D01*
X941705Y544761D01*
X941701Y544720D01*
X941694Y544698D01*
X941695Y544665D01*
X941687Y544594D01*
X941687Y480708D01*
X941706Y480593D01*
X941723Y480477D01*
X941725Y480472D01*
X941726Y480465D01*
X941781Y480363D01*
X941834Y480258D01*
X941839Y480254D01*
X941842Y480248D01*
X941926Y480168D01*
X942010Y480086D01*
X942016Y480082D01*
X942020Y480079D01*
X942037Y480071D01*
X942157Y480005D01*
X947458Y477809D01*
X951459Y473808D01*
X953625Y468579D01*
X953625Y462921D01*
X951459Y457692D01*
X947458Y453691D01*
X942229Y451525D01*
X936571Y451525D01*
X931342Y453691D01*
X928000Y457033D01*
X927942Y457075D01*
X927890Y457124D01*
X927843Y457146D01*
X927801Y457176D01*
X927732Y457198D01*
X927667Y457228D01*
X927615Y457233D01*
X927565Y457249D01*
X927494Y457247D01*
X927423Y457255D01*
X927372Y457244D01*
X927320Y457242D01*
X927252Y457218D01*
X927182Y457203D01*
X927137Y457176D01*
X927089Y457158D01*
X927033Y457113D01*
X926971Y457076D01*
X926937Y457037D01*
X926897Y457004D01*
X926858Y456944D01*
X926811Y456890D01*
X926792Y456841D01*
X926764Y456797D01*
X926746Y456728D01*
X926719Y456661D01*
X926711Y456590D01*
X926703Y456559D01*
X926705Y456536D01*
X926701Y456495D01*
X926701Y361999D01*
X926715Y361908D01*
X926723Y361818D01*
X926735Y361788D01*
X926740Y361756D01*
X926783Y361675D01*
X926819Y361591D01*
X926845Y361559D01*
X926856Y361538D01*
X926879Y361516D01*
X926924Y361460D01*
X930440Y357944D01*
X930534Y357876D01*
X930629Y357806D01*
X930635Y357804D01*
X930640Y357800D01*
X930750Y357766D01*
X930862Y357730D01*
X930869Y357730D01*
X930875Y357728D01*
X930992Y357731D01*
X931108Y357732D01*
X931116Y357734D01*
X931121Y357734D01*
X931138Y357741D01*
X931270Y357779D01*
X936571Y359975D01*
X942229Y359975D01*
X947458Y357809D01*
X951459Y353808D01*
X953625Y348579D01*
X953625Y342921D01*
X951459Y337692D01*
X947458Y333691D01*
X942229Y331525D01*
X936571Y331525D01*
G37*
%LPD*%
%LPC*%
G36*
X78005Y55675D02*
X78005Y55675D01*
X74505Y57125D01*
X71825Y59805D01*
X70375Y63305D01*
X70375Y67095D01*
X71825Y70595D01*
X73736Y72506D01*
X73748Y72523D01*
X73764Y72535D01*
X73820Y72622D01*
X73880Y72706D01*
X73886Y72725D01*
X73897Y72742D01*
X73922Y72842D01*
X73952Y72941D01*
X73952Y72961D01*
X73957Y72981D01*
X73949Y73083D01*
X73946Y73187D01*
X73939Y73206D01*
X73938Y73226D01*
X73897Y73321D01*
X73862Y73418D01*
X73849Y73434D01*
X73841Y73452D01*
X73736Y73583D01*
X67327Y79992D01*
X67327Y90408D01*
X77390Y100471D01*
X77443Y100545D01*
X77503Y100614D01*
X77515Y100644D01*
X77534Y100671D01*
X77561Y100758D01*
X77595Y100842D01*
X77599Y100883D01*
X77606Y100906D01*
X77605Y100938D01*
X77613Y101009D01*
X77613Y128329D01*
X77594Y128444D01*
X77577Y128560D01*
X77575Y128566D01*
X77574Y128572D01*
X77519Y128674D01*
X77466Y128779D01*
X77461Y128784D01*
X77458Y128789D01*
X77374Y128869D01*
X77290Y128951D01*
X77284Y128955D01*
X77280Y128959D01*
X77263Y128966D01*
X77143Y129032D01*
X74505Y130125D01*
X71825Y132805D01*
X70375Y136305D01*
X70375Y140095D01*
X71825Y143595D01*
X73736Y145506D01*
X73748Y145523D01*
X73764Y145535D01*
X73820Y145622D01*
X73880Y145706D01*
X73886Y145725D01*
X73897Y145742D01*
X73922Y145842D01*
X73952Y145941D01*
X73952Y145961D01*
X73957Y145981D01*
X73949Y146083D01*
X73946Y146187D01*
X73939Y146206D01*
X73938Y146226D01*
X73897Y146321D01*
X73862Y146418D01*
X73849Y146434D01*
X73841Y146452D01*
X73736Y146583D01*
X67327Y152992D01*
X67327Y163408D01*
X77390Y173471D01*
X77443Y173545D01*
X77503Y173614D01*
X77515Y173644D01*
X77534Y173671D01*
X77561Y173758D01*
X77595Y173842D01*
X77599Y173883D01*
X77606Y173906D01*
X77605Y173938D01*
X77613Y174009D01*
X77613Y191829D01*
X77594Y191944D01*
X77577Y192060D01*
X77575Y192066D01*
X77574Y192072D01*
X77520Y192173D01*
X77466Y192279D01*
X77461Y192284D01*
X77458Y192289D01*
X77374Y192369D01*
X77290Y192451D01*
X77284Y192455D01*
X77280Y192459D01*
X77263Y192466D01*
X77143Y192532D01*
X74505Y193625D01*
X71825Y196305D01*
X70375Y199805D01*
X70375Y203595D01*
X71468Y206233D01*
X71495Y206347D01*
X71523Y206460D01*
X71523Y206467D01*
X71524Y206473D01*
X71513Y206589D01*
X71504Y206706D01*
X71502Y206711D01*
X71501Y206718D01*
X71453Y206825D01*
X71408Y206932D01*
X71403Y206938D01*
X71401Y206942D01*
X71389Y206956D01*
X71303Y207063D01*
X34076Y244290D01*
X32513Y245853D01*
X32513Y368216D01*
X32494Y368331D01*
X32477Y368447D01*
X32475Y368452D01*
X32474Y368459D01*
X32419Y368561D01*
X32366Y368666D01*
X32361Y368670D01*
X32358Y368676D01*
X32274Y368756D01*
X32190Y368838D01*
X32184Y368842D01*
X32180Y368845D01*
X32163Y368853D01*
X32043Y368919D01*
X28613Y370340D01*
X25540Y373413D01*
X23877Y377427D01*
X23877Y381773D01*
X25540Y385787D01*
X28613Y388860D01*
X32627Y390523D01*
X36973Y390523D01*
X40987Y388860D01*
X44060Y385787D01*
X45723Y381773D01*
X45723Y377427D01*
X44060Y373413D01*
X40987Y370340D01*
X37557Y368919D01*
X37457Y368858D01*
X37357Y368798D01*
X37353Y368793D01*
X37348Y368790D01*
X37273Y368700D01*
X37197Y368611D01*
X37195Y368605D01*
X37191Y368600D01*
X37149Y368492D01*
X37105Y368383D01*
X37104Y368375D01*
X37103Y368370D01*
X37102Y368352D01*
X37087Y368216D01*
X37087Y248063D01*
X37101Y247972D01*
X37109Y247882D01*
X37121Y247852D01*
X37126Y247820D01*
X37169Y247739D01*
X37205Y247655D01*
X37231Y247623D01*
X37242Y247602D01*
X37265Y247580D01*
X37310Y247524D01*
X74537Y210297D01*
X74631Y210229D01*
X74726Y210159D01*
X74732Y210157D01*
X74737Y210153D01*
X74848Y210119D01*
X74960Y210083D01*
X74966Y210083D01*
X74972Y210081D01*
X75089Y210084D01*
X75206Y210085D01*
X75213Y210087D01*
X75218Y210087D01*
X75235Y210094D01*
X75367Y210132D01*
X77455Y210997D01*
X77516Y211034D01*
X77581Y211064D01*
X77620Y211099D01*
X77664Y211126D01*
X77710Y211181D01*
X77762Y211230D01*
X77788Y211276D01*
X77821Y211316D01*
X77846Y211383D01*
X77881Y211446D01*
X77890Y211497D01*
X77909Y211545D01*
X77912Y211617D01*
X77925Y211688D01*
X77917Y211739D01*
X77919Y211791D01*
X77899Y211860D01*
X77889Y211931D01*
X77865Y211977D01*
X77851Y212027D01*
X77810Y212086D01*
X77777Y212150D01*
X77740Y212187D01*
X77711Y212229D01*
X77653Y212272D01*
X77602Y212322D01*
X77539Y212357D01*
X77513Y212376D01*
X77491Y212383D01*
X77455Y212403D01*
X74505Y213625D01*
X71825Y216305D01*
X70375Y219805D01*
X70375Y223595D01*
X71825Y227095D01*
X74505Y229775D01*
X78005Y231225D01*
X81795Y231225D01*
X85295Y229775D01*
X87975Y227095D01*
X89425Y223595D01*
X89425Y221348D01*
X89428Y221328D01*
X89426Y221309D01*
X89448Y221207D01*
X89464Y221105D01*
X89474Y221088D01*
X89478Y221068D01*
X89531Y220979D01*
X89580Y220888D01*
X89594Y220874D01*
X89604Y220857D01*
X89683Y220790D01*
X89758Y220718D01*
X89776Y220710D01*
X89791Y220697D01*
X89887Y220658D01*
X89981Y220615D01*
X90001Y220613D01*
X90019Y220605D01*
X90186Y220587D01*
X107116Y220587D01*
X107231Y220606D01*
X107347Y220623D01*
X107352Y220625D01*
X107359Y220626D01*
X107461Y220681D01*
X107566Y220734D01*
X107570Y220739D01*
X107576Y220742D01*
X107656Y220826D01*
X107738Y220910D01*
X107742Y220916D01*
X107745Y220920D01*
X107753Y220937D01*
X107819Y221057D01*
X109240Y224487D01*
X112313Y227560D01*
X116327Y229223D01*
X120673Y229223D01*
X124687Y227560D01*
X127760Y224487D01*
X129181Y221057D01*
X129242Y220957D01*
X129302Y220857D01*
X129307Y220853D01*
X129310Y220848D01*
X129400Y220773D01*
X129489Y220697D01*
X129495Y220695D01*
X129500Y220691D01*
X129608Y220649D01*
X129717Y220605D01*
X129725Y220604D01*
X129730Y220603D01*
X129748Y220602D01*
X129884Y220587D01*
X176914Y220587D01*
X177004Y220601D01*
X177095Y220609D01*
X177125Y220621D01*
X177157Y220626D01*
X177237Y220669D01*
X177321Y220705D01*
X177353Y220731D01*
X177374Y220742D01*
X177396Y220765D01*
X177452Y220810D01*
X188913Y232271D01*
X205673Y232271D01*
X205764Y232285D01*
X205854Y232293D01*
X205884Y232305D01*
X205916Y232310D01*
X205997Y232353D01*
X206081Y232389D01*
X206113Y232415D01*
X206134Y232426D01*
X206156Y232449D01*
X206212Y232494D01*
X214442Y240724D01*
X214495Y240798D01*
X214555Y240868D01*
X214567Y240898D01*
X214586Y240924D01*
X214613Y241011D01*
X214647Y241096D01*
X214651Y241137D01*
X214658Y241159D01*
X214657Y241191D01*
X214665Y241263D01*
X214665Y425213D01*
X214651Y425303D01*
X214643Y425394D01*
X214631Y425424D01*
X214626Y425456D01*
X214583Y425537D01*
X214547Y425620D01*
X214521Y425653D01*
X214510Y425673D01*
X214487Y425695D01*
X214442Y425751D01*
X191352Y448841D01*
X191294Y448883D01*
X191242Y448933D01*
X191195Y448955D01*
X191153Y448985D01*
X191084Y449006D01*
X191019Y449036D01*
X190967Y449042D01*
X190917Y449057D01*
X190846Y449055D01*
X190775Y449063D01*
X190724Y449052D01*
X190672Y449051D01*
X190604Y449026D01*
X190534Y449011D01*
X190489Y448984D01*
X190441Y448967D01*
X190385Y448922D01*
X190323Y448885D01*
X190289Y448845D01*
X190249Y448813D01*
X190210Y448753D01*
X190163Y448698D01*
X190144Y448650D01*
X190116Y448606D01*
X190098Y448536D01*
X190071Y448470D01*
X190063Y448399D01*
X190055Y448367D01*
X190057Y448344D01*
X190053Y448303D01*
X190053Y446380D01*
X188583Y442832D01*
X185868Y440117D01*
X182320Y438647D01*
X178480Y438647D01*
X174932Y440117D01*
X172217Y442832D01*
X170747Y446380D01*
X170747Y450220D01*
X172217Y453768D01*
X174932Y456483D01*
X178480Y457953D01*
X180403Y457953D01*
X180474Y457964D01*
X180546Y457966D01*
X180595Y457984D01*
X180646Y457992D01*
X180709Y458026D01*
X180777Y458051D01*
X180817Y458083D01*
X180863Y458108D01*
X180913Y458160D01*
X180969Y458204D01*
X180997Y458248D01*
X181033Y458286D01*
X181063Y458351D01*
X181102Y458411D01*
X181114Y458462D01*
X181136Y458509D01*
X181144Y458580D01*
X181162Y458650D01*
X181158Y458702D01*
X181163Y458753D01*
X181148Y458824D01*
X181143Y458895D01*
X181122Y458943D01*
X181111Y458994D01*
X181074Y459055D01*
X181046Y459121D01*
X181001Y459177D01*
X180985Y459205D01*
X180967Y459220D01*
X180941Y459252D01*
X178113Y462080D01*
X178113Y463691D01*
X178094Y463805D01*
X178077Y463921D01*
X178075Y463927D01*
X178074Y463933D01*
X178019Y464036D01*
X177966Y464141D01*
X177961Y464145D01*
X177958Y464151D01*
X177874Y464230D01*
X177790Y464313D01*
X177784Y464317D01*
X177780Y464320D01*
X177763Y464328D01*
X177643Y464394D01*
X174932Y465517D01*
X172217Y468232D01*
X170747Y471780D01*
X170747Y475620D01*
X172217Y479168D01*
X174932Y481883D01*
X178480Y483353D01*
X182320Y483353D01*
X185868Y481883D01*
X188583Y479168D01*
X190053Y475620D01*
X190053Y471780D01*
X188583Y468232D01*
X185868Y465517D01*
X183581Y464569D01*
X183542Y464545D01*
X183499Y464530D01*
X183457Y464497D01*
X183413Y464473D01*
X183395Y464454D01*
X183372Y464440D01*
X183342Y464404D01*
X183307Y464376D01*
X183277Y464330D01*
X183243Y464295D01*
X183233Y464272D01*
X183215Y464250D01*
X183198Y464208D01*
X183174Y464169D01*
X183160Y464115D01*
X183140Y464071D01*
X183137Y464048D01*
X183127Y464021D01*
X183125Y463975D01*
X183113Y463930D01*
X183118Y463874D01*
X183113Y463827D01*
X183117Y463805D01*
X183116Y463775D01*
X183129Y463731D01*
X183133Y463685D01*
X183155Y463633D01*
X183165Y463587D01*
X183177Y463567D01*
X183185Y463539D01*
X183211Y463501D01*
X183229Y463459D01*
X183278Y463398D01*
X183291Y463376D01*
X183305Y463363D01*
X183314Y463352D01*
X183325Y463337D01*
X183329Y463334D01*
X183334Y463328D01*
X216414Y430248D01*
X216472Y430206D01*
X216524Y430157D01*
X216571Y430135D01*
X216613Y430104D01*
X216682Y430083D01*
X216747Y430053D01*
X216799Y430047D01*
X216849Y430032D01*
X216920Y430034D01*
X216991Y430026D01*
X217042Y430037D01*
X217094Y430038D01*
X217162Y430063D01*
X217232Y430078D01*
X217277Y430105D01*
X217325Y430123D01*
X217381Y430168D01*
X217443Y430204D01*
X217477Y430244D01*
X217517Y430276D01*
X217556Y430337D01*
X217603Y430391D01*
X217622Y430440D01*
X217650Y430483D01*
X217668Y430553D01*
X217695Y430619D01*
X217703Y430691D01*
X217711Y430722D01*
X217709Y430745D01*
X217713Y430786D01*
X217713Y599965D01*
X217699Y600055D01*
X217691Y600146D01*
X217679Y600176D01*
X217674Y600208D01*
X217631Y600289D01*
X217595Y600372D01*
X217569Y600405D01*
X217558Y600425D01*
X217535Y600447D01*
X217490Y600503D01*
X191352Y626641D01*
X191294Y626683D01*
X191242Y626733D01*
X191195Y626755D01*
X191153Y626785D01*
X191084Y626806D01*
X191019Y626836D01*
X190967Y626842D01*
X190917Y626857D01*
X190846Y626855D01*
X190775Y626863D01*
X190724Y626852D01*
X190672Y626851D01*
X190604Y626826D01*
X190534Y626811D01*
X190489Y626784D01*
X190441Y626767D01*
X190385Y626722D01*
X190323Y626685D01*
X190289Y626645D01*
X190249Y626613D01*
X190210Y626553D01*
X190163Y626498D01*
X190144Y626450D01*
X190116Y626406D01*
X190098Y626336D01*
X190071Y626270D01*
X190063Y626199D01*
X190055Y626167D01*
X190057Y626144D01*
X190053Y626103D01*
X190053Y624180D01*
X188583Y620632D01*
X185868Y617917D01*
X182320Y616447D01*
X178480Y616447D01*
X174932Y617917D01*
X172217Y620632D01*
X170747Y624180D01*
X170747Y628020D01*
X172217Y631568D01*
X174932Y634283D01*
X178480Y635753D01*
X180403Y635753D01*
X180474Y635764D01*
X180546Y635766D01*
X180595Y635784D01*
X180646Y635792D01*
X180709Y635826D01*
X180777Y635851D01*
X180817Y635883D01*
X180863Y635908D01*
X180913Y635960D01*
X180969Y636004D01*
X180997Y636048D01*
X181033Y636086D01*
X181063Y636151D01*
X181102Y636211D01*
X181114Y636262D01*
X181136Y636309D01*
X181144Y636380D01*
X181162Y636450D01*
X181158Y636502D01*
X181163Y636553D01*
X181148Y636624D01*
X181143Y636695D01*
X181122Y636743D01*
X181111Y636794D01*
X181074Y636855D01*
X181046Y636921D01*
X181001Y636977D01*
X180985Y637005D01*
X180967Y637020D01*
X180941Y637052D01*
X178113Y639880D01*
X178113Y641491D01*
X178094Y641605D01*
X178077Y641721D01*
X178075Y641727D01*
X178074Y641733D01*
X178019Y641836D01*
X177966Y641941D01*
X177961Y641945D01*
X177958Y641951D01*
X177874Y642030D01*
X177790Y642113D01*
X177784Y642117D01*
X177780Y642120D01*
X177763Y642128D01*
X177643Y642194D01*
X174932Y643317D01*
X172217Y646032D01*
X170747Y649580D01*
X170747Y653420D01*
X172217Y656968D01*
X174932Y659683D01*
X178480Y661153D01*
X182320Y661153D01*
X185868Y659683D01*
X188583Y656968D01*
X190053Y653420D01*
X190053Y649580D01*
X188583Y646032D01*
X185868Y643317D01*
X183581Y642369D01*
X183542Y642345D01*
X183499Y642330D01*
X183438Y642281D01*
X183372Y642240D01*
X183342Y642204D01*
X183307Y642176D01*
X183264Y642110D01*
X183215Y642050D01*
X183198Y642008D01*
X183174Y641969D01*
X183154Y641893D01*
X183127Y641821D01*
X183125Y641775D01*
X183113Y641730D01*
X183119Y641653D01*
X183116Y641575D01*
X183129Y641531D01*
X183133Y641485D01*
X183163Y641414D01*
X183185Y641339D01*
X183211Y641301D01*
X183229Y641259D01*
X183314Y641152D01*
X183325Y641137D01*
X183329Y641134D01*
X183334Y641128D01*
X219462Y605000D01*
X219520Y604958D01*
X219572Y604909D01*
X219619Y604887D01*
X219661Y604856D01*
X219730Y604835D01*
X219795Y604805D01*
X219847Y604799D01*
X219897Y604784D01*
X219968Y604786D01*
X220039Y604778D01*
X220090Y604789D01*
X220142Y604790D01*
X220210Y604815D01*
X220280Y604830D01*
X220325Y604857D01*
X220373Y604875D01*
X220429Y604920D01*
X220491Y604956D01*
X220525Y604996D01*
X220565Y605028D01*
X220604Y605089D01*
X220651Y605143D01*
X220670Y605192D01*
X220698Y605235D01*
X220716Y605305D01*
X220743Y605371D01*
X220751Y605443D01*
X220759Y605474D01*
X220757Y605497D01*
X220761Y605538D01*
X220761Y647717D01*
X220747Y647807D01*
X220739Y647898D01*
X220727Y647928D01*
X220722Y647960D01*
X220679Y648041D01*
X220643Y648124D01*
X220617Y648157D01*
X220606Y648177D01*
X220583Y648199D01*
X220538Y648255D01*
X191352Y677441D01*
X191294Y677483D01*
X191242Y677533D01*
X191195Y677555D01*
X191153Y677585D01*
X191084Y677606D01*
X191019Y677636D01*
X190967Y677642D01*
X190917Y677657D01*
X190846Y677655D01*
X190775Y677663D01*
X190724Y677652D01*
X190672Y677651D01*
X190604Y677626D01*
X190534Y677611D01*
X190489Y677584D01*
X190441Y677567D01*
X190385Y677522D01*
X190323Y677485D01*
X190289Y677445D01*
X190249Y677413D01*
X190210Y677353D01*
X190163Y677298D01*
X190144Y677250D01*
X190116Y677206D01*
X190098Y677136D01*
X190071Y677070D01*
X190063Y676999D01*
X190055Y676967D01*
X190057Y676944D01*
X190053Y676903D01*
X190053Y674980D01*
X188583Y671432D01*
X185868Y668717D01*
X182320Y667247D01*
X178480Y667247D01*
X174932Y668717D01*
X172217Y671432D01*
X170747Y674980D01*
X170747Y678820D01*
X172217Y682368D01*
X174932Y685083D01*
X177039Y685956D01*
X177078Y685980D01*
X177121Y685996D01*
X177182Y686044D01*
X177248Y686085D01*
X177277Y686121D01*
X177313Y686149D01*
X177355Y686215D01*
X177405Y686275D01*
X177421Y686318D01*
X177446Y686356D01*
X177465Y686432D01*
X177493Y686504D01*
X177495Y686550D01*
X177506Y686595D01*
X177500Y686672D01*
X177503Y686750D01*
X177490Y686794D01*
X177487Y686840D01*
X177456Y686912D01*
X177435Y686986D01*
X177409Y687024D01*
X177391Y687066D01*
X177305Y687173D01*
X177294Y687189D01*
X177290Y687192D01*
X177286Y687197D01*
X167699Y696784D01*
X167699Y707561D01*
X169262Y709123D01*
X175139Y715001D01*
X185661Y715001D01*
X228383Y672279D01*
X228383Y643139D01*
X228397Y643049D01*
X228405Y642958D01*
X228417Y642928D01*
X228422Y642896D01*
X228465Y642815D01*
X228501Y642732D01*
X228527Y642699D01*
X228538Y642679D01*
X228561Y642657D01*
X228606Y642601D01*
X244647Y626559D01*
X244657Y626552D01*
X244664Y626543D01*
X244757Y626480D01*
X244847Y626416D01*
X244858Y626412D01*
X244868Y626405D01*
X244976Y626376D01*
X245082Y626343D01*
X245094Y626343D01*
X245106Y626340D01*
X245216Y626347D01*
X245328Y626350D01*
X245339Y626354D01*
X245351Y626354D01*
X245454Y626396D01*
X245559Y626434D01*
X245568Y626441D01*
X245579Y626446D01*
X245664Y626518D01*
X245751Y626588D01*
X245757Y626598D01*
X245767Y626606D01*
X245824Y626701D01*
X245884Y626795D01*
X245887Y626806D01*
X245893Y626816D01*
X245937Y626978D01*
X246194Y628598D01*
X246713Y630195D01*
X247475Y631692D01*
X248462Y633050D01*
X249650Y634238D01*
X251008Y635225D01*
X252505Y635987D01*
X254102Y636506D01*
X255077Y636660D01*
X255077Y626862D01*
X255080Y626842D01*
X255078Y626823D01*
X255100Y626721D01*
X255117Y626619D01*
X255126Y626602D01*
X255130Y626582D01*
X255183Y626493D01*
X255232Y626402D01*
X255246Y626388D01*
X255256Y626371D01*
X255335Y626304D01*
X255410Y626233D01*
X255428Y626224D01*
X255443Y626211D01*
X255539Y626173D01*
X255633Y626129D01*
X255653Y626127D01*
X255671Y626119D01*
X255838Y626101D01*
X256601Y626101D01*
X256601Y625338D01*
X256604Y625318D01*
X256602Y625299D01*
X256624Y625197D01*
X256641Y625095D01*
X256650Y625078D01*
X256654Y625058D01*
X256707Y624969D01*
X256756Y624878D01*
X256770Y624864D01*
X256780Y624847D01*
X256859Y624780D01*
X256934Y624709D01*
X256952Y624700D01*
X256967Y624687D01*
X257063Y624648D01*
X257157Y624605D01*
X257177Y624603D01*
X257195Y624595D01*
X257362Y624577D01*
X267160Y624577D01*
X267006Y623602D01*
X266487Y622005D01*
X265725Y620508D01*
X264738Y619150D01*
X263550Y617962D01*
X262192Y616975D01*
X260695Y616213D01*
X259098Y615694D01*
X257478Y615437D01*
X257467Y615434D01*
X257455Y615433D01*
X257350Y615395D01*
X257245Y615360D01*
X257235Y615353D01*
X257224Y615349D01*
X257137Y615279D01*
X257048Y615213D01*
X257041Y615203D01*
X257032Y615195D01*
X256972Y615102D01*
X256909Y615010D01*
X256905Y614998D01*
X256899Y614988D01*
X256872Y614880D01*
X256841Y614773D01*
X256842Y614761D01*
X256839Y614750D01*
X256847Y614639D01*
X256853Y614528D01*
X256857Y614516D01*
X256858Y614504D01*
X256902Y614402D01*
X256942Y614298D01*
X256950Y614289D01*
X256954Y614278D01*
X257059Y614147D01*
X257583Y613624D01*
X257657Y613570D01*
X257726Y613511D01*
X257756Y613499D01*
X257782Y613480D01*
X257869Y613453D01*
X257954Y613419D01*
X257995Y613415D01*
X258017Y613408D01*
X258050Y613409D01*
X258121Y613401D01*
X261861Y613401D01*
X263423Y611838D01*
X272752Y602510D01*
X272826Y602457D01*
X272895Y602397D01*
X272925Y602385D01*
X272952Y602366D01*
X273039Y602339D01*
X273123Y602305D01*
X273164Y602301D01*
X273187Y602294D01*
X273219Y602295D01*
X273290Y602287D01*
X362947Y602287D01*
X364510Y600724D01*
X397667Y567567D01*
X397762Y567499D01*
X397856Y567429D01*
X397862Y567427D01*
X397867Y567423D01*
X397978Y567389D01*
X398090Y567353D01*
X398096Y567353D01*
X398102Y567351D01*
X398219Y567354D01*
X398336Y567355D01*
X398343Y567357D01*
X398348Y567357D01*
X398365Y567364D01*
X398497Y567402D01*
X401927Y568823D01*
X406273Y568823D01*
X410287Y567160D01*
X413360Y564087D01*
X415023Y560073D01*
X415023Y555727D01*
X413360Y551713D01*
X410287Y548640D01*
X406857Y547219D01*
X406757Y547158D01*
X406657Y547098D01*
X406653Y547093D01*
X406648Y547090D01*
X406573Y547000D01*
X406497Y546911D01*
X406495Y546905D01*
X406491Y546900D01*
X406449Y546792D01*
X406405Y546683D01*
X406404Y546675D01*
X406403Y546670D01*
X406402Y546652D01*
X406387Y546516D01*
X406387Y388663D01*
X406401Y388572D01*
X406409Y388482D01*
X406421Y388452D01*
X406426Y388420D01*
X406469Y388339D01*
X406505Y388255D01*
X406531Y388223D01*
X406542Y388202D01*
X406565Y388180D01*
X406610Y388124D01*
X468011Y326723D01*
X468048Y326696D01*
X468079Y326663D01*
X468147Y326625D01*
X468210Y326580D01*
X468254Y326566D01*
X468295Y326544D01*
X468371Y326530D01*
X468445Y326507D01*
X468491Y326509D01*
X468537Y326500D01*
X468614Y326512D01*
X468691Y326514D01*
X468734Y326529D01*
X468780Y326536D01*
X468849Y326571D01*
X468922Y326598D01*
X468958Y326627D01*
X468999Y326648D01*
X469054Y326703D01*
X469114Y326752D01*
X469139Y326791D01*
X469171Y326823D01*
X469237Y326943D01*
X469247Y326959D01*
X469249Y326964D01*
X469252Y326970D01*
X469347Y327200D01*
X471920Y329773D01*
X475281Y331165D01*
X478919Y331165D01*
X482280Y329773D01*
X484853Y327200D01*
X486245Y323839D01*
X486245Y304961D01*
X484853Y301600D01*
X482280Y299027D01*
X478919Y297635D01*
X475281Y297635D01*
X471920Y299027D01*
X469347Y301600D01*
X467955Y304961D01*
X467955Y319996D01*
X467952Y320013D01*
X467954Y320030D01*
X467940Y320097D01*
X467933Y320177D01*
X467921Y320206D01*
X467916Y320238D01*
X467904Y320259D01*
X467902Y320270D01*
X467873Y320318D01*
X467873Y320319D01*
X467837Y320403D01*
X467811Y320435D01*
X467800Y320456D01*
X467779Y320476D01*
X467776Y320481D01*
X467771Y320485D01*
X467732Y320534D01*
X401813Y386453D01*
X401813Y546516D01*
X401794Y546631D01*
X401777Y546747D01*
X401775Y546752D01*
X401774Y546759D01*
X401719Y546861D01*
X401666Y546966D01*
X401661Y546970D01*
X401658Y546976D01*
X401574Y547056D01*
X401490Y547138D01*
X401484Y547142D01*
X401480Y547145D01*
X401463Y547153D01*
X401343Y547219D01*
X397913Y548640D01*
X394840Y551713D01*
X393177Y555727D01*
X393177Y560073D01*
X394598Y563503D01*
X394625Y563617D01*
X394654Y563730D01*
X394653Y563737D01*
X394654Y563743D01*
X394643Y563859D01*
X394634Y563976D01*
X394632Y563981D01*
X394631Y563988D01*
X394584Y564095D01*
X394538Y564202D01*
X394533Y564208D01*
X394531Y564212D01*
X394519Y564226D01*
X394433Y564333D01*
X361276Y597490D01*
X361202Y597543D01*
X361132Y597603D01*
X361102Y597615D01*
X361076Y597634D01*
X360989Y597661D01*
X360904Y597695D01*
X360863Y597699D01*
X360841Y597706D01*
X360809Y597705D01*
X360738Y597713D01*
X271080Y597713D01*
X269518Y599276D01*
X267552Y601241D01*
X267494Y601283D01*
X267442Y601333D01*
X267395Y601355D01*
X267353Y601385D01*
X267284Y601406D01*
X267219Y601436D01*
X267167Y601442D01*
X267117Y601457D01*
X267046Y601455D01*
X266975Y601463D01*
X266924Y601452D01*
X266872Y601451D01*
X266804Y601426D01*
X266734Y601411D01*
X266690Y601384D01*
X266641Y601367D01*
X266585Y601322D01*
X266523Y601285D01*
X266489Y601245D01*
X266449Y601213D01*
X266410Y601153D01*
X266363Y601098D01*
X266344Y601050D01*
X266316Y601006D01*
X266298Y600936D01*
X266271Y600870D01*
X266263Y600799D01*
X266255Y600767D01*
X266257Y600744D01*
X266253Y600703D01*
X266253Y598780D01*
X264783Y595232D01*
X262068Y592517D01*
X258520Y591047D01*
X254680Y591047D01*
X251132Y592517D01*
X248417Y595232D01*
X246947Y598780D01*
X246947Y602620D01*
X248417Y606168D01*
X251132Y608883D01*
X253419Y609831D01*
X253458Y609855D01*
X253501Y609870D01*
X253562Y609919D01*
X253628Y609960D01*
X253658Y609996D01*
X253694Y610024D01*
X253736Y610090D01*
X253785Y610150D01*
X253802Y610192D01*
X253827Y610231D01*
X253846Y610307D01*
X253873Y610379D01*
X253875Y610425D01*
X253887Y610470D01*
X253881Y610547D01*
X253884Y610625D01*
X253871Y610669D01*
X253867Y610715D01*
X253837Y610786D01*
X253815Y610861D01*
X253789Y610899D01*
X253771Y610941D01*
X253686Y611048D01*
X253675Y611063D01*
X253671Y611066D01*
X253666Y611072D01*
X226634Y638104D01*
X226576Y638146D01*
X226524Y638195D01*
X226477Y638217D01*
X226435Y638248D01*
X226366Y638269D01*
X226301Y638299D01*
X226249Y638305D01*
X226199Y638320D01*
X226128Y638318D01*
X226057Y638326D01*
X226006Y638315D01*
X225954Y638314D01*
X225886Y638289D01*
X225816Y638274D01*
X225772Y638247D01*
X225723Y638229D01*
X225667Y638184D01*
X225605Y638148D01*
X225571Y638108D01*
X225531Y638076D01*
X225492Y638015D01*
X225445Y637961D01*
X225426Y637912D01*
X225398Y637869D01*
X225380Y637799D01*
X225353Y637733D01*
X225345Y637661D01*
X225337Y637630D01*
X225339Y637607D01*
X225335Y637566D01*
X225335Y170777D01*
X198887Y144329D01*
X194679Y144329D01*
X194588Y144315D01*
X194498Y144307D01*
X194468Y144295D01*
X194436Y144290D01*
X194355Y144247D01*
X194271Y144211D01*
X194239Y144185D01*
X194218Y144174D01*
X194196Y144151D01*
X194140Y144106D01*
X138167Y88133D01*
X138099Y88039D01*
X138029Y87944D01*
X138027Y87938D01*
X138023Y87933D01*
X137989Y87822D01*
X137953Y87710D01*
X137953Y87704D01*
X137951Y87698D01*
X137954Y87581D01*
X137955Y87464D01*
X137957Y87457D01*
X137957Y87452D01*
X137964Y87435D01*
X138002Y87303D01*
X139423Y83873D01*
X139423Y79527D01*
X137760Y75513D01*
X134687Y72440D01*
X130673Y70777D01*
X126327Y70777D01*
X122313Y72440D01*
X119240Y75513D01*
X117819Y78943D01*
X117758Y79043D01*
X117698Y79143D01*
X117693Y79147D01*
X117690Y79152D01*
X117600Y79227D01*
X117511Y79303D01*
X117505Y79305D01*
X117500Y79309D01*
X117392Y79351D01*
X117283Y79395D01*
X117275Y79396D01*
X117270Y79397D01*
X117252Y79398D01*
X117116Y79413D01*
X87899Y79413D01*
X87808Y79399D01*
X87718Y79391D01*
X87688Y79379D01*
X87656Y79374D01*
X87575Y79331D01*
X87491Y79295D01*
X87459Y79269D01*
X87438Y79258D01*
X87416Y79235D01*
X87360Y79190D01*
X85295Y77125D01*
X82345Y75903D01*
X82284Y75865D01*
X82219Y75836D01*
X82180Y75801D01*
X82136Y75774D01*
X82090Y75718D01*
X82038Y75670D01*
X82012Y75624D01*
X81979Y75584D01*
X81954Y75517D01*
X81919Y75454D01*
X81910Y75403D01*
X81891Y75355D01*
X81888Y75283D01*
X81875Y75212D01*
X81883Y75161D01*
X81881Y75109D01*
X81901Y75040D01*
X81911Y74969D01*
X81935Y74923D01*
X81949Y74873D01*
X81990Y74814D01*
X82023Y74750D01*
X82060Y74713D01*
X82089Y74671D01*
X82147Y74628D01*
X82198Y74578D01*
X82261Y74543D01*
X82287Y74524D01*
X82309Y74517D01*
X82345Y74497D01*
X85295Y73275D01*
X87975Y70595D01*
X89425Y67095D01*
X89425Y63305D01*
X87975Y59805D01*
X85295Y57125D01*
X81795Y55675D01*
X78005Y55675D01*
G37*
%LPD*%
G36*
X117231Y84006D02*
X117231Y84006D01*
X117347Y84023D01*
X117352Y84025D01*
X117359Y84026D01*
X117461Y84081D01*
X117566Y84134D01*
X117570Y84139D01*
X117576Y84142D01*
X117656Y84226D01*
X117738Y84310D01*
X117742Y84316D01*
X117745Y84320D01*
X117753Y84337D01*
X117819Y84457D01*
X119240Y87887D01*
X122313Y90960D01*
X126327Y92623D01*
X130673Y92623D01*
X134103Y91202D01*
X134217Y91175D01*
X134330Y91147D01*
X134337Y91147D01*
X134343Y91146D01*
X134459Y91157D01*
X134576Y91166D01*
X134581Y91168D01*
X134588Y91169D01*
X134695Y91217D01*
X134802Y91262D01*
X134808Y91267D01*
X134812Y91269D01*
X134826Y91281D01*
X134933Y91367D01*
X189363Y145797D01*
X189407Y145859D01*
X189459Y145914D01*
X189479Y145958D01*
X189507Y145997D01*
X189529Y146069D01*
X189560Y146138D01*
X189565Y146186D01*
X189579Y146232D01*
X189577Y146308D01*
X189585Y146383D01*
X189574Y146430D01*
X189573Y146478D01*
X189547Y146549D01*
X189530Y146623D01*
X189505Y146664D01*
X189488Y146709D01*
X189441Y146768D01*
X189402Y146832D01*
X189365Y146863D01*
X189335Y146901D01*
X189271Y146942D01*
X189213Y146990D01*
X189154Y147017D01*
X189128Y147034D01*
X189103Y147040D01*
X189060Y147059D01*
X188517Y147236D01*
X186843Y148089D01*
X185322Y149194D01*
X183994Y150522D01*
X182889Y152043D01*
X182036Y153717D01*
X181455Y155504D01*
X181254Y156777D01*
X192338Y156777D01*
X192358Y156780D01*
X192377Y156778D01*
X192479Y156800D01*
X192581Y156817D01*
X192598Y156826D01*
X192618Y156830D01*
X192707Y156883D01*
X192798Y156932D01*
X192812Y156946D01*
X192829Y156956D01*
X192896Y157035D01*
X192967Y157110D01*
X192976Y157128D01*
X192989Y157143D01*
X193027Y157239D01*
X193071Y157333D01*
X193073Y157353D01*
X193081Y157371D01*
X193099Y157538D01*
X193099Y158301D01*
X193101Y158301D01*
X193101Y157538D01*
X193104Y157518D01*
X193102Y157499D01*
X193124Y157397D01*
X193141Y157295D01*
X193150Y157278D01*
X193154Y157258D01*
X193207Y157169D01*
X193256Y157078D01*
X193270Y157064D01*
X193280Y157047D01*
X193359Y156980D01*
X193434Y156909D01*
X193452Y156900D01*
X193467Y156887D01*
X193563Y156848D01*
X193657Y156805D01*
X193677Y156803D01*
X193695Y156795D01*
X193862Y156777D01*
X204551Y156777D01*
X204641Y156792D01*
X204732Y156799D01*
X204762Y156811D01*
X204794Y156817D01*
X204875Y156859D01*
X204959Y156895D01*
X204991Y156921D01*
X205011Y156932D01*
X205034Y156955D01*
X205089Y157000D01*
X220538Y172449D01*
X220591Y172522D01*
X220651Y172592D01*
X220663Y172622D01*
X220682Y172648D01*
X220709Y172735D01*
X220743Y172820D01*
X220747Y172861D01*
X220754Y172883D01*
X220753Y172916D01*
X220761Y172987D01*
X220761Y222766D01*
X220750Y222837D01*
X220748Y222908D01*
X220730Y222957D01*
X220722Y223009D01*
X220688Y223072D01*
X220663Y223139D01*
X220631Y223180D01*
X220606Y223226D01*
X220554Y223275D01*
X220510Y223331D01*
X220466Y223360D01*
X220428Y223395D01*
X220363Y223426D01*
X220303Y223464D01*
X220252Y223477D01*
X220205Y223499D01*
X220134Y223507D01*
X220064Y223524D01*
X220012Y223520D01*
X219961Y223526D01*
X219890Y223511D01*
X219819Y223505D01*
X219771Y223485D01*
X219720Y223474D01*
X219659Y223437D01*
X219593Y223409D01*
X219537Y223364D01*
X219509Y223348D01*
X219494Y223330D01*
X219462Y223304D01*
X200487Y204329D01*
X166479Y204329D01*
X166388Y204315D01*
X166298Y204307D01*
X166268Y204295D01*
X166236Y204290D01*
X166155Y204247D01*
X166071Y204211D01*
X166039Y204185D01*
X166018Y204174D01*
X165996Y204151D01*
X165940Y204106D01*
X126567Y164733D01*
X126499Y164639D01*
X126429Y164544D01*
X126427Y164538D01*
X126423Y164533D01*
X126389Y164422D01*
X126353Y164310D01*
X126353Y164304D01*
X126351Y164298D01*
X126354Y164181D01*
X126355Y164064D01*
X126357Y164057D01*
X126357Y164052D01*
X126364Y164035D01*
X126402Y163903D01*
X127823Y160473D01*
X127823Y156127D01*
X126160Y152113D01*
X123087Y149040D01*
X119073Y147377D01*
X114727Y147377D01*
X110713Y149040D01*
X107640Y152113D01*
X106219Y155543D01*
X106158Y155643D01*
X106098Y155743D01*
X106093Y155747D01*
X106090Y155752D01*
X106000Y155827D01*
X105911Y155903D01*
X105905Y155905D01*
X105900Y155909D01*
X105792Y155951D01*
X105683Y155995D01*
X105675Y155996D01*
X105670Y155997D01*
X105652Y155998D01*
X105516Y156013D01*
X89812Y156013D01*
X89698Y155994D01*
X89581Y155977D01*
X89576Y155975D01*
X89570Y155974D01*
X89467Y155919D01*
X89362Y155866D01*
X89358Y155861D01*
X89352Y155858D01*
X89272Y155774D01*
X89190Y155690D01*
X89186Y155684D01*
X89183Y155680D01*
X89175Y155663D01*
X89109Y155543D01*
X87975Y152805D01*
X85295Y150125D01*
X82345Y148903D01*
X82284Y148865D01*
X82219Y148836D01*
X82180Y148801D01*
X82136Y148774D01*
X82090Y148718D01*
X82038Y148670D01*
X82012Y148624D01*
X81979Y148584D01*
X81954Y148517D01*
X81919Y148454D01*
X81910Y148403D01*
X81891Y148355D01*
X81888Y148283D01*
X81875Y148212D01*
X81883Y148161D01*
X81881Y148109D01*
X81901Y148040D01*
X81911Y147969D01*
X81935Y147923D01*
X81949Y147873D01*
X81990Y147814D01*
X82023Y147750D01*
X82060Y147713D01*
X82089Y147671D01*
X82147Y147628D01*
X82198Y147578D01*
X82261Y147543D01*
X82287Y147524D01*
X82309Y147517D01*
X82345Y147497D01*
X85295Y146275D01*
X87975Y143595D01*
X89425Y140095D01*
X89425Y136305D01*
X87975Y132805D01*
X85295Y130125D01*
X82657Y129032D01*
X82557Y128971D01*
X82457Y128911D01*
X82453Y128906D01*
X82448Y128903D01*
X82373Y128813D01*
X82297Y128724D01*
X82295Y128718D01*
X82291Y128713D01*
X82249Y128605D01*
X82205Y128496D01*
X82204Y128488D01*
X82203Y128484D01*
X82202Y128465D01*
X82187Y128329D01*
X82187Y98799D01*
X79412Y96024D01*
X79370Y95966D01*
X79320Y95914D01*
X79298Y95867D01*
X79268Y95825D01*
X79247Y95756D01*
X79217Y95691D01*
X79211Y95639D01*
X79196Y95589D01*
X79198Y95518D01*
X79190Y95447D01*
X79201Y95396D01*
X79202Y95344D01*
X79227Y95276D01*
X79242Y95206D01*
X79269Y95161D01*
X79286Y95113D01*
X79331Y95057D01*
X79368Y94995D01*
X79408Y94961D01*
X79440Y94921D01*
X79500Y94882D01*
X79555Y94835D01*
X79603Y94816D01*
X79647Y94788D01*
X79717Y94770D01*
X79783Y94743D01*
X79854Y94735D01*
X79886Y94727D01*
X79909Y94729D01*
X79950Y94725D01*
X81795Y94725D01*
X85295Y93275D01*
X87975Y90595D01*
X89425Y87095D01*
X89425Y84748D01*
X89427Y84735D01*
X89426Y84725D01*
X89427Y84719D01*
X89426Y84709D01*
X89448Y84607D01*
X89464Y84505D01*
X89474Y84488D01*
X89478Y84468D01*
X89531Y84379D01*
X89580Y84288D01*
X89594Y84274D01*
X89604Y84257D01*
X89683Y84190D01*
X89758Y84118D01*
X89776Y84110D01*
X89791Y84097D01*
X89887Y84058D01*
X89981Y84015D01*
X90001Y84013D01*
X90019Y84005D01*
X90186Y83987D01*
X117116Y83987D01*
X117231Y84006D01*
G37*
%LPC*%
G36*
X463189Y106027D02*
X463189Y106027D01*
X361064Y208152D01*
X360990Y208205D01*
X360920Y208265D01*
X360890Y208277D01*
X360864Y208296D01*
X360777Y208323D01*
X360692Y208357D01*
X360651Y208361D01*
X360629Y208368D01*
X360597Y208367D01*
X360525Y208375D01*
X336518Y208375D01*
X335625Y209268D01*
X335625Y235932D01*
X336518Y236825D01*
X363182Y236825D01*
X364075Y235932D01*
X364075Y211925D01*
X364090Y211834D01*
X364097Y211744D01*
X364109Y211714D01*
X364114Y211682D01*
X364157Y211601D01*
X364193Y211517D01*
X364219Y211485D01*
X364230Y211464D01*
X364253Y211442D01*
X364298Y211386D01*
X464860Y110824D01*
X464934Y110771D01*
X465004Y110711D01*
X465034Y110699D01*
X465060Y110680D01*
X465147Y110653D01*
X465232Y110619D01*
X465273Y110615D01*
X465295Y110608D01*
X465327Y110609D01*
X465399Y110601D01*
X955756Y110601D01*
X955827Y110612D01*
X955898Y110614D01*
X955947Y110632D01*
X955999Y110640D01*
X956062Y110674D01*
X956129Y110699D01*
X956170Y110731D01*
X956216Y110756D01*
X956265Y110808D01*
X956321Y110852D01*
X956350Y110896D01*
X956385Y110934D01*
X956416Y110999D01*
X956454Y111059D01*
X956467Y111110D01*
X956489Y111157D01*
X956497Y111228D01*
X956514Y111298D01*
X956510Y111350D01*
X956516Y111401D01*
X956501Y111472D01*
X956495Y111543D01*
X956475Y111591D01*
X956464Y111642D01*
X956427Y111703D01*
X956399Y111769D01*
X956354Y111825D01*
X956338Y111853D01*
X956320Y111868D01*
X956294Y111900D01*
X953906Y114289D01*
X952226Y118343D01*
X952165Y118443D01*
X952105Y118543D01*
X952100Y118547D01*
X952097Y118552D01*
X952007Y118627D01*
X951918Y118703D01*
X951912Y118705D01*
X951907Y118709D01*
X951799Y118751D01*
X951690Y118795D01*
X951682Y118796D01*
X951678Y118797D01*
X951659Y118798D01*
X951523Y118813D01*
X731703Y118813D01*
X641064Y209452D01*
X640990Y209505D01*
X640920Y209565D01*
X640890Y209577D01*
X640864Y209596D01*
X640777Y209623D01*
X640692Y209657D01*
X640651Y209661D01*
X640629Y209668D01*
X640597Y209667D01*
X640526Y209675D01*
X616518Y209675D01*
X615625Y210568D01*
X615625Y237232D01*
X616518Y238125D01*
X643182Y238125D01*
X644075Y237232D01*
X644075Y213224D01*
X644089Y213134D01*
X644097Y213043D01*
X644109Y213014D01*
X644114Y212982D01*
X644157Y212901D01*
X644193Y212817D01*
X644219Y212785D01*
X644230Y212764D01*
X644253Y212742D01*
X644298Y212686D01*
X733374Y123610D01*
X733448Y123557D01*
X733518Y123497D01*
X733548Y123485D01*
X733574Y123466D01*
X733661Y123439D01*
X733746Y123405D01*
X733787Y123401D01*
X733809Y123394D01*
X733841Y123395D01*
X733913Y123387D01*
X951523Y123387D01*
X951638Y123406D01*
X951754Y123423D01*
X951760Y123425D01*
X951766Y123426D01*
X951868Y123481D01*
X951973Y123534D01*
X951978Y123539D01*
X951983Y123542D01*
X952063Y123626D01*
X952146Y123710D01*
X952149Y123716D01*
X952153Y123720D01*
X952160Y123737D01*
X952226Y123857D01*
X953906Y127911D01*
X957289Y131294D01*
X961708Y133125D01*
X966492Y133125D01*
X970911Y131294D01*
X973300Y128906D01*
X973358Y128864D01*
X973410Y128815D01*
X973457Y128793D01*
X973499Y128762D01*
X973568Y128741D01*
X973633Y128711D01*
X973685Y128705D01*
X973735Y128690D01*
X973806Y128692D01*
X973877Y128684D01*
X973928Y128695D01*
X973980Y128696D01*
X974048Y128721D01*
X974118Y128736D01*
X974163Y128763D01*
X974211Y128781D01*
X974267Y128826D01*
X974329Y128862D01*
X974363Y128902D01*
X974403Y128934D01*
X974442Y128995D01*
X974489Y129049D01*
X974508Y129098D01*
X974536Y129141D01*
X974554Y129211D01*
X974581Y129277D01*
X974589Y129349D01*
X974597Y129380D01*
X974595Y129403D01*
X974599Y129444D01*
X974599Y197833D01*
X976162Y199396D01*
X976228Y199462D01*
X976239Y199478D01*
X976255Y199490D01*
X976311Y199577D01*
X976371Y199661D01*
X976377Y199680D01*
X976388Y199697D01*
X976413Y199798D01*
X976444Y199896D01*
X976443Y199916D01*
X976448Y199936D01*
X976440Y200039D01*
X976437Y200142D01*
X976430Y200161D01*
X976429Y200181D01*
X976388Y200276D01*
X976353Y200373D01*
X976340Y200389D01*
X976333Y200407D01*
X976228Y200538D01*
X973924Y202842D01*
X973908Y202854D01*
X973895Y202869D01*
X973808Y202925D01*
X973724Y202986D01*
X973705Y202991D01*
X973689Y203002D01*
X973588Y203027D01*
X973489Y203058D01*
X973469Y203057D01*
X973450Y203062D01*
X973347Y203054D01*
X973243Y203052D01*
X973225Y203045D01*
X973205Y203043D01*
X973110Y203003D01*
X973012Y202967D01*
X972997Y202955D01*
X972978Y202947D01*
X972848Y202842D01*
X970911Y200906D01*
X966492Y199075D01*
X961708Y199075D01*
X957289Y200906D01*
X953906Y204289D01*
X952075Y208708D01*
X952075Y213492D01*
X953906Y217911D01*
X957289Y221294D01*
X961708Y223125D01*
X966492Y223125D01*
X970911Y221294D01*
X974294Y217911D01*
X976125Y213492D01*
X976125Y208708D01*
X975851Y208047D01*
X975824Y207934D01*
X975796Y207820D01*
X975796Y207814D01*
X975795Y207808D01*
X975806Y207691D01*
X975815Y207575D01*
X975817Y207569D01*
X975818Y207563D01*
X975866Y207456D01*
X975911Y207349D01*
X975916Y207343D01*
X975918Y207338D01*
X975931Y207325D01*
X976016Y207218D01*
X982287Y200947D01*
X982287Y199053D01*
X979396Y196162D01*
X979343Y196088D01*
X979283Y196018D01*
X979271Y195988D01*
X979252Y195962D01*
X979225Y195875D01*
X979191Y195790D01*
X979187Y195749D01*
X979180Y195727D01*
X979181Y195695D01*
X979173Y195623D01*
X979173Y114857D01*
X970343Y106027D01*
X463189Y106027D01*
G37*
%LPD*%
%LPC*%
G36*
X562695Y64627D02*
X562695Y64627D01*
X549232Y78090D01*
X549158Y78143D01*
X549089Y78203D01*
X549059Y78215D01*
X549033Y78234D01*
X548946Y78261D01*
X548861Y78295D01*
X548820Y78299D01*
X548798Y78306D01*
X548765Y78305D01*
X548694Y78313D01*
X424808Y78313D01*
X424693Y78294D01*
X424577Y78277D01*
X424572Y78275D01*
X424565Y78274D01*
X424463Y78219D01*
X424358Y78166D01*
X424354Y78161D01*
X424348Y78158D01*
X424268Y78074D01*
X424186Y77990D01*
X424182Y77984D01*
X424179Y77980D01*
X424171Y77963D01*
X424105Y77843D01*
X421909Y72542D01*
X417908Y68541D01*
X412679Y66375D01*
X407021Y66375D01*
X401792Y68541D01*
X397791Y72542D01*
X395625Y77771D01*
X395625Y83429D01*
X397791Y88658D01*
X401133Y92000D01*
X401175Y92058D01*
X401224Y92110D01*
X401246Y92157D01*
X401276Y92199D01*
X401298Y92268D01*
X401328Y92333D01*
X401333Y92385D01*
X401349Y92435D01*
X401347Y92506D01*
X401355Y92577D01*
X401344Y92628D01*
X401342Y92680D01*
X401318Y92748D01*
X401303Y92818D01*
X401276Y92863D01*
X401258Y92911D01*
X401213Y92967D01*
X401176Y93029D01*
X401137Y93063D01*
X401104Y93103D01*
X401044Y93142D01*
X400990Y93189D01*
X400941Y93208D01*
X400897Y93236D01*
X400828Y93254D01*
X400761Y93281D01*
X400690Y93289D01*
X400659Y93297D01*
X400636Y93295D01*
X400595Y93299D01*
X306099Y93299D01*
X306008Y93285D01*
X305918Y93277D01*
X305888Y93265D01*
X305856Y93260D01*
X305775Y93217D01*
X305691Y93181D01*
X305659Y93155D01*
X305638Y93144D01*
X305616Y93121D01*
X305560Y93076D01*
X302044Y89560D01*
X301976Y89466D01*
X301906Y89371D01*
X301904Y89365D01*
X301900Y89360D01*
X301866Y89250D01*
X301830Y89138D01*
X301830Y89131D01*
X301828Y89125D01*
X301831Y89008D01*
X301832Y88892D01*
X301834Y88884D01*
X301834Y88879D01*
X301841Y88862D01*
X301879Y88730D01*
X304075Y83429D01*
X304075Y77771D01*
X301909Y72542D01*
X297908Y68541D01*
X292679Y66375D01*
X287021Y66375D01*
X281792Y68541D01*
X277791Y72542D01*
X275625Y77771D01*
X275625Y83429D01*
X277791Y88658D01*
X281792Y92659D01*
X287021Y94825D01*
X292679Y94825D01*
X297980Y92629D01*
X298094Y92602D01*
X298208Y92574D01*
X298214Y92574D01*
X298220Y92573D01*
X298337Y92584D01*
X298453Y92593D01*
X298459Y92595D01*
X298465Y92596D01*
X298572Y92644D01*
X298679Y92689D01*
X298685Y92694D01*
X298690Y92696D01*
X298703Y92709D01*
X298810Y92794D01*
X303889Y97873D01*
X540228Y97873D01*
X553691Y84410D01*
X553765Y84357D01*
X553835Y84297D01*
X553865Y84285D01*
X553891Y84266D01*
X553978Y84239D01*
X554063Y84205D01*
X554104Y84201D01*
X554126Y84194D01*
X554158Y84195D01*
X554230Y84187D01*
X554892Y84187D01*
X555007Y84206D01*
X555123Y84223D01*
X555128Y84225D01*
X555135Y84226D01*
X555237Y84281D01*
X555342Y84334D01*
X555346Y84339D01*
X555352Y84342D01*
X555432Y84426D01*
X555514Y84510D01*
X555518Y84516D01*
X555521Y84520D01*
X555529Y84537D01*
X555595Y84657D01*
X557791Y89958D01*
X561792Y93959D01*
X567021Y96125D01*
X572679Y96125D01*
X577908Y93959D01*
X581909Y89958D01*
X584075Y84729D01*
X584075Y79071D01*
X581909Y73842D01*
X578567Y70500D01*
X578525Y70442D01*
X578476Y70390D01*
X578454Y70343D01*
X578424Y70301D01*
X578402Y70232D01*
X578372Y70167D01*
X578367Y70115D01*
X578351Y70065D01*
X578353Y69994D01*
X578345Y69923D01*
X578356Y69872D01*
X578358Y69820D01*
X578382Y69752D01*
X578397Y69682D01*
X578424Y69637D01*
X578442Y69589D01*
X578487Y69533D01*
X578524Y69471D01*
X578563Y69437D01*
X578596Y69397D01*
X578656Y69358D01*
X578710Y69311D01*
X578759Y69292D01*
X578803Y69264D01*
X578872Y69246D01*
X578939Y69219D01*
X579010Y69211D01*
X579041Y69203D01*
X579064Y69205D01*
X579105Y69201D01*
X673601Y69201D01*
X673692Y69215D01*
X673782Y69223D01*
X673812Y69235D01*
X673844Y69240D01*
X673925Y69283D01*
X674009Y69319D01*
X674041Y69345D01*
X674062Y69356D01*
X674084Y69379D01*
X674140Y69424D01*
X677656Y72940D01*
X677724Y73034D01*
X677794Y73129D01*
X677796Y73135D01*
X677800Y73140D01*
X677834Y73250D01*
X677870Y73362D01*
X677870Y73369D01*
X677872Y73375D01*
X677869Y73492D01*
X677868Y73608D01*
X677866Y73616D01*
X677866Y73621D01*
X677859Y73638D01*
X677821Y73770D01*
X675625Y79071D01*
X675625Y84729D01*
X677791Y89958D01*
X681792Y93959D01*
X687021Y96125D01*
X692679Y96125D01*
X697908Y93959D01*
X701909Y89958D01*
X704075Y84729D01*
X704075Y79071D01*
X701909Y73842D01*
X697908Y69841D01*
X692679Y67675D01*
X687021Y67675D01*
X681720Y69871D01*
X681606Y69898D01*
X681492Y69926D01*
X681486Y69926D01*
X681480Y69927D01*
X681363Y69916D01*
X681247Y69907D01*
X681241Y69905D01*
X681235Y69904D01*
X681128Y69856D01*
X681021Y69811D01*
X681015Y69806D01*
X681010Y69804D01*
X680997Y69791D01*
X680890Y69706D01*
X675811Y64627D01*
X562695Y64627D01*
G37*
%LPD*%
%LPC*%
G36*
X342281Y297635D02*
X342281Y297635D01*
X338920Y299027D01*
X336347Y301600D01*
X334955Y304961D01*
X334955Y319995D01*
X334952Y320013D01*
X334954Y320030D01*
X334940Y320097D01*
X334933Y320176D01*
X334921Y320206D01*
X334916Y320238D01*
X334904Y320259D01*
X334902Y320270D01*
X334873Y320318D01*
X334873Y320319D01*
X334837Y320403D01*
X334811Y320435D01*
X334800Y320456D01*
X334779Y320476D01*
X334776Y320481D01*
X334771Y320485D01*
X334732Y320534D01*
X300213Y355053D01*
X300213Y546516D01*
X300194Y546631D01*
X300177Y546747D01*
X300175Y546752D01*
X300174Y546759D01*
X300119Y546861D01*
X300066Y546966D01*
X300061Y546970D01*
X300058Y546976D01*
X299974Y547056D01*
X299890Y547138D01*
X299884Y547142D01*
X299880Y547145D01*
X299863Y547153D01*
X299743Y547219D01*
X296897Y548398D01*
X296783Y548425D01*
X296670Y548453D01*
X296663Y548453D01*
X296657Y548454D01*
X296541Y548443D01*
X296424Y548434D01*
X296419Y548432D01*
X296412Y548431D01*
X296305Y548383D01*
X296198Y548338D01*
X296192Y548333D01*
X296188Y548331D01*
X296174Y548319D01*
X296067Y548233D01*
X269524Y521690D01*
X269471Y521616D01*
X269411Y521546D01*
X269399Y521516D01*
X269380Y521490D01*
X269353Y521403D01*
X269319Y521318D01*
X269315Y521277D01*
X269308Y521255D01*
X269309Y521223D01*
X269301Y521151D01*
X269301Y493839D01*
X267738Y492277D01*
X259534Y484072D01*
X259507Y484035D01*
X259473Y484004D01*
X259435Y483935D01*
X259390Y483872D01*
X259377Y483829D01*
X259354Y483788D01*
X259341Y483712D01*
X259318Y483637D01*
X259319Y483591D01*
X259311Y483546D01*
X259322Y483469D01*
X259324Y483391D01*
X259340Y483348D01*
X259347Y483303D01*
X259382Y483234D01*
X259409Y483160D01*
X259437Y483125D01*
X259458Y483084D01*
X259514Y483029D01*
X259562Y482968D01*
X259601Y482944D01*
X259634Y482911D01*
X259754Y482845D01*
X259769Y482835D01*
X259774Y482834D01*
X259781Y482831D01*
X262068Y481883D01*
X264783Y479168D01*
X266253Y475620D01*
X266253Y471780D01*
X264783Y468232D01*
X262068Y465517D01*
X258520Y464047D01*
X254680Y464047D01*
X251132Y465517D01*
X248417Y468232D01*
X246947Y471780D01*
X246947Y475620D01*
X248417Y479168D01*
X251132Y481883D01*
X253843Y483006D01*
X253943Y483068D01*
X254043Y483128D01*
X254047Y483132D01*
X254052Y483136D01*
X254127Y483226D01*
X254203Y483315D01*
X254205Y483320D01*
X254209Y483325D01*
X254251Y483434D01*
X254295Y483543D01*
X254296Y483550D01*
X254297Y483555D01*
X254298Y483573D01*
X254313Y483709D01*
X254313Y485320D01*
X255876Y486882D01*
X257141Y488148D01*
X257183Y488206D01*
X257233Y488258D01*
X257255Y488305D01*
X257285Y488347D01*
X257306Y488416D01*
X257336Y488481D01*
X257342Y488533D01*
X257357Y488583D01*
X257355Y488654D01*
X257363Y488725D01*
X257352Y488776D01*
X257351Y488828D01*
X257326Y488896D01*
X257311Y488966D01*
X257284Y489010D01*
X257267Y489059D01*
X257222Y489115D01*
X257185Y489177D01*
X257145Y489211D01*
X257113Y489251D01*
X257053Y489290D01*
X256998Y489337D01*
X256950Y489356D01*
X256906Y489384D01*
X256836Y489402D01*
X256770Y489429D01*
X256699Y489437D01*
X256667Y489445D01*
X256644Y489443D01*
X256603Y489447D01*
X254680Y489447D01*
X251132Y490917D01*
X248417Y493632D01*
X246947Y497180D01*
X246947Y501020D01*
X248417Y504568D01*
X251132Y507283D01*
X254680Y508753D01*
X258520Y508753D01*
X262068Y507283D01*
X263428Y505923D01*
X263486Y505881D01*
X263538Y505832D01*
X263585Y505810D01*
X263627Y505780D01*
X263696Y505759D01*
X263761Y505728D01*
X263813Y505723D01*
X263863Y505707D01*
X263934Y505709D01*
X264005Y505701D01*
X264056Y505712D01*
X264108Y505714D01*
X264176Y505738D01*
X264246Y505754D01*
X264291Y505780D01*
X264339Y505798D01*
X264395Y505843D01*
X264457Y505880D01*
X264491Y505919D01*
X264531Y505952D01*
X264570Y506012D01*
X264617Y506067D01*
X264636Y506115D01*
X264664Y506159D01*
X264682Y506228D01*
X264709Y506295D01*
X264717Y506366D01*
X264725Y506397D01*
X264723Y506421D01*
X264727Y506462D01*
X264727Y517138D01*
X264716Y517209D01*
X264714Y517281D01*
X264696Y517330D01*
X264688Y517381D01*
X264654Y517445D01*
X264629Y517512D01*
X264597Y517553D01*
X264572Y517599D01*
X264520Y517648D01*
X264476Y517704D01*
X264432Y517732D01*
X264394Y517768D01*
X264329Y517798D01*
X264269Y517837D01*
X264218Y517850D01*
X264171Y517872D01*
X264100Y517879D01*
X264030Y517897D01*
X263978Y517893D01*
X263927Y517899D01*
X263856Y517883D01*
X263785Y517878D01*
X263737Y517858D01*
X263686Y517846D01*
X263625Y517810D01*
X263559Y517782D01*
X263503Y517737D01*
X263475Y517720D01*
X263460Y517702D01*
X263428Y517677D01*
X262068Y516317D01*
X258520Y514847D01*
X254680Y514847D01*
X251132Y516317D01*
X248417Y519032D01*
X246947Y522580D01*
X246947Y526420D01*
X248417Y529968D01*
X251132Y532683D01*
X254680Y534153D01*
X258520Y534153D01*
X262068Y532683D01*
X264783Y529968D01*
X266266Y526388D01*
X266290Y526349D01*
X266306Y526306D01*
X266354Y526245D01*
X266395Y526179D01*
X266431Y526150D01*
X266460Y526114D01*
X266525Y526072D01*
X266585Y526022D01*
X266628Y526006D01*
X266666Y525981D01*
X266742Y525962D01*
X266815Y525934D01*
X266860Y525932D01*
X266905Y525921D01*
X266982Y525927D01*
X267060Y525924D01*
X267104Y525937D01*
X267150Y525940D01*
X267222Y525971D01*
X267297Y525992D01*
X267334Y526019D01*
X267376Y526037D01*
X267483Y526122D01*
X267499Y526133D01*
X267502Y526137D01*
X267507Y526141D01*
X292833Y551467D01*
X292901Y551561D01*
X292971Y551656D01*
X292973Y551662D01*
X292977Y551667D01*
X293011Y551778D01*
X293047Y551890D01*
X293047Y551896D01*
X293049Y551902D01*
X293046Y552019D01*
X293045Y552136D01*
X293043Y552143D01*
X293043Y552148D01*
X293036Y552165D01*
X292998Y552297D01*
X291577Y555727D01*
X291577Y560073D01*
X293240Y564087D01*
X296313Y567160D01*
X300327Y568823D01*
X304673Y568823D01*
X308687Y567160D01*
X311760Y564087D01*
X313423Y560073D01*
X313423Y555727D01*
X311760Y551713D01*
X308687Y548640D01*
X305257Y547219D01*
X305157Y547158D01*
X305057Y547098D01*
X305053Y547093D01*
X305048Y547090D01*
X304973Y547000D01*
X304897Y546911D01*
X304895Y546905D01*
X304891Y546900D01*
X304849Y546792D01*
X304805Y546683D01*
X304804Y546675D01*
X304803Y546670D01*
X304802Y546652D01*
X304787Y546516D01*
X304787Y357263D01*
X304788Y357255D01*
X304788Y357252D01*
X304791Y357239D01*
X304801Y357172D01*
X304809Y357082D01*
X304821Y357052D01*
X304826Y357020D01*
X304869Y356939D01*
X304905Y356855D01*
X304931Y356823D01*
X304942Y356802D01*
X304965Y356780D01*
X305010Y356724D01*
X335011Y326723D01*
X335048Y326696D01*
X335079Y326663D01*
X335147Y326625D01*
X335210Y326580D01*
X335254Y326566D01*
X335295Y326544D01*
X335371Y326530D01*
X335445Y326507D01*
X335491Y326509D01*
X335537Y326500D01*
X335614Y326512D01*
X335691Y326514D01*
X335734Y326529D01*
X335780Y326536D01*
X335849Y326571D01*
X335922Y326598D01*
X335958Y326627D01*
X335999Y326648D01*
X336054Y326703D01*
X336114Y326752D01*
X336139Y326791D01*
X336171Y326823D01*
X336237Y326943D01*
X336247Y326959D01*
X336249Y326964D01*
X336252Y326970D01*
X336347Y327200D01*
X338920Y329773D01*
X342281Y331165D01*
X345919Y331165D01*
X349280Y329773D01*
X351853Y327200D01*
X353245Y323839D01*
X353245Y304961D01*
X351853Y301600D01*
X349280Y299027D01*
X345919Y297635D01*
X342281Y297635D01*
G37*
%LPD*%
G36*
X105631Y160606D02*
X105631Y160606D01*
X105747Y160623D01*
X105752Y160625D01*
X105759Y160626D01*
X105861Y160681D01*
X105966Y160734D01*
X105970Y160739D01*
X105976Y160742D01*
X106056Y160826D01*
X106138Y160910D01*
X106142Y160916D01*
X106145Y160920D01*
X106153Y160937D01*
X106219Y161057D01*
X107640Y164487D01*
X110713Y167560D01*
X114727Y169223D01*
X119073Y169223D01*
X122503Y167802D01*
X122617Y167775D01*
X122730Y167747D01*
X122737Y167747D01*
X122743Y167746D01*
X122859Y167757D01*
X122976Y167766D01*
X122981Y167768D01*
X122988Y167769D01*
X123095Y167817D01*
X123202Y167862D01*
X123208Y167867D01*
X123212Y167869D01*
X123226Y167881D01*
X123333Y167967D01*
X164269Y208903D01*
X185376Y208903D01*
X185446Y208914D01*
X185518Y208916D01*
X185567Y208934D01*
X185618Y208942D01*
X185682Y208976D01*
X185749Y209001D01*
X185790Y209033D01*
X185836Y209058D01*
X185885Y209109D01*
X185941Y209154D01*
X185969Y209198D01*
X186005Y209236D01*
X186035Y209301D01*
X186074Y209361D01*
X186087Y209412D01*
X186109Y209459D01*
X186117Y209530D01*
X186134Y209600D01*
X186130Y209652D01*
X186136Y209703D01*
X186121Y209774D01*
X186115Y209845D01*
X186095Y209893D01*
X186084Y209944D01*
X186047Y210005D01*
X186019Y210071D01*
X185974Y210127D01*
X185957Y210155D01*
X185940Y210170D01*
X185914Y210202D01*
X185594Y210522D01*
X184489Y212043D01*
X183636Y213717D01*
X183055Y215504D01*
X182854Y216777D01*
X193938Y216777D01*
X193958Y216780D01*
X193977Y216778D01*
X194079Y216800D01*
X194181Y216817D01*
X194198Y216826D01*
X194218Y216830D01*
X194307Y216883D01*
X194398Y216932D01*
X194412Y216946D01*
X194429Y216956D01*
X194496Y217035D01*
X194567Y217110D01*
X194576Y217128D01*
X194589Y217143D01*
X194627Y217239D01*
X194671Y217333D01*
X194673Y217353D01*
X194681Y217371D01*
X194699Y217538D01*
X194699Y219062D01*
X194696Y219082D01*
X194698Y219101D01*
X194676Y219203D01*
X194659Y219305D01*
X194650Y219322D01*
X194646Y219342D01*
X194593Y219431D01*
X194544Y219522D01*
X194530Y219536D01*
X194520Y219553D01*
X194441Y219620D01*
X194366Y219691D01*
X194348Y219700D01*
X194333Y219713D01*
X194237Y219752D01*
X194143Y219795D01*
X194123Y219797D01*
X194105Y219805D01*
X193938Y219823D01*
X183249Y219823D01*
X183159Y219808D01*
X183068Y219801D01*
X183038Y219789D01*
X183006Y219783D01*
X182925Y219741D01*
X182841Y219705D01*
X182809Y219679D01*
X182789Y219668D01*
X182766Y219645D01*
X182710Y219600D01*
X179124Y216013D01*
X129884Y216013D01*
X129769Y215994D01*
X129653Y215977D01*
X129648Y215975D01*
X129641Y215974D01*
X129539Y215919D01*
X129434Y215866D01*
X129430Y215861D01*
X129424Y215858D01*
X129344Y215774D01*
X129262Y215690D01*
X129258Y215684D01*
X129255Y215680D01*
X129247Y215663D01*
X129181Y215543D01*
X127760Y212113D01*
X124687Y209040D01*
X120673Y207377D01*
X116327Y207377D01*
X112313Y209040D01*
X109240Y212113D01*
X107819Y215543D01*
X107758Y215643D01*
X107698Y215743D01*
X107693Y215747D01*
X107690Y215752D01*
X107600Y215827D01*
X107511Y215903D01*
X107505Y215905D01*
X107500Y215909D01*
X107392Y215951D01*
X107283Y215995D01*
X107275Y215996D01*
X107270Y215997D01*
X107252Y215998D01*
X107116Y216013D01*
X87999Y216013D01*
X87908Y215999D01*
X87818Y215991D01*
X87788Y215979D01*
X87756Y215974D01*
X87675Y215931D01*
X87591Y215895D01*
X87559Y215869D01*
X87538Y215858D01*
X87516Y215835D01*
X87460Y215790D01*
X85295Y213625D01*
X82345Y212403D01*
X82284Y212365D01*
X82219Y212336D01*
X82180Y212301D01*
X82136Y212274D01*
X82090Y212218D01*
X82038Y212170D01*
X82012Y212124D01*
X81979Y212084D01*
X81954Y212017D01*
X81919Y211954D01*
X81910Y211903D01*
X81891Y211855D01*
X81888Y211783D01*
X81875Y211712D01*
X81883Y211661D01*
X81881Y211609D01*
X81901Y211540D01*
X81911Y211469D01*
X81935Y211423D01*
X81949Y211373D01*
X81990Y211314D01*
X82023Y211250D01*
X82060Y211213D01*
X82089Y211171D01*
X82147Y211128D01*
X82198Y211078D01*
X82261Y211043D01*
X82287Y211024D01*
X82309Y211017D01*
X82345Y210997D01*
X85295Y209775D01*
X87975Y207095D01*
X89425Y203595D01*
X89425Y199805D01*
X87975Y196305D01*
X85295Y193625D01*
X82657Y192532D01*
X82557Y192471D01*
X82457Y192411D01*
X82453Y192406D01*
X82448Y192403D01*
X82373Y192313D01*
X82297Y192224D01*
X82295Y192218D01*
X82291Y192213D01*
X82249Y192105D01*
X82205Y191996D01*
X82204Y191988D01*
X82203Y191984D01*
X82202Y191965D01*
X82187Y191829D01*
X82187Y171799D01*
X79412Y169024D01*
X79370Y168966D01*
X79320Y168914D01*
X79298Y168867D01*
X79268Y168825D01*
X79247Y168756D01*
X79217Y168691D01*
X79211Y168639D01*
X79196Y168589D01*
X79198Y168518D01*
X79190Y168447D01*
X79201Y168396D01*
X79202Y168344D01*
X79227Y168276D01*
X79242Y168206D01*
X79269Y168161D01*
X79286Y168113D01*
X79331Y168057D01*
X79368Y167995D01*
X79408Y167961D01*
X79440Y167921D01*
X79500Y167882D01*
X79555Y167835D01*
X79603Y167816D01*
X79647Y167788D01*
X79717Y167770D01*
X79783Y167743D01*
X79854Y167735D01*
X79886Y167727D01*
X79909Y167729D01*
X79950Y167725D01*
X81795Y167725D01*
X85295Y166275D01*
X87975Y163595D01*
X89026Y161057D01*
X89088Y160957D01*
X89148Y160857D01*
X89152Y160853D01*
X89156Y160848D01*
X89246Y160773D01*
X89335Y160697D01*
X89340Y160695D01*
X89345Y160691D01*
X89454Y160649D01*
X89563Y160605D01*
X89570Y160604D01*
X89575Y160603D01*
X89593Y160602D01*
X89730Y160587D01*
X105516Y160587D01*
X105631Y160606D01*
G37*
%LPC*%
G36*
X32627Y444877D02*
X32627Y444877D01*
X28613Y446540D01*
X25540Y449613D01*
X23877Y453627D01*
X23877Y457973D01*
X25540Y461987D01*
X28613Y465060D01*
X32627Y466723D01*
X36973Y466723D01*
X40403Y465302D01*
X40517Y465275D01*
X40630Y465247D01*
X40637Y465247D01*
X40643Y465246D01*
X40759Y465257D01*
X40876Y465266D01*
X40881Y465268D01*
X40888Y465269D01*
X40995Y465317D01*
X41102Y465362D01*
X41108Y465367D01*
X41112Y465369D01*
X41126Y465381D01*
X41233Y465467D01*
X100374Y524608D01*
X100386Y524624D01*
X100401Y524637D01*
X100458Y524724D01*
X100518Y524808D01*
X100524Y524827D01*
X100534Y524844D01*
X100560Y524944D01*
X100590Y525043D01*
X100590Y525063D01*
X100594Y525082D01*
X100586Y525185D01*
X100584Y525289D01*
X100577Y525308D01*
X100575Y525327D01*
X100535Y525422D01*
X100499Y525520D01*
X100487Y525535D01*
X100479Y525554D01*
X100374Y525685D01*
X99424Y526635D01*
X91317Y534742D01*
X91280Y534769D01*
X91248Y534803D01*
X91180Y534840D01*
X91117Y534886D01*
X91073Y534899D01*
X91033Y534921D01*
X90956Y534935D01*
X90882Y534958D01*
X90836Y534957D01*
X90791Y534965D01*
X90714Y534954D01*
X90636Y534952D01*
X90593Y534936D01*
X90548Y534929D01*
X90478Y534894D01*
X90405Y534867D01*
X90369Y534838D01*
X90328Y534818D01*
X90274Y534762D01*
X90213Y534713D01*
X90188Y534675D01*
X90156Y534642D01*
X90090Y534522D01*
X90080Y534507D01*
X90079Y534502D01*
X90075Y534495D01*
X89191Y532360D01*
X86440Y529609D01*
X82845Y528120D01*
X78955Y528120D01*
X75360Y529609D01*
X72609Y532360D01*
X71120Y535955D01*
X71120Y539845D01*
X72273Y542628D01*
X72300Y542742D01*
X72328Y542856D01*
X72328Y542862D01*
X72329Y542868D01*
X72318Y542984D01*
X72309Y543101D01*
X72307Y543106D01*
X72306Y543113D01*
X72258Y543220D01*
X72213Y543327D01*
X72208Y543333D01*
X72206Y543337D01*
X72193Y543351D01*
X72108Y543458D01*
X55387Y560179D01*
X55370Y560191D01*
X55358Y560207D01*
X55271Y560263D01*
X55187Y560323D01*
X55168Y560329D01*
X55151Y560340D01*
X55051Y560365D01*
X54952Y560395D01*
X54932Y560395D01*
X54913Y560400D01*
X54810Y560392D01*
X54706Y560389D01*
X54687Y560382D01*
X54667Y560381D01*
X54572Y560340D01*
X54475Y560305D01*
X54459Y560292D01*
X54441Y560284D01*
X54310Y560179D01*
X52740Y558609D01*
X49145Y557120D01*
X45255Y557120D01*
X41660Y558609D01*
X38909Y561360D01*
X37420Y564955D01*
X37420Y568845D01*
X38909Y572440D01*
X41660Y575191D01*
X45255Y576680D01*
X49145Y576680D01*
X52740Y575191D01*
X55491Y572440D01*
X56980Y568845D01*
X56980Y565370D01*
X56994Y565279D01*
X57002Y565189D01*
X57014Y565159D01*
X57019Y565127D01*
X57062Y565046D01*
X57098Y564962D01*
X57124Y564930D01*
X57135Y564909D01*
X57158Y564887D01*
X57203Y564831D01*
X75342Y546692D01*
X75437Y546624D01*
X75531Y546554D01*
X75537Y546552D01*
X75542Y546548D01*
X75653Y546514D01*
X75765Y546478D01*
X75771Y546478D01*
X75777Y546476D01*
X75894Y546479D01*
X76010Y546480D01*
X76018Y546482D01*
X76023Y546482D01*
X76040Y546489D01*
X76172Y546527D01*
X78955Y547680D01*
X82845Y547680D01*
X86440Y546191D01*
X89191Y543440D01*
X90344Y540657D01*
X90405Y540557D01*
X90465Y540457D01*
X90470Y540453D01*
X90473Y540448D01*
X90563Y540373D01*
X90652Y540297D01*
X90658Y540295D01*
X90663Y540291D01*
X90771Y540249D01*
X90880Y540205D01*
X90888Y540204D01*
X90892Y540203D01*
X90911Y540202D01*
X91047Y540187D01*
X92340Y540187D01*
X94212Y538315D01*
X94221Y538308D01*
X94229Y538298D01*
X94321Y538236D01*
X94411Y538171D01*
X94423Y538168D01*
X94433Y538161D01*
X94540Y538132D01*
X94646Y538099D01*
X94659Y538099D01*
X94670Y538096D01*
X94781Y538103D01*
X94892Y538105D01*
X94904Y538110D01*
X94916Y538110D01*
X95018Y538151D01*
X95123Y538190D01*
X95133Y538197D01*
X95144Y538202D01*
X95228Y538274D01*
X95315Y538344D01*
X95322Y538354D01*
X95331Y538361D01*
X95388Y538457D01*
X95448Y538551D01*
X95451Y538562D01*
X95457Y538572D01*
X95502Y538734D01*
X95770Y540428D01*
X96295Y542044D01*
X97067Y543558D01*
X98066Y544933D01*
X99267Y546134D01*
X100642Y547133D01*
X102156Y547905D01*
X103772Y548430D01*
X104777Y548589D01*
X104777Y538662D01*
X104780Y538642D01*
X104778Y538623D01*
X104800Y538521D01*
X104817Y538419D01*
X104826Y538402D01*
X104830Y538382D01*
X104883Y538293D01*
X104932Y538202D01*
X104946Y538188D01*
X104956Y538171D01*
X105035Y538104D01*
X105110Y538033D01*
X105128Y538024D01*
X105143Y538011D01*
X105239Y537973D01*
X105333Y537929D01*
X105353Y537927D01*
X105371Y537919D01*
X105538Y537901D01*
X106301Y537901D01*
X106301Y537138D01*
X106304Y537118D01*
X106302Y537099D01*
X106324Y536997D01*
X106341Y536895D01*
X106350Y536878D01*
X106354Y536858D01*
X106407Y536769D01*
X106456Y536678D01*
X106470Y536664D01*
X106480Y536647D01*
X106559Y536580D01*
X106634Y536509D01*
X106652Y536500D01*
X106667Y536487D01*
X106763Y536448D01*
X106857Y536405D01*
X106877Y536403D01*
X106895Y536395D01*
X107062Y536377D01*
X116989Y536377D01*
X116830Y535372D01*
X116305Y533756D01*
X115533Y532242D01*
X114525Y530854D01*
X114520Y530844D01*
X114512Y530835D01*
X114465Y530735D01*
X114415Y530635D01*
X114413Y530623D01*
X114408Y530612D01*
X114396Y530502D01*
X114380Y530391D01*
X114382Y530379D01*
X114381Y530368D01*
X114405Y530259D01*
X114425Y530149D01*
X114431Y530139D01*
X114433Y530127D01*
X114490Y530031D01*
X114544Y529934D01*
X114553Y529926D01*
X114559Y529916D01*
X114644Y529844D01*
X114726Y529769D01*
X114737Y529764D01*
X114746Y529756D01*
X114850Y529714D01*
X114951Y529670D01*
X114963Y529669D01*
X114974Y529664D01*
X115141Y529646D01*
X156596Y529646D01*
X156687Y529660D01*
X156777Y529668D01*
X156807Y529680D01*
X156839Y529685D01*
X156920Y529728D01*
X157004Y529764D01*
X157036Y529790D01*
X157057Y529801D01*
X157079Y529824D01*
X157135Y529869D01*
X171705Y544439D01*
X171773Y544533D01*
X171843Y544628D01*
X171845Y544634D01*
X171849Y544639D01*
X171883Y544749D01*
X171919Y544862D01*
X171919Y544868D01*
X171921Y544874D01*
X171918Y544991D01*
X171917Y545108D01*
X171915Y545115D01*
X171915Y545120D01*
X171908Y545137D01*
X171870Y545269D01*
X170747Y547980D01*
X170747Y551820D01*
X172217Y555368D01*
X174932Y558083D01*
X178480Y559553D01*
X182320Y559553D01*
X185868Y558083D01*
X188583Y555368D01*
X190053Y551820D01*
X190053Y547980D01*
X188583Y544432D01*
X185868Y541717D01*
X182320Y540247D01*
X178480Y540247D01*
X175769Y541370D01*
X175655Y541397D01*
X175542Y541426D01*
X175535Y541425D01*
X175529Y541426D01*
X175413Y541415D01*
X175296Y541406D01*
X175291Y541404D01*
X175284Y541403D01*
X175177Y541356D01*
X175070Y541310D01*
X175064Y541305D01*
X175060Y541303D01*
X175046Y541291D01*
X174939Y541205D01*
X161820Y528086D01*
X161778Y528028D01*
X161729Y527976D01*
X161707Y527929D01*
X161677Y527887D01*
X161656Y527818D01*
X161625Y527753D01*
X161620Y527701D01*
X161604Y527651D01*
X161606Y527580D01*
X161598Y527509D01*
X161609Y527458D01*
X161611Y527406D01*
X161635Y527338D01*
X161650Y527268D01*
X161677Y527224D01*
X161695Y527175D01*
X161740Y527119D01*
X161777Y527057D01*
X161816Y527023D01*
X161849Y526983D01*
X161909Y526944D01*
X161964Y526897D01*
X162012Y526878D01*
X162056Y526850D01*
X162125Y526832D01*
X162192Y526805D01*
X162263Y526797D01*
X162294Y526789D01*
X162318Y526791D01*
X162358Y526787D01*
X170391Y526787D01*
X170505Y526806D01*
X170621Y526823D01*
X170627Y526825D01*
X170633Y526826D01*
X170736Y526881D01*
X170841Y526934D01*
X170845Y526939D01*
X170851Y526942D01*
X170930Y527026D01*
X171013Y527110D01*
X171017Y527116D01*
X171020Y527120D01*
X171028Y527137D01*
X171094Y527257D01*
X172217Y529968D01*
X174932Y532683D01*
X178480Y534153D01*
X182320Y534153D01*
X185868Y532683D01*
X188583Y529968D01*
X190053Y526420D01*
X190053Y522580D01*
X188583Y519032D01*
X185868Y516317D01*
X182320Y514847D01*
X178480Y514847D01*
X174932Y516317D01*
X172217Y519032D01*
X171094Y521743D01*
X171032Y521843D01*
X170972Y521943D01*
X170968Y521947D01*
X170964Y521952D01*
X170874Y522027D01*
X170785Y522103D01*
X170780Y522105D01*
X170775Y522109D01*
X170666Y522151D01*
X170557Y522195D01*
X170550Y522196D01*
X170545Y522197D01*
X170527Y522198D01*
X170391Y522213D01*
X160573Y522213D01*
X160483Y522199D01*
X160392Y522191D01*
X160362Y522179D01*
X160330Y522174D01*
X160250Y522131D01*
X160166Y522095D01*
X160134Y522069D01*
X160113Y522058D01*
X160091Y522035D01*
X160077Y522024D01*
X104573Y522024D01*
X104483Y522010D01*
X104392Y522002D01*
X104363Y521990D01*
X104331Y521985D01*
X104250Y521942D01*
X104166Y521906D01*
X104134Y521880D01*
X104113Y521869D01*
X104091Y521846D01*
X104035Y521801D01*
X44467Y462233D01*
X44399Y462139D01*
X44329Y462044D01*
X44327Y462038D01*
X44323Y462033D01*
X44289Y461922D01*
X44253Y461810D01*
X44253Y461804D01*
X44251Y461798D01*
X44254Y461681D01*
X44255Y461564D01*
X44257Y461557D01*
X44257Y461552D01*
X44264Y461535D01*
X44302Y461403D01*
X45723Y457973D01*
X45723Y453627D01*
X44060Y449613D01*
X40987Y446540D01*
X36973Y444877D01*
X32627Y444877D01*
G37*
%LPD*%
%LPC*%
G36*
X516688Y834839D02*
X516688Y834839D01*
X510288Y836554D01*
X504551Y839866D01*
X499866Y844551D01*
X496554Y850288D01*
X494839Y856688D01*
X494839Y863312D01*
X496554Y869712D01*
X499866Y875449D01*
X504551Y880134D01*
X510288Y883446D01*
X516688Y885161D01*
X523312Y885161D01*
X529712Y883446D01*
X535449Y880134D01*
X540134Y875449D01*
X543446Y869712D01*
X545161Y863312D01*
X545161Y856688D01*
X543446Y850288D01*
X540134Y844551D01*
X535449Y839866D01*
X529712Y836554D01*
X523312Y834839D01*
X516688Y834839D01*
G37*
%LPD*%
%LPC*%
G36*
X976688Y814839D02*
X976688Y814839D01*
X970288Y816554D01*
X964551Y819866D01*
X959866Y824551D01*
X956554Y830288D01*
X954839Y836688D01*
X954839Y843312D01*
X956554Y849712D01*
X959866Y855449D01*
X964551Y860134D01*
X970288Y863446D01*
X976688Y865161D01*
X983312Y865161D01*
X989712Y863446D01*
X995449Y860134D01*
X1000134Y855449D01*
X1003446Y849712D01*
X1005161Y843312D01*
X1005161Y836688D01*
X1003446Y830288D01*
X1000134Y824551D01*
X995449Y819866D01*
X989712Y816554D01*
X983312Y814839D01*
X976688Y814839D01*
G37*
%LPD*%
%LPC*%
G36*
X816688Y254839D02*
X816688Y254839D01*
X810288Y256554D01*
X804551Y259866D01*
X799866Y264551D01*
X796554Y270288D01*
X794839Y276688D01*
X794839Y283312D01*
X796554Y289712D01*
X799866Y295449D01*
X804551Y300134D01*
X810288Y303446D01*
X816688Y305161D01*
X823312Y305161D01*
X829712Y303446D01*
X835449Y300134D01*
X840134Y295449D01*
X843446Y289712D01*
X845161Y283312D01*
X845161Y276688D01*
X843446Y270288D01*
X840134Y264551D01*
X835449Y259866D01*
X829712Y256554D01*
X823312Y254839D01*
X816688Y254839D01*
G37*
%LPD*%
%LPC*%
G36*
X536688Y434839D02*
X536688Y434839D01*
X530288Y436554D01*
X524551Y439866D01*
X519866Y444551D01*
X516554Y450288D01*
X514839Y456688D01*
X514839Y463312D01*
X516554Y469712D01*
X519866Y475449D01*
X524551Y480134D01*
X530288Y483446D01*
X536688Y485161D01*
X543312Y485161D01*
X549712Y483446D01*
X555449Y480134D01*
X560134Y475449D01*
X563446Y469712D01*
X565161Y463312D01*
X565161Y456688D01*
X563446Y450288D01*
X560134Y444551D01*
X555449Y439866D01*
X549712Y436554D01*
X543312Y434839D01*
X536688Y434839D01*
G37*
%LPD*%
%LPC*%
G36*
X136688Y334839D02*
X136688Y334839D01*
X130288Y336554D01*
X124551Y339866D01*
X119866Y344551D01*
X116554Y350288D01*
X114839Y356688D01*
X114839Y363312D01*
X116554Y369712D01*
X119866Y375449D01*
X124551Y380134D01*
X130288Y383446D01*
X136688Y385161D01*
X143312Y385161D01*
X149712Y383446D01*
X155449Y380134D01*
X160134Y375449D01*
X163446Y369712D01*
X165161Y363312D01*
X165161Y356688D01*
X163446Y350288D01*
X160134Y344551D01*
X155449Y339866D01*
X149712Y336554D01*
X143312Y334839D01*
X136688Y334839D01*
G37*
%LPD*%
%LPC*%
G36*
X178480Y565647D02*
X178480Y565647D01*
X174932Y567117D01*
X172217Y569832D01*
X171094Y572543D01*
X171032Y572643D01*
X170972Y572743D01*
X170968Y572747D01*
X170964Y572752D01*
X170874Y572827D01*
X170785Y572903D01*
X170780Y572905D01*
X170775Y572909D01*
X170666Y572951D01*
X170557Y572995D01*
X170550Y572996D01*
X170545Y572997D01*
X170527Y572998D01*
X170391Y573013D01*
X148753Y573013D01*
X147190Y574576D01*
X108458Y613308D01*
X108363Y613376D01*
X108269Y613446D01*
X108263Y613448D01*
X108258Y613452D01*
X108147Y613486D01*
X108035Y613522D01*
X108029Y613522D01*
X108023Y613524D01*
X107906Y613521D01*
X107790Y613520D01*
X107782Y613518D01*
X107777Y613518D01*
X107760Y613511D01*
X107628Y613473D01*
X104845Y612320D01*
X100955Y612320D01*
X97360Y613809D01*
X95979Y615190D01*
X95905Y615243D01*
X95836Y615303D01*
X95806Y615315D01*
X95779Y615334D01*
X95692Y615361D01*
X95608Y615395D01*
X95567Y615399D01*
X95544Y615406D01*
X95512Y615405D01*
X95441Y615413D01*
X57347Y615413D01*
X57232Y615394D01*
X57116Y615377D01*
X57110Y615375D01*
X57104Y615374D01*
X57002Y615319D01*
X56897Y615266D01*
X56892Y615261D01*
X56887Y615258D01*
X56807Y615174D01*
X56725Y615090D01*
X56721Y615084D01*
X56717Y615080D01*
X56710Y615063D01*
X56644Y614943D01*
X55491Y612160D01*
X52740Y609409D01*
X49145Y607920D01*
X45255Y607920D01*
X41660Y609409D01*
X38909Y612160D01*
X37420Y615755D01*
X37420Y619645D01*
X38909Y623240D01*
X41660Y625991D01*
X45255Y627480D01*
X49145Y627480D01*
X52740Y625991D01*
X55491Y623240D01*
X56644Y620457D01*
X56705Y620357D01*
X56765Y620257D01*
X56770Y620253D01*
X56773Y620248D01*
X56863Y620173D01*
X56952Y620097D01*
X56958Y620095D01*
X56963Y620091D01*
X57071Y620049D01*
X57180Y620005D01*
X57188Y620004D01*
X57192Y620003D01*
X57211Y620002D01*
X57347Y619987D01*
X92359Y619987D01*
X92379Y619990D01*
X92398Y619988D01*
X92500Y620010D01*
X92602Y620026D01*
X92619Y620036D01*
X92639Y620040D01*
X92728Y620093D01*
X92819Y620142D01*
X92833Y620156D01*
X92850Y620166D01*
X92917Y620245D01*
X92989Y620320D01*
X92997Y620338D01*
X93010Y620353D01*
X93049Y620449D01*
X93092Y620543D01*
X93094Y620563D01*
X93102Y620581D01*
X93120Y620748D01*
X93120Y624045D01*
X94609Y627640D01*
X97360Y630391D01*
X100955Y631880D01*
X104845Y631880D01*
X108440Y630391D01*
X111191Y627640D01*
X112680Y624045D01*
X112680Y620155D01*
X111527Y617372D01*
X111500Y617258D01*
X111472Y617144D01*
X111472Y617138D01*
X111471Y617132D01*
X111482Y617016D01*
X111491Y616899D01*
X111493Y616894D01*
X111494Y616887D01*
X111542Y616780D01*
X111587Y616673D01*
X111592Y616667D01*
X111594Y616663D01*
X111607Y616649D01*
X111692Y616542D01*
X150424Y577810D01*
X150498Y577757D01*
X150568Y577697D01*
X150598Y577685D01*
X150624Y577666D01*
X150711Y577639D01*
X150796Y577605D01*
X150837Y577601D01*
X150859Y577594D01*
X150891Y577595D01*
X150963Y577587D01*
X170391Y577587D01*
X170505Y577606D01*
X170621Y577623D01*
X170627Y577625D01*
X170633Y577626D01*
X170736Y577681D01*
X170841Y577734D01*
X170845Y577739D01*
X170851Y577742D01*
X170930Y577826D01*
X171013Y577910D01*
X171017Y577916D01*
X171020Y577920D01*
X171028Y577937D01*
X171094Y578057D01*
X172217Y580768D01*
X174932Y583483D01*
X178480Y584953D01*
X182320Y584953D01*
X185868Y583483D01*
X188583Y580768D01*
X190053Y577220D01*
X190053Y573380D01*
X188583Y569832D01*
X185868Y567117D01*
X182320Y565647D01*
X178480Y565647D01*
G37*
%LPD*%
%LPC*%
G36*
X32627Y419477D02*
X32627Y419477D01*
X28613Y421140D01*
X25540Y424213D01*
X23877Y428227D01*
X23877Y432573D01*
X25540Y436587D01*
X28613Y439660D01*
X32627Y441323D01*
X36973Y441323D01*
X40403Y439902D01*
X40517Y439875D01*
X40630Y439847D01*
X40637Y439847D01*
X40643Y439846D01*
X40759Y439857D01*
X40876Y439866D01*
X40881Y439868D01*
X40888Y439869D01*
X40995Y439916D01*
X41102Y439962D01*
X41108Y439967D01*
X41112Y439969D01*
X41126Y439981D01*
X41233Y440067D01*
X102553Y501387D01*
X170391Y501387D01*
X170505Y501406D01*
X170621Y501423D01*
X170627Y501425D01*
X170633Y501426D01*
X170736Y501481D01*
X170841Y501534D01*
X170845Y501539D01*
X170851Y501542D01*
X170930Y501626D01*
X171013Y501710D01*
X171017Y501716D01*
X171020Y501720D01*
X171028Y501737D01*
X171094Y501857D01*
X172217Y504568D01*
X174932Y507283D01*
X178480Y508753D01*
X182320Y508753D01*
X185868Y507283D01*
X188583Y504568D01*
X190053Y501020D01*
X190053Y497180D01*
X188583Y493632D01*
X185868Y490917D01*
X182320Y489447D01*
X178480Y489447D01*
X174932Y490917D01*
X172217Y493632D01*
X171094Y496343D01*
X171032Y496443D01*
X170972Y496543D01*
X170968Y496547D01*
X170964Y496552D01*
X170874Y496627D01*
X170785Y496703D01*
X170780Y496705D01*
X170775Y496709D01*
X170666Y496751D01*
X170557Y496795D01*
X170550Y496796D01*
X170545Y496797D01*
X170527Y496798D01*
X170391Y496813D01*
X104763Y496813D01*
X104672Y496799D01*
X104582Y496791D01*
X104552Y496779D01*
X104520Y496774D01*
X104439Y496731D01*
X104355Y496695D01*
X104323Y496669D01*
X104302Y496658D01*
X104280Y496635D01*
X104224Y496590D01*
X44467Y436833D01*
X44399Y436739D01*
X44329Y436644D01*
X44327Y436638D01*
X44323Y436633D01*
X44289Y436522D01*
X44253Y436410D01*
X44253Y436404D01*
X44251Y436398D01*
X44254Y436281D01*
X44255Y436164D01*
X44257Y436157D01*
X44257Y436152D01*
X44264Y436135D01*
X44302Y436003D01*
X45723Y432573D01*
X45723Y428227D01*
X44060Y424213D01*
X40987Y421140D01*
X36973Y419477D01*
X32627Y419477D01*
G37*
%LPD*%
%LPC*%
G36*
X43027Y724377D02*
X43027Y724377D01*
X39013Y726040D01*
X35940Y729113D01*
X34277Y733127D01*
X34277Y737473D01*
X35940Y741487D01*
X39013Y744560D01*
X43027Y746223D01*
X47373Y746223D01*
X51387Y744560D01*
X54460Y741487D01*
X55881Y738057D01*
X55942Y737957D01*
X56002Y737857D01*
X56007Y737853D01*
X56010Y737848D01*
X56100Y737773D01*
X56189Y737697D01*
X56195Y737695D01*
X56200Y737691D01*
X56308Y737649D01*
X56417Y737605D01*
X56425Y737604D01*
X56430Y737603D01*
X56448Y737602D01*
X56584Y737587D01*
X161337Y737587D01*
X161428Y737601D01*
X161518Y737609D01*
X161548Y737621D01*
X161580Y737626D01*
X161661Y737669D01*
X161745Y737705D01*
X161777Y737731D01*
X161798Y737742D01*
X161820Y737765D01*
X161876Y737810D01*
X171705Y747639D01*
X171773Y747734D01*
X171843Y747828D01*
X171845Y747834D01*
X171849Y747839D01*
X171883Y747949D01*
X171919Y748062D01*
X171919Y748068D01*
X171921Y748074D01*
X171918Y748191D01*
X171917Y748308D01*
X171915Y748315D01*
X171915Y748320D01*
X171908Y748337D01*
X171870Y748469D01*
X170747Y751180D01*
X170747Y755020D01*
X172217Y758568D01*
X174932Y761283D01*
X178480Y762753D01*
X182320Y762753D01*
X185868Y761283D01*
X188583Y758568D01*
X190053Y755020D01*
X190053Y751180D01*
X188583Y747632D01*
X185868Y744917D01*
X182320Y743447D01*
X178480Y743447D01*
X175769Y744570D01*
X175655Y744597D01*
X175542Y744626D01*
X175535Y744625D01*
X175529Y744626D01*
X175413Y744615D01*
X175296Y744606D01*
X175291Y744604D01*
X175284Y744603D01*
X175177Y744556D01*
X175070Y744510D01*
X175064Y744505D01*
X175060Y744503D01*
X175046Y744491D01*
X174939Y744405D01*
X165110Y734576D01*
X163547Y733013D01*
X56584Y733013D01*
X56469Y732994D01*
X56353Y732977D01*
X56348Y732975D01*
X56341Y732974D01*
X56239Y732919D01*
X56134Y732866D01*
X56130Y732861D01*
X56124Y732858D01*
X56044Y732774D01*
X55962Y732690D01*
X55958Y732684D01*
X55955Y732680D01*
X55947Y732663D01*
X55881Y732543D01*
X54460Y729113D01*
X51387Y726040D01*
X47373Y724377D01*
X43027Y724377D01*
G37*
%LPD*%
%LPC*%
G36*
X43027Y698977D02*
X43027Y698977D01*
X39013Y700640D01*
X35940Y703713D01*
X34277Y707727D01*
X34277Y712073D01*
X35940Y716087D01*
X39013Y719160D01*
X43027Y720823D01*
X47373Y720823D01*
X51387Y719160D01*
X54460Y716087D01*
X55881Y712657D01*
X55942Y712557D01*
X56002Y712457D01*
X56007Y712453D01*
X56010Y712448D01*
X56100Y712373D01*
X56189Y712297D01*
X56195Y712295D01*
X56200Y712291D01*
X56308Y712249D01*
X56417Y712205D01*
X56425Y712204D01*
X56430Y712203D01*
X56448Y712202D01*
X56584Y712187D01*
X161337Y712187D01*
X161428Y712201D01*
X161518Y712209D01*
X161548Y712221D01*
X161580Y712226D01*
X161661Y712269D01*
X161745Y712305D01*
X161777Y712331D01*
X161798Y712342D01*
X161820Y712365D01*
X161876Y712410D01*
X171705Y722239D01*
X171773Y722334D01*
X171843Y722428D01*
X171845Y722434D01*
X171849Y722439D01*
X171883Y722549D01*
X171919Y722662D01*
X171919Y722668D01*
X171921Y722674D01*
X171918Y722791D01*
X171917Y722908D01*
X171915Y722915D01*
X171915Y722920D01*
X171908Y722937D01*
X171870Y723069D01*
X170747Y725780D01*
X170747Y729620D01*
X172217Y733168D01*
X174932Y735883D01*
X178480Y737353D01*
X182320Y737353D01*
X185868Y735883D01*
X188583Y733168D01*
X190053Y729620D01*
X190053Y725780D01*
X188583Y722232D01*
X185868Y719517D01*
X182320Y718047D01*
X178480Y718047D01*
X175769Y719170D01*
X175655Y719197D01*
X175542Y719226D01*
X175535Y719225D01*
X175529Y719226D01*
X175413Y719215D01*
X175296Y719206D01*
X175291Y719204D01*
X175284Y719203D01*
X175177Y719156D01*
X175070Y719110D01*
X175064Y719105D01*
X175060Y719103D01*
X175046Y719091D01*
X174939Y719005D01*
X165110Y709176D01*
X163547Y707613D01*
X56584Y707613D01*
X56469Y707594D01*
X56353Y707577D01*
X56348Y707575D01*
X56341Y707574D01*
X56239Y707519D01*
X56134Y707466D01*
X56130Y707461D01*
X56124Y707458D01*
X56044Y707374D01*
X55962Y707290D01*
X55958Y707284D01*
X55955Y707280D01*
X55947Y707263D01*
X55881Y707143D01*
X54460Y703713D01*
X51387Y700640D01*
X47373Y698977D01*
X43027Y698977D01*
G37*
%LPD*%
%LPC*%
G36*
X795961Y180796D02*
X795961Y180796D01*
X791270Y182740D01*
X787679Y186330D01*
X785736Y191022D01*
X785736Y218578D01*
X787679Y223270D01*
X791270Y226860D01*
X795961Y228804D01*
X801039Y228804D01*
X805730Y226860D01*
X809321Y223270D01*
X811264Y218578D01*
X811264Y191022D01*
X809321Y186330D01*
X805730Y182740D01*
X801039Y180796D01*
X795961Y180796D01*
G37*
%LPD*%
%LPC*%
G36*
X795961Y28396D02*
X795961Y28396D01*
X791270Y30340D01*
X787679Y33930D01*
X785736Y38622D01*
X785736Y66178D01*
X787679Y70870D01*
X791270Y74460D01*
X795961Y76404D01*
X801039Y76404D01*
X805730Y74460D01*
X809321Y70870D01*
X811264Y66178D01*
X811264Y38622D01*
X809321Y33930D01*
X805730Y30340D01*
X801039Y28396D01*
X795961Y28396D01*
G37*
%LPD*%
%LPC*%
G36*
X682161Y408296D02*
X682161Y408296D01*
X677470Y410240D01*
X673879Y413830D01*
X671936Y418522D01*
X671936Y446078D01*
X673879Y450770D01*
X677470Y454360D01*
X682161Y456304D01*
X687239Y456304D01*
X691930Y454360D01*
X695521Y450770D01*
X697464Y446078D01*
X697464Y418522D01*
X695521Y413830D01*
X691930Y410240D01*
X687239Y408296D01*
X682161Y408296D01*
G37*
%LPD*%
%LPC*%
G36*
X407021Y188375D02*
X407021Y188375D01*
X401792Y190541D01*
X397791Y194542D01*
X395625Y199771D01*
X395625Y205429D01*
X397791Y210658D01*
X401792Y214659D01*
X407021Y216825D01*
X412679Y216825D01*
X417908Y214659D01*
X421909Y210658D01*
X424075Y205429D01*
X424075Y199771D01*
X421909Y194542D01*
X417908Y190541D01*
X412679Y188375D01*
X407021Y188375D01*
G37*
%LPD*%
%LPC*%
G36*
X687021Y189675D02*
X687021Y189675D01*
X681792Y191841D01*
X677791Y195842D01*
X675625Y201071D01*
X675625Y206729D01*
X677791Y211958D01*
X681792Y215959D01*
X687021Y218125D01*
X692679Y218125D01*
X697908Y215959D01*
X701909Y211958D01*
X704075Y206729D01*
X704075Y201071D01*
X701909Y195842D01*
X697908Y191841D01*
X692679Y189675D01*
X687021Y189675D01*
G37*
%LPD*%
%LPC*%
G36*
X814571Y451525D02*
X814571Y451525D01*
X809342Y453691D01*
X805341Y457692D01*
X803175Y462921D01*
X803175Y468579D01*
X805341Y473808D01*
X809342Y477809D01*
X814571Y479975D01*
X820229Y479975D01*
X825458Y477809D01*
X829459Y473808D01*
X831625Y468579D01*
X831625Y462921D01*
X829459Y457692D01*
X825458Y453691D01*
X820229Y451525D01*
X814571Y451525D01*
G37*
%LPD*%
%LPC*%
G36*
X367681Y297635D02*
X367681Y297635D01*
X364320Y299027D01*
X361747Y301600D01*
X360355Y304961D01*
X360355Y323839D01*
X361747Y327200D01*
X364320Y329773D01*
X367681Y331165D01*
X371319Y331165D01*
X374680Y329773D01*
X377253Y327200D01*
X378645Y323839D01*
X378645Y304961D01*
X377253Y301600D01*
X374680Y299027D01*
X371319Y297635D01*
X367681Y297635D01*
G37*
%LPD*%
%LPC*%
G36*
X500681Y297635D02*
X500681Y297635D01*
X497320Y299027D01*
X494747Y301600D01*
X493355Y304961D01*
X493355Y323839D01*
X494747Y327200D01*
X497320Y329773D01*
X500681Y331165D01*
X504319Y331165D01*
X507680Y329773D01*
X510253Y327200D01*
X511645Y323839D01*
X511645Y304961D01*
X510253Y301600D01*
X507680Y299027D01*
X504319Y297635D01*
X500681Y297635D01*
G37*
%LPD*%
%LPC*%
G36*
X254680Y540247D02*
X254680Y540247D01*
X251132Y541717D01*
X248417Y544432D01*
X246947Y547980D01*
X246947Y551820D01*
X248417Y555368D01*
X251132Y558083D01*
X254680Y559553D01*
X258520Y559553D01*
X262068Y558083D01*
X264783Y555368D01*
X266253Y551820D01*
X266253Y547980D01*
X264783Y544432D01*
X262068Y541717D01*
X258520Y540247D01*
X254680Y540247D01*
G37*
%LPD*%
%LPC*%
G36*
X254680Y718047D02*
X254680Y718047D01*
X251132Y719517D01*
X248417Y722232D01*
X246947Y725780D01*
X246947Y729620D01*
X248417Y733168D01*
X251132Y735883D01*
X254680Y737353D01*
X258520Y737353D01*
X262068Y735883D01*
X264783Y733168D01*
X266253Y729620D01*
X266253Y725780D01*
X264783Y722232D01*
X262068Y719517D01*
X258520Y718047D01*
X254680Y718047D01*
G37*
%LPD*%
%LPC*%
G36*
X254680Y641847D02*
X254680Y641847D01*
X251132Y643317D01*
X248417Y646032D01*
X246947Y649580D01*
X246947Y653420D01*
X248417Y656968D01*
X251132Y659683D01*
X254680Y661153D01*
X258520Y661153D01*
X262068Y659683D01*
X264783Y656968D01*
X266253Y653420D01*
X266253Y649580D01*
X264783Y646032D01*
X262068Y643317D01*
X258520Y641847D01*
X254680Y641847D01*
G37*
%LPD*%
%LPC*%
G36*
X254680Y438647D02*
X254680Y438647D01*
X251132Y440117D01*
X248417Y442832D01*
X246947Y446380D01*
X246947Y450220D01*
X248417Y453768D01*
X251132Y456483D01*
X254680Y457953D01*
X258520Y457953D01*
X262068Y456483D01*
X264783Y453768D01*
X266253Y450220D01*
X266253Y446380D01*
X264783Y442832D01*
X262068Y440117D01*
X258520Y438647D01*
X254680Y438647D01*
G37*
%LPD*%
%LPC*%
G36*
X254680Y692647D02*
X254680Y692647D01*
X251132Y694117D01*
X248417Y696832D01*
X246947Y700380D01*
X246947Y704220D01*
X248417Y707768D01*
X251132Y710483D01*
X254680Y711953D01*
X258520Y711953D01*
X262068Y710483D01*
X264783Y707768D01*
X266253Y704220D01*
X266253Y700380D01*
X264783Y696832D01*
X262068Y694117D01*
X258520Y692647D01*
X254680Y692647D01*
G37*
%LPD*%
%LPC*%
G36*
X254680Y667247D02*
X254680Y667247D01*
X251132Y668717D01*
X248417Y671432D01*
X246947Y674980D01*
X246947Y678820D01*
X248417Y682368D01*
X251132Y685083D01*
X254680Y686553D01*
X258520Y686553D01*
X262068Y685083D01*
X264783Y682368D01*
X266253Y678820D01*
X266253Y674980D01*
X264783Y671432D01*
X262068Y668717D01*
X258520Y667247D01*
X254680Y667247D01*
G37*
%LPD*%
%LPC*%
G36*
X254680Y565647D02*
X254680Y565647D01*
X251132Y567117D01*
X248417Y569832D01*
X246947Y573380D01*
X246947Y577220D01*
X248417Y580768D01*
X251132Y583483D01*
X254680Y584953D01*
X258520Y584953D01*
X262068Y583483D01*
X264783Y580768D01*
X266253Y577220D01*
X266253Y573380D01*
X264783Y569832D01*
X262068Y567117D01*
X258520Y565647D01*
X254680Y565647D01*
G37*
%LPD*%
%LPC*%
G36*
X254680Y743447D02*
X254680Y743447D01*
X251132Y744917D01*
X248417Y747632D01*
X246947Y751180D01*
X246947Y755020D01*
X248417Y758568D01*
X251132Y761283D01*
X254680Y762753D01*
X258520Y762753D01*
X262068Y761283D01*
X264783Y758568D01*
X266253Y755020D01*
X266253Y751180D01*
X264783Y747632D01*
X262068Y744917D01*
X258520Y743447D01*
X254680Y743447D01*
G37*
%LPD*%
%LPC*%
G36*
X254680Y768847D02*
X254680Y768847D01*
X251132Y770317D01*
X248417Y773032D01*
X246947Y776580D01*
X246947Y780420D01*
X248417Y783968D01*
X251132Y786683D01*
X254680Y788153D01*
X258520Y788153D01*
X262068Y786683D01*
X264783Y783968D01*
X266253Y780420D01*
X266253Y776580D01*
X264783Y773032D01*
X262068Y770317D01*
X258520Y768847D01*
X254680Y768847D01*
G37*
%LPD*%
G36*
X206241Y216792D02*
X206241Y216792D01*
X206332Y216799D01*
X206362Y216811D01*
X206394Y216817D01*
X206475Y216859D01*
X206559Y216895D01*
X206591Y216921D01*
X206611Y216932D01*
X206634Y216955D01*
X206689Y217000D01*
X217490Y227801D01*
X217543Y227874D01*
X217603Y227944D01*
X217615Y227974D01*
X217634Y228000D01*
X217661Y228087D01*
X217695Y228172D01*
X217699Y228213D01*
X217706Y228235D01*
X217705Y228268D01*
X217713Y228339D01*
X217713Y235690D01*
X217702Y235760D01*
X217700Y235832D01*
X217682Y235881D01*
X217674Y235932D01*
X217640Y235996D01*
X217615Y236063D01*
X217583Y236104D01*
X217558Y236150D01*
X217506Y236199D01*
X217462Y236255D01*
X217418Y236283D01*
X217380Y236319D01*
X217315Y236349D01*
X217255Y236388D01*
X217204Y236401D01*
X217157Y236423D01*
X217086Y236431D01*
X217016Y236448D01*
X216964Y236444D01*
X216913Y236450D01*
X216842Y236435D01*
X216771Y236429D01*
X216723Y236409D01*
X216672Y236398D01*
X216611Y236361D01*
X216545Y236333D01*
X216489Y236288D01*
X216461Y236271D01*
X216446Y236254D01*
X216414Y236228D01*
X209446Y229260D01*
X207883Y227697D01*
X204024Y227697D01*
X203954Y227686D01*
X203882Y227684D01*
X203833Y227666D01*
X203782Y227658D01*
X203718Y227624D01*
X203651Y227599D01*
X203610Y227567D01*
X203564Y227542D01*
X203515Y227491D01*
X203459Y227446D01*
X203431Y227402D01*
X203395Y227364D01*
X203365Y227299D01*
X203326Y227239D01*
X203313Y227188D01*
X203291Y227141D01*
X203283Y227070D01*
X203266Y227000D01*
X203270Y226948D01*
X203264Y226897D01*
X203279Y226826D01*
X203285Y226755D01*
X203305Y226707D01*
X203316Y226656D01*
X203353Y226595D01*
X203381Y226529D01*
X203426Y226473D01*
X203443Y226445D01*
X203460Y226430D01*
X203486Y226398D01*
X203806Y226078D01*
X204911Y224557D01*
X205764Y222883D01*
X206345Y221096D01*
X206546Y219823D01*
X195462Y219823D01*
X195442Y219820D01*
X195423Y219822D01*
X195321Y219800D01*
X195219Y219783D01*
X195202Y219774D01*
X195182Y219770D01*
X195093Y219717D01*
X195002Y219668D01*
X194988Y219654D01*
X194971Y219644D01*
X194904Y219565D01*
X194833Y219490D01*
X194824Y219472D01*
X194811Y219457D01*
X194773Y219361D01*
X194729Y219267D01*
X194727Y219247D01*
X194719Y219229D01*
X194701Y219062D01*
X194701Y217538D01*
X194704Y217518D01*
X194702Y217499D01*
X194724Y217397D01*
X194741Y217295D01*
X194750Y217278D01*
X194754Y217258D01*
X194807Y217169D01*
X194856Y217078D01*
X194870Y217064D01*
X194880Y217047D01*
X194959Y216980D01*
X195034Y216909D01*
X195052Y216900D01*
X195067Y216887D01*
X195163Y216848D01*
X195257Y216805D01*
X195277Y216803D01*
X195295Y216795D01*
X195462Y216777D01*
X206151Y216777D01*
X206241Y216792D01*
G37*
%LPC*%
G36*
X291373Y204123D02*
X291373Y204123D01*
X291373Y217789D01*
X293419Y217465D01*
X295700Y216724D01*
X297838Y215635D01*
X299779Y214225D01*
X301475Y212529D01*
X302885Y210588D01*
X303974Y208450D01*
X304715Y206169D01*
X305039Y204123D01*
X291373Y204123D01*
G37*
%LPD*%
%LPC*%
G36*
X818923Y347273D02*
X818923Y347273D01*
X818923Y360939D01*
X820969Y360615D01*
X823250Y359874D01*
X825388Y358785D01*
X827329Y357375D01*
X829025Y355679D01*
X830435Y353738D01*
X831524Y351600D01*
X832265Y349319D01*
X832589Y347273D01*
X818923Y347273D01*
G37*
%LPD*%
%LPC*%
G36*
X571373Y205423D02*
X571373Y205423D01*
X571373Y219089D01*
X573419Y218765D01*
X575700Y218024D01*
X577838Y216935D01*
X579779Y215525D01*
X581475Y213829D01*
X582885Y211888D01*
X583974Y209750D01*
X584715Y207469D01*
X585039Y205423D01*
X571373Y205423D01*
G37*
%LPD*%
%LPC*%
G36*
X291373Y201077D02*
X291373Y201077D01*
X305039Y201077D01*
X304715Y199031D01*
X303974Y196750D01*
X302885Y194612D01*
X301475Y192671D01*
X299779Y190975D01*
X297838Y189565D01*
X295700Y188476D01*
X293419Y187735D01*
X291373Y187411D01*
X291373Y201077D01*
G37*
%LPD*%
%LPC*%
G36*
X818923Y344227D02*
X818923Y344227D01*
X832589Y344227D01*
X832265Y342181D01*
X831524Y339900D01*
X830435Y337762D01*
X829025Y335821D01*
X827329Y334125D01*
X825388Y332715D01*
X823250Y331626D01*
X820969Y330885D01*
X818923Y330561D01*
X818923Y344227D01*
G37*
%LPD*%
%LPC*%
G36*
X571373Y202377D02*
X571373Y202377D01*
X585039Y202377D01*
X584715Y200331D01*
X583974Y198050D01*
X582885Y195912D01*
X581475Y193971D01*
X579779Y192275D01*
X577838Y190865D01*
X575700Y189776D01*
X573419Y189035D01*
X571373Y188711D01*
X571373Y202377D01*
G37*
%LPD*%
%LPC*%
G36*
X274661Y204123D02*
X274661Y204123D01*
X274985Y206169D01*
X275726Y208450D01*
X276815Y210588D01*
X278225Y212529D01*
X279921Y214225D01*
X281862Y215635D01*
X284000Y216724D01*
X286281Y217465D01*
X288327Y217789D01*
X288327Y204123D01*
X274661Y204123D01*
G37*
%LPD*%
%LPC*%
G36*
X817623Y564227D02*
X817623Y564227D01*
X831289Y564227D01*
X830965Y562181D01*
X830224Y559900D01*
X829135Y557762D01*
X827725Y555821D01*
X826029Y554125D01*
X824088Y552715D01*
X821950Y551626D01*
X819669Y550885D01*
X817623Y550561D01*
X817623Y564227D01*
G37*
%LPD*%
%LPC*%
G36*
X802211Y347273D02*
X802211Y347273D01*
X802535Y349319D01*
X803276Y351600D01*
X804365Y353738D01*
X805775Y355679D01*
X807471Y357375D01*
X809412Y358785D01*
X811550Y359874D01*
X813831Y360615D01*
X815877Y360939D01*
X815877Y347273D01*
X802211Y347273D01*
G37*
%LPD*%
%LPC*%
G36*
X554661Y205423D02*
X554661Y205423D01*
X554985Y207469D01*
X555726Y209750D01*
X556815Y211888D01*
X558225Y213829D01*
X559921Y215525D01*
X561862Y216935D01*
X564000Y218024D01*
X566281Y218765D01*
X568327Y219089D01*
X568327Y205423D01*
X554661Y205423D01*
G37*
%LPD*%
%LPC*%
G36*
X286281Y187735D02*
X286281Y187735D01*
X284000Y188476D01*
X281862Y189565D01*
X279921Y190975D01*
X278225Y192671D01*
X276815Y194612D01*
X275726Y196750D01*
X274985Y199031D01*
X274661Y201077D01*
X288327Y201077D01*
X288327Y187411D01*
X286281Y187735D01*
G37*
%LPD*%
%LPC*%
G36*
X566281Y189035D02*
X566281Y189035D01*
X564000Y189776D01*
X561862Y190865D01*
X559921Y192275D01*
X558225Y193971D01*
X556815Y195912D01*
X555726Y198050D01*
X554985Y200331D01*
X554661Y202377D01*
X568327Y202377D01*
X568327Y188711D01*
X566281Y189035D01*
G37*
%LPD*%
%LPC*%
G36*
X813831Y330885D02*
X813831Y330885D01*
X811550Y331626D01*
X809412Y332715D01*
X807471Y334125D01*
X805775Y335821D01*
X804365Y337762D01*
X803276Y339900D01*
X802535Y342181D01*
X802211Y344227D01*
X815877Y344227D01*
X815877Y330561D01*
X813831Y330885D01*
G37*
%LPD*%
%LPC*%
G36*
X812531Y550885D02*
X812531Y550885D01*
X810250Y551626D01*
X808112Y552715D01*
X806171Y554125D01*
X804475Y555821D01*
X803065Y557762D01*
X801976Y559900D01*
X801235Y562181D01*
X800911Y564227D01*
X814577Y564227D01*
X814577Y550561D01*
X812531Y550885D01*
G37*
%LPD*%
%LPC*%
G36*
X396423Y315923D02*
X396423Y315923D01*
X396423Y332066D01*
X397279Y331931D01*
X398800Y331436D01*
X400225Y330710D01*
X401519Y329770D01*
X402650Y328639D01*
X403590Y327345D01*
X404316Y325920D01*
X404811Y324399D01*
X405061Y322820D01*
X405061Y315923D01*
X396423Y315923D01*
G37*
%LPD*%
%LPC*%
G36*
X529423Y315923D02*
X529423Y315923D01*
X529423Y332066D01*
X530279Y331931D01*
X531800Y331436D01*
X533225Y330710D01*
X534519Y329770D01*
X535650Y328639D01*
X536590Y327345D01*
X537316Y325920D01*
X537811Y324399D01*
X538061Y322820D01*
X538061Y315923D01*
X529423Y315923D01*
G37*
%LPD*%
%LPC*%
G36*
X529423Y312877D02*
X529423Y312877D01*
X538061Y312877D01*
X538061Y305980D01*
X537811Y304401D01*
X537316Y302880D01*
X536590Y301455D01*
X535650Y300161D01*
X534519Y299030D01*
X533225Y298090D01*
X531800Y297364D01*
X530279Y296869D01*
X529423Y296734D01*
X529423Y312877D01*
G37*
%LPD*%
%LPC*%
G36*
X396423Y312877D02*
X396423Y312877D01*
X405061Y312877D01*
X405061Y305980D01*
X404811Y304401D01*
X404316Y302880D01*
X403590Y301455D01*
X402650Y300161D01*
X401519Y299030D01*
X400225Y298090D01*
X398800Y297364D01*
X397279Y296869D01*
X396423Y296734D01*
X396423Y312877D01*
G37*
%LPD*%
%LPC*%
G36*
X171023Y856677D02*
X171023Y856677D01*
X179661Y856677D01*
X179661Y849780D01*
X179411Y848201D01*
X178916Y846680D01*
X178190Y845255D01*
X177250Y843961D01*
X176119Y842830D01*
X174825Y841890D01*
X173400Y841164D01*
X171879Y840669D01*
X171023Y840534D01*
X171023Y856677D01*
G37*
%LPD*%
%LPC*%
G36*
X384739Y315923D02*
X384739Y315923D01*
X384739Y322820D01*
X384989Y324399D01*
X385484Y325920D01*
X386210Y327345D01*
X387150Y328639D01*
X388281Y329770D01*
X389575Y330710D01*
X391000Y331436D01*
X392521Y331931D01*
X393377Y332066D01*
X393377Y315923D01*
X384739Y315923D01*
G37*
%LPD*%
%LPC*%
G36*
X517739Y315923D02*
X517739Y315923D01*
X517739Y322820D01*
X517989Y324399D01*
X518484Y325920D01*
X519210Y327345D01*
X520150Y328639D01*
X521281Y329770D01*
X522575Y330710D01*
X524000Y331436D01*
X525521Y331931D01*
X526377Y332066D01*
X526377Y315923D01*
X517739Y315923D01*
G37*
%LPD*%
%LPC*%
G36*
X525521Y296869D02*
X525521Y296869D01*
X524000Y297364D01*
X522575Y298090D01*
X521281Y299030D01*
X520150Y300161D01*
X519210Y301455D01*
X518484Y302880D01*
X517989Y304401D01*
X517739Y305980D01*
X517739Y312877D01*
X526377Y312877D01*
X526377Y296734D01*
X525521Y296869D01*
G37*
%LPD*%
%LPC*%
G36*
X167121Y840669D02*
X167121Y840669D01*
X165600Y841164D01*
X164175Y841890D01*
X162881Y842830D01*
X161750Y843961D01*
X160810Y845255D01*
X160084Y846680D01*
X159589Y848201D01*
X159339Y849780D01*
X159339Y856677D01*
X167977Y856677D01*
X167977Y840534D01*
X167121Y840669D01*
G37*
%LPD*%
%LPC*%
G36*
X392521Y296869D02*
X392521Y296869D01*
X391000Y297364D01*
X389575Y298090D01*
X388281Y299030D01*
X387150Y300161D01*
X386210Y301455D01*
X385484Y302880D01*
X384989Y304401D01*
X384739Y305980D01*
X384739Y312877D01*
X393377Y312877D01*
X393377Y296734D01*
X392521Y296869D01*
G37*
%LPD*%
%LPC*%
G36*
X342623Y799477D02*
X342623Y799477D01*
X354062Y799477D01*
X353820Y797946D01*
X353185Y795994D01*
X352253Y794165D01*
X351047Y792504D01*
X349596Y791053D01*
X347935Y789847D01*
X346106Y788915D01*
X344154Y788280D01*
X342623Y788038D01*
X342623Y799477D01*
G37*
%LPD*%
%LPC*%
G36*
X328138Y802523D02*
X328138Y802523D01*
X328380Y804054D01*
X329015Y806006D01*
X329947Y807835D01*
X331153Y809496D01*
X332604Y810947D01*
X334265Y812153D01*
X336094Y813085D01*
X338046Y813720D01*
X339577Y813962D01*
X339577Y802523D01*
X328138Y802523D01*
G37*
%LPD*%
%LPC*%
G36*
X338046Y788280D02*
X338046Y788280D01*
X336094Y788915D01*
X334265Y789847D01*
X332604Y791053D01*
X331153Y792504D01*
X329947Y794165D01*
X329015Y795994D01*
X328380Y797946D01*
X328138Y799477D01*
X339577Y799477D01*
X339577Y788038D01*
X338046Y788280D01*
G37*
%LPD*%
%LPC*%
G36*
X380223Y559423D02*
X380223Y559423D01*
X380223Y569746D01*
X381496Y569545D01*
X383283Y568964D01*
X384957Y568111D01*
X386478Y567006D01*
X387806Y565678D01*
X388911Y564157D01*
X389764Y562483D01*
X390345Y560696D01*
X390546Y559423D01*
X380223Y559423D01*
G37*
%LPD*%
%LPC*%
G36*
X481823Y559423D02*
X481823Y559423D01*
X481823Y569746D01*
X483096Y569545D01*
X484883Y568964D01*
X486557Y568111D01*
X488078Y567006D01*
X489406Y565678D01*
X490511Y564157D01*
X491364Y562483D01*
X491945Y560696D01*
X492146Y559423D01*
X481823Y559423D01*
G37*
%LPD*%
%LPC*%
G36*
X36323Y406523D02*
X36323Y406523D01*
X36323Y416846D01*
X37596Y416645D01*
X39383Y416064D01*
X41057Y415211D01*
X42578Y414106D01*
X43906Y412778D01*
X45011Y411257D01*
X45864Y409583D01*
X46445Y407796D01*
X46646Y406523D01*
X36323Y406523D01*
G37*
%LPD*%
%LPC*%
G36*
X206223Y83223D02*
X206223Y83223D01*
X206223Y93546D01*
X207496Y93345D01*
X209283Y92764D01*
X210957Y91911D01*
X212478Y90806D01*
X213806Y89478D01*
X214911Y87957D01*
X215764Y86283D01*
X216345Y84496D01*
X216546Y83223D01*
X206223Y83223D01*
G37*
%LPD*%
%LPC*%
G36*
X194623Y159823D02*
X194623Y159823D01*
X194623Y170146D01*
X195896Y169945D01*
X197683Y169364D01*
X199357Y168511D01*
X200878Y167406D01*
X202206Y166078D01*
X203311Y164557D01*
X204164Y162883D01*
X204745Y161096D01*
X204946Y159823D01*
X194623Y159823D01*
G37*
%LPD*%
%LPC*%
G36*
X46723Y686023D02*
X46723Y686023D01*
X46723Y696346D01*
X47996Y696145D01*
X49783Y695564D01*
X51457Y694711D01*
X52978Y693606D01*
X54306Y692278D01*
X55411Y690757D01*
X56264Y689083D01*
X56845Y687296D01*
X57046Y686023D01*
X46723Y686023D01*
G37*
%LPD*%
%LPC*%
G36*
X481823Y556377D02*
X481823Y556377D01*
X492146Y556377D01*
X491945Y555104D01*
X491364Y553317D01*
X490511Y551643D01*
X489406Y550122D01*
X488078Y548794D01*
X486557Y547689D01*
X484883Y546836D01*
X483096Y546255D01*
X481823Y546054D01*
X481823Y556377D01*
G37*
%LPD*%
%LPC*%
G36*
X206223Y80177D02*
X206223Y80177D01*
X216546Y80177D01*
X216345Y78904D01*
X215764Y77117D01*
X214911Y75443D01*
X213806Y73922D01*
X212478Y72594D01*
X210957Y71489D01*
X209283Y70636D01*
X207496Y70055D01*
X206223Y69854D01*
X206223Y80177D01*
G37*
%LPD*%
%LPC*%
G36*
X192854Y83223D02*
X192854Y83223D01*
X193055Y84496D01*
X193636Y86283D01*
X194489Y87957D01*
X195594Y89478D01*
X196922Y90806D01*
X198443Y91911D01*
X200117Y92764D01*
X201904Y93345D01*
X203177Y93546D01*
X203177Y83223D01*
X192854Y83223D01*
G37*
%LPD*%
%LPC*%
G36*
X22954Y406523D02*
X22954Y406523D01*
X23155Y407796D01*
X23736Y409583D01*
X24589Y411257D01*
X25694Y412778D01*
X27022Y414106D01*
X28543Y415211D01*
X30217Y416064D01*
X32004Y416645D01*
X33277Y416846D01*
X33277Y406523D01*
X22954Y406523D01*
G37*
%LPD*%
%LPC*%
G36*
X36323Y403477D02*
X36323Y403477D01*
X46646Y403477D01*
X46445Y402204D01*
X45864Y400417D01*
X45011Y398743D01*
X43906Y397222D01*
X42578Y395894D01*
X41057Y394789D01*
X39383Y393936D01*
X37596Y393355D01*
X36323Y393154D01*
X36323Y403477D01*
G37*
%LPD*%
%LPC*%
G36*
X181254Y159823D02*
X181254Y159823D01*
X181455Y161096D01*
X182036Y162883D01*
X182889Y164557D01*
X183994Y166078D01*
X185322Y167406D01*
X186843Y168511D01*
X188517Y169364D01*
X190304Y169945D01*
X191577Y170146D01*
X191577Y159823D01*
X181254Y159823D01*
G37*
%LPD*%
%LPC*%
G36*
X366854Y559423D02*
X366854Y559423D01*
X367055Y560696D01*
X367636Y562483D01*
X368489Y564157D01*
X369594Y565678D01*
X370922Y567006D01*
X372443Y568111D01*
X374117Y568964D01*
X375904Y569545D01*
X377177Y569746D01*
X377177Y559423D01*
X366854Y559423D01*
G37*
%LPD*%
%LPC*%
G36*
X468454Y559423D02*
X468454Y559423D01*
X468655Y560696D01*
X469236Y562483D01*
X470089Y564157D01*
X471194Y565678D01*
X472522Y567006D01*
X474043Y568111D01*
X475717Y568964D01*
X477504Y569545D01*
X478777Y569746D01*
X478777Y559423D01*
X468454Y559423D01*
G37*
%LPD*%
%LPC*%
G36*
X380223Y556377D02*
X380223Y556377D01*
X390546Y556377D01*
X390345Y555104D01*
X389764Y553317D01*
X388911Y551643D01*
X387806Y550122D01*
X386478Y548794D01*
X384957Y547689D01*
X383283Y546836D01*
X381496Y546255D01*
X380223Y546054D01*
X380223Y556377D01*
G37*
%LPD*%
%LPC*%
G36*
X33354Y686023D02*
X33354Y686023D01*
X33555Y687296D01*
X34136Y689083D01*
X34989Y690757D01*
X36094Y692278D01*
X37422Y693606D01*
X38943Y694711D01*
X40617Y695564D01*
X42404Y696145D01*
X43677Y696346D01*
X43677Y686023D01*
X33354Y686023D01*
G37*
%LPD*%
%LPC*%
G36*
X46723Y682977D02*
X46723Y682977D01*
X57046Y682977D01*
X56845Y681704D01*
X56264Y679917D01*
X55411Y678243D01*
X54306Y676722D01*
X52978Y675394D01*
X51457Y674289D01*
X49783Y673436D01*
X47996Y672855D01*
X46723Y672654D01*
X46723Y682977D01*
G37*
%LPD*%
%LPC*%
G36*
X32004Y393355D02*
X32004Y393355D01*
X30217Y393936D01*
X28543Y394789D01*
X27022Y395894D01*
X25694Y397222D01*
X24589Y398743D01*
X23736Y400417D01*
X23155Y402204D01*
X22954Y403477D01*
X33277Y403477D01*
X33277Y393154D01*
X32004Y393355D01*
G37*
%LPD*%
%LPC*%
G36*
X375904Y546255D02*
X375904Y546255D01*
X374117Y546836D01*
X372443Y547689D01*
X370922Y548794D01*
X369594Y550122D01*
X368489Y551643D01*
X367636Y553317D01*
X367055Y555104D01*
X366854Y556377D01*
X377177Y556377D01*
X377177Y546054D01*
X375904Y546255D01*
G37*
%LPD*%
%LPC*%
G36*
X477504Y546255D02*
X477504Y546255D01*
X475717Y546836D01*
X474043Y547689D01*
X472522Y548794D01*
X471194Y550122D01*
X470089Y551643D01*
X469236Y553317D01*
X468655Y555104D01*
X468454Y556377D01*
X478777Y556377D01*
X478777Y546054D01*
X477504Y546255D01*
G37*
%LPD*%
%LPC*%
G36*
X42404Y672855D02*
X42404Y672855D01*
X40617Y673436D01*
X38943Y674289D01*
X37422Y675394D01*
X36094Y676722D01*
X34989Y678243D01*
X34136Y679917D01*
X33555Y681704D01*
X33354Y682977D01*
X43677Y682977D01*
X43677Y672654D01*
X42404Y672855D01*
G37*
%LPD*%
%LPC*%
G36*
X201904Y70055D02*
X201904Y70055D01*
X200117Y70636D01*
X198443Y71489D01*
X196922Y72594D01*
X195594Y73922D01*
X194489Y75443D01*
X193636Y77117D01*
X193055Y78904D01*
X192854Y80177D01*
X203177Y80177D01*
X203177Y69854D01*
X201904Y70055D01*
G37*
%LPD*%
%LPC*%
G36*
X30223Y854323D02*
X30223Y854323D01*
X30223Y863489D01*
X31228Y863330D01*
X32844Y862805D01*
X34358Y862033D01*
X35733Y861034D01*
X36934Y859833D01*
X37933Y858458D01*
X38705Y856944D01*
X39230Y855328D01*
X39389Y854323D01*
X30223Y854323D01*
G37*
%LPD*%
%LPC*%
G36*
X107823Y539423D02*
X107823Y539423D01*
X107823Y548589D01*
X108828Y548430D01*
X110444Y547905D01*
X111958Y547133D01*
X113333Y546134D01*
X114534Y544933D01*
X115533Y543558D01*
X116305Y542044D01*
X116830Y540428D01*
X116989Y539423D01*
X107823Y539423D01*
G37*
%LPD*%
%LPC*%
G36*
X129823Y623623D02*
X129823Y623623D01*
X129823Y632789D01*
X130828Y632630D01*
X132444Y632105D01*
X133958Y631333D01*
X135333Y630334D01*
X136534Y629133D01*
X137533Y627758D01*
X138305Y626244D01*
X138830Y624628D01*
X138989Y623623D01*
X129823Y623623D01*
G37*
%LPD*%
%LPC*%
G36*
X333723Y654323D02*
X333723Y654323D01*
X333723Y663489D01*
X334728Y663330D01*
X336344Y662805D01*
X337858Y662033D01*
X339233Y661034D01*
X340434Y659833D01*
X341433Y658458D01*
X342205Y656944D01*
X342730Y655328D01*
X342889Y654323D01*
X333723Y654323D01*
G37*
%LPD*%
%LPC*%
G36*
X117611Y623623D02*
X117611Y623623D01*
X117770Y624628D01*
X118295Y626244D01*
X119067Y627758D01*
X120066Y629133D01*
X121267Y630334D01*
X122642Y631333D01*
X124156Y632105D01*
X125772Y632630D01*
X126777Y632789D01*
X126777Y623623D01*
X117611Y623623D01*
G37*
%LPD*%
%LPC*%
G36*
X333723Y651277D02*
X333723Y651277D01*
X342889Y651277D01*
X342730Y650272D01*
X342205Y648656D01*
X341433Y647142D01*
X340434Y645767D01*
X339233Y644566D01*
X337858Y643567D01*
X336344Y642795D01*
X334728Y642270D01*
X333723Y642111D01*
X333723Y651277D01*
G37*
%LPD*%
%LPC*%
G36*
X30223Y851277D02*
X30223Y851277D01*
X39389Y851277D01*
X39230Y850272D01*
X38705Y848656D01*
X37933Y847142D01*
X36934Y845767D01*
X35733Y844566D01*
X34358Y843567D01*
X32844Y842795D01*
X31228Y842270D01*
X30223Y842111D01*
X30223Y851277D01*
G37*
%LPD*%
%LPC*%
G36*
X18011Y854323D02*
X18011Y854323D01*
X18170Y855328D01*
X18695Y856944D01*
X19467Y858458D01*
X20466Y859833D01*
X21667Y861034D01*
X23042Y862033D01*
X24556Y862805D01*
X26172Y863330D01*
X27177Y863489D01*
X27177Y854323D01*
X18011Y854323D01*
G37*
%LPD*%
%LPC*%
G36*
X129823Y620577D02*
X129823Y620577D01*
X138989Y620577D01*
X138830Y619572D01*
X138305Y617956D01*
X137533Y616442D01*
X136534Y615067D01*
X135333Y613866D01*
X133958Y612867D01*
X132444Y612095D01*
X130828Y611570D01*
X129823Y611411D01*
X129823Y620577D01*
G37*
%LPD*%
%LPC*%
G36*
X321511Y654323D02*
X321511Y654323D01*
X321670Y655328D01*
X322195Y656944D01*
X322967Y658458D01*
X323966Y659833D01*
X325167Y661034D01*
X326542Y662033D01*
X328056Y662805D01*
X329672Y663330D01*
X330677Y663489D01*
X330677Y654323D01*
X321511Y654323D01*
G37*
%LPD*%
%LPC*%
G36*
X26172Y842270D02*
X26172Y842270D01*
X24556Y842795D01*
X23042Y843567D01*
X21667Y844566D01*
X20466Y845767D01*
X19467Y847142D01*
X18695Y848656D01*
X18170Y850272D01*
X18011Y851277D01*
X27177Y851277D01*
X27177Y842111D01*
X26172Y842270D01*
G37*
%LPD*%
%LPC*%
G36*
X125772Y611570D02*
X125772Y611570D01*
X124156Y612095D01*
X122642Y612867D01*
X121267Y613866D01*
X120066Y615067D01*
X119067Y616442D01*
X118295Y617956D01*
X117770Y619572D01*
X117611Y620577D01*
X126777Y620577D01*
X126777Y611411D01*
X125772Y611570D01*
G37*
%LPD*%
%LPC*%
G36*
X329672Y642270D02*
X329672Y642270D01*
X328056Y642795D01*
X326542Y643567D01*
X325167Y644566D01*
X323966Y645767D01*
X322967Y647142D01*
X322195Y648656D01*
X321670Y650272D01*
X321511Y651277D01*
X330677Y651277D01*
X330677Y642111D01*
X329672Y642270D01*
G37*
%LPD*%
%LPC*%
G36*
X258123Y627623D02*
X258123Y627623D01*
X258123Y636660D01*
X259098Y636506D01*
X260695Y635987D01*
X262192Y635225D01*
X263550Y634238D01*
X264738Y633050D01*
X265725Y631692D01*
X266487Y630195D01*
X267006Y628598D01*
X267160Y627623D01*
X258123Y627623D01*
G37*
%LPD*%
%LPC*%
G36*
X181923Y602223D02*
X181923Y602223D01*
X181923Y611260D01*
X182898Y611106D01*
X184495Y610587D01*
X185992Y609825D01*
X187350Y608838D01*
X188538Y607650D01*
X189525Y606292D01*
X190287Y604795D01*
X190806Y603198D01*
X190960Y602223D01*
X181923Y602223D01*
G37*
%LPD*%
%LPC*%
G36*
X169840Y602223D02*
X169840Y602223D01*
X169994Y603198D01*
X170513Y604795D01*
X171275Y606292D01*
X172262Y607650D01*
X173450Y608838D01*
X174808Y609825D01*
X176305Y610587D01*
X177902Y611106D01*
X178877Y611260D01*
X178877Y602223D01*
X169840Y602223D01*
G37*
%LPD*%
%LPC*%
G36*
X181923Y599177D02*
X181923Y599177D01*
X190960Y599177D01*
X190806Y598202D01*
X190287Y596605D01*
X189525Y595108D01*
X188538Y593750D01*
X187350Y592562D01*
X185992Y591575D01*
X184495Y590813D01*
X182898Y590294D01*
X181923Y590140D01*
X181923Y599177D01*
G37*
%LPD*%
%LPC*%
G36*
X177902Y590294D02*
X177902Y590294D01*
X176305Y590813D01*
X174808Y591575D01*
X173450Y592562D01*
X172262Y593750D01*
X171275Y595108D01*
X170513Y596605D01*
X169994Y598202D01*
X169840Y599177D01*
X178877Y599177D01*
X178877Y590140D01*
X177902Y590294D01*
G37*
%LPD*%
%LPC*%
G36*
X394899Y314399D02*
X394899Y314399D01*
X394899Y314401D01*
X394901Y314401D01*
X394901Y314399D01*
X394899Y314399D01*
G37*
%LPD*%
%LPC*%
G36*
X45199Y684499D02*
X45199Y684499D01*
X45199Y684501D01*
X45201Y684501D01*
X45201Y684499D01*
X45199Y684499D01*
G37*
%LPD*%
%LPC*%
G36*
X527899Y314399D02*
X527899Y314399D01*
X527899Y314401D01*
X527901Y314401D01*
X527901Y314399D01*
X527899Y314399D01*
G37*
%LPD*%
%LPC*%
G36*
X128299Y622099D02*
X128299Y622099D01*
X128299Y622101D01*
X128301Y622101D01*
X128301Y622099D01*
X128299Y622099D01*
G37*
%LPD*%
%LPC*%
G36*
X341099Y800999D02*
X341099Y800999D01*
X341099Y801001D01*
X341101Y801001D01*
X341101Y800999D01*
X341099Y800999D01*
G37*
%LPD*%
%LPC*%
G36*
X332199Y652799D02*
X332199Y652799D01*
X332199Y652801D01*
X332201Y652801D01*
X332201Y652799D01*
X332199Y652799D01*
G37*
%LPD*%
%LPC*%
G36*
X28699Y852799D02*
X28699Y852799D01*
X28699Y852801D01*
X28701Y852801D01*
X28701Y852799D01*
X28699Y852799D01*
G37*
%LPD*%
%LPC*%
G36*
X289849Y202599D02*
X289849Y202599D01*
X289849Y202601D01*
X289851Y202601D01*
X289851Y202599D01*
X289849Y202599D01*
G37*
%LPD*%
%LPC*%
G36*
X180399Y600699D02*
X180399Y600699D01*
X180399Y600701D01*
X180401Y600701D01*
X180401Y600699D01*
X180399Y600699D01*
G37*
%LPD*%
%LPC*%
G36*
X817399Y345749D02*
X817399Y345749D01*
X817399Y345751D01*
X817401Y345751D01*
X817401Y345749D01*
X817399Y345749D01*
G37*
%LPD*%
%LPC*%
G36*
X34799Y404999D02*
X34799Y404999D01*
X34799Y405001D01*
X34801Y405001D01*
X34801Y404999D01*
X34799Y404999D01*
G37*
%LPD*%
%LPC*%
G36*
X480299Y557899D02*
X480299Y557899D01*
X480299Y557901D01*
X480301Y557901D01*
X480301Y557899D01*
X480299Y557899D01*
G37*
%LPD*%
%LPC*%
G36*
X204699Y81699D02*
X204699Y81699D01*
X204699Y81701D01*
X204701Y81701D01*
X204701Y81699D01*
X204699Y81699D01*
G37*
%LPD*%
%LPC*%
G36*
X378699Y557899D02*
X378699Y557899D01*
X378699Y557901D01*
X378701Y557901D01*
X378701Y557899D01*
X378699Y557899D01*
G37*
%LPD*%
%LPC*%
G36*
X569849Y203899D02*
X569849Y203899D01*
X569849Y203901D01*
X569851Y203901D01*
X569851Y203899D01*
X569849Y203899D01*
G37*
%LPD*%
D10*
X34800Y379600D03*
X34800Y405000D03*
X34800Y430400D03*
X34800Y455800D03*
D11*
X357200Y652800D03*
D12*
X332200Y652800D03*
D11*
X53700Y852800D03*
D12*
X28700Y852800D03*
X128300Y622100D03*
X102900Y622100D03*
X80900Y537900D03*
X106300Y537900D03*
D13*
X684700Y443540D02*
X684700Y421061D01*
X684700Y573461D02*
X684700Y595940D01*
X798500Y216040D02*
X798500Y193561D01*
X798500Y63640D02*
X798500Y41161D01*
D14*
X79900Y65200D03*
X79900Y85200D03*
D15*
X144100Y850580D02*
X144100Y865820D01*
X169500Y865820D02*
X169500Y850580D01*
X194900Y850580D02*
X194900Y865820D01*
D16*
X796100Y625750D03*
D17*
X816100Y565750D03*
X938100Y565750D03*
X938100Y685750D03*
X816100Y685750D03*
D16*
X797400Y405750D03*
D17*
X817400Y345750D03*
X939400Y345750D03*
X939400Y465750D03*
X817400Y465750D03*
D16*
X629850Y223900D03*
D17*
X569850Y203900D03*
X569850Y81900D03*
X689850Y81900D03*
X689850Y203900D03*
D16*
X349850Y222600D03*
D17*
X289850Y202600D03*
X289850Y80600D03*
X409850Y80600D03*
X409850Y202600D03*
D14*
X79900Y201700D03*
X79900Y221700D03*
D18*
X604800Y794200D03*
X694800Y794200D03*
X964100Y211100D03*
X964100Y121100D03*
X431100Y801000D03*
X341100Y801000D03*
D10*
X45200Y786100D03*
X45200Y760700D03*
X45200Y735300D03*
X45200Y709900D03*
X45200Y684500D03*
D15*
X344100Y322020D02*
X344100Y306780D01*
X369500Y306780D02*
X369500Y322020D01*
X394900Y322020D02*
X394900Y306780D01*
X477100Y306780D02*
X477100Y322020D01*
X502500Y322020D02*
X502500Y306780D01*
X527900Y306780D02*
X527900Y322020D01*
D10*
X149900Y758300D03*
X73700Y758300D03*
X128500Y81700D03*
X204700Y81700D03*
X193100Y158300D03*
X116900Y158300D03*
X194700Y218300D03*
X118500Y218300D03*
X404100Y557900D03*
X480300Y557900D03*
X302500Y557900D03*
X378700Y557900D03*
D14*
X79900Y138200D03*
X79900Y158200D03*
D19*
X180400Y778500D03*
X180400Y753100D03*
X180400Y727700D03*
X180400Y702300D03*
X180400Y676900D03*
X180400Y651500D03*
X180400Y626100D03*
X180400Y600700D03*
X180400Y575300D03*
X180400Y549900D03*
X180400Y524500D03*
X180400Y499100D03*
X180400Y473700D03*
X180400Y448300D03*
X256600Y448300D03*
X256600Y473700D03*
X256600Y499100D03*
X256600Y524500D03*
X256600Y549900D03*
X256600Y575300D03*
X256600Y600700D03*
X256600Y626100D03*
X256600Y651500D03*
X256600Y676900D03*
X256600Y702300D03*
X256600Y727700D03*
X256600Y753100D03*
X256600Y778500D03*
D12*
X47200Y566900D03*
X47200Y617700D03*
D20*
X98500Y617700D01*
X102900Y622100D01*
X149700Y575300D01*
X180400Y575300D01*
X51900Y566900D02*
X47200Y566900D01*
X51900Y566900D02*
X80900Y537900D01*
X91393Y537900D01*
X101934Y527359D01*
X157859Y527359D01*
X180400Y549900D01*
X939400Y545857D02*
X939400Y465750D01*
X939400Y545857D02*
X953086Y559543D01*
X953086Y670764D01*
X941925Y681925D01*
X938100Y685750D01*
X549957Y80600D02*
X409850Y80600D01*
X549957Y80600D02*
X563643Y66914D01*
X674864Y66914D01*
X689850Y81900D01*
X357200Y652800D02*
X431100Y726700D01*
X431100Y801000D01*
X359182Y801000D01*
X164274Y875726D02*
X160000Y880000D01*
X284456Y875726D02*
X359182Y801000D01*
X284456Y875726D02*
X164274Y875726D01*
X160000Y880000D02*
X144100Y864100D01*
X144100Y858200D01*
X431100Y801000D02*
X593518Y801000D01*
X599504Y806986D01*
X816864Y806986D01*
X938100Y685750D01*
X45200Y786100D02*
X45200Y844300D01*
X53700Y852800D01*
X149900Y758300D02*
X158536Y766936D01*
X190814Y854114D02*
X194900Y858200D01*
X190814Y800000D02*
X190814Y774186D01*
X190814Y800000D02*
X190814Y854114D01*
X183564Y766936D02*
X158536Y766936D01*
X183564Y766936D02*
X190814Y774186D01*
X173272Y786100D02*
X45200Y786100D01*
X173272Y786100D02*
X176086Y788914D01*
X179728Y788914D01*
X190814Y800000D01*
X69614Y162461D02*
X69614Y153939D01*
X79900Y172747D02*
X79900Y201700D01*
X79900Y143653D02*
X79900Y138200D01*
X69614Y162461D02*
X79900Y172747D01*
X69614Y153939D02*
X79900Y143653D01*
X69614Y89461D02*
X69614Y80939D01*
X79900Y99747D02*
X79900Y138200D01*
X79900Y70653D02*
X79900Y65200D01*
X69614Y89461D02*
X79900Y99747D01*
X69614Y80939D02*
X79900Y70653D01*
X79900Y201700D02*
X34800Y246800D01*
X34800Y379600D01*
X28700Y701000D02*
X28700Y852800D01*
X28700Y701000D02*
X45200Y684500D01*
X97059Y632641D01*
X117807Y622100D02*
X128300Y622100D01*
X107266Y632641D02*
X97059Y632641D01*
X107266Y632641D02*
X117807Y622100D01*
X128300Y622100D02*
X159000Y622100D01*
X180400Y600700D01*
X117600Y537900D02*
X106300Y537900D01*
X184714Y564886D02*
X190814Y570986D01*
X190814Y579614D01*
X144586Y564886D02*
X117600Y537900D01*
X144586Y564886D02*
X184714Y564886D01*
X190814Y579614D02*
X180400Y590028D01*
X180400Y600700D01*
X817400Y444557D02*
X817400Y345750D01*
X817400Y444557D02*
X832386Y459543D01*
X832386Y549464D02*
X816100Y565750D01*
X832386Y549464D02*
X832386Y459543D01*
X332200Y652800D02*
X305500Y626100D01*
X256600Y626100D01*
X378700Y557900D02*
X394900Y541700D01*
X394900Y314400D01*
X472997Y296874D02*
X481203Y296874D01*
X492594Y326123D02*
X498397Y331926D01*
X506603Y331926D01*
X455471Y314400D02*
X394900Y314400D01*
X524129Y314400D02*
X527900Y314400D01*
X472997Y296874D02*
X455471Y314400D01*
X506603Y331926D02*
X524129Y314400D01*
X492594Y308265D02*
X481203Y296874D01*
X492594Y308265D02*
X492594Y326123D01*
X527900Y314400D02*
X527900Y245850D01*
X569850Y203900D01*
X690536Y218886D02*
X817400Y345750D01*
X690536Y218886D02*
X683643Y218886D01*
X682378Y217622D01*
X332200Y652800D02*
X341100Y661700D01*
X341100Y801000D01*
X605950Y240000D02*
X569850Y203900D01*
X660000Y240000D02*
X682378Y217622D01*
X660000Y240000D02*
X605950Y240000D01*
X135776Y760700D02*
X137538Y762462D01*
X145060Y769984D01*
X171884Y769984D02*
X180400Y778500D01*
X171884Y769984D02*
X145060Y769984D01*
X73700Y758300D02*
X47600Y758300D01*
X45200Y760700D01*
X133376Y758300D02*
X135776Y760700D01*
X133376Y758300D02*
X73700Y758300D01*
X162600Y709900D02*
X180400Y727700D01*
X162600Y709900D02*
X45200Y709900D01*
X162600Y735300D02*
X180400Y753100D01*
X162600Y735300D02*
X45200Y735300D01*
X180400Y702300D02*
X180400Y691628D01*
X223048Y648980D01*
X193416Y146616D02*
X128500Y81700D01*
X193416Y146616D02*
X197940Y146616D01*
X223048Y171724D01*
X223048Y648980D01*
X128500Y81700D02*
X83400Y81700D01*
X79900Y85200D01*
X180400Y640828D02*
X180400Y651500D01*
X180400Y640828D02*
X220000Y601228D01*
X165216Y206616D02*
X116900Y158300D01*
X165216Y206616D02*
X199540Y206616D01*
X220000Y227076D02*
X220000Y601228D01*
X220000Y227076D02*
X199540Y206616D01*
X116900Y158300D02*
X80000Y158300D01*
X79900Y158200D01*
X180400Y463028D02*
X180400Y473700D01*
X180400Y463028D02*
X216952Y426476D01*
X216952Y240000D01*
X206936Y229984D01*
X178176Y218300D02*
X118500Y218300D01*
X189860Y229984D02*
X206936Y229984D01*
X189860Y229984D02*
X178176Y218300D01*
X118500Y218300D02*
X83300Y218300D01*
X79900Y221700D01*
X34800Y455800D02*
X103311Y524311D01*
X159122Y524311D01*
X159311Y524500D01*
X180400Y524500D01*
X103500Y499100D02*
X34800Y430400D01*
X103500Y499100D02*
X180400Y499100D01*
X552967Y81900D02*
X569850Y81900D01*
X552967Y81900D02*
X539281Y95586D01*
X304836Y95586D01*
X289850Y80600D01*
X732650Y121100D02*
X964100Y121100D01*
X732650Y121100D02*
X629850Y223900D01*
X969396Y108314D02*
X976886Y115804D01*
X464136Y108314D02*
X349850Y222600D01*
X464136Y108314D02*
X969396Y108314D01*
X976886Y196886D02*
X980000Y200000D01*
X976886Y196886D02*
X976886Y115804D01*
X980000Y200000D02*
X968900Y211100D01*
X964100Y211100D01*
X797400Y405750D02*
X797400Y441633D01*
X671175Y567858D01*
X671175Y727826D02*
X604800Y794200D01*
X671175Y727826D02*
X671175Y567858D01*
X796100Y692900D02*
X694800Y794200D01*
X796100Y692900D02*
X796100Y625750D01*
X938100Y565750D02*
X938100Y560000D01*
X938100Y548867D01*
X924414Y535181D01*
X924414Y360736D01*
X939400Y345750D01*
X913400Y584700D02*
X684700Y584700D01*
X913400Y584700D02*
X938100Y560000D01*
X302500Y557900D02*
X302500Y356000D01*
X344100Y314400D01*
X267014Y522414D02*
X302500Y557900D01*
X256600Y484372D02*
X256600Y473700D01*
X256600Y484372D02*
X267014Y494786D01*
X267014Y522414D01*
X404100Y557900D02*
X404100Y387400D01*
X477100Y314400D01*
X404100Y557900D02*
X362000Y600000D01*
X184714Y712714D02*
X176086Y712714D01*
X169986Y706614D01*
X260914Y611114D02*
X272028Y600000D01*
X260914Y611114D02*
X256858Y611114D01*
X226096Y641876D01*
X180400Y676900D02*
X180400Y687317D01*
X226096Y671332D02*
X226096Y641876D01*
X226096Y671332D02*
X184714Y712714D01*
X169986Y706614D02*
X169986Y697731D01*
X180400Y687317D01*
X272028Y600000D02*
X362000Y600000D01*
M02*
