G04 EAGLE Gerber RS-274X export*
G75*
%MOMM*%
%FSLAX34Y34*%
%LPD*%
%IN*%
%IPPOS*%
%AMOC8*
5,1,8,0,0,1.08239X$1,22.5*%
G01*
%ADD10C,0.254000*%


D10*
X-20000Y0D02*
X1070000Y0D01*
X1070000Y900000D01*
X-20000Y900000D01*
X-20000Y0D01*
X995000Y839464D02*
X994924Y838396D01*
X994771Y837335D01*
X994543Y836288D01*
X994241Y835260D01*
X993867Y834256D01*
X993422Y833281D01*
X992908Y832341D01*
X992329Y831440D01*
X991687Y830582D01*
X990985Y829772D01*
X990228Y829015D01*
X989418Y828313D01*
X988560Y827671D01*
X987659Y827092D01*
X986719Y826578D01*
X985744Y826133D01*
X984740Y825759D01*
X983712Y825457D01*
X982665Y825229D01*
X981604Y825076D01*
X980536Y825000D01*
X979464Y825000D01*
X978396Y825076D01*
X977335Y825229D01*
X976288Y825457D01*
X975260Y825759D01*
X974256Y826133D01*
X973281Y826578D01*
X972341Y827092D01*
X971440Y827671D01*
X970582Y828313D01*
X969772Y829015D01*
X969015Y829772D01*
X968313Y830582D01*
X967671Y831440D01*
X967092Y832341D01*
X966578Y833281D01*
X966133Y834256D01*
X965759Y835260D01*
X965457Y836288D01*
X965229Y837335D01*
X965076Y838396D01*
X965000Y839464D01*
X965000Y840536D01*
X965076Y841604D01*
X965229Y842665D01*
X965457Y843712D01*
X965759Y844740D01*
X966133Y845744D01*
X966578Y846719D01*
X967092Y847659D01*
X967671Y848560D01*
X968313Y849418D01*
X969015Y850228D01*
X969772Y850985D01*
X970582Y851687D01*
X971440Y852329D01*
X972341Y852908D01*
X973281Y853422D01*
X974256Y853867D01*
X975260Y854241D01*
X976288Y854543D01*
X977335Y854771D01*
X978396Y854924D01*
X979464Y855000D01*
X980536Y855000D01*
X981604Y854924D01*
X982665Y854771D01*
X983712Y854543D01*
X984740Y854241D01*
X985744Y853867D01*
X986719Y853422D01*
X987659Y852908D01*
X988560Y852329D01*
X989418Y851687D01*
X990228Y850985D01*
X990985Y850228D01*
X991687Y849418D01*
X992329Y848560D01*
X992908Y847659D01*
X993422Y846719D01*
X993867Y845744D01*
X994241Y844740D01*
X994543Y843712D01*
X994771Y842665D01*
X994924Y841604D01*
X995000Y840536D01*
X995000Y839464D01*
X555000Y459464D02*
X554924Y458396D01*
X554771Y457335D01*
X554543Y456288D01*
X554241Y455260D01*
X553867Y454256D01*
X553422Y453281D01*
X552908Y452341D01*
X552329Y451440D01*
X551687Y450582D01*
X550985Y449772D01*
X550228Y449015D01*
X549418Y448313D01*
X548560Y447671D01*
X547659Y447092D01*
X546719Y446578D01*
X545744Y446133D01*
X544740Y445759D01*
X543712Y445457D01*
X542665Y445229D01*
X541604Y445076D01*
X540536Y445000D01*
X539464Y445000D01*
X538396Y445076D01*
X537335Y445229D01*
X536288Y445457D01*
X535260Y445759D01*
X534256Y446133D01*
X533281Y446578D01*
X532341Y447092D01*
X531440Y447671D01*
X530582Y448313D01*
X529772Y449015D01*
X529015Y449772D01*
X528313Y450582D01*
X527671Y451440D01*
X527092Y452341D01*
X526578Y453281D01*
X526133Y454256D01*
X525759Y455260D01*
X525457Y456288D01*
X525229Y457335D01*
X525076Y458396D01*
X525000Y459464D01*
X525000Y460536D01*
X525076Y461604D01*
X525229Y462665D01*
X525457Y463712D01*
X525759Y464740D01*
X526133Y465744D01*
X526578Y466719D01*
X527092Y467659D01*
X527671Y468560D01*
X528313Y469418D01*
X529015Y470228D01*
X529772Y470985D01*
X530582Y471687D01*
X531440Y472329D01*
X532341Y472908D01*
X533281Y473422D01*
X534256Y473867D01*
X535260Y474241D01*
X536288Y474543D01*
X537335Y474771D01*
X538396Y474924D01*
X539464Y475000D01*
X540536Y475000D01*
X541604Y474924D01*
X542665Y474771D01*
X543712Y474543D01*
X544740Y474241D01*
X545744Y473867D01*
X546719Y473422D01*
X547659Y472908D01*
X548560Y472329D01*
X549418Y471687D01*
X550228Y470985D01*
X550985Y470228D01*
X551687Y469418D01*
X552329Y468560D01*
X552908Y467659D01*
X553422Y466719D01*
X553867Y465744D01*
X554241Y464740D01*
X554543Y463712D01*
X554771Y462665D01*
X554924Y461604D01*
X555000Y460536D01*
X555000Y459464D01*
X155000Y359464D02*
X154924Y358396D01*
X154771Y357335D01*
X154543Y356288D01*
X154241Y355260D01*
X153867Y354256D01*
X153422Y353281D01*
X152908Y352341D01*
X152329Y351440D01*
X151687Y350582D01*
X150985Y349772D01*
X150228Y349015D01*
X149418Y348313D01*
X148560Y347671D01*
X147659Y347092D01*
X146719Y346578D01*
X145744Y346133D01*
X144740Y345759D01*
X143712Y345457D01*
X142665Y345229D01*
X141604Y345076D01*
X140536Y345000D01*
X139464Y345000D01*
X138396Y345076D01*
X137335Y345229D01*
X136288Y345457D01*
X135260Y345759D01*
X134256Y346133D01*
X133281Y346578D01*
X132341Y347092D01*
X131440Y347671D01*
X130582Y348313D01*
X129772Y349015D01*
X129015Y349772D01*
X128313Y350582D01*
X127671Y351440D01*
X127092Y352341D01*
X126578Y353281D01*
X126133Y354256D01*
X125759Y355260D01*
X125457Y356288D01*
X125229Y357335D01*
X125076Y358396D01*
X125000Y359464D01*
X125000Y360536D01*
X125076Y361604D01*
X125229Y362665D01*
X125457Y363712D01*
X125759Y364740D01*
X126133Y365744D01*
X126578Y366719D01*
X127092Y367659D01*
X127671Y368560D01*
X128313Y369418D01*
X129015Y370228D01*
X129772Y370985D01*
X130582Y371687D01*
X131440Y372329D01*
X132341Y372908D01*
X133281Y373422D01*
X134256Y373867D01*
X135260Y374241D01*
X136288Y374543D01*
X137335Y374771D01*
X138396Y374924D01*
X139464Y375000D01*
X140536Y375000D01*
X141604Y374924D01*
X142665Y374771D01*
X143712Y374543D01*
X144740Y374241D01*
X145744Y373867D01*
X146719Y373422D01*
X147659Y372908D01*
X148560Y372329D01*
X149418Y371687D01*
X150228Y370985D01*
X150985Y370228D01*
X151687Y369418D01*
X152329Y368560D01*
X152908Y367659D01*
X153422Y366719D01*
X153867Y365744D01*
X154241Y364740D01*
X154543Y363712D01*
X154771Y362665D01*
X154924Y361604D01*
X155000Y360536D01*
X155000Y359464D01*
X835000Y279464D02*
X834924Y278396D01*
X834771Y277335D01*
X834543Y276288D01*
X834241Y275260D01*
X833867Y274256D01*
X833422Y273281D01*
X832908Y272341D01*
X832329Y271440D01*
X831687Y270582D01*
X830985Y269772D01*
X830228Y269015D01*
X829418Y268313D01*
X828560Y267671D01*
X827659Y267092D01*
X826719Y266578D01*
X825744Y266133D01*
X824740Y265759D01*
X823712Y265457D01*
X822665Y265229D01*
X821604Y265076D01*
X820536Y265000D01*
X819464Y265000D01*
X818396Y265076D01*
X817335Y265229D01*
X816288Y265457D01*
X815260Y265759D01*
X814256Y266133D01*
X813281Y266578D01*
X812341Y267092D01*
X811440Y267671D01*
X810582Y268313D01*
X809772Y269015D01*
X809015Y269772D01*
X808313Y270582D01*
X807671Y271440D01*
X807092Y272341D01*
X806578Y273281D01*
X806133Y274256D01*
X805759Y275260D01*
X805457Y276288D01*
X805229Y277335D01*
X805076Y278396D01*
X805000Y279464D01*
X805000Y280536D01*
X805076Y281604D01*
X805229Y282665D01*
X805457Y283712D01*
X805759Y284740D01*
X806133Y285744D01*
X806578Y286719D01*
X807092Y287659D01*
X807671Y288560D01*
X808313Y289418D01*
X809015Y290228D01*
X809772Y290985D01*
X810582Y291687D01*
X811440Y292329D01*
X812341Y292908D01*
X813281Y293422D01*
X814256Y293867D01*
X815260Y294241D01*
X816288Y294543D01*
X817335Y294771D01*
X818396Y294924D01*
X819464Y295000D01*
X820536Y295000D01*
X821604Y294924D01*
X822665Y294771D01*
X823712Y294543D01*
X824740Y294241D01*
X825744Y293867D01*
X826719Y293422D01*
X827659Y292908D01*
X828560Y292329D01*
X829418Y291687D01*
X830228Y290985D01*
X830985Y290228D01*
X831687Y289418D01*
X832329Y288560D01*
X832908Y287659D01*
X833422Y286719D01*
X833867Y285744D01*
X834241Y284740D01*
X834543Y283712D01*
X834771Y282665D01*
X834924Y281604D01*
X835000Y280536D01*
X835000Y279464D01*
X535000Y859464D02*
X534924Y858396D01*
X534771Y857335D01*
X534543Y856288D01*
X534241Y855260D01*
X533867Y854256D01*
X533422Y853281D01*
X532908Y852341D01*
X532329Y851440D01*
X531687Y850582D01*
X530985Y849772D01*
X530228Y849015D01*
X529418Y848313D01*
X528560Y847671D01*
X527659Y847092D01*
X526719Y846578D01*
X525744Y846133D01*
X524740Y845759D01*
X523712Y845457D01*
X522665Y845229D01*
X521604Y845076D01*
X520536Y845000D01*
X519464Y845000D01*
X518396Y845076D01*
X517335Y845229D01*
X516288Y845457D01*
X515260Y845759D01*
X514256Y846133D01*
X513281Y846578D01*
X512341Y847092D01*
X511440Y847671D01*
X510582Y848313D01*
X509772Y849015D01*
X509015Y849772D01*
X508313Y850582D01*
X507671Y851440D01*
X507092Y852341D01*
X506578Y853281D01*
X506133Y854256D01*
X505759Y855260D01*
X505457Y856288D01*
X505229Y857335D01*
X505076Y858396D01*
X505000Y859464D01*
X505000Y860536D01*
X505076Y861604D01*
X505229Y862665D01*
X505457Y863712D01*
X505759Y864740D01*
X506133Y865744D01*
X506578Y866719D01*
X507092Y867659D01*
X507671Y868560D01*
X508313Y869418D01*
X509015Y870228D01*
X509772Y870985D01*
X510582Y871687D01*
X511440Y872329D01*
X512341Y872908D01*
X513281Y873422D01*
X514256Y873867D01*
X515260Y874241D01*
X516288Y874543D01*
X517335Y874771D01*
X518396Y874924D01*
X519464Y875000D01*
X520536Y875000D01*
X521604Y874924D01*
X522665Y874771D01*
X523712Y874543D01*
X524740Y874241D01*
X525744Y873867D01*
X526719Y873422D01*
X527659Y872908D01*
X528560Y872329D01*
X529418Y871687D01*
X530228Y870985D01*
X530985Y870228D01*
X531687Y869418D01*
X532329Y868560D01*
X532908Y867659D01*
X533422Y866719D01*
X533867Y865744D01*
X534241Y864740D01*
X534543Y863712D01*
X534771Y862665D01*
X534924Y861604D01*
X535000Y860536D01*
X535000Y859464D01*
M02*
