G04 EAGLE Gerber RS-274X export*
G75*
%MOMM*%
%FSLAX34Y34*%
%LPD*%
%INBottom Copper*%
%IPPOS*%
%AMOC8*
5,1,8,0,0,1.08239X$1,22.5*%
G01*
%ADD10C,1.879600*%
%ADD11R,1.651000X1.651000*%
%ADD12C,1.651000*%
%ADD13C,2.247900*%
%ADD14C,1.524000*%
%ADD15R,2.540000X2.540000*%
%ADD16C,2.540000*%
%ADD17C,2.100000*%
%ADD18C,1.625600*%
%ADD19C,0.152400*%
%ADD20C,2.250000*%
%ADD21C,2.000000*%

G36*
X1058336Y10926D02*
X1058336Y10926D01*
X1058355Y10924D01*
X1058457Y10946D01*
X1058559Y10962D01*
X1058576Y10972D01*
X1058596Y10976D01*
X1058685Y11029D01*
X1058776Y11078D01*
X1058790Y11092D01*
X1058807Y11102D01*
X1058874Y11181D01*
X1058946Y11256D01*
X1058954Y11274D01*
X1058967Y11289D01*
X1059006Y11385D01*
X1059049Y11479D01*
X1059051Y11499D01*
X1059059Y11517D01*
X1059077Y11684D01*
X1059077Y888316D01*
X1059074Y888336D01*
X1059076Y888355D01*
X1059054Y888457D01*
X1059038Y888559D01*
X1059028Y888576D01*
X1059024Y888596D01*
X1058971Y888685D01*
X1058922Y888776D01*
X1058908Y888790D01*
X1058898Y888807D01*
X1058819Y888874D01*
X1058744Y888946D01*
X1058726Y888954D01*
X1058711Y888967D01*
X1058615Y889006D01*
X1058521Y889049D01*
X1058501Y889051D01*
X1058483Y889059D01*
X1058316Y889077D01*
X-8316Y889077D01*
X-8336Y889074D01*
X-8355Y889076D01*
X-8457Y889054D01*
X-8559Y889038D01*
X-8576Y889028D01*
X-8596Y889024D01*
X-8685Y888971D01*
X-8776Y888922D01*
X-8790Y888908D01*
X-8807Y888898D01*
X-8874Y888819D01*
X-8946Y888744D01*
X-8954Y888726D01*
X-8967Y888711D01*
X-9006Y888615D01*
X-9049Y888521D01*
X-9051Y888501D01*
X-9059Y888483D01*
X-9077Y888316D01*
X-9077Y11684D01*
X-9074Y11664D01*
X-9076Y11645D01*
X-9054Y11543D01*
X-9038Y11441D01*
X-9028Y11424D01*
X-9024Y11404D01*
X-8971Y11315D01*
X-8922Y11224D01*
X-8908Y11210D01*
X-8898Y11193D01*
X-8819Y11126D01*
X-8744Y11054D01*
X-8726Y11046D01*
X-8711Y11033D01*
X-8615Y10994D01*
X-8521Y10951D01*
X-8501Y10949D01*
X-8483Y10941D01*
X-8316Y10923D01*
X1058316Y10923D01*
X1058336Y10926D01*
G37*
%LPC*%
G36*
X409450Y144919D02*
X409450Y144919D01*
X403907Y147215D01*
X346526Y204596D01*
X346452Y204649D01*
X346383Y204709D01*
X346353Y204721D01*
X346327Y204740D01*
X346240Y204767D01*
X346155Y204801D01*
X346114Y204805D01*
X346091Y204812D01*
X346059Y204811D01*
X345988Y204819D01*
X335045Y204819D01*
X332069Y207795D01*
X332069Y237405D01*
X335045Y240381D01*
X363765Y240381D01*
X363835Y240392D01*
X363907Y240394D01*
X363956Y240412D01*
X364007Y240420D01*
X364071Y240454D01*
X364138Y240479D01*
X364179Y240511D01*
X364225Y240536D01*
X364274Y240588D01*
X364330Y240632D01*
X364358Y240676D01*
X364394Y240714D01*
X364424Y240779D01*
X364463Y240839D01*
X364476Y240890D01*
X364498Y240937D01*
X364506Y241008D01*
X364523Y241078D01*
X364519Y241130D01*
X364525Y241181D01*
X364510Y241252D01*
X364504Y241323D01*
X364484Y241371D01*
X364473Y241422D01*
X364436Y241483D01*
X364408Y241549D01*
X364363Y241605D01*
X364346Y241633D01*
X364329Y241648D01*
X364303Y241680D01*
X175827Y430156D01*
X175827Y439237D01*
X175809Y439352D01*
X175791Y439468D01*
X175789Y439474D01*
X175788Y439480D01*
X175733Y439583D01*
X175680Y439688D01*
X175675Y439692D01*
X175672Y439698D01*
X175589Y439777D01*
X175504Y439860D01*
X175498Y439863D01*
X175494Y439867D01*
X175477Y439875D01*
X175357Y439941D01*
X174932Y440117D01*
X172217Y442832D01*
X170747Y446380D01*
X170747Y450220D01*
X172217Y453768D01*
X174932Y456483D01*
X178480Y457953D01*
X182320Y457953D01*
X185868Y456483D01*
X188583Y453768D01*
X190053Y450220D01*
X190053Y446380D01*
X188583Y442832D01*
X185868Y440117D01*
X185443Y439941D01*
X185343Y439879D01*
X185243Y439819D01*
X185239Y439814D01*
X185234Y439811D01*
X185159Y439721D01*
X185083Y439632D01*
X185081Y439626D01*
X185077Y439622D01*
X185035Y439514D01*
X184991Y439404D01*
X184990Y439397D01*
X184989Y439392D01*
X184988Y439374D01*
X184973Y439237D01*
X184973Y434259D01*
X184987Y434169D01*
X184995Y434078D01*
X185007Y434049D01*
X185012Y434017D01*
X185055Y433936D01*
X185091Y433852D01*
X185117Y433820D01*
X185128Y433799D01*
X185151Y433777D01*
X185196Y433721D01*
X403176Y215741D01*
X403270Y215673D01*
X403365Y215603D01*
X403371Y215601D01*
X403376Y215597D01*
X403486Y215563D01*
X403598Y215527D01*
X403605Y215527D01*
X403611Y215525D01*
X403728Y215528D01*
X403844Y215529D01*
X403852Y215531D01*
X403857Y215531D01*
X403874Y215538D01*
X404006Y215576D01*
X407021Y216825D01*
X412679Y216825D01*
X417908Y214659D01*
X421909Y210658D01*
X424075Y205429D01*
X424075Y199771D01*
X421909Y194542D01*
X417908Y190541D01*
X412679Y188375D01*
X407240Y188375D01*
X407169Y188364D01*
X407097Y188362D01*
X407049Y188344D01*
X406997Y188336D01*
X406934Y188302D01*
X406866Y188277D01*
X406826Y188245D01*
X406780Y188220D01*
X406730Y188168D01*
X406674Y188124D01*
X406646Y188080D01*
X406610Y188042D01*
X406580Y187977D01*
X406541Y187917D01*
X406529Y187866D01*
X406507Y187819D01*
X406499Y187748D01*
X406481Y187678D01*
X406485Y187626D01*
X406480Y187575D01*
X406495Y187504D01*
X406501Y187433D01*
X406521Y187385D01*
X406532Y187334D01*
X406569Y187273D01*
X406597Y187207D01*
X406642Y187151D01*
X406658Y187123D01*
X406676Y187108D01*
X406702Y187076D01*
X418474Y175304D01*
X418548Y175251D01*
X418617Y175191D01*
X418647Y175179D01*
X418673Y175160D01*
X418760Y175133D01*
X418845Y175099D01*
X418886Y175095D01*
X418909Y175088D01*
X418941Y175089D01*
X419012Y175081D01*
X906438Y175081D01*
X906528Y175095D01*
X906619Y175103D01*
X906649Y175115D01*
X906681Y175120D01*
X906761Y175163D01*
X906845Y175199D01*
X906877Y175225D01*
X906898Y175236D01*
X906920Y175259D01*
X906976Y175304D01*
X950284Y218612D01*
X950322Y218665D01*
X950368Y218712D01*
X950409Y218785D01*
X950428Y218811D01*
X950433Y218830D01*
X950449Y218859D01*
X950891Y219926D01*
X955274Y224309D01*
X961001Y226681D01*
X967199Y226681D01*
X972926Y224309D01*
X977309Y219926D01*
X979681Y214199D01*
X979681Y208001D01*
X977309Y202274D01*
X972926Y197891D01*
X971859Y197449D01*
X971803Y197415D01*
X971743Y197389D01*
X971678Y197337D01*
X971650Y197320D01*
X971637Y197305D01*
X971612Y197284D01*
X925892Y151565D01*
X921543Y147215D01*
X916000Y144919D01*
X409450Y144919D01*
G37*
%LPD*%
%LPC*%
G36*
X571373Y203138D02*
X571373Y203138D01*
X571370Y203158D01*
X571372Y203177D01*
X571350Y203279D01*
X571333Y203381D01*
X571324Y203398D01*
X571320Y203418D01*
X571267Y203507D01*
X571218Y203598D01*
X571204Y203612D01*
X571194Y203629D01*
X571115Y203696D01*
X571040Y203767D01*
X571022Y203776D01*
X571007Y203789D01*
X570911Y203827D01*
X570817Y203871D01*
X570797Y203873D01*
X570779Y203881D01*
X570612Y203899D01*
X569849Y203899D01*
X569849Y204662D01*
X569846Y204682D01*
X569848Y204701D01*
X569826Y204803D01*
X569809Y204905D01*
X569800Y204922D01*
X569796Y204942D01*
X569743Y205031D01*
X569694Y205122D01*
X569680Y205136D01*
X569670Y205153D01*
X569591Y205220D01*
X569516Y205291D01*
X569498Y205300D01*
X569483Y205313D01*
X569387Y205352D01*
X569293Y205395D01*
X569273Y205397D01*
X569255Y205405D01*
X569088Y205423D01*
X554661Y205423D01*
X554985Y207469D01*
X555726Y209750D01*
X556815Y211888D01*
X557699Y213105D01*
X557704Y213115D01*
X557713Y213124D01*
X557759Y213225D01*
X557809Y213324D01*
X557811Y213336D01*
X557816Y213347D01*
X557828Y213458D01*
X557844Y213568D01*
X557842Y213580D01*
X557843Y213591D01*
X557820Y213700D01*
X557799Y213810D01*
X557794Y213820D01*
X557791Y213832D01*
X557734Y213928D01*
X557680Y214025D01*
X557671Y214033D01*
X557665Y214043D01*
X557580Y214115D01*
X557498Y214190D01*
X557487Y214195D01*
X557478Y214203D01*
X557374Y214245D01*
X557273Y214289D01*
X557261Y214290D01*
X557250Y214295D01*
X557083Y214313D01*
X466891Y214313D01*
X463989Y217215D01*
X422164Y259040D01*
X422090Y259093D01*
X422021Y259152D01*
X421991Y259164D01*
X421965Y259183D01*
X421878Y259210D01*
X421793Y259244D01*
X421752Y259249D01*
X421729Y259256D01*
X421697Y259255D01*
X421626Y259263D01*
X364271Y259263D01*
X245021Y378512D01*
X245021Y443188D01*
X246958Y445125D01*
X247027Y445220D01*
X247096Y445314D01*
X247098Y445320D01*
X247102Y445325D01*
X247136Y445436D01*
X247172Y445548D01*
X247172Y445554D01*
X247174Y445560D01*
X247171Y445677D01*
X247170Y445794D01*
X247168Y445801D01*
X247168Y445806D01*
X247162Y445823D01*
X247123Y445955D01*
X246947Y446380D01*
X246947Y450220D01*
X248417Y453768D01*
X251132Y456483D01*
X254680Y457953D01*
X258520Y457953D01*
X262068Y456483D01*
X264783Y453768D01*
X266253Y450220D01*
X266253Y446380D01*
X264783Y442832D01*
X262068Y440117D01*
X258520Y438647D01*
X254928Y438647D01*
X254908Y438644D01*
X254889Y438646D01*
X254787Y438624D01*
X254685Y438608D01*
X254668Y438598D01*
X254648Y438594D01*
X254559Y438541D01*
X254468Y438492D01*
X254454Y438478D01*
X254437Y438468D01*
X254370Y438389D01*
X254298Y438314D01*
X254290Y438296D01*
X254277Y438281D01*
X254238Y438185D01*
X254195Y438091D01*
X254193Y438071D01*
X254185Y438053D01*
X254167Y437886D01*
X254167Y382615D01*
X254181Y382525D01*
X254189Y382434D01*
X254201Y382405D01*
X254206Y382373D01*
X254249Y382292D01*
X254285Y382208D01*
X254311Y382176D01*
X254322Y382155D01*
X254345Y382133D01*
X254390Y382077D01*
X334688Y301779D01*
X334767Y301722D01*
X334842Y301660D01*
X334867Y301650D01*
X334888Y301635D01*
X334981Y301606D01*
X335072Y301571D01*
X335098Y301570D01*
X335123Y301563D01*
X335220Y301565D01*
X335318Y301561D01*
X335343Y301568D01*
X335369Y301569D01*
X335461Y301603D01*
X335554Y301630D01*
X335575Y301644D01*
X335600Y301653D01*
X335676Y301714D01*
X335756Y301770D01*
X335772Y301791D01*
X335792Y301807D01*
X335845Y301889D01*
X335903Y301967D01*
X335911Y301992D01*
X335925Y302014D01*
X335949Y302108D01*
X335979Y302201D01*
X335979Y302227D01*
X335985Y302253D01*
X335978Y302350D01*
X335977Y302447D01*
X335967Y302478D01*
X335966Y302498D01*
X335953Y302528D01*
X335930Y302608D01*
X334955Y304961D01*
X334955Y323839D01*
X336347Y327200D01*
X338920Y329773D01*
X342281Y331165D01*
X345919Y331165D01*
X349280Y329773D01*
X351853Y327200D01*
X352955Y324539D01*
X353006Y324456D01*
X353052Y324370D01*
X353071Y324352D01*
X353084Y324330D01*
X353159Y324268D01*
X353230Y324201D01*
X353254Y324190D01*
X353274Y324173D01*
X353365Y324138D01*
X353453Y324097D01*
X353479Y324094D01*
X353503Y324085D01*
X353601Y324081D01*
X353697Y324070D01*
X353723Y324076D01*
X353749Y324075D01*
X353843Y324102D01*
X353938Y324122D01*
X353960Y324136D01*
X353985Y324143D01*
X354065Y324199D01*
X354149Y324249D01*
X354166Y324269D01*
X354187Y324283D01*
X354246Y324362D01*
X354309Y324436D01*
X354319Y324460D01*
X354334Y324481D01*
X354364Y324573D01*
X354401Y324664D01*
X354404Y324696D01*
X354410Y324715D01*
X354410Y324748D01*
X354419Y324830D01*
X354419Y347400D01*
X356715Y352943D01*
X361065Y357292D01*
X434508Y430735D01*
X434508Y430736D01*
X438857Y435085D01*
X444400Y437381D01*
X526015Y437381D01*
X526063Y437388D01*
X526111Y437387D01*
X526183Y437408D01*
X526258Y437420D01*
X526300Y437443D01*
X526346Y437457D01*
X526409Y437500D01*
X526475Y437536D01*
X526508Y437570D01*
X526548Y437598D01*
X526593Y437659D01*
X526645Y437714D01*
X526665Y437757D01*
X526693Y437796D01*
X526717Y437868D01*
X526748Y437937D01*
X526754Y437985D01*
X526768Y438030D01*
X526767Y438106D01*
X526775Y438181D01*
X526765Y438228D01*
X526765Y438276D01*
X526739Y438348D01*
X526723Y438422D01*
X526699Y438463D01*
X526683Y438508D01*
X526636Y438568D01*
X526597Y438633D01*
X526561Y438664D01*
X526531Y438702D01*
X526427Y438778D01*
X526410Y438793D01*
X526404Y438795D01*
X526396Y438801D01*
X524551Y439866D01*
X519866Y444551D01*
X516554Y450288D01*
X514839Y456688D01*
X514839Y463312D01*
X516554Y469712D01*
X519866Y475449D01*
X524551Y480134D01*
X530288Y483446D01*
X536688Y485161D01*
X543312Y485161D01*
X549712Y483446D01*
X555449Y480134D01*
X560134Y475449D01*
X563446Y469712D01*
X565161Y463312D01*
X565161Y456688D01*
X563446Y450288D01*
X560134Y444551D01*
X555449Y439866D01*
X553604Y438801D01*
X553567Y438771D01*
X553525Y438748D01*
X553473Y438694D01*
X553414Y438645D01*
X553388Y438605D01*
X553355Y438570D01*
X553323Y438501D01*
X553283Y438437D01*
X553272Y438390D01*
X553252Y438347D01*
X553243Y438272D01*
X553226Y438198D01*
X553230Y438150D01*
X553225Y438103D01*
X553241Y438028D01*
X553247Y437953D01*
X553267Y437909D01*
X553277Y437862D01*
X553316Y437797D01*
X553346Y437728D01*
X553378Y437692D01*
X553403Y437651D01*
X553460Y437602D01*
X553512Y437546D01*
X553553Y437522D01*
X553590Y437491D01*
X553660Y437463D01*
X553726Y437426D01*
X553773Y437417D01*
X553818Y437399D01*
X553946Y437385D01*
X553968Y437381D01*
X553975Y437382D01*
X553985Y437381D01*
X667619Y437381D01*
X667638Y437384D01*
X667658Y437382D01*
X667759Y437404D01*
X667861Y437420D01*
X667879Y437430D01*
X667898Y437434D01*
X667987Y437487D01*
X668079Y437536D01*
X668092Y437550D01*
X668109Y437560D01*
X668177Y437639D01*
X668248Y437714D01*
X668256Y437732D01*
X668269Y437747D01*
X668308Y437843D01*
X668352Y437937D01*
X668354Y437957D01*
X668361Y437975D01*
X668380Y438142D01*
X668380Y446786D01*
X670864Y452784D01*
X675455Y457375D01*
X681454Y459860D01*
X687946Y459860D01*
X693945Y457375D01*
X698536Y452784D01*
X701020Y446786D01*
X701020Y417814D01*
X698536Y411816D01*
X693945Y407225D01*
X687946Y404740D01*
X681454Y404740D01*
X675609Y407161D01*
X675545Y407176D01*
X675484Y407201D01*
X675401Y407210D01*
X675369Y407217D01*
X675350Y407216D01*
X675317Y407219D01*
X453962Y407219D01*
X453872Y407205D01*
X453781Y407197D01*
X453751Y407185D01*
X453719Y407180D01*
X453639Y407137D01*
X453555Y407101D01*
X453523Y407075D01*
X453502Y407064D01*
X453480Y407041D01*
X453424Y406996D01*
X384804Y338376D01*
X384751Y338302D01*
X384691Y338233D01*
X384679Y338203D01*
X384660Y338177D01*
X384633Y338090D01*
X384599Y338005D01*
X384595Y337964D01*
X384588Y337941D01*
X384589Y337909D01*
X384581Y337838D01*
X384581Y327319D01*
X384592Y327252D01*
X384593Y327184D01*
X384611Y327131D01*
X384620Y327076D01*
X384652Y327017D01*
X384675Y326952D01*
X384709Y326908D01*
X384736Y326859D01*
X384785Y326812D01*
X384827Y326759D01*
X384873Y326728D01*
X384914Y326690D01*
X384975Y326661D01*
X385032Y326624D01*
X385086Y326609D01*
X385137Y326586D01*
X385204Y326578D01*
X385270Y326561D01*
X385326Y326565D01*
X385381Y326559D01*
X385448Y326573D01*
X385515Y326578D01*
X385567Y326599D01*
X385622Y326611D01*
X385680Y326646D01*
X385743Y326672D01*
X385785Y326709D01*
X385833Y326737D01*
X385877Y326789D01*
X385928Y326833D01*
X385971Y326899D01*
X385993Y326924D01*
X386001Y326944D01*
X386020Y326973D01*
X386210Y327345D01*
X387150Y328639D01*
X388281Y329770D01*
X389575Y330710D01*
X391000Y331436D01*
X392521Y331931D01*
X393377Y332066D01*
X393377Y315162D01*
X393380Y315142D01*
X393378Y315123D01*
X393400Y315021D01*
X393417Y314919D01*
X393426Y314902D01*
X393430Y314882D01*
X393483Y314793D01*
X393532Y314702D01*
X393546Y314688D01*
X393556Y314671D01*
X393635Y314604D01*
X393710Y314533D01*
X393728Y314524D01*
X393743Y314511D01*
X393839Y314473D01*
X393933Y314429D01*
X393953Y314427D01*
X393971Y314419D01*
X394138Y314401D01*
X394901Y314401D01*
X394901Y314399D01*
X394138Y314399D01*
X394118Y314396D01*
X394099Y314398D01*
X393997Y314376D01*
X393895Y314359D01*
X393878Y314350D01*
X393858Y314346D01*
X393769Y314293D01*
X393678Y314244D01*
X393664Y314230D01*
X393647Y314220D01*
X393580Y314141D01*
X393509Y314066D01*
X393500Y314048D01*
X393487Y314033D01*
X393448Y313937D01*
X393405Y313843D01*
X393403Y313823D01*
X393395Y313805D01*
X393377Y313638D01*
X393377Y296734D01*
X392521Y296869D01*
X391000Y297364D01*
X389575Y298090D01*
X388281Y299030D01*
X387150Y300161D01*
X386210Y301455D01*
X385484Y302880D01*
X384989Y304401D01*
X384739Y305980D01*
X384739Y307956D01*
X384724Y308052D01*
X384714Y308149D01*
X384704Y308173D01*
X384700Y308199D01*
X384654Y308285D01*
X384614Y308374D01*
X384597Y308393D01*
X384584Y308416D01*
X384514Y308483D01*
X384448Y308555D01*
X384425Y308567D01*
X384406Y308585D01*
X384318Y308626D01*
X384232Y308673D01*
X384207Y308678D01*
X384183Y308689D01*
X384086Y308700D01*
X383990Y308717D01*
X383964Y308713D01*
X383939Y308716D01*
X383843Y308696D01*
X383747Y308681D01*
X383724Y308670D01*
X383698Y308664D01*
X383615Y308614D01*
X383528Y308570D01*
X383509Y308551D01*
X383487Y308538D01*
X383424Y308464D01*
X383356Y308394D01*
X383340Y308366D01*
X383327Y308351D01*
X383315Y308320D01*
X383275Y308247D01*
X382259Y305794D01*
X382249Y305755D01*
X382239Y305731D01*
X382236Y305713D01*
X382219Y305670D01*
X382210Y305587D01*
X382203Y305555D01*
X382204Y305536D01*
X382201Y305503D01*
X382201Y304254D01*
X380267Y299586D01*
X376694Y296013D01*
X372026Y294079D01*
X366974Y294079D01*
X362306Y296013D01*
X358733Y299586D01*
X356799Y304254D01*
X356799Y305503D01*
X356789Y305568D01*
X356788Y305633D01*
X356765Y305713D01*
X356760Y305746D01*
X356750Y305763D01*
X356741Y305794D01*
X354709Y310700D01*
X354658Y310783D01*
X354612Y310869D01*
X354593Y310887D01*
X354580Y310909D01*
X354505Y310971D01*
X354434Y311038D01*
X354410Y311049D01*
X354390Y311066D01*
X354299Y311101D01*
X354211Y311142D01*
X354185Y311145D01*
X354161Y311154D01*
X354063Y311158D01*
X353967Y311169D01*
X353941Y311163D01*
X353915Y311165D01*
X353821Y311137D01*
X353726Y311117D01*
X353704Y311103D01*
X353679Y311096D01*
X353599Y311041D01*
X353515Y310991D01*
X353498Y310971D01*
X353477Y310956D01*
X353418Y310878D01*
X353355Y310804D01*
X353345Y310779D01*
X353330Y310758D01*
X353300Y310666D01*
X353263Y310576D01*
X353260Y310543D01*
X353254Y310525D01*
X353254Y310492D01*
X353245Y310409D01*
X353245Y304961D01*
X351853Y301600D01*
X349280Y299027D01*
X345919Y297635D01*
X342281Y297635D01*
X339928Y298610D01*
X339833Y298632D01*
X339740Y298661D01*
X339714Y298660D01*
X339689Y298666D01*
X339592Y298657D01*
X339494Y298654D01*
X339470Y298645D01*
X339444Y298643D01*
X339355Y298603D01*
X339263Y298570D01*
X339243Y298554D01*
X339219Y298543D01*
X339147Y298477D01*
X339071Y298416D01*
X339057Y298394D01*
X339038Y298377D01*
X338991Y298291D01*
X338938Y298209D01*
X338932Y298184D01*
X338919Y298161D01*
X338902Y298065D01*
X338878Y297971D01*
X338880Y297945D01*
X338876Y297919D01*
X338890Y297822D01*
X338897Y297726D01*
X338908Y297702D01*
X338911Y297676D01*
X338956Y297589D01*
X338994Y297499D01*
X339014Y297474D01*
X339023Y297456D01*
X339047Y297433D01*
X339099Y297368D01*
X367836Y268631D01*
X367910Y268578D01*
X367979Y268519D01*
X368009Y268506D01*
X368036Y268488D01*
X368122Y268461D01*
X368207Y268427D01*
X368248Y268422D01*
X368271Y268415D01*
X368303Y268416D01*
X368374Y268408D01*
X425729Y268408D01*
X428631Y265507D01*
X428631Y265506D01*
X470456Y223682D01*
X470530Y223629D01*
X470599Y223569D01*
X470629Y223557D01*
X470656Y223538D01*
X470743Y223511D01*
X470827Y223477D01*
X470868Y223473D01*
X470891Y223466D01*
X470923Y223467D01*
X470994Y223459D01*
X577952Y223459D01*
X592715Y208696D01*
X592789Y208643D01*
X592858Y208583D01*
X592888Y208571D01*
X592914Y208552D01*
X593001Y208525D01*
X593086Y208491D01*
X593127Y208487D01*
X593149Y208480D01*
X593182Y208481D01*
X593253Y208473D01*
X611308Y208473D01*
X611328Y208476D01*
X611347Y208474D01*
X611449Y208496D01*
X611551Y208512D01*
X611568Y208522D01*
X611588Y208526D01*
X611677Y208579D01*
X611768Y208628D01*
X611782Y208642D01*
X611799Y208652D01*
X611866Y208731D01*
X611938Y208806D01*
X611946Y208824D01*
X611959Y208839D01*
X611998Y208935D01*
X612041Y209029D01*
X612043Y209049D01*
X612051Y209067D01*
X612069Y209234D01*
X612069Y238705D01*
X615045Y241681D01*
X644655Y241681D01*
X647631Y238705D01*
X647631Y209234D01*
X647634Y209214D01*
X647632Y209195D01*
X647654Y209093D01*
X647670Y208991D01*
X647680Y208974D01*
X647684Y208954D01*
X647737Y208865D01*
X647786Y208774D01*
X647800Y208760D01*
X647810Y208743D01*
X647889Y208676D01*
X647964Y208604D01*
X647982Y208596D01*
X647997Y208583D01*
X648093Y208544D01*
X648187Y208501D01*
X648207Y208499D01*
X648225Y208491D01*
X648392Y208473D01*
X675839Y208473D01*
X675953Y208492D01*
X676070Y208509D01*
X676075Y208511D01*
X676081Y208512D01*
X676184Y208567D01*
X676289Y208620D01*
X676293Y208625D01*
X676299Y208628D01*
X676379Y208712D01*
X676461Y208796D01*
X676465Y208802D01*
X676468Y208806D01*
X676476Y208823D01*
X676542Y208943D01*
X677791Y211958D01*
X681792Y215959D01*
X687021Y218125D01*
X692679Y218125D01*
X697908Y215959D01*
X701909Y211958D01*
X704075Y206729D01*
X704075Y201071D01*
X701909Y195842D01*
X697908Y191841D01*
X692679Y189675D01*
X687021Y189675D01*
X681792Y191841D01*
X677791Y195842D01*
X676542Y198857D01*
X676480Y198957D01*
X676420Y199057D01*
X676416Y199061D01*
X676412Y199066D01*
X676322Y199141D01*
X676234Y199217D01*
X676228Y199219D01*
X676223Y199223D01*
X676115Y199265D01*
X676005Y199309D01*
X675998Y199310D01*
X675993Y199311D01*
X675975Y199312D01*
X675839Y199327D01*
X589149Y199327D01*
X586241Y202236D01*
X586231Y202243D01*
X586224Y202252D01*
X586131Y202314D01*
X586041Y202379D01*
X586030Y202383D01*
X586020Y202390D01*
X585913Y202419D01*
X585806Y202452D01*
X585794Y202451D01*
X585783Y202455D01*
X585672Y202448D01*
X585560Y202445D01*
X585549Y202441D01*
X585537Y202440D01*
X585434Y202399D01*
X585329Y202361D01*
X585320Y202353D01*
X585309Y202349D01*
X585224Y202277D01*
X585137Y202207D01*
X585131Y202197D01*
X585122Y202189D01*
X585064Y202094D01*
X585004Y202000D01*
X585001Y201989D01*
X584995Y201978D01*
X584951Y201817D01*
X584715Y200331D01*
X583974Y198050D01*
X582885Y195912D01*
X581475Y193971D01*
X579779Y192275D01*
X577838Y190865D01*
X575700Y189776D01*
X573419Y189035D01*
X571373Y188711D01*
X571373Y203138D01*
G37*
%LPD*%
%LPC*%
G36*
X337450Y14919D02*
X337450Y14919D01*
X331907Y17215D01*
X327558Y21565D01*
X286403Y62719D01*
X286350Y62757D01*
X286303Y62803D01*
X286230Y62844D01*
X286204Y62863D01*
X286185Y62868D01*
X286156Y62884D01*
X279778Y65526D01*
X274776Y70528D01*
X272069Y77063D01*
X272069Y84137D01*
X274776Y90672D01*
X279778Y95674D01*
X286313Y98381D01*
X293387Y98381D01*
X299922Y95674D01*
X304924Y90672D01*
X307566Y84294D01*
X307600Y84238D01*
X307626Y84178D01*
X307678Y84113D01*
X307695Y84084D01*
X307710Y84072D01*
X307731Y84047D01*
X346474Y45304D01*
X346548Y45251D01*
X346617Y45191D01*
X346647Y45179D01*
X346673Y45160D01*
X346760Y45133D01*
X346845Y45099D01*
X346886Y45095D01*
X346909Y45088D01*
X346941Y45089D01*
X347012Y45081D01*
X554158Y45081D01*
X554178Y45084D01*
X554197Y45082D01*
X554299Y45104D01*
X554401Y45120D01*
X554418Y45130D01*
X554438Y45134D01*
X554527Y45187D01*
X554618Y45236D01*
X554632Y45250D01*
X554649Y45260D01*
X554716Y45339D01*
X554788Y45414D01*
X554796Y45432D01*
X554809Y45447D01*
X554848Y45543D01*
X554891Y45637D01*
X554893Y45657D01*
X554901Y45675D01*
X554919Y45842D01*
X554919Y71370D01*
X554904Y71460D01*
X554897Y71551D01*
X554885Y71581D01*
X554880Y71612D01*
X554837Y71693D01*
X554801Y71777D01*
X554793Y71787D01*
X552069Y78363D01*
X552069Y85437D01*
X554776Y91972D01*
X559778Y96974D01*
X566313Y99681D01*
X573387Y99681D01*
X579922Y96974D01*
X584924Y91972D01*
X587631Y85437D01*
X587631Y78363D01*
X585139Y72347D01*
X585124Y72283D01*
X585099Y72222D01*
X585090Y72139D01*
X585083Y72107D01*
X585084Y72088D01*
X585081Y72056D01*
X585081Y45842D01*
X585084Y45822D01*
X585082Y45803D01*
X585104Y45701D01*
X585120Y45599D01*
X585130Y45582D01*
X585134Y45562D01*
X585187Y45473D01*
X585236Y45382D01*
X585250Y45368D01*
X585260Y45351D01*
X585339Y45284D01*
X585414Y45212D01*
X585432Y45204D01*
X585447Y45191D01*
X585543Y45152D01*
X585637Y45109D01*
X585657Y45107D01*
X585675Y45099D01*
X585842Y45081D01*
X769538Y45081D01*
X769628Y45095D01*
X769719Y45103D01*
X769749Y45115D01*
X769781Y45120D01*
X769861Y45163D01*
X769945Y45199D01*
X769977Y45225D01*
X769998Y45236D01*
X770020Y45259D01*
X770076Y45304D01*
X783196Y58424D01*
X783249Y58498D01*
X783309Y58567D01*
X783321Y58597D01*
X783340Y58623D01*
X783367Y58710D01*
X783401Y58795D01*
X783405Y58836D01*
X783412Y58859D01*
X783411Y58891D01*
X783419Y58962D01*
X783419Y94770D01*
X783409Y94835D01*
X783408Y94901D01*
X783385Y94981D01*
X783380Y95013D01*
X783370Y95030D01*
X783361Y95062D01*
X782180Y97914D01*
X782180Y126886D01*
X784664Y132884D01*
X789255Y137475D01*
X795254Y139960D01*
X801746Y139960D01*
X807745Y137475D01*
X812336Y132884D01*
X814820Y126886D01*
X814820Y97914D01*
X813639Y95062D01*
X813624Y94998D01*
X813599Y94937D01*
X813590Y94854D01*
X813583Y94822D01*
X813584Y94803D01*
X813581Y94770D01*
X813581Y49400D01*
X811285Y43857D01*
X784643Y17215D01*
X779100Y14919D01*
X337450Y14919D01*
G37*
%LPD*%
%LPC*%
G36*
X935863Y327969D02*
X935863Y327969D01*
X929328Y330676D01*
X924326Y335678D01*
X921684Y342056D01*
X921650Y342112D01*
X921624Y342172D01*
X921572Y342237D01*
X921555Y342266D01*
X921540Y342278D01*
X921519Y342303D01*
X847215Y416607D01*
X844919Y422150D01*
X844919Y513128D01*
X844916Y513148D01*
X844918Y513167D01*
X844896Y513269D01*
X844880Y513371D01*
X844870Y513388D01*
X844866Y513408D01*
X844813Y513497D01*
X844764Y513588D01*
X844750Y513602D01*
X844740Y513619D01*
X844661Y513686D01*
X844586Y513758D01*
X844568Y513766D01*
X844553Y513779D01*
X844457Y513818D01*
X844363Y513861D01*
X844343Y513863D01*
X844325Y513871D01*
X844158Y513889D01*
X737430Y513889D01*
X731887Y516185D01*
X690417Y557655D01*
X690323Y557723D01*
X690229Y557793D01*
X690223Y557795D01*
X690218Y557799D01*
X690107Y557833D01*
X689995Y557869D01*
X689989Y557869D01*
X689983Y557871D01*
X689866Y557868D01*
X689749Y557867D01*
X689742Y557865D01*
X689737Y557865D01*
X689719Y557858D01*
X689588Y557820D01*
X687946Y557140D01*
X681454Y557140D01*
X675455Y559625D01*
X670864Y564216D01*
X668380Y570214D01*
X668380Y599186D01*
X670864Y605184D01*
X675455Y609775D01*
X681454Y612260D01*
X687946Y612260D01*
X693945Y609775D01*
X698536Y605184D01*
X701020Y599186D01*
X701020Y590022D01*
X701035Y589932D01*
X701042Y589841D01*
X701055Y589812D01*
X701060Y589780D01*
X701103Y589699D01*
X701138Y589615D01*
X701164Y589583D01*
X701175Y589562D01*
X701198Y589540D01*
X701243Y589484D01*
X746454Y544274D01*
X746528Y544221D01*
X746597Y544161D01*
X746627Y544149D01*
X746653Y544130D01*
X746740Y544103D01*
X746825Y544069D01*
X746866Y544065D01*
X746889Y544058D01*
X746921Y544059D01*
X746992Y544051D01*
X894758Y544051D01*
X894848Y544065D01*
X894939Y544073D01*
X894969Y544085D01*
X895001Y544090D01*
X895081Y544133D01*
X895165Y544169D01*
X895197Y544195D01*
X895218Y544206D01*
X895240Y544229D01*
X895296Y544274D01*
X920219Y569197D01*
X920257Y569250D01*
X920303Y569297D01*
X920344Y569370D01*
X920363Y569396D01*
X920368Y569415D01*
X920384Y569444D01*
X923026Y575822D01*
X928028Y580824D01*
X934563Y583531D01*
X941637Y583531D01*
X948172Y580824D01*
X953174Y575822D01*
X955881Y569287D01*
X955881Y562213D01*
X953174Y555678D01*
X948172Y550676D01*
X941794Y548034D01*
X941738Y548000D01*
X941678Y547974D01*
X941613Y547922D01*
X941584Y547905D01*
X941572Y547890D01*
X941547Y547869D01*
X909863Y516185D01*
X904320Y513889D01*
X875842Y513889D01*
X875822Y513886D01*
X875803Y513888D01*
X875701Y513866D01*
X875599Y513850D01*
X875582Y513840D01*
X875562Y513836D01*
X875473Y513783D01*
X875382Y513734D01*
X875368Y513720D01*
X875351Y513710D01*
X875284Y513631D01*
X875212Y513556D01*
X875204Y513538D01*
X875191Y513523D01*
X875152Y513427D01*
X875109Y513333D01*
X875107Y513313D01*
X875099Y513295D01*
X875081Y513128D01*
X875081Y431712D01*
X875095Y431622D01*
X875103Y431531D01*
X875115Y431501D01*
X875120Y431469D01*
X875163Y431389D01*
X875199Y431305D01*
X875225Y431273D01*
X875236Y431252D01*
X875259Y431230D01*
X875304Y431174D01*
X942847Y363631D01*
X942900Y363593D01*
X942947Y363547D01*
X943020Y363506D01*
X943046Y363487D01*
X943065Y363482D01*
X943094Y363466D01*
X949472Y360824D01*
X954474Y355822D01*
X957181Y349287D01*
X957181Y342213D01*
X954474Y335678D01*
X949472Y330676D01*
X942937Y327969D01*
X935863Y327969D01*
G37*
%LPD*%
%LPC*%
G36*
X795254Y237240D02*
X795254Y237240D01*
X789255Y239725D01*
X784664Y244316D01*
X782180Y250314D01*
X782180Y254158D01*
X782177Y254178D01*
X782179Y254197D01*
X782157Y254299D01*
X782140Y254401D01*
X782131Y254418D01*
X782126Y254438D01*
X782073Y254527D01*
X782025Y254618D01*
X782011Y254632D01*
X782000Y254649D01*
X781922Y254716D01*
X781847Y254788D01*
X781829Y254796D01*
X781813Y254809D01*
X781717Y254848D01*
X781624Y254891D01*
X781604Y254893D01*
X781585Y254901D01*
X781419Y254919D01*
X497000Y254919D01*
X491457Y257215D01*
X487215Y261457D01*
X484919Y267000D01*
X484919Y299829D01*
X484908Y299900D01*
X484906Y299971D01*
X484888Y300020D01*
X484880Y300072D01*
X484846Y300135D01*
X484821Y300202D01*
X484789Y300243D01*
X484764Y300289D01*
X484712Y300338D01*
X484668Y300394D01*
X484624Y300423D01*
X484586Y300458D01*
X484521Y300489D01*
X484461Y300527D01*
X484410Y300540D01*
X484363Y300562D01*
X484292Y300570D01*
X484222Y300587D01*
X484170Y300583D01*
X484119Y300589D01*
X484048Y300574D01*
X483977Y300568D01*
X483929Y300548D01*
X483878Y300537D01*
X483817Y300500D01*
X483751Y300472D01*
X483695Y300427D01*
X483667Y300411D01*
X483652Y300393D01*
X483620Y300367D01*
X482280Y299027D01*
X478919Y297635D01*
X475281Y297635D01*
X471920Y299027D01*
X469347Y301600D01*
X467955Y304961D01*
X467955Y323839D01*
X469347Y327200D01*
X471920Y329773D01*
X475281Y331165D01*
X478919Y331165D01*
X482280Y329773D01*
X484853Y327200D01*
X486245Y323839D01*
X486245Y321310D01*
X486256Y321239D01*
X486258Y321167D01*
X486276Y321119D01*
X486284Y321067D01*
X486318Y321004D01*
X486343Y320936D01*
X486375Y320896D01*
X486400Y320850D01*
X486452Y320800D01*
X486496Y320744D01*
X486540Y320716D01*
X486578Y320680D01*
X486643Y320650D01*
X486703Y320611D01*
X486754Y320599D01*
X486801Y320577D01*
X486872Y320569D01*
X486942Y320551D01*
X486994Y320555D01*
X487045Y320550D01*
X487116Y320565D01*
X487187Y320571D01*
X487235Y320591D01*
X487286Y320602D01*
X487347Y320639D01*
X487413Y320667D01*
X487469Y320712D01*
X487497Y320728D01*
X487512Y320746D01*
X487544Y320772D01*
X489576Y322804D01*
X489629Y322878D01*
X489689Y322947D01*
X489701Y322977D01*
X489720Y323003D01*
X489747Y323091D01*
X489781Y323175D01*
X489785Y323216D01*
X489792Y323239D01*
X489791Y323271D01*
X489799Y323342D01*
X489799Y324546D01*
X491733Y329214D01*
X495306Y332787D01*
X499974Y334721D01*
X505026Y334721D01*
X509694Y332787D01*
X513267Y329214D01*
X515201Y324546D01*
X515201Y323297D01*
X515211Y323232D01*
X515212Y323167D01*
X515235Y323087D01*
X515240Y323054D01*
X515250Y323037D01*
X515259Y323006D01*
X516275Y320553D01*
X516326Y320470D01*
X516372Y320384D01*
X516390Y320366D01*
X516404Y320344D01*
X516480Y320281D01*
X516550Y320215D01*
X516574Y320204D01*
X516594Y320187D01*
X516685Y320152D01*
X516773Y320111D01*
X516799Y320108D01*
X516823Y320099D01*
X516921Y320095D01*
X517017Y320084D01*
X517043Y320089D01*
X517069Y320088D01*
X517163Y320115D01*
X517258Y320136D01*
X517280Y320150D01*
X517305Y320157D01*
X517385Y320212D01*
X517469Y320262D01*
X517486Y320282D01*
X517507Y320297D01*
X517566Y320375D01*
X517629Y320449D01*
X517639Y320473D01*
X517654Y320494D01*
X517684Y320587D01*
X517721Y320677D01*
X517724Y320710D01*
X517730Y320728D01*
X517730Y320761D01*
X517739Y320844D01*
X517739Y322820D01*
X517989Y324399D01*
X518484Y325920D01*
X519210Y327345D01*
X520150Y328639D01*
X521281Y329770D01*
X522575Y330710D01*
X524000Y331436D01*
X525521Y331931D01*
X526377Y332066D01*
X526377Y315162D01*
X526380Y315142D01*
X526378Y315123D01*
X526400Y315021D01*
X526417Y314919D01*
X526426Y314902D01*
X526430Y314882D01*
X526483Y314793D01*
X526532Y314702D01*
X526546Y314688D01*
X526556Y314671D01*
X526635Y314604D01*
X526710Y314533D01*
X526728Y314524D01*
X526743Y314511D01*
X526839Y314473D01*
X526933Y314429D01*
X526953Y314427D01*
X526971Y314419D01*
X527138Y314401D01*
X527901Y314401D01*
X527901Y314399D01*
X527138Y314399D01*
X527118Y314396D01*
X527099Y314398D01*
X526997Y314376D01*
X526895Y314359D01*
X526878Y314350D01*
X526858Y314346D01*
X526769Y314293D01*
X526678Y314244D01*
X526664Y314230D01*
X526647Y314220D01*
X526580Y314141D01*
X526509Y314066D01*
X526500Y314048D01*
X526487Y314033D01*
X526448Y313937D01*
X526405Y313843D01*
X526403Y313823D01*
X526395Y313805D01*
X526377Y313638D01*
X526377Y296734D01*
X525521Y296869D01*
X524000Y297364D01*
X522575Y298090D01*
X521281Y299030D01*
X520150Y300161D01*
X519210Y301455D01*
X518484Y302880D01*
X517989Y304401D01*
X517739Y305980D01*
X517739Y307956D01*
X517724Y308052D01*
X517714Y308149D01*
X517704Y308173D01*
X517700Y308199D01*
X517654Y308285D01*
X517614Y308374D01*
X517597Y308393D01*
X517584Y308416D01*
X517514Y308483D01*
X517448Y308555D01*
X517425Y308567D01*
X517406Y308585D01*
X517318Y308626D01*
X517232Y308673D01*
X517207Y308678D01*
X517183Y308689D01*
X517086Y308700D01*
X516990Y308717D01*
X516964Y308713D01*
X516939Y308716D01*
X516843Y308695D01*
X516747Y308681D01*
X516724Y308669D01*
X516698Y308664D01*
X516615Y308614D01*
X516528Y308570D01*
X516509Y308551D01*
X516487Y308538D01*
X516424Y308464D01*
X516356Y308394D01*
X516340Y308366D01*
X516327Y308351D01*
X516315Y308320D01*
X516275Y308247D01*
X515259Y305794D01*
X515249Y305755D01*
X515239Y305731D01*
X515236Y305713D01*
X515219Y305670D01*
X515210Y305587D01*
X515203Y305555D01*
X515204Y305536D01*
X515201Y305503D01*
X515201Y304254D01*
X515139Y304104D01*
X515124Y304040D01*
X515099Y303979D01*
X515090Y303896D01*
X515083Y303864D01*
X515084Y303845D01*
X515081Y303813D01*
X515081Y285842D01*
X515084Y285822D01*
X515082Y285803D01*
X515104Y285701D01*
X515120Y285599D01*
X515130Y285582D01*
X515134Y285562D01*
X515187Y285473D01*
X515236Y285382D01*
X515250Y285368D01*
X515260Y285351D01*
X515339Y285284D01*
X515414Y285212D01*
X515432Y285204D01*
X515447Y285191D01*
X515543Y285152D01*
X515637Y285109D01*
X515657Y285107D01*
X515675Y285099D01*
X515842Y285081D01*
X784146Y285081D01*
X784236Y285095D01*
X784327Y285103D01*
X784356Y285115D01*
X784388Y285120D01*
X784469Y285163D01*
X784553Y285199D01*
X784585Y285225D01*
X784606Y285236D01*
X784628Y285259D01*
X784684Y285304D01*
X789255Y289875D01*
X795254Y292360D01*
X801746Y292360D01*
X807745Y289875D01*
X812336Y285284D01*
X814820Y279286D01*
X814820Y250314D01*
X812336Y244316D01*
X807745Y239725D01*
X801746Y237240D01*
X795254Y237240D01*
G37*
%LPD*%
%LPC*%
G36*
X254680Y514847D02*
X254680Y514847D01*
X251132Y516317D01*
X248417Y519032D01*
X246947Y522580D01*
X246947Y526420D01*
X248417Y529968D01*
X251132Y532683D01*
X254680Y534153D01*
X258520Y534153D01*
X262068Y532683D01*
X264783Y529968D01*
X264959Y529543D01*
X265021Y529443D01*
X265081Y529343D01*
X265086Y529339D01*
X265089Y529334D01*
X265179Y529259D01*
X265268Y529183D01*
X265274Y529181D01*
X265278Y529177D01*
X265386Y529135D01*
X265496Y529091D01*
X265503Y529090D01*
X265508Y529089D01*
X265526Y529088D01*
X265663Y529073D01*
X482291Y529073D01*
X482381Y529087D01*
X482472Y529095D01*
X482501Y529107D01*
X482533Y529112D01*
X482614Y529155D01*
X482698Y529191D01*
X482730Y529217D01*
X482751Y529228D01*
X482773Y529251D01*
X482829Y529296D01*
X635204Y681671D01*
X635257Y681745D01*
X635317Y681815D01*
X635329Y681845D01*
X635348Y681871D01*
X635375Y681958D01*
X635409Y682043D01*
X635413Y682084D01*
X635420Y682106D01*
X635419Y682138D01*
X635427Y682209D01*
X635427Y691894D01*
X638106Y694573D01*
X804491Y694573D01*
X804581Y694587D01*
X804672Y694595D01*
X804701Y694607D01*
X804733Y694612D01*
X804814Y694655D01*
X804898Y694691D01*
X804930Y694717D01*
X804951Y694728D01*
X804973Y694751D01*
X805029Y694796D01*
X808042Y697809D01*
X813271Y699975D01*
X818929Y699975D01*
X824158Y697809D01*
X828159Y693808D01*
X830325Y688579D01*
X830325Y682921D01*
X828159Y677692D01*
X824158Y673691D01*
X818929Y671525D01*
X813271Y671525D01*
X808042Y673691D01*
X804041Y677692D01*
X801875Y682921D01*
X801875Y684666D01*
X801872Y684686D01*
X801874Y684705D01*
X801852Y684807D01*
X801836Y684909D01*
X801826Y684926D01*
X801822Y684946D01*
X801769Y685035D01*
X801720Y685126D01*
X801706Y685140D01*
X801696Y685157D01*
X801617Y685224D01*
X801542Y685296D01*
X801524Y685304D01*
X801509Y685317D01*
X801413Y685356D01*
X801319Y685399D01*
X801299Y685401D01*
X801281Y685409D01*
X801114Y685427D01*
X645334Y685427D01*
X645314Y685424D01*
X645295Y685426D01*
X645193Y685404D01*
X645091Y685388D01*
X645074Y685378D01*
X645054Y685374D01*
X644965Y685321D01*
X644874Y685272D01*
X644860Y685258D01*
X644843Y685248D01*
X644776Y685169D01*
X644704Y685094D01*
X644696Y685076D01*
X644683Y685061D01*
X644644Y684965D01*
X644601Y684871D01*
X644599Y684851D01*
X644591Y684833D01*
X644573Y684666D01*
X644573Y678106D01*
X486394Y519927D01*
X265663Y519927D01*
X265548Y519908D01*
X265432Y519891D01*
X265426Y519889D01*
X265420Y519888D01*
X265317Y519833D01*
X265212Y519780D01*
X265208Y519775D01*
X265202Y519772D01*
X265123Y519688D01*
X265040Y519604D01*
X265037Y519598D01*
X265033Y519594D01*
X265025Y519577D01*
X264959Y519457D01*
X264783Y519032D01*
X262068Y516317D01*
X258520Y514847D01*
X254680Y514847D01*
G37*
%LPD*%
%LPC*%
G36*
X814571Y451525D02*
X814571Y451525D01*
X809342Y453691D01*
X805341Y457692D01*
X803175Y462921D01*
X803175Y468579D01*
X804424Y471594D01*
X804451Y471708D01*
X804479Y471822D01*
X804479Y471828D01*
X804480Y471834D01*
X804469Y471951D01*
X804460Y472067D01*
X804458Y472073D01*
X804457Y472079D01*
X804409Y472186D01*
X804364Y472293D01*
X804359Y472299D01*
X804357Y472304D01*
X804345Y472317D01*
X804259Y472424D01*
X782379Y494304D01*
X782305Y494357D01*
X782235Y494417D01*
X782205Y494429D01*
X782179Y494448D01*
X782092Y494475D01*
X782007Y494509D01*
X781966Y494513D01*
X781944Y494520D01*
X781912Y494519D01*
X781841Y494527D01*
X265663Y494527D01*
X265548Y494508D01*
X265432Y494491D01*
X265426Y494489D01*
X265420Y494488D01*
X265317Y494433D01*
X265212Y494380D01*
X265208Y494375D01*
X265202Y494372D01*
X265123Y494288D01*
X265040Y494204D01*
X265037Y494198D01*
X265033Y494194D01*
X265025Y494177D01*
X264959Y494057D01*
X264783Y493632D01*
X262068Y490917D01*
X258520Y489447D01*
X254680Y489447D01*
X251132Y490917D01*
X248417Y493632D01*
X246947Y497180D01*
X246947Y501020D01*
X248417Y504568D01*
X251132Y507283D01*
X254680Y508753D01*
X258520Y508753D01*
X262068Y507283D01*
X264783Y504568D01*
X264959Y504143D01*
X265021Y504043D01*
X265081Y503943D01*
X265086Y503939D01*
X265089Y503934D01*
X265179Y503859D01*
X265268Y503783D01*
X265274Y503781D01*
X265278Y503777D01*
X265386Y503735D01*
X265496Y503691D01*
X265503Y503690D01*
X265508Y503689D01*
X265526Y503688D01*
X265663Y503673D01*
X785944Y503673D01*
X810726Y478891D01*
X810820Y478823D01*
X810915Y478753D01*
X810921Y478751D01*
X810926Y478747D01*
X811036Y478713D01*
X811148Y478677D01*
X811155Y478677D01*
X811161Y478675D01*
X811277Y478678D01*
X811394Y478679D01*
X811402Y478681D01*
X811407Y478681D01*
X811424Y478688D01*
X811556Y478726D01*
X814571Y479975D01*
X820229Y479975D01*
X825458Y477809D01*
X829459Y473808D01*
X831625Y468579D01*
X831625Y462921D01*
X829459Y457692D01*
X825458Y453691D01*
X820229Y451525D01*
X814571Y451525D01*
G37*
%LPD*%
%LPC*%
G36*
X32627Y368677D02*
X32627Y368677D01*
X28613Y370340D01*
X25540Y373413D01*
X23877Y377427D01*
X23877Y381773D01*
X25540Y385787D01*
X27743Y387990D01*
X27755Y388006D01*
X27770Y388019D01*
X27801Y388067D01*
X27809Y388075D01*
X27815Y388088D01*
X27826Y388106D01*
X27886Y388190D01*
X27892Y388209D01*
X27903Y388226D01*
X27928Y388326D01*
X27959Y388425D01*
X27958Y388445D01*
X27963Y388464D01*
X27955Y388567D01*
X27952Y388671D01*
X27946Y388690D01*
X27944Y388709D01*
X27904Y388804D01*
X27868Y388902D01*
X27855Y388917D01*
X27848Y388936D01*
X27743Y389067D01*
X21445Y395365D01*
X18543Y398266D01*
X18543Y411734D01*
X27743Y420933D01*
X27755Y420950D01*
X27770Y420962D01*
X27826Y421049D01*
X27886Y421133D01*
X27892Y421152D01*
X27903Y421169D01*
X27928Y421270D01*
X27959Y421368D01*
X27958Y421388D01*
X27963Y421408D01*
X27955Y421510D01*
X27952Y421614D01*
X27946Y421633D01*
X27944Y421653D01*
X27904Y421748D01*
X27868Y421845D01*
X27856Y421861D01*
X27848Y421879D01*
X27743Y422010D01*
X25540Y424213D01*
X23877Y428227D01*
X23877Y432573D01*
X25540Y436587D01*
X28613Y439660D01*
X32627Y441323D01*
X36973Y441323D01*
X40987Y439660D01*
X44060Y436587D01*
X45669Y432701D01*
X45694Y432662D01*
X45709Y432619D01*
X45758Y432558D01*
X45799Y432492D01*
X45834Y432463D01*
X45863Y432427D01*
X45929Y432385D01*
X45989Y432335D01*
X46031Y432319D01*
X46070Y432294D01*
X46146Y432275D01*
X46218Y432247D01*
X46264Y432245D01*
X46309Y432234D01*
X46386Y432240D01*
X46464Y432237D01*
X46508Y432250D01*
X46554Y432253D01*
X46625Y432284D01*
X46700Y432305D01*
X46738Y432331D01*
X46780Y432349D01*
X46887Y432435D01*
X46902Y432445D01*
X46905Y432450D01*
X46911Y432454D01*
X90963Y476506D01*
X91016Y476580D01*
X91076Y476650D01*
X91088Y476680D01*
X91107Y476706D01*
X91134Y476793D01*
X91168Y476878D01*
X91172Y476919D01*
X91179Y476941D01*
X91178Y476973D01*
X91186Y477045D01*
X91186Y533351D01*
X91171Y533447D01*
X91161Y533544D01*
X91151Y533568D01*
X91147Y533593D01*
X91101Y533679D01*
X91061Y533768D01*
X91044Y533788D01*
X91031Y533811D01*
X90961Y533878D01*
X90895Y533949D01*
X90872Y533962D01*
X90853Y533980D01*
X90765Y534021D01*
X90679Y534068D01*
X90654Y534073D01*
X90630Y534084D01*
X90533Y534094D01*
X90437Y534112D01*
X90411Y534108D01*
X90386Y534111D01*
X90290Y534090D01*
X90194Y534076D01*
X90171Y534064D01*
X90145Y534059D01*
X90062Y534009D01*
X89975Y533964D01*
X89956Y533946D01*
X89934Y533932D01*
X89871Y533858D01*
X89803Y533789D01*
X89787Y533760D01*
X89774Y533745D01*
X89762Y533715D01*
X89722Y533642D01*
X89191Y532360D01*
X86440Y529609D01*
X82845Y528120D01*
X78955Y528120D01*
X75360Y529609D01*
X72609Y532360D01*
X71120Y535955D01*
X71120Y539845D01*
X72609Y543440D01*
X75360Y546191D01*
X78955Y547680D01*
X82845Y547680D01*
X86440Y546191D01*
X89191Y543440D01*
X89722Y542158D01*
X89773Y542075D01*
X89819Y541989D01*
X89838Y541971D01*
X89851Y541949D01*
X89926Y541887D01*
X89997Y541820D01*
X90021Y541809D01*
X90041Y541792D01*
X90132Y541757D01*
X90220Y541716D01*
X90246Y541713D01*
X90270Y541704D01*
X90368Y541700D01*
X90464Y541689D01*
X90490Y541695D01*
X90516Y541694D01*
X90610Y541721D01*
X90705Y541741D01*
X90727Y541755D01*
X90752Y541762D01*
X90832Y541818D01*
X90916Y541868D01*
X90933Y541888D01*
X90954Y541902D01*
X91013Y541981D01*
X91076Y542055D01*
X91086Y542079D01*
X91101Y542100D01*
X91131Y542192D01*
X91168Y542283D01*
X91171Y542315D01*
X91177Y542334D01*
X91177Y542367D01*
X91186Y542449D01*
X91186Y544160D01*
X100040Y553014D01*
X100532Y553014D01*
X100622Y553028D01*
X100713Y553036D01*
X100742Y553048D01*
X100774Y553053D01*
X100855Y553096D01*
X100939Y553132D01*
X100971Y553158D01*
X100992Y553169D01*
X101014Y553192D01*
X101070Y553237D01*
X170758Y622925D01*
X170826Y623020D01*
X170896Y623114D01*
X170898Y623120D01*
X170902Y623125D01*
X170936Y623236D01*
X170972Y623348D01*
X170972Y623354D01*
X170974Y623360D01*
X170971Y623477D01*
X170970Y623594D01*
X170968Y623601D01*
X170968Y623606D01*
X170962Y623623D01*
X170923Y623755D01*
X170747Y624180D01*
X170747Y628020D01*
X170923Y628445D01*
X170950Y628558D01*
X170979Y628672D01*
X170978Y628679D01*
X170980Y628685D01*
X170969Y628801D01*
X170959Y628918D01*
X170957Y628923D01*
X170956Y628930D01*
X170908Y629037D01*
X170863Y629144D01*
X170859Y629150D01*
X170856Y629154D01*
X170844Y629168D01*
X170758Y629275D01*
X145327Y654706D01*
X145327Y747863D01*
X145308Y747978D01*
X145291Y748094D01*
X145289Y748099D01*
X145288Y748106D01*
X145233Y748208D01*
X145180Y748313D01*
X145175Y748317D01*
X145172Y748323D01*
X145088Y748403D01*
X145004Y748485D01*
X144998Y748489D01*
X144994Y748492D01*
X144977Y748500D01*
X144857Y748566D01*
X143713Y749040D01*
X140640Y752113D01*
X138977Y756127D01*
X138977Y760473D01*
X140640Y764487D01*
X143713Y767560D01*
X147727Y769223D01*
X152073Y769223D01*
X156087Y767560D01*
X159160Y764487D01*
X160823Y760473D01*
X160823Y756127D01*
X159160Y752113D01*
X156087Y749040D01*
X154943Y748566D01*
X154843Y748504D01*
X154743Y748445D01*
X154739Y748440D01*
X154734Y748436D01*
X154659Y748346D01*
X154583Y748258D01*
X154581Y748252D01*
X154577Y748247D01*
X154535Y748139D01*
X154491Y748029D01*
X154490Y748022D01*
X154489Y748017D01*
X154488Y747999D01*
X154473Y747863D01*
X154473Y658809D01*
X154487Y658719D01*
X154495Y658628D01*
X154507Y658599D01*
X154512Y658567D01*
X154555Y658486D01*
X154591Y658402D01*
X154617Y658370D01*
X154628Y658349D01*
X154651Y658327D01*
X154696Y658271D01*
X177225Y635742D01*
X177320Y635674D01*
X177414Y635604D01*
X177420Y635602D01*
X177425Y635598D01*
X177536Y635564D01*
X177648Y635528D01*
X177654Y635528D01*
X177660Y635526D01*
X177777Y635529D01*
X177894Y635530D01*
X177901Y635532D01*
X177906Y635532D01*
X177923Y635539D01*
X178055Y635577D01*
X178480Y635753D01*
X182320Y635753D01*
X185868Y634283D01*
X188583Y631568D01*
X190053Y628020D01*
X190053Y624180D01*
X188583Y620632D01*
X185868Y617917D01*
X182320Y616447D01*
X178480Y616447D01*
X178055Y616623D01*
X177941Y616650D01*
X177828Y616679D01*
X177821Y616678D01*
X177815Y616680D01*
X177699Y616669D01*
X177582Y616659D01*
X177577Y616657D01*
X177570Y616656D01*
X177463Y616609D01*
X177356Y616563D01*
X177350Y616559D01*
X177346Y616556D01*
X177332Y616544D01*
X177225Y616458D01*
X109985Y549218D01*
X109941Y549156D01*
X109889Y549101D01*
X109869Y549057D01*
X109841Y549018D01*
X109819Y548946D01*
X109788Y548877D01*
X109783Y548829D01*
X109769Y548783D01*
X109771Y548707D01*
X109763Y548632D01*
X109774Y548585D01*
X109775Y548537D01*
X109801Y548466D01*
X109818Y548392D01*
X109843Y548351D01*
X109860Y548306D01*
X109907Y548247D01*
X109946Y548183D01*
X109983Y548152D01*
X110013Y548114D01*
X110077Y548073D01*
X110135Y548025D01*
X110194Y547998D01*
X110220Y547981D01*
X110245Y547975D01*
X110288Y547956D01*
X110444Y547905D01*
X111958Y547133D01*
X113333Y546134D01*
X114534Y544933D01*
X115533Y543558D01*
X116305Y542044D01*
X116830Y540428D01*
X116989Y539423D01*
X107062Y539423D01*
X107042Y539420D01*
X107023Y539422D01*
X106921Y539400D01*
X106819Y539383D01*
X106802Y539374D01*
X106782Y539370D01*
X106693Y539317D01*
X106602Y539268D01*
X106588Y539254D01*
X106571Y539244D01*
X106504Y539165D01*
X106433Y539090D01*
X106424Y539072D01*
X106411Y539057D01*
X106373Y538961D01*
X106329Y538867D01*
X106327Y538847D01*
X106319Y538829D01*
X106301Y538662D01*
X106301Y537899D01*
X105538Y537899D01*
X105518Y537896D01*
X105499Y537898D01*
X105397Y537876D01*
X105295Y537859D01*
X105278Y537850D01*
X105258Y537846D01*
X105169Y537793D01*
X105078Y537744D01*
X105064Y537730D01*
X105047Y537720D01*
X104980Y537641D01*
X104909Y537566D01*
X104900Y537548D01*
X104887Y537533D01*
X104848Y537437D01*
X104805Y537343D01*
X104803Y537323D01*
X104795Y537305D01*
X104777Y537138D01*
X104777Y527211D01*
X103772Y527370D01*
X102156Y527895D01*
X101439Y528261D01*
X101367Y528284D01*
X101298Y528316D01*
X101250Y528321D01*
X101204Y528335D01*
X101129Y528334D01*
X101054Y528343D01*
X101006Y528332D01*
X100958Y528332D01*
X100887Y528306D01*
X100813Y528290D01*
X100772Y528266D01*
X100726Y528250D01*
X100667Y528203D01*
X100602Y528164D01*
X100571Y528128D01*
X100533Y528098D01*
X100491Y528035D01*
X100442Y527977D01*
X100424Y527933D01*
X100398Y527892D01*
X100379Y527819D01*
X100350Y527749D01*
X100343Y527684D01*
X100335Y527655D01*
X100337Y527629D01*
X100332Y527582D01*
X100332Y472941D01*
X97430Y470040D01*
X42575Y415185D01*
X42564Y415169D01*
X42548Y415156D01*
X42492Y415069D01*
X42432Y414985D01*
X42426Y414966D01*
X42415Y414949D01*
X42390Y414849D01*
X42360Y414750D01*
X42360Y414730D01*
X42355Y414711D01*
X42363Y414608D01*
X42366Y414504D01*
X42373Y414485D01*
X42374Y414466D01*
X42415Y414371D01*
X42450Y414273D01*
X42463Y414258D01*
X42471Y414239D01*
X42575Y414108D01*
X43906Y412778D01*
X45011Y411257D01*
X45864Y409583D01*
X46445Y407796D01*
X46646Y406523D01*
X35562Y406523D01*
X35542Y406520D01*
X35523Y406522D01*
X35421Y406500D01*
X35319Y406483D01*
X35302Y406474D01*
X35282Y406470D01*
X35193Y406417D01*
X35102Y406368D01*
X35088Y406354D01*
X35071Y406344D01*
X35004Y406265D01*
X34933Y406190D01*
X34924Y406172D01*
X34911Y406157D01*
X34873Y406061D01*
X34829Y405967D01*
X34827Y405947D01*
X34819Y405929D01*
X34801Y405762D01*
X34801Y404999D01*
X34038Y404999D01*
X34018Y404996D01*
X33999Y404998D01*
X33897Y404976D01*
X33795Y404959D01*
X33778Y404950D01*
X33758Y404946D01*
X33669Y404893D01*
X33578Y404844D01*
X33564Y404830D01*
X33547Y404820D01*
X33480Y404741D01*
X33409Y404666D01*
X33400Y404648D01*
X33387Y404633D01*
X33348Y404537D01*
X33305Y404443D01*
X33303Y404423D01*
X33295Y404405D01*
X33277Y404238D01*
X33277Y396782D01*
X33292Y396692D01*
X33299Y396601D01*
X33311Y396571D01*
X33317Y396539D01*
X33359Y396458D01*
X33395Y396374D01*
X33421Y396342D01*
X33432Y396322D01*
X33455Y396299D01*
X33500Y396243D01*
X35024Y394719D01*
X35082Y394678D01*
X35134Y394628D01*
X35181Y394606D01*
X35223Y394576D01*
X35292Y394555D01*
X35357Y394525D01*
X35409Y394519D01*
X35458Y394504D01*
X35530Y394505D01*
X35601Y394498D01*
X35652Y394509D01*
X35704Y394510D01*
X35772Y394535D01*
X35842Y394550D01*
X35886Y394576D01*
X35935Y394594D01*
X35991Y394639D01*
X36053Y394676D01*
X36087Y394716D01*
X36127Y394748D01*
X36166Y394808D01*
X36213Y394863D01*
X36232Y394911D01*
X36260Y394955D01*
X36278Y395024D01*
X36305Y395091D01*
X36313Y395162D01*
X36320Y395194D01*
X36319Y395217D01*
X36323Y395258D01*
X36323Y403477D01*
X46646Y403477D01*
X46445Y402204D01*
X45864Y400417D01*
X45011Y398743D01*
X43906Y397222D01*
X42578Y395894D01*
X41057Y394789D01*
X39383Y393936D01*
X37866Y393443D01*
X37798Y393408D01*
X37727Y393382D01*
X37690Y393352D01*
X37647Y393330D01*
X37594Y393276D01*
X37535Y393229D01*
X37509Y393188D01*
X37476Y393154D01*
X37443Y393085D01*
X37402Y393022D01*
X37391Y392975D01*
X37370Y392932D01*
X37361Y392856D01*
X37342Y392783D01*
X37346Y392735D01*
X37340Y392687D01*
X37355Y392613D01*
X37361Y392538D01*
X37380Y392494D01*
X37390Y392447D01*
X37428Y392381D01*
X37458Y392312D01*
X37498Y392261D01*
X37514Y392234D01*
X37533Y392217D01*
X37562Y392181D01*
X39373Y390370D01*
X39373Y390037D01*
X39392Y389922D01*
X39409Y389806D01*
X39411Y389801D01*
X39412Y389794D01*
X39467Y389692D01*
X39520Y389587D01*
X39525Y389583D01*
X39528Y389577D01*
X39612Y389497D01*
X39696Y389415D01*
X39702Y389411D01*
X39706Y389408D01*
X39723Y389400D01*
X39766Y389376D01*
X39768Y389374D01*
X39772Y389373D01*
X39843Y389334D01*
X40987Y388860D01*
X44060Y385787D01*
X45723Y381773D01*
X45723Y377427D01*
X44060Y373413D01*
X40987Y370340D01*
X36973Y368677D01*
X32627Y368677D01*
G37*
%LPD*%
%LPC*%
G36*
X516688Y834839D02*
X516688Y834839D01*
X510288Y836554D01*
X504551Y839866D01*
X499866Y844551D01*
X496554Y850288D01*
X494839Y856688D01*
X494839Y863312D01*
X496554Y869712D01*
X499866Y875449D01*
X504551Y880134D01*
X510288Y883446D01*
X516688Y885161D01*
X523312Y885161D01*
X529712Y883446D01*
X535449Y880134D01*
X540134Y875449D01*
X543446Y869712D01*
X545161Y863312D01*
X545161Y856688D01*
X543446Y850288D01*
X540134Y844551D01*
X535449Y839866D01*
X529712Y836554D01*
X523312Y834839D01*
X516688Y834839D01*
G37*
%LPD*%
%LPC*%
G36*
X976688Y814839D02*
X976688Y814839D01*
X970288Y816554D01*
X964551Y819866D01*
X959866Y824551D01*
X956554Y830288D01*
X954839Y836688D01*
X954839Y843312D01*
X956554Y849712D01*
X959866Y855449D01*
X964551Y860134D01*
X970288Y863446D01*
X976688Y865161D01*
X983312Y865161D01*
X989712Y863446D01*
X995449Y860134D01*
X1000134Y855449D01*
X1003446Y849712D01*
X1005161Y843312D01*
X1005161Y836688D01*
X1003446Y830288D01*
X1000134Y824551D01*
X995449Y819866D01*
X989712Y816554D01*
X983312Y814839D01*
X976688Y814839D01*
G37*
%LPD*%
%LPC*%
G36*
X856688Y254839D02*
X856688Y254839D01*
X850288Y256554D01*
X844551Y259866D01*
X839866Y264551D01*
X836554Y270288D01*
X834839Y276688D01*
X834839Y283312D01*
X836554Y289712D01*
X839866Y295449D01*
X844551Y300134D01*
X850288Y303446D01*
X856688Y305161D01*
X863312Y305161D01*
X869712Y303446D01*
X875449Y300134D01*
X880134Y295449D01*
X883446Y289712D01*
X885161Y283312D01*
X885161Y276688D01*
X883446Y270288D01*
X880134Y264551D01*
X875449Y259866D01*
X869712Y256554D01*
X863312Y254839D01*
X856688Y254839D01*
G37*
%LPD*%
%LPC*%
G36*
X136688Y334839D02*
X136688Y334839D01*
X130288Y336554D01*
X124551Y339866D01*
X119866Y344551D01*
X116554Y350288D01*
X114839Y356688D01*
X114839Y363312D01*
X116554Y369712D01*
X119866Y375449D01*
X124551Y380134D01*
X130288Y383446D01*
X136688Y385161D01*
X143312Y385161D01*
X149712Y383446D01*
X155449Y380134D01*
X160134Y375449D01*
X163446Y369712D01*
X165161Y363312D01*
X165161Y356688D01*
X163446Y350288D01*
X160134Y344551D01*
X155449Y339866D01*
X149712Y336554D01*
X143312Y334839D01*
X136688Y334839D01*
G37*
%LPD*%
%LPC*%
G36*
X247827Y250977D02*
X247827Y250977D01*
X243813Y252640D01*
X240740Y255713D01*
X240266Y256857D01*
X240204Y256957D01*
X240145Y257057D01*
X240140Y257061D01*
X240136Y257066D01*
X240046Y257141D01*
X239958Y257217D01*
X239952Y257219D01*
X239947Y257223D01*
X239839Y257265D01*
X239729Y257309D01*
X239722Y257310D01*
X239717Y257311D01*
X239699Y257312D01*
X239563Y257327D01*
X183506Y257327D01*
X180604Y260229D01*
X151447Y289386D01*
X151352Y289455D01*
X151258Y289524D01*
X151252Y289526D01*
X151247Y289530D01*
X151136Y289564D01*
X151024Y289600D01*
X151018Y289600D01*
X151012Y289602D01*
X150895Y289599D01*
X150778Y289598D01*
X150771Y289596D01*
X150766Y289596D01*
X150749Y289590D01*
X150617Y289551D01*
X149473Y289077D01*
X145127Y289077D01*
X141113Y290740D01*
X138040Y293813D01*
X136377Y297827D01*
X136377Y302173D01*
X138040Y306187D01*
X141113Y309260D01*
X145127Y310923D01*
X149473Y310923D01*
X153487Y309260D01*
X156560Y306187D01*
X158223Y302173D01*
X158223Y297827D01*
X157749Y296683D01*
X157738Y296638D01*
X157719Y296596D01*
X157711Y296525D01*
X157693Y296456D01*
X157694Y296449D01*
X157692Y296443D01*
X157697Y296398D01*
X157692Y296352D01*
X157707Y296282D01*
X157713Y296210D01*
X157715Y296205D01*
X157716Y296198D01*
X157734Y296156D01*
X157744Y296112D01*
X157781Y296050D01*
X157809Y295984D01*
X157813Y295978D01*
X157816Y295974D01*
X157828Y295960D01*
X157854Y295928D01*
X157870Y295901D01*
X157888Y295885D01*
X157914Y295853D01*
X162199Y291568D01*
X162251Y291531D01*
X162296Y291486D01*
X162350Y291459D01*
X162399Y291425D01*
X162459Y291406D01*
X162517Y291378D01*
X162576Y291370D01*
X162634Y291352D01*
X162697Y291354D01*
X162761Y291345D01*
X162819Y291357D01*
X162879Y291359D01*
X162940Y291380D01*
X163002Y291393D01*
X163054Y291422D01*
X163110Y291443D01*
X163160Y291483D01*
X163216Y291514D01*
X163256Y291559D01*
X163303Y291597D01*
X163337Y291650D01*
X163380Y291698D01*
X163403Y291753D01*
X163436Y291804D01*
X163451Y291866D01*
X163476Y291924D01*
X163481Y291984D01*
X163496Y292042D01*
X163491Y292106D01*
X163496Y292169D01*
X163481Y292228D01*
X163476Y292287D01*
X163451Y292346D01*
X163436Y292408D01*
X163393Y292483D01*
X163380Y292514D01*
X163365Y292533D01*
X163353Y292554D01*
X162489Y293743D01*
X161636Y295417D01*
X161055Y297204D01*
X160854Y298477D01*
X171177Y298477D01*
X171177Y288154D01*
X169904Y288355D01*
X168117Y288936D01*
X166443Y289789D01*
X165254Y290653D01*
X165197Y290682D01*
X165145Y290719D01*
X165088Y290736D01*
X165034Y290763D01*
X164971Y290772D01*
X164910Y290791D01*
X164850Y290790D01*
X164791Y290798D01*
X164728Y290787D01*
X164664Y290785D01*
X164608Y290764D01*
X164549Y290753D01*
X164493Y290722D01*
X164433Y290700D01*
X164386Y290663D01*
X164334Y290634D01*
X164291Y290587D01*
X164241Y290547D01*
X164208Y290496D01*
X164168Y290452D01*
X164142Y290394D01*
X164108Y290340D01*
X164093Y290282D01*
X164069Y290227D01*
X164063Y290163D01*
X164048Y290101D01*
X164052Y290042D01*
X164047Y289982D01*
X164062Y289920D01*
X164067Y289856D01*
X164090Y289801D01*
X164104Y289743D01*
X164138Y289688D01*
X164163Y289630D01*
X164217Y289562D01*
X164235Y289534D01*
X164253Y289518D01*
X164268Y289499D01*
X187071Y266696D01*
X187145Y266643D01*
X187215Y266583D01*
X187245Y266571D01*
X187271Y266552D01*
X187358Y266525D01*
X187443Y266491D01*
X187484Y266487D01*
X187506Y266480D01*
X187538Y266481D01*
X187609Y266473D01*
X239563Y266473D01*
X239678Y266492D01*
X239794Y266509D01*
X239799Y266511D01*
X239806Y266512D01*
X239908Y266567D01*
X240013Y266620D01*
X240017Y266625D01*
X240023Y266628D01*
X240103Y266712D01*
X240185Y266796D01*
X240189Y266802D01*
X240192Y266806D01*
X240200Y266823D01*
X240266Y266943D01*
X240740Y268087D01*
X243813Y271160D01*
X247827Y272823D01*
X252173Y272823D01*
X256187Y271160D01*
X259260Y268087D01*
X260923Y264073D01*
X260923Y259727D01*
X259260Y255713D01*
X256187Y252640D01*
X252173Y250977D01*
X247827Y250977D01*
G37*
%LPD*%
%LPC*%
G36*
X141068Y835339D02*
X141068Y835339D01*
X135467Y837660D01*
X131180Y841947D01*
X128859Y847548D01*
X128859Y868852D01*
X131180Y874453D01*
X135467Y878740D01*
X141068Y881061D01*
X147132Y881061D01*
X152733Y878740D01*
X157020Y874453D01*
X158843Y870052D01*
X158866Y870016D01*
X158880Y869977D01*
X158930Y869913D01*
X158973Y869843D01*
X159005Y869816D01*
X159031Y869783D01*
X159100Y869738D01*
X159163Y869686D01*
X159202Y869671D01*
X159237Y869648D01*
X159316Y869627D01*
X159392Y869598D01*
X159434Y869596D01*
X159475Y869586D01*
X159556Y869591D01*
X159638Y869588D01*
X159678Y869599D01*
X159720Y869602D01*
X159796Y869633D01*
X159874Y869656D01*
X159909Y869680D01*
X159947Y869696D01*
X160009Y869750D01*
X160076Y869796D01*
X160101Y869830D01*
X160133Y869858D01*
X160189Y869943D01*
X160192Y869946D01*
X160194Y869951D01*
X160218Y869987D01*
X160223Y869994D01*
X160224Y869996D01*
X160225Y869998D01*
X160810Y871145D01*
X161750Y872439D01*
X162881Y873570D01*
X164175Y874510D01*
X165600Y875236D01*
X167121Y875731D01*
X167977Y875866D01*
X167977Y858962D01*
X167980Y858942D01*
X167978Y858923D01*
X168000Y858821D01*
X168017Y858719D01*
X168026Y858702D01*
X168030Y858682D01*
X168083Y858593D01*
X168132Y858502D01*
X168146Y858488D01*
X168156Y858471D01*
X168235Y858404D01*
X168310Y858333D01*
X168328Y858324D01*
X168343Y858311D01*
X168439Y858273D01*
X168533Y858229D01*
X168553Y858227D01*
X168571Y858219D01*
X168738Y858201D01*
X169501Y858201D01*
X169501Y858199D01*
X168738Y858199D01*
X168718Y858196D01*
X168699Y858198D01*
X168597Y858176D01*
X168495Y858159D01*
X168478Y858150D01*
X168458Y858146D01*
X168369Y858093D01*
X168278Y858044D01*
X168264Y858030D01*
X168247Y858020D01*
X168180Y857941D01*
X168109Y857866D01*
X168100Y857848D01*
X168087Y857833D01*
X168048Y857737D01*
X168005Y857643D01*
X168003Y857623D01*
X167995Y857605D01*
X167977Y857438D01*
X167977Y840534D01*
X167121Y840669D01*
X165600Y841164D01*
X164175Y841890D01*
X162881Y842830D01*
X161750Y843961D01*
X160810Y845255D01*
X160225Y846402D01*
X160200Y846436D01*
X160183Y846474D01*
X160128Y846534D01*
X160079Y846600D01*
X160045Y846625D01*
X160017Y846655D01*
X159945Y846695D01*
X159878Y846742D01*
X159838Y846754D01*
X159801Y846774D01*
X159721Y846789D01*
X159642Y846812D01*
X159601Y846810D01*
X159559Y846818D01*
X159478Y846806D01*
X159397Y846803D01*
X159357Y846788D01*
X159316Y846782D01*
X159243Y846745D01*
X159166Y846716D01*
X159134Y846690D01*
X159097Y846670D01*
X159039Y846612D01*
X158976Y846560D01*
X158954Y846525D01*
X158924Y846495D01*
X158850Y846359D01*
X158845Y846352D01*
X158845Y846350D01*
X158843Y846348D01*
X157020Y841947D01*
X152733Y837660D01*
X147132Y835339D01*
X141068Y835339D01*
G37*
%LPD*%
%LPC*%
G36*
X405808Y60279D02*
X405808Y60279D01*
X398339Y63373D01*
X392623Y69089D01*
X389529Y76558D01*
X389529Y84642D01*
X392623Y92111D01*
X398339Y97827D01*
X405808Y100921D01*
X413892Y100921D01*
X421361Y97827D01*
X427077Y92111D01*
X430171Y84642D01*
X430171Y76558D01*
X427077Y69089D01*
X421361Y63373D01*
X413892Y60279D01*
X405808Y60279D01*
G37*
%LPD*%
%LPC*%
G36*
X685808Y61579D02*
X685808Y61579D01*
X678339Y64673D01*
X672623Y70389D01*
X669529Y77858D01*
X669529Y85942D01*
X672623Y93411D01*
X678339Y99127D01*
X685808Y102221D01*
X693892Y102221D01*
X701361Y99127D01*
X707077Y93411D01*
X710171Y85942D01*
X710171Y77858D01*
X707077Y70389D01*
X701361Y64673D01*
X693892Y61579D01*
X685808Y61579D01*
G37*
%LPD*%
%LPC*%
G36*
X935358Y445429D02*
X935358Y445429D01*
X927889Y448523D01*
X922173Y454239D01*
X919079Y461708D01*
X919079Y469792D01*
X922173Y477261D01*
X927889Y482977D01*
X935358Y486071D01*
X943442Y486071D01*
X950911Y482977D01*
X956627Y477261D01*
X959721Y469792D01*
X959721Y461708D01*
X956627Y454239D01*
X950911Y448523D01*
X943442Y445429D01*
X935358Y445429D01*
G37*
%LPD*%
%LPC*%
G36*
X934058Y665429D02*
X934058Y665429D01*
X926589Y668523D01*
X920873Y674239D01*
X917779Y681708D01*
X917779Y689792D01*
X920873Y697261D01*
X926589Y702977D01*
X934058Y706071D01*
X942142Y706071D01*
X949611Y702977D01*
X955327Y697261D01*
X958421Y689792D01*
X958421Y681708D01*
X955327Y674239D01*
X949611Y668523D01*
X942142Y665429D01*
X934058Y665429D01*
G37*
%LPD*%
%LPC*%
G36*
X782595Y387969D02*
X782595Y387969D01*
X779619Y390945D01*
X779619Y420555D01*
X782595Y423531D01*
X812205Y423531D01*
X815181Y420555D01*
X815181Y390945D01*
X812205Y387969D01*
X782595Y387969D01*
G37*
%LPD*%
%LPC*%
G36*
X781295Y607969D02*
X781295Y607969D01*
X778319Y610945D01*
X778319Y640555D01*
X781295Y643531D01*
X810905Y643531D01*
X813881Y640555D01*
X813881Y610945D01*
X810905Y607969D01*
X781295Y607969D01*
G37*
%LPD*%
%LPC*%
G36*
X347429Y636924D02*
X347429Y636924D01*
X344628Y638084D01*
X342484Y640228D01*
X341324Y643029D01*
X341324Y644819D01*
X341313Y644890D01*
X341311Y644961D01*
X341293Y645010D01*
X341285Y645062D01*
X341251Y645125D01*
X341226Y645192D01*
X341194Y645233D01*
X341169Y645279D01*
X341117Y645328D01*
X341073Y645384D01*
X341029Y645413D01*
X340991Y645448D01*
X340926Y645479D01*
X340866Y645517D01*
X340815Y645530D01*
X340768Y645552D01*
X340697Y645560D01*
X340627Y645578D01*
X340575Y645573D01*
X340524Y645579D01*
X340453Y645564D01*
X340382Y645558D01*
X340334Y645538D01*
X340283Y645527D01*
X340222Y645490D01*
X340156Y645462D01*
X340100Y645417D01*
X340072Y645401D01*
X340057Y645383D01*
X340025Y645357D01*
X339233Y644565D01*
X337858Y643567D01*
X336344Y642795D01*
X334728Y642270D01*
X333723Y642111D01*
X333723Y652038D01*
X333720Y652058D01*
X333722Y652077D01*
X333700Y652179D01*
X333683Y652281D01*
X333674Y652298D01*
X333670Y652318D01*
X333617Y652407D01*
X333568Y652498D01*
X333554Y652512D01*
X333544Y652529D01*
X333465Y652596D01*
X333390Y652667D01*
X333372Y652676D01*
X333357Y652689D01*
X333261Y652727D01*
X333167Y652771D01*
X333147Y652773D01*
X333129Y652781D01*
X332962Y652799D01*
X332199Y652799D01*
X332199Y652801D01*
X332962Y652801D01*
X332982Y652804D01*
X333001Y652802D01*
X333103Y652824D01*
X333205Y652841D01*
X333222Y652850D01*
X333242Y652854D01*
X333331Y652907D01*
X333422Y652956D01*
X333436Y652970D01*
X333453Y652980D01*
X333520Y653059D01*
X333591Y653134D01*
X333600Y653152D01*
X333613Y653167D01*
X333652Y653263D01*
X333695Y653357D01*
X333697Y653377D01*
X333705Y653395D01*
X333723Y653562D01*
X333723Y663489D01*
X334728Y663330D01*
X336344Y662805D01*
X337858Y662033D01*
X339233Y661035D01*
X340025Y660243D01*
X340083Y660201D01*
X340135Y660152D01*
X340182Y660130D01*
X340224Y660099D01*
X340293Y660078D01*
X340358Y660048D01*
X340410Y660042D01*
X340460Y660027D01*
X340531Y660029D01*
X340602Y660021D01*
X340653Y660032D01*
X340705Y660033D01*
X340773Y660058D01*
X340843Y660073D01*
X340888Y660100D01*
X340936Y660118D01*
X340992Y660163D01*
X341054Y660199D01*
X341088Y660239D01*
X341128Y660271D01*
X341167Y660332D01*
X341214Y660386D01*
X341233Y660434D01*
X341261Y660478D01*
X341279Y660548D01*
X341306Y660614D01*
X341314Y660686D01*
X341322Y660717D01*
X341320Y660740D01*
X341324Y660781D01*
X341324Y662571D01*
X342484Y665372D01*
X344628Y667516D01*
X347429Y668676D01*
X366971Y668676D01*
X369772Y667516D01*
X371916Y665372D01*
X373076Y662571D01*
X373076Y643029D01*
X371916Y640228D01*
X369772Y638084D01*
X366971Y636924D01*
X347429Y636924D01*
G37*
%LPD*%
%LPC*%
G36*
X416615Y632981D02*
X416615Y632981D01*
X410360Y635572D01*
X405572Y640360D01*
X402981Y646615D01*
X402981Y653385D01*
X405572Y659640D01*
X410360Y664428D01*
X416615Y667019D01*
X423385Y667019D01*
X429640Y664428D01*
X434428Y659640D01*
X435084Y658056D01*
X435108Y658017D01*
X435124Y657974D01*
X435172Y657913D01*
X435213Y657847D01*
X435249Y657818D01*
X435278Y657782D01*
X435343Y657740D01*
X435403Y657690D01*
X435446Y657674D01*
X435484Y657649D01*
X435560Y657630D01*
X435633Y657602D01*
X435678Y657600D01*
X435723Y657589D01*
X435800Y657595D01*
X435878Y657592D01*
X435922Y657605D01*
X435968Y657608D01*
X436040Y657639D01*
X436115Y657660D01*
X436152Y657687D01*
X436194Y657705D01*
X436301Y657790D01*
X436317Y657801D01*
X436320Y657805D01*
X436325Y657809D01*
X437622Y659106D01*
X439143Y660211D01*
X440817Y661064D01*
X442604Y661645D01*
X443877Y661846D01*
X443877Y650762D01*
X443880Y650742D01*
X443878Y650723D01*
X443900Y650621D01*
X443917Y650519D01*
X443926Y650502D01*
X443930Y650482D01*
X443983Y650393D01*
X444032Y650302D01*
X444046Y650288D01*
X444056Y650271D01*
X444135Y650204D01*
X444210Y650133D01*
X444228Y650124D01*
X444243Y650111D01*
X444339Y650073D01*
X444433Y650029D01*
X444453Y650027D01*
X444471Y650019D01*
X444638Y650001D01*
X445401Y650001D01*
X445401Y649999D01*
X444638Y649999D01*
X444618Y649996D01*
X444599Y649998D01*
X444497Y649976D01*
X444395Y649959D01*
X444378Y649950D01*
X444358Y649946D01*
X444269Y649893D01*
X444178Y649844D01*
X444164Y649830D01*
X444147Y649820D01*
X444080Y649741D01*
X444009Y649666D01*
X444000Y649648D01*
X443987Y649633D01*
X443948Y649537D01*
X443905Y649443D01*
X443903Y649423D01*
X443895Y649405D01*
X443877Y649238D01*
X443877Y638154D01*
X442604Y638355D01*
X440817Y638936D01*
X439143Y639789D01*
X437622Y640894D01*
X436325Y642191D01*
X436288Y642217D01*
X436257Y642251D01*
X436189Y642289D01*
X436126Y642334D01*
X436082Y642348D01*
X436042Y642370D01*
X435965Y642384D01*
X435891Y642407D01*
X435845Y642405D01*
X435800Y642413D01*
X435723Y642402D01*
X435645Y642400D01*
X435602Y642384D01*
X435556Y642378D01*
X435487Y642342D01*
X435414Y642316D01*
X435378Y642287D01*
X435337Y642266D01*
X435282Y642211D01*
X435222Y642162D01*
X435197Y642123D01*
X435165Y642091D01*
X435099Y641971D01*
X435089Y641955D01*
X435087Y641950D01*
X435084Y641944D01*
X434428Y640360D01*
X429640Y635572D01*
X423385Y632981D01*
X416615Y632981D01*
G37*
%LPD*%
%LPC*%
G36*
X427496Y782879D02*
X427496Y782879D01*
X420835Y785638D01*
X415738Y790735D01*
X412979Y797396D01*
X412979Y804604D01*
X415738Y811265D01*
X420835Y816362D01*
X427496Y819121D01*
X434704Y819121D01*
X441365Y816362D01*
X446462Y811265D01*
X449221Y804604D01*
X449221Y797396D01*
X446462Y790735D01*
X441365Y785638D01*
X434704Y782879D01*
X427496Y782879D01*
G37*
%LPD*%
%LPC*%
G36*
X961001Y105519D02*
X961001Y105519D01*
X955274Y107891D01*
X950891Y112274D01*
X948519Y118001D01*
X948519Y124199D01*
X950891Y129926D01*
X955274Y134309D01*
X961001Y136681D01*
X967199Y136681D01*
X972926Y134309D01*
X977309Y129926D01*
X979681Y124199D01*
X979681Y118001D01*
X977309Y112274D01*
X972926Y107891D01*
X967199Y105519D01*
X961001Y105519D01*
G37*
%LPD*%
%LPC*%
G36*
X601701Y778619D02*
X601701Y778619D01*
X595974Y780991D01*
X591591Y785374D01*
X589219Y791101D01*
X589219Y797299D01*
X591591Y803026D01*
X595974Y807409D01*
X601701Y809781D01*
X607899Y809781D01*
X613626Y807409D01*
X618009Y803026D01*
X620381Y797299D01*
X620381Y791101D01*
X618009Y785374D01*
X613626Y780991D01*
X607899Y778619D01*
X601701Y778619D01*
G37*
%LPD*%
%LPC*%
G36*
X691701Y778619D02*
X691701Y778619D01*
X685974Y780991D01*
X681591Y785374D01*
X679219Y791101D01*
X679219Y797299D01*
X681591Y803026D01*
X685974Y807409D01*
X691701Y809781D01*
X697899Y809781D01*
X703626Y807409D01*
X708009Y803026D01*
X710381Y797299D01*
X710381Y791101D01*
X708009Y785374D01*
X703626Y780991D01*
X697899Y778619D01*
X691701Y778619D01*
G37*
%LPD*%
%LPC*%
G36*
X193081Y841435D02*
X193081Y841435D01*
X189720Y842827D01*
X187147Y845400D01*
X185755Y848761D01*
X185755Y867639D01*
X187147Y871000D01*
X189720Y873573D01*
X193081Y874965D01*
X196719Y874965D01*
X200080Y873573D01*
X202653Y871000D01*
X204045Y867639D01*
X204045Y848761D01*
X202653Y845400D01*
X200080Y842827D01*
X196719Y841435D01*
X193081Y841435D01*
G37*
%LPD*%
%LPC*%
G36*
X977459Y154725D02*
X977459Y154725D01*
X972764Y156670D01*
X969170Y160264D01*
X967225Y164959D01*
X967225Y170041D01*
X969170Y174736D01*
X972764Y178330D01*
X977459Y180275D01*
X982541Y180275D01*
X987236Y178330D01*
X990830Y174736D01*
X992775Y170041D01*
X992775Y164959D01*
X990830Y160264D01*
X987236Y156670D01*
X982541Y154725D01*
X977459Y154725D01*
G37*
%LPD*%
%LPC*%
G36*
X44813Y843020D02*
X44813Y843020D01*
X43920Y843913D01*
X43920Y861687D01*
X44813Y862580D01*
X62587Y862580D01*
X63480Y861687D01*
X63480Y843913D01*
X62587Y843020D01*
X44813Y843020D01*
G37*
%LPD*%
%LPC*%
G36*
X43027Y749777D02*
X43027Y749777D01*
X39013Y751440D01*
X35940Y754513D01*
X34277Y758527D01*
X34277Y762873D01*
X35940Y766887D01*
X39013Y769960D01*
X43027Y771623D01*
X47373Y771623D01*
X51387Y769960D01*
X54460Y766887D01*
X56123Y762873D01*
X56123Y758527D01*
X54460Y754513D01*
X51387Y751440D01*
X47373Y749777D01*
X43027Y749777D01*
G37*
%LPD*%
%LPC*%
G36*
X114727Y147377D02*
X114727Y147377D01*
X110713Y149040D01*
X107640Y152113D01*
X105977Y156127D01*
X105977Y160473D01*
X107640Y164487D01*
X110713Y167560D01*
X114727Y169223D01*
X119073Y169223D01*
X123087Y167560D01*
X126160Y164487D01*
X127823Y160473D01*
X127823Y156127D01*
X126160Y152113D01*
X123087Y149040D01*
X119073Y147377D01*
X114727Y147377D01*
G37*
%LPD*%
%LPC*%
G36*
X43027Y698977D02*
X43027Y698977D01*
X39013Y700640D01*
X35940Y703713D01*
X34277Y707727D01*
X34277Y712073D01*
X35940Y716087D01*
X39013Y719160D01*
X43027Y720823D01*
X47373Y720823D01*
X51387Y719160D01*
X54460Y716087D01*
X56123Y712073D01*
X56123Y707727D01*
X54460Y703713D01*
X51387Y700640D01*
X47373Y698977D01*
X43027Y698977D01*
G37*
%LPD*%
%LPC*%
G36*
X43027Y775177D02*
X43027Y775177D01*
X39013Y776840D01*
X35940Y779913D01*
X34277Y783927D01*
X34277Y788273D01*
X35940Y792287D01*
X39013Y795360D01*
X43027Y797023D01*
X47373Y797023D01*
X51387Y795360D01*
X54460Y792287D01*
X56123Y788273D01*
X56123Y783927D01*
X54460Y779913D01*
X51387Y776840D01*
X47373Y775177D01*
X43027Y775177D01*
G37*
%LPD*%
%LPC*%
G36*
X116327Y207377D02*
X116327Y207377D01*
X112313Y209040D01*
X109240Y212113D01*
X107577Y216127D01*
X107577Y220473D01*
X109240Y224487D01*
X112313Y227560D01*
X116327Y229223D01*
X120673Y229223D01*
X124687Y227560D01*
X127760Y224487D01*
X129423Y220473D01*
X129423Y216127D01*
X127760Y212113D01*
X124687Y209040D01*
X120673Y207377D01*
X116327Y207377D01*
G37*
%LPD*%
%LPC*%
G36*
X47827Y233677D02*
X47827Y233677D01*
X43813Y235340D01*
X40740Y238413D01*
X39077Y242427D01*
X39077Y246773D01*
X40740Y250787D01*
X43813Y253860D01*
X47827Y255523D01*
X52173Y255523D01*
X56187Y253860D01*
X59260Y250787D01*
X60923Y246773D01*
X60923Y242427D01*
X59260Y238413D01*
X56187Y235340D01*
X52173Y233677D01*
X47827Y233677D01*
G37*
%LPD*%
%LPC*%
G36*
X47827Y133677D02*
X47827Y133677D01*
X43813Y135340D01*
X40740Y138413D01*
X39077Y142427D01*
X39077Y146773D01*
X40740Y150787D01*
X43813Y153860D01*
X47827Y155523D01*
X52173Y155523D01*
X56187Y153860D01*
X59260Y150787D01*
X60923Y146773D01*
X60923Y142427D01*
X59260Y138413D01*
X56187Y135340D01*
X52173Y133677D01*
X47827Y133677D01*
G37*
%LPD*%
%LPC*%
G36*
X32627Y444877D02*
X32627Y444877D01*
X28613Y446540D01*
X25540Y449613D01*
X23877Y453627D01*
X23877Y457973D01*
X25540Y461987D01*
X28613Y465060D01*
X32627Y466723D01*
X36973Y466723D01*
X40987Y465060D01*
X44060Y461987D01*
X45723Y457973D01*
X45723Y453627D01*
X44060Y449613D01*
X40987Y446540D01*
X36973Y444877D01*
X32627Y444877D01*
G37*
%LPD*%
%LPC*%
G36*
X47827Y259077D02*
X47827Y259077D01*
X43813Y260740D01*
X40740Y263813D01*
X39077Y267827D01*
X39077Y272173D01*
X40740Y276187D01*
X43813Y279260D01*
X47827Y280923D01*
X52173Y280923D01*
X56187Y279260D01*
X59260Y276187D01*
X60923Y272173D01*
X60923Y267827D01*
X59260Y263813D01*
X56187Y260740D01*
X52173Y259077D01*
X47827Y259077D01*
G37*
%LPD*%
%LPC*%
G36*
X401927Y546977D02*
X401927Y546977D01*
X397913Y548640D01*
X394840Y551713D01*
X393177Y555727D01*
X393177Y560073D01*
X394840Y564087D01*
X397913Y567160D01*
X401927Y568823D01*
X406273Y568823D01*
X410287Y567160D01*
X413360Y564087D01*
X415023Y560073D01*
X415023Y555727D01*
X413360Y551713D01*
X410287Y548640D01*
X406273Y546977D01*
X401927Y546977D01*
G37*
%LPD*%
%LPC*%
G36*
X47827Y159077D02*
X47827Y159077D01*
X43813Y160740D01*
X40740Y163813D01*
X39077Y167827D01*
X39077Y172173D01*
X40740Y176187D01*
X43813Y179260D01*
X47827Y180923D01*
X52173Y180923D01*
X56187Y179260D01*
X59260Y176187D01*
X60923Y172173D01*
X60923Y167827D01*
X59260Y163813D01*
X56187Y160740D01*
X52173Y159077D01*
X47827Y159077D01*
G37*
%LPD*%
%LPC*%
G36*
X71527Y747377D02*
X71527Y747377D01*
X67513Y749040D01*
X64440Y752113D01*
X62777Y756127D01*
X62777Y760473D01*
X64440Y764487D01*
X67513Y767560D01*
X71527Y769223D01*
X75873Y769223D01*
X79887Y767560D01*
X82960Y764487D01*
X84623Y760473D01*
X84623Y756127D01*
X82960Y752113D01*
X79887Y749040D01*
X75873Y747377D01*
X71527Y747377D01*
G37*
%LPD*%
%LPC*%
G36*
X300327Y546977D02*
X300327Y546977D01*
X296313Y548640D01*
X293240Y551713D01*
X291577Y555727D01*
X291577Y560073D01*
X293240Y564087D01*
X296313Y567160D01*
X300327Y568823D01*
X304673Y568823D01*
X308687Y567160D01*
X311760Y564087D01*
X313423Y560073D01*
X313423Y555727D01*
X311760Y551713D01*
X308687Y548640D01*
X304673Y546977D01*
X300327Y546977D01*
G37*
%LPD*%
%LPC*%
G36*
X247827Y327177D02*
X247827Y327177D01*
X243813Y328840D01*
X240740Y331913D01*
X239077Y335927D01*
X239077Y340273D01*
X240740Y344287D01*
X243813Y347360D01*
X247827Y349023D01*
X252173Y349023D01*
X256187Y347360D01*
X259260Y344287D01*
X260923Y340273D01*
X260923Y335927D01*
X259260Y331913D01*
X256187Y328840D01*
X252173Y327177D01*
X247827Y327177D01*
G37*
%LPD*%
%LPC*%
G36*
X47827Y33677D02*
X47827Y33677D01*
X43813Y35340D01*
X40740Y38413D01*
X39077Y42427D01*
X39077Y46773D01*
X40740Y50787D01*
X43813Y53860D01*
X47827Y55523D01*
X52173Y55523D01*
X56187Y53860D01*
X59260Y50787D01*
X60923Y46773D01*
X60923Y42427D01*
X59260Y38413D01*
X56187Y35340D01*
X52173Y33677D01*
X47827Y33677D01*
G37*
%LPD*%
%LPC*%
G36*
X43027Y724377D02*
X43027Y724377D01*
X39013Y726040D01*
X35940Y729113D01*
X34277Y733127D01*
X34277Y737473D01*
X35940Y741487D01*
X39013Y744560D01*
X43027Y746223D01*
X47373Y746223D01*
X51387Y744560D01*
X54460Y741487D01*
X56123Y737473D01*
X56123Y733127D01*
X54460Y729113D01*
X51387Y726040D01*
X47373Y724377D01*
X43027Y724377D01*
G37*
%LPD*%
%LPC*%
G36*
X126327Y70777D02*
X126327Y70777D01*
X122313Y72440D01*
X119240Y75513D01*
X117577Y79527D01*
X117577Y83873D01*
X119240Y87887D01*
X122313Y90960D01*
X126327Y92623D01*
X130673Y92623D01*
X134687Y90960D01*
X137760Y87887D01*
X139423Y83873D01*
X139423Y79527D01*
X137760Y75513D01*
X134687Y72440D01*
X130673Y70777D01*
X126327Y70777D01*
G37*
%LPD*%
%LPC*%
G36*
X47827Y59077D02*
X47827Y59077D01*
X43813Y60740D01*
X40740Y63813D01*
X39077Y67827D01*
X39077Y72173D01*
X40740Y76187D01*
X43813Y79260D01*
X47827Y80923D01*
X52173Y80923D01*
X56187Y79260D01*
X59260Y76187D01*
X60923Y72173D01*
X60923Y67827D01*
X59260Y63813D01*
X56187Y60740D01*
X52173Y59077D01*
X47827Y59077D01*
G37*
%LPD*%
%LPC*%
G36*
X45255Y557120D02*
X45255Y557120D01*
X41660Y558609D01*
X38909Y561360D01*
X37420Y564955D01*
X37420Y568845D01*
X38909Y572440D01*
X41660Y575191D01*
X45255Y576680D01*
X49145Y576680D01*
X52740Y575191D01*
X55491Y572440D01*
X56980Y568845D01*
X56980Y564955D01*
X55491Y561360D01*
X52740Y558609D01*
X49145Y557120D01*
X45255Y557120D01*
G37*
%LPD*%
%LPC*%
G36*
X100955Y612320D02*
X100955Y612320D01*
X97360Y613809D01*
X94609Y616560D01*
X93120Y620155D01*
X93120Y624045D01*
X94609Y627640D01*
X97360Y630391D01*
X100955Y631880D01*
X104845Y631880D01*
X108440Y630391D01*
X111191Y627640D01*
X112680Y624045D01*
X112680Y620155D01*
X111191Y616560D01*
X108440Y613809D01*
X104845Y612320D01*
X100955Y612320D01*
G37*
%LPD*%
%LPC*%
G36*
X45255Y607920D02*
X45255Y607920D01*
X41660Y609409D01*
X38909Y612160D01*
X37420Y615755D01*
X37420Y619645D01*
X38909Y623240D01*
X41660Y625991D01*
X45255Y627480D01*
X49145Y627480D01*
X52740Y625991D01*
X55491Y623240D01*
X56980Y619645D01*
X56980Y615755D01*
X55491Y612160D01*
X52740Y609409D01*
X49145Y607920D01*
X45255Y607920D01*
G37*
%LPD*%
%LPC*%
G36*
X178480Y743447D02*
X178480Y743447D01*
X174932Y744917D01*
X172217Y747632D01*
X170747Y751180D01*
X170747Y755020D01*
X172217Y758568D01*
X174932Y761283D01*
X178480Y762753D01*
X182320Y762753D01*
X185868Y761283D01*
X188583Y758568D01*
X190053Y755020D01*
X190053Y751180D01*
X188583Y747632D01*
X185868Y744917D01*
X182320Y743447D01*
X178480Y743447D01*
G37*
%LPD*%
%LPC*%
G36*
X254680Y743447D02*
X254680Y743447D01*
X251132Y744917D01*
X248417Y747632D01*
X246947Y751180D01*
X246947Y755020D01*
X248417Y758568D01*
X251132Y761283D01*
X254680Y762753D01*
X258520Y762753D01*
X262068Y761283D01*
X264783Y758568D01*
X266253Y755020D01*
X266253Y751180D01*
X264783Y747632D01*
X262068Y744917D01*
X258520Y743447D01*
X254680Y743447D01*
G37*
%LPD*%
%LPC*%
G36*
X178480Y667247D02*
X178480Y667247D01*
X174932Y668717D01*
X172217Y671432D01*
X170747Y674980D01*
X170747Y678820D01*
X172217Y682368D01*
X174932Y685083D01*
X178480Y686553D01*
X182320Y686553D01*
X185868Y685083D01*
X188583Y682368D01*
X190053Y678820D01*
X190053Y674980D01*
X188583Y671432D01*
X185868Y668717D01*
X182320Y667247D01*
X178480Y667247D01*
G37*
%LPD*%
%LPC*%
G36*
X254680Y667247D02*
X254680Y667247D01*
X251132Y668717D01*
X248417Y671432D01*
X246947Y674980D01*
X246947Y678820D01*
X248417Y682368D01*
X251132Y685083D01*
X254680Y686553D01*
X258520Y686553D01*
X262068Y685083D01*
X264783Y682368D01*
X266253Y678820D01*
X266253Y674980D01*
X264783Y671432D01*
X262068Y668717D01*
X258520Y667247D01*
X254680Y667247D01*
G37*
%LPD*%
%LPC*%
G36*
X254680Y641847D02*
X254680Y641847D01*
X251132Y643317D01*
X248417Y646032D01*
X246947Y649580D01*
X246947Y653420D01*
X248417Y656968D01*
X251132Y659683D01*
X254680Y661153D01*
X258520Y661153D01*
X262068Y659683D01*
X264783Y656968D01*
X266253Y653420D01*
X266253Y649580D01*
X264783Y646032D01*
X262068Y643317D01*
X258520Y641847D01*
X254680Y641847D01*
G37*
%LPD*%
%LPC*%
G36*
X254680Y565647D02*
X254680Y565647D01*
X251132Y567117D01*
X248417Y569832D01*
X246947Y573380D01*
X246947Y577220D01*
X248417Y580768D01*
X251132Y583483D01*
X254680Y584953D01*
X258520Y584953D01*
X262068Y583483D01*
X264783Y580768D01*
X266253Y577220D01*
X266253Y573380D01*
X264783Y569832D01*
X262068Y567117D01*
X258520Y565647D01*
X254680Y565647D01*
G37*
%LPD*%
%LPC*%
G36*
X178480Y565647D02*
X178480Y565647D01*
X174932Y567117D01*
X172217Y569832D01*
X170747Y573380D01*
X170747Y577220D01*
X172217Y580768D01*
X174932Y583483D01*
X178480Y584953D01*
X182320Y584953D01*
X185868Y583483D01*
X188583Y580768D01*
X190053Y577220D01*
X190053Y573380D01*
X188583Y569832D01*
X185868Y567117D01*
X182320Y565647D01*
X178480Y565647D01*
G37*
%LPD*%
%LPC*%
G36*
X178480Y464047D02*
X178480Y464047D01*
X174932Y465517D01*
X172217Y468232D01*
X170747Y471780D01*
X170747Y475620D01*
X172217Y479168D01*
X174932Y481883D01*
X178480Y483353D01*
X182320Y483353D01*
X185868Y481883D01*
X188583Y479168D01*
X190053Y475620D01*
X190053Y471780D01*
X188583Y468232D01*
X185868Y465517D01*
X182320Y464047D01*
X178480Y464047D01*
G37*
%LPD*%
%LPC*%
G36*
X178480Y692647D02*
X178480Y692647D01*
X174932Y694117D01*
X172217Y696832D01*
X170747Y700380D01*
X170747Y704220D01*
X172217Y707768D01*
X174932Y710483D01*
X178480Y711953D01*
X182320Y711953D01*
X185868Y710483D01*
X188583Y707768D01*
X190053Y704220D01*
X190053Y700380D01*
X188583Y696832D01*
X185868Y694117D01*
X182320Y692647D01*
X178480Y692647D01*
G37*
%LPD*%
%LPC*%
G36*
X254680Y464047D02*
X254680Y464047D01*
X251132Y465517D01*
X248417Y468232D01*
X246947Y471780D01*
X246947Y475620D01*
X248417Y479168D01*
X251132Y481883D01*
X254680Y483353D01*
X258520Y483353D01*
X262068Y481883D01*
X264783Y479168D01*
X266253Y475620D01*
X266253Y471780D01*
X264783Y468232D01*
X262068Y465517D01*
X258520Y464047D01*
X254680Y464047D01*
G37*
%LPD*%
%LPC*%
G36*
X254680Y692647D02*
X254680Y692647D01*
X251132Y694117D01*
X248417Y696832D01*
X246947Y700380D01*
X246947Y704220D01*
X248417Y707768D01*
X251132Y710483D01*
X254680Y711953D01*
X258520Y711953D01*
X262068Y710483D01*
X264783Y707768D01*
X266253Y704220D01*
X266253Y700380D01*
X264783Y696832D01*
X262068Y694117D01*
X258520Y692647D01*
X254680Y692647D01*
G37*
%LPD*%
%LPC*%
G36*
X178480Y489447D02*
X178480Y489447D01*
X174932Y490917D01*
X172217Y493632D01*
X170747Y497180D01*
X170747Y501020D01*
X172217Y504568D01*
X174932Y507283D01*
X178480Y508753D01*
X182320Y508753D01*
X185868Y507283D01*
X188583Y504568D01*
X190053Y501020D01*
X190053Y497180D01*
X188583Y493632D01*
X185868Y490917D01*
X182320Y489447D01*
X178480Y489447D01*
G37*
%LPD*%
%LPC*%
G36*
X178480Y718047D02*
X178480Y718047D01*
X174932Y719517D01*
X172217Y722232D01*
X170747Y725780D01*
X170747Y729620D01*
X172217Y733168D01*
X174932Y735883D01*
X178480Y737353D01*
X182320Y737353D01*
X185868Y735883D01*
X188583Y733168D01*
X190053Y729620D01*
X190053Y725780D01*
X188583Y722232D01*
X185868Y719517D01*
X182320Y718047D01*
X178480Y718047D01*
G37*
%LPD*%
%LPC*%
G36*
X254680Y718047D02*
X254680Y718047D01*
X251132Y719517D01*
X248417Y722232D01*
X246947Y725780D01*
X246947Y729620D01*
X248417Y733168D01*
X251132Y735883D01*
X254680Y737353D01*
X258520Y737353D01*
X262068Y735883D01*
X264783Y733168D01*
X266253Y729620D01*
X266253Y725780D01*
X264783Y722232D01*
X262068Y719517D01*
X258520Y718047D01*
X254680Y718047D01*
G37*
%LPD*%
%LPC*%
G36*
X178480Y514847D02*
X178480Y514847D01*
X174932Y516317D01*
X172217Y519032D01*
X170747Y522580D01*
X170747Y526420D01*
X172217Y529968D01*
X174932Y532683D01*
X178480Y534153D01*
X182320Y534153D01*
X185868Y532683D01*
X188583Y529968D01*
X190053Y526420D01*
X190053Y522580D01*
X188583Y519032D01*
X185868Y516317D01*
X182320Y514847D01*
X178480Y514847D01*
G37*
%LPD*%
%LPC*%
G36*
X178480Y540247D02*
X178480Y540247D01*
X174932Y541717D01*
X172217Y544432D01*
X170747Y547980D01*
X170747Y551820D01*
X172217Y555368D01*
X174932Y558083D01*
X178480Y559553D01*
X182320Y559553D01*
X185868Y558083D01*
X188583Y555368D01*
X190053Y551820D01*
X190053Y547980D01*
X188583Y544432D01*
X185868Y541717D01*
X182320Y540247D01*
X178480Y540247D01*
G37*
%LPD*%
%LPC*%
G36*
X254680Y591047D02*
X254680Y591047D01*
X251132Y592517D01*
X248417Y595232D01*
X246947Y598780D01*
X246947Y602620D01*
X248417Y606168D01*
X251132Y608883D01*
X254680Y610353D01*
X258520Y610353D01*
X262068Y608883D01*
X264783Y606168D01*
X266253Y602620D01*
X266253Y598780D01*
X264783Y595232D01*
X262068Y592517D01*
X258520Y591047D01*
X254680Y591047D01*
G37*
%LPD*%
%LPC*%
G36*
X254680Y540247D02*
X254680Y540247D01*
X251132Y541717D01*
X248417Y544432D01*
X246947Y547980D01*
X246947Y551820D01*
X248417Y555368D01*
X251132Y558083D01*
X254680Y559553D01*
X258520Y559553D01*
X262068Y558083D01*
X264783Y555368D01*
X266253Y551820D01*
X266253Y547980D01*
X264783Y544432D01*
X262068Y541717D01*
X258520Y540247D01*
X254680Y540247D01*
G37*
%LPD*%
%LPC*%
G36*
X178480Y768847D02*
X178480Y768847D01*
X174932Y770317D01*
X172217Y773032D01*
X170747Y776580D01*
X170747Y780420D01*
X172217Y783968D01*
X174932Y786683D01*
X178480Y788153D01*
X182320Y788153D01*
X185868Y786683D01*
X188583Y783968D01*
X190053Y780420D01*
X190053Y776580D01*
X188583Y773032D01*
X185868Y770317D01*
X182320Y768847D01*
X178480Y768847D01*
G37*
%LPD*%
%LPC*%
G36*
X254680Y768847D02*
X254680Y768847D01*
X251132Y770317D01*
X248417Y773032D01*
X246947Y776580D01*
X246947Y780420D01*
X248417Y783968D01*
X251132Y786683D01*
X254680Y788153D01*
X258520Y788153D01*
X262068Y786683D01*
X264783Y783968D01*
X266253Y780420D01*
X266253Y776580D01*
X264783Y773032D01*
X262068Y770317D01*
X258520Y768847D01*
X254680Y768847D01*
G37*
%LPD*%
%LPC*%
G36*
X178480Y641847D02*
X178480Y641847D01*
X174932Y643317D01*
X172217Y646032D01*
X170747Y649580D01*
X170747Y653420D01*
X172217Y656968D01*
X174932Y659683D01*
X178480Y661153D01*
X182320Y661153D01*
X185868Y659683D01*
X188583Y656968D01*
X190053Y653420D01*
X190053Y649580D01*
X188583Y646032D01*
X185868Y643317D01*
X182320Y641847D01*
X178480Y641847D01*
G37*
%LPD*%
%LPC*%
G36*
X817623Y567273D02*
X817623Y567273D01*
X817623Y580939D01*
X819669Y580615D01*
X821950Y579874D01*
X824088Y578785D01*
X826029Y577375D01*
X827725Y575679D01*
X829135Y573738D01*
X830224Y571600D01*
X830965Y569319D01*
X831289Y567273D01*
X817623Y567273D01*
G37*
%LPD*%
%LPC*%
G36*
X291373Y204123D02*
X291373Y204123D01*
X291373Y217789D01*
X293419Y217465D01*
X295700Y216724D01*
X297838Y215635D01*
X299779Y214225D01*
X301475Y212529D01*
X302885Y210588D01*
X303974Y208450D01*
X304715Y206169D01*
X305039Y204123D01*
X291373Y204123D01*
G37*
%LPD*%
%LPC*%
G36*
X818923Y347273D02*
X818923Y347273D01*
X818923Y360939D01*
X820969Y360615D01*
X823250Y359874D01*
X825388Y358785D01*
X827329Y357375D01*
X829025Y355679D01*
X830435Y353738D01*
X831524Y351600D01*
X832265Y349319D01*
X832589Y347273D01*
X818923Y347273D01*
G37*
%LPD*%
%LPC*%
G36*
X291373Y201077D02*
X291373Y201077D01*
X305039Y201077D01*
X304715Y199031D01*
X303974Y196750D01*
X302885Y194612D01*
X301475Y192671D01*
X299779Y190975D01*
X297838Y189565D01*
X295700Y188476D01*
X293419Y187735D01*
X291373Y187411D01*
X291373Y201077D01*
G37*
%LPD*%
%LPC*%
G36*
X800911Y567273D02*
X800911Y567273D01*
X801235Y569319D01*
X801976Y571600D01*
X803065Y573738D01*
X804475Y575679D01*
X806171Y577375D01*
X808112Y578785D01*
X810250Y579874D01*
X812531Y580615D01*
X814577Y580939D01*
X814577Y567273D01*
X800911Y567273D01*
G37*
%LPD*%
%LPC*%
G36*
X802211Y347273D02*
X802211Y347273D01*
X802535Y349319D01*
X803276Y351600D01*
X804365Y353738D01*
X805775Y355679D01*
X807471Y357375D01*
X809412Y358785D01*
X811550Y359874D01*
X813831Y360615D01*
X815877Y360939D01*
X815877Y347273D01*
X802211Y347273D01*
G37*
%LPD*%
%LPC*%
G36*
X274661Y204123D02*
X274661Y204123D01*
X274985Y206169D01*
X275726Y208450D01*
X276815Y210588D01*
X278225Y212529D01*
X279921Y214225D01*
X281862Y215635D01*
X284000Y216724D01*
X286281Y217465D01*
X288327Y217789D01*
X288327Y204123D01*
X274661Y204123D01*
G37*
%LPD*%
%LPC*%
G36*
X818923Y344227D02*
X818923Y344227D01*
X832589Y344227D01*
X832265Y342181D01*
X831524Y339900D01*
X830435Y337762D01*
X829025Y335821D01*
X827329Y334125D01*
X825388Y332715D01*
X823250Y331626D01*
X820969Y330885D01*
X818923Y330561D01*
X818923Y344227D01*
G37*
%LPD*%
%LPC*%
G36*
X817623Y564227D02*
X817623Y564227D01*
X831289Y564227D01*
X830965Y562181D01*
X830224Y559900D01*
X829135Y557762D01*
X827725Y555821D01*
X826029Y554125D01*
X824088Y552715D01*
X821950Y551626D01*
X819669Y550885D01*
X817623Y550561D01*
X817623Y564227D01*
G37*
%LPD*%
%LPC*%
G36*
X286281Y187735D02*
X286281Y187735D01*
X284000Y188476D01*
X281862Y189565D01*
X279921Y190975D01*
X278225Y192671D01*
X276815Y194612D01*
X275726Y196750D01*
X274985Y199031D01*
X274661Y201077D01*
X288327Y201077D01*
X288327Y187411D01*
X286281Y187735D01*
G37*
%LPD*%
%LPC*%
G36*
X813831Y330885D02*
X813831Y330885D01*
X811550Y331626D01*
X809412Y332715D01*
X807471Y334125D01*
X805775Y335821D01*
X804365Y337762D01*
X803276Y339900D01*
X802535Y342181D01*
X802211Y344227D01*
X815877Y344227D01*
X815877Y330561D01*
X813831Y330885D01*
G37*
%LPD*%
%LPC*%
G36*
X566281Y189035D02*
X566281Y189035D01*
X564000Y189776D01*
X561862Y190865D01*
X559921Y192275D01*
X558225Y193971D01*
X556815Y195912D01*
X555726Y198050D01*
X554985Y200331D01*
X554661Y202377D01*
X568327Y202377D01*
X568327Y188711D01*
X566281Y189035D01*
G37*
%LPD*%
%LPC*%
G36*
X812531Y550885D02*
X812531Y550885D01*
X810250Y551626D01*
X808112Y552715D01*
X806171Y554125D01*
X804475Y555821D01*
X803065Y557762D01*
X801976Y559900D01*
X801235Y562181D01*
X800911Y564227D01*
X814577Y564227D01*
X814577Y550561D01*
X812531Y550885D01*
G37*
%LPD*%
%LPC*%
G36*
X529423Y315923D02*
X529423Y315923D01*
X529423Y332066D01*
X530279Y331931D01*
X531800Y331436D01*
X533225Y330710D01*
X534519Y329770D01*
X535650Y328639D01*
X536590Y327345D01*
X537316Y325920D01*
X537811Y324399D01*
X538061Y322820D01*
X538061Y315923D01*
X529423Y315923D01*
G37*
%LPD*%
%LPC*%
G36*
X396423Y315923D02*
X396423Y315923D01*
X396423Y332066D01*
X397279Y331931D01*
X398800Y331436D01*
X400225Y330710D01*
X401519Y329770D01*
X402650Y328639D01*
X403590Y327345D01*
X404316Y325920D01*
X404811Y324399D01*
X405061Y322820D01*
X405061Y315923D01*
X396423Y315923D01*
G37*
%LPD*%
%LPC*%
G36*
X171023Y859723D02*
X171023Y859723D01*
X171023Y875866D01*
X171879Y875731D01*
X173400Y875236D01*
X174825Y874510D01*
X176119Y873570D01*
X177250Y872439D01*
X178190Y871145D01*
X178916Y869720D01*
X179411Y868199D01*
X179661Y866620D01*
X179661Y859723D01*
X171023Y859723D01*
G37*
%LPD*%
%LPC*%
G36*
X529423Y312877D02*
X529423Y312877D01*
X538061Y312877D01*
X538061Y305980D01*
X537811Y304401D01*
X537316Y302880D01*
X536590Y301455D01*
X535650Y300161D01*
X534519Y299030D01*
X533225Y298090D01*
X531800Y297364D01*
X530279Y296869D01*
X529423Y296734D01*
X529423Y312877D01*
G37*
%LPD*%
%LPC*%
G36*
X396423Y312877D02*
X396423Y312877D01*
X405061Y312877D01*
X405061Y305980D01*
X404811Y304401D01*
X404316Y302880D01*
X403590Y301455D01*
X402650Y300161D01*
X401519Y299030D01*
X400225Y298090D01*
X398800Y297364D01*
X397279Y296869D01*
X396423Y296734D01*
X396423Y312877D01*
G37*
%LPD*%
%LPC*%
G36*
X171023Y856677D02*
X171023Y856677D01*
X179661Y856677D01*
X179661Y849780D01*
X179411Y848201D01*
X178916Y846680D01*
X178190Y845255D01*
X177250Y843961D01*
X176119Y842830D01*
X174825Y841890D01*
X173400Y841164D01*
X171879Y840669D01*
X171023Y840534D01*
X171023Y856677D01*
G37*
%LPD*%
%LPC*%
G36*
X342623Y802523D02*
X342623Y802523D01*
X342623Y813962D01*
X344154Y813720D01*
X346106Y813085D01*
X347935Y812153D01*
X349596Y810947D01*
X351047Y809496D01*
X352253Y807835D01*
X353185Y806006D01*
X353820Y804054D01*
X354062Y802523D01*
X342623Y802523D01*
G37*
%LPD*%
%LPC*%
G36*
X328138Y802523D02*
X328138Y802523D01*
X328380Y804054D01*
X329015Y806006D01*
X329947Y807835D01*
X331153Y809496D01*
X332604Y810947D01*
X334265Y812153D01*
X336094Y813085D01*
X338046Y813720D01*
X339577Y813962D01*
X339577Y802523D01*
X328138Y802523D01*
G37*
%LPD*%
%LPC*%
G36*
X342623Y799477D02*
X342623Y799477D01*
X354062Y799477D01*
X353820Y797946D01*
X353185Y795994D01*
X352253Y794165D01*
X351047Y792504D01*
X349596Y791053D01*
X347935Y789847D01*
X346106Y788915D01*
X344154Y788280D01*
X342623Y788038D01*
X342623Y799477D01*
G37*
%LPD*%
%LPC*%
G36*
X338046Y788280D02*
X338046Y788280D01*
X336094Y788915D01*
X334265Y789847D01*
X332604Y791053D01*
X331153Y792504D01*
X329947Y794165D01*
X329015Y795994D01*
X328380Y797946D01*
X328138Y799477D01*
X339577Y799477D01*
X339577Y788038D01*
X338046Y788280D01*
G37*
%LPD*%
%LPC*%
G36*
X174223Y301523D02*
X174223Y301523D01*
X174223Y311846D01*
X175496Y311645D01*
X177283Y311064D01*
X178957Y310211D01*
X180478Y309106D01*
X181806Y307778D01*
X182911Y306257D01*
X183764Y304583D01*
X184345Y302796D01*
X184546Y301523D01*
X174223Y301523D01*
G37*
%LPD*%
%LPC*%
G36*
X380223Y559423D02*
X380223Y559423D01*
X380223Y569746D01*
X381496Y569545D01*
X383283Y568964D01*
X384957Y568111D01*
X386478Y567006D01*
X387806Y565678D01*
X388911Y564157D01*
X389764Y562483D01*
X390345Y560696D01*
X390546Y559423D01*
X380223Y559423D01*
G37*
%LPD*%
%LPC*%
G36*
X481823Y559423D02*
X481823Y559423D01*
X481823Y569746D01*
X483096Y569545D01*
X484883Y568964D01*
X486557Y568111D01*
X488078Y567006D01*
X489406Y565678D01*
X490511Y564157D01*
X491364Y562483D01*
X491945Y560696D01*
X492146Y559423D01*
X481823Y559423D01*
G37*
%LPD*%
%LPC*%
G36*
X206223Y83223D02*
X206223Y83223D01*
X206223Y93546D01*
X207496Y93345D01*
X209283Y92764D01*
X210957Y91911D01*
X212478Y90806D01*
X213806Y89478D01*
X214911Y87957D01*
X215764Y86283D01*
X216345Y84496D01*
X216546Y83223D01*
X206223Y83223D01*
G37*
%LPD*%
%LPC*%
G36*
X446923Y651523D02*
X446923Y651523D01*
X446923Y661846D01*
X448196Y661645D01*
X449983Y661064D01*
X451657Y660211D01*
X453178Y659106D01*
X454506Y657778D01*
X455611Y656257D01*
X456464Y654583D01*
X457045Y652796D01*
X457246Y651523D01*
X446923Y651523D01*
G37*
%LPD*%
%LPC*%
G36*
X196223Y219823D02*
X196223Y219823D01*
X196223Y230146D01*
X197496Y229945D01*
X199283Y229364D01*
X200957Y228511D01*
X202478Y227406D01*
X203806Y226078D01*
X204911Y224557D01*
X205764Y222883D01*
X206345Y221096D01*
X206546Y219823D01*
X196223Y219823D01*
G37*
%LPD*%
%LPC*%
G36*
X194623Y159823D02*
X194623Y159823D01*
X194623Y170146D01*
X195896Y169945D01*
X197683Y169364D01*
X199357Y168511D01*
X200878Y167406D01*
X202206Y166078D01*
X203311Y164557D01*
X204164Y162883D01*
X204745Y161096D01*
X204946Y159823D01*
X194623Y159823D01*
G37*
%LPD*%
%LPC*%
G36*
X46723Y686023D02*
X46723Y686023D01*
X46723Y696346D01*
X47996Y696145D01*
X49783Y695564D01*
X51457Y694711D01*
X52978Y693606D01*
X54306Y692278D01*
X55411Y690757D01*
X56264Y689083D01*
X56845Y687296D01*
X57046Y686023D01*
X46723Y686023D01*
G37*
%LPD*%
%LPC*%
G36*
X366854Y559423D02*
X366854Y559423D01*
X367055Y560696D01*
X367636Y562483D01*
X368489Y564157D01*
X369594Y565678D01*
X370922Y567006D01*
X372443Y568111D01*
X374117Y568964D01*
X375904Y569545D01*
X377177Y569746D01*
X377177Y559423D01*
X366854Y559423D01*
G37*
%LPD*%
%LPC*%
G36*
X174223Y298477D02*
X174223Y298477D01*
X184546Y298477D01*
X184345Y297204D01*
X183764Y295417D01*
X182911Y293743D01*
X181806Y292222D01*
X180478Y290894D01*
X178957Y289789D01*
X177283Y288936D01*
X175496Y288355D01*
X174223Y288154D01*
X174223Y298477D01*
G37*
%LPD*%
%LPC*%
G36*
X196223Y216777D02*
X196223Y216777D01*
X206546Y216777D01*
X206345Y215504D01*
X205764Y213717D01*
X204911Y212043D01*
X203806Y210522D01*
X202478Y209194D01*
X200957Y208089D01*
X199283Y207236D01*
X197496Y206655D01*
X196223Y206454D01*
X196223Y216777D01*
G37*
%LPD*%
%LPC*%
G36*
X468454Y559423D02*
X468454Y559423D01*
X468655Y560696D01*
X469236Y562483D01*
X470089Y564157D01*
X471194Y565678D01*
X472522Y567006D01*
X474043Y568111D01*
X475717Y568964D01*
X477504Y569545D01*
X478777Y569746D01*
X478777Y559423D01*
X468454Y559423D01*
G37*
%LPD*%
%LPC*%
G36*
X206223Y80177D02*
X206223Y80177D01*
X216546Y80177D01*
X216345Y78904D01*
X215764Y77117D01*
X214911Y75443D01*
X213806Y73922D01*
X212478Y72594D01*
X210957Y71489D01*
X209283Y70636D01*
X207496Y70055D01*
X206223Y69854D01*
X206223Y80177D01*
G37*
%LPD*%
%LPC*%
G36*
X182854Y219823D02*
X182854Y219823D01*
X183055Y221096D01*
X183636Y222883D01*
X184489Y224557D01*
X185594Y226078D01*
X186922Y227406D01*
X188443Y228511D01*
X190117Y229364D01*
X191904Y229945D01*
X193177Y230146D01*
X193177Y219823D01*
X182854Y219823D01*
G37*
%LPD*%
%LPC*%
G36*
X380223Y556377D02*
X380223Y556377D01*
X390546Y556377D01*
X390345Y555104D01*
X389764Y553317D01*
X388911Y551643D01*
X387806Y550122D01*
X386478Y548794D01*
X384957Y547689D01*
X383283Y546836D01*
X381496Y546255D01*
X380223Y546054D01*
X380223Y556377D01*
G37*
%LPD*%
%LPC*%
G36*
X192854Y83223D02*
X192854Y83223D01*
X193055Y84496D01*
X193636Y86283D01*
X194489Y87957D01*
X195594Y89478D01*
X196922Y90806D01*
X198443Y91911D01*
X200117Y92764D01*
X201904Y93345D01*
X203177Y93546D01*
X203177Y83223D01*
X192854Y83223D01*
G37*
%LPD*%
%LPC*%
G36*
X446923Y648477D02*
X446923Y648477D01*
X457246Y648477D01*
X457045Y647204D01*
X456464Y645417D01*
X455611Y643743D01*
X454506Y642222D01*
X453178Y640894D01*
X451657Y639789D01*
X449983Y638936D01*
X448196Y638355D01*
X446923Y638154D01*
X446923Y648477D01*
G37*
%LPD*%
%LPC*%
G36*
X194623Y156777D02*
X194623Y156777D01*
X204946Y156777D01*
X204745Y155504D01*
X204164Y153717D01*
X203311Y152043D01*
X202206Y150522D01*
X200878Y149194D01*
X199357Y148089D01*
X197683Y147236D01*
X195896Y146655D01*
X194623Y146454D01*
X194623Y156777D01*
G37*
%LPD*%
%LPC*%
G36*
X481823Y556377D02*
X481823Y556377D01*
X492146Y556377D01*
X491945Y555104D01*
X491364Y553317D01*
X490511Y551643D01*
X489406Y550122D01*
X488078Y548794D01*
X486557Y547689D01*
X484883Y546836D01*
X483096Y546255D01*
X481823Y546054D01*
X481823Y556377D01*
G37*
%LPD*%
%LPC*%
G36*
X181254Y159823D02*
X181254Y159823D01*
X181455Y161096D01*
X182036Y162883D01*
X182889Y164557D01*
X183994Y166078D01*
X185322Y167406D01*
X186843Y168511D01*
X188517Y169364D01*
X190304Y169945D01*
X191577Y170146D01*
X191577Y159823D01*
X181254Y159823D01*
G37*
%LPD*%
%LPC*%
G36*
X46723Y682977D02*
X46723Y682977D01*
X57046Y682977D01*
X56845Y681704D01*
X56264Y679917D01*
X55411Y678243D01*
X54306Y676722D01*
X52978Y675394D01*
X51457Y674289D01*
X49783Y673436D01*
X47996Y672855D01*
X46723Y672654D01*
X46723Y682977D01*
G37*
%LPD*%
%LPC*%
G36*
X33354Y686023D02*
X33354Y686023D01*
X33555Y687296D01*
X34136Y689083D01*
X34989Y690757D01*
X36094Y692278D01*
X37422Y693606D01*
X38943Y694711D01*
X40617Y695564D01*
X42404Y696145D01*
X43677Y696346D01*
X43677Y686023D01*
X33354Y686023D01*
G37*
%LPD*%
%LPC*%
G36*
X160854Y301523D02*
X160854Y301523D01*
X161055Y302796D01*
X161636Y304583D01*
X162489Y306257D01*
X163594Y307778D01*
X164922Y309106D01*
X166443Y310211D01*
X168117Y311064D01*
X169904Y311645D01*
X171177Y311846D01*
X171177Y301523D01*
X160854Y301523D01*
G37*
%LPD*%
%LPC*%
G36*
X201904Y70055D02*
X201904Y70055D01*
X200117Y70636D01*
X198443Y71489D01*
X196922Y72594D01*
X195594Y73922D01*
X194489Y75443D01*
X193636Y77117D01*
X193055Y78904D01*
X192854Y80177D01*
X203177Y80177D01*
X203177Y69854D01*
X201904Y70055D01*
G37*
%LPD*%
%LPC*%
G36*
X42404Y672855D02*
X42404Y672855D01*
X40617Y673436D01*
X38943Y674289D01*
X37422Y675394D01*
X36094Y676722D01*
X34989Y678243D01*
X34136Y679917D01*
X33555Y681704D01*
X33354Y682977D01*
X43677Y682977D01*
X43677Y672654D01*
X42404Y672855D01*
G37*
%LPD*%
%LPC*%
G36*
X375904Y546255D02*
X375904Y546255D01*
X374117Y546836D01*
X372443Y547689D01*
X370922Y548794D01*
X369594Y550122D01*
X368489Y551643D01*
X367636Y553317D01*
X367055Y555104D01*
X366854Y556377D01*
X377177Y556377D01*
X377177Y546054D01*
X375904Y546255D01*
G37*
%LPD*%
%LPC*%
G36*
X191904Y206655D02*
X191904Y206655D01*
X190117Y207236D01*
X188443Y208089D01*
X186922Y209194D01*
X185594Y210522D01*
X184489Y212043D01*
X183636Y213717D01*
X183055Y215504D01*
X182854Y216777D01*
X193177Y216777D01*
X193177Y206454D01*
X191904Y206655D01*
G37*
%LPD*%
%LPC*%
G36*
X190304Y146655D02*
X190304Y146655D01*
X188517Y147236D01*
X186843Y148089D01*
X185322Y149194D01*
X183994Y150522D01*
X182889Y152043D01*
X182036Y153717D01*
X181455Y155504D01*
X181254Y156777D01*
X191577Y156777D01*
X191577Y146454D01*
X190304Y146655D01*
G37*
%LPD*%
%LPC*%
G36*
X477504Y546255D02*
X477504Y546255D01*
X475717Y546836D01*
X474043Y547689D01*
X472522Y548794D01*
X471194Y550122D01*
X470089Y551643D01*
X469236Y553317D01*
X468655Y555104D01*
X468454Y556377D01*
X478777Y556377D01*
X478777Y546054D01*
X477504Y546255D01*
G37*
%LPD*%
%LPC*%
G36*
X129823Y623623D02*
X129823Y623623D01*
X129823Y632789D01*
X130828Y632630D01*
X132444Y632105D01*
X133958Y631333D01*
X135333Y630334D01*
X136534Y629133D01*
X137533Y627758D01*
X138305Y626244D01*
X138830Y624628D01*
X138989Y623623D01*
X129823Y623623D01*
G37*
%LPD*%
%LPC*%
G36*
X30223Y854323D02*
X30223Y854323D01*
X30223Y863489D01*
X31228Y863330D01*
X32844Y862805D01*
X34358Y862033D01*
X35733Y861034D01*
X36934Y859833D01*
X37933Y858458D01*
X38705Y856944D01*
X39230Y855328D01*
X39389Y854323D01*
X30223Y854323D01*
G37*
%LPD*%
%LPC*%
G36*
X107823Y536377D02*
X107823Y536377D01*
X116989Y536377D01*
X116830Y535372D01*
X116305Y533756D01*
X115533Y532242D01*
X114534Y530867D01*
X113333Y529666D01*
X111958Y528667D01*
X110444Y527895D01*
X108828Y527370D01*
X107823Y527211D01*
X107823Y536377D01*
G37*
%LPD*%
%LPC*%
G36*
X117611Y623623D02*
X117611Y623623D01*
X117770Y624628D01*
X118295Y626244D01*
X119067Y627758D01*
X120066Y629133D01*
X121267Y630334D01*
X122642Y631333D01*
X124156Y632105D01*
X125772Y632630D01*
X126777Y632789D01*
X126777Y623623D01*
X117611Y623623D01*
G37*
%LPD*%
%LPC*%
G36*
X129823Y620577D02*
X129823Y620577D01*
X138989Y620577D01*
X138830Y619572D01*
X138305Y617956D01*
X137533Y616442D01*
X136534Y615067D01*
X135333Y613866D01*
X133958Y612867D01*
X132444Y612095D01*
X130828Y611570D01*
X129823Y611411D01*
X129823Y620577D01*
G37*
%LPD*%
%LPC*%
G36*
X30223Y851277D02*
X30223Y851277D01*
X39389Y851277D01*
X39230Y850272D01*
X38705Y848656D01*
X37933Y847142D01*
X36934Y845767D01*
X35733Y844566D01*
X34358Y843567D01*
X32844Y842795D01*
X31228Y842270D01*
X30223Y842111D01*
X30223Y851277D01*
G37*
%LPD*%
%LPC*%
G36*
X18011Y854323D02*
X18011Y854323D01*
X18170Y855328D01*
X18695Y856944D01*
X19467Y858458D01*
X20466Y859833D01*
X21667Y861034D01*
X23042Y862033D01*
X24556Y862805D01*
X26172Y863330D01*
X27177Y863489D01*
X27177Y854323D01*
X18011Y854323D01*
G37*
%LPD*%
%LPC*%
G36*
X321511Y654323D02*
X321511Y654323D01*
X321670Y655328D01*
X322195Y656944D01*
X322967Y658458D01*
X323966Y659833D01*
X325167Y661034D01*
X326542Y662033D01*
X328056Y662805D01*
X329672Y663330D01*
X330677Y663489D01*
X330677Y654323D01*
X321511Y654323D01*
G37*
%LPD*%
%LPC*%
G36*
X125772Y611570D02*
X125772Y611570D01*
X124156Y612095D01*
X122642Y612867D01*
X121267Y613866D01*
X120066Y615067D01*
X119067Y616442D01*
X118295Y617956D01*
X117770Y619572D01*
X117611Y620577D01*
X126777Y620577D01*
X126777Y611411D01*
X125772Y611570D01*
G37*
%LPD*%
%LPC*%
G36*
X329672Y642270D02*
X329672Y642270D01*
X328056Y642795D01*
X326542Y643567D01*
X325167Y644566D01*
X323966Y645767D01*
X322967Y647142D01*
X322195Y648656D01*
X321670Y650272D01*
X321511Y651277D01*
X330677Y651277D01*
X330677Y642111D01*
X329672Y642270D01*
G37*
%LPD*%
%LPC*%
G36*
X26172Y842270D02*
X26172Y842270D01*
X24556Y842795D01*
X23042Y843567D01*
X21667Y844566D01*
X20466Y845767D01*
X19467Y847142D01*
X18695Y848656D01*
X18170Y850272D01*
X18011Y851277D01*
X27177Y851277D01*
X27177Y842111D01*
X26172Y842270D01*
G37*
%LPD*%
%LPC*%
G36*
X181923Y602223D02*
X181923Y602223D01*
X181923Y611260D01*
X182898Y611106D01*
X184495Y610587D01*
X185992Y609825D01*
X187350Y608838D01*
X188538Y607650D01*
X189525Y606292D01*
X190287Y604795D01*
X190806Y603198D01*
X190960Y602223D01*
X181923Y602223D01*
G37*
%LPD*%
%LPC*%
G36*
X258123Y627623D02*
X258123Y627623D01*
X258123Y636660D01*
X259098Y636506D01*
X260695Y635987D01*
X262192Y635225D01*
X263550Y634238D01*
X264738Y633050D01*
X265725Y631692D01*
X266487Y630195D01*
X267006Y628598D01*
X267160Y627623D01*
X258123Y627623D01*
G37*
%LPD*%
%LPC*%
G36*
X169840Y602223D02*
X169840Y602223D01*
X169994Y603198D01*
X170513Y604795D01*
X171275Y606292D01*
X172262Y607650D01*
X173450Y608838D01*
X174808Y609825D01*
X176305Y610587D01*
X177902Y611106D01*
X178877Y611260D01*
X178877Y602223D01*
X169840Y602223D01*
G37*
%LPD*%
%LPC*%
G36*
X258123Y624577D02*
X258123Y624577D01*
X267160Y624577D01*
X267006Y623602D01*
X266487Y622005D01*
X265725Y620508D01*
X264738Y619150D01*
X263550Y617962D01*
X262192Y616975D01*
X260695Y616213D01*
X259098Y615694D01*
X258123Y615540D01*
X258123Y624577D01*
G37*
%LPD*%
%LPC*%
G36*
X181923Y599177D02*
X181923Y599177D01*
X190960Y599177D01*
X190806Y598202D01*
X190287Y596605D01*
X189525Y595108D01*
X188538Y593750D01*
X187350Y592562D01*
X185992Y591575D01*
X184495Y590813D01*
X182898Y590294D01*
X181923Y590140D01*
X181923Y599177D01*
G37*
%LPD*%
%LPC*%
G36*
X246040Y627623D02*
X246040Y627623D01*
X246194Y628598D01*
X246713Y630195D01*
X247475Y631692D01*
X248462Y633050D01*
X249650Y634238D01*
X251008Y635225D01*
X252505Y635987D01*
X254102Y636506D01*
X255077Y636660D01*
X255077Y627623D01*
X246040Y627623D01*
G37*
%LPD*%
%LPC*%
G36*
X254102Y615694D02*
X254102Y615694D01*
X252505Y616213D01*
X251008Y616975D01*
X249650Y617962D01*
X248462Y619150D01*
X247475Y620508D01*
X246713Y622005D01*
X246194Y623602D01*
X246040Y624577D01*
X255077Y624577D01*
X255077Y615540D01*
X254102Y615694D01*
G37*
%LPD*%
%LPC*%
G36*
X177902Y590294D02*
X177902Y590294D01*
X176305Y590813D01*
X174808Y591575D01*
X173450Y592562D01*
X172262Y593750D01*
X171275Y595108D01*
X170513Y596605D01*
X169994Y598202D01*
X169840Y599177D01*
X178877Y599177D01*
X178877Y590140D01*
X177902Y590294D01*
G37*
%LPD*%
%LPC*%
G36*
X128299Y622099D02*
X128299Y622099D01*
X128299Y622101D01*
X128301Y622101D01*
X128301Y622099D01*
X128299Y622099D01*
G37*
%LPD*%
%LPC*%
G36*
X194699Y218299D02*
X194699Y218299D01*
X194699Y218301D01*
X194701Y218301D01*
X194701Y218299D01*
X194699Y218299D01*
G37*
%LPD*%
%LPC*%
G36*
X45199Y684499D02*
X45199Y684499D01*
X45199Y684501D01*
X45201Y684501D01*
X45201Y684499D01*
X45199Y684499D01*
G37*
%LPD*%
%LPC*%
G36*
X180399Y600699D02*
X180399Y600699D01*
X180399Y600701D01*
X180401Y600701D01*
X180401Y600699D01*
X180399Y600699D01*
G37*
%LPD*%
%LPC*%
G36*
X341099Y800999D02*
X341099Y800999D01*
X341099Y801001D01*
X341101Y801001D01*
X341101Y800999D01*
X341099Y800999D01*
G37*
%LPD*%
%LPC*%
G36*
X480299Y557899D02*
X480299Y557899D01*
X480299Y557901D01*
X480301Y557901D01*
X480301Y557899D01*
X480299Y557899D01*
G37*
%LPD*%
%LPC*%
G36*
X378699Y557899D02*
X378699Y557899D01*
X378699Y557901D01*
X378701Y557901D01*
X378701Y557899D01*
X378699Y557899D01*
G37*
%LPD*%
%LPC*%
G36*
X193099Y158299D02*
X193099Y158299D01*
X193099Y158301D01*
X193101Y158301D01*
X193101Y158299D01*
X193099Y158299D01*
G37*
%LPD*%
%LPC*%
G36*
X816099Y565749D02*
X816099Y565749D01*
X816099Y565751D01*
X816101Y565751D01*
X816101Y565749D01*
X816099Y565749D01*
G37*
%LPD*%
%LPC*%
G36*
X172699Y299999D02*
X172699Y299999D01*
X172699Y300001D01*
X172701Y300001D01*
X172701Y299999D01*
X172699Y299999D01*
G37*
%LPD*%
%LPC*%
G36*
X204699Y81699D02*
X204699Y81699D01*
X204699Y81701D01*
X204701Y81701D01*
X204701Y81699D01*
X204699Y81699D01*
G37*
%LPD*%
%LPC*%
G36*
X289849Y202599D02*
X289849Y202599D01*
X289849Y202601D01*
X289851Y202601D01*
X289851Y202599D01*
X289849Y202599D01*
G37*
%LPD*%
%LPC*%
G36*
X256599Y626099D02*
X256599Y626099D01*
X256599Y626101D01*
X256601Y626101D01*
X256601Y626099D01*
X256599Y626099D01*
G37*
%LPD*%
%LPC*%
G36*
X28699Y852799D02*
X28699Y852799D01*
X28699Y852801D01*
X28701Y852801D01*
X28701Y852799D01*
X28699Y852799D01*
G37*
%LPD*%
%LPC*%
G36*
X817399Y345749D02*
X817399Y345749D01*
X817399Y345751D01*
X817401Y345751D01*
X817401Y345749D01*
X817399Y345749D01*
G37*
%LPD*%
D10*
X34800Y379600D03*
X34800Y405000D03*
X34800Y430400D03*
X34800Y455800D03*
D11*
X357200Y652800D03*
D12*
X332200Y652800D03*
D11*
X53700Y852800D03*
D12*
X28700Y852800D03*
X128300Y622100D03*
X102900Y622100D03*
X80900Y537900D03*
X106300Y537900D03*
D13*
X684700Y443540D02*
X684700Y421061D01*
X684700Y573461D02*
X684700Y595940D01*
X798500Y276040D02*
X798500Y253561D01*
X798500Y123640D02*
X798500Y101161D01*
D14*
X144100Y850580D02*
X144100Y865820D01*
X169500Y865820D02*
X169500Y850580D01*
X194900Y850580D02*
X194900Y865820D01*
D15*
X796100Y625750D03*
D16*
X816100Y565750D03*
X938100Y565750D03*
X938100Y685750D03*
X816100Y685750D03*
D15*
X797400Y405750D03*
D16*
X817400Y345750D03*
X939400Y345750D03*
X939400Y465750D03*
X817400Y465750D03*
D15*
X629850Y223900D03*
D16*
X569850Y203900D03*
X569850Y81900D03*
X689850Y81900D03*
X689850Y203900D03*
D15*
X349850Y222600D03*
D16*
X289850Y202600D03*
X289850Y80600D03*
X409850Y80600D03*
X409850Y202600D03*
D17*
X604800Y794200D03*
X694800Y794200D03*
X964100Y211100D03*
X964100Y121100D03*
X431100Y801000D03*
X341100Y801000D03*
D10*
X45200Y786100D03*
X45200Y760700D03*
X45200Y735300D03*
X45200Y709900D03*
X45200Y684500D03*
D14*
X344100Y322020D02*
X344100Y306780D01*
X369500Y306780D02*
X369500Y322020D01*
X394900Y322020D02*
X394900Y306780D01*
X477100Y306780D02*
X477100Y322020D01*
X502500Y322020D02*
X502500Y306780D01*
X527900Y306780D02*
X527900Y322020D01*
D10*
X149900Y758300D03*
X73700Y758300D03*
X128500Y81700D03*
X204700Y81700D03*
X193100Y158300D03*
X116900Y158300D03*
X194700Y218300D03*
X118500Y218300D03*
X404100Y557900D03*
X480300Y557900D03*
X302500Y557900D03*
X378700Y557900D03*
D18*
X180400Y778500D03*
X180400Y753100D03*
X180400Y727700D03*
X180400Y702300D03*
X180400Y676900D03*
X180400Y651500D03*
X180400Y626100D03*
X180400Y600700D03*
X180400Y575300D03*
X180400Y549900D03*
X180400Y524500D03*
X180400Y499100D03*
X180400Y473700D03*
X180400Y448300D03*
X256600Y448300D03*
X256600Y473700D03*
X256600Y499100D03*
X256600Y524500D03*
X256600Y549900D03*
X256600Y575300D03*
X256600Y600700D03*
X256600Y626100D03*
X256600Y651500D03*
X256600Y676900D03*
X256600Y702300D03*
X256600Y727700D03*
X256600Y753100D03*
X256600Y778500D03*
D12*
X47200Y566900D03*
X47200Y617700D03*
D10*
X50000Y70000D03*
X50000Y44600D03*
X50000Y170000D03*
X50000Y144600D03*
X50000Y270000D03*
X50000Y244600D03*
X147300Y300000D03*
X172700Y300000D03*
X250000Y261900D03*
X250000Y338100D03*
X420000Y650000D03*
X445400Y650000D03*
D19*
X149900Y656600D02*
X149900Y758300D01*
X149900Y656600D02*
X180400Y626100D01*
X23116Y409840D02*
X23116Y400160D01*
X23116Y409840D02*
X29960Y416684D01*
X95759Y542266D02*
X101934Y548441D01*
X34800Y388476D02*
X34800Y379600D01*
X37608Y416684D02*
X29960Y416684D01*
X37608Y416684D02*
X95759Y474835D01*
X23116Y400160D02*
X34800Y388476D01*
X95759Y474835D02*
X95759Y542266D01*
X101934Y548441D02*
X102741Y548441D01*
X180400Y626100D01*
X246186Y781514D02*
X169500Y858200D01*
X246186Y781514D02*
X246186Y774186D01*
X260914Y763514D02*
X267014Y757414D01*
X260914Y763514D02*
X256858Y763514D01*
X256600Y636772D02*
X256600Y626100D01*
X256858Y763514D02*
X246186Y774186D01*
X267014Y647186D02*
X256600Y636772D01*
X267014Y647186D02*
X267014Y757414D01*
X194700Y218300D02*
X194700Y159900D01*
X193100Y158300D01*
X204700Y146700D01*
X204700Y81700D01*
X194700Y218300D02*
X274150Y218300D01*
X289850Y202600D01*
X194700Y218300D02*
X46484Y366516D01*
X34800Y396124D02*
X34800Y405000D01*
X46484Y384440D02*
X46484Y366516D01*
X46484Y384440D02*
X34800Y396124D01*
X34800Y405000D02*
X34900Y405100D01*
X106300Y476500D01*
X106300Y537900D01*
X231200Y600700D02*
X256600Y626100D01*
X231200Y600700D02*
X180400Y600700D01*
X399260Y546216D02*
X408940Y546216D01*
X420624Y557900D02*
X480300Y557900D01*
X387576Y557900D02*
X378700Y557900D01*
X408940Y546216D02*
X420624Y557900D01*
X399260Y546216D02*
X387576Y557900D01*
X378700Y557900D02*
X378700Y601300D01*
X332200Y647800D01*
X332200Y652800D01*
X172700Y300000D02*
X163824Y300000D01*
X128316Y311684D02*
X34900Y405100D01*
X152140Y311684D02*
X163824Y300000D01*
X152140Y311684D02*
X128316Y311684D01*
D20*
X575000Y237500D03*
X562500Y372500D03*
X522500Y367500D03*
X470000Y372500D03*
X367500Y390000D03*
X340000Y372500D03*
X335000Y402500D03*
X330000Y182500D03*
X305000Y125000D03*
X385000Y125000D03*
X587500Y120000D03*
X662500Y117500D03*
X802500Y205000D03*
X680000Y517500D03*
X915000Y237500D03*
X917500Y97500D03*
X855000Y372500D03*
X897500Y437500D03*
X977500Y380000D03*
X865000Y585000D03*
X962500Y617500D03*
X872500Y670000D03*
X1015000Y790000D03*
X932500Y865000D03*
X452500Y860000D03*
X247500Y862500D03*
X232500Y830000D03*
X95000Y872500D03*
X92500Y822500D03*
D19*
X180400Y448300D02*
X180400Y432050D01*
X409850Y202600D01*
X591043Y203900D02*
X689850Y203900D01*
X591043Y203900D02*
X576057Y218886D01*
X468785Y218886D02*
X423835Y263835D01*
X468785Y218886D02*
X576057Y218886D01*
X366165Y263835D02*
X249594Y380406D01*
X249594Y441294D02*
X256600Y448300D01*
X249594Y441294D02*
X249594Y380406D01*
X366165Y263835D02*
X423835Y263835D01*
X256600Y499100D02*
X784050Y499100D01*
X817400Y465750D01*
X484500Y524500D02*
X256600Y524500D01*
X640000Y680000D02*
X640000Y690000D01*
X811850Y690000D01*
X816100Y685750D01*
X640000Y680000D02*
X484500Y524500D01*
D21*
X289850Y80600D02*
X340450Y30000D01*
X570000Y30000D01*
X570000Y81750D01*
X569850Y81900D01*
X570000Y30000D02*
X776100Y30000D01*
X798500Y52400D01*
X798500Y112400D01*
X412450Y160000D02*
X349850Y222600D01*
X913000Y160000D02*
X964100Y211100D01*
X913000Y160000D02*
X412450Y160000D01*
X740430Y528970D02*
X684700Y584700D01*
X860000Y425150D02*
X939400Y345750D01*
X901320Y528970D02*
X938100Y565750D01*
X901320Y528970D02*
X860000Y528970D01*
X740430Y528970D01*
X860000Y528970D02*
X860000Y425150D01*
X447400Y422300D02*
X369500Y344400D01*
X369500Y314400D01*
X447400Y422300D02*
X674700Y422300D01*
X684700Y432300D01*
X793300Y270000D02*
X798500Y264800D01*
X793300Y270000D02*
X500000Y270000D01*
X500000Y311900D01*
X502500Y314400D01*
D19*
X185400Y261900D02*
X147300Y300000D01*
X185400Y261900D02*
X250000Y261900D01*
D20*
X980000Y167500D03*
M02*
