G04 EAGLE Gerber RS-274X export*
G75*
%MOMM*%
%FSLAX34Y34*%
%LPD*%
%INTop Copper*%
%IPPOS*%
%AMOC8*
5,1,8,0,0,1.08239X$1,22.5*%
G01*
%ADD10C,1.879600*%
%ADD11R,1.651000X1.651000*%
%ADD12C,1.651000*%
%ADD13C,2.247900*%
%ADD14C,1.524000*%
%ADD15R,2.540000X2.540000*%
%ADD16C,2.540000*%
%ADD17C,2.100000*%
%ADD18C,1.625600*%
%ADD19C,0.152400*%
%ADD20C,1.000000*%
%ADD21C,5.000000*%
%ADD22C,4.600000*%
%ADD23C,4.900000*%
%ADD24C,2.250000*%
%ADD25C,2.000000*%

G36*
X391885Y10934D02*
X391885Y10934D01*
X391956Y10936D01*
X392005Y10954D01*
X392057Y10962D01*
X392120Y10996D01*
X392187Y11021D01*
X392228Y11053D01*
X392274Y11078D01*
X392323Y11130D01*
X392379Y11174D01*
X392408Y11218D01*
X392443Y11256D01*
X392474Y11321D01*
X392512Y11381D01*
X392525Y11432D01*
X392547Y11479D01*
X392555Y11550D01*
X392572Y11620D01*
X392568Y11672D01*
X392574Y11723D01*
X392559Y11794D01*
X392553Y11865D01*
X392533Y11913D01*
X392522Y11964D01*
X392485Y12025D01*
X392457Y12091D01*
X392412Y12147D01*
X392396Y12175D01*
X392378Y12190D01*
X392352Y12222D01*
X386726Y17848D01*
X384147Y20427D01*
X379918Y27752D01*
X377729Y35921D01*
X377729Y84829D01*
X379918Y92998D01*
X384147Y100323D01*
X390127Y106303D01*
X397452Y110532D01*
X405621Y112721D01*
X414079Y112721D01*
X422248Y110532D01*
X429573Y106303D01*
X435553Y100323D01*
X439782Y92998D01*
X441971Y84829D01*
X441971Y70382D01*
X441974Y70362D01*
X441972Y70343D01*
X441994Y70241D01*
X442010Y70139D01*
X442020Y70122D01*
X442024Y70102D01*
X442077Y70013D01*
X442126Y69922D01*
X442140Y69908D01*
X442150Y69891D01*
X442229Y69824D01*
X442304Y69752D01*
X442322Y69744D01*
X442337Y69731D01*
X442433Y69692D01*
X442527Y69649D01*
X442547Y69647D01*
X442565Y69639D01*
X442732Y69621D01*
X555146Y69621D01*
X555216Y69632D01*
X555288Y69634D01*
X555337Y69652D01*
X555388Y69660D01*
X555452Y69694D01*
X555519Y69719D01*
X555560Y69751D01*
X555606Y69776D01*
X555655Y69828D01*
X555711Y69872D01*
X555739Y69916D01*
X555775Y69954D01*
X555805Y70019D01*
X555844Y70079D01*
X555857Y70130D01*
X555879Y70177D01*
X555887Y70248D01*
X555904Y70318D01*
X555900Y70370D01*
X555906Y70421D01*
X555891Y70492D01*
X555885Y70563D01*
X555865Y70611D01*
X555854Y70662D01*
X555817Y70723D01*
X555789Y70789D01*
X555744Y70845D01*
X555727Y70873D01*
X555710Y70888D01*
X555684Y70920D01*
X554776Y71828D01*
X552069Y78363D01*
X552069Y85437D01*
X554776Y91972D01*
X559778Y96974D01*
X566313Y99681D01*
X573387Y99681D01*
X579922Y96974D01*
X584924Y91972D01*
X587631Y85437D01*
X587631Y78363D01*
X584924Y71828D01*
X584016Y70920D01*
X583974Y70862D01*
X583925Y70810D01*
X583903Y70763D01*
X583872Y70721D01*
X583851Y70652D01*
X583821Y70587D01*
X583815Y70535D01*
X583800Y70485D01*
X583802Y70414D01*
X583794Y70343D01*
X583805Y70292D01*
X583806Y70240D01*
X583831Y70172D01*
X583846Y70102D01*
X583873Y70057D01*
X583891Y70009D01*
X583936Y69953D01*
X583973Y69891D01*
X584012Y69857D01*
X584045Y69817D01*
X584105Y69778D01*
X584159Y69731D01*
X584208Y69712D01*
X584252Y69684D01*
X584321Y69666D01*
X584388Y69639D01*
X584459Y69631D01*
X584490Y69623D01*
X584513Y69625D01*
X584554Y69621D01*
X656968Y69621D01*
X656988Y69624D01*
X657007Y69622D01*
X657109Y69644D01*
X657211Y69660D01*
X657228Y69670D01*
X657248Y69674D01*
X657337Y69727D01*
X657428Y69776D01*
X657442Y69790D01*
X657459Y69800D01*
X657526Y69879D01*
X657598Y69954D01*
X657606Y69972D01*
X657619Y69987D01*
X657658Y70083D01*
X657701Y70177D01*
X657703Y70197D01*
X657711Y70215D01*
X657729Y70382D01*
X657729Y86129D01*
X659918Y94298D01*
X664147Y101623D01*
X670127Y107603D01*
X677452Y111832D01*
X685621Y114021D01*
X694079Y114021D01*
X702248Y111832D01*
X709573Y107603D01*
X715553Y101623D01*
X719782Y94298D01*
X721971Y86129D01*
X721971Y72882D01*
X721974Y72862D01*
X721972Y72843D01*
X721994Y72741D01*
X722010Y72639D01*
X722020Y72622D01*
X722024Y72602D01*
X722077Y72513D01*
X722126Y72422D01*
X722140Y72408D01*
X722150Y72391D01*
X722229Y72324D01*
X722304Y72252D01*
X722322Y72244D01*
X722337Y72231D01*
X722433Y72192D01*
X722527Y72149D01*
X722547Y72147D01*
X722565Y72139D01*
X722732Y72121D01*
X992696Y72121D01*
X992716Y72124D01*
X992735Y72122D01*
X992837Y72144D01*
X992939Y72160D01*
X992956Y72170D01*
X992976Y72174D01*
X993065Y72227D01*
X993156Y72276D01*
X993170Y72290D01*
X993187Y72300D01*
X993254Y72379D01*
X993326Y72454D01*
X993334Y72472D01*
X993347Y72487D01*
X993386Y72583D01*
X993429Y72677D01*
X993431Y72697D01*
X993439Y72715D01*
X993457Y72882D01*
X993457Y162780D01*
X993442Y162876D01*
X993432Y162973D01*
X993422Y162997D01*
X993418Y163022D01*
X993372Y163108D01*
X993332Y163197D01*
X993315Y163217D01*
X993302Y163240D01*
X993232Y163307D01*
X993166Y163379D01*
X993143Y163391D01*
X993124Y163409D01*
X993036Y163450D01*
X992950Y163497D01*
X992925Y163502D01*
X992901Y163513D01*
X992804Y163524D01*
X992708Y163541D01*
X992682Y163537D01*
X992657Y163540D01*
X992561Y163519D01*
X992465Y163505D01*
X992442Y163493D01*
X992416Y163488D01*
X992333Y163438D01*
X992246Y163394D01*
X992227Y163375D01*
X992205Y163361D01*
X992142Y163288D01*
X992074Y163218D01*
X992058Y163189D01*
X992045Y163175D01*
X992033Y163144D01*
X991993Y163071D01*
X990830Y160264D01*
X987236Y156670D01*
X982541Y154725D01*
X977459Y154725D01*
X972764Y156670D01*
X969170Y160264D01*
X967225Y164959D01*
X967225Y170041D01*
X969170Y174736D01*
X972764Y178330D01*
X977459Y180275D01*
X982541Y180275D01*
X987236Y178330D01*
X990830Y174736D01*
X991993Y171929D01*
X992044Y171846D01*
X992090Y171760D01*
X992108Y171742D01*
X992122Y171720D01*
X992198Y171658D01*
X992268Y171591D01*
X992292Y171580D01*
X992312Y171563D01*
X992403Y171528D01*
X992491Y171487D01*
X992517Y171484D01*
X992541Y171475D01*
X992639Y171471D01*
X992735Y171460D01*
X992761Y171466D01*
X992787Y171465D01*
X992881Y171492D01*
X992976Y171512D01*
X992998Y171526D01*
X993023Y171533D01*
X993103Y171589D01*
X993187Y171639D01*
X993204Y171658D01*
X993225Y171673D01*
X993284Y171751D01*
X993347Y171825D01*
X993357Y171850D01*
X993372Y171871D01*
X993402Y171963D01*
X993439Y172054D01*
X993442Y172086D01*
X993448Y172105D01*
X993448Y172138D01*
X993457Y172220D01*
X993457Y426618D01*
X993454Y426638D01*
X993456Y426657D01*
X993434Y426759D01*
X993418Y426861D01*
X993408Y426878D01*
X993404Y426898D01*
X993351Y426987D01*
X993302Y427078D01*
X993288Y427092D01*
X993278Y427109D01*
X993199Y427176D01*
X993124Y427248D01*
X993106Y427256D01*
X993091Y427269D01*
X992995Y427308D01*
X992901Y427351D01*
X992881Y427353D01*
X992863Y427361D01*
X992696Y427379D01*
X940855Y427379D01*
X932559Y429602D01*
X925120Y433897D01*
X913297Y445720D01*
X909002Y453159D01*
X906779Y461455D01*
X906779Y470045D01*
X909002Y478341D01*
X913297Y485780D01*
X919370Y491853D01*
X926809Y496148D01*
X935105Y498371D01*
X943695Y498371D01*
X951991Y496148D01*
X957923Y492723D01*
X958030Y492682D01*
X958137Y492639D01*
X958147Y492638D01*
X958153Y492636D01*
X958176Y492635D01*
X958304Y492621D01*
X992696Y492621D01*
X992716Y492624D01*
X992735Y492622D01*
X992837Y492644D01*
X992939Y492660D01*
X992956Y492670D01*
X992976Y492674D01*
X993065Y492727D01*
X993156Y492776D01*
X993170Y492790D01*
X993187Y492800D01*
X993254Y492879D01*
X993326Y492954D01*
X993334Y492972D01*
X993347Y492987D01*
X993386Y493083D01*
X993429Y493177D01*
X993431Y493197D01*
X993439Y493215D01*
X993457Y493382D01*
X993457Y690095D01*
X993443Y690185D01*
X993435Y690276D01*
X993423Y690306D01*
X993418Y690337D01*
X993375Y690418D01*
X993339Y690502D01*
X993313Y690534D01*
X993302Y690555D01*
X993279Y690577D01*
X993234Y690633D01*
X991713Y692154D01*
X991697Y692166D01*
X991685Y692181D01*
X991597Y692237D01*
X991514Y692298D01*
X991495Y692303D01*
X991478Y692314D01*
X991377Y692340D01*
X991278Y692370D01*
X991259Y692369D01*
X991239Y692374D01*
X991136Y692366D01*
X991033Y692364D01*
X991014Y692357D01*
X990994Y692355D01*
X990899Y692315D01*
X990802Y692279D01*
X990786Y692267D01*
X990768Y692259D01*
X990637Y692154D01*
X958130Y659647D01*
X950691Y655352D01*
X942395Y653129D01*
X933805Y653129D01*
X925509Y655352D01*
X918070Y659647D01*
X911997Y665720D01*
X907702Y673159D01*
X905479Y681455D01*
X905479Y690045D01*
X907702Y698341D01*
X911997Y705780D01*
X944504Y738287D01*
X944516Y738303D01*
X944531Y738315D01*
X944587Y738403D01*
X944648Y738486D01*
X944653Y738505D01*
X944664Y738522D01*
X944690Y738623D01*
X944720Y738722D01*
X944719Y738741D01*
X944724Y738761D01*
X944716Y738864D01*
X944714Y738967D01*
X944707Y738986D01*
X944705Y739006D01*
X944665Y739101D01*
X944629Y739198D01*
X944617Y739214D01*
X944609Y739232D01*
X944504Y739363D01*
X875765Y808102D01*
X875691Y808155D01*
X875622Y808215D01*
X875592Y808227D01*
X875566Y808246D01*
X875479Y808272D01*
X875394Y808307D01*
X875353Y808311D01*
X875330Y808318D01*
X875298Y808317D01*
X875227Y808325D01*
X704547Y808325D01*
X704477Y808313D01*
X704405Y808312D01*
X704356Y808294D01*
X704305Y808285D01*
X704241Y808252D01*
X704174Y808227D01*
X704133Y808195D01*
X704087Y808170D01*
X704038Y808118D01*
X703982Y808073D01*
X703954Y808030D01*
X703918Y807992D01*
X703888Y807927D01*
X703849Y807866D01*
X703836Y807816D01*
X703814Y807769D01*
X703806Y807697D01*
X703789Y807628D01*
X703793Y807576D01*
X703787Y807524D01*
X703802Y807454D01*
X703808Y807383D01*
X703828Y807335D01*
X703839Y807284D01*
X703876Y807222D01*
X703904Y807156D01*
X703949Y807100D01*
X703966Y807073D01*
X703983Y807058D01*
X704009Y807025D01*
X708009Y803026D01*
X710381Y797299D01*
X710381Y791101D01*
X709939Y790034D01*
X709924Y789970D01*
X709899Y789909D01*
X709890Y789826D01*
X709883Y789794D01*
X709884Y789775D01*
X709881Y789742D01*
X709881Y733612D01*
X709895Y733522D01*
X709903Y733431D01*
X709915Y733401D01*
X709920Y733369D01*
X709963Y733289D01*
X709999Y733205D01*
X710025Y733173D01*
X710036Y733152D01*
X710059Y733130D01*
X710104Y733074D01*
X799424Y643754D01*
X799498Y643701D01*
X799567Y643641D01*
X799597Y643629D01*
X799623Y643610D01*
X799710Y643583D01*
X799795Y643549D01*
X799836Y643545D01*
X799858Y643538D01*
X799891Y643539D01*
X799962Y643531D01*
X810905Y643531D01*
X813881Y640555D01*
X813881Y610945D01*
X810905Y607969D01*
X781295Y607969D01*
X778319Y610945D01*
X778319Y621888D01*
X778305Y621978D01*
X778297Y622069D01*
X778285Y622099D01*
X778280Y622131D01*
X778237Y622211D01*
X778201Y622295D01*
X778175Y622327D01*
X778164Y622348D01*
X778141Y622370D01*
X778096Y622426D01*
X686365Y714158D01*
X682015Y718507D01*
X679719Y724050D01*
X679719Y789742D01*
X679709Y789807D01*
X679708Y789872D01*
X679685Y789953D01*
X679680Y789985D01*
X679670Y790002D01*
X679661Y790034D01*
X679219Y791101D01*
X679219Y797299D01*
X681591Y803026D01*
X685591Y807025D01*
X685633Y807084D01*
X685682Y807136D01*
X685704Y807183D01*
X685735Y807225D01*
X685756Y807294D01*
X685786Y807359D01*
X685792Y807410D01*
X685807Y807460D01*
X685805Y807532D01*
X685813Y807603D01*
X685802Y807654D01*
X685801Y807706D01*
X685776Y807773D01*
X685761Y807844D01*
X685734Y807888D01*
X685716Y807937D01*
X685671Y807993D01*
X685634Y808055D01*
X685595Y808089D01*
X685562Y808129D01*
X685502Y808168D01*
X685448Y808215D01*
X685399Y808234D01*
X685355Y808262D01*
X685286Y808280D01*
X685219Y808307D01*
X685148Y808314D01*
X685117Y808322D01*
X685094Y808320D01*
X685053Y808325D01*
X614547Y808325D01*
X614477Y808313D01*
X614405Y808312D01*
X614356Y808294D01*
X614305Y808285D01*
X614241Y808252D01*
X614174Y808227D01*
X614133Y808195D01*
X614087Y808170D01*
X614038Y808118D01*
X613982Y808073D01*
X613954Y808030D01*
X613918Y807992D01*
X613888Y807927D01*
X613849Y807866D01*
X613836Y807816D01*
X613814Y807769D01*
X613806Y807697D01*
X613789Y807628D01*
X613793Y807576D01*
X613787Y807524D01*
X613802Y807454D01*
X613808Y807383D01*
X613828Y807335D01*
X613839Y807284D01*
X613876Y807222D01*
X613904Y807156D01*
X613949Y807100D01*
X613966Y807073D01*
X613983Y807058D01*
X614009Y807025D01*
X618009Y803026D01*
X618451Y801959D01*
X618485Y801903D01*
X618511Y801843D01*
X618563Y801778D01*
X618580Y801750D01*
X618595Y801737D01*
X618616Y801712D01*
X674505Y745823D01*
X676801Y740280D01*
X676801Y688819D01*
X676815Y688729D01*
X676823Y688638D01*
X676835Y688608D01*
X676840Y688577D01*
X676883Y688496D01*
X676919Y688412D01*
X676945Y688380D01*
X676956Y688359D01*
X676979Y688337D01*
X677024Y688281D01*
X777755Y587549D01*
X777756Y587549D01*
X782105Y583200D01*
X784401Y577657D01*
X784401Y452519D01*
X784415Y452429D01*
X784423Y452338D01*
X784435Y452309D01*
X784440Y452277D01*
X784483Y452196D01*
X784519Y452112D01*
X784545Y452080D01*
X784556Y452059D01*
X784579Y452037D01*
X784624Y451981D01*
X805835Y430769D01*
X805836Y430769D01*
X810185Y426420D01*
X811187Y424001D01*
X811248Y423901D01*
X811308Y423801D01*
X811313Y423797D01*
X811317Y423792D01*
X811407Y423717D01*
X811495Y423641D01*
X811501Y423639D01*
X811506Y423635D01*
X811614Y423593D01*
X811723Y423549D01*
X811731Y423548D01*
X811736Y423547D01*
X811754Y423546D01*
X811890Y423531D01*
X812205Y423531D01*
X815181Y420555D01*
X815181Y390945D01*
X812205Y387969D01*
X782595Y387969D01*
X779619Y390945D01*
X779619Y414015D01*
X779605Y414105D01*
X779597Y414196D01*
X779585Y414226D01*
X779580Y414258D01*
X779537Y414339D01*
X779501Y414423D01*
X779475Y414455D01*
X779464Y414475D01*
X779441Y414498D01*
X779396Y414554D01*
X756535Y437415D01*
X754239Y442958D01*
X754239Y568095D01*
X754225Y568185D01*
X754217Y568276D01*
X754205Y568306D01*
X754200Y568338D01*
X754157Y568419D01*
X754121Y568503D01*
X754095Y568535D01*
X754084Y568555D01*
X754061Y568578D01*
X754016Y568634D01*
X653285Y669365D01*
X653284Y669365D01*
X648935Y673715D01*
X646639Y679258D01*
X646639Y730718D01*
X646625Y730808D01*
X646617Y730899D01*
X646605Y730929D01*
X646600Y730961D01*
X646557Y731041D01*
X646521Y731125D01*
X646495Y731157D01*
X646484Y731178D01*
X646461Y731200D01*
X646416Y731256D01*
X597288Y780384D01*
X597235Y780422D01*
X597188Y780468D01*
X597115Y780509D01*
X597089Y780528D01*
X597070Y780533D01*
X597041Y780549D01*
X595974Y780991D01*
X591591Y785374D01*
X589219Y791101D01*
X589219Y793140D01*
X589208Y793211D01*
X589206Y793283D01*
X589188Y793332D01*
X589180Y793383D01*
X589146Y793446D01*
X589121Y793514D01*
X589089Y793554D01*
X589064Y793600D01*
X589012Y793650D01*
X588968Y793706D01*
X588924Y793734D01*
X588886Y793770D01*
X588821Y793800D01*
X588761Y793839D01*
X588710Y793851D01*
X588663Y793873D01*
X588592Y793881D01*
X588522Y793899D01*
X588470Y793895D01*
X588419Y793900D01*
X588348Y793885D01*
X588277Y793880D01*
X588229Y793859D01*
X588178Y793848D01*
X588117Y793811D01*
X588051Y793783D01*
X587995Y793739D01*
X587967Y793722D01*
X587952Y793704D01*
X587920Y793679D01*
X569138Y774897D01*
X561700Y770602D01*
X553403Y768379D01*
X444482Y768379D01*
X444462Y768376D01*
X444443Y768378D01*
X444341Y768356D01*
X444239Y768340D01*
X444222Y768330D01*
X444202Y768326D01*
X444113Y768273D01*
X444022Y768224D01*
X444008Y768210D01*
X443991Y768200D01*
X443924Y768121D01*
X443852Y768046D01*
X443844Y768028D01*
X443831Y768013D01*
X443792Y767917D01*
X443749Y767823D01*
X443747Y767803D01*
X443739Y767785D01*
X443721Y767618D01*
X443721Y724190D01*
X441799Y719551D01*
X438142Y715894D01*
X412590Y690342D01*
X412578Y690325D01*
X412563Y690313D01*
X412507Y690226D01*
X412446Y690142D01*
X412441Y690123D01*
X412430Y690106D01*
X412404Y690006D01*
X412374Y689907D01*
X412375Y689887D01*
X412370Y689868D01*
X412378Y689765D01*
X412380Y689661D01*
X412387Y689642D01*
X412389Y689622D01*
X412429Y689527D01*
X412465Y689430D01*
X412477Y689414D01*
X412485Y689396D01*
X412590Y689265D01*
X427107Y674748D01*
X428383Y671667D01*
X428383Y665457D01*
X428402Y665343D01*
X428419Y665226D01*
X428421Y665221D01*
X428422Y665215D01*
X428477Y665112D01*
X428530Y665007D01*
X428535Y665003D01*
X428538Y664997D01*
X428622Y664917D01*
X428706Y664835D01*
X428712Y664831D01*
X428716Y664828D01*
X428733Y664820D01*
X428853Y664754D01*
X429640Y664428D01*
X434428Y659640D01*
X435084Y658056D01*
X435108Y658017D01*
X435124Y657974D01*
X435172Y657913D01*
X435213Y657847D01*
X435249Y657818D01*
X435278Y657782D01*
X435343Y657740D01*
X435403Y657690D01*
X435446Y657674D01*
X435484Y657649D01*
X435560Y657630D01*
X435633Y657602D01*
X435678Y657600D01*
X435723Y657589D01*
X435800Y657595D01*
X435878Y657592D01*
X435922Y657605D01*
X435968Y657608D01*
X436040Y657639D01*
X436115Y657660D01*
X436152Y657687D01*
X436194Y657705D01*
X436301Y657790D01*
X436317Y657801D01*
X436320Y657805D01*
X436325Y657809D01*
X437622Y659106D01*
X439143Y660211D01*
X440817Y661064D01*
X442604Y661645D01*
X443877Y661846D01*
X443877Y650762D01*
X443880Y650742D01*
X443878Y650723D01*
X443900Y650621D01*
X443917Y650519D01*
X443926Y650502D01*
X443930Y650482D01*
X443983Y650393D01*
X444032Y650302D01*
X444046Y650288D01*
X444056Y650271D01*
X444135Y650204D01*
X444210Y650133D01*
X444228Y650124D01*
X444243Y650111D01*
X444339Y650073D01*
X444433Y650029D01*
X444453Y650027D01*
X444471Y650019D01*
X444638Y650001D01*
X445401Y650001D01*
X445401Y649999D01*
X444638Y649999D01*
X444618Y649996D01*
X444599Y649998D01*
X444497Y649976D01*
X444395Y649959D01*
X444378Y649950D01*
X444358Y649946D01*
X444269Y649893D01*
X444178Y649844D01*
X444164Y649830D01*
X444147Y649820D01*
X444080Y649741D01*
X444009Y649666D01*
X444000Y649648D01*
X443987Y649633D01*
X443948Y649537D01*
X443905Y649443D01*
X443903Y649423D01*
X443895Y649405D01*
X443877Y649238D01*
X443877Y638154D01*
X442604Y638355D01*
X440817Y638936D01*
X439143Y639789D01*
X437622Y640894D01*
X436325Y642191D01*
X436288Y642217D01*
X436257Y642251D01*
X436189Y642289D01*
X436126Y642334D01*
X436082Y642348D01*
X436042Y642370D01*
X435965Y642384D01*
X435891Y642407D01*
X435845Y642405D01*
X435800Y642413D01*
X435723Y642402D01*
X435645Y642400D01*
X435602Y642384D01*
X435556Y642378D01*
X435487Y642342D01*
X435414Y642316D01*
X435378Y642287D01*
X435337Y642266D01*
X435282Y642211D01*
X435222Y642162D01*
X435197Y642123D01*
X435165Y642091D01*
X435099Y641971D01*
X435089Y641955D01*
X435087Y641950D01*
X435084Y641944D01*
X434428Y640360D01*
X429640Y635572D01*
X423385Y632981D01*
X416615Y632981D01*
X410360Y635572D01*
X405572Y640360D01*
X402981Y646615D01*
X402981Y653385D01*
X405572Y659640D01*
X410360Y664428D01*
X411147Y664754D01*
X411247Y664816D01*
X411347Y664876D01*
X411351Y664880D01*
X411356Y664884D01*
X411431Y664974D01*
X411507Y665062D01*
X411509Y665068D01*
X411513Y665073D01*
X411555Y665182D01*
X411599Y665291D01*
X411600Y665298D01*
X411601Y665303D01*
X411602Y665321D01*
X411617Y665457D01*
X411617Y666212D01*
X411603Y666303D01*
X411595Y666393D01*
X411583Y666423D01*
X411578Y666455D01*
X411535Y666536D01*
X411499Y666620D01*
X411473Y666652D01*
X411462Y666673D01*
X411439Y666695D01*
X411394Y666751D01*
X400735Y677410D01*
X400719Y677422D01*
X400706Y677437D01*
X400619Y677493D01*
X400535Y677554D01*
X400516Y677559D01*
X400499Y677570D01*
X400399Y677596D01*
X400300Y677626D01*
X400280Y677625D01*
X400261Y677630D01*
X400158Y677622D01*
X400054Y677620D01*
X400035Y677613D01*
X400016Y677611D01*
X399921Y677571D01*
X399823Y677535D01*
X399808Y677523D01*
X399789Y677515D01*
X399658Y677410D01*
X373299Y651050D01*
X373246Y650976D01*
X373186Y650907D01*
X373174Y650877D01*
X373155Y650851D01*
X373128Y650764D01*
X373094Y650679D01*
X373090Y650638D01*
X373083Y650615D01*
X373084Y650583D01*
X373076Y650512D01*
X373076Y643029D01*
X371916Y640228D01*
X369772Y638084D01*
X366971Y636924D01*
X347429Y636924D01*
X344628Y638084D01*
X342484Y640228D01*
X341324Y643029D01*
X341324Y644819D01*
X341313Y644890D01*
X341311Y644961D01*
X341293Y645010D01*
X341285Y645062D01*
X341251Y645125D01*
X341226Y645192D01*
X341194Y645233D01*
X341169Y645279D01*
X341117Y645328D01*
X341073Y645384D01*
X341029Y645413D01*
X340991Y645448D01*
X340926Y645479D01*
X340866Y645517D01*
X340815Y645530D01*
X340768Y645552D01*
X340697Y645560D01*
X340627Y645578D01*
X340575Y645573D01*
X340524Y645579D01*
X340453Y645564D01*
X340382Y645558D01*
X340334Y645538D01*
X340283Y645527D01*
X340222Y645490D01*
X340156Y645462D01*
X340100Y645417D01*
X340072Y645401D01*
X340057Y645383D01*
X340025Y645357D01*
X339233Y644565D01*
X337858Y643567D01*
X336344Y642795D01*
X334728Y642270D01*
X333723Y642111D01*
X333723Y652038D01*
X333720Y652058D01*
X333722Y652077D01*
X333700Y652179D01*
X333683Y652281D01*
X333674Y652298D01*
X333670Y652318D01*
X333617Y652407D01*
X333568Y652498D01*
X333554Y652512D01*
X333544Y652529D01*
X333465Y652596D01*
X333390Y652667D01*
X333372Y652676D01*
X333357Y652689D01*
X333261Y652727D01*
X333167Y652771D01*
X333147Y652773D01*
X333129Y652781D01*
X332962Y652799D01*
X332199Y652799D01*
X332199Y652801D01*
X332962Y652801D01*
X332982Y652804D01*
X333001Y652802D01*
X333103Y652824D01*
X333205Y652841D01*
X333222Y652850D01*
X333242Y652854D01*
X333331Y652907D01*
X333422Y652956D01*
X333436Y652970D01*
X333453Y652980D01*
X333520Y653059D01*
X333591Y653134D01*
X333600Y653152D01*
X333613Y653167D01*
X333652Y653263D01*
X333695Y653357D01*
X333697Y653377D01*
X333705Y653395D01*
X333723Y653562D01*
X333723Y663489D01*
X334728Y663330D01*
X336344Y662805D01*
X337858Y662033D01*
X339233Y661035D01*
X340025Y660243D01*
X340083Y660201D01*
X340135Y660152D01*
X340182Y660130D01*
X340224Y660099D01*
X340293Y660078D01*
X340358Y660048D01*
X340410Y660042D01*
X340460Y660027D01*
X340531Y660029D01*
X340602Y660021D01*
X340653Y660032D01*
X340705Y660033D01*
X340773Y660058D01*
X340843Y660073D01*
X340888Y660100D01*
X340936Y660118D01*
X340992Y660163D01*
X341054Y660199D01*
X341088Y660239D01*
X341128Y660271D01*
X341167Y660332D01*
X341214Y660386D01*
X341233Y660434D01*
X341261Y660478D01*
X341279Y660548D01*
X341306Y660614D01*
X341314Y660686D01*
X341322Y660717D01*
X341320Y660740D01*
X341324Y660781D01*
X341324Y662571D01*
X342484Y665372D01*
X344628Y667516D01*
X347429Y668676D01*
X354912Y668676D01*
X355002Y668690D01*
X355093Y668698D01*
X355123Y668710D01*
X355155Y668715D01*
X355235Y668758D01*
X355319Y668794D01*
X355351Y668820D01*
X355372Y668831D01*
X355394Y668854D01*
X355450Y668899D01*
X386394Y699842D01*
X418256Y731705D01*
X418309Y731779D01*
X418369Y731848D01*
X418381Y731878D01*
X418400Y731904D01*
X418427Y731991D01*
X418461Y732076D01*
X418465Y732117D01*
X418472Y732140D01*
X418471Y732172D01*
X418479Y732243D01*
X418479Y770180D01*
X418468Y770247D01*
X418467Y770314D01*
X418449Y770367D01*
X418440Y770423D01*
X418408Y770482D01*
X418385Y770546D01*
X418351Y770590D01*
X418324Y770640D01*
X418276Y770686D01*
X418234Y770740D01*
X418170Y770787D01*
X418146Y770809D01*
X418127Y770818D01*
X418099Y770839D01*
X411070Y774897D01*
X404997Y780970D01*
X400702Y788409D01*
X398479Y796705D01*
X398479Y805295D01*
X400702Y813591D01*
X402589Y816858D01*
X402604Y816899D01*
X402628Y816936D01*
X402647Y817014D01*
X402676Y817088D01*
X402677Y817132D01*
X402688Y817175D01*
X402682Y817254D01*
X402685Y817334D01*
X402672Y817376D01*
X402669Y817420D01*
X402638Y817493D01*
X402615Y817570D01*
X402590Y817606D01*
X402573Y817646D01*
X402481Y817760D01*
X402474Y817771D01*
X402471Y817773D01*
X402468Y817777D01*
X343125Y877120D01*
X343051Y877173D01*
X342981Y877233D01*
X342951Y877245D01*
X342925Y877264D01*
X342838Y877291D01*
X342753Y877325D01*
X342712Y877329D01*
X342690Y877336D01*
X342658Y877335D01*
X342586Y877343D01*
X171369Y877343D01*
X171306Y877333D01*
X171243Y877333D01*
X171186Y877313D01*
X171127Y877304D01*
X171070Y877274D01*
X171010Y877253D01*
X170962Y877216D01*
X170909Y877188D01*
X170865Y877142D01*
X170815Y877103D01*
X170781Y877054D01*
X170740Y877010D01*
X170713Y876952D01*
X170677Y876899D01*
X170662Y876841D01*
X170636Y876787D01*
X170629Y876723D01*
X170612Y876662D01*
X170616Y876602D01*
X170609Y876543D01*
X170623Y876480D01*
X170626Y876416D01*
X170649Y876361D01*
X170661Y876302D01*
X170694Y876247D01*
X170718Y876188D01*
X170757Y876143D01*
X170788Y876091D01*
X170836Y876050D01*
X170878Y876001D01*
X170929Y875970D01*
X170975Y875931D01*
X171034Y875907D01*
X171089Y875874D01*
X171172Y875852D01*
X171203Y875839D01*
X171227Y875837D01*
X171250Y875830D01*
X171879Y875731D01*
X173400Y875236D01*
X174825Y874510D01*
X176119Y873570D01*
X177250Y872439D01*
X178190Y871145D01*
X178916Y869720D01*
X179411Y868199D01*
X179661Y866620D01*
X179661Y859723D01*
X170262Y859723D01*
X170242Y859720D01*
X170223Y859722D01*
X170121Y859700D01*
X170019Y859683D01*
X170002Y859674D01*
X169982Y859670D01*
X169893Y859617D01*
X169802Y859568D01*
X169788Y859554D01*
X169771Y859544D01*
X169704Y859465D01*
X169633Y859390D01*
X169624Y859372D01*
X169611Y859357D01*
X169573Y859261D01*
X169529Y859167D01*
X169527Y859147D01*
X169519Y859129D01*
X169501Y858962D01*
X169501Y858199D01*
X168738Y858199D01*
X168718Y858196D01*
X168699Y858198D01*
X168597Y858176D01*
X168495Y858159D01*
X168478Y858150D01*
X168458Y858146D01*
X168369Y858093D01*
X168278Y858044D01*
X168264Y858030D01*
X168247Y858020D01*
X168180Y857941D01*
X168109Y857866D01*
X168100Y857848D01*
X168087Y857833D01*
X168048Y857737D01*
X168005Y857643D01*
X168003Y857623D01*
X167995Y857605D01*
X167977Y857438D01*
X167977Y840534D01*
X167121Y840669D01*
X165600Y841164D01*
X164175Y841890D01*
X162881Y842830D01*
X161750Y843961D01*
X160810Y845255D01*
X160225Y846402D01*
X160200Y846436D01*
X160183Y846474D01*
X160128Y846534D01*
X160079Y846600D01*
X160045Y846625D01*
X160017Y846655D01*
X159945Y846695D01*
X159878Y846742D01*
X159838Y846754D01*
X159801Y846774D01*
X159721Y846789D01*
X159642Y846812D01*
X159601Y846810D01*
X159559Y846818D01*
X159478Y846806D01*
X159397Y846803D01*
X159357Y846788D01*
X159316Y846782D01*
X159243Y846745D01*
X159166Y846716D01*
X159134Y846690D01*
X159097Y846670D01*
X159039Y846612D01*
X158976Y846560D01*
X158954Y846525D01*
X158924Y846495D01*
X158850Y846359D01*
X158845Y846352D01*
X158845Y846350D01*
X158843Y846348D01*
X157020Y841947D01*
X152733Y837660D01*
X147132Y835339D01*
X141068Y835339D01*
X135467Y837660D01*
X131180Y841947D01*
X128859Y847548D01*
X128859Y868852D01*
X131180Y874453D01*
X135467Y878740D01*
X141068Y881061D01*
X144790Y881061D01*
X144881Y881075D01*
X144971Y881083D01*
X145001Y881095D01*
X145033Y881100D01*
X145114Y881143D01*
X145198Y881179D01*
X145230Y881205D01*
X145251Y881216D01*
X145273Y881239D01*
X145329Y881284D01*
X151823Y887778D01*
X151865Y887836D01*
X151914Y887888D01*
X151936Y887935D01*
X151966Y887977D01*
X151987Y888046D01*
X152018Y888111D01*
X152023Y888163D01*
X152039Y888213D01*
X152037Y888284D01*
X152045Y888355D01*
X152034Y888406D01*
X152032Y888458D01*
X152008Y888526D01*
X151992Y888596D01*
X151966Y888641D01*
X151948Y888689D01*
X151903Y888745D01*
X151866Y888807D01*
X151827Y888841D01*
X151794Y888881D01*
X151734Y888920D01*
X151679Y888967D01*
X151631Y888986D01*
X151587Y889014D01*
X151518Y889032D01*
X151451Y889059D01*
X151380Y889067D01*
X151349Y889075D01*
X151325Y889073D01*
X151284Y889077D01*
X-8316Y889077D01*
X-8336Y889074D01*
X-8355Y889076D01*
X-8457Y889054D01*
X-8559Y889038D01*
X-8576Y889028D01*
X-8596Y889024D01*
X-8685Y888971D01*
X-8776Y888922D01*
X-8790Y888908D01*
X-8807Y888898D01*
X-8874Y888819D01*
X-8946Y888744D01*
X-8954Y888726D01*
X-8967Y888711D01*
X-9006Y888615D01*
X-9049Y888521D01*
X-9051Y888501D01*
X-9059Y888483D01*
X-9077Y888316D01*
X-9077Y11684D01*
X-9074Y11664D01*
X-9076Y11645D01*
X-9054Y11543D01*
X-9038Y11441D01*
X-9028Y11424D01*
X-9024Y11404D01*
X-8971Y11315D01*
X-8922Y11224D01*
X-8908Y11210D01*
X-8898Y11193D01*
X-8819Y11126D01*
X-8744Y11054D01*
X-8726Y11046D01*
X-8711Y11033D01*
X-8615Y10994D01*
X-8521Y10951D01*
X-8501Y10949D01*
X-8483Y10941D01*
X-8316Y10923D01*
X391814Y10923D01*
X391885Y10934D01*
G37*
G36*
X1058332Y711829D02*
X1058332Y711829D01*
X1058355Y711826D01*
X1058453Y711847D01*
X1058551Y711862D01*
X1058572Y711873D01*
X1058596Y711878D01*
X1058681Y711929D01*
X1058770Y711975D01*
X1058786Y711992D01*
X1058807Y712004D01*
X1058872Y712080D01*
X1058941Y712151D01*
X1058951Y712173D01*
X1058967Y712191D01*
X1059004Y712284D01*
X1059047Y712373D01*
X1059050Y712397D01*
X1059059Y712419D01*
X1059077Y712586D01*
X1059077Y888316D01*
X1059074Y888336D01*
X1059076Y888355D01*
X1059054Y888457D01*
X1059038Y888559D01*
X1059028Y888576D01*
X1059024Y888596D01*
X1058971Y888685D01*
X1058922Y888776D01*
X1058908Y888790D01*
X1058898Y888807D01*
X1058819Y888874D01*
X1058744Y888946D01*
X1058726Y888954D01*
X1058711Y888967D01*
X1058615Y889006D01*
X1058521Y889049D01*
X1058501Y889051D01*
X1058483Y889059D01*
X1058316Y889077D01*
X356716Y889077D01*
X356645Y889066D01*
X356573Y889064D01*
X356524Y889046D01*
X356473Y889038D01*
X356409Y889004D01*
X356342Y888979D01*
X356301Y888947D01*
X356255Y888922D01*
X356206Y888870D01*
X356150Y888826D01*
X356122Y888782D01*
X356086Y888744D01*
X356056Y888679D01*
X356017Y888619D01*
X356004Y888568D01*
X355982Y888521D01*
X355974Y888450D01*
X355957Y888380D01*
X355961Y888328D01*
X355955Y888277D01*
X355971Y888206D01*
X355976Y888135D01*
X355996Y888087D01*
X356008Y888036D01*
X356044Y887975D01*
X356072Y887909D01*
X356117Y887853D01*
X356134Y887825D01*
X356152Y887810D01*
X356177Y887778D01*
X414323Y829632D01*
X414358Y829607D01*
X414388Y829574D01*
X414458Y829535D01*
X414522Y829489D01*
X414564Y829476D01*
X414603Y829455D01*
X414681Y829440D01*
X414758Y829416D01*
X414801Y829418D01*
X414844Y829410D01*
X414924Y829421D01*
X415003Y829423D01*
X415045Y829438D01*
X415088Y829444D01*
X415222Y829503D01*
X415234Y829507D01*
X415237Y829509D01*
X415242Y829511D01*
X418509Y831398D01*
X426805Y833621D01*
X515453Y833621D01*
X515477Y833625D01*
X515501Y833622D01*
X515598Y833644D01*
X515696Y833660D01*
X515717Y833672D01*
X515740Y833677D01*
X515825Y833729D01*
X515913Y833776D01*
X515930Y833793D01*
X515950Y833806D01*
X516014Y833882D01*
X516082Y833954D01*
X516093Y833976D01*
X516108Y833994D01*
X516144Y834087D01*
X516186Y834177D01*
X516189Y834201D01*
X516198Y834223D01*
X516202Y834323D01*
X516213Y834421D01*
X516208Y834445D01*
X516209Y834469D01*
X516182Y834565D01*
X516161Y834662D01*
X516149Y834682D01*
X516142Y834706D01*
X516086Y834788D01*
X516035Y834873D01*
X516016Y834889D01*
X516003Y834908D01*
X515923Y834968D01*
X515848Y835033D01*
X515825Y835042D01*
X515806Y835056D01*
X515650Y835117D01*
X510288Y836554D01*
X504551Y839866D01*
X499866Y844551D01*
X496554Y850288D01*
X494839Y856688D01*
X494839Y863312D01*
X496554Y869712D01*
X499866Y875449D01*
X504551Y880134D01*
X510288Y883446D01*
X516688Y885161D01*
X523312Y885161D01*
X529712Y883446D01*
X535449Y880134D01*
X540134Y875449D01*
X543446Y869712D01*
X545161Y863312D01*
X545161Y856688D01*
X543446Y850288D01*
X540134Y844551D01*
X535449Y839866D01*
X529712Y836554D01*
X524350Y835117D01*
X524328Y835107D01*
X524304Y835103D01*
X524216Y835057D01*
X524126Y835016D01*
X524108Y835000D01*
X524087Y834988D01*
X524018Y834916D01*
X523946Y834849D01*
X523934Y834828D01*
X523918Y834810D01*
X523876Y834720D01*
X523828Y834633D01*
X523824Y834609D01*
X523814Y834587D01*
X523803Y834488D01*
X523786Y834390D01*
X523789Y834366D01*
X523787Y834343D01*
X523808Y834246D01*
X523823Y834147D01*
X523834Y834126D01*
X523839Y834102D01*
X523890Y834017D01*
X523936Y833928D01*
X523953Y833912D01*
X523965Y833891D01*
X524041Y833826D01*
X524112Y833757D01*
X524134Y833747D01*
X524152Y833731D01*
X524245Y833694D01*
X524334Y833651D01*
X524358Y833648D01*
X524380Y833639D01*
X524547Y833621D01*
X535281Y833621D01*
X535371Y833635D01*
X535462Y833643D01*
X535492Y833655D01*
X535524Y833660D01*
X535605Y833703D01*
X535689Y833739D01*
X535721Y833765D01*
X535741Y833776D01*
X535764Y833799D01*
X535820Y833844D01*
X569025Y867049D01*
X576463Y871343D01*
X584760Y873566D01*
X893349Y873566D01*
X901645Y871343D01*
X909084Y867049D01*
X1052181Y723952D01*
X1056476Y716513D01*
X1057581Y712389D01*
X1057591Y712367D01*
X1057595Y712343D01*
X1057641Y712256D01*
X1057682Y712165D01*
X1057698Y712147D01*
X1057710Y712126D01*
X1057782Y712058D01*
X1057849Y711985D01*
X1057870Y711973D01*
X1057888Y711957D01*
X1057978Y711915D01*
X1058065Y711867D01*
X1058089Y711863D01*
X1058111Y711853D01*
X1058210Y711842D01*
X1058308Y711825D01*
X1058332Y711829D01*
G37*
%LPC*%
G36*
X47827Y33677D02*
X47827Y33677D01*
X43813Y35340D01*
X40740Y38413D01*
X39077Y42427D01*
X39077Y46773D01*
X40740Y50787D01*
X43813Y53860D01*
X47827Y55523D01*
X52173Y55523D01*
X56187Y53860D01*
X59260Y50787D01*
X59734Y49643D01*
X59796Y49543D01*
X59855Y49443D01*
X59860Y49439D01*
X59864Y49434D01*
X59954Y49359D01*
X60042Y49283D01*
X60048Y49281D01*
X60053Y49277D01*
X60161Y49235D01*
X60271Y49191D01*
X60278Y49190D01*
X60283Y49189D01*
X60301Y49188D01*
X60437Y49173D01*
X74091Y49173D01*
X74181Y49187D01*
X74272Y49195D01*
X74301Y49207D01*
X74333Y49212D01*
X74414Y49255D01*
X74498Y49291D01*
X74530Y49317D01*
X74551Y49328D01*
X74573Y49351D01*
X74629Y49396D01*
X78604Y53371D01*
X81506Y56273D01*
X96291Y56273D01*
X96381Y56287D01*
X96472Y56295D01*
X96501Y56307D01*
X96533Y56312D01*
X96614Y56355D01*
X96698Y56391D01*
X96730Y56417D01*
X96751Y56428D01*
X96773Y56451D01*
X96829Y56496D01*
X117886Y77553D01*
X117955Y77648D01*
X118024Y77742D01*
X118026Y77748D01*
X118030Y77753D01*
X118064Y77864D01*
X118100Y77976D01*
X118100Y77982D01*
X118102Y77988D01*
X118099Y78105D01*
X118098Y78222D01*
X118096Y78229D01*
X118096Y78234D01*
X118090Y78251D01*
X118051Y78383D01*
X117577Y79527D01*
X117577Y83873D01*
X119240Y87887D01*
X122313Y90960D01*
X126327Y92623D01*
X130673Y92623D01*
X131817Y92149D01*
X131931Y92122D01*
X132044Y92093D01*
X132051Y92094D01*
X132057Y92092D01*
X132173Y92103D01*
X132290Y92113D01*
X132295Y92115D01*
X132302Y92116D01*
X132410Y92164D01*
X132516Y92209D01*
X132522Y92213D01*
X132526Y92216D01*
X132540Y92228D01*
X132647Y92314D01*
X187148Y146815D01*
X187158Y146828D01*
X187170Y146838D01*
X187229Y146928D01*
X187292Y147015D01*
X187296Y147030D01*
X187305Y147043D01*
X187332Y147147D01*
X187364Y147250D01*
X187364Y147266D01*
X187368Y147281D01*
X187361Y147389D01*
X187358Y147496D01*
X187352Y147511D01*
X187351Y147527D01*
X187310Y147626D01*
X187273Y147727D01*
X187263Y147739D01*
X187257Y147754D01*
X187187Y147835D01*
X187120Y147919D01*
X187106Y147927D01*
X187096Y147939D01*
X186955Y148032D01*
X186843Y148089D01*
X185322Y149194D01*
X183994Y150522D01*
X182889Y152043D01*
X182036Y153717D01*
X181455Y155504D01*
X181254Y156777D01*
X192338Y156777D01*
X192358Y156780D01*
X192377Y156778D01*
X192479Y156800D01*
X192581Y156817D01*
X192598Y156826D01*
X192618Y156830D01*
X192707Y156883D01*
X192798Y156932D01*
X192812Y156946D01*
X192829Y156956D01*
X192896Y157035D01*
X192967Y157110D01*
X192976Y157128D01*
X192989Y157143D01*
X193027Y157239D01*
X193071Y157333D01*
X193073Y157353D01*
X193081Y157371D01*
X193099Y157538D01*
X193099Y158301D01*
X193862Y158301D01*
X193882Y158304D01*
X193901Y158302D01*
X194003Y158324D01*
X194105Y158341D01*
X194122Y158350D01*
X194142Y158354D01*
X194231Y158407D01*
X194322Y158456D01*
X194336Y158470D01*
X194353Y158480D01*
X194420Y158559D01*
X194491Y158634D01*
X194500Y158652D01*
X194513Y158667D01*
X194552Y158763D01*
X194595Y158857D01*
X194597Y158877D01*
X194605Y158895D01*
X194623Y159062D01*
X194623Y170146D01*
X195896Y169945D01*
X197683Y169364D01*
X199357Y168511D01*
X200878Y167406D01*
X202206Y166078D01*
X203311Y164557D01*
X204164Y162883D01*
X204657Y161366D01*
X204692Y161298D01*
X204718Y161227D01*
X204748Y161190D01*
X204770Y161147D01*
X204824Y161094D01*
X204871Y161035D01*
X204912Y161009D01*
X204946Y160976D01*
X205015Y160943D01*
X205078Y160902D01*
X205125Y160891D01*
X205168Y160870D01*
X205244Y160861D01*
X205317Y160842D01*
X205365Y160846D01*
X205413Y160840D01*
X205487Y160855D01*
X205562Y160861D01*
X205606Y160880D01*
X205653Y160890D01*
X205719Y160928D01*
X205788Y160958D01*
X205839Y160998D01*
X205866Y161014D01*
X205883Y161033D01*
X205919Y161062D01*
X228252Y183395D01*
X228305Y183469D01*
X228365Y183539D01*
X228377Y183569D01*
X228396Y183595D01*
X228423Y183682D01*
X228457Y183767D01*
X228461Y183808D01*
X228468Y183830D01*
X228467Y183862D01*
X228475Y183934D01*
X228475Y646770D01*
X228461Y646860D01*
X228453Y646951D01*
X228441Y646981D01*
X228436Y647013D01*
X228393Y647094D01*
X228357Y647178D01*
X228331Y647210D01*
X228320Y647230D01*
X228297Y647253D01*
X228252Y647308D01*
X186272Y689289D01*
X186214Y689330D01*
X186162Y689380D01*
X186115Y689402D01*
X186073Y689432D01*
X186004Y689453D01*
X185939Y689483D01*
X185887Y689489D01*
X185837Y689504D01*
X185766Y689503D01*
X185695Y689510D01*
X185644Y689499D01*
X185592Y689498D01*
X185524Y689473D01*
X185454Y689458D01*
X185409Y689432D01*
X185361Y689414D01*
X185305Y689369D01*
X185243Y689332D01*
X185209Y689292D01*
X185169Y689260D01*
X185130Y689200D01*
X185083Y689145D01*
X185064Y689097D01*
X185036Y689053D01*
X185018Y688984D01*
X184991Y688917D01*
X184983Y688846D01*
X184975Y688814D01*
X184977Y688791D01*
X184973Y688750D01*
X184973Y685963D01*
X184991Y685848D01*
X185009Y685732D01*
X185011Y685726D01*
X185012Y685720D01*
X185067Y685617D01*
X185120Y685512D01*
X185125Y685508D01*
X185128Y685502D01*
X185212Y685422D01*
X185296Y685340D01*
X185302Y685337D01*
X185306Y685333D01*
X185323Y685325D01*
X185443Y685259D01*
X185868Y685083D01*
X188583Y682368D01*
X190053Y678820D01*
X190053Y674980D01*
X188583Y671432D01*
X185868Y668717D01*
X182320Y667247D01*
X178480Y667247D01*
X174932Y668717D01*
X172217Y671432D01*
X170747Y674980D01*
X170747Y678820D01*
X172217Y682368D01*
X175011Y685162D01*
X175023Y685178D01*
X175039Y685191D01*
X175095Y685278D01*
X175155Y685362D01*
X175161Y685381D01*
X175172Y685398D01*
X175197Y685498D01*
X175227Y685597D01*
X175227Y685617D01*
X175232Y685636D01*
X175224Y685739D01*
X175221Y685843D01*
X175214Y685862D01*
X175212Y685882D01*
X175172Y685976D01*
X175136Y686074D01*
X175124Y686090D01*
X175116Y686108D01*
X175011Y686239D01*
X165413Y695837D01*
X165413Y704566D01*
X165410Y704586D01*
X165412Y704605D01*
X165390Y704707D01*
X165374Y704809D01*
X165364Y704826D01*
X165360Y704846D01*
X165307Y704935D01*
X165258Y705026D01*
X165244Y705040D01*
X165234Y705057D01*
X165155Y705124D01*
X165080Y705196D01*
X165062Y705204D01*
X165047Y705217D01*
X164951Y705256D01*
X164857Y705299D01*
X164837Y705301D01*
X164819Y705309D01*
X164652Y705327D01*
X55637Y705327D01*
X55522Y705308D01*
X55406Y705291D01*
X55401Y705289D01*
X55394Y705288D01*
X55292Y705233D01*
X55187Y705180D01*
X55183Y705175D01*
X55177Y705172D01*
X55097Y705088D01*
X55015Y705004D01*
X55011Y704998D01*
X55008Y704994D01*
X55000Y704977D01*
X54934Y704857D01*
X54460Y703713D01*
X51387Y700640D01*
X47373Y698977D01*
X43027Y698977D01*
X39013Y700640D01*
X35940Y703713D01*
X34277Y707727D01*
X34277Y712073D01*
X35940Y716087D01*
X39013Y719160D01*
X43027Y720823D01*
X47373Y720823D01*
X51387Y719160D01*
X54460Y716087D01*
X54934Y714943D01*
X54996Y714843D01*
X55055Y714743D01*
X55060Y714739D01*
X55064Y714734D01*
X55154Y714659D01*
X55242Y714583D01*
X55248Y714581D01*
X55253Y714577D01*
X55361Y714535D01*
X55471Y714491D01*
X55478Y714490D01*
X55483Y714489D01*
X55501Y714488D01*
X55637Y714473D01*
X160391Y714473D01*
X160481Y714487D01*
X160572Y714495D01*
X160601Y714507D01*
X160633Y714512D01*
X160714Y714555D01*
X160798Y714591D01*
X160830Y714617D01*
X160851Y714628D01*
X160873Y714651D01*
X160929Y714696D01*
X170758Y724525D01*
X170826Y724620D01*
X170896Y724714D01*
X170898Y724720D01*
X170902Y724725D01*
X170936Y724836D01*
X170972Y724948D01*
X170972Y724954D01*
X170974Y724960D01*
X170971Y725077D01*
X170970Y725194D01*
X170968Y725201D01*
X170968Y725206D01*
X170961Y725223D01*
X170923Y725355D01*
X170747Y725780D01*
X170747Y729620D01*
X172217Y733168D01*
X174932Y735883D01*
X178480Y737353D01*
X182320Y737353D01*
X185868Y735883D01*
X188583Y733168D01*
X190053Y729620D01*
X190053Y725780D01*
X188583Y722232D01*
X185868Y719517D01*
X184020Y718751D01*
X183937Y718700D01*
X183851Y718654D01*
X183833Y718636D01*
X183811Y718622D01*
X183748Y718546D01*
X183681Y718476D01*
X183670Y718452D01*
X183654Y718432D01*
X183619Y718341D01*
X183578Y718253D01*
X183575Y718227D01*
X183566Y718203D01*
X183561Y718105D01*
X183551Y718009D01*
X183556Y717983D01*
X183555Y717957D01*
X183582Y717863D01*
X183603Y717768D01*
X183616Y717746D01*
X183624Y717721D01*
X183679Y717641D01*
X183729Y717557D01*
X183749Y717540D01*
X183764Y717519D01*
X183842Y717460D01*
X183916Y717397D01*
X183940Y717387D01*
X183961Y717372D01*
X184054Y717342D01*
X184144Y717305D01*
X184177Y717302D01*
X184195Y717296D01*
X184228Y717296D01*
X184311Y717287D01*
X186608Y717287D01*
X247175Y656720D01*
X247212Y656693D01*
X247243Y656659D01*
X247311Y656621D01*
X247375Y656576D01*
X247418Y656563D01*
X247459Y656540D01*
X247535Y656527D01*
X247610Y656504D01*
X247655Y656505D01*
X247701Y656497D01*
X247778Y656508D01*
X247855Y656510D01*
X247899Y656526D01*
X247944Y656533D01*
X248013Y656568D01*
X248086Y656595D01*
X248122Y656623D01*
X248163Y656644D01*
X248218Y656700D01*
X248279Y656748D01*
X248303Y656787D01*
X248336Y656820D01*
X248401Y656939D01*
X248412Y656955D01*
X248413Y656960D01*
X248416Y656967D01*
X248417Y656968D01*
X251132Y659683D01*
X254680Y661153D01*
X258520Y661153D01*
X262068Y659683D01*
X264783Y656968D01*
X266253Y653420D01*
X266253Y649580D01*
X264783Y646032D01*
X262068Y643317D01*
X258520Y641847D01*
X254680Y641847D01*
X251721Y643073D01*
X251677Y643083D01*
X251635Y643103D01*
X251558Y643111D01*
X251482Y643129D01*
X251436Y643125D01*
X251391Y643130D01*
X251314Y643113D01*
X251237Y643106D01*
X251195Y643087D01*
X251150Y643077D01*
X251083Y643038D01*
X251012Y643006D01*
X250978Y642975D01*
X250939Y642951D01*
X250888Y642892D01*
X250831Y642839D01*
X250809Y642799D01*
X250779Y642764D01*
X250750Y642692D01*
X250713Y642624D01*
X250704Y642579D01*
X250687Y642536D01*
X250672Y642400D01*
X250669Y642382D01*
X250670Y642377D01*
X250669Y642370D01*
X250669Y636294D01*
X250681Y636219D01*
X250684Y636144D01*
X250701Y636099D01*
X250708Y636051D01*
X250744Y635984D01*
X250771Y635914D01*
X250801Y635876D01*
X250824Y635834D01*
X250878Y635782D01*
X250926Y635723D01*
X250967Y635698D01*
X251002Y635664D01*
X251071Y635633D01*
X251135Y635592D01*
X251181Y635581D01*
X251225Y635561D01*
X251300Y635552D01*
X251374Y635535D01*
X251422Y635539D01*
X251469Y635534D01*
X251543Y635550D01*
X251619Y635556D01*
X251679Y635579D01*
X251710Y635586D01*
X251732Y635599D01*
X251776Y635616D01*
X252505Y635987D01*
X254102Y636506D01*
X255077Y636660D01*
X255077Y626862D01*
X255080Y626842D01*
X255078Y626823D01*
X255100Y626721D01*
X255117Y626619D01*
X255126Y626602D01*
X255130Y626582D01*
X255183Y626493D01*
X255232Y626402D01*
X255246Y626388D01*
X255256Y626371D01*
X255335Y626304D01*
X255410Y626233D01*
X255428Y626224D01*
X255443Y626211D01*
X255539Y626173D01*
X255633Y626129D01*
X255653Y626127D01*
X255671Y626119D01*
X255838Y626101D01*
X256601Y626101D01*
X256601Y625338D01*
X256604Y625318D01*
X256602Y625299D01*
X256624Y625197D01*
X256641Y625095D01*
X256650Y625078D01*
X256654Y625058D01*
X256707Y624969D01*
X256756Y624878D01*
X256770Y624864D01*
X256780Y624847D01*
X256859Y624780D01*
X256934Y624709D01*
X256952Y624700D01*
X256967Y624687D01*
X257063Y624648D01*
X257157Y624605D01*
X257177Y624603D01*
X257195Y624595D01*
X257362Y624577D01*
X267160Y624577D01*
X267006Y623602D01*
X266487Y622005D01*
X265725Y620508D01*
X264738Y619150D01*
X263550Y617962D01*
X262314Y617064D01*
X262308Y617058D01*
X262301Y617054D01*
X262222Y616971D01*
X262140Y616889D01*
X262137Y616882D01*
X262131Y616876D01*
X262083Y616772D01*
X262032Y616668D01*
X262031Y616660D01*
X262028Y616653D01*
X262015Y616539D01*
X262000Y616424D01*
X262002Y616416D01*
X262001Y616409D01*
X262025Y616296D01*
X262047Y616183D01*
X262051Y616176D01*
X262053Y616168D01*
X262112Y616070D01*
X262169Y615969D01*
X262175Y615964D01*
X262179Y615957D01*
X262267Y615882D01*
X262353Y615805D01*
X262360Y615802D01*
X262366Y615797D01*
X262473Y615754D01*
X262579Y615709D01*
X262587Y615708D01*
X262594Y615705D01*
X262761Y615687D01*
X262808Y615687D01*
X265709Y612785D01*
X273699Y604796D01*
X273773Y604743D01*
X273842Y604683D01*
X273872Y604671D01*
X273898Y604652D01*
X273985Y604625D01*
X274070Y604591D01*
X274111Y604587D01*
X274134Y604580D01*
X274166Y604581D01*
X274237Y604573D01*
X363894Y604573D01*
X366796Y601671D01*
X375796Y592671D01*
X399953Y568514D01*
X400047Y568446D01*
X400142Y568376D01*
X400148Y568374D01*
X400153Y568370D01*
X400264Y568336D01*
X400376Y568300D01*
X400382Y568300D01*
X400388Y568298D01*
X400505Y568301D01*
X400622Y568302D01*
X400629Y568304D01*
X400634Y568304D01*
X400651Y568311D01*
X400783Y568349D01*
X401927Y568823D01*
X406273Y568823D01*
X410287Y567160D01*
X413360Y564087D01*
X415023Y560073D01*
X415023Y555727D01*
X413360Y551713D01*
X410287Y548640D01*
X409143Y548166D01*
X409043Y548104D01*
X408943Y548045D01*
X408939Y548040D01*
X408934Y548036D01*
X408859Y547946D01*
X408783Y547858D01*
X408781Y547852D01*
X408777Y547847D01*
X408735Y547739D01*
X408691Y547629D01*
X408690Y547622D01*
X408689Y547617D01*
X408688Y547599D01*
X408673Y547463D01*
X408673Y389609D01*
X408687Y389519D01*
X408695Y389428D01*
X408707Y389399D01*
X408712Y389367D01*
X408755Y389286D01*
X408791Y389202D01*
X408817Y389170D01*
X408828Y389149D01*
X408851Y389127D01*
X408896Y389071D01*
X469519Y328448D01*
X469535Y328436D01*
X469547Y328421D01*
X469635Y328365D01*
X469719Y328304D01*
X469738Y328299D01*
X469754Y328288D01*
X469855Y328262D01*
X469954Y328232D01*
X469974Y328233D01*
X469993Y328228D01*
X470096Y328236D01*
X470200Y328238D01*
X470218Y328245D01*
X470238Y328247D01*
X470333Y328287D01*
X470431Y328323D01*
X470446Y328335D01*
X470464Y328343D01*
X470595Y328448D01*
X471920Y329773D01*
X475281Y331165D01*
X478919Y331165D01*
X482280Y329773D01*
X484853Y327200D01*
X486245Y323839D01*
X486245Y304961D01*
X484853Y301600D01*
X482280Y299027D01*
X478919Y297635D01*
X475281Y297635D01*
X471920Y299027D01*
X469347Y301600D01*
X467955Y304961D01*
X467955Y316763D01*
X467941Y316853D01*
X467933Y316944D01*
X467921Y316973D01*
X467916Y317005D01*
X467873Y317086D01*
X467837Y317170D01*
X467811Y317202D01*
X467800Y317223D01*
X467777Y317245D01*
X467732Y317301D01*
X399527Y385506D01*
X399527Y547463D01*
X399508Y547578D01*
X399491Y547694D01*
X399489Y547699D01*
X399488Y547706D01*
X399433Y547808D01*
X399380Y547913D01*
X399375Y547917D01*
X399372Y547923D01*
X399288Y548003D01*
X399204Y548085D01*
X399198Y548089D01*
X399194Y548092D01*
X399177Y548100D01*
X399057Y548166D01*
X397913Y548640D01*
X394840Y551713D01*
X393177Y555727D01*
X393177Y560073D01*
X393651Y561217D01*
X393678Y561331D01*
X393707Y561444D01*
X393706Y561451D01*
X393708Y561457D01*
X393697Y561573D01*
X393687Y561690D01*
X393685Y561695D01*
X393684Y561702D01*
X393637Y561809D01*
X393591Y561916D01*
X393586Y561922D01*
X393584Y561926D01*
X393572Y561940D01*
X393486Y562047D01*
X389201Y566332D01*
X389149Y566369D01*
X389104Y566414D01*
X389050Y566441D01*
X389002Y566475D01*
X388940Y566494D01*
X388883Y566522D01*
X388824Y566530D01*
X388766Y566548D01*
X388703Y566546D01*
X388639Y566555D01*
X388581Y566543D01*
X388521Y566541D01*
X388460Y566520D01*
X388398Y566507D01*
X388346Y566478D01*
X388290Y566457D01*
X388240Y566417D01*
X388184Y566386D01*
X388144Y566341D01*
X388097Y566303D01*
X388063Y566250D01*
X388020Y566202D01*
X387997Y566147D01*
X387964Y566096D01*
X387949Y566034D01*
X387924Y565976D01*
X387919Y565916D01*
X387904Y565858D01*
X387909Y565794D01*
X387904Y565731D01*
X387919Y565672D01*
X387924Y565613D01*
X387949Y565554D01*
X387964Y565492D01*
X388007Y565417D01*
X388020Y565386D01*
X388035Y565367D01*
X388047Y565346D01*
X388911Y564157D01*
X389764Y562483D01*
X390345Y560696D01*
X390546Y559423D01*
X380223Y559423D01*
X380223Y569746D01*
X381496Y569545D01*
X383283Y568964D01*
X384957Y568111D01*
X386146Y567247D01*
X386203Y567218D01*
X386255Y567181D01*
X386312Y567164D01*
X386366Y567137D01*
X386429Y567128D01*
X386490Y567109D01*
X386550Y567110D01*
X386609Y567102D01*
X386672Y567113D01*
X386736Y567115D01*
X386792Y567136D01*
X386851Y567147D01*
X386907Y567178D01*
X386967Y567200D01*
X387014Y567237D01*
X387066Y567266D01*
X387109Y567313D01*
X387159Y567353D01*
X387192Y567404D01*
X387232Y567448D01*
X387258Y567506D01*
X387292Y567560D01*
X387307Y567618D01*
X387331Y567673D01*
X387337Y567737D01*
X387352Y567799D01*
X387348Y567858D01*
X387353Y567918D01*
X387338Y567980D01*
X387333Y568044D01*
X387310Y568099D01*
X387296Y568157D01*
X387262Y568212D01*
X387237Y568270D01*
X387183Y568338D01*
X387165Y568366D01*
X387147Y568382D01*
X387132Y568401D01*
X369329Y586204D01*
X360329Y595204D01*
X360255Y595257D01*
X360185Y595317D01*
X360155Y595329D01*
X360129Y595348D01*
X360042Y595375D01*
X359957Y595409D01*
X359916Y595413D01*
X359894Y595420D01*
X359862Y595419D01*
X359791Y595427D01*
X270134Y595427D01*
X267232Y598329D01*
X267213Y598348D01*
X267176Y598375D01*
X267145Y598408D01*
X267076Y598446D01*
X267013Y598491D01*
X266970Y598505D01*
X266929Y598527D01*
X266852Y598541D01*
X266778Y598564D01*
X266732Y598563D01*
X266687Y598571D01*
X266610Y598559D01*
X266532Y598557D01*
X266489Y598542D01*
X266444Y598535D01*
X266374Y598500D01*
X266301Y598473D01*
X266265Y598444D01*
X266225Y598423D01*
X266170Y598368D01*
X266109Y598319D01*
X266084Y598281D01*
X266052Y598248D01*
X265986Y598128D01*
X265976Y598112D01*
X265975Y598107D01*
X265971Y598101D01*
X264783Y595232D01*
X262068Y592517D01*
X258520Y591047D01*
X254680Y591047D01*
X251132Y592517D01*
X248417Y595232D01*
X246947Y598780D01*
X246947Y602620D01*
X248417Y606168D01*
X251132Y608883D01*
X251133Y608884D01*
X251172Y608908D01*
X251215Y608924D01*
X251276Y608972D01*
X251342Y609013D01*
X251372Y609049D01*
X251407Y609077D01*
X251450Y609143D01*
X251499Y609203D01*
X251516Y609246D01*
X251540Y609284D01*
X251559Y609360D01*
X251587Y609432D01*
X251589Y609478D01*
X251601Y609523D01*
X251595Y609600D01*
X251598Y609678D01*
X251585Y609722D01*
X251581Y609768D01*
X251551Y609839D01*
X251529Y609914D01*
X251503Y609952D01*
X251485Y609994D01*
X251400Y610101D01*
X251389Y610116D01*
X251385Y610119D01*
X251380Y610125D01*
X244425Y617081D01*
X241523Y619982D01*
X241523Y649122D01*
X241509Y649212D01*
X241501Y649303D01*
X241489Y649333D01*
X241484Y649365D01*
X241441Y649446D01*
X241405Y649530D01*
X241379Y649562D01*
X241368Y649582D01*
X241345Y649605D01*
X241300Y649660D01*
X191013Y699948D01*
X190976Y699975D01*
X190945Y700008D01*
X190876Y700046D01*
X190813Y700091D01*
X190769Y700105D01*
X190729Y700127D01*
X190653Y700141D01*
X190578Y700164D01*
X190532Y700163D01*
X190487Y700171D01*
X190410Y700159D01*
X190332Y700157D01*
X190289Y700142D01*
X190244Y700135D01*
X190175Y700100D01*
X190101Y700073D01*
X190065Y700044D01*
X190025Y700023D01*
X189970Y699968D01*
X189909Y699919D01*
X189884Y699881D01*
X189852Y699848D01*
X189786Y699728D01*
X189776Y699712D01*
X189775Y699707D01*
X189771Y699701D01*
X189680Y699479D01*
X189653Y699366D01*
X189624Y699252D01*
X189625Y699246D01*
X189624Y699240D01*
X189634Y699124D01*
X189644Y699007D01*
X189646Y699001D01*
X189647Y698995D01*
X189694Y698887D01*
X189740Y698781D01*
X189745Y698775D01*
X189747Y698770D01*
X189759Y698756D01*
X189845Y698650D01*
X237621Y650874D01*
X237621Y340583D01*
X237636Y340487D01*
X237646Y340390D01*
X237656Y340366D01*
X237660Y340341D01*
X237706Y340255D01*
X237746Y340166D01*
X237763Y340146D01*
X237776Y340123D01*
X237846Y340056D01*
X237912Y339984D01*
X237935Y339972D01*
X237954Y339954D01*
X238042Y339913D01*
X238128Y339866D01*
X238153Y339861D01*
X238177Y339850D01*
X238274Y339839D01*
X238370Y339822D01*
X238396Y339826D01*
X238421Y339823D01*
X238517Y339844D01*
X238613Y339858D01*
X238636Y339870D01*
X238662Y339875D01*
X238745Y339925D01*
X238832Y339969D01*
X238851Y339988D01*
X238873Y340002D01*
X238936Y340075D01*
X239004Y340145D01*
X239020Y340174D01*
X239033Y340188D01*
X239045Y340219D01*
X239085Y340292D01*
X240740Y344287D01*
X243813Y347360D01*
X244957Y347834D01*
X245057Y347896D01*
X245157Y347955D01*
X245161Y347960D01*
X245166Y347964D01*
X245241Y348054D01*
X245317Y348142D01*
X245319Y348148D01*
X245323Y348153D01*
X245365Y348261D01*
X245409Y348371D01*
X245410Y348378D01*
X245411Y348383D01*
X245412Y348401D01*
X245427Y348537D01*
X245427Y437963D01*
X245413Y438053D01*
X245405Y438144D01*
X245393Y438174D01*
X245388Y438206D01*
X245345Y438286D01*
X245309Y438370D01*
X245283Y438402D01*
X245272Y438423D01*
X245249Y438445D01*
X245231Y438468D01*
X245227Y438475D01*
X245222Y438479D01*
X245204Y438501D01*
X241613Y442092D01*
X241613Y541380D01*
X246958Y546725D01*
X247027Y546820D01*
X247096Y546914D01*
X247098Y546920D01*
X247102Y546925D01*
X247136Y547035D01*
X247172Y547148D01*
X247172Y547154D01*
X247174Y547160D01*
X247171Y547277D01*
X247170Y547394D01*
X247168Y547401D01*
X247168Y547406D01*
X247162Y547423D01*
X247123Y547555D01*
X246947Y547980D01*
X246947Y551820D01*
X248417Y555368D01*
X251132Y558083D01*
X254680Y559553D01*
X258520Y559553D01*
X262068Y558083D01*
X264783Y555368D01*
X266253Y551820D01*
X266253Y547980D01*
X264783Y544432D01*
X262068Y541717D01*
X258520Y540247D01*
X254680Y540247D01*
X254255Y540423D01*
X254141Y540450D01*
X254028Y540479D01*
X254021Y540478D01*
X254015Y540480D01*
X253899Y540469D01*
X253782Y540459D01*
X253777Y540457D01*
X253770Y540456D01*
X253663Y540409D01*
X253556Y540363D01*
X253550Y540358D01*
X253546Y540356D01*
X253532Y540344D01*
X253425Y540258D01*
X250982Y537815D01*
X250929Y537741D01*
X250869Y537671D01*
X250857Y537641D01*
X250838Y537615D01*
X250811Y537528D01*
X250777Y537443D01*
X250773Y537402D01*
X250766Y537380D01*
X250767Y537348D01*
X250759Y537277D01*
X250759Y533668D01*
X250766Y533623D01*
X250764Y533577D01*
X250786Y533502D01*
X250798Y533425D01*
X250820Y533385D01*
X250833Y533340D01*
X250877Y533276D01*
X250914Y533208D01*
X250947Y533176D01*
X250973Y533138D01*
X251036Y533092D01*
X251092Y533038D01*
X251134Y533019D01*
X251170Y532992D01*
X251244Y532967D01*
X251315Y532935D01*
X251361Y532930D01*
X251404Y532915D01*
X251482Y532916D01*
X251559Y532908D01*
X251604Y532917D01*
X251650Y532918D01*
X251782Y532956D01*
X251800Y532960D01*
X251804Y532962D01*
X251811Y532964D01*
X254680Y534153D01*
X258520Y534153D01*
X262068Y532683D01*
X264783Y529968D01*
X265319Y528674D01*
X265343Y528635D01*
X265359Y528592D01*
X265408Y528531D01*
X265449Y528465D01*
X265484Y528436D01*
X265513Y528400D01*
X265578Y528358D01*
X265638Y528308D01*
X265681Y528292D01*
X265720Y528267D01*
X265795Y528248D01*
X265868Y528220D01*
X265914Y528218D01*
X265958Y528207D01*
X266036Y528213D01*
X266113Y528210D01*
X266158Y528223D01*
X266203Y528226D01*
X266275Y528257D01*
X266350Y528278D01*
X266387Y528305D01*
X266430Y528323D01*
X266536Y528408D01*
X266552Y528419D01*
X266555Y528423D01*
X266561Y528427D01*
X291886Y553753D01*
X291955Y553848D01*
X292024Y553942D01*
X292026Y553948D01*
X292030Y553953D01*
X292064Y554064D01*
X292100Y554176D01*
X292100Y554182D01*
X292102Y554188D01*
X292099Y554305D01*
X292098Y554422D01*
X292096Y554429D01*
X292096Y554434D01*
X292089Y554451D01*
X292051Y554583D01*
X291577Y555727D01*
X291577Y560073D01*
X293240Y564087D01*
X296313Y567160D01*
X300327Y568823D01*
X304673Y568823D01*
X308687Y567160D01*
X311760Y564087D01*
X313423Y560073D01*
X313423Y555727D01*
X311760Y551713D01*
X308687Y548640D01*
X307543Y548166D01*
X307443Y548104D01*
X307343Y548045D01*
X307339Y548040D01*
X307334Y548036D01*
X307259Y547946D01*
X307183Y547858D01*
X307181Y547852D01*
X307177Y547847D01*
X307135Y547739D01*
X307091Y547629D01*
X307090Y547622D01*
X307089Y547617D01*
X307088Y547599D01*
X307073Y547463D01*
X307073Y358209D01*
X307087Y358119D01*
X307095Y358028D01*
X307107Y357999D01*
X307112Y357967D01*
X307155Y357886D01*
X307191Y357802D01*
X307217Y357770D01*
X307228Y357749D01*
X307251Y357727D01*
X307296Y357671D01*
X336519Y328448D01*
X336535Y328436D01*
X336547Y328421D01*
X336635Y328365D01*
X336719Y328304D01*
X336738Y328299D01*
X336754Y328288D01*
X336855Y328262D01*
X336954Y328232D01*
X336974Y328233D01*
X336993Y328228D01*
X337096Y328236D01*
X337200Y328238D01*
X337218Y328245D01*
X337238Y328247D01*
X337333Y328287D01*
X337431Y328323D01*
X337446Y328335D01*
X337464Y328343D01*
X337595Y328448D01*
X338920Y329773D01*
X342281Y331165D01*
X345919Y331165D01*
X349280Y329773D01*
X351853Y327200D01*
X353245Y323839D01*
X353245Y304961D01*
X351853Y301600D01*
X349280Y299027D01*
X345919Y297635D01*
X342281Y297635D01*
X338920Y299027D01*
X336347Y301600D01*
X334955Y304961D01*
X334955Y316763D01*
X334941Y316853D01*
X334933Y316944D01*
X334921Y316973D01*
X334916Y317005D01*
X334873Y317086D01*
X334837Y317170D01*
X334811Y317202D01*
X334800Y317223D01*
X334777Y317245D01*
X334732Y317301D01*
X297927Y354106D01*
X297927Y545023D01*
X297916Y545093D01*
X297914Y545165D01*
X297896Y545214D01*
X297888Y545265D01*
X297854Y545329D01*
X297829Y545396D01*
X297797Y545437D01*
X297772Y545483D01*
X297720Y545532D01*
X297676Y545588D01*
X297632Y545616D01*
X297594Y545652D01*
X297529Y545682D01*
X297469Y545721D01*
X297418Y545734D01*
X297371Y545756D01*
X297300Y545764D01*
X297230Y545781D01*
X297178Y545777D01*
X297127Y545783D01*
X297056Y545768D01*
X296985Y545762D01*
X296937Y545742D01*
X296886Y545731D01*
X296825Y545694D01*
X296759Y545666D01*
X296703Y545621D01*
X296675Y545604D01*
X296660Y545587D01*
X296628Y545561D01*
X271810Y520743D01*
X271757Y520669D01*
X271741Y520651D01*
X271718Y520627D01*
X271716Y520621D01*
X271697Y520599D01*
X271685Y520569D01*
X271666Y520543D01*
X271640Y520458D01*
X271615Y520404D01*
X271614Y520392D01*
X271605Y520371D01*
X271601Y520330D01*
X271594Y520308D01*
X271595Y520276D01*
X271587Y520205D01*
X271587Y492892D01*
X268685Y489991D01*
X261820Y483125D01*
X261793Y483088D01*
X261759Y483057D01*
X261722Y482989D01*
X261676Y482926D01*
X261663Y482882D01*
X261641Y482841D01*
X261627Y482765D01*
X261604Y482690D01*
X261605Y482645D01*
X261597Y482599D01*
X261608Y482522D01*
X261610Y482445D01*
X261626Y482401D01*
X261633Y482356D01*
X261668Y482287D01*
X261695Y482214D01*
X261723Y482178D01*
X261744Y482137D01*
X261800Y482082D01*
X261848Y482022D01*
X261887Y481997D01*
X261920Y481965D01*
X262039Y481899D01*
X262055Y481889D01*
X262060Y481887D01*
X262067Y481884D01*
X262068Y481883D01*
X264783Y479168D01*
X266253Y475620D01*
X266253Y471780D01*
X264783Y468232D01*
X262068Y465517D01*
X258520Y464047D01*
X254680Y464047D01*
X251811Y465236D01*
X251767Y465246D01*
X251725Y465265D01*
X251648Y465274D01*
X251572Y465292D01*
X251526Y465287D01*
X251481Y465292D01*
X251404Y465276D01*
X251327Y465269D01*
X251285Y465250D01*
X251240Y465240D01*
X251173Y465200D01*
X251102Y465169D01*
X251068Y465138D01*
X251029Y465114D01*
X250978Y465055D01*
X250921Y465002D01*
X250899Y464962D01*
X250869Y464927D01*
X250840Y464855D01*
X250803Y464787D01*
X250794Y464742D01*
X250777Y464699D01*
X250762Y464563D01*
X250759Y464545D01*
X250760Y464540D01*
X250759Y464532D01*
X250759Y457468D01*
X250766Y457423D01*
X250764Y457377D01*
X250786Y457302D01*
X250798Y457225D01*
X250820Y457185D01*
X250833Y457140D01*
X250877Y457076D01*
X250914Y457008D01*
X250947Y456976D01*
X250973Y456938D01*
X251036Y456892D01*
X251092Y456838D01*
X251134Y456819D01*
X251170Y456792D01*
X251244Y456767D01*
X251315Y456735D01*
X251361Y456730D01*
X251404Y456715D01*
X251482Y456716D01*
X251559Y456708D01*
X251604Y456717D01*
X251650Y456718D01*
X251782Y456756D01*
X251800Y456760D01*
X251804Y456762D01*
X251811Y456764D01*
X254680Y457953D01*
X258520Y457953D01*
X262068Y456483D01*
X264783Y453768D01*
X266253Y450220D01*
X266253Y446380D01*
X264783Y442832D01*
X262068Y440117D01*
X258520Y438647D01*
X255334Y438647D01*
X255314Y438644D01*
X255295Y438646D01*
X255193Y438624D01*
X255091Y438608D01*
X255074Y438598D01*
X255054Y438594D01*
X254965Y438541D01*
X254874Y438492D01*
X254860Y438478D01*
X254843Y438468D01*
X254776Y438389D01*
X254704Y438314D01*
X254696Y438296D01*
X254683Y438281D01*
X254644Y438185D01*
X254601Y438091D01*
X254599Y438071D01*
X254591Y438053D01*
X254573Y437886D01*
X254573Y348537D01*
X254592Y348422D01*
X254609Y348306D01*
X254611Y348301D01*
X254612Y348294D01*
X254667Y348192D01*
X254720Y348087D01*
X254725Y348083D01*
X254728Y348077D01*
X254812Y347997D01*
X254896Y347915D01*
X254902Y347911D01*
X254906Y347908D01*
X254923Y347900D01*
X255043Y347834D01*
X256187Y347360D01*
X259260Y344287D01*
X260923Y340273D01*
X260923Y335927D01*
X259260Y331913D01*
X256187Y328840D01*
X252173Y327177D01*
X247827Y327177D01*
X243813Y328840D01*
X240740Y331913D01*
X239085Y335908D01*
X239034Y335991D01*
X238988Y336077D01*
X238969Y336095D01*
X238956Y336117D01*
X238881Y336179D01*
X238810Y336246D01*
X238786Y336257D01*
X238766Y336274D01*
X238675Y336309D01*
X238587Y336350D01*
X238561Y336353D01*
X238537Y336362D01*
X238439Y336366D01*
X238343Y336377D01*
X238317Y336371D01*
X238291Y336372D01*
X238197Y336345D01*
X238102Y336325D01*
X238080Y336311D01*
X238055Y336304D01*
X237975Y336248D01*
X237891Y336198D01*
X237874Y336179D01*
X237853Y336164D01*
X237794Y336086D01*
X237731Y336012D01*
X237721Y335987D01*
X237706Y335966D01*
X237676Y335874D01*
X237639Y335783D01*
X237636Y335751D01*
X237630Y335732D01*
X237630Y335699D01*
X237621Y335617D01*
X237621Y264383D01*
X237636Y264287D01*
X237646Y264190D01*
X237656Y264166D01*
X237660Y264141D01*
X237706Y264055D01*
X237746Y263966D01*
X237763Y263946D01*
X237776Y263923D01*
X237846Y263856D01*
X237912Y263784D01*
X237935Y263772D01*
X237954Y263754D01*
X238042Y263713D01*
X238128Y263666D01*
X238153Y263661D01*
X238177Y263650D01*
X238274Y263639D01*
X238370Y263622D01*
X238396Y263626D01*
X238421Y263623D01*
X238517Y263644D01*
X238613Y263658D01*
X238636Y263670D01*
X238662Y263675D01*
X238745Y263725D01*
X238832Y263769D01*
X238851Y263788D01*
X238873Y263802D01*
X238936Y263875D01*
X239004Y263945D01*
X239020Y263974D01*
X239033Y263988D01*
X239045Y264019D01*
X239085Y264092D01*
X240740Y268087D01*
X243813Y271160D01*
X247827Y272823D01*
X252173Y272823D01*
X256187Y271160D01*
X259260Y268087D01*
X260923Y264073D01*
X260923Y259727D01*
X259260Y255713D01*
X256187Y252640D01*
X252173Y250977D01*
X247827Y250977D01*
X243813Y252640D01*
X240740Y255713D01*
X239085Y259708D01*
X239034Y259791D01*
X238988Y259877D01*
X238969Y259895D01*
X238956Y259917D01*
X238881Y259979D01*
X238810Y260046D01*
X238786Y260057D01*
X238766Y260074D01*
X238675Y260109D01*
X238587Y260150D01*
X238561Y260153D01*
X238537Y260162D01*
X238439Y260166D01*
X238343Y260177D01*
X238317Y260171D01*
X238291Y260172D01*
X238197Y260145D01*
X238102Y260125D01*
X238080Y260111D01*
X238055Y260104D01*
X237975Y260048D01*
X237891Y259998D01*
X237874Y259979D01*
X237853Y259964D01*
X237794Y259886D01*
X237731Y259812D01*
X237721Y259787D01*
X237706Y259766D01*
X237676Y259674D01*
X237639Y259583D01*
X237636Y259551D01*
X237630Y259532D01*
X237630Y259499D01*
X237621Y259417D01*
X237621Y179830D01*
X199834Y142043D01*
X195625Y142043D01*
X195535Y142029D01*
X195444Y142021D01*
X195415Y142009D01*
X195383Y142004D01*
X195302Y141961D01*
X195218Y141925D01*
X195186Y141899D01*
X195165Y141888D01*
X195143Y141865D01*
X195087Y141820D01*
X139114Y85847D01*
X139045Y85752D01*
X138976Y85658D01*
X138974Y85652D01*
X138970Y85647D01*
X138936Y85536D01*
X138900Y85424D01*
X138900Y85418D01*
X138898Y85412D01*
X138901Y85295D01*
X138902Y85178D01*
X138904Y85171D01*
X138904Y85166D01*
X138910Y85149D01*
X138949Y85017D01*
X139423Y83873D01*
X139423Y79527D01*
X137760Y75513D01*
X134687Y72440D01*
X130673Y70777D01*
X126327Y70777D01*
X125183Y71251D01*
X125069Y71278D01*
X124956Y71307D01*
X124949Y71306D01*
X124943Y71308D01*
X124827Y71297D01*
X124710Y71287D01*
X124705Y71285D01*
X124698Y71284D01*
X124590Y71236D01*
X124484Y71191D01*
X124478Y71187D01*
X124474Y71184D01*
X124460Y71172D01*
X124353Y71086D01*
X103296Y50029D01*
X100394Y47127D01*
X85609Y47127D01*
X85519Y47113D01*
X85428Y47105D01*
X85399Y47093D01*
X85367Y47088D01*
X85286Y47045D01*
X85202Y47009D01*
X85170Y46983D01*
X85149Y46972D01*
X85127Y46949D01*
X85071Y46904D01*
X78194Y40027D01*
X60437Y40027D01*
X60322Y40008D01*
X60206Y39991D01*
X60201Y39989D01*
X60194Y39988D01*
X60092Y39933D01*
X59987Y39880D01*
X59983Y39875D01*
X59977Y39872D01*
X59897Y39788D01*
X59815Y39704D01*
X59811Y39698D01*
X59808Y39694D01*
X59800Y39677D01*
X59734Y39557D01*
X59260Y38413D01*
X56187Y35340D01*
X52173Y33677D01*
X47827Y33677D01*
G37*
%LPD*%
%LPC*%
G36*
X47827Y59077D02*
X47827Y59077D01*
X43813Y60740D01*
X40740Y63813D01*
X39077Y67827D01*
X39077Y72173D01*
X39551Y73317D01*
X39578Y73431D01*
X39607Y73544D01*
X39606Y73551D01*
X39608Y73557D01*
X39597Y73673D01*
X39587Y73790D01*
X39585Y73795D01*
X39584Y73802D01*
X39536Y73910D01*
X39491Y74016D01*
X39487Y74022D01*
X39484Y74026D01*
X39472Y74040D01*
X39386Y74147D01*
X33743Y79790D01*
X33743Y151334D01*
X42943Y160533D01*
X42955Y160550D01*
X42970Y160562D01*
X43026Y160649D01*
X43086Y160733D01*
X43092Y160752D01*
X43103Y160769D01*
X43128Y160870D01*
X43159Y160968D01*
X43158Y160988D01*
X43163Y161008D01*
X43155Y161110D01*
X43152Y161214D01*
X43146Y161233D01*
X43144Y161253D01*
X43104Y161348D01*
X43068Y161445D01*
X43056Y161461D01*
X43048Y161479D01*
X42943Y161610D01*
X40740Y163813D01*
X39077Y167827D01*
X39077Y172173D01*
X39551Y173317D01*
X39578Y173431D01*
X39607Y173544D01*
X39606Y173551D01*
X39608Y173557D01*
X39597Y173673D01*
X39587Y173790D01*
X39585Y173795D01*
X39584Y173802D01*
X39536Y173910D01*
X39491Y174016D01*
X39487Y174022D01*
X39484Y174026D01*
X39472Y174040D01*
X39386Y174147D01*
X33743Y179790D01*
X33743Y251334D01*
X42943Y260533D01*
X42955Y260550D01*
X42970Y260562D01*
X43026Y260649D01*
X43086Y260733D01*
X43092Y260752D01*
X43103Y260769D01*
X43128Y260869D01*
X43159Y260968D01*
X43158Y260988D01*
X43163Y261007D01*
X43155Y261110D01*
X43152Y261214D01*
X43146Y261233D01*
X43144Y261253D01*
X43104Y261348D01*
X43068Y261445D01*
X43055Y261461D01*
X43048Y261479D01*
X42943Y261610D01*
X40740Y263813D01*
X39077Y267827D01*
X39077Y272173D01*
X40740Y276187D01*
X43813Y279260D01*
X47827Y280923D01*
X49466Y280923D01*
X49486Y280926D01*
X49505Y280924D01*
X49607Y280946D01*
X49709Y280962D01*
X49726Y280972D01*
X49746Y280976D01*
X49835Y281029D01*
X49926Y281078D01*
X49940Y281092D01*
X49957Y281102D01*
X50024Y281181D01*
X50096Y281256D01*
X50104Y281274D01*
X50117Y281289D01*
X50156Y281385D01*
X50199Y281479D01*
X50201Y281499D01*
X50209Y281517D01*
X50227Y281684D01*
X50227Y357391D01*
X50213Y357481D01*
X50205Y357572D01*
X50193Y357601D01*
X50188Y357633D01*
X50145Y357714D01*
X50109Y357798D01*
X50083Y357830D01*
X50072Y357851D01*
X50049Y357873D01*
X50004Y357929D01*
X38947Y368986D01*
X38852Y369055D01*
X38758Y369124D01*
X38752Y369126D01*
X38747Y369130D01*
X38635Y369164D01*
X38524Y369200D01*
X38518Y369200D01*
X38512Y369202D01*
X38395Y369199D01*
X38278Y369198D01*
X38271Y369196D01*
X38266Y369196D01*
X38249Y369190D01*
X38117Y369151D01*
X36973Y368677D01*
X32627Y368677D01*
X28613Y370340D01*
X25540Y373413D01*
X23877Y377427D01*
X23877Y381773D01*
X25540Y385787D01*
X28613Y388860D01*
X32627Y390523D01*
X36973Y390523D01*
X40987Y388860D01*
X44060Y385787D01*
X45723Y381773D01*
X45723Y377427D01*
X45249Y376283D01*
X45222Y376169D01*
X45193Y376056D01*
X45194Y376049D01*
X45192Y376043D01*
X45203Y375927D01*
X45213Y375810D01*
X45215Y375805D01*
X45216Y375798D01*
X45264Y375690D01*
X45309Y375584D01*
X45313Y375578D01*
X45316Y375574D01*
X45328Y375560D01*
X45414Y375453D01*
X56471Y364396D01*
X59373Y361494D01*
X59373Y276066D01*
X59383Y276001D01*
X59384Y275936D01*
X59407Y275856D01*
X59412Y275823D01*
X59422Y275806D01*
X59431Y275775D01*
X60923Y272173D01*
X60923Y267827D01*
X59260Y263813D01*
X56187Y260740D01*
X55043Y260266D01*
X54943Y260204D01*
X54843Y260145D01*
X54839Y260140D01*
X54834Y260136D01*
X54759Y260046D01*
X54683Y259958D01*
X54681Y259952D01*
X54677Y259947D01*
X54635Y259839D01*
X54591Y259729D01*
X54590Y259722D01*
X54589Y259717D01*
X54588Y259699D01*
X54573Y259563D01*
X54573Y259230D01*
X52054Y256711D01*
X52027Y256674D01*
X51994Y256643D01*
X51956Y256574D01*
X51911Y256511D01*
X51897Y256468D01*
X51875Y256427D01*
X51861Y256351D01*
X51838Y256276D01*
X51839Y256230D01*
X51831Y256185D01*
X51843Y256108D01*
X51845Y256030D01*
X51860Y255987D01*
X51867Y255942D01*
X51902Y255873D01*
X51929Y255799D01*
X51958Y255764D01*
X51979Y255723D01*
X52034Y255668D01*
X52083Y255607D01*
X52121Y255583D01*
X52154Y255550D01*
X52274Y255484D01*
X52290Y255474D01*
X52295Y255473D01*
X52301Y255469D01*
X56187Y253860D01*
X59260Y250787D01*
X59734Y249643D01*
X59796Y249543D01*
X59855Y249443D01*
X59860Y249439D01*
X59864Y249434D01*
X59954Y249359D01*
X60042Y249283D01*
X60048Y249281D01*
X60053Y249277D01*
X60161Y249235D01*
X60271Y249191D01*
X60278Y249190D01*
X60283Y249189D01*
X60301Y249188D01*
X60437Y249173D01*
X78894Y249173D01*
X84971Y243096D01*
X85045Y243043D01*
X85115Y242983D01*
X85145Y242971D01*
X85171Y242952D01*
X85258Y242925D01*
X85343Y242891D01*
X85384Y242887D01*
X85406Y242880D01*
X85438Y242881D01*
X85509Y242873D01*
X100394Y242873D01*
X114353Y228914D01*
X114447Y228846D01*
X114542Y228776D01*
X114548Y228774D01*
X114553Y228770D01*
X114664Y228736D01*
X114776Y228700D01*
X114782Y228700D01*
X114788Y228698D01*
X114905Y228701D01*
X115022Y228702D01*
X115029Y228704D01*
X115034Y228704D01*
X115051Y228711D01*
X115183Y228749D01*
X116327Y229223D01*
X120673Y229223D01*
X124687Y227560D01*
X127760Y224487D01*
X128234Y223343D01*
X128296Y223243D01*
X128355Y223143D01*
X128360Y223139D01*
X128364Y223134D01*
X128454Y223059D01*
X128542Y222983D01*
X128548Y222981D01*
X128553Y222977D01*
X128661Y222935D01*
X128771Y222891D01*
X128778Y222890D01*
X128783Y222889D01*
X128801Y222888D01*
X128937Y222873D01*
X175967Y222873D01*
X176057Y222887D01*
X176148Y222895D01*
X176178Y222907D01*
X176210Y222912D01*
X176290Y222955D01*
X176374Y222991D01*
X176406Y223017D01*
X176427Y223028D01*
X176449Y223051D01*
X176505Y223096D01*
X187966Y234557D01*
X201618Y234557D01*
X201638Y234560D01*
X201657Y234558D01*
X201759Y234580D01*
X201861Y234596D01*
X201878Y234606D01*
X201898Y234610D01*
X201987Y234663D01*
X202078Y234712D01*
X202092Y234726D01*
X202109Y234736D01*
X202176Y234815D01*
X202248Y234890D01*
X202256Y234908D01*
X202269Y234923D01*
X202308Y235019D01*
X202351Y235113D01*
X202353Y235133D01*
X202361Y235151D01*
X202379Y235318D01*
X202379Y434266D01*
X202365Y434356D01*
X202357Y434447D01*
X202345Y434477D01*
X202340Y434509D01*
X202297Y434590D01*
X202261Y434674D01*
X202235Y434706D01*
X202224Y434726D01*
X202201Y434749D01*
X202156Y434804D01*
X191013Y445948D01*
X190976Y445975D01*
X190945Y446008D01*
X190876Y446046D01*
X190813Y446091D01*
X190769Y446105D01*
X190729Y446127D01*
X190653Y446141D01*
X190578Y446164D01*
X190532Y446163D01*
X190487Y446171D01*
X190410Y446159D01*
X190332Y446157D01*
X190289Y446142D01*
X190244Y446135D01*
X190174Y446100D01*
X190101Y446073D01*
X190065Y446044D01*
X190025Y446023D01*
X189970Y445968D01*
X189909Y445919D01*
X189884Y445881D01*
X189852Y445848D01*
X189786Y445728D01*
X189776Y445712D01*
X189775Y445707D01*
X189771Y445701D01*
X188583Y442832D01*
X185868Y440117D01*
X182320Y438647D01*
X178480Y438647D01*
X174932Y440117D01*
X172217Y442832D01*
X170747Y446380D01*
X170747Y450220D01*
X172217Y453768D01*
X174932Y456483D01*
X177801Y457671D01*
X177840Y457696D01*
X177883Y457711D01*
X177944Y457760D01*
X178010Y457801D01*
X178039Y457836D01*
X178075Y457865D01*
X178117Y457931D01*
X178167Y457991D01*
X178183Y458033D01*
X178208Y458072D01*
X178227Y458148D01*
X178255Y458220D01*
X178257Y458266D01*
X178268Y458311D01*
X178262Y458388D01*
X178265Y458466D01*
X178252Y458510D01*
X178249Y458556D01*
X178218Y458627D01*
X178197Y458702D01*
X178171Y458740D01*
X178153Y458782D01*
X178067Y458889D01*
X178057Y458904D01*
X178052Y458907D01*
X178048Y458913D01*
X175827Y461134D01*
X175827Y464637D01*
X175825Y464653D01*
X175826Y464667D01*
X175811Y464739D01*
X175808Y464752D01*
X175791Y464868D01*
X175789Y464874D01*
X175788Y464880D01*
X175775Y464904D01*
X175774Y464908D01*
X175765Y464922D01*
X175733Y464983D01*
X175680Y465088D01*
X175675Y465092D01*
X175672Y465098D01*
X175588Y465177D01*
X175504Y465260D01*
X175498Y465263D01*
X175494Y465267D01*
X175477Y465275D01*
X175357Y465341D01*
X174932Y465517D01*
X172217Y468232D01*
X170747Y471780D01*
X170747Y475620D01*
X172217Y479168D01*
X174932Y481883D01*
X178480Y483353D01*
X182320Y483353D01*
X185868Y481883D01*
X188583Y479168D01*
X190053Y475620D01*
X190053Y471780D01*
X188583Y468232D01*
X185868Y465517D01*
X185867Y465516D01*
X185828Y465492D01*
X185785Y465476D01*
X185724Y465428D01*
X185658Y465387D01*
X185628Y465351D01*
X185593Y465323D01*
X185550Y465257D01*
X185501Y465197D01*
X185484Y465155D01*
X185460Y465116D01*
X185441Y465040D01*
X185413Y464968D01*
X185411Y464922D01*
X185399Y464877D01*
X185405Y464800D01*
X185402Y464722D01*
X185415Y464678D01*
X185419Y464632D01*
X185449Y464561D01*
X185471Y464486D01*
X185497Y464448D01*
X185515Y464406D01*
X185600Y464299D01*
X185611Y464284D01*
X185615Y464281D01*
X185620Y464275D01*
X211525Y438370D01*
X211525Y228106D01*
X208830Y225411D01*
X205718Y225411D01*
X205643Y225399D01*
X205568Y225396D01*
X205523Y225379D01*
X205475Y225372D01*
X205408Y225336D01*
X205338Y225309D01*
X205300Y225279D01*
X205258Y225256D01*
X205206Y225202D01*
X205147Y225154D01*
X205122Y225113D01*
X205089Y225078D01*
X205057Y225009D01*
X205016Y224945D01*
X205005Y224899D01*
X204985Y224855D01*
X204977Y224780D01*
X204959Y224706D01*
X204963Y224658D01*
X204958Y224611D01*
X204974Y224537D01*
X204981Y224461D01*
X205003Y224401D01*
X205010Y224370D01*
X205023Y224348D01*
X205040Y224304D01*
X205764Y222883D01*
X206257Y221366D01*
X206292Y221298D01*
X206318Y221227D01*
X206348Y221190D01*
X206370Y221147D01*
X206424Y221094D01*
X206471Y221035D01*
X206512Y221009D01*
X206546Y220976D01*
X206615Y220943D01*
X206678Y220902D01*
X206725Y220891D01*
X206768Y220870D01*
X206844Y220861D01*
X206917Y220842D01*
X206965Y220846D01*
X207013Y220840D01*
X207087Y220855D01*
X207162Y220861D01*
X207206Y220880D01*
X207254Y220890D01*
X207319Y220928D01*
X207388Y220958D01*
X207439Y220998D01*
X207466Y221014D01*
X207483Y221033D01*
X207519Y221062D01*
X215204Y228747D01*
X215257Y228821D01*
X215317Y228891D01*
X215329Y228921D01*
X215348Y228947D01*
X215375Y229034D01*
X215409Y229119D01*
X215413Y229160D01*
X215420Y229182D01*
X215419Y229214D01*
X215427Y229286D01*
X215427Y599018D01*
X215413Y599108D01*
X215405Y599199D01*
X215393Y599229D01*
X215388Y599261D01*
X215345Y599342D01*
X215309Y599426D01*
X215283Y599458D01*
X215272Y599478D01*
X215249Y599501D01*
X215204Y599557D01*
X191013Y623748D01*
X190976Y623775D01*
X190945Y623808D01*
X190876Y623846D01*
X190813Y623891D01*
X190770Y623905D01*
X190729Y623927D01*
X190652Y623941D01*
X190578Y623964D01*
X190532Y623963D01*
X190487Y623971D01*
X190410Y623959D01*
X190332Y623957D01*
X190289Y623942D01*
X190244Y623935D01*
X190174Y623900D01*
X190101Y623873D01*
X190065Y623844D01*
X190025Y623823D01*
X189970Y623768D01*
X189909Y623719D01*
X189884Y623681D01*
X189852Y623648D01*
X189786Y623528D01*
X189776Y623512D01*
X189775Y623507D01*
X189771Y623501D01*
X188583Y620632D01*
X185868Y617917D01*
X182320Y616447D01*
X178480Y616447D01*
X174932Y617917D01*
X172217Y620632D01*
X170747Y624180D01*
X170747Y628020D01*
X172217Y631568D01*
X174932Y634283D01*
X177801Y635471D01*
X177840Y635496D01*
X177883Y635511D01*
X177944Y635560D01*
X178010Y635601D01*
X178039Y635636D01*
X178075Y635665D01*
X178117Y635731D01*
X178167Y635791D01*
X178183Y635833D01*
X178208Y635872D01*
X178227Y635948D01*
X178255Y636020D01*
X178257Y636066D01*
X178268Y636111D01*
X178262Y636188D01*
X178265Y636266D01*
X178252Y636310D01*
X178249Y636356D01*
X178218Y636427D01*
X178197Y636502D01*
X178171Y636540D01*
X178153Y636582D01*
X178067Y636689D01*
X178057Y636704D01*
X178052Y636707D01*
X178048Y636713D01*
X175827Y638934D01*
X175827Y642437D01*
X175808Y642552D01*
X175791Y642668D01*
X175789Y642674D01*
X175788Y642680D01*
X175733Y642783D01*
X175680Y642888D01*
X175675Y642892D01*
X175672Y642898D01*
X175588Y642977D01*
X175504Y643060D01*
X175498Y643063D01*
X175494Y643067D01*
X175477Y643075D01*
X175357Y643141D01*
X174932Y643317D01*
X172217Y646032D01*
X170747Y649580D01*
X170747Y653420D01*
X172217Y656968D01*
X174932Y659683D01*
X178480Y661153D01*
X182320Y661153D01*
X185868Y659683D01*
X188583Y656968D01*
X190053Y653420D01*
X190053Y649580D01*
X188583Y646032D01*
X185868Y643317D01*
X185867Y643316D01*
X185828Y643292D01*
X185785Y643276D01*
X185724Y643228D01*
X185658Y643187D01*
X185628Y643151D01*
X185592Y643123D01*
X185550Y643057D01*
X185501Y642997D01*
X185484Y642955D01*
X185459Y642916D01*
X185440Y642840D01*
X185413Y642768D01*
X185411Y642722D01*
X185399Y642677D01*
X185405Y642600D01*
X185402Y642522D01*
X185415Y642478D01*
X185419Y642432D01*
X185449Y642360D01*
X185471Y642286D01*
X185497Y642248D01*
X185515Y642206D01*
X185600Y642099D01*
X185611Y642084D01*
X185615Y642081D01*
X185620Y642075D01*
X221671Y606023D01*
X224573Y603122D01*
X224573Y225182D01*
X201434Y202043D01*
X167425Y202043D01*
X167335Y202029D01*
X167244Y202021D01*
X167215Y202009D01*
X167183Y202004D01*
X167102Y201961D01*
X167018Y201925D01*
X166986Y201899D01*
X166965Y201888D01*
X166943Y201865D01*
X166887Y201820D01*
X127514Y162447D01*
X127445Y162352D01*
X127376Y162258D01*
X127374Y162252D01*
X127370Y162247D01*
X127336Y162136D01*
X127300Y162024D01*
X127300Y162018D01*
X127298Y162012D01*
X127301Y161895D01*
X127302Y161778D01*
X127304Y161771D01*
X127304Y161766D01*
X127310Y161749D01*
X127349Y161617D01*
X127823Y160473D01*
X127823Y156127D01*
X126160Y152113D01*
X123087Y149040D01*
X119073Y147377D01*
X114727Y147377D01*
X110713Y149040D01*
X107948Y151805D01*
X107932Y151816D01*
X107920Y151832D01*
X107832Y151888D01*
X107748Y151948D01*
X107729Y151954D01*
X107713Y151965D01*
X107612Y151990D01*
X107513Y152021D01*
X107493Y152020D01*
X107474Y152025D01*
X107371Y152017D01*
X107267Y152014D01*
X107249Y152007D01*
X107229Y152006D01*
X107134Y151966D01*
X107036Y151930D01*
X107021Y151917D01*
X107003Y151910D01*
X106872Y151805D01*
X101696Y146629D01*
X98794Y143727D01*
X82209Y143727D01*
X82119Y143713D01*
X82028Y143705D01*
X81999Y143693D01*
X81967Y143688D01*
X81886Y143645D01*
X81802Y143609D01*
X81770Y143583D01*
X81749Y143572D01*
X81727Y143549D01*
X81671Y143504D01*
X78194Y140027D01*
X60437Y140027D01*
X60322Y140008D01*
X60206Y139991D01*
X60201Y139989D01*
X60194Y139988D01*
X60092Y139933D01*
X59987Y139880D01*
X59983Y139875D01*
X59977Y139872D01*
X59897Y139788D01*
X59815Y139704D01*
X59811Y139698D01*
X59808Y139694D01*
X59800Y139677D01*
X59734Y139557D01*
X59260Y138413D01*
X56187Y135340D01*
X52173Y133677D01*
X47827Y133677D01*
X43941Y135287D01*
X43897Y135297D01*
X43855Y135317D01*
X43778Y135325D01*
X43702Y135343D01*
X43656Y135339D01*
X43611Y135344D01*
X43534Y135327D01*
X43457Y135320D01*
X43415Y135301D01*
X43370Y135292D01*
X43303Y135252D01*
X43232Y135220D01*
X43198Y135189D01*
X43159Y135165D01*
X43108Y135106D01*
X43051Y135054D01*
X43029Y135013D01*
X42999Y134979D01*
X42970Y134906D01*
X42933Y134838D01*
X42924Y134793D01*
X42907Y134750D01*
X42892Y134614D01*
X42889Y134596D01*
X42890Y134591D01*
X42889Y134584D01*
X42889Y83893D01*
X42903Y83803D01*
X42911Y83712D01*
X42923Y83683D01*
X42928Y83651D01*
X42971Y83570D01*
X43007Y83486D01*
X43033Y83454D01*
X43044Y83433D01*
X43067Y83411D01*
X43112Y83355D01*
X45853Y80614D01*
X45948Y80545D01*
X46042Y80476D01*
X46048Y80474D01*
X46053Y80470D01*
X46165Y80436D01*
X46276Y80400D01*
X46282Y80400D01*
X46288Y80398D01*
X46405Y80401D01*
X46522Y80402D01*
X46529Y80404D01*
X46534Y80404D01*
X46551Y80410D01*
X46683Y80449D01*
X47827Y80923D01*
X52173Y80923D01*
X56187Y79260D01*
X59260Y76187D01*
X60923Y72173D01*
X60923Y67827D01*
X59260Y63813D01*
X56187Y60740D01*
X52173Y59077D01*
X47827Y59077D01*
G37*
%LPD*%
%LPC*%
G36*
X961001Y105519D02*
X961001Y105519D01*
X955274Y107891D01*
X950891Y112274D01*
X950449Y113341D01*
X950415Y113397D01*
X950389Y113457D01*
X950337Y113522D01*
X950320Y113550D01*
X950305Y113563D01*
X950284Y113588D01*
X918076Y145796D01*
X918002Y145849D01*
X917933Y145909D01*
X917903Y145921D01*
X917877Y145940D01*
X917790Y145967D01*
X917705Y146001D01*
X917664Y146005D01*
X917641Y146012D01*
X917609Y146011D01*
X917538Y146019D01*
X689650Y146019D01*
X684107Y148315D01*
X626526Y205896D01*
X626452Y205949D01*
X626383Y206009D01*
X626353Y206021D01*
X626327Y206040D01*
X626240Y206067D01*
X626155Y206101D01*
X626114Y206105D01*
X626091Y206112D01*
X626059Y206111D01*
X625988Y206119D01*
X615045Y206119D01*
X612069Y209095D01*
X612069Y238705D01*
X615045Y241681D01*
X644655Y241681D01*
X647631Y238705D01*
X647631Y227762D01*
X647645Y227672D01*
X647653Y227581D01*
X647665Y227551D01*
X647670Y227519D01*
X647713Y227439D01*
X647749Y227355D01*
X647775Y227323D01*
X647786Y227302D01*
X647809Y227280D01*
X647854Y227224D01*
X674326Y200752D01*
X674384Y200710D01*
X674436Y200660D01*
X674483Y200638D01*
X674525Y200608D01*
X674594Y200587D01*
X674659Y200557D01*
X674711Y200551D01*
X674761Y200536D01*
X674832Y200538D01*
X674903Y200530D01*
X674954Y200541D01*
X675006Y200542D01*
X675074Y200567D01*
X675144Y200582D01*
X675189Y200609D01*
X675237Y200627D01*
X675293Y200671D01*
X675355Y200708D01*
X675389Y200748D01*
X675429Y200780D01*
X675468Y200841D01*
X675515Y200895D01*
X675534Y200943D01*
X675562Y200987D01*
X675580Y201057D01*
X675607Y201123D01*
X675615Y201195D01*
X675623Y201226D01*
X675621Y201249D01*
X675625Y201290D01*
X675625Y206729D01*
X677791Y211958D01*
X681792Y215959D01*
X687021Y218125D01*
X692679Y218125D01*
X697908Y215959D01*
X701909Y211958D01*
X704075Y206729D01*
X704075Y201071D01*
X701909Y195842D01*
X697908Y191841D01*
X692679Y189675D01*
X687240Y189675D01*
X687169Y189664D01*
X687097Y189662D01*
X687049Y189644D01*
X686997Y189636D01*
X686934Y189602D01*
X686866Y189577D01*
X686826Y189545D01*
X686780Y189520D01*
X686730Y189468D01*
X686674Y189424D01*
X686646Y189380D01*
X686610Y189342D01*
X686580Y189277D01*
X686541Y189217D01*
X686529Y189166D01*
X686507Y189119D01*
X686499Y189048D01*
X686481Y188978D01*
X686485Y188926D01*
X686480Y188875D01*
X686495Y188804D01*
X686501Y188733D01*
X686521Y188685D01*
X686532Y188634D01*
X686569Y188573D01*
X686597Y188507D01*
X686642Y188451D01*
X686658Y188423D01*
X686676Y188408D01*
X686702Y188376D01*
X698674Y176404D01*
X698748Y176351D01*
X698817Y176291D01*
X698847Y176279D01*
X698873Y176260D01*
X698960Y176233D01*
X699045Y176199D01*
X699086Y176195D01*
X699109Y176188D01*
X699141Y176189D01*
X699212Y176181D01*
X927100Y176181D01*
X932643Y173885D01*
X971612Y134916D01*
X971665Y134878D01*
X971712Y134832D01*
X971785Y134791D01*
X971811Y134772D01*
X971830Y134767D01*
X971859Y134751D01*
X972926Y134309D01*
X977309Y129926D01*
X979681Y124199D01*
X979681Y118001D01*
X977309Y112274D01*
X972926Y107891D01*
X967199Y105519D01*
X961001Y105519D01*
G37*
%LPD*%
%LPC*%
G36*
X43027Y724377D02*
X43027Y724377D01*
X39013Y726040D01*
X35940Y729113D01*
X34277Y733127D01*
X34277Y737473D01*
X35940Y741487D01*
X39013Y744560D01*
X43027Y746223D01*
X47373Y746223D01*
X51387Y744560D01*
X54460Y741487D01*
X54934Y740343D01*
X54996Y740243D01*
X55055Y740143D01*
X55060Y740139D01*
X55064Y740134D01*
X55154Y740059D01*
X55242Y739983D01*
X55248Y739981D01*
X55253Y739977D01*
X55361Y739935D01*
X55471Y739891D01*
X55478Y739890D01*
X55483Y739889D01*
X55501Y739888D01*
X55637Y739873D01*
X160391Y739873D01*
X160481Y739887D01*
X160572Y739895D01*
X160601Y739907D01*
X160633Y739912D01*
X160714Y739955D01*
X160798Y739991D01*
X160830Y740017D01*
X160851Y740028D01*
X160873Y740051D01*
X160929Y740096D01*
X170758Y749925D01*
X170826Y750020D01*
X170896Y750114D01*
X170898Y750120D01*
X170902Y750125D01*
X170936Y750236D01*
X170972Y750348D01*
X170972Y750354D01*
X170974Y750360D01*
X170971Y750477D01*
X170970Y750594D01*
X170968Y750601D01*
X170968Y750606D01*
X170961Y750623D01*
X170923Y750755D01*
X170747Y751180D01*
X170747Y755020D01*
X172217Y758568D01*
X174713Y761064D01*
X174755Y761122D01*
X174804Y761174D01*
X174826Y761221D01*
X174856Y761263D01*
X174877Y761332D01*
X174908Y761397D01*
X174913Y761449D01*
X174929Y761499D01*
X174927Y761570D01*
X174935Y761641D01*
X174924Y761692D01*
X174922Y761744D01*
X174898Y761812D01*
X174882Y761882D01*
X174856Y761927D01*
X174838Y761975D01*
X174793Y762031D01*
X174756Y762093D01*
X174717Y762127D01*
X174684Y762167D01*
X174624Y762206D01*
X174569Y762253D01*
X174521Y762272D01*
X174477Y762300D01*
X174408Y762318D01*
X174341Y762345D01*
X174270Y762353D01*
X174239Y762361D01*
X174215Y762359D01*
X174174Y762363D01*
X161179Y762363D01*
X161134Y762356D01*
X161088Y762358D01*
X161013Y762336D01*
X160936Y762324D01*
X160896Y762302D01*
X160851Y762289D01*
X160787Y762245D01*
X160719Y762208D01*
X160687Y762175D01*
X160649Y762149D01*
X160603Y762086D01*
X160549Y762030D01*
X160530Y761988D01*
X160503Y761952D01*
X160479Y761878D01*
X160446Y761807D01*
X160441Y761761D01*
X160426Y761718D01*
X160427Y761640D01*
X160419Y761563D01*
X160428Y761518D01*
X160429Y761472D01*
X160467Y761341D01*
X160471Y761322D01*
X160474Y761318D01*
X160476Y761311D01*
X160823Y760473D01*
X160823Y756127D01*
X159160Y752113D01*
X156087Y749040D01*
X152073Y747377D01*
X147727Y747377D01*
X143713Y749040D01*
X140640Y752113D01*
X139031Y755999D01*
X139006Y756038D01*
X138991Y756081D01*
X138942Y756142D01*
X138901Y756208D01*
X138866Y756237D01*
X138837Y756273D01*
X138771Y756315D01*
X138711Y756365D01*
X138669Y756381D01*
X138630Y756406D01*
X138554Y756425D01*
X138482Y756453D01*
X138436Y756455D01*
X138391Y756466D01*
X138314Y756460D01*
X138236Y756463D01*
X138192Y756450D01*
X138146Y756447D01*
X138075Y756416D01*
X138000Y756395D01*
X137962Y756369D01*
X137920Y756351D01*
X137813Y756265D01*
X137798Y756255D01*
X137795Y756250D01*
X137789Y756246D01*
X135270Y753727D01*
X84137Y753727D01*
X84022Y753708D01*
X83906Y753691D01*
X83901Y753689D01*
X83894Y753688D01*
X83792Y753633D01*
X83687Y753580D01*
X83683Y753575D01*
X83677Y753572D01*
X83597Y753488D01*
X83515Y753404D01*
X83511Y753398D01*
X83508Y753394D01*
X83500Y753377D01*
X83434Y753257D01*
X82960Y752113D01*
X79887Y749040D01*
X75873Y747377D01*
X71527Y747377D01*
X67513Y749040D01*
X64440Y752113D01*
X63966Y753257D01*
X63904Y753357D01*
X63845Y753457D01*
X63840Y753461D01*
X63836Y753466D01*
X63746Y753541D01*
X63658Y753617D01*
X63652Y753619D01*
X63647Y753623D01*
X63539Y753665D01*
X63429Y753709D01*
X63422Y753710D01*
X63417Y753711D01*
X63399Y753712D01*
X63263Y753727D01*
X53990Y753727D01*
X53900Y753713D01*
X53809Y753705D01*
X53779Y753693D01*
X53747Y753688D01*
X53666Y753645D01*
X53582Y753609D01*
X53550Y753583D01*
X53530Y753572D01*
X53507Y753549D01*
X53451Y753504D01*
X51387Y751440D01*
X47373Y749777D01*
X43027Y749777D01*
X39013Y751440D01*
X35940Y754513D01*
X34277Y758527D01*
X34277Y762873D01*
X35940Y766887D01*
X39013Y769960D01*
X43027Y771623D01*
X47373Y771623D01*
X51387Y769960D01*
X54460Y766887D01*
X55928Y763343D01*
X55990Y763243D01*
X56050Y763143D01*
X56054Y763139D01*
X56058Y763134D01*
X56147Y763059D01*
X56236Y762983D01*
X56242Y762981D01*
X56247Y762977D01*
X56355Y762935D01*
X56465Y762891D01*
X56472Y762890D01*
X56477Y762889D01*
X56495Y762888D01*
X56631Y762873D01*
X63263Y762873D01*
X63378Y762892D01*
X63494Y762909D01*
X63499Y762911D01*
X63506Y762912D01*
X63608Y762967D01*
X63713Y763020D01*
X63717Y763025D01*
X63723Y763028D01*
X63803Y763112D01*
X63885Y763196D01*
X63889Y763202D01*
X63892Y763206D01*
X63900Y763223D01*
X63966Y763343D01*
X64440Y764487D01*
X67513Y767560D01*
X71527Y769223D01*
X75873Y769223D01*
X79887Y767560D01*
X82960Y764487D01*
X83434Y763343D01*
X83496Y763243D01*
X83555Y763143D01*
X83560Y763139D01*
X83564Y763134D01*
X83654Y763059D01*
X83742Y762983D01*
X83748Y762981D01*
X83753Y762977D01*
X83861Y762935D01*
X83971Y762891D01*
X83978Y762890D01*
X83983Y762889D01*
X84001Y762888D01*
X84137Y762873D01*
X131167Y762873D01*
X131257Y762887D01*
X131348Y762895D01*
X131378Y762907D01*
X131410Y762912D01*
X131490Y762955D01*
X131574Y762991D01*
X131606Y763017D01*
X131627Y763028D01*
X131649Y763051D01*
X131705Y763096D01*
X148837Y780228D01*
X148879Y780286D01*
X148928Y780338D01*
X148950Y780385D01*
X148981Y780427D01*
X149002Y780496D01*
X149032Y780561D01*
X149038Y780613D01*
X149053Y780663D01*
X149051Y780734D01*
X149059Y780805D01*
X149048Y780856D01*
X149047Y780908D01*
X149022Y780976D01*
X149007Y781046D01*
X148980Y781091D01*
X148962Y781139D01*
X148917Y781195D01*
X148881Y781257D01*
X148841Y781291D01*
X148809Y781331D01*
X148748Y781370D01*
X148694Y781417D01*
X148645Y781436D01*
X148602Y781464D01*
X148532Y781482D01*
X148466Y781509D01*
X148394Y781517D01*
X148363Y781525D01*
X148340Y781523D01*
X148299Y781527D01*
X55637Y781527D01*
X55522Y781508D01*
X55406Y781491D01*
X55401Y781489D01*
X55394Y781488D01*
X55292Y781433D01*
X55187Y781380D01*
X55183Y781375D01*
X55177Y781372D01*
X55097Y781288D01*
X55015Y781204D01*
X55011Y781198D01*
X55008Y781194D01*
X55000Y781177D01*
X54934Y781057D01*
X54460Y779913D01*
X51387Y776840D01*
X47373Y775177D01*
X43027Y775177D01*
X39013Y776840D01*
X35940Y779913D01*
X34277Y783927D01*
X34277Y788273D01*
X35940Y792287D01*
X39013Y795360D01*
X40157Y795834D01*
X40254Y795894D01*
X40315Y795926D01*
X40325Y795936D01*
X40357Y795955D01*
X40361Y795960D01*
X40366Y795964D01*
X40441Y796054D01*
X40484Y796104D01*
X40485Y796105D01*
X40517Y796142D01*
X40519Y796148D01*
X40523Y796153D01*
X40565Y796261D01*
X40609Y796371D01*
X40610Y796378D01*
X40611Y796383D01*
X40612Y796401D01*
X40627Y796537D01*
X40627Y846194D01*
X43697Y849264D01*
X43750Y849338D01*
X43810Y849408D01*
X43822Y849438D01*
X43841Y849464D01*
X43868Y849551D01*
X43902Y849636D01*
X43906Y849677D01*
X43913Y849699D01*
X43912Y849731D01*
X43920Y849802D01*
X43920Y861687D01*
X44813Y862580D01*
X62587Y862580D01*
X63480Y861687D01*
X63480Y843913D01*
X62587Y843020D01*
X50702Y843020D01*
X50612Y843006D01*
X50521Y842998D01*
X50492Y842986D01*
X50460Y842981D01*
X50379Y842938D01*
X50295Y842902D01*
X50263Y842876D01*
X50242Y842865D01*
X50220Y842842D01*
X50164Y842797D01*
X49996Y842629D01*
X49943Y842555D01*
X49883Y842485D01*
X49871Y842455D01*
X49852Y842429D01*
X49825Y842342D01*
X49791Y842257D01*
X49787Y842216D01*
X49780Y842194D01*
X49781Y842162D01*
X49773Y842091D01*
X49773Y796537D01*
X49792Y796422D01*
X49809Y796306D01*
X49811Y796301D01*
X49812Y796294D01*
X49867Y796192D01*
X49920Y796087D01*
X49925Y796083D01*
X49928Y796077D01*
X49961Y796045D01*
X49963Y796042D01*
X49980Y796027D01*
X50012Y795997D01*
X50096Y795915D01*
X50102Y795911D01*
X50106Y795908D01*
X50123Y795900D01*
X50140Y795890D01*
X50150Y795882D01*
X50171Y795874D01*
X50243Y795834D01*
X51387Y795360D01*
X54460Y792287D01*
X54934Y791143D01*
X54996Y791043D01*
X55055Y790943D01*
X55060Y790939D01*
X55064Y790934D01*
X55154Y790859D01*
X55242Y790783D01*
X55248Y790781D01*
X55253Y790777D01*
X55361Y790735D01*
X55471Y790691D01*
X55478Y790690D01*
X55483Y790689D01*
X55501Y790688D01*
X55637Y790673D01*
X171063Y790673D01*
X171153Y790687D01*
X171244Y790695D01*
X171274Y790707D01*
X171306Y790712D01*
X171386Y790755D01*
X171470Y790791D01*
X171502Y790817D01*
X171523Y790828D01*
X171545Y790851D01*
X171601Y790896D01*
X174192Y793487D01*
X177519Y793487D01*
X177609Y793501D01*
X177700Y793509D01*
X177729Y793521D01*
X177761Y793526D01*
X177842Y793569D01*
X177926Y793605D01*
X177958Y793631D01*
X177979Y793642D01*
X177980Y793642D01*
X177980Y793643D01*
X178001Y793665D01*
X178057Y793710D01*
X186018Y801671D01*
X186071Y801745D01*
X186131Y801815D01*
X186143Y801845D01*
X186162Y801871D01*
X186189Y801958D01*
X186223Y802043D01*
X186227Y802084D01*
X186234Y802106D01*
X186233Y802138D01*
X186241Y802209D01*
X186241Y847436D01*
X186231Y847501D01*
X186230Y847566D01*
X186207Y847647D01*
X186202Y847679D01*
X186192Y847696D01*
X186183Y847728D01*
X185755Y848761D01*
X185755Y867639D01*
X187147Y871000D01*
X189720Y873573D01*
X193081Y874965D01*
X196719Y874965D01*
X200080Y873573D01*
X202653Y871000D01*
X204045Y867639D01*
X204045Y848761D01*
X202653Y845400D01*
X200080Y842827D01*
X196719Y841435D01*
X196148Y841435D01*
X196128Y841432D01*
X196109Y841434D01*
X196007Y841412D01*
X195905Y841396D01*
X195888Y841386D01*
X195868Y841382D01*
X195779Y841329D01*
X195688Y841280D01*
X195674Y841266D01*
X195657Y841256D01*
X195590Y841177D01*
X195518Y841102D01*
X195510Y841084D01*
X195497Y841069D01*
X195458Y840973D01*
X195415Y840879D01*
X195413Y840859D01*
X195405Y840841D01*
X195387Y840674D01*
X195387Y772292D01*
X192485Y769391D01*
X185620Y762525D01*
X185593Y762488D01*
X185559Y762457D01*
X185521Y762389D01*
X185476Y762325D01*
X185463Y762282D01*
X185440Y762241D01*
X185427Y762165D01*
X185404Y762090D01*
X185405Y762044D01*
X185397Y761999D01*
X185408Y761922D01*
X185410Y761845D01*
X185426Y761801D01*
X185433Y761756D01*
X185468Y761687D01*
X185495Y761614D01*
X185523Y761578D01*
X185544Y761537D01*
X185600Y761482D01*
X185648Y761421D01*
X185687Y761397D01*
X185720Y761364D01*
X185839Y761299D01*
X185855Y761288D01*
X185860Y761287D01*
X185867Y761284D01*
X185868Y761283D01*
X188583Y758568D01*
X190053Y755020D01*
X190053Y751180D01*
X188583Y747632D01*
X185868Y744917D01*
X182320Y743447D01*
X178480Y743447D01*
X178055Y743623D01*
X177942Y743650D01*
X177828Y743679D01*
X177821Y743678D01*
X177815Y743680D01*
X177699Y743669D01*
X177582Y743659D01*
X177577Y743657D01*
X177570Y743656D01*
X177463Y743608D01*
X177356Y743563D01*
X177350Y743559D01*
X177346Y743556D01*
X177332Y743544D01*
X177225Y743458D01*
X164494Y730727D01*
X55637Y730727D01*
X55522Y730708D01*
X55406Y730691D01*
X55401Y730689D01*
X55394Y730688D01*
X55292Y730633D01*
X55187Y730580D01*
X55183Y730575D01*
X55177Y730572D01*
X55097Y730488D01*
X55015Y730404D01*
X55011Y730398D01*
X55008Y730394D01*
X55000Y730377D01*
X54934Y730257D01*
X54460Y729113D01*
X51387Y726040D01*
X47373Y724377D01*
X43027Y724377D01*
G37*
%LPD*%
%LPC*%
G36*
X100040Y522786D02*
X100040Y522786D01*
X97138Y525688D01*
X90367Y532459D01*
X90350Y532471D01*
X90338Y532487D01*
X90251Y532543D01*
X90167Y532603D01*
X90148Y532609D01*
X90131Y532620D01*
X90030Y532645D01*
X89932Y532675D01*
X89912Y532675D01*
X89892Y532680D01*
X89790Y532672D01*
X89686Y532669D01*
X89667Y532662D01*
X89647Y532661D01*
X89552Y532620D01*
X89455Y532584D01*
X89439Y532572D01*
X89421Y532564D01*
X89290Y532459D01*
X86440Y529609D01*
X82845Y528120D01*
X78955Y528120D01*
X75360Y529609D01*
X72609Y532360D01*
X71120Y535955D01*
X71120Y539845D01*
X71326Y540342D01*
X71353Y540455D01*
X71381Y540570D01*
X71381Y540576D01*
X71382Y540582D01*
X71371Y540698D01*
X71362Y540815D01*
X71360Y540820D01*
X71359Y540827D01*
X71311Y540935D01*
X71266Y541041D01*
X71261Y541047D01*
X71259Y541051D01*
X71246Y541066D01*
X71161Y541172D01*
X53770Y558563D01*
X53754Y558575D01*
X53741Y558590D01*
X53654Y558646D01*
X53570Y558707D01*
X53551Y558712D01*
X53534Y558723D01*
X53434Y558749D01*
X53335Y558779D01*
X53315Y558778D01*
X53296Y558783D01*
X53193Y558775D01*
X53089Y558773D01*
X53071Y558766D01*
X53051Y558764D01*
X52956Y558724D01*
X52858Y558688D01*
X52843Y558676D01*
X52824Y558668D01*
X52764Y558619D01*
X49145Y557120D01*
X45255Y557120D01*
X41660Y558609D01*
X38909Y561360D01*
X37420Y564955D01*
X37420Y568845D01*
X38909Y572440D01*
X41660Y575191D01*
X45255Y576680D01*
X49145Y576680D01*
X52740Y575191D01*
X55491Y572440D01*
X56980Y568845D01*
X56980Y568602D01*
X56994Y568512D01*
X57002Y568421D01*
X57014Y568392D01*
X57019Y568360D01*
X57062Y568279D01*
X57098Y568195D01*
X57124Y568163D01*
X57135Y568142D01*
X57158Y568120D01*
X57203Y568064D01*
X77628Y547639D01*
X77722Y547571D01*
X77817Y547501D01*
X77823Y547499D01*
X77828Y547495D01*
X77939Y547461D01*
X78051Y547425D01*
X78057Y547425D01*
X78063Y547423D01*
X78180Y547426D01*
X78296Y547427D01*
X78304Y547429D01*
X78309Y547429D01*
X78326Y547436D01*
X78458Y547474D01*
X78955Y547680D01*
X82845Y547680D01*
X86440Y546191D01*
X89191Y543440D01*
X89397Y542943D01*
X89459Y542843D01*
X89518Y542743D01*
X89523Y542739D01*
X89526Y542734D01*
X89617Y542659D01*
X89705Y542583D01*
X89711Y542581D01*
X89716Y542577D01*
X89824Y542535D01*
X89933Y542491D01*
X89941Y542490D01*
X89945Y542489D01*
X89964Y542488D01*
X90100Y542473D01*
X93287Y542473D01*
X94784Y540975D01*
X94846Y540931D01*
X94901Y540880D01*
X94916Y540873D01*
X94927Y540863D01*
X94957Y540851D01*
X94984Y540832D01*
X95056Y540810D01*
X95125Y540778D01*
X95142Y540777D01*
X95155Y540771D01*
X95195Y540767D01*
X95219Y540759D01*
X95253Y540760D01*
X95322Y540753D01*
X95323Y540753D01*
X95345Y540756D01*
X95370Y540754D01*
X95417Y540765D01*
X95465Y540766D01*
X95515Y540784D01*
X95565Y540792D01*
X95586Y540803D01*
X95610Y540809D01*
X95651Y540834D01*
X95696Y540850D01*
X95738Y540884D01*
X95783Y540908D01*
X95799Y540924D01*
X95819Y540937D01*
X95850Y540974D01*
X95888Y541004D01*
X95916Y541048D01*
X95952Y541086D01*
X95962Y541107D01*
X95977Y541126D01*
X96004Y541185D01*
X96021Y541211D01*
X96027Y541236D01*
X96046Y541278D01*
X96295Y542044D01*
X97067Y543558D01*
X98066Y544933D01*
X99267Y546134D01*
X100642Y547133D01*
X102156Y547905D01*
X103772Y548430D01*
X104777Y548589D01*
X104777Y538662D01*
X104780Y538642D01*
X104778Y538623D01*
X104800Y538521D01*
X104817Y538419D01*
X104826Y538402D01*
X104830Y538382D01*
X104883Y538293D01*
X104932Y538202D01*
X104946Y538188D01*
X104956Y538171D01*
X105035Y538104D01*
X105110Y538033D01*
X105128Y538024D01*
X105143Y538011D01*
X105239Y537973D01*
X105333Y537929D01*
X105353Y537927D01*
X105371Y537919D01*
X105538Y537901D01*
X106301Y537901D01*
X106301Y537138D01*
X106304Y537118D01*
X106302Y537099D01*
X106324Y536997D01*
X106341Y536895D01*
X106350Y536878D01*
X106354Y536858D01*
X106407Y536769D01*
X106456Y536678D01*
X106470Y536664D01*
X106480Y536647D01*
X106559Y536580D01*
X106634Y536509D01*
X106652Y536500D01*
X106667Y536487D01*
X106763Y536448D01*
X106857Y536405D01*
X106877Y536403D01*
X106895Y536395D01*
X107062Y536377D01*
X116989Y536377D01*
X116830Y535372D01*
X116305Y533756D01*
X115939Y533039D01*
X115916Y532967D01*
X115884Y532898D01*
X115879Y532850D01*
X115865Y532804D01*
X115866Y532729D01*
X115857Y532654D01*
X115868Y532606D01*
X115868Y532558D01*
X115894Y532487D01*
X115910Y532413D01*
X115934Y532372D01*
X115950Y532326D01*
X115997Y532267D01*
X116036Y532202D01*
X116072Y532171D01*
X116102Y532133D01*
X116165Y532091D01*
X116223Y532042D01*
X116267Y532024D01*
X116308Y531998D01*
X116381Y531979D01*
X116451Y531950D01*
X116516Y531943D01*
X116545Y531935D01*
X116571Y531937D01*
X116618Y531932D01*
X155650Y531932D01*
X155740Y531946D01*
X155831Y531954D01*
X155860Y531966D01*
X155892Y531971D01*
X155973Y532014D01*
X156057Y532050D01*
X156089Y532076D01*
X156110Y532087D01*
X156132Y532110D01*
X156188Y532155D01*
X170758Y546725D01*
X170826Y546820D01*
X170896Y546914D01*
X170898Y546920D01*
X170902Y546925D01*
X170936Y547035D01*
X170972Y547148D01*
X170972Y547154D01*
X170974Y547160D01*
X170971Y547277D01*
X170970Y547394D01*
X170968Y547401D01*
X170968Y547406D01*
X170962Y547423D01*
X170923Y547555D01*
X170747Y547980D01*
X170747Y551820D01*
X172217Y555368D01*
X174932Y558083D01*
X178480Y559553D01*
X182320Y559553D01*
X185868Y558083D01*
X188583Y555368D01*
X190053Y551820D01*
X190053Y547980D01*
X188583Y544432D01*
X185868Y541717D01*
X182320Y540247D01*
X178480Y540247D01*
X178055Y540423D01*
X177941Y540450D01*
X177828Y540479D01*
X177821Y540478D01*
X177815Y540480D01*
X177699Y540469D01*
X177582Y540459D01*
X177577Y540457D01*
X177570Y540456D01*
X177463Y540409D01*
X177356Y540363D01*
X177350Y540359D01*
X177346Y540356D01*
X177332Y540344D01*
X177225Y540258D01*
X159753Y522786D01*
X100040Y522786D01*
G37*
%LPD*%
%LPC*%
G36*
X32627Y444877D02*
X32627Y444877D01*
X28613Y446540D01*
X25540Y449613D01*
X23877Y453627D01*
X23877Y457973D01*
X25540Y461987D01*
X28613Y465060D01*
X32627Y466723D01*
X36973Y466723D01*
X38117Y466249D01*
X38231Y466222D01*
X38344Y466193D01*
X38351Y466194D01*
X38357Y466192D01*
X38473Y466203D01*
X38590Y466213D01*
X38595Y466215D01*
X38602Y466216D01*
X38710Y466264D01*
X38816Y466309D01*
X38822Y466313D01*
X38826Y466316D01*
X38840Y466328D01*
X38947Y466414D01*
X88515Y515982D01*
X91417Y518884D01*
X146912Y518884D01*
X147002Y518898D01*
X147093Y518906D01*
X147123Y518918D01*
X147155Y518923D01*
X147236Y518966D01*
X147319Y519002D01*
X147352Y519028D01*
X147372Y519039D01*
X147394Y519062D01*
X147408Y519073D01*
X168191Y519073D01*
X168281Y519087D01*
X168372Y519095D01*
X168401Y519107D01*
X168433Y519112D01*
X168514Y519155D01*
X168598Y519191D01*
X168630Y519217D01*
X168651Y519228D01*
X168673Y519251D01*
X168729Y519296D01*
X170758Y521325D01*
X170827Y521420D01*
X170896Y521514D01*
X170898Y521520D01*
X170902Y521525D01*
X170936Y521636D01*
X170972Y521748D01*
X170972Y521754D01*
X170974Y521760D01*
X170971Y521876D01*
X170970Y521994D01*
X170968Y522001D01*
X170968Y522006D01*
X170962Y522023D01*
X170923Y522155D01*
X170747Y522580D01*
X170747Y526420D01*
X172217Y529968D01*
X174932Y532683D01*
X178480Y534153D01*
X182320Y534153D01*
X185868Y532683D01*
X188583Y529968D01*
X190053Y526420D01*
X190053Y522580D01*
X188583Y519032D01*
X185868Y516317D01*
X182320Y514847D01*
X178480Y514847D01*
X178055Y515023D01*
X177941Y515050D01*
X177828Y515079D01*
X177821Y515078D01*
X177815Y515080D01*
X177699Y515069D01*
X177582Y515059D01*
X177577Y515057D01*
X177570Y515056D01*
X177463Y515009D01*
X177356Y514963D01*
X177350Y514958D01*
X177346Y514956D01*
X177332Y514944D01*
X177225Y514858D01*
X175196Y512829D01*
X172294Y509927D01*
X151520Y509927D01*
X151430Y509913D01*
X151339Y509905D01*
X151309Y509893D01*
X151277Y509888D01*
X151197Y509845D01*
X151113Y509809D01*
X151081Y509783D01*
X151060Y509772D01*
X151038Y509749D01*
X151024Y509738D01*
X95520Y509738D01*
X95430Y509724D01*
X95339Y509716D01*
X95310Y509704D01*
X95278Y509699D01*
X95197Y509656D01*
X95113Y509620D01*
X95081Y509594D01*
X95060Y509583D01*
X95038Y509560D01*
X94982Y509515D01*
X45414Y459947D01*
X45345Y459852D01*
X45276Y459758D01*
X45274Y459752D01*
X45270Y459747D01*
X45236Y459636D01*
X45200Y459524D01*
X45200Y459518D01*
X45198Y459512D01*
X45201Y459395D01*
X45202Y459278D01*
X45204Y459271D01*
X45204Y459266D01*
X45210Y459249D01*
X45249Y459117D01*
X45723Y457973D01*
X45723Y453627D01*
X44060Y449613D01*
X40987Y446540D01*
X36973Y444877D01*
X32627Y444877D01*
G37*
%LPD*%
%LPC*%
G36*
X32627Y419477D02*
X32627Y419477D01*
X28613Y421140D01*
X25540Y424213D01*
X23877Y428227D01*
X23877Y432573D01*
X25540Y436587D01*
X28613Y439660D01*
X32627Y441323D01*
X36973Y441323D01*
X38117Y440849D01*
X38231Y440822D01*
X38344Y440793D01*
X38351Y440794D01*
X38357Y440792D01*
X38473Y440803D01*
X38590Y440813D01*
X38595Y440815D01*
X38602Y440816D01*
X38710Y440864D01*
X38816Y440909D01*
X38822Y440913D01*
X38826Y440916D01*
X38840Y440928D01*
X38947Y441014D01*
X98704Y500771D01*
X101606Y503673D01*
X171337Y503673D01*
X171452Y503692D01*
X171568Y503709D01*
X171574Y503711D01*
X171580Y503712D01*
X171683Y503767D01*
X171788Y503820D01*
X171792Y503825D01*
X171798Y503828D01*
X171877Y503912D01*
X171960Y503996D01*
X171963Y504002D01*
X171967Y504006D01*
X171975Y504023D01*
X172041Y504143D01*
X172217Y504568D01*
X174932Y507283D01*
X178480Y508753D01*
X182320Y508753D01*
X185868Y507283D01*
X188583Y504568D01*
X190053Y501020D01*
X190053Y497180D01*
X188583Y493632D01*
X185868Y490917D01*
X182320Y489447D01*
X178480Y489447D01*
X174932Y490917D01*
X172217Y493632D01*
X172041Y494057D01*
X171979Y494157D01*
X171919Y494257D01*
X171914Y494261D01*
X171911Y494266D01*
X171821Y494341D01*
X171732Y494417D01*
X171726Y494419D01*
X171722Y494423D01*
X171614Y494465D01*
X171504Y494509D01*
X171497Y494510D01*
X171492Y494511D01*
X171474Y494512D01*
X171337Y494527D01*
X105709Y494527D01*
X105619Y494513D01*
X105528Y494505D01*
X105499Y494493D01*
X105467Y494488D01*
X105386Y494445D01*
X105302Y494409D01*
X105270Y494383D01*
X105249Y494372D01*
X105227Y494349D01*
X105171Y494304D01*
X45414Y434547D01*
X45345Y434452D01*
X45276Y434358D01*
X45274Y434352D01*
X45270Y434347D01*
X45236Y434236D01*
X45200Y434124D01*
X45200Y434118D01*
X45198Y434112D01*
X45201Y433995D01*
X45202Y433878D01*
X45204Y433871D01*
X45204Y433866D01*
X45210Y433849D01*
X45249Y433717D01*
X45723Y432573D01*
X45723Y428227D01*
X44060Y424213D01*
X40987Y421140D01*
X36973Y419477D01*
X32627Y419477D01*
G37*
%LPD*%
%LPC*%
G36*
X976688Y814839D02*
X976688Y814839D01*
X970288Y816554D01*
X964551Y819866D01*
X959866Y824551D01*
X956554Y830288D01*
X954839Y836688D01*
X954839Y843312D01*
X956554Y849712D01*
X959866Y855449D01*
X964551Y860134D01*
X970288Y863446D01*
X976688Y865161D01*
X983312Y865161D01*
X989712Y863446D01*
X995449Y860134D01*
X1000134Y855449D01*
X1003446Y849712D01*
X1005161Y843312D01*
X1005161Y836688D01*
X1003446Y830288D01*
X1000134Y824551D01*
X995449Y819866D01*
X989712Y816554D01*
X983312Y814839D01*
X976688Y814839D01*
G37*
%LPD*%
%LPC*%
G36*
X856688Y254839D02*
X856688Y254839D01*
X850288Y256554D01*
X844551Y259866D01*
X839866Y264551D01*
X836554Y270288D01*
X834839Y276688D01*
X834839Y283312D01*
X836554Y289712D01*
X839866Y295449D01*
X844551Y300134D01*
X850288Y303446D01*
X856688Y305161D01*
X863312Y305161D01*
X869712Y303446D01*
X875449Y300134D01*
X880134Y295449D01*
X883446Y289712D01*
X885161Y283312D01*
X885161Y276688D01*
X883446Y270288D01*
X880134Y264551D01*
X875449Y259866D01*
X869712Y256554D01*
X863312Y254839D01*
X856688Y254839D01*
G37*
%LPD*%
%LPC*%
G36*
X536688Y434839D02*
X536688Y434839D01*
X530288Y436554D01*
X524551Y439866D01*
X519866Y444551D01*
X516554Y450288D01*
X514839Y456688D01*
X514839Y463312D01*
X516554Y469712D01*
X519866Y475449D01*
X524551Y480134D01*
X530288Y483446D01*
X536688Y485161D01*
X543312Y485161D01*
X549712Y483446D01*
X555449Y480134D01*
X560134Y475449D01*
X563446Y469712D01*
X565161Y463312D01*
X565161Y456688D01*
X563446Y450288D01*
X560134Y444551D01*
X555449Y439866D01*
X549712Y436554D01*
X543312Y434839D01*
X536688Y434839D01*
G37*
%LPD*%
%LPC*%
G36*
X136688Y334839D02*
X136688Y334839D01*
X130288Y336554D01*
X124551Y339866D01*
X119866Y344551D01*
X116554Y350288D01*
X114839Y356688D01*
X114839Y363312D01*
X116554Y369712D01*
X119866Y375449D01*
X124551Y380134D01*
X130288Y383446D01*
X136688Y385161D01*
X143312Y385161D01*
X149712Y383446D01*
X155449Y380134D01*
X160134Y375449D01*
X163446Y369712D01*
X165161Y363312D01*
X165161Y356688D01*
X163446Y350288D01*
X160134Y344551D01*
X155449Y339866D01*
X149712Y336554D01*
X143312Y334839D01*
X136688Y334839D01*
G37*
%LPD*%
%LPC*%
G36*
X178480Y565647D02*
X178480Y565647D01*
X174932Y567117D01*
X172217Y569832D01*
X172041Y570257D01*
X171979Y570356D01*
X171919Y570457D01*
X171914Y570461D01*
X171911Y570466D01*
X171822Y570540D01*
X171732Y570617D01*
X171726Y570619D01*
X171722Y570623D01*
X171614Y570665D01*
X171504Y570709D01*
X171497Y570710D01*
X171492Y570711D01*
X171474Y570712D01*
X171337Y570727D01*
X147806Y570727D01*
X144904Y573629D01*
X106172Y612361D01*
X106078Y612429D01*
X105983Y612499D01*
X105977Y612501D01*
X105972Y612505D01*
X105861Y612539D01*
X105749Y612575D01*
X105743Y612575D01*
X105737Y612577D01*
X105620Y612574D01*
X105504Y612573D01*
X105496Y612571D01*
X105491Y612571D01*
X105474Y612564D01*
X105342Y612526D01*
X104845Y612320D01*
X100955Y612320D01*
X99146Y613069D01*
X99083Y613084D01*
X99022Y613109D01*
X98939Y613118D01*
X98907Y613125D01*
X98888Y613124D01*
X98855Y613127D01*
X56400Y613127D01*
X56285Y613108D01*
X56169Y613091D01*
X56163Y613089D01*
X56157Y613088D01*
X56055Y613033D01*
X55950Y612980D01*
X55945Y612975D01*
X55940Y612972D01*
X55860Y612888D01*
X55778Y612804D01*
X55774Y612798D01*
X55771Y612794D01*
X55763Y612777D01*
X55697Y612657D01*
X55491Y612160D01*
X52740Y609409D01*
X49145Y607920D01*
X45255Y607920D01*
X41660Y609409D01*
X38909Y612160D01*
X37420Y615755D01*
X37420Y619645D01*
X38909Y623240D01*
X41660Y625991D01*
X45255Y627480D01*
X49145Y627480D01*
X52740Y625991D01*
X55491Y623240D01*
X55697Y622743D01*
X55759Y622643D01*
X55818Y622543D01*
X55823Y622539D01*
X55826Y622534D01*
X55917Y622459D01*
X56005Y622383D01*
X56011Y622381D01*
X56016Y622377D01*
X56124Y622335D01*
X56233Y622291D01*
X56241Y622290D01*
X56245Y622289D01*
X56264Y622288D01*
X56400Y622273D01*
X92359Y622273D01*
X92379Y622276D01*
X92398Y622274D01*
X92500Y622296D01*
X92602Y622312D01*
X92619Y622322D01*
X92639Y622326D01*
X92728Y622379D01*
X92819Y622428D01*
X92833Y622442D01*
X92850Y622452D01*
X92917Y622531D01*
X92989Y622606D01*
X92997Y622624D01*
X93010Y622639D01*
X93049Y622735D01*
X93092Y622829D01*
X93094Y622849D01*
X93102Y622867D01*
X93120Y623034D01*
X93120Y624045D01*
X94609Y627640D01*
X97360Y630391D01*
X100955Y631880D01*
X104845Y631880D01*
X108440Y630391D01*
X111191Y627640D01*
X112680Y624045D01*
X112680Y620155D01*
X112474Y619658D01*
X112447Y619544D01*
X112419Y619430D01*
X112419Y619424D01*
X112418Y619418D01*
X112429Y619302D01*
X112438Y619185D01*
X112440Y619180D01*
X112441Y619173D01*
X112489Y619065D01*
X112534Y618959D01*
X112539Y618953D01*
X112541Y618949D01*
X112554Y618934D01*
X112639Y618828D01*
X151371Y580096D01*
X151445Y580043D01*
X151515Y579983D01*
X151545Y579971D01*
X151571Y579952D01*
X151658Y579925D01*
X151743Y579891D01*
X151784Y579887D01*
X151806Y579880D01*
X151838Y579881D01*
X151909Y579873D01*
X171337Y579873D01*
X171452Y579891D01*
X171568Y579909D01*
X171574Y579911D01*
X171580Y579912D01*
X171683Y579967D01*
X171788Y580020D01*
X171792Y580025D01*
X171798Y580028D01*
X171878Y580112D01*
X171960Y580196D01*
X171963Y580202D01*
X171967Y580206D01*
X171975Y580223D01*
X172041Y580343D01*
X172217Y580768D01*
X174932Y583483D01*
X178480Y584953D01*
X182320Y584953D01*
X185868Y583483D01*
X188583Y580768D01*
X190053Y577220D01*
X190053Y573380D01*
X188583Y569832D01*
X185868Y567117D01*
X182320Y565647D01*
X178480Y565647D01*
G37*
%LPD*%
%LPC*%
G36*
X795254Y237240D02*
X795254Y237240D01*
X789255Y239725D01*
X784664Y244316D01*
X782180Y250314D01*
X782180Y279286D01*
X784664Y285284D01*
X789255Y289875D01*
X795254Y292360D01*
X801746Y292360D01*
X807745Y289875D01*
X812336Y285284D01*
X814820Y279286D01*
X814820Y250314D01*
X812336Y244316D01*
X807745Y239725D01*
X801746Y237240D01*
X795254Y237240D01*
G37*
%LPD*%
%LPC*%
G36*
X681454Y404740D02*
X681454Y404740D01*
X675455Y407225D01*
X670864Y411816D01*
X668380Y417814D01*
X668380Y446786D01*
X670864Y452784D01*
X675455Y457375D01*
X681454Y459860D01*
X687946Y459860D01*
X693945Y457375D01*
X698536Y452784D01*
X701020Y446786D01*
X701020Y417814D01*
X698536Y411816D01*
X693945Y407225D01*
X687946Y404740D01*
X681454Y404740D01*
G37*
%LPD*%
%LPC*%
G36*
X795254Y84840D02*
X795254Y84840D01*
X789255Y87325D01*
X784664Y91916D01*
X782180Y97914D01*
X782180Y126886D01*
X784664Y132884D01*
X789255Y137475D01*
X795254Y139960D01*
X801746Y139960D01*
X807745Y137475D01*
X812336Y132884D01*
X814820Y126886D01*
X814820Y97914D01*
X812336Y91916D01*
X807745Y87325D01*
X801746Y84840D01*
X795254Y84840D01*
G37*
%LPD*%
%LPC*%
G36*
X681454Y557140D02*
X681454Y557140D01*
X675455Y559625D01*
X670864Y564216D01*
X668380Y570214D01*
X668380Y599186D01*
X670864Y605184D01*
X675455Y609775D01*
X681454Y612260D01*
X687946Y612260D01*
X693945Y609775D01*
X698536Y605184D01*
X701020Y599186D01*
X701020Y570214D01*
X698536Y564216D01*
X693945Y559625D01*
X687946Y557140D01*
X681454Y557140D01*
G37*
%LPD*%
%LPC*%
G36*
X335045Y204819D02*
X335045Y204819D01*
X332069Y207795D01*
X332069Y237405D01*
X335045Y240381D01*
X364655Y240381D01*
X367631Y237405D01*
X367631Y207795D01*
X364655Y204819D01*
X335045Y204819D01*
G37*
%LPD*%
%LPC*%
G36*
X934563Y547969D02*
X934563Y547969D01*
X928028Y550676D01*
X923026Y555678D01*
X920319Y562213D01*
X920319Y569287D01*
X923026Y575822D01*
X928028Y580824D01*
X934563Y583531D01*
X941637Y583531D01*
X948172Y580824D01*
X953174Y575822D01*
X955881Y569287D01*
X955881Y562213D01*
X953174Y555678D01*
X948172Y550676D01*
X941637Y547969D01*
X934563Y547969D01*
G37*
%LPD*%
%LPC*%
G36*
X935863Y327969D02*
X935863Y327969D01*
X929328Y330676D01*
X924326Y335678D01*
X921619Y342213D01*
X921619Y349287D01*
X924326Y355822D01*
X929328Y360824D01*
X935863Y363531D01*
X942937Y363531D01*
X949472Y360824D01*
X954474Y355822D01*
X957181Y349287D01*
X957181Y342213D01*
X954474Y335678D01*
X949472Y330676D01*
X942937Y327969D01*
X935863Y327969D01*
G37*
%LPD*%
%LPC*%
G36*
X286313Y62819D02*
X286313Y62819D01*
X279778Y65526D01*
X274776Y70528D01*
X272069Y77063D01*
X272069Y84137D01*
X274776Y90672D01*
X279778Y95674D01*
X286313Y98381D01*
X293387Y98381D01*
X299922Y95674D01*
X304924Y90672D01*
X307631Y84137D01*
X307631Y77063D01*
X304924Y70528D01*
X299922Y65526D01*
X293387Y62819D01*
X286313Y62819D01*
G37*
%LPD*%
%LPC*%
G36*
X366974Y294079D02*
X366974Y294079D01*
X362306Y296013D01*
X358733Y299586D01*
X356799Y304254D01*
X356799Y324546D01*
X358733Y329214D01*
X362306Y332787D01*
X366974Y334721D01*
X372026Y334721D01*
X376694Y332787D01*
X380267Y329214D01*
X382201Y324546D01*
X382201Y304254D01*
X380267Y299586D01*
X376694Y296013D01*
X372026Y294079D01*
X366974Y294079D01*
G37*
%LPD*%
%LPC*%
G36*
X499974Y294079D02*
X499974Y294079D01*
X495306Y296013D01*
X491733Y299586D01*
X489799Y304254D01*
X489799Y324546D01*
X491733Y329214D01*
X495306Y332787D01*
X499974Y334721D01*
X505026Y334721D01*
X509694Y332787D01*
X513267Y329214D01*
X515201Y324546D01*
X515201Y304254D01*
X513267Y299586D01*
X509694Y296013D01*
X505026Y294079D01*
X499974Y294079D01*
G37*
%LPD*%
%LPC*%
G36*
X961001Y195519D02*
X961001Y195519D01*
X955274Y197891D01*
X950891Y202274D01*
X948519Y208001D01*
X948519Y214199D01*
X950891Y219926D01*
X955274Y224309D01*
X961001Y226681D01*
X967199Y226681D01*
X972926Y224309D01*
X977309Y219926D01*
X979681Y214199D01*
X979681Y208001D01*
X977309Y202274D01*
X972926Y197891D01*
X967199Y195519D01*
X961001Y195519D01*
G37*
%LPD*%
%LPC*%
G36*
X814571Y451525D02*
X814571Y451525D01*
X809342Y453691D01*
X805341Y457692D01*
X803175Y462921D01*
X803175Y468579D01*
X805341Y473808D01*
X809342Y477809D01*
X814571Y479975D01*
X820229Y479975D01*
X825458Y477809D01*
X829459Y473808D01*
X831625Y468579D01*
X831625Y462921D01*
X829459Y457692D01*
X825458Y453691D01*
X820229Y451525D01*
X814571Y451525D01*
G37*
%LPD*%
%LPC*%
G36*
X407021Y188375D02*
X407021Y188375D01*
X401792Y190541D01*
X397791Y194542D01*
X395625Y199771D01*
X395625Y205429D01*
X397791Y210658D01*
X401792Y214659D01*
X407021Y216825D01*
X412679Y216825D01*
X417908Y214659D01*
X421909Y210658D01*
X424075Y205429D01*
X424075Y199771D01*
X421909Y194542D01*
X417908Y190541D01*
X412679Y188375D01*
X407021Y188375D01*
G37*
%LPD*%
%LPC*%
G36*
X813271Y671525D02*
X813271Y671525D01*
X808042Y673691D01*
X804041Y677692D01*
X801875Y682921D01*
X801875Y688579D01*
X804041Y693808D01*
X808042Y697809D01*
X813271Y699975D01*
X818929Y699975D01*
X824158Y697809D01*
X828159Y693808D01*
X830325Y688579D01*
X830325Y682921D01*
X828159Y677692D01*
X824158Y673691D01*
X818929Y671525D01*
X813271Y671525D01*
G37*
%LPD*%
%LPC*%
G36*
X145127Y289077D02*
X145127Y289077D01*
X141113Y290740D01*
X138040Y293813D01*
X136377Y297827D01*
X136377Y302173D01*
X138040Y306187D01*
X141113Y309260D01*
X145127Y310923D01*
X149473Y310923D01*
X153487Y309260D01*
X156560Y306187D01*
X158223Y302173D01*
X158223Y297827D01*
X156560Y293813D01*
X153487Y290740D01*
X149473Y289077D01*
X145127Y289077D01*
G37*
%LPD*%
%LPC*%
G36*
X254680Y565647D02*
X254680Y565647D01*
X251132Y567117D01*
X248417Y569832D01*
X246947Y573380D01*
X246947Y577220D01*
X248417Y580768D01*
X251132Y583483D01*
X254680Y584953D01*
X258520Y584953D01*
X262068Y583483D01*
X264783Y580768D01*
X266253Y577220D01*
X266253Y573380D01*
X264783Y569832D01*
X262068Y567117D01*
X258520Y565647D01*
X254680Y565647D01*
G37*
%LPD*%
%LPC*%
G36*
X254680Y667247D02*
X254680Y667247D01*
X251132Y668717D01*
X248417Y671432D01*
X246947Y674980D01*
X246947Y678820D01*
X248417Y682368D01*
X251132Y685083D01*
X254680Y686553D01*
X258520Y686553D01*
X262068Y685083D01*
X264783Y682368D01*
X266253Y678820D01*
X266253Y674980D01*
X264783Y671432D01*
X262068Y668717D01*
X258520Y667247D01*
X254680Y667247D01*
G37*
%LPD*%
%LPC*%
G36*
X254680Y692647D02*
X254680Y692647D01*
X251132Y694117D01*
X248417Y696832D01*
X246947Y700380D01*
X246947Y704220D01*
X248417Y707768D01*
X251132Y710483D01*
X254680Y711953D01*
X258520Y711953D01*
X262068Y710483D01*
X264783Y707768D01*
X266253Y704220D01*
X266253Y700380D01*
X264783Y696832D01*
X262068Y694117D01*
X258520Y692647D01*
X254680Y692647D01*
G37*
%LPD*%
%LPC*%
G36*
X254680Y718047D02*
X254680Y718047D01*
X251132Y719517D01*
X248417Y722232D01*
X246947Y725780D01*
X246947Y729620D01*
X248417Y733168D01*
X251132Y735883D01*
X254680Y737353D01*
X258520Y737353D01*
X262068Y735883D01*
X264783Y733168D01*
X266253Y729620D01*
X266253Y725780D01*
X264783Y722232D01*
X262068Y719517D01*
X258520Y718047D01*
X254680Y718047D01*
G37*
%LPD*%
%LPC*%
G36*
X254680Y743447D02*
X254680Y743447D01*
X251132Y744917D01*
X248417Y747632D01*
X246947Y751180D01*
X246947Y755020D01*
X248417Y758568D01*
X251132Y761283D01*
X254680Y762753D01*
X258520Y762753D01*
X262068Y761283D01*
X264783Y758568D01*
X266253Y755020D01*
X266253Y751180D01*
X264783Y747632D01*
X262068Y744917D01*
X258520Y743447D01*
X254680Y743447D01*
G37*
%LPD*%
%LPC*%
G36*
X254680Y768847D02*
X254680Y768847D01*
X251132Y770317D01*
X248417Y773032D01*
X246947Y776580D01*
X246947Y780420D01*
X248417Y783968D01*
X251132Y786683D01*
X254680Y788153D01*
X258520Y788153D01*
X262068Y786683D01*
X264783Y783968D01*
X266253Y780420D01*
X266253Y776580D01*
X264783Y773032D01*
X262068Y770317D01*
X258520Y768847D01*
X254680Y768847D01*
G37*
%LPD*%
%LPC*%
G36*
X291373Y204123D02*
X291373Y204123D01*
X291373Y217789D01*
X293419Y217465D01*
X295700Y216724D01*
X297838Y215635D01*
X299779Y214225D01*
X301475Y212529D01*
X302885Y210588D01*
X303974Y208450D01*
X304715Y206169D01*
X305039Y204123D01*
X291373Y204123D01*
G37*
%LPD*%
%LPC*%
G36*
X817623Y567273D02*
X817623Y567273D01*
X817623Y580939D01*
X819669Y580615D01*
X821950Y579874D01*
X824088Y578785D01*
X826029Y577375D01*
X827725Y575679D01*
X829135Y573738D01*
X830224Y571600D01*
X830965Y569319D01*
X831289Y567273D01*
X817623Y567273D01*
G37*
%LPD*%
%LPC*%
G36*
X818923Y347273D02*
X818923Y347273D01*
X818923Y360939D01*
X820969Y360615D01*
X823250Y359874D01*
X825388Y358785D01*
X827329Y357375D01*
X829025Y355679D01*
X830435Y353738D01*
X831524Y351600D01*
X832265Y349319D01*
X832589Y347273D01*
X818923Y347273D01*
G37*
%LPD*%
%LPC*%
G36*
X571373Y205423D02*
X571373Y205423D01*
X571373Y219089D01*
X573419Y218765D01*
X575700Y218024D01*
X577838Y216935D01*
X579779Y215525D01*
X581475Y213829D01*
X582885Y211888D01*
X583974Y209750D01*
X584715Y207469D01*
X585039Y205423D01*
X571373Y205423D01*
G37*
%LPD*%
%LPC*%
G36*
X291373Y201077D02*
X291373Y201077D01*
X305039Y201077D01*
X304715Y199031D01*
X303974Y196750D01*
X302885Y194612D01*
X301475Y192671D01*
X299779Y190975D01*
X297838Y189565D01*
X295700Y188476D01*
X293419Y187735D01*
X291373Y187411D01*
X291373Y201077D01*
G37*
%LPD*%
%LPC*%
G36*
X802211Y347273D02*
X802211Y347273D01*
X802535Y349319D01*
X803276Y351600D01*
X804365Y353738D01*
X805775Y355679D01*
X807471Y357375D01*
X809412Y358785D01*
X811550Y359874D01*
X813831Y360615D01*
X815877Y360939D01*
X815877Y347273D01*
X802211Y347273D01*
G37*
%LPD*%
%LPC*%
G36*
X818923Y344227D02*
X818923Y344227D01*
X832589Y344227D01*
X832265Y342181D01*
X831524Y339900D01*
X830435Y337762D01*
X829025Y335821D01*
X827329Y334125D01*
X825388Y332715D01*
X823250Y331626D01*
X820969Y330885D01*
X818923Y330561D01*
X818923Y344227D01*
G37*
%LPD*%
%LPC*%
G36*
X554661Y205423D02*
X554661Y205423D01*
X554985Y207469D01*
X555726Y209750D01*
X556815Y211888D01*
X558225Y213829D01*
X559921Y215525D01*
X561862Y216935D01*
X564000Y218024D01*
X566281Y218765D01*
X568327Y219089D01*
X568327Y205423D01*
X554661Y205423D01*
G37*
%LPD*%
%LPC*%
G36*
X274661Y204123D02*
X274661Y204123D01*
X274985Y206169D01*
X275726Y208450D01*
X276815Y210588D01*
X278225Y212529D01*
X279921Y214225D01*
X281862Y215635D01*
X284000Y216724D01*
X286281Y217465D01*
X288327Y217789D01*
X288327Y204123D01*
X274661Y204123D01*
G37*
%LPD*%
%LPC*%
G36*
X571373Y202377D02*
X571373Y202377D01*
X585039Y202377D01*
X584715Y200331D01*
X583974Y198050D01*
X582885Y195912D01*
X581475Y193971D01*
X579779Y192275D01*
X577838Y190865D01*
X575700Y189776D01*
X573419Y189035D01*
X571373Y188711D01*
X571373Y202377D01*
G37*
%LPD*%
%LPC*%
G36*
X800911Y567273D02*
X800911Y567273D01*
X801235Y569319D01*
X801976Y571600D01*
X803065Y573738D01*
X804475Y575679D01*
X806171Y577375D01*
X808112Y578785D01*
X810250Y579874D01*
X812531Y580615D01*
X814577Y580939D01*
X814577Y567273D01*
X800911Y567273D01*
G37*
%LPD*%
%LPC*%
G36*
X817623Y564227D02*
X817623Y564227D01*
X831289Y564227D01*
X830965Y562181D01*
X830224Y559900D01*
X829135Y557762D01*
X827725Y555821D01*
X826029Y554125D01*
X824088Y552715D01*
X821950Y551626D01*
X819669Y550885D01*
X817623Y550561D01*
X817623Y564227D01*
G37*
%LPD*%
%LPC*%
G36*
X286281Y187735D02*
X286281Y187735D01*
X284000Y188476D01*
X281862Y189565D01*
X279921Y190975D01*
X278225Y192671D01*
X276815Y194612D01*
X275726Y196750D01*
X274985Y199031D01*
X274661Y201077D01*
X288327Y201077D01*
X288327Y187411D01*
X286281Y187735D01*
G37*
%LPD*%
%LPC*%
G36*
X566281Y189035D02*
X566281Y189035D01*
X564000Y189776D01*
X561862Y190865D01*
X559921Y192275D01*
X558225Y193971D01*
X556815Y195912D01*
X555726Y198050D01*
X554985Y200331D01*
X554661Y202377D01*
X568327Y202377D01*
X568327Y188711D01*
X566281Y189035D01*
G37*
%LPD*%
%LPC*%
G36*
X812531Y550885D02*
X812531Y550885D01*
X810250Y551626D01*
X808112Y552715D01*
X806171Y554125D01*
X804475Y555821D01*
X803065Y557762D01*
X801976Y559900D01*
X801235Y562181D01*
X800911Y564227D01*
X814577Y564227D01*
X814577Y550561D01*
X812531Y550885D01*
G37*
%LPD*%
%LPC*%
G36*
X813831Y330885D02*
X813831Y330885D01*
X811550Y331626D01*
X809412Y332715D01*
X807471Y334125D01*
X805775Y335821D01*
X804365Y337762D01*
X803276Y339900D01*
X802535Y342181D01*
X802211Y344227D01*
X815877Y344227D01*
X815877Y330561D01*
X813831Y330885D01*
G37*
%LPD*%
%LPC*%
G36*
X529423Y315923D02*
X529423Y315923D01*
X529423Y332066D01*
X530279Y331931D01*
X531800Y331436D01*
X533225Y330710D01*
X534519Y329770D01*
X535650Y328639D01*
X536590Y327345D01*
X537316Y325920D01*
X537811Y324399D01*
X538061Y322820D01*
X538061Y315923D01*
X529423Y315923D01*
G37*
%LPD*%
%LPC*%
G36*
X396423Y315923D02*
X396423Y315923D01*
X396423Y332066D01*
X397279Y331931D01*
X398800Y331436D01*
X400225Y330710D01*
X401519Y329770D01*
X402650Y328639D01*
X403590Y327345D01*
X404316Y325920D01*
X404811Y324399D01*
X405061Y322820D01*
X405061Y315923D01*
X396423Y315923D01*
G37*
%LPD*%
%LPC*%
G36*
X171023Y856677D02*
X171023Y856677D01*
X179661Y856677D01*
X179661Y849780D01*
X179411Y848201D01*
X178916Y846680D01*
X178190Y845255D01*
X177250Y843961D01*
X176119Y842830D01*
X174825Y841890D01*
X173400Y841164D01*
X171879Y840669D01*
X171023Y840534D01*
X171023Y856677D01*
G37*
%LPD*%
%LPC*%
G36*
X396423Y312877D02*
X396423Y312877D01*
X405061Y312877D01*
X405061Y305980D01*
X404811Y304401D01*
X404316Y302880D01*
X403590Y301455D01*
X402650Y300161D01*
X401519Y299030D01*
X400225Y298090D01*
X398800Y297364D01*
X397279Y296869D01*
X396423Y296734D01*
X396423Y312877D01*
G37*
%LPD*%
%LPC*%
G36*
X529423Y312877D02*
X529423Y312877D01*
X538061Y312877D01*
X538061Y305980D01*
X537811Y304401D01*
X537316Y302880D01*
X536590Y301455D01*
X535650Y300161D01*
X534519Y299030D01*
X533225Y298090D01*
X531800Y297364D01*
X530279Y296869D01*
X529423Y296734D01*
X529423Y312877D01*
G37*
%LPD*%
%LPC*%
G36*
X517739Y315923D02*
X517739Y315923D01*
X517739Y322820D01*
X517989Y324399D01*
X518484Y325920D01*
X519210Y327345D01*
X520150Y328639D01*
X521281Y329770D01*
X522575Y330710D01*
X524000Y331436D01*
X525521Y331931D01*
X526377Y332066D01*
X526377Y315923D01*
X517739Y315923D01*
G37*
%LPD*%
%LPC*%
G36*
X384739Y315923D02*
X384739Y315923D01*
X384739Y322820D01*
X384989Y324399D01*
X385484Y325920D01*
X386210Y327345D01*
X387150Y328639D01*
X388281Y329770D01*
X389575Y330710D01*
X391000Y331436D01*
X392521Y331931D01*
X393377Y332066D01*
X393377Y315923D01*
X384739Y315923D01*
G37*
%LPD*%
%LPC*%
G36*
X525521Y296869D02*
X525521Y296869D01*
X524000Y297364D01*
X522575Y298090D01*
X521281Y299030D01*
X520150Y300161D01*
X519210Y301455D01*
X518484Y302880D01*
X517989Y304401D01*
X517739Y305980D01*
X517739Y312877D01*
X526377Y312877D01*
X526377Y296734D01*
X525521Y296869D01*
G37*
%LPD*%
%LPC*%
G36*
X392521Y296869D02*
X392521Y296869D01*
X391000Y297364D01*
X389575Y298090D01*
X388281Y299030D01*
X387150Y300161D01*
X386210Y301455D01*
X385484Y302880D01*
X384989Y304401D01*
X384739Y305980D01*
X384739Y312877D01*
X393377Y312877D01*
X393377Y296734D01*
X392521Y296869D01*
G37*
%LPD*%
%LPC*%
G36*
X342623Y802523D02*
X342623Y802523D01*
X342623Y813962D01*
X344154Y813720D01*
X346106Y813085D01*
X347935Y812153D01*
X349596Y810947D01*
X351047Y809496D01*
X352253Y807835D01*
X353185Y806006D01*
X353820Y804054D01*
X354062Y802523D01*
X342623Y802523D01*
G37*
%LPD*%
%LPC*%
G36*
X342623Y799477D02*
X342623Y799477D01*
X354062Y799477D01*
X353820Y797946D01*
X353185Y795994D01*
X352253Y794165D01*
X351047Y792504D01*
X349596Y791053D01*
X347935Y789847D01*
X346106Y788915D01*
X344154Y788280D01*
X342623Y788038D01*
X342623Y799477D01*
G37*
%LPD*%
%LPC*%
G36*
X328138Y802523D02*
X328138Y802523D01*
X328380Y804054D01*
X329015Y806006D01*
X329947Y807835D01*
X331153Y809496D01*
X332604Y810947D01*
X334265Y812153D01*
X336094Y813085D01*
X338046Y813720D01*
X339577Y813962D01*
X339577Y802523D01*
X328138Y802523D01*
G37*
%LPD*%
%LPC*%
G36*
X338046Y788280D02*
X338046Y788280D01*
X336094Y788915D01*
X334265Y789847D01*
X332604Y791053D01*
X331153Y792504D01*
X329947Y794165D01*
X329015Y795994D01*
X328380Y797946D01*
X328138Y799477D01*
X339577Y799477D01*
X339577Y788038D01*
X338046Y788280D01*
G37*
%LPD*%
%LPC*%
G36*
X481823Y559423D02*
X481823Y559423D01*
X481823Y569746D01*
X483096Y569545D01*
X484883Y568964D01*
X486557Y568111D01*
X488078Y567006D01*
X489406Y565678D01*
X490511Y564157D01*
X491364Y562483D01*
X491945Y560696D01*
X492146Y559423D01*
X481823Y559423D01*
G37*
%LPD*%
%LPC*%
G36*
X446923Y651523D02*
X446923Y651523D01*
X446923Y661846D01*
X448196Y661645D01*
X449983Y661064D01*
X451657Y660211D01*
X453178Y659106D01*
X454506Y657778D01*
X455611Y656257D01*
X456464Y654583D01*
X457045Y652796D01*
X457246Y651523D01*
X446923Y651523D01*
G37*
%LPD*%
%LPC*%
G36*
X174223Y301523D02*
X174223Y301523D01*
X174223Y311846D01*
X175496Y311645D01*
X177283Y311064D01*
X178957Y310211D01*
X180478Y309106D01*
X181806Y307778D01*
X182911Y306257D01*
X183764Y304583D01*
X184345Y302796D01*
X184546Y301523D01*
X174223Y301523D01*
G37*
%LPD*%
%LPC*%
G36*
X46723Y686023D02*
X46723Y686023D01*
X46723Y696346D01*
X47996Y696145D01*
X49783Y695564D01*
X51457Y694711D01*
X52978Y693606D01*
X54306Y692278D01*
X55411Y690757D01*
X56264Y689083D01*
X56845Y687296D01*
X57046Y686023D01*
X46723Y686023D01*
G37*
%LPD*%
%LPC*%
G36*
X36323Y406523D02*
X36323Y406523D01*
X36323Y416846D01*
X37596Y416645D01*
X39383Y416064D01*
X41057Y415211D01*
X42578Y414106D01*
X43906Y412778D01*
X45011Y411257D01*
X45864Y409583D01*
X46445Y407796D01*
X46646Y406523D01*
X36323Y406523D01*
G37*
%LPD*%
%LPC*%
G36*
X206223Y83223D02*
X206223Y83223D01*
X206223Y93546D01*
X207496Y93345D01*
X209283Y92764D01*
X210957Y91911D01*
X212478Y90806D01*
X213806Y89478D01*
X214911Y87957D01*
X215764Y86283D01*
X216345Y84496D01*
X216546Y83223D01*
X206223Y83223D01*
G37*
%LPD*%
%LPC*%
G36*
X181254Y159823D02*
X181254Y159823D01*
X181455Y161096D01*
X182036Y162883D01*
X182889Y164557D01*
X183994Y166078D01*
X185322Y167406D01*
X186843Y168511D01*
X188517Y169364D01*
X190304Y169945D01*
X191577Y170146D01*
X191577Y159823D01*
X181254Y159823D01*
G37*
%LPD*%
%LPC*%
G36*
X36323Y403477D02*
X36323Y403477D01*
X46646Y403477D01*
X46445Y402204D01*
X45864Y400417D01*
X45011Y398743D01*
X43906Y397222D01*
X42578Y395894D01*
X41057Y394789D01*
X39383Y393936D01*
X37596Y393355D01*
X36323Y393154D01*
X36323Y403477D01*
G37*
%LPD*%
%LPC*%
G36*
X380223Y556377D02*
X380223Y556377D01*
X390546Y556377D01*
X390345Y555104D01*
X389764Y553317D01*
X388911Y551643D01*
X387806Y550122D01*
X386478Y548794D01*
X384957Y547689D01*
X383283Y546836D01*
X381496Y546255D01*
X380223Y546054D01*
X380223Y556377D01*
G37*
%LPD*%
%LPC*%
G36*
X33354Y686023D02*
X33354Y686023D01*
X33555Y687296D01*
X34136Y689083D01*
X34989Y690757D01*
X36094Y692278D01*
X37422Y693606D01*
X38943Y694711D01*
X40617Y695564D01*
X42404Y696145D01*
X43677Y696346D01*
X43677Y686023D01*
X33354Y686023D01*
G37*
%LPD*%
%LPC*%
G36*
X481823Y556377D02*
X481823Y556377D01*
X492146Y556377D01*
X491945Y555104D01*
X491364Y553317D01*
X490511Y551643D01*
X489406Y550122D01*
X488078Y548794D01*
X486557Y547689D01*
X484883Y546836D01*
X483096Y546255D01*
X481823Y546054D01*
X481823Y556377D01*
G37*
%LPD*%
%LPC*%
G36*
X46723Y682977D02*
X46723Y682977D01*
X57046Y682977D01*
X56845Y681704D01*
X56264Y679917D01*
X55411Y678243D01*
X54306Y676722D01*
X52978Y675394D01*
X51457Y674289D01*
X49783Y673436D01*
X47996Y672855D01*
X46723Y672654D01*
X46723Y682977D01*
G37*
%LPD*%
%LPC*%
G36*
X174223Y298477D02*
X174223Y298477D01*
X184546Y298477D01*
X184345Y297204D01*
X183764Y295417D01*
X182911Y293743D01*
X181806Y292222D01*
X180478Y290894D01*
X178957Y289789D01*
X177283Y288936D01*
X175496Y288355D01*
X174223Y288154D01*
X174223Y298477D01*
G37*
%LPD*%
%LPC*%
G36*
X366854Y559423D02*
X366854Y559423D01*
X367055Y560696D01*
X367636Y562483D01*
X368489Y564157D01*
X369594Y565678D01*
X370922Y567006D01*
X372443Y568111D01*
X374117Y568964D01*
X375904Y569545D01*
X377177Y569746D01*
X377177Y559423D01*
X366854Y559423D01*
G37*
%LPD*%
%LPC*%
G36*
X160854Y301523D02*
X160854Y301523D01*
X161055Y302796D01*
X161636Y304583D01*
X162489Y306257D01*
X163594Y307778D01*
X164922Y309106D01*
X166443Y310211D01*
X168117Y311064D01*
X169904Y311645D01*
X171177Y311846D01*
X171177Y301523D01*
X160854Y301523D01*
G37*
%LPD*%
%LPC*%
G36*
X446923Y648477D02*
X446923Y648477D01*
X457246Y648477D01*
X457045Y647204D01*
X456464Y645417D01*
X455611Y643743D01*
X454506Y642222D01*
X453178Y640894D01*
X451657Y639789D01*
X449983Y638936D01*
X448196Y638355D01*
X446923Y638154D01*
X446923Y648477D01*
G37*
%LPD*%
%LPC*%
G36*
X468454Y559423D02*
X468454Y559423D01*
X468655Y560696D01*
X469236Y562483D01*
X470089Y564157D01*
X471194Y565678D01*
X472522Y567006D01*
X474043Y568111D01*
X475717Y568964D01*
X477504Y569545D01*
X478777Y569746D01*
X478777Y559423D01*
X468454Y559423D01*
G37*
%LPD*%
%LPC*%
G36*
X192854Y83223D02*
X192854Y83223D01*
X193055Y84496D01*
X193636Y86283D01*
X194489Y87957D01*
X195594Y89478D01*
X196922Y90806D01*
X198443Y91911D01*
X200117Y92764D01*
X201904Y93345D01*
X203177Y93546D01*
X203177Y83223D01*
X192854Y83223D01*
G37*
%LPD*%
%LPC*%
G36*
X22954Y406523D02*
X22954Y406523D01*
X23155Y407796D01*
X23736Y409583D01*
X24589Y411257D01*
X25694Y412778D01*
X27022Y414106D01*
X28543Y415211D01*
X30217Y416064D01*
X32004Y416645D01*
X33277Y416846D01*
X33277Y406523D01*
X22954Y406523D01*
G37*
%LPD*%
%LPC*%
G36*
X206223Y80177D02*
X206223Y80177D01*
X216546Y80177D01*
X216345Y78904D01*
X215764Y77117D01*
X214911Y75443D01*
X213806Y73922D01*
X212478Y72594D01*
X210957Y71489D01*
X209283Y70636D01*
X207496Y70055D01*
X206223Y69854D01*
X206223Y80177D01*
G37*
%LPD*%
%LPC*%
G36*
X477504Y546255D02*
X477504Y546255D01*
X475717Y546836D01*
X474043Y547689D01*
X472522Y548794D01*
X471194Y550122D01*
X470089Y551643D01*
X469236Y553317D01*
X468655Y555104D01*
X468454Y556377D01*
X478777Y556377D01*
X478777Y546054D01*
X477504Y546255D01*
G37*
%LPD*%
%LPC*%
G36*
X169904Y288355D02*
X169904Y288355D01*
X168117Y288936D01*
X166443Y289789D01*
X164922Y290894D01*
X163594Y292222D01*
X162489Y293743D01*
X161636Y295417D01*
X161055Y297204D01*
X160854Y298477D01*
X171177Y298477D01*
X171177Y288154D01*
X169904Y288355D01*
G37*
%LPD*%
%LPC*%
G36*
X42404Y672855D02*
X42404Y672855D01*
X40617Y673436D01*
X38943Y674289D01*
X37422Y675394D01*
X36094Y676722D01*
X34989Y678243D01*
X34136Y679917D01*
X33555Y681704D01*
X33354Y682977D01*
X43677Y682977D01*
X43677Y672654D01*
X42404Y672855D01*
G37*
%LPD*%
%LPC*%
G36*
X32004Y393355D02*
X32004Y393355D01*
X30217Y393936D01*
X28543Y394789D01*
X27022Y395894D01*
X25694Y397222D01*
X24589Y398743D01*
X23736Y400417D01*
X23155Y402204D01*
X22954Y403477D01*
X33277Y403477D01*
X33277Y393154D01*
X32004Y393355D01*
G37*
%LPD*%
%LPC*%
G36*
X375904Y546255D02*
X375904Y546255D01*
X374117Y546836D01*
X372443Y547689D01*
X370922Y548794D01*
X369594Y550122D01*
X368489Y551643D01*
X367636Y553317D01*
X367055Y555104D01*
X366854Y556377D01*
X377177Y556377D01*
X377177Y546054D01*
X375904Y546255D01*
G37*
%LPD*%
%LPC*%
G36*
X201904Y70055D02*
X201904Y70055D01*
X200117Y70636D01*
X198443Y71489D01*
X196922Y72594D01*
X195594Y73922D01*
X194489Y75443D01*
X193636Y77117D01*
X193055Y78904D01*
X192854Y80177D01*
X203177Y80177D01*
X203177Y69854D01*
X201904Y70055D01*
G37*
%LPD*%
%LPC*%
G36*
X107823Y539423D02*
X107823Y539423D01*
X107823Y548589D01*
X108828Y548430D01*
X110444Y547905D01*
X111958Y547133D01*
X113333Y546134D01*
X114534Y544933D01*
X115533Y543558D01*
X116305Y542044D01*
X116830Y540428D01*
X116989Y539423D01*
X107823Y539423D01*
G37*
%LPD*%
%LPC*%
G36*
X129823Y623623D02*
X129823Y623623D01*
X129823Y632789D01*
X130828Y632630D01*
X132444Y632105D01*
X133958Y631333D01*
X135333Y630334D01*
X136534Y629133D01*
X137533Y627758D01*
X138305Y626244D01*
X138830Y624628D01*
X138989Y623623D01*
X129823Y623623D01*
G37*
%LPD*%
%LPC*%
G36*
X30223Y854323D02*
X30223Y854323D01*
X30223Y863489D01*
X31228Y863330D01*
X32844Y862805D01*
X34358Y862033D01*
X35733Y861034D01*
X36934Y859833D01*
X37933Y858458D01*
X38705Y856944D01*
X39230Y855328D01*
X39389Y854323D01*
X30223Y854323D01*
G37*
%LPD*%
%LPC*%
G36*
X129823Y620577D02*
X129823Y620577D01*
X138989Y620577D01*
X138830Y619572D01*
X138305Y617956D01*
X137533Y616442D01*
X136534Y615067D01*
X135333Y613866D01*
X133958Y612867D01*
X132444Y612095D01*
X130828Y611570D01*
X129823Y611411D01*
X129823Y620577D01*
G37*
%LPD*%
%LPC*%
G36*
X117611Y623623D02*
X117611Y623623D01*
X117770Y624628D01*
X118295Y626244D01*
X119067Y627758D01*
X120066Y629133D01*
X121267Y630334D01*
X122642Y631333D01*
X124156Y632105D01*
X125772Y632630D01*
X126777Y632789D01*
X126777Y623623D01*
X117611Y623623D01*
G37*
%LPD*%
%LPC*%
G36*
X30223Y851277D02*
X30223Y851277D01*
X39389Y851277D01*
X39230Y850272D01*
X38705Y848656D01*
X37933Y847142D01*
X36934Y845767D01*
X35733Y844566D01*
X34358Y843567D01*
X32844Y842795D01*
X31228Y842270D01*
X30223Y842111D01*
X30223Y851277D01*
G37*
%LPD*%
%LPC*%
G36*
X18011Y854323D02*
X18011Y854323D01*
X18170Y855328D01*
X18695Y856944D01*
X19467Y858458D01*
X20466Y859833D01*
X21667Y861034D01*
X23042Y862033D01*
X24556Y862805D01*
X26172Y863330D01*
X27177Y863489D01*
X27177Y854323D01*
X18011Y854323D01*
G37*
%LPD*%
%LPC*%
G36*
X321511Y654323D02*
X321511Y654323D01*
X321670Y655328D01*
X322195Y656944D01*
X322967Y658458D01*
X323966Y659833D01*
X325167Y661034D01*
X326542Y662033D01*
X328056Y662805D01*
X329672Y663330D01*
X330677Y663489D01*
X330677Y654323D01*
X321511Y654323D01*
G37*
%LPD*%
%LPC*%
G36*
X329672Y642270D02*
X329672Y642270D01*
X328056Y642795D01*
X326542Y643567D01*
X325167Y644566D01*
X323966Y645767D01*
X322967Y647142D01*
X322195Y648656D01*
X321670Y650272D01*
X321511Y651277D01*
X330677Y651277D01*
X330677Y642111D01*
X329672Y642270D01*
G37*
%LPD*%
%LPC*%
G36*
X125772Y611570D02*
X125772Y611570D01*
X124156Y612095D01*
X122642Y612867D01*
X121267Y613866D01*
X120066Y615067D01*
X119067Y616442D01*
X118295Y617956D01*
X117770Y619572D01*
X117611Y620577D01*
X126777Y620577D01*
X126777Y611411D01*
X125772Y611570D01*
G37*
%LPD*%
%LPC*%
G36*
X26172Y842270D02*
X26172Y842270D01*
X24556Y842795D01*
X23042Y843567D01*
X21667Y844566D01*
X20466Y845767D01*
X19467Y847142D01*
X18695Y848656D01*
X18170Y850272D01*
X18011Y851277D01*
X27177Y851277D01*
X27177Y842111D01*
X26172Y842270D01*
G37*
%LPD*%
%LPC*%
G36*
X181923Y602223D02*
X181923Y602223D01*
X181923Y611260D01*
X182898Y611106D01*
X184495Y610587D01*
X185992Y609825D01*
X187350Y608838D01*
X188538Y607650D01*
X189525Y606292D01*
X190287Y604795D01*
X190806Y603198D01*
X190960Y602223D01*
X181923Y602223D01*
G37*
%LPD*%
%LPC*%
G36*
X258123Y627623D02*
X258123Y627623D01*
X258123Y636660D01*
X259098Y636506D01*
X260695Y635987D01*
X262192Y635225D01*
X263550Y634238D01*
X264738Y633050D01*
X265725Y631692D01*
X266487Y630195D01*
X267006Y628598D01*
X267160Y627623D01*
X258123Y627623D01*
G37*
%LPD*%
%LPC*%
G36*
X181923Y599177D02*
X181923Y599177D01*
X190960Y599177D01*
X190806Y598202D01*
X190287Y596605D01*
X189525Y595108D01*
X188538Y593750D01*
X187350Y592562D01*
X185992Y591575D01*
X184495Y590813D01*
X182898Y590294D01*
X181923Y590140D01*
X181923Y599177D01*
G37*
%LPD*%
%LPC*%
G36*
X169840Y602223D02*
X169840Y602223D01*
X169994Y603198D01*
X170513Y604795D01*
X171275Y606292D01*
X172262Y607650D01*
X173450Y608838D01*
X174808Y609825D01*
X176305Y610587D01*
X177902Y611106D01*
X178877Y611260D01*
X178877Y602223D01*
X169840Y602223D01*
G37*
%LPD*%
%LPC*%
G36*
X177902Y590294D02*
X177902Y590294D01*
X176305Y590813D01*
X174808Y591575D01*
X173450Y592562D01*
X172262Y593750D01*
X171275Y595108D01*
X170513Y596605D01*
X169994Y598202D01*
X169840Y599177D01*
X178877Y599177D01*
X178877Y590140D01*
X177902Y590294D01*
G37*
%LPD*%
%LPC*%
G36*
X34799Y404999D02*
X34799Y404999D01*
X34799Y405001D01*
X34801Y405001D01*
X34801Y404999D01*
X34799Y404999D01*
G37*
%LPD*%
%LPC*%
G36*
X480299Y557899D02*
X480299Y557899D01*
X480299Y557901D01*
X480301Y557901D01*
X480301Y557899D01*
X480299Y557899D01*
G37*
%LPD*%
%LPC*%
G36*
X378699Y557899D02*
X378699Y557899D01*
X378699Y557901D01*
X378701Y557901D01*
X378701Y557899D01*
X378699Y557899D01*
G37*
%LPD*%
%LPC*%
G36*
X180399Y600699D02*
X180399Y600699D01*
X180399Y600701D01*
X180401Y600701D01*
X180401Y600699D01*
X180399Y600699D01*
G37*
%LPD*%
%LPC*%
G36*
X172699Y299999D02*
X172699Y299999D01*
X172699Y300001D01*
X172701Y300001D01*
X172701Y299999D01*
X172699Y299999D01*
G37*
%LPD*%
%LPC*%
G36*
X128299Y622099D02*
X128299Y622099D01*
X128299Y622101D01*
X128301Y622101D01*
X128301Y622099D01*
X128299Y622099D01*
G37*
%LPD*%
%LPC*%
G36*
X45199Y684499D02*
X45199Y684499D01*
X45199Y684501D01*
X45201Y684501D01*
X45201Y684499D01*
X45199Y684499D01*
G37*
%LPD*%
%LPC*%
G36*
X341099Y800999D02*
X341099Y800999D01*
X341099Y801001D01*
X341101Y801001D01*
X341101Y800999D01*
X341099Y800999D01*
G37*
%LPD*%
%LPC*%
G36*
X569849Y203899D02*
X569849Y203899D01*
X569849Y203901D01*
X569851Y203901D01*
X569851Y203899D01*
X569849Y203899D01*
G37*
%LPD*%
%LPC*%
G36*
X289849Y202599D02*
X289849Y202599D01*
X289849Y202601D01*
X289851Y202601D01*
X289851Y202599D01*
X289849Y202599D01*
G37*
%LPD*%
%LPC*%
G36*
X28699Y852799D02*
X28699Y852799D01*
X28699Y852801D01*
X28701Y852801D01*
X28701Y852799D01*
X28699Y852799D01*
G37*
%LPD*%
%LPC*%
G36*
X527899Y314399D02*
X527899Y314399D01*
X527899Y314401D01*
X527901Y314401D01*
X527901Y314399D01*
X527899Y314399D01*
G37*
%LPD*%
%LPC*%
G36*
X394899Y314399D02*
X394899Y314399D01*
X394899Y314401D01*
X394901Y314401D01*
X394901Y314399D01*
X394899Y314399D01*
G37*
%LPD*%
%LPC*%
G36*
X204699Y81699D02*
X204699Y81699D01*
X204699Y81701D01*
X204701Y81701D01*
X204701Y81699D01*
X204699Y81699D01*
G37*
%LPD*%
%LPC*%
G36*
X817399Y345749D02*
X817399Y345749D01*
X817399Y345751D01*
X817401Y345751D01*
X817401Y345749D01*
X817399Y345749D01*
G37*
%LPD*%
%LPC*%
G36*
X816099Y565749D02*
X816099Y565749D01*
X816099Y565751D01*
X816101Y565751D01*
X816101Y565749D01*
X816099Y565749D01*
G37*
%LPD*%
D10*
X34800Y379600D03*
X34800Y405000D03*
X34800Y430400D03*
X34800Y455800D03*
D11*
X357200Y652800D03*
D12*
X332200Y652800D03*
D11*
X53700Y852800D03*
D12*
X28700Y852800D03*
X128300Y622100D03*
X102900Y622100D03*
X80900Y537900D03*
X106300Y537900D03*
D13*
X684700Y443540D02*
X684700Y421061D01*
X684700Y573461D02*
X684700Y595940D01*
X798500Y276040D02*
X798500Y253561D01*
X798500Y123640D02*
X798500Y101161D01*
D14*
X144100Y850580D02*
X144100Y865820D01*
X169500Y865820D02*
X169500Y850580D01*
X194900Y850580D02*
X194900Y865820D01*
D15*
X796100Y625750D03*
D16*
X816100Y565750D03*
X938100Y565750D03*
X938100Y685750D03*
X816100Y685750D03*
D15*
X797400Y405750D03*
D16*
X817400Y345750D03*
X939400Y345750D03*
X939400Y465750D03*
X817400Y465750D03*
D15*
X629850Y223900D03*
D16*
X569850Y203900D03*
X569850Y81900D03*
X689850Y81900D03*
X689850Y203900D03*
D15*
X349850Y222600D03*
D16*
X289850Y202600D03*
X289850Y80600D03*
X409850Y80600D03*
X409850Y202600D03*
D17*
X604800Y794200D03*
X694800Y794200D03*
X964100Y211100D03*
X964100Y121100D03*
X431100Y801000D03*
X341100Y801000D03*
D10*
X45200Y786100D03*
X45200Y760700D03*
X45200Y735300D03*
X45200Y709900D03*
X45200Y684500D03*
D14*
X344100Y322020D02*
X344100Y306780D01*
X369500Y306780D02*
X369500Y322020D01*
X394900Y322020D02*
X394900Y306780D01*
X477100Y306780D02*
X477100Y322020D01*
X502500Y322020D02*
X502500Y306780D01*
X527900Y306780D02*
X527900Y322020D01*
D10*
X149900Y758300D03*
X73700Y758300D03*
X128500Y81700D03*
X204700Y81700D03*
X193100Y158300D03*
X116900Y158300D03*
X194700Y218300D03*
X118500Y218300D03*
X404100Y557900D03*
X480300Y557900D03*
X302500Y557900D03*
X378700Y557900D03*
D18*
X180400Y778500D03*
X180400Y753100D03*
X180400Y727700D03*
X180400Y702300D03*
X180400Y676900D03*
X180400Y651500D03*
X180400Y626100D03*
X180400Y600700D03*
X180400Y575300D03*
X180400Y549900D03*
X180400Y524500D03*
X180400Y499100D03*
X180400Y473700D03*
X180400Y448300D03*
X256600Y448300D03*
X256600Y473700D03*
X256600Y499100D03*
X256600Y524500D03*
X256600Y549900D03*
X256600Y575300D03*
X256600Y600700D03*
X256600Y626100D03*
X256600Y651500D03*
X256600Y676900D03*
X256600Y702300D03*
X256600Y727700D03*
X256600Y753100D03*
X256600Y778500D03*
D12*
X47200Y566900D03*
X47200Y617700D03*
D10*
X50000Y70000D03*
X50000Y44600D03*
X50000Y170000D03*
X50000Y144600D03*
X50000Y270000D03*
X50000Y244600D03*
X147300Y300000D03*
X172700Y300000D03*
X250000Y261900D03*
X250000Y338100D03*
X420000Y650000D03*
X445400Y650000D03*
D19*
X98500Y617700D02*
X47200Y617700D01*
X98500Y617700D02*
X102900Y622100D01*
X149700Y575300D01*
X180400Y575300D01*
X51900Y566900D02*
X47200Y566900D01*
X51900Y566900D02*
X80900Y537900D01*
X91393Y537900D01*
X101934Y527359D01*
X157859Y527359D01*
X180400Y549900D01*
D20*
X357200Y652800D02*
X397200Y692800D01*
X431100Y726700D01*
X431100Y801000D01*
D19*
X346374Y885726D01*
X161626Y885726D02*
X144100Y868200D01*
X144100Y858200D01*
X161626Y885726D02*
X346374Y885726D01*
D21*
X431100Y801000D02*
X549109Y801000D01*
X589054Y840946D01*
X889054Y840946D01*
X1026078Y460000D02*
X1026078Y40000D01*
X945150Y460000D02*
X939400Y465750D01*
X945150Y460000D02*
X1026078Y460000D01*
D19*
X420000Y670000D02*
X397200Y692800D01*
X420000Y670000D02*
X420000Y650000D01*
D22*
X409850Y40150D02*
X412500Y37500D01*
D23*
X409850Y40150D02*
X409850Y80600D01*
X690000Y40000D02*
X1026078Y40000D01*
X692500Y37500D02*
X412500Y37500D01*
D22*
X690000Y40000D02*
X692500Y37500D01*
X690000Y40000D02*
X689850Y40150D01*
D23*
X689850Y81900D01*
D21*
X991250Y738750D02*
X889054Y840946D01*
X991250Y738750D02*
X1026078Y703922D01*
X1026078Y460000D01*
X938100Y685750D02*
X991100Y738750D01*
X991250Y738750D01*
D19*
X45200Y786100D02*
X45200Y844300D01*
X53700Y852800D01*
X149900Y758300D02*
X158536Y766936D01*
X190814Y854114D02*
X194900Y858200D01*
X190814Y800000D02*
X190814Y774186D01*
X190814Y800000D02*
X190814Y854114D01*
X183564Y766936D02*
X158536Y766936D01*
X183564Y766936D02*
X190814Y774186D01*
X173272Y786100D02*
X45200Y786100D01*
X173272Y786100D02*
X176086Y788914D01*
X179728Y788914D01*
X190814Y800000D01*
X34800Y379600D02*
X54800Y359600D01*
X54800Y274800D01*
X50000Y270000D01*
X50000Y261124D01*
X38316Y249440D02*
X38316Y181684D01*
X50000Y170000D01*
X38316Y249440D02*
X50000Y261124D01*
X50000Y170000D02*
X50000Y161124D01*
X38316Y149440D02*
X38316Y81684D01*
X50000Y70000D01*
X38316Y149440D02*
X50000Y161124D01*
X28700Y701000D02*
X28700Y852800D01*
X28700Y701000D02*
X45200Y684500D01*
X97059Y632641D01*
X117807Y622100D02*
X128300Y622100D01*
X107266Y632641D02*
X97059Y632641D01*
X107266Y632641D02*
X117807Y622100D01*
X128300Y622100D02*
X159000Y622100D01*
X180400Y600700D01*
X117600Y537900D02*
X106300Y537900D01*
X184714Y564886D02*
X190814Y570986D01*
X190814Y579614D01*
X144586Y564886D02*
X117600Y537900D01*
X144586Y564886D02*
X184714Y564886D01*
X190814Y579614D02*
X180400Y590028D01*
X180400Y600700D01*
X817400Y444557D02*
X817400Y345750D01*
X817400Y444557D02*
X832386Y459543D01*
X832386Y549464D02*
X816100Y565750D01*
X832386Y549464D02*
X832386Y459543D01*
X332200Y652800D02*
X305500Y626100D01*
X256600Y626100D01*
X332200Y652800D02*
X338600Y659200D01*
X338600Y798500D02*
X341100Y801000D01*
X338600Y798500D02*
X338600Y659200D01*
X625950Y260000D02*
X569850Y203900D01*
X731650Y260000D02*
X817400Y345750D01*
X731650Y260000D02*
X625950Y260000D01*
X569850Y203900D02*
X527900Y245850D01*
X527900Y310000D01*
X527900Y314400D01*
X394900Y307650D02*
X289850Y202600D01*
X394900Y307650D02*
X394900Y314400D01*
X472997Y296874D02*
X481203Y296874D01*
X489038Y327596D02*
X496924Y335482D01*
X508076Y335482D01*
X515962Y327596D01*
X455471Y314400D02*
X394900Y314400D01*
X515962Y321938D02*
X515962Y327596D01*
X472997Y296874D02*
X455471Y314400D01*
X515962Y321938D02*
X527900Y310000D01*
X489038Y304709D02*
X481203Y296874D01*
X489038Y304709D02*
X489038Y327596D01*
X445400Y592800D02*
X445400Y650000D01*
X445400Y592800D02*
X480300Y557900D01*
D24*
X575000Y237500D03*
X562500Y372500D03*
X522500Y367500D03*
X470000Y372500D03*
X367500Y390000D03*
X340000Y372500D03*
X335000Y402500D03*
X330000Y182500D03*
X305000Y125000D03*
X385000Y125000D03*
X587500Y120000D03*
X662500Y117500D03*
X802500Y205000D03*
X680000Y517500D03*
X915000Y237500D03*
X917500Y97500D03*
X855000Y372500D03*
X897500Y437500D03*
X977500Y380000D03*
X865000Y585000D03*
X962500Y617500D03*
X872500Y670000D03*
X1015000Y790000D03*
X932500Y865000D03*
X452500Y860000D03*
X247500Y862500D03*
X232500Y830000D03*
X95000Y872500D03*
X92500Y822500D03*
D19*
X155060Y779984D02*
X133376Y758300D01*
X178916Y779984D02*
X180400Y778500D01*
X178916Y779984D02*
X155060Y779984D01*
X73700Y758300D02*
X47600Y758300D01*
X45200Y760700D01*
X73700Y758300D02*
X133376Y758300D01*
X180400Y727700D02*
X162600Y709900D01*
X45200Y709900D01*
X162600Y735300D02*
X180400Y753100D01*
X162600Y735300D02*
X45200Y735300D01*
X180400Y702300D02*
X180400Y701628D01*
X233048Y648980D01*
X193416Y146616D02*
X128500Y81700D01*
X193416Y146616D02*
X197940Y146616D01*
X233048Y181724D01*
X233048Y648980D01*
X128500Y81700D02*
X98500Y51700D01*
X83400Y51700D01*
X76300Y44600D02*
X50000Y44600D01*
X76300Y44600D02*
X83400Y51700D01*
X180400Y640828D02*
X180400Y651500D01*
X180400Y640828D02*
X220000Y601228D01*
X165216Y206616D02*
X116900Y158300D01*
X165216Y206616D02*
X199540Y206616D01*
X220000Y227076D02*
X220000Y601228D01*
X220000Y227076D02*
X199540Y206616D01*
X116900Y158300D02*
X106900Y158300D01*
X96900Y148300D01*
X80000Y148300D01*
X76300Y144600D02*
X50000Y144600D01*
X76300Y144600D02*
X80000Y148300D01*
X180400Y463028D02*
X180400Y473700D01*
X180400Y463028D02*
X206952Y436476D01*
X206952Y230000D01*
X206936Y229984D01*
X178176Y218300D02*
X118500Y218300D01*
X189860Y229984D02*
X206936Y229984D01*
X189860Y229984D02*
X178176Y218300D01*
X118500Y218300D02*
X98500Y238300D01*
X83300Y238300D01*
X77000Y244600D02*
X50000Y244600D01*
X77000Y244600D02*
X83300Y238300D01*
X34800Y455800D02*
X93311Y514311D01*
X149122Y514311D01*
X149311Y514500D01*
X170400Y514500D02*
X180400Y524500D01*
X170400Y514500D02*
X149311Y514500D01*
X103500Y499100D02*
X34800Y430400D01*
X103500Y499100D02*
X180400Y499100D01*
D25*
X629850Y223900D02*
X692650Y161100D01*
X924100Y161100D01*
X964100Y121100D01*
X661720Y737280D02*
X604800Y794200D01*
X797400Y417877D02*
X797400Y405750D01*
X769320Y574657D02*
X661720Y682257D01*
X769320Y574657D02*
X769320Y445957D01*
X661720Y682257D02*
X661720Y737280D01*
X769320Y445957D02*
X797400Y417877D01*
X796100Y625750D02*
X694800Y727050D01*
X694800Y794200D01*
D19*
X302500Y557900D02*
X302500Y356000D01*
X344100Y314400D01*
X267014Y522414D02*
X302500Y557900D01*
X256600Y484372D02*
X256600Y473700D01*
X256600Y484372D02*
X267014Y494786D01*
X267014Y522414D01*
X404100Y557900D02*
X404100Y387400D01*
X477100Y314400D01*
X404100Y557900D02*
X371000Y591000D01*
X362000Y600000D01*
X184714Y712714D02*
X176086Y712714D01*
X169986Y706614D01*
X260914Y611114D02*
X272028Y600000D01*
X260914Y611114D02*
X256858Y611114D01*
X246096Y621876D01*
X180400Y676900D02*
X180400Y687317D01*
X246096Y651332D02*
X246096Y621876D01*
X246096Y651332D02*
X184714Y712714D01*
X169986Y706614D02*
X169986Y697731D01*
X180400Y687317D01*
X272028Y600000D02*
X362000Y600000D01*
X250000Y440172D02*
X250000Y338100D01*
X250000Y440172D02*
X246186Y443986D01*
X246186Y539486D01*
X256600Y549900D01*
D24*
X980000Y167500D03*
M02*
