G04 EAGLE Gerber RS-274X export*
G75*
%MOMM*%
%FSLAX34Y34*%
%LPD*%
%INTop Copper*%
%IPPOS*%
%AMOC8*
5,1,8,0,0,1.08239X$1,22.5*%
G01*
%ADD10C,1.879600*%
%ADD11R,1.651000X1.651000*%
%ADD12C,1.651000*%
%ADD13C,2.247900*%
%ADD14C,1.524000*%
%ADD15R,2.540000X2.540000*%
%ADD16C,2.540000*%
%ADD17C,2.100000*%
%ADD18C,1.625600*%
%ADD19C,0.152400*%
%ADD20C,1.000000*%
%ADD21C,4.600000*%
%ADD22C,1.800000*%

G36*
X391520Y10934D02*
X391520Y10934D01*
X391592Y10936D01*
X391641Y10954D01*
X391692Y10962D01*
X391755Y10996D01*
X391823Y11021D01*
X391863Y11053D01*
X391909Y11078D01*
X391959Y11130D01*
X392015Y11174D01*
X392043Y11218D01*
X392079Y11256D01*
X392109Y11321D01*
X392148Y11381D01*
X392161Y11432D01*
X392182Y11479D01*
X392190Y11550D01*
X392208Y11620D01*
X392204Y11672D01*
X392210Y11723D01*
X392194Y11794D01*
X392189Y11865D01*
X392168Y11913D01*
X392157Y11964D01*
X392120Y12025D01*
X392092Y12091D01*
X392048Y12147D01*
X392031Y12175D01*
X392013Y12190D01*
X391988Y12222D01*
X387380Y16830D01*
X383683Y23233D01*
X381769Y30375D01*
X381769Y84297D01*
X383683Y91439D01*
X387380Y97842D01*
X392608Y103070D01*
X399011Y106767D01*
X406153Y108681D01*
X413547Y108681D01*
X420689Y106767D01*
X427092Y103070D01*
X432320Y97842D01*
X436017Y91439D01*
X437931Y84297D01*
X437931Y62764D01*
X437934Y62744D01*
X437932Y62725D01*
X437954Y62623D01*
X437970Y62521D01*
X437980Y62504D01*
X437984Y62484D01*
X438037Y62395D01*
X438086Y62304D01*
X438100Y62290D01*
X438110Y62273D01*
X438189Y62206D01*
X438264Y62134D01*
X438282Y62126D01*
X438297Y62113D01*
X438393Y62074D01*
X438487Y62031D01*
X438507Y62029D01*
X438525Y62021D01*
X438692Y62003D01*
X661158Y62003D01*
X661178Y62006D01*
X661197Y62004D01*
X661299Y62026D01*
X661401Y62042D01*
X661418Y62052D01*
X661438Y62056D01*
X661527Y62109D01*
X661618Y62158D01*
X661632Y62172D01*
X661649Y62182D01*
X661716Y62261D01*
X661788Y62336D01*
X661796Y62354D01*
X661809Y62369D01*
X661848Y62465D01*
X661891Y62559D01*
X661893Y62579D01*
X661901Y62597D01*
X661919Y62764D01*
X661919Y77543D01*
X661917Y77559D01*
X661919Y77574D01*
X661893Y77740D01*
X661769Y78203D01*
X661769Y85597D01*
X663683Y92739D01*
X667380Y99142D01*
X672608Y104370D01*
X679011Y108067D01*
X686153Y109981D01*
X693547Y109981D01*
X700689Y108067D01*
X707092Y104370D01*
X712470Y98992D01*
X716167Y92589D01*
X718081Y85447D01*
X718081Y80376D01*
X718092Y80306D01*
X718094Y80234D01*
X718112Y80185D01*
X718120Y80134D01*
X718154Y80070D01*
X718179Y80003D01*
X718211Y79962D01*
X718236Y79916D01*
X718288Y79867D01*
X718332Y79811D01*
X718376Y79783D01*
X718414Y79747D01*
X718479Y79717D01*
X718539Y79678D01*
X718590Y79665D01*
X718637Y79643D01*
X718708Y79635D01*
X718778Y79618D01*
X718830Y79622D01*
X718881Y79616D01*
X718952Y79631D01*
X719023Y79637D01*
X719071Y79657D01*
X719122Y79668D01*
X719183Y79705D01*
X719249Y79733D01*
X719305Y79778D01*
X719333Y79795D01*
X719348Y79812D01*
X719380Y79838D01*
X764971Y125429D01*
X771374Y129126D01*
X778516Y131040D01*
X818484Y131040D01*
X825626Y129126D01*
X832029Y125429D01*
X889154Y68304D01*
X889228Y68251D01*
X889298Y68191D01*
X889328Y68179D01*
X889354Y68160D01*
X889441Y68133D01*
X889526Y68099D01*
X889567Y68095D01*
X889589Y68088D01*
X889621Y68089D01*
X889692Y68081D01*
X1007236Y68081D01*
X1007256Y68084D01*
X1007275Y68082D01*
X1007377Y68104D01*
X1007479Y68120D01*
X1007496Y68130D01*
X1007516Y68134D01*
X1007605Y68187D01*
X1007696Y68236D01*
X1007710Y68250D01*
X1007727Y68260D01*
X1007794Y68339D01*
X1007866Y68414D01*
X1007874Y68432D01*
X1007887Y68447D01*
X1007926Y68543D01*
X1007969Y68637D01*
X1007971Y68657D01*
X1007979Y68675D01*
X1007997Y68842D01*
X1007997Y431158D01*
X1007996Y431167D01*
X1007996Y431172D01*
X1007994Y431181D01*
X1007996Y431197D01*
X1007974Y431299D01*
X1007958Y431401D01*
X1007948Y431418D01*
X1007944Y431438D01*
X1007891Y431527D01*
X1007842Y431618D01*
X1007828Y431632D01*
X1007818Y431649D01*
X1007739Y431716D01*
X1007664Y431788D01*
X1007646Y431796D01*
X1007631Y431809D01*
X1007535Y431848D01*
X1007441Y431891D01*
X1007421Y431893D01*
X1007403Y431901D01*
X1007236Y431919D01*
X941453Y431919D01*
X934311Y433833D01*
X927908Y437530D01*
X916930Y448508D01*
X913233Y454911D01*
X911319Y462053D01*
X911319Y469447D01*
X913233Y476589D01*
X916930Y482992D01*
X922158Y488220D01*
X928561Y491917D01*
X935703Y493831D01*
X943097Y493831D01*
X950239Y491917D01*
X956707Y488183D01*
X956813Y488142D01*
X956921Y488099D01*
X956931Y488098D01*
X956937Y488096D01*
X956959Y488095D01*
X957087Y488081D01*
X1007236Y488081D01*
X1007256Y488084D01*
X1007275Y488082D01*
X1007377Y488104D01*
X1007479Y488120D01*
X1007496Y488130D01*
X1007516Y488134D01*
X1007605Y488187D01*
X1007696Y488236D01*
X1007710Y488250D01*
X1007727Y488260D01*
X1007794Y488339D01*
X1007866Y488414D01*
X1007874Y488432D01*
X1007887Y488447D01*
X1007926Y488543D01*
X1007969Y488637D01*
X1007971Y488657D01*
X1007979Y488675D01*
X1007997Y488842D01*
X1007997Y701975D01*
X1007983Y702065D01*
X1007975Y702156D01*
X1007963Y702186D01*
X1007958Y702218D01*
X1007915Y702299D01*
X1007879Y702383D01*
X1007853Y702415D01*
X1007842Y702435D01*
X1007819Y702458D01*
X1007774Y702514D01*
X1001713Y708575D01*
X1001697Y708586D01*
X1001685Y708602D01*
X1001597Y708658D01*
X1001514Y708718D01*
X1001495Y708724D01*
X1001478Y708735D01*
X1001377Y708760D01*
X1001278Y708790D01*
X1001259Y708790D01*
X1001239Y708795D01*
X1001136Y708787D01*
X1001033Y708784D01*
X1001014Y708777D01*
X1000994Y708776D01*
X1000899Y708735D01*
X1000802Y708700D01*
X1000786Y708687D01*
X1000768Y708679D01*
X1000637Y708575D01*
X955342Y663280D01*
X948939Y659583D01*
X941797Y657669D01*
X934403Y657669D01*
X927261Y659583D01*
X920858Y663280D01*
X915630Y668508D01*
X911933Y674911D01*
X910019Y682053D01*
X910019Y689447D01*
X911933Y696589D01*
X915630Y702992D01*
X960925Y748287D01*
X960936Y748303D01*
X960952Y748315D01*
X961008Y748403D01*
X961068Y748486D01*
X961074Y748505D01*
X961085Y748522D01*
X961110Y748623D01*
X961140Y748722D01*
X961140Y748741D01*
X961145Y748761D01*
X961137Y748864D01*
X961134Y748967D01*
X961127Y748986D01*
X961126Y749006D01*
X961085Y749101D01*
X961050Y749198D01*
X961037Y749214D01*
X961029Y749232D01*
X960925Y749363D01*
X902646Y807642D01*
X902572Y807695D01*
X902502Y807755D01*
X902472Y807767D01*
X902446Y807786D01*
X902359Y807812D01*
X902274Y807847D01*
X902233Y807851D01*
X902211Y807858D01*
X902179Y807857D01*
X902108Y807865D01*
X705007Y807865D01*
X704937Y807853D01*
X704865Y807852D01*
X704816Y807834D01*
X704765Y807825D01*
X704701Y807792D01*
X704634Y807767D01*
X704593Y807735D01*
X704547Y807710D01*
X704498Y807658D01*
X704442Y807613D01*
X704414Y807570D01*
X704378Y807532D01*
X704348Y807467D01*
X704309Y807406D01*
X704296Y807356D01*
X704274Y807309D01*
X704266Y807237D01*
X704249Y807168D01*
X704253Y807116D01*
X704247Y807064D01*
X704262Y806994D01*
X704268Y806923D01*
X704288Y806875D01*
X704299Y806824D01*
X704336Y806762D01*
X704364Y806696D01*
X704409Y806640D01*
X704426Y806613D01*
X704443Y806598D01*
X704469Y806565D01*
X708009Y803026D01*
X710381Y797299D01*
X710381Y791101D01*
X708939Y787619D01*
X708924Y787556D01*
X708899Y787495D01*
X708890Y787412D01*
X708883Y787380D01*
X708884Y787361D01*
X708881Y787328D01*
X708881Y733198D01*
X708895Y733108D01*
X708903Y733017D01*
X708915Y732987D01*
X708920Y732955D01*
X708963Y732874D01*
X708999Y732790D01*
X709025Y732758D01*
X709036Y732738D01*
X709059Y732715D01*
X709104Y732659D01*
X798009Y643754D01*
X798083Y643701D01*
X798153Y643641D01*
X798183Y643629D01*
X798209Y643610D01*
X798296Y643583D01*
X798381Y643549D01*
X798422Y643545D01*
X798444Y643538D01*
X798476Y643539D01*
X798548Y643531D01*
X810905Y643531D01*
X813881Y640555D01*
X813881Y610945D01*
X810905Y607969D01*
X781295Y607969D01*
X778319Y610945D01*
X778319Y623302D01*
X778305Y623392D01*
X778297Y623483D01*
X778285Y623513D01*
X778280Y623545D01*
X778237Y623626D01*
X778201Y623710D01*
X778175Y623742D01*
X778164Y623762D01*
X778141Y623785D01*
X778096Y623841D01*
X687100Y714837D01*
X687042Y714878D01*
X686990Y714928D01*
X686943Y714950D01*
X686901Y714980D01*
X686832Y715001D01*
X686767Y715031D01*
X686715Y715037D01*
X686665Y715052D01*
X686594Y715051D01*
X686523Y715059D01*
X686472Y715047D01*
X686420Y715046D01*
X686352Y715021D01*
X686282Y715006D01*
X686238Y714980D01*
X686189Y714962D01*
X686133Y714917D01*
X686071Y714880D01*
X686037Y714841D01*
X685997Y714808D01*
X685958Y714748D01*
X685911Y714693D01*
X685892Y714645D01*
X685864Y714601D01*
X685846Y714532D01*
X685819Y714465D01*
X685811Y714394D01*
X685803Y714363D01*
X685805Y714339D01*
X685801Y714298D01*
X685801Y678405D01*
X685815Y678315D01*
X685823Y678224D01*
X685835Y678194D01*
X685840Y678162D01*
X685883Y678082D01*
X685919Y677998D01*
X685945Y677966D01*
X685956Y677945D01*
X685979Y677923D01*
X686024Y677867D01*
X781257Y582633D01*
X783401Y577458D01*
X783401Y482105D01*
X783402Y482098D01*
X783402Y482097D01*
X783403Y482092D01*
X783415Y482015D01*
X783423Y481924D01*
X783435Y481894D01*
X783440Y481862D01*
X783483Y481782D01*
X783519Y481698D01*
X783545Y481666D01*
X783556Y481645D01*
X783579Y481623D01*
X783624Y481567D01*
X801876Y463315D01*
X801934Y463273D01*
X801986Y463224D01*
X802033Y463202D01*
X802075Y463171D01*
X802144Y463150D01*
X802209Y463120D01*
X802261Y463114D01*
X802311Y463099D01*
X802382Y463101D01*
X802453Y463093D01*
X802504Y463104D01*
X802556Y463105D01*
X802624Y463130D01*
X802694Y463145D01*
X802739Y463172D01*
X802787Y463190D01*
X802843Y463235D01*
X802905Y463271D01*
X802939Y463311D01*
X802979Y463343D01*
X803018Y463404D01*
X803065Y463458D01*
X803084Y463506D01*
X803112Y463550D01*
X803130Y463620D01*
X803145Y463656D01*
X803147Y463661D01*
X803147Y463663D01*
X803157Y463686D01*
X803165Y463758D01*
X803173Y463789D01*
X803171Y463812D01*
X803175Y463853D01*
X803175Y468579D01*
X805341Y473808D01*
X809342Y477809D01*
X814571Y479975D01*
X820229Y479975D01*
X825458Y477809D01*
X829459Y473808D01*
X831625Y468579D01*
X831625Y462921D01*
X829459Y457692D01*
X825458Y453691D01*
X820229Y451525D01*
X814571Y451525D01*
X812115Y452542D01*
X812045Y452559D01*
X811978Y452584D01*
X811926Y452587D01*
X811876Y452598D01*
X811804Y452592D01*
X811733Y452595D01*
X811683Y452580D01*
X811631Y452575D01*
X811565Y452546D01*
X811496Y452526D01*
X811454Y452497D01*
X811406Y452475D01*
X811353Y452427D01*
X811294Y452386D01*
X811263Y452344D01*
X811225Y452309D01*
X811190Y452246D01*
X811148Y452189D01*
X811132Y452139D01*
X811106Y452093D01*
X811094Y452023D01*
X811071Y451955D01*
X811072Y451903D01*
X811063Y451851D01*
X811073Y451780D01*
X811074Y451709D01*
X811094Y451640D01*
X811098Y451608D01*
X811109Y451587D01*
X811121Y451548D01*
X811481Y450678D01*
X811481Y424292D01*
X811484Y424272D01*
X811482Y424253D01*
X811504Y424151D01*
X811520Y424049D01*
X811530Y424032D01*
X811534Y424012D01*
X811587Y423923D01*
X811636Y423832D01*
X811650Y423818D01*
X811660Y423801D01*
X811739Y423734D01*
X811814Y423662D01*
X811832Y423654D01*
X811847Y423641D01*
X811943Y423602D01*
X812037Y423559D01*
X812057Y423557D01*
X812075Y423549D01*
X812200Y423535D01*
X815181Y420555D01*
X815181Y390945D01*
X812205Y387969D01*
X782595Y387969D01*
X779619Y390945D01*
X779619Y420555D01*
X782597Y423532D01*
X782699Y423554D01*
X782801Y423570D01*
X782818Y423580D01*
X782838Y423584D01*
X782927Y423637D01*
X783018Y423686D01*
X783032Y423700D01*
X783049Y423710D01*
X783116Y423789D01*
X783188Y423864D01*
X783196Y423882D01*
X783209Y423897D01*
X783248Y423993D01*
X783291Y424087D01*
X783293Y424107D01*
X783301Y424125D01*
X783319Y424292D01*
X783319Y441730D01*
X783305Y441820D01*
X783297Y441911D01*
X783285Y441940D01*
X783280Y441972D01*
X783237Y442053D01*
X783201Y442137D01*
X783175Y442169D01*
X783164Y442190D01*
X783141Y442212D01*
X783096Y442268D01*
X757383Y467981D01*
X755239Y473156D01*
X755239Y568510D01*
X755225Y568600D01*
X755217Y568691D01*
X755205Y568720D01*
X755200Y568752D01*
X755157Y568833D01*
X755121Y568917D01*
X755095Y568949D01*
X755084Y568970D01*
X755061Y568992D01*
X755016Y569048D01*
X659783Y664281D01*
X657639Y669456D01*
X657639Y721132D01*
X657625Y721222D01*
X657617Y721313D01*
X657605Y721343D01*
X657600Y721375D01*
X657557Y721456D01*
X657521Y721540D01*
X657495Y721572D01*
X657484Y721592D01*
X657461Y721615D01*
X657416Y721671D01*
X599703Y779384D01*
X599649Y779422D01*
X599603Y779468D01*
X599530Y779509D01*
X599503Y779528D01*
X599484Y779533D01*
X599456Y779549D01*
X595974Y780991D01*
X591591Y785374D01*
X589219Y791101D01*
X589219Y797299D01*
X591591Y803026D01*
X595131Y806565D01*
X595173Y806624D01*
X595222Y806676D01*
X595244Y806723D01*
X595275Y806765D01*
X595296Y806834D01*
X595326Y806899D01*
X595332Y806950D01*
X595347Y807000D01*
X595345Y807072D01*
X595353Y807143D01*
X595342Y807194D01*
X595341Y807246D01*
X595316Y807313D01*
X595301Y807384D01*
X595274Y807428D01*
X595256Y807477D01*
X595211Y807533D01*
X595174Y807595D01*
X595135Y807629D01*
X595102Y807669D01*
X595042Y807708D01*
X594988Y807755D01*
X594939Y807774D01*
X594895Y807802D01*
X594826Y807820D01*
X594759Y807847D01*
X594688Y807854D01*
X594657Y807862D01*
X594634Y807860D01*
X594593Y807865D01*
X576001Y807865D01*
X575911Y807850D01*
X575820Y807843D01*
X575790Y807830D01*
X575758Y807825D01*
X575678Y807783D01*
X575594Y807747D01*
X575562Y807721D01*
X575541Y807710D01*
X575519Y807687D01*
X575463Y807642D01*
X546351Y778530D01*
X539947Y774833D01*
X532805Y772919D01*
X441942Y772919D01*
X441922Y772916D01*
X441903Y772918D01*
X441801Y772896D01*
X441699Y772880D01*
X441682Y772870D01*
X441662Y772866D01*
X441573Y772813D01*
X441482Y772764D01*
X441468Y772750D01*
X441451Y772740D01*
X441384Y772661D01*
X441312Y772586D01*
X441304Y772568D01*
X441291Y772553D01*
X441252Y772457D01*
X441209Y772363D01*
X441207Y772343D01*
X441199Y772325D01*
X441181Y772158D01*
X441181Y724695D01*
X439646Y720990D01*
X370759Y652102D01*
X370706Y652028D01*
X370646Y651959D01*
X370634Y651929D01*
X370615Y651903D01*
X370588Y651816D01*
X370554Y651731D01*
X370550Y651690D01*
X370543Y651668D01*
X370544Y651635D01*
X370536Y651564D01*
X370536Y642440D01*
X367560Y639464D01*
X346840Y639464D01*
X343864Y642440D01*
X343864Y648957D01*
X343864Y648961D01*
X343864Y648965D01*
X343844Y649082D01*
X343825Y649200D01*
X343823Y649203D01*
X343822Y649207D01*
X343765Y649312D01*
X343709Y649417D01*
X343707Y649420D01*
X343705Y649423D01*
X343617Y649504D01*
X343531Y649586D01*
X343527Y649588D01*
X343525Y649591D01*
X343416Y649640D01*
X343308Y649690D01*
X343304Y649690D01*
X343300Y649692D01*
X343181Y649704D01*
X343064Y649717D01*
X343060Y649716D01*
X343056Y649717D01*
X342940Y649690D01*
X342823Y649665D01*
X342820Y649663D01*
X342816Y649662D01*
X342715Y649600D01*
X342612Y649539D01*
X342610Y649536D01*
X342606Y649534D01*
X342530Y649443D01*
X342452Y649352D01*
X342451Y649348D01*
X342448Y649345D01*
X342379Y649192D01*
X342205Y648656D01*
X341433Y647142D01*
X340434Y645767D01*
X339233Y644566D01*
X337858Y643567D01*
X336344Y642795D01*
X334728Y642270D01*
X333723Y642111D01*
X333723Y652038D01*
X333720Y652058D01*
X333722Y652077D01*
X333700Y652179D01*
X333683Y652281D01*
X333674Y652298D01*
X333670Y652318D01*
X333617Y652407D01*
X333568Y652498D01*
X333554Y652512D01*
X333544Y652529D01*
X333465Y652596D01*
X333390Y652667D01*
X333372Y652676D01*
X333357Y652689D01*
X333261Y652727D01*
X333167Y652771D01*
X333147Y652773D01*
X333129Y652781D01*
X332962Y652799D01*
X332199Y652799D01*
X332199Y652801D01*
X332962Y652801D01*
X332982Y652804D01*
X333001Y652802D01*
X333103Y652824D01*
X333205Y652841D01*
X333222Y652850D01*
X333242Y652854D01*
X333331Y652907D01*
X333422Y652956D01*
X333436Y652970D01*
X333453Y652980D01*
X333520Y653059D01*
X333591Y653134D01*
X333600Y653152D01*
X333613Y653167D01*
X333652Y653263D01*
X333695Y653357D01*
X333697Y653377D01*
X333705Y653395D01*
X333723Y653562D01*
X333723Y663489D01*
X334728Y663330D01*
X336344Y662805D01*
X337858Y662033D01*
X339233Y661034D01*
X340434Y659833D01*
X341433Y658458D01*
X342205Y656944D01*
X342379Y656408D01*
X342381Y656404D01*
X342382Y656400D01*
X342437Y656296D01*
X342492Y656189D01*
X342495Y656186D01*
X342497Y656183D01*
X342583Y656101D01*
X342668Y656018D01*
X342672Y656016D01*
X342675Y656014D01*
X342783Y655964D01*
X342890Y655912D01*
X342894Y655912D01*
X342898Y655910D01*
X343015Y655897D01*
X343135Y655882D01*
X343139Y655883D01*
X343142Y655883D01*
X343258Y655908D01*
X343375Y655932D01*
X343379Y655934D01*
X343383Y655935D01*
X343485Y655996D01*
X343588Y656056D01*
X343591Y656059D01*
X343594Y656061D01*
X343672Y656152D01*
X343750Y656241D01*
X343751Y656245D01*
X343754Y656248D01*
X343799Y656359D01*
X343844Y656469D01*
X343844Y656473D01*
X343846Y656476D01*
X343864Y656643D01*
X343864Y663160D01*
X346840Y666136D01*
X355964Y666136D01*
X356054Y666150D01*
X356145Y666158D01*
X356175Y666170D01*
X356207Y666175D01*
X356288Y666218D01*
X356371Y666254D01*
X356404Y666280D01*
X356424Y666291D01*
X356446Y666314D01*
X356502Y666359D01*
X420796Y730653D01*
X420849Y730727D01*
X420909Y730796D01*
X420921Y730826D01*
X420940Y730852D01*
X420967Y730939D01*
X421001Y731024D01*
X421005Y731065D01*
X421012Y731087D01*
X421011Y731120D01*
X421019Y731191D01*
X421019Y774046D01*
X421012Y774089D01*
X421014Y774133D01*
X420992Y774210D01*
X420980Y774288D01*
X420959Y774327D01*
X420947Y774369D01*
X420902Y774435D01*
X420864Y774506D01*
X420833Y774536D01*
X420808Y774572D01*
X420744Y774620D01*
X420686Y774675D01*
X420646Y774694D01*
X420611Y774720D01*
X420475Y774773D01*
X420463Y774779D01*
X420460Y774779D01*
X420455Y774781D01*
X420261Y774833D01*
X413858Y778530D01*
X408630Y783758D01*
X404933Y790161D01*
X403019Y797303D01*
X403019Y804697D01*
X404933Y811839D01*
X407227Y815812D01*
X407242Y815853D01*
X407266Y815890D01*
X407286Y815968D01*
X407314Y816042D01*
X407316Y816086D01*
X407326Y816129D01*
X407320Y816208D01*
X407323Y816288D01*
X407311Y816330D01*
X407307Y816374D01*
X407276Y816447D01*
X407253Y816524D01*
X407228Y816560D01*
X407211Y816600D01*
X407120Y816714D01*
X407112Y816725D01*
X407109Y816727D01*
X407106Y816731D01*
X344177Y879660D01*
X344103Y879713D01*
X344033Y879773D01*
X344003Y879785D01*
X343977Y879804D01*
X343890Y879831D01*
X343805Y879865D01*
X343764Y879869D01*
X343742Y879876D01*
X343710Y879875D01*
X343639Y879883D01*
X164361Y879883D01*
X164271Y879869D01*
X164180Y879861D01*
X164151Y879849D01*
X164119Y879844D01*
X164038Y879801D01*
X163954Y879765D01*
X163922Y879739D01*
X163901Y879728D01*
X163879Y879705D01*
X163823Y879660D01*
X155903Y871741D01*
X155836Y871646D01*
X155765Y871552D01*
X155764Y871546D01*
X155760Y871541D01*
X155726Y871430D01*
X155689Y871318D01*
X155689Y871312D01*
X155688Y871306D01*
X155691Y871189D01*
X155692Y871072D01*
X155694Y871065D01*
X155694Y871060D01*
X155700Y871042D01*
X155738Y870911D01*
X156801Y868346D01*
X156801Y848054D01*
X154867Y843386D01*
X151294Y839813D01*
X146626Y837879D01*
X141574Y837879D01*
X136906Y839813D01*
X133333Y843386D01*
X131399Y848054D01*
X131399Y868346D01*
X133333Y873014D01*
X136906Y876587D01*
X141574Y878521D01*
X145843Y878521D01*
X145933Y878535D01*
X146024Y878543D01*
X146053Y878555D01*
X146085Y878560D01*
X146166Y878603D01*
X146250Y878639D01*
X146282Y878665D01*
X146303Y878676D01*
X146325Y878699D01*
X146381Y878744D01*
X155415Y887778D01*
X155457Y887836D01*
X155506Y887888D01*
X155528Y887935D01*
X155558Y887977D01*
X155579Y888046D01*
X155610Y888111D01*
X155615Y888163D01*
X155631Y888213D01*
X155629Y888284D01*
X155637Y888355D01*
X155626Y888406D01*
X155624Y888458D01*
X155600Y888526D01*
X155585Y888596D01*
X155558Y888640D01*
X155540Y888689D01*
X155495Y888745D01*
X155458Y888807D01*
X155419Y888841D01*
X155386Y888881D01*
X155326Y888920D01*
X155271Y888967D01*
X155223Y888986D01*
X155179Y889014D01*
X155110Y889032D01*
X155043Y889059D01*
X154972Y889067D01*
X154941Y889075D01*
X154918Y889073D01*
X154877Y889077D01*
X-8316Y889077D01*
X-8336Y889074D01*
X-8355Y889076D01*
X-8457Y889054D01*
X-8559Y889038D01*
X-8576Y889028D01*
X-8596Y889024D01*
X-8685Y888971D01*
X-8776Y888922D01*
X-8790Y888908D01*
X-8807Y888898D01*
X-8874Y888819D01*
X-8946Y888744D01*
X-8954Y888726D01*
X-8967Y888711D01*
X-9006Y888615D01*
X-9049Y888521D01*
X-9051Y888501D01*
X-9059Y888483D01*
X-9077Y888316D01*
X-9077Y11684D01*
X-9074Y11664D01*
X-9076Y11645D01*
X-9054Y11543D01*
X-9038Y11441D01*
X-9028Y11424D01*
X-9024Y11404D01*
X-8971Y11315D01*
X-8922Y11224D01*
X-8908Y11210D01*
X-8898Y11193D01*
X-8819Y11126D01*
X-8744Y11054D01*
X-8726Y11046D01*
X-8711Y11033D01*
X-8615Y10994D01*
X-8521Y10951D01*
X-8501Y10949D01*
X-8483Y10941D01*
X-8316Y10923D01*
X391449Y10923D01*
X391520Y10934D01*
G37*
%LPC*%
G36*
X47827Y59077D02*
X47827Y59077D01*
X43813Y60740D01*
X40740Y63813D01*
X39077Y67827D01*
X39077Y72173D01*
X40077Y74587D01*
X40087Y74630D01*
X40103Y74663D01*
X40109Y74722D01*
X40133Y74814D01*
X40132Y74821D01*
X40134Y74827D01*
X40128Y74888D01*
X40130Y74907D01*
X40123Y74939D01*
X40123Y74943D01*
X40114Y75060D01*
X40111Y75065D01*
X40110Y75072D01*
X40078Y75143D01*
X40078Y75148D01*
X40074Y75154D01*
X40063Y75179D01*
X40017Y75286D01*
X40013Y75292D01*
X40010Y75296D01*
X39998Y75310D01*
X39912Y75417D01*
X35013Y80316D01*
X35013Y150808D01*
X43841Y159635D01*
X43853Y159652D01*
X43868Y159664D01*
X43924Y159751D01*
X43984Y159835D01*
X43990Y159854D01*
X44001Y159871D01*
X44026Y159971D01*
X44057Y160070D01*
X44056Y160090D01*
X44061Y160109D01*
X44053Y160212D01*
X44050Y160316D01*
X44044Y160335D01*
X44042Y160355D01*
X44002Y160450D01*
X43966Y160547D01*
X43954Y160563D01*
X43946Y160581D01*
X43841Y160712D01*
X40740Y163813D01*
X39077Y167827D01*
X39077Y172173D01*
X40077Y174587D01*
X40104Y174701D01*
X40133Y174814D01*
X40132Y174821D01*
X40134Y174827D01*
X40123Y174943D01*
X40114Y175060D01*
X40111Y175065D01*
X40110Y175072D01*
X40063Y175179D01*
X40017Y175286D01*
X40013Y175292D01*
X40010Y175296D01*
X39998Y175310D01*
X39912Y175417D01*
X35013Y180316D01*
X35013Y250808D01*
X43841Y259635D01*
X43853Y259652D01*
X43868Y259664D01*
X43924Y259751D01*
X43984Y259835D01*
X43990Y259854D01*
X44001Y259871D01*
X44026Y259971D01*
X44057Y260070D01*
X44056Y260090D01*
X44061Y260109D01*
X44053Y260212D01*
X44050Y260316D01*
X44044Y260335D01*
X44042Y260355D01*
X44002Y260450D01*
X43966Y260547D01*
X43954Y260563D01*
X43946Y260581D01*
X43841Y260712D01*
X40740Y263813D01*
X39077Y267827D01*
X39077Y272173D01*
X40740Y276187D01*
X43813Y279260D01*
X47827Y280923D01*
X50736Y280923D01*
X50756Y280926D01*
X50775Y280924D01*
X50877Y280946D01*
X50979Y280962D01*
X50996Y280972D01*
X51016Y280976D01*
X51105Y281029D01*
X51196Y281078D01*
X51210Y281092D01*
X51227Y281102D01*
X51294Y281181D01*
X51366Y281256D01*
X51374Y281274D01*
X51387Y281289D01*
X51426Y281385D01*
X51469Y281479D01*
X51471Y281499D01*
X51479Y281517D01*
X51497Y281684D01*
X51497Y357917D01*
X51483Y358007D01*
X51475Y358098D01*
X51463Y358127D01*
X51458Y358159D01*
X51415Y358240D01*
X51379Y358324D01*
X51353Y358356D01*
X51342Y358377D01*
X51319Y358399D01*
X51274Y358455D01*
X40217Y369512D01*
X40122Y369581D01*
X40028Y369650D01*
X40022Y369652D01*
X40017Y369656D01*
X39905Y369690D01*
X39794Y369727D01*
X39788Y369726D01*
X39782Y369728D01*
X39665Y369725D01*
X39548Y369724D01*
X39541Y369722D01*
X39536Y369722D01*
X39519Y369716D01*
X39387Y369677D01*
X36973Y368677D01*
X32627Y368677D01*
X28613Y370340D01*
X25540Y373413D01*
X23877Y377427D01*
X23877Y381773D01*
X25540Y385787D01*
X28613Y388860D01*
X32627Y390523D01*
X36973Y390523D01*
X40987Y388860D01*
X44060Y385787D01*
X45723Y381773D01*
X45723Y377427D01*
X44723Y375013D01*
X44696Y374899D01*
X44667Y374786D01*
X44668Y374779D01*
X44666Y374773D01*
X44677Y374657D01*
X44686Y374540D01*
X44689Y374535D01*
X44689Y374528D01*
X44737Y374421D01*
X44783Y374314D01*
X44787Y374308D01*
X44789Y374304D01*
X44802Y374290D01*
X44888Y374183D01*
X55945Y363126D01*
X58103Y360968D01*
X58103Y277660D01*
X58117Y277570D01*
X58125Y277479D01*
X58137Y277449D01*
X58142Y277417D01*
X58185Y277336D01*
X58221Y277252D01*
X58247Y277220D01*
X58258Y277200D01*
X58281Y277177D01*
X58326Y277121D01*
X59260Y276187D01*
X60923Y272173D01*
X60923Y267827D01*
X59260Y263813D01*
X56187Y260740D01*
X53084Y259455D01*
X53028Y259420D01*
X52968Y259394D01*
X52903Y259342D01*
X52875Y259325D01*
X52862Y259310D01*
X52837Y259290D01*
X50369Y256822D01*
X50328Y256764D01*
X50278Y256712D01*
X50256Y256665D01*
X50226Y256623D01*
X50205Y256554D01*
X50174Y256489D01*
X50169Y256437D01*
X50153Y256387D01*
X50155Y256316D01*
X50147Y256245D01*
X50158Y256194D01*
X50160Y256142D01*
X50184Y256074D01*
X50200Y256004D01*
X50226Y255960D01*
X50244Y255911D01*
X50289Y255855D01*
X50326Y255793D01*
X50365Y255759D01*
X50398Y255719D01*
X50458Y255680D01*
X50513Y255633D01*
X50561Y255614D01*
X50605Y255586D01*
X50674Y255568D01*
X50741Y255541D01*
X50812Y255533D01*
X50843Y255525D01*
X50867Y255527D01*
X50908Y255523D01*
X52173Y255523D01*
X56187Y253860D01*
X59260Y250787D01*
X60260Y248373D01*
X60322Y248273D01*
X60382Y248173D01*
X60386Y248169D01*
X60390Y248164D01*
X60479Y248089D01*
X60568Y248013D01*
X60574Y248011D01*
X60579Y248007D01*
X60687Y247965D01*
X60797Y247921D01*
X60804Y247920D01*
X60809Y247919D01*
X60827Y247918D01*
X60963Y247903D01*
X78368Y247903D01*
X84445Y241826D01*
X84519Y241773D01*
X84588Y241713D01*
X84619Y241701D01*
X84645Y241682D01*
X84732Y241655D01*
X84817Y241621D01*
X84858Y241617D01*
X84880Y241610D01*
X84912Y241611D01*
X84983Y241603D01*
X99868Y241603D01*
X113083Y228388D01*
X113177Y228320D01*
X113272Y228250D01*
X113278Y228248D01*
X113283Y228244D01*
X113394Y228210D01*
X113506Y228173D01*
X113512Y228174D01*
X113518Y228172D01*
X113635Y228175D01*
X113752Y228176D01*
X113759Y228178D01*
X113764Y228178D01*
X113781Y228184D01*
X113913Y228223D01*
X116327Y229223D01*
X120673Y229223D01*
X124687Y227560D01*
X127760Y224487D01*
X128760Y222073D01*
X128822Y221973D01*
X128882Y221873D01*
X128886Y221869D01*
X128890Y221864D01*
X128979Y221789D01*
X129068Y221713D01*
X129074Y221711D01*
X129079Y221707D01*
X129187Y221665D01*
X129297Y221621D01*
X129304Y221620D01*
X129309Y221619D01*
X129327Y221618D01*
X129463Y221603D01*
X176493Y221603D01*
X176583Y221617D01*
X176674Y221625D01*
X176704Y221637D01*
X176736Y221642D01*
X176816Y221685D01*
X176900Y221721D01*
X176932Y221747D01*
X176953Y221758D01*
X176975Y221781D01*
X177031Y221826D01*
X188492Y233287D01*
X202888Y233287D01*
X202908Y233290D01*
X202927Y233288D01*
X203029Y233310D01*
X203131Y233326D01*
X203148Y233336D01*
X203168Y233340D01*
X203257Y233393D01*
X203348Y233442D01*
X203362Y233456D01*
X203379Y233466D01*
X203446Y233545D01*
X203518Y233620D01*
X203526Y233638D01*
X203539Y233653D01*
X203578Y233749D01*
X203621Y233843D01*
X203623Y233863D01*
X203631Y233881D01*
X203649Y234048D01*
X203649Y434792D01*
X203635Y434882D01*
X203627Y434973D01*
X203615Y435003D01*
X203610Y435035D01*
X203567Y435116D01*
X203531Y435200D01*
X203505Y435232D01*
X203494Y435252D01*
X203471Y435275D01*
X203426Y435331D01*
X191352Y447405D01*
X191294Y447446D01*
X191242Y447496D01*
X191195Y447518D01*
X191153Y447548D01*
X191084Y447569D01*
X191019Y447599D01*
X190967Y447605D01*
X190917Y447621D01*
X190846Y447619D01*
X190775Y447627D01*
X190724Y447615D01*
X190672Y447614D01*
X190604Y447590D01*
X190534Y447574D01*
X190489Y447548D01*
X190441Y447530D01*
X190385Y447485D01*
X190323Y447448D01*
X190289Y447409D01*
X190249Y447376D01*
X190210Y447316D01*
X190163Y447261D01*
X190144Y447213D01*
X190116Y447169D01*
X190098Y447100D01*
X190071Y447033D01*
X190063Y446962D01*
X190055Y446931D01*
X190057Y446907D01*
X190053Y446866D01*
X190053Y446380D01*
X188583Y442832D01*
X185868Y440117D01*
X182320Y438647D01*
X178480Y438647D01*
X174932Y440117D01*
X172217Y442832D01*
X170747Y446380D01*
X170747Y450220D01*
X172217Y453768D01*
X174932Y456483D01*
X178480Y457953D01*
X178966Y457953D01*
X179037Y457964D01*
X179109Y457966D01*
X179158Y457984D01*
X179209Y457992D01*
X179272Y458026D01*
X179340Y458051D01*
X179380Y458083D01*
X179426Y458108D01*
X179476Y458160D01*
X179532Y458204D01*
X179560Y458248D01*
X179596Y458286D01*
X179626Y458351D01*
X179665Y458411D01*
X179678Y458462D01*
X179699Y458509D01*
X179707Y458580D01*
X179725Y458650D01*
X179721Y458702D01*
X179727Y458753D01*
X179711Y458824D01*
X179706Y458895D01*
X179685Y458943D01*
X179674Y458994D01*
X179637Y459055D01*
X179609Y459121D01*
X179565Y459177D01*
X179548Y459205D01*
X179530Y459220D01*
X179505Y459252D01*
X177097Y461660D01*
X177097Y464111D01*
X177078Y464226D01*
X177061Y464342D01*
X177059Y464348D01*
X177058Y464354D01*
X177003Y464457D01*
X176950Y464562D01*
X176945Y464566D01*
X176942Y464571D01*
X176858Y464651D01*
X176774Y464734D01*
X176768Y464737D01*
X176764Y464741D01*
X176747Y464749D01*
X176627Y464815D01*
X174932Y465517D01*
X172217Y468232D01*
X170747Y471780D01*
X170747Y475620D01*
X172217Y479168D01*
X174932Y481883D01*
X178480Y483353D01*
X182320Y483353D01*
X185868Y481883D01*
X188583Y479168D01*
X190053Y475620D01*
X190053Y471780D01*
X188583Y468232D01*
X185868Y465517D01*
X184597Y464990D01*
X184558Y464966D01*
X184515Y464950D01*
X184454Y464902D01*
X184388Y464861D01*
X184358Y464825D01*
X184322Y464797D01*
X184280Y464731D01*
X184231Y464671D01*
X184214Y464628D01*
X184189Y464590D01*
X184170Y464514D01*
X184143Y464442D01*
X184141Y464396D01*
X184129Y464351D01*
X184135Y464274D01*
X184132Y464196D01*
X184145Y464152D01*
X184149Y464106D01*
X184179Y464034D01*
X184201Y463960D01*
X184227Y463922D01*
X184245Y463880D01*
X184330Y463773D01*
X184341Y463758D01*
X184345Y463755D01*
X184350Y463749D01*
X208097Y440001D01*
X210255Y437844D01*
X210255Y228632D01*
X208304Y226681D01*
X204862Y226681D01*
X204850Y226679D01*
X204838Y226681D01*
X204729Y226660D01*
X204619Y226642D01*
X204608Y226636D01*
X204597Y226634D01*
X204500Y226579D01*
X204402Y226526D01*
X204393Y226518D01*
X204383Y226512D01*
X204309Y226429D01*
X204232Y226348D01*
X204227Y226337D01*
X204219Y226328D01*
X204176Y226226D01*
X204129Y226125D01*
X204127Y226113D01*
X204123Y226102D01*
X204114Y225991D01*
X204102Y225881D01*
X204104Y225869D01*
X204103Y225857D01*
X204130Y225749D01*
X204154Y225640D01*
X204160Y225630D01*
X204163Y225618D01*
X204246Y225473D01*
X204911Y224557D01*
X205764Y222883D01*
X206345Y221096D01*
X206522Y219978D01*
X206526Y219967D01*
X206526Y219955D01*
X206564Y219850D01*
X206599Y219745D01*
X206606Y219735D01*
X206610Y219724D01*
X206680Y219637D01*
X206747Y219548D01*
X206757Y219541D01*
X206764Y219532D01*
X206858Y219472D01*
X206949Y219409D01*
X206961Y219405D01*
X206971Y219399D01*
X207079Y219372D01*
X207186Y219341D01*
X207198Y219342D01*
X207209Y219339D01*
X207320Y219347D01*
X207432Y219353D01*
X207443Y219357D01*
X207455Y219358D01*
X207557Y219401D01*
X207661Y219442D01*
X207670Y219450D01*
X207681Y219454D01*
X207812Y219559D01*
X216474Y228221D01*
X216527Y228295D01*
X216587Y228365D01*
X216599Y228395D01*
X216618Y228421D01*
X216645Y228508D01*
X216679Y228593D01*
X216683Y228634D01*
X216690Y228656D01*
X216689Y228688D01*
X216697Y228760D01*
X216697Y599544D01*
X216683Y599634D01*
X216675Y599725D01*
X216663Y599755D01*
X216658Y599787D01*
X216615Y599868D01*
X216579Y599952D01*
X216553Y599984D01*
X216542Y600004D01*
X216519Y600027D01*
X216474Y600083D01*
X191352Y625205D01*
X191294Y625246D01*
X191242Y625296D01*
X191195Y625318D01*
X191153Y625348D01*
X191084Y625369D01*
X191019Y625399D01*
X190967Y625405D01*
X190917Y625421D01*
X190846Y625419D01*
X190775Y625427D01*
X190724Y625415D01*
X190672Y625414D01*
X190604Y625390D01*
X190534Y625374D01*
X190489Y625348D01*
X190441Y625330D01*
X190385Y625285D01*
X190323Y625248D01*
X190289Y625209D01*
X190249Y625176D01*
X190210Y625116D01*
X190163Y625061D01*
X190144Y625013D01*
X190116Y624969D01*
X190098Y624900D01*
X190071Y624833D01*
X190063Y624762D01*
X190055Y624731D01*
X190057Y624707D01*
X190053Y624666D01*
X190053Y624180D01*
X188583Y620632D01*
X185868Y617917D01*
X182320Y616447D01*
X178480Y616447D01*
X174932Y617917D01*
X172217Y620632D01*
X170747Y624180D01*
X170747Y628020D01*
X172217Y631568D01*
X174932Y634283D01*
X178480Y635753D01*
X178966Y635753D01*
X179037Y635764D01*
X179109Y635766D01*
X179158Y635784D01*
X179209Y635792D01*
X179272Y635826D01*
X179340Y635851D01*
X179380Y635883D01*
X179426Y635908D01*
X179476Y635960D01*
X179532Y636004D01*
X179560Y636048D01*
X179596Y636086D01*
X179626Y636151D01*
X179665Y636211D01*
X179678Y636262D01*
X179699Y636309D01*
X179707Y636380D01*
X179725Y636450D01*
X179721Y636502D01*
X179727Y636553D01*
X179711Y636624D01*
X179706Y636695D01*
X179685Y636743D01*
X179674Y636794D01*
X179638Y636855D01*
X179609Y636921D01*
X179565Y636977D01*
X179548Y637005D01*
X179530Y637020D01*
X179505Y637052D01*
X177097Y639460D01*
X177097Y641911D01*
X177078Y642026D01*
X177061Y642142D01*
X177059Y642148D01*
X177058Y642154D01*
X177003Y642257D01*
X176950Y642362D01*
X176945Y642366D01*
X176942Y642371D01*
X176858Y642451D01*
X176774Y642534D01*
X176768Y642537D01*
X176764Y642541D01*
X176747Y642549D01*
X176627Y642615D01*
X174932Y643317D01*
X172217Y646032D01*
X170747Y649580D01*
X170747Y653420D01*
X172217Y656968D01*
X174932Y659683D01*
X178480Y661153D01*
X182320Y661153D01*
X185868Y659683D01*
X188583Y656968D01*
X190053Y653420D01*
X190053Y649580D01*
X188583Y646032D01*
X185868Y643317D01*
X184597Y642790D01*
X184558Y642766D01*
X184515Y642750D01*
X184454Y642702D01*
X184388Y642661D01*
X184358Y642625D01*
X184323Y642597D01*
X184280Y642531D01*
X184231Y642471D01*
X184214Y642428D01*
X184190Y642390D01*
X184170Y642314D01*
X184143Y642242D01*
X184141Y642196D01*
X184129Y642151D01*
X184135Y642074D01*
X184132Y641996D01*
X184145Y641952D01*
X184149Y641906D01*
X184179Y641834D01*
X184201Y641760D01*
X184227Y641722D01*
X184245Y641680D01*
X184330Y641573D01*
X184341Y641558D01*
X184345Y641555D01*
X184350Y641549D01*
X223303Y602596D01*
X223303Y225708D01*
X200908Y203313D01*
X166899Y203313D01*
X166809Y203299D01*
X166718Y203291D01*
X166689Y203279D01*
X166657Y203274D01*
X166576Y203231D01*
X166492Y203195D01*
X166460Y203169D01*
X166439Y203158D01*
X166417Y203135D01*
X166361Y203090D01*
X126988Y163717D01*
X126921Y163624D01*
X126899Y163601D01*
X126891Y163583D01*
X126850Y163528D01*
X126848Y163522D01*
X126844Y163517D01*
X126813Y163416D01*
X126795Y163378D01*
X126792Y163352D01*
X126773Y163294D01*
X126774Y163288D01*
X126772Y163282D01*
X126774Y163188D01*
X126768Y163133D01*
X126775Y163100D01*
X126776Y163048D01*
X126778Y163041D01*
X126778Y163036D01*
X126784Y163019D01*
X126819Y162901D01*
X126820Y162893D01*
X126821Y162891D01*
X126823Y162887D01*
X127823Y160473D01*
X127823Y156127D01*
X126160Y152113D01*
X123087Y149040D01*
X119073Y147377D01*
X114727Y147377D01*
X110713Y149040D01*
X107640Y152113D01*
X107415Y152656D01*
X107391Y152695D01*
X107375Y152738D01*
X107327Y152799D01*
X107286Y152865D01*
X107250Y152894D01*
X107222Y152930D01*
X107156Y152972D01*
X107096Y153022D01*
X107053Y153038D01*
X107015Y153063D01*
X106939Y153082D01*
X106866Y153110D01*
X106821Y153112D01*
X106776Y153123D01*
X106699Y153117D01*
X106621Y153120D01*
X106577Y153108D01*
X106531Y153104D01*
X106459Y153074D01*
X106385Y153052D01*
X106347Y153026D01*
X106305Y153008D01*
X106198Y152922D01*
X106182Y152912D01*
X106179Y152908D01*
X106174Y152903D01*
X100426Y147155D01*
X98268Y144997D01*
X81683Y144997D01*
X81593Y144983D01*
X81502Y144975D01*
X81473Y144963D01*
X81441Y144958D01*
X81360Y144915D01*
X81276Y144879D01*
X81244Y144853D01*
X81223Y144842D01*
X81201Y144819D01*
X81145Y144774D01*
X77668Y141297D01*
X60963Y141297D01*
X60849Y141278D01*
X60732Y141261D01*
X60727Y141259D01*
X60721Y141258D01*
X60618Y141203D01*
X60513Y141150D01*
X60509Y141145D01*
X60503Y141142D01*
X60423Y141058D01*
X60341Y140974D01*
X60337Y140968D01*
X60334Y140964D01*
X60326Y140947D01*
X60260Y140827D01*
X59260Y138413D01*
X56187Y135340D01*
X52173Y133677D01*
X47827Y133677D01*
X43813Y135340D01*
X42918Y136235D01*
X42860Y136277D01*
X42808Y136326D01*
X42761Y136348D01*
X42719Y136378D01*
X42650Y136399D01*
X42585Y136430D01*
X42533Y136435D01*
X42483Y136451D01*
X42412Y136449D01*
X42341Y136457D01*
X42290Y136446D01*
X42238Y136444D01*
X42170Y136420D01*
X42100Y136404D01*
X42055Y136378D01*
X42007Y136360D01*
X41951Y136315D01*
X41889Y136278D01*
X41855Y136239D01*
X41815Y136206D01*
X41776Y136146D01*
X41729Y136091D01*
X41710Y136043D01*
X41682Y135999D01*
X41664Y135930D01*
X41637Y135863D01*
X41629Y135792D01*
X41621Y135761D01*
X41623Y135737D01*
X41619Y135696D01*
X41619Y83367D01*
X41633Y83277D01*
X41641Y83186D01*
X41653Y83157D01*
X41658Y83125D01*
X41701Y83044D01*
X41737Y82960D01*
X41763Y82928D01*
X41774Y82907D01*
X41797Y82885D01*
X41842Y82829D01*
X44583Y80088D01*
X44677Y80020D01*
X44772Y79950D01*
X44778Y79948D01*
X44783Y79944D01*
X44894Y79910D01*
X45006Y79873D01*
X45012Y79874D01*
X45018Y79872D01*
X45135Y79875D01*
X45252Y79876D01*
X45259Y79878D01*
X45264Y79878D01*
X45281Y79884D01*
X45413Y79923D01*
X47827Y80923D01*
X52173Y80923D01*
X56187Y79260D01*
X59260Y76187D01*
X60923Y72173D01*
X60923Y67827D01*
X59260Y63813D01*
X56187Y60740D01*
X52173Y59077D01*
X47827Y59077D01*
G37*
%LPD*%
%LPC*%
G36*
X47827Y33677D02*
X47827Y33677D01*
X43813Y35340D01*
X40740Y38413D01*
X39077Y42427D01*
X39077Y46773D01*
X40740Y50787D01*
X43813Y53860D01*
X47827Y55523D01*
X52173Y55523D01*
X56187Y53860D01*
X59260Y50787D01*
X60260Y48373D01*
X60322Y48273D01*
X60382Y48173D01*
X60386Y48169D01*
X60390Y48164D01*
X60479Y48089D01*
X60568Y48013D01*
X60574Y48011D01*
X60579Y48007D01*
X60687Y47965D01*
X60797Y47921D01*
X60804Y47920D01*
X60809Y47919D01*
X60827Y47918D01*
X60963Y47903D01*
X74617Y47903D01*
X74707Y47917D01*
X74798Y47925D01*
X74827Y47937D01*
X74859Y47942D01*
X74940Y47985D01*
X75024Y48021D01*
X75056Y48047D01*
X75077Y48058D01*
X75099Y48081D01*
X75155Y48126D01*
X82032Y55003D01*
X96817Y55003D01*
X96907Y55017D01*
X96998Y55025D01*
X97027Y55037D01*
X97059Y55042D01*
X97140Y55085D01*
X97224Y55121D01*
X97256Y55147D01*
X97277Y55158D01*
X97299Y55181D01*
X97355Y55226D01*
X118412Y76283D01*
X118480Y76377D01*
X118550Y76472D01*
X118552Y76478D01*
X118556Y76483D01*
X118590Y76594D01*
X118627Y76706D01*
X118626Y76712D01*
X118628Y76718D01*
X118625Y76835D01*
X118624Y76952D01*
X118622Y76959D01*
X118622Y76964D01*
X118616Y76981D01*
X118577Y77113D01*
X117577Y79527D01*
X117577Y83873D01*
X119240Y87887D01*
X122313Y90960D01*
X126327Y92623D01*
X130673Y92623D01*
X133087Y91623D01*
X133201Y91596D01*
X133314Y91567D01*
X133321Y91568D01*
X133327Y91566D01*
X133443Y91577D01*
X133560Y91586D01*
X133565Y91589D01*
X133572Y91590D01*
X133679Y91637D01*
X133786Y91683D01*
X133792Y91687D01*
X133796Y91690D01*
X133810Y91702D01*
X133917Y91788D01*
X188338Y146209D01*
X188347Y146222D01*
X188360Y146232D01*
X188419Y146322D01*
X188482Y146409D01*
X188486Y146424D01*
X188495Y146437D01*
X188522Y146541D01*
X188554Y146644D01*
X188554Y146660D01*
X188558Y146675D01*
X188550Y146782D01*
X188548Y146889D01*
X188542Y146904D01*
X188541Y146920D01*
X188500Y147019D01*
X188463Y147121D01*
X188453Y147133D01*
X188447Y147148D01*
X188377Y147229D01*
X188309Y147313D01*
X188296Y147321D01*
X188286Y147333D01*
X188145Y147425D01*
X186843Y148089D01*
X185322Y149194D01*
X183994Y150522D01*
X182889Y152043D01*
X182036Y153717D01*
X181455Y155504D01*
X181254Y156777D01*
X192338Y156777D01*
X192358Y156780D01*
X192377Y156778D01*
X192479Y156800D01*
X192581Y156817D01*
X192598Y156826D01*
X192618Y156830D01*
X192707Y156883D01*
X192798Y156932D01*
X192812Y156946D01*
X192829Y156956D01*
X192896Y157035D01*
X192967Y157110D01*
X192976Y157128D01*
X192989Y157143D01*
X193027Y157239D01*
X193071Y157333D01*
X193073Y157353D01*
X193081Y157371D01*
X193099Y157538D01*
X193099Y158301D01*
X193862Y158301D01*
X193882Y158304D01*
X193901Y158302D01*
X194003Y158324D01*
X194105Y158341D01*
X194122Y158350D01*
X194142Y158354D01*
X194231Y158407D01*
X194322Y158456D01*
X194336Y158470D01*
X194353Y158480D01*
X194420Y158559D01*
X194491Y158634D01*
X194500Y158652D01*
X194513Y158667D01*
X194552Y158763D01*
X194595Y158857D01*
X194597Y158877D01*
X194605Y158895D01*
X194623Y159062D01*
X194623Y170146D01*
X195896Y169945D01*
X197683Y169364D01*
X199357Y168511D01*
X200878Y167406D01*
X202206Y166078D01*
X203311Y164557D01*
X204164Y162883D01*
X204745Y161096D01*
X204922Y159978D01*
X204925Y159967D01*
X204926Y159955D01*
X204955Y159875D01*
X204961Y159848D01*
X204970Y159833D01*
X204999Y159745D01*
X205006Y159735D01*
X205010Y159724D01*
X205080Y159636D01*
X205147Y159548D01*
X205156Y159541D01*
X205164Y159532D01*
X205258Y159471D01*
X205349Y159409D01*
X205361Y159405D01*
X205371Y159399D01*
X205479Y159372D01*
X205586Y159341D01*
X205598Y159342D01*
X205609Y159339D01*
X205720Y159347D01*
X205832Y159353D01*
X205843Y159357D01*
X205855Y159358D01*
X205957Y159401D01*
X206061Y159442D01*
X206070Y159449D01*
X206081Y159454D01*
X206212Y159559D01*
X229522Y182869D01*
X229575Y182943D01*
X229635Y183013D01*
X229647Y183043D01*
X229666Y183069D01*
X229693Y183156D01*
X229727Y183241D01*
X229731Y183282D01*
X229738Y183304D01*
X229737Y183336D01*
X229745Y183408D01*
X229745Y647296D01*
X229731Y647386D01*
X229723Y647477D01*
X229711Y647507D01*
X229706Y647539D01*
X229663Y647620D01*
X229627Y647704D01*
X229601Y647736D01*
X229590Y647756D01*
X229567Y647779D01*
X229522Y647835D01*
X184369Y692987D01*
X184275Y693055D01*
X184181Y693125D01*
X184175Y693127D01*
X184170Y693131D01*
X184059Y693165D01*
X183947Y693202D01*
X183941Y693202D01*
X183935Y693203D01*
X183818Y693200D01*
X183701Y693199D01*
X183694Y693197D01*
X183689Y693197D01*
X183671Y693191D01*
X183540Y693153D01*
X182320Y692647D01*
X181578Y692647D01*
X181508Y692636D01*
X181436Y692634D01*
X181387Y692616D01*
X181336Y692608D01*
X181272Y692574D01*
X181205Y692549D01*
X181164Y692517D01*
X181118Y692492D01*
X181069Y692440D01*
X181013Y692396D01*
X180985Y692352D01*
X180949Y692314D01*
X180919Y692249D01*
X180880Y692189D01*
X180867Y692138D01*
X180845Y692091D01*
X180837Y692020D01*
X180820Y691950D01*
X180824Y691898D01*
X180818Y691847D01*
X180833Y691776D01*
X180839Y691705D01*
X180859Y691657D01*
X180870Y691606D01*
X180907Y691545D01*
X180935Y691479D01*
X180980Y691423D01*
X180997Y691395D01*
X181014Y691380D01*
X181040Y691348D01*
X183703Y688685D01*
X183703Y686489D01*
X183722Y686374D01*
X183739Y686258D01*
X183741Y686252D01*
X183742Y686246D01*
X183797Y686143D01*
X183850Y686038D01*
X183855Y686034D01*
X183858Y686029D01*
X183942Y685949D01*
X184026Y685866D01*
X184032Y685863D01*
X184036Y685859D01*
X184053Y685851D01*
X184173Y685785D01*
X185868Y685083D01*
X188583Y682368D01*
X190053Y678820D01*
X190053Y674980D01*
X188583Y671432D01*
X185868Y668717D01*
X182320Y667247D01*
X178480Y667247D01*
X174932Y668717D01*
X172217Y671432D01*
X170747Y674980D01*
X170747Y678820D01*
X172217Y682368D01*
X174932Y685083D01*
X176023Y685535D01*
X176062Y685559D01*
X176105Y685575D01*
X176166Y685623D01*
X176232Y685665D01*
X176261Y685700D01*
X176297Y685729D01*
X176339Y685794D01*
X176389Y685854D01*
X176405Y685897D01*
X176430Y685935D01*
X176449Y686011D01*
X176477Y686084D01*
X176479Y686129D01*
X176490Y686174D01*
X176484Y686252D01*
X176487Y686329D01*
X176474Y686374D01*
X176471Y686419D01*
X176440Y686491D01*
X176419Y686566D01*
X176393Y686603D01*
X176375Y686646D01*
X176289Y686752D01*
X176278Y686768D01*
X176274Y686771D01*
X176270Y686777D01*
X166683Y696363D01*
X166683Y707475D01*
X166681Y707491D01*
X166682Y707506D01*
X166671Y707556D01*
X166670Y707617D01*
X166652Y707666D01*
X166644Y707717D01*
X166631Y707741D01*
X166630Y707746D01*
X166615Y707772D01*
X166610Y707781D01*
X166585Y707848D01*
X166553Y707889D01*
X166528Y707935D01*
X166476Y707984D01*
X166432Y708040D01*
X166388Y708068D01*
X166350Y708104D01*
X166285Y708134D01*
X166225Y708173D01*
X166174Y708186D01*
X166127Y708208D01*
X166056Y708216D01*
X165986Y708233D01*
X165934Y708229D01*
X165883Y708235D01*
X165812Y708220D01*
X165741Y708214D01*
X165693Y708194D01*
X165642Y708183D01*
X165581Y708146D01*
X165515Y708118D01*
X165468Y708081D01*
X165454Y708073D01*
X165447Y708066D01*
X165431Y708056D01*
X165416Y708039D01*
X165384Y708013D01*
X163968Y706597D01*
X56163Y706597D01*
X56049Y706578D01*
X55932Y706561D01*
X55927Y706559D01*
X55921Y706558D01*
X55818Y706503D01*
X55713Y706450D01*
X55709Y706445D01*
X55703Y706442D01*
X55623Y706358D01*
X55541Y706274D01*
X55537Y706268D01*
X55534Y706264D01*
X55526Y706247D01*
X55460Y706127D01*
X54460Y703713D01*
X51387Y700640D01*
X47373Y698977D01*
X43027Y698977D01*
X39013Y700640D01*
X35940Y703713D01*
X34277Y707727D01*
X34277Y712073D01*
X35940Y716087D01*
X39013Y719160D01*
X43027Y720823D01*
X47373Y720823D01*
X51387Y719160D01*
X54460Y716087D01*
X55460Y713673D01*
X55522Y713573D01*
X55582Y713473D01*
X55586Y713469D01*
X55590Y713464D01*
X55679Y713389D01*
X55768Y713313D01*
X55774Y713311D01*
X55779Y713307D01*
X55887Y713265D01*
X55997Y713221D01*
X56004Y713220D01*
X56009Y713219D01*
X56027Y713218D01*
X56163Y713203D01*
X160917Y713203D01*
X161007Y713217D01*
X161098Y713225D01*
X161127Y713237D01*
X161159Y713242D01*
X161240Y713285D01*
X161324Y713321D01*
X161356Y713347D01*
X161377Y713358D01*
X161399Y713381D01*
X161455Y713426D01*
X171284Y723255D01*
X171353Y723350D01*
X171422Y723444D01*
X171424Y723450D01*
X171428Y723455D01*
X171462Y723566D01*
X171499Y723678D01*
X171498Y723684D01*
X171500Y723690D01*
X171497Y723807D01*
X171496Y723924D01*
X171494Y723931D01*
X171494Y723936D01*
X171488Y723953D01*
X171449Y724085D01*
X170747Y725780D01*
X170747Y729620D01*
X172217Y733168D01*
X174932Y735883D01*
X178480Y737353D01*
X182320Y737353D01*
X185868Y735883D01*
X188583Y733168D01*
X190053Y729620D01*
X190053Y725780D01*
X188583Y722232D01*
X185868Y719517D01*
X182320Y718047D01*
X178480Y718047D01*
X176785Y718749D01*
X176671Y718776D01*
X176558Y718805D01*
X176551Y718804D01*
X176545Y718806D01*
X176429Y718795D01*
X176312Y718786D01*
X176307Y718783D01*
X176300Y718783D01*
X176193Y718735D01*
X176086Y718689D01*
X176080Y718685D01*
X176076Y718683D01*
X176062Y718670D01*
X175955Y718584D01*
X174687Y717316D01*
X174645Y717258D01*
X174596Y717206D01*
X174574Y717159D01*
X174543Y717117D01*
X174522Y717048D01*
X174492Y716983D01*
X174486Y716931D01*
X174471Y716881D01*
X174473Y716810D01*
X174465Y716739D01*
X174476Y716688D01*
X174477Y716636D01*
X174502Y716568D01*
X174517Y716498D01*
X174544Y716454D01*
X174562Y716405D01*
X174607Y716349D01*
X174644Y716287D01*
X174683Y716253D01*
X174716Y716213D01*
X174776Y716174D01*
X174830Y716127D01*
X174879Y716108D01*
X174923Y716080D01*
X174992Y716062D01*
X175059Y716035D01*
X175130Y716027D01*
X175161Y716019D01*
X175184Y716021D01*
X175225Y716017D01*
X186082Y716017D01*
X246649Y655450D01*
X246686Y655423D01*
X246717Y655389D01*
X246785Y655351D01*
X246848Y655306D01*
X246892Y655293D01*
X246933Y655270D01*
X247009Y655257D01*
X247084Y655234D01*
X247129Y655235D01*
X247175Y655227D01*
X247252Y655238D01*
X247329Y655240D01*
X247372Y655256D01*
X247418Y655263D01*
X247487Y655298D01*
X247560Y655325D01*
X247596Y655353D01*
X247637Y655374D01*
X247692Y655430D01*
X247752Y655478D01*
X247777Y655517D01*
X247809Y655550D01*
X247875Y655670D01*
X247885Y655685D01*
X247887Y655690D01*
X247890Y655697D01*
X248417Y656968D01*
X251132Y659683D01*
X254680Y661153D01*
X258520Y661153D01*
X262068Y659683D01*
X264783Y656968D01*
X266253Y653420D01*
X266253Y649580D01*
X264783Y646032D01*
X262068Y643317D01*
X258520Y641847D01*
X254680Y641847D01*
X251132Y643317D01*
X250698Y643751D01*
X250640Y643793D01*
X250588Y643842D01*
X250541Y643864D01*
X250499Y643894D01*
X250430Y643915D01*
X250365Y643946D01*
X250313Y643951D01*
X250263Y643967D01*
X250192Y643965D01*
X250121Y643973D01*
X250070Y643962D01*
X250018Y643960D01*
X249950Y643936D01*
X249880Y643920D01*
X249835Y643894D01*
X249787Y643876D01*
X249731Y643831D01*
X249669Y643794D01*
X249635Y643755D01*
X249595Y643722D01*
X249556Y643662D01*
X249509Y643607D01*
X249490Y643559D01*
X249462Y643515D01*
X249444Y643446D01*
X249417Y643379D01*
X249409Y643308D01*
X249401Y643277D01*
X249403Y643253D01*
X249399Y643212D01*
X249399Y635549D01*
X249401Y635537D01*
X249399Y635526D01*
X249420Y635416D01*
X249438Y635307D01*
X249444Y635296D01*
X249446Y635284D01*
X249502Y635187D01*
X249554Y635089D01*
X249562Y635081D01*
X249568Y635070D01*
X249651Y634997D01*
X249732Y634920D01*
X249743Y634915D01*
X249752Y634907D01*
X249854Y634863D01*
X249955Y634816D01*
X249967Y634815D01*
X249978Y634810D01*
X250089Y634801D01*
X250199Y634789D01*
X250211Y634792D01*
X250223Y634791D01*
X250331Y634818D01*
X250440Y634841D01*
X250450Y634847D01*
X250462Y634850D01*
X250607Y634933D01*
X251008Y635225D01*
X252505Y635987D01*
X254102Y636506D01*
X255077Y636660D01*
X255077Y626862D01*
X255080Y626842D01*
X255078Y626823D01*
X255100Y626721D01*
X255117Y626619D01*
X255126Y626602D01*
X255130Y626582D01*
X255183Y626493D01*
X255232Y626402D01*
X255246Y626388D01*
X255256Y626371D01*
X255335Y626304D01*
X255410Y626233D01*
X255428Y626224D01*
X255443Y626211D01*
X255539Y626173D01*
X255633Y626129D01*
X255653Y626127D01*
X255671Y626119D01*
X255838Y626101D01*
X256601Y626101D01*
X256601Y625338D01*
X256604Y625318D01*
X256602Y625299D01*
X256624Y625197D01*
X256641Y625095D01*
X256650Y625078D01*
X256654Y625058D01*
X256707Y624969D01*
X256756Y624878D01*
X256770Y624864D01*
X256780Y624847D01*
X256859Y624780D01*
X256934Y624709D01*
X256952Y624700D01*
X256967Y624687D01*
X257063Y624648D01*
X257157Y624605D01*
X257177Y624603D01*
X257195Y624595D01*
X257362Y624577D01*
X267160Y624577D01*
X267006Y623602D01*
X266487Y622005D01*
X265725Y620508D01*
X264738Y619150D01*
X263550Y617962D01*
X262192Y616975D01*
X260695Y616213D01*
X259738Y615902D01*
X259735Y615900D01*
X259731Y615899D01*
X259626Y615844D01*
X259520Y615789D01*
X259517Y615786D01*
X259514Y615784D01*
X259432Y615698D01*
X259349Y615613D01*
X259347Y615609D01*
X259344Y615606D01*
X259294Y615498D01*
X259243Y615391D01*
X259242Y615387D01*
X259241Y615383D01*
X259228Y615265D01*
X259213Y615146D01*
X259214Y615142D01*
X259213Y615139D01*
X259239Y615021D01*
X259263Y614906D01*
X259265Y614902D01*
X259266Y614898D01*
X259327Y614795D01*
X259387Y614693D01*
X259390Y614690D01*
X259392Y614687D01*
X259483Y614609D01*
X259572Y614531D01*
X259576Y614530D01*
X259579Y614527D01*
X259691Y614482D01*
X259799Y614437D01*
X259803Y614437D01*
X259807Y614435D01*
X259974Y614417D01*
X262282Y614417D01*
X264439Y612259D01*
X273173Y603526D01*
X273247Y603473D01*
X273316Y603413D01*
X273346Y603401D01*
X273372Y603382D01*
X273459Y603355D01*
X273544Y603321D01*
X273585Y603317D01*
X273607Y603310D01*
X273640Y603311D01*
X273711Y603303D01*
X363368Y603303D01*
X365526Y601145D01*
X374526Y592145D01*
X398683Y567988D01*
X398777Y567920D01*
X398872Y567850D01*
X398878Y567848D01*
X398883Y567844D01*
X398994Y567810D01*
X399106Y567773D01*
X399112Y567774D01*
X399118Y567772D01*
X399235Y567775D01*
X399352Y567776D01*
X399359Y567778D01*
X399364Y567778D01*
X399381Y567784D01*
X399513Y567823D01*
X401927Y568823D01*
X406273Y568823D01*
X410287Y567160D01*
X413360Y564087D01*
X415023Y560073D01*
X415023Y555727D01*
X413360Y551713D01*
X410287Y548640D01*
X407873Y547640D01*
X407773Y547578D01*
X407673Y547518D01*
X407669Y547514D01*
X407664Y547510D01*
X407589Y547421D01*
X407513Y547332D01*
X407511Y547326D01*
X407507Y547321D01*
X407465Y547213D01*
X407421Y547103D01*
X407420Y547096D01*
X407419Y547091D01*
X407418Y547073D01*
X407403Y546937D01*
X407403Y389083D01*
X407417Y388993D01*
X407425Y388902D01*
X407437Y388873D01*
X407442Y388841D01*
X407485Y388760D01*
X407521Y388676D01*
X407547Y388644D01*
X407558Y388623D01*
X407581Y388601D01*
X407626Y388545D01*
X468621Y327550D01*
X468637Y327538D01*
X468649Y327523D01*
X468737Y327467D01*
X468821Y327406D01*
X468839Y327401D01*
X468856Y327390D01*
X468957Y327364D01*
X469056Y327334D01*
X469076Y327335D01*
X469095Y327330D01*
X469198Y327338D01*
X469301Y327340D01*
X469320Y327347D01*
X469340Y327349D01*
X469435Y327389D01*
X469533Y327425D01*
X469548Y327437D01*
X469566Y327445D01*
X469697Y327550D01*
X471920Y329773D01*
X475281Y331165D01*
X478919Y331165D01*
X482280Y329773D01*
X484853Y327200D01*
X486245Y323839D01*
X486245Y304961D01*
X484853Y301600D01*
X482280Y299027D01*
X478919Y297635D01*
X475281Y297635D01*
X471920Y299027D01*
X469347Y301600D01*
X467955Y304961D01*
X467955Y318559D01*
X467941Y318649D01*
X467933Y318740D01*
X467921Y318769D01*
X467916Y318801D01*
X467873Y318882D01*
X467837Y318966D01*
X467811Y318998D01*
X467800Y319019D01*
X467777Y319041D01*
X467732Y319097D01*
X400797Y386032D01*
X400797Y546937D01*
X400778Y547051D01*
X400761Y547168D01*
X400759Y547173D01*
X400758Y547179D01*
X400703Y547282D01*
X400650Y547387D01*
X400645Y547391D01*
X400642Y547397D01*
X400558Y547477D01*
X400474Y547559D01*
X400468Y547563D01*
X400464Y547566D01*
X400447Y547574D01*
X400327Y547640D01*
X397913Y548640D01*
X394840Y551713D01*
X393177Y555727D01*
X393177Y560073D01*
X394177Y562487D01*
X394204Y562601D01*
X394233Y562714D01*
X394232Y562721D01*
X394234Y562727D01*
X394223Y562843D01*
X394214Y562960D01*
X394211Y562965D01*
X394210Y562972D01*
X394163Y563079D01*
X394117Y563186D01*
X394113Y563192D01*
X394110Y563196D01*
X394098Y563210D01*
X394012Y563317D01*
X369855Y587474D01*
X360855Y596474D01*
X360781Y596527D01*
X360712Y596587D01*
X360681Y596599D01*
X360655Y596618D01*
X360568Y596645D01*
X360483Y596679D01*
X360442Y596683D01*
X360420Y596690D01*
X360388Y596689D01*
X360317Y596697D01*
X270660Y596697D01*
X268502Y598855D01*
X267552Y599805D01*
X267494Y599846D01*
X267442Y599896D01*
X267395Y599918D01*
X267353Y599948D01*
X267284Y599969D01*
X267219Y599999D01*
X267167Y600005D01*
X267117Y600021D01*
X267046Y600019D01*
X266975Y600027D01*
X266924Y600015D01*
X266872Y600014D01*
X266804Y599990D01*
X266734Y599974D01*
X266690Y599948D01*
X266641Y599930D01*
X266585Y599885D01*
X266523Y599848D01*
X266489Y599809D01*
X266449Y599776D01*
X266410Y599716D01*
X266363Y599661D01*
X266344Y599613D01*
X266316Y599569D01*
X266298Y599500D01*
X266271Y599433D01*
X266263Y599362D01*
X266255Y599331D01*
X266257Y599307D01*
X266253Y599266D01*
X266253Y598780D01*
X264783Y595232D01*
X262068Y592517D01*
X258520Y591047D01*
X254680Y591047D01*
X251132Y592517D01*
X248417Y595232D01*
X246947Y598780D01*
X246947Y602620D01*
X248417Y606168D01*
X251132Y608883D01*
X252403Y609410D01*
X252442Y609434D01*
X252485Y609450D01*
X252546Y609498D01*
X252612Y609539D01*
X252642Y609575D01*
X252677Y609603D01*
X252720Y609669D01*
X252769Y609729D01*
X252786Y609772D01*
X252810Y609810D01*
X252830Y609886D01*
X252857Y609958D01*
X252859Y610004D01*
X252871Y610049D01*
X252865Y610126D01*
X252868Y610204D01*
X252855Y610248D01*
X252851Y610294D01*
X252821Y610366D01*
X252799Y610440D01*
X252773Y610478D01*
X252755Y610520D01*
X252670Y610627D01*
X252659Y610642D01*
X252655Y610645D01*
X252650Y610651D01*
X242793Y620508D01*
X242793Y649648D01*
X242779Y649738D01*
X242771Y649829D01*
X242759Y649859D01*
X242754Y649891D01*
X242711Y649972D01*
X242675Y650056D01*
X242649Y650088D01*
X242638Y650108D01*
X242615Y650131D01*
X242570Y650187D01*
X191352Y701405D01*
X191294Y701446D01*
X191242Y701496D01*
X191195Y701518D01*
X191153Y701548D01*
X191084Y701569D01*
X191019Y701599D01*
X190967Y701605D01*
X190917Y701621D01*
X190846Y701619D01*
X190775Y701627D01*
X190724Y701615D01*
X190672Y701614D01*
X190604Y701590D01*
X190534Y701574D01*
X190489Y701548D01*
X190441Y701530D01*
X190385Y701485D01*
X190323Y701448D01*
X190289Y701409D01*
X190249Y701376D01*
X190210Y701316D01*
X190163Y701261D01*
X190144Y701213D01*
X190116Y701169D01*
X190098Y701100D01*
X190071Y701033D01*
X190063Y700962D01*
X190055Y700931D01*
X190057Y700907D01*
X190053Y700866D01*
X190053Y700380D01*
X189154Y698209D01*
X189127Y698096D01*
X189098Y697982D01*
X189099Y697976D01*
X189097Y697970D01*
X189108Y697853D01*
X189118Y697737D01*
X189120Y697731D01*
X189121Y697725D01*
X189168Y697617D01*
X189214Y697511D01*
X189218Y697505D01*
X189221Y697500D01*
X189233Y697486D01*
X189319Y697380D01*
X234193Y652505D01*
X236351Y650348D01*
X236351Y180356D01*
X199308Y143313D01*
X195099Y143313D01*
X195009Y143299D01*
X194918Y143291D01*
X194889Y143279D01*
X194857Y143274D01*
X194776Y143231D01*
X194692Y143195D01*
X194660Y143169D01*
X194639Y143158D01*
X194617Y143135D01*
X194561Y143090D01*
X138588Y87117D01*
X138520Y87023D01*
X138450Y86928D01*
X138448Y86922D01*
X138444Y86917D01*
X138410Y86806D01*
X138373Y86694D01*
X138374Y86688D01*
X138372Y86682D01*
X138375Y86565D01*
X138376Y86448D01*
X138378Y86441D01*
X138378Y86436D01*
X138384Y86419D01*
X138423Y86287D01*
X139423Y83873D01*
X139423Y79527D01*
X137760Y75513D01*
X134687Y72440D01*
X130673Y70777D01*
X126327Y70777D01*
X123913Y71777D01*
X123847Y71793D01*
X123819Y71804D01*
X123782Y71808D01*
X123686Y71833D01*
X123679Y71832D01*
X123673Y71834D01*
X123557Y71823D01*
X123440Y71814D01*
X123435Y71811D01*
X123428Y71810D01*
X123367Y71783D01*
X123366Y71783D01*
X123363Y71781D01*
X123321Y71763D01*
X123214Y71717D01*
X123208Y71713D01*
X123204Y71710D01*
X123190Y71698D01*
X123160Y71674D01*
X123149Y71668D01*
X123136Y71655D01*
X123083Y71612D01*
X99868Y48397D01*
X85083Y48397D01*
X84993Y48383D01*
X84902Y48375D01*
X84873Y48363D01*
X84841Y48358D01*
X84760Y48315D01*
X84676Y48279D01*
X84644Y48253D01*
X84623Y48242D01*
X84601Y48219D01*
X84545Y48174D01*
X77668Y41297D01*
X60963Y41297D01*
X60849Y41278D01*
X60732Y41261D01*
X60727Y41259D01*
X60721Y41258D01*
X60618Y41203D01*
X60513Y41150D01*
X60509Y41145D01*
X60503Y41142D01*
X60423Y41058D01*
X60341Y40974D01*
X60337Y40968D01*
X60334Y40964D01*
X60326Y40947D01*
X60260Y40827D01*
X59260Y38413D01*
X56187Y35340D01*
X52173Y33677D01*
X47827Y33677D01*
G37*
%LPD*%
%LPC*%
G36*
X961001Y105519D02*
X961001Y105519D01*
X955274Y107891D01*
X950891Y112274D01*
X949449Y115756D01*
X949415Y115811D01*
X949389Y115872D01*
X949337Y115937D01*
X949320Y115965D01*
X949305Y115977D01*
X949284Y116003D01*
X918491Y146796D01*
X918417Y146849D01*
X918347Y146909D01*
X918317Y146921D01*
X918291Y146940D01*
X918204Y146967D01*
X918119Y147001D01*
X918078Y147005D01*
X918056Y147012D01*
X918024Y147011D01*
X917952Y147019D01*
X689849Y147019D01*
X684674Y149163D01*
X627941Y205896D01*
X627867Y205949D01*
X627797Y206009D01*
X627767Y206021D01*
X627741Y206040D01*
X627654Y206067D01*
X627569Y206101D01*
X627528Y206105D01*
X627506Y206112D01*
X627474Y206111D01*
X627402Y206119D01*
X615045Y206119D01*
X612069Y209095D01*
X612069Y238705D01*
X615045Y241681D01*
X644655Y241681D01*
X647631Y238705D01*
X647631Y226348D01*
X647633Y226332D01*
X647632Y226317D01*
X647646Y226252D01*
X647653Y226167D01*
X647665Y226137D01*
X647670Y226105D01*
X647683Y226081D01*
X647684Y226077D01*
X647697Y226055D01*
X647713Y226024D01*
X647749Y225940D01*
X647775Y225908D01*
X647786Y225888D01*
X647809Y225865D01*
X647854Y225809D01*
X675064Y198600D01*
X675143Y198543D01*
X675218Y198481D01*
X675242Y198471D01*
X675263Y198456D01*
X675356Y198427D01*
X675447Y198393D01*
X675473Y198391D01*
X675498Y198384D01*
X675596Y198386D01*
X675693Y198382D01*
X675718Y198389D01*
X675744Y198390D01*
X675836Y198424D01*
X675929Y198451D01*
X675951Y198466D01*
X675975Y198475D01*
X676051Y198536D01*
X676131Y198591D01*
X676147Y198612D01*
X676167Y198628D01*
X676220Y198710D01*
X676278Y198788D01*
X676286Y198813D01*
X676300Y198835D01*
X676324Y198930D01*
X676354Y199022D01*
X676354Y199048D01*
X676360Y199074D01*
X676353Y199171D01*
X676352Y199268D01*
X676343Y199300D01*
X676341Y199319D01*
X676328Y199349D01*
X676305Y199429D01*
X675625Y201071D01*
X675625Y206729D01*
X677791Y211958D01*
X681792Y215959D01*
X687021Y218125D01*
X692679Y218125D01*
X697908Y215959D01*
X701909Y211958D01*
X704075Y206729D01*
X704075Y201071D01*
X701909Y195842D01*
X697908Y191841D01*
X692679Y189675D01*
X687021Y189675D01*
X685379Y190355D01*
X685284Y190377D01*
X685191Y190406D01*
X685165Y190405D01*
X685140Y190411D01*
X685043Y190402D01*
X684945Y190400D01*
X684921Y190391D01*
X684895Y190388D01*
X684806Y190349D01*
X684714Y190315D01*
X684694Y190299D01*
X684670Y190288D01*
X684599Y190222D01*
X684522Y190161D01*
X684508Y190140D01*
X684489Y190122D01*
X684442Y190036D01*
X684389Y189955D01*
X684383Y189929D01*
X684370Y189906D01*
X684353Y189810D01*
X684329Y189716D01*
X684331Y189690D01*
X684327Y189664D01*
X684341Y189568D01*
X684349Y189471D01*
X684359Y189447D01*
X684363Y189421D01*
X684407Y189334D01*
X684445Y189245D01*
X684465Y189219D01*
X684474Y189202D01*
X684498Y189178D01*
X684550Y189114D01*
X698259Y175404D01*
X698333Y175351D01*
X698403Y175291D01*
X698433Y175279D01*
X698459Y175260D01*
X698546Y175233D01*
X698631Y175199D01*
X698672Y175195D01*
X698694Y175188D01*
X698726Y175189D01*
X698798Y175181D01*
X926901Y175181D01*
X932076Y173037D01*
X969197Y135916D01*
X969251Y135878D01*
X969297Y135832D01*
X969370Y135791D01*
X969397Y135772D01*
X969416Y135767D01*
X969444Y135751D01*
X972926Y134309D01*
X977309Y129926D01*
X979681Y124199D01*
X979681Y118001D01*
X977309Y112274D01*
X972926Y107891D01*
X967199Y105519D01*
X961001Y105519D01*
G37*
%LPD*%
%LPC*%
G36*
X43027Y724377D02*
X43027Y724377D01*
X39013Y726040D01*
X35940Y729113D01*
X34277Y733127D01*
X34277Y737473D01*
X35940Y741487D01*
X39013Y744560D01*
X43027Y746223D01*
X47373Y746223D01*
X51387Y744560D01*
X54460Y741487D01*
X55460Y739073D01*
X55522Y738973D01*
X55582Y738873D01*
X55586Y738869D01*
X55590Y738864D01*
X55679Y738789D01*
X55768Y738713D01*
X55774Y738711D01*
X55779Y738707D01*
X55887Y738665D01*
X55997Y738621D01*
X56004Y738620D01*
X56009Y738619D01*
X56027Y738618D01*
X56163Y738603D01*
X160917Y738603D01*
X161007Y738617D01*
X161098Y738625D01*
X161127Y738637D01*
X161159Y738642D01*
X161240Y738685D01*
X161324Y738721D01*
X161356Y738747D01*
X161377Y738758D01*
X161399Y738781D01*
X161455Y738826D01*
X171284Y748655D01*
X171353Y748750D01*
X171422Y748844D01*
X171424Y748850D01*
X171428Y748855D01*
X171462Y748966D01*
X171499Y749078D01*
X171498Y749084D01*
X171500Y749090D01*
X171497Y749207D01*
X171496Y749324D01*
X171494Y749331D01*
X171494Y749336D01*
X171488Y749353D01*
X171449Y749485D01*
X170747Y751180D01*
X170747Y755020D01*
X172217Y758568D01*
X174932Y761283D01*
X177070Y762169D01*
X177153Y762220D01*
X177239Y762266D01*
X177257Y762284D01*
X177279Y762298D01*
X177341Y762374D01*
X177408Y762444D01*
X177419Y762468D01*
X177436Y762488D01*
X177471Y762579D01*
X177512Y762667D01*
X177515Y762693D01*
X177524Y762717D01*
X177528Y762815D01*
X177539Y762911D01*
X177533Y762937D01*
X177535Y762963D01*
X177507Y763057D01*
X177487Y763152D01*
X177473Y763174D01*
X177466Y763199D01*
X177410Y763279D01*
X177361Y763363D01*
X177341Y763380D01*
X177326Y763401D01*
X177248Y763460D01*
X177174Y763523D01*
X177149Y763533D01*
X177128Y763548D01*
X177036Y763578D01*
X176945Y763615D01*
X176913Y763618D01*
X176894Y763624D01*
X176861Y763624D01*
X176779Y763633D01*
X160653Y763633D01*
X160608Y763626D01*
X160562Y763628D01*
X160487Y763606D01*
X160410Y763594D01*
X160370Y763572D01*
X160325Y763559D01*
X160261Y763515D01*
X160193Y763478D01*
X160161Y763445D01*
X160123Y763419D01*
X160077Y763356D01*
X160023Y763300D01*
X160004Y763258D01*
X159977Y763222D01*
X159953Y763148D01*
X159920Y763077D01*
X159915Y763031D01*
X159900Y762988D01*
X159901Y762910D01*
X159893Y762833D01*
X159902Y762788D01*
X159903Y762742D01*
X159941Y762610D01*
X159945Y762592D01*
X159947Y762588D01*
X159950Y762581D01*
X160823Y760473D01*
X160823Y756127D01*
X159160Y752113D01*
X156087Y749040D01*
X152073Y747377D01*
X147727Y747377D01*
X143713Y749040D01*
X140640Y752113D01*
X138977Y756127D01*
X138977Y757392D01*
X138966Y757463D01*
X138964Y757535D01*
X138946Y757584D01*
X138938Y757635D01*
X138904Y757698D01*
X138879Y757766D01*
X138847Y757806D01*
X138822Y757853D01*
X138770Y757902D01*
X138726Y757958D01*
X138682Y757986D01*
X138644Y758022D01*
X138579Y758052D01*
X138519Y758091D01*
X138468Y758104D01*
X138421Y758126D01*
X138350Y758133D01*
X138280Y758151D01*
X138228Y758147D01*
X138177Y758153D01*
X138106Y758137D01*
X138035Y758132D01*
X137987Y758111D01*
X137936Y758100D01*
X137875Y758064D01*
X137809Y758035D01*
X137753Y757991D01*
X137725Y757974D01*
X137710Y757956D01*
X137678Y757931D01*
X136902Y757155D01*
X134744Y754997D01*
X84663Y754997D01*
X84549Y754978D01*
X84432Y754961D01*
X84427Y754959D01*
X84421Y754958D01*
X84318Y754903D01*
X84213Y754850D01*
X84209Y754845D01*
X84203Y754842D01*
X84123Y754758D01*
X84041Y754674D01*
X84037Y754668D01*
X84034Y754664D01*
X84026Y754647D01*
X83960Y754527D01*
X82960Y752113D01*
X79887Y749040D01*
X75873Y747377D01*
X71527Y747377D01*
X67513Y749040D01*
X64440Y752113D01*
X63440Y754527D01*
X63378Y754627D01*
X63318Y754727D01*
X63314Y754731D01*
X63310Y754736D01*
X63221Y754811D01*
X63132Y754887D01*
X63126Y754889D01*
X63121Y754893D01*
X63013Y754935D01*
X62903Y754979D01*
X62896Y754980D01*
X62891Y754981D01*
X62873Y754982D01*
X62737Y754997D01*
X55169Y754997D01*
X55054Y754978D01*
X54938Y754961D01*
X54933Y754959D01*
X54926Y754958D01*
X54823Y754903D01*
X54719Y754850D01*
X54715Y754845D01*
X54709Y754842D01*
X54629Y754758D01*
X54547Y754674D01*
X54543Y754668D01*
X54540Y754664D01*
X54532Y754647D01*
X54466Y754527D01*
X54460Y754513D01*
X51387Y751440D01*
X47373Y749777D01*
X43027Y749777D01*
X39013Y751440D01*
X35940Y754513D01*
X34277Y758527D01*
X34277Y762873D01*
X35940Y766887D01*
X39013Y769960D01*
X43027Y771623D01*
X47373Y771623D01*
X51387Y769960D01*
X54460Y766887D01*
X56123Y762873D01*
X56123Y762364D01*
X56126Y762344D01*
X56124Y762325D01*
X56146Y762223D01*
X56162Y762121D01*
X56172Y762104D01*
X56176Y762084D01*
X56229Y761995D01*
X56278Y761904D01*
X56292Y761890D01*
X56302Y761873D01*
X56381Y761806D01*
X56456Y761734D01*
X56474Y761726D01*
X56489Y761713D01*
X56585Y761674D01*
X56679Y761631D01*
X56699Y761629D01*
X56717Y761621D01*
X56884Y761603D01*
X62737Y761603D01*
X62851Y761622D01*
X62968Y761639D01*
X62973Y761641D01*
X62979Y761642D01*
X63082Y761697D01*
X63187Y761750D01*
X63191Y761755D01*
X63197Y761758D01*
X63277Y761842D01*
X63359Y761926D01*
X63363Y761932D01*
X63366Y761936D01*
X63374Y761953D01*
X63440Y762073D01*
X64440Y764487D01*
X67513Y767560D01*
X71527Y769223D01*
X75873Y769223D01*
X79887Y767560D01*
X82960Y764487D01*
X83960Y762073D01*
X84022Y761973D01*
X84082Y761873D01*
X84086Y761869D01*
X84090Y761864D01*
X84179Y761789D01*
X84268Y761713D01*
X84274Y761711D01*
X84279Y761707D01*
X84387Y761665D01*
X84497Y761621D01*
X84504Y761620D01*
X84509Y761619D01*
X84527Y761618D01*
X84663Y761603D01*
X131693Y761603D01*
X131783Y761617D01*
X131874Y761625D01*
X131904Y761637D01*
X131936Y761642D01*
X132016Y761685D01*
X132100Y761721D01*
X132132Y761747D01*
X132153Y761758D01*
X132175Y761781D01*
X132231Y761826D01*
X151535Y781129D01*
X151903Y781498D01*
X151945Y781556D01*
X151995Y781608D01*
X152016Y781655D01*
X152047Y781697D01*
X152068Y781766D01*
X152098Y781831D01*
X152104Y781883D01*
X152119Y781933D01*
X152117Y782004D01*
X152125Y782075D01*
X152114Y782126D01*
X152113Y782178D01*
X152088Y782246D01*
X152073Y782316D01*
X152046Y782361D01*
X152028Y782409D01*
X151984Y782465D01*
X151947Y782527D01*
X151907Y782561D01*
X151875Y782601D01*
X151814Y782640D01*
X151760Y782687D01*
X151712Y782706D01*
X151668Y782734D01*
X151598Y782752D01*
X151532Y782779D01*
X151460Y782787D01*
X151429Y782795D01*
X151406Y782793D01*
X151365Y782797D01*
X56163Y782797D01*
X56049Y782778D01*
X55932Y782761D01*
X55927Y782759D01*
X55921Y782758D01*
X55818Y782703D01*
X55713Y782650D01*
X55709Y782645D01*
X55703Y782642D01*
X55623Y782558D01*
X55541Y782474D01*
X55537Y782468D01*
X55534Y782464D01*
X55526Y782447D01*
X55460Y782327D01*
X54460Y779913D01*
X51387Y776840D01*
X47373Y775177D01*
X43027Y775177D01*
X39013Y776840D01*
X35940Y779913D01*
X34277Y783927D01*
X34277Y788273D01*
X35940Y792287D01*
X39013Y795360D01*
X41427Y796360D01*
X41527Y796422D01*
X41627Y796482D01*
X41631Y796486D01*
X41636Y796490D01*
X41710Y796579D01*
X41787Y796668D01*
X41789Y796674D01*
X41793Y796679D01*
X41835Y796787D01*
X41879Y796897D01*
X41880Y796904D01*
X41881Y796909D01*
X41882Y796927D01*
X41897Y797063D01*
X41897Y845668D01*
X43697Y847468D01*
X43750Y847542D01*
X43810Y847611D01*
X43822Y847642D01*
X43841Y847668D01*
X43868Y847755D01*
X43902Y847840D01*
X43906Y847881D01*
X43913Y847903D01*
X43912Y847935D01*
X43920Y848006D01*
X43920Y861687D01*
X44813Y862580D01*
X62587Y862580D01*
X63480Y861687D01*
X63480Y843913D01*
X62587Y843020D01*
X49264Y843020D01*
X49244Y843017D01*
X49225Y843019D01*
X49123Y842997D01*
X49021Y842981D01*
X49004Y842971D01*
X48984Y842967D01*
X48895Y842914D01*
X48804Y842865D01*
X48790Y842851D01*
X48773Y842841D01*
X48706Y842762D01*
X48634Y842687D01*
X48626Y842669D01*
X48613Y842654D01*
X48574Y842558D01*
X48531Y842464D01*
X48529Y842444D01*
X48521Y842426D01*
X48503Y842259D01*
X48503Y797063D01*
X48522Y796949D01*
X48539Y796832D01*
X48541Y796827D01*
X48542Y796821D01*
X48597Y796718D01*
X48650Y796613D01*
X48655Y796609D01*
X48658Y796603D01*
X48742Y796523D01*
X48826Y796441D01*
X48832Y796437D01*
X48836Y796434D01*
X48853Y796426D01*
X48973Y796360D01*
X51387Y795360D01*
X54460Y792287D01*
X55460Y789873D01*
X55522Y789773D01*
X55582Y789673D01*
X55586Y789669D01*
X55590Y789664D01*
X55679Y789589D01*
X55768Y789513D01*
X55774Y789511D01*
X55779Y789507D01*
X55887Y789465D01*
X55997Y789421D01*
X56004Y789420D01*
X56009Y789419D01*
X56027Y789418D01*
X56163Y789403D01*
X171589Y789403D01*
X171679Y789417D01*
X171770Y789425D01*
X171800Y789437D01*
X171832Y789442D01*
X171912Y789485D01*
X171996Y789521D01*
X172028Y789547D01*
X172049Y789558D01*
X172071Y789581D01*
X172127Y789626D01*
X174718Y792217D01*
X178045Y792217D01*
X178135Y792231D01*
X178226Y792239D01*
X178255Y792251D01*
X178287Y792256D01*
X178368Y792299D01*
X178452Y792335D01*
X178484Y792361D01*
X178505Y792372D01*
X178527Y792395D01*
X178583Y792440D01*
X187288Y801145D01*
X187341Y801219D01*
X187401Y801288D01*
X187413Y801319D01*
X187432Y801345D01*
X187459Y801432D01*
X187493Y801517D01*
X187497Y801558D01*
X187504Y801580D01*
X187503Y801612D01*
X187511Y801683D01*
X187511Y844721D01*
X187497Y844811D01*
X187489Y844902D01*
X187477Y844932D01*
X187472Y844964D01*
X187429Y845044D01*
X187393Y845128D01*
X187367Y845160D01*
X187356Y845181D01*
X187333Y845203D01*
X187288Y845259D01*
X187147Y845400D01*
X185755Y848761D01*
X185755Y867639D01*
X187147Y871000D01*
X189720Y873573D01*
X193081Y874965D01*
X196719Y874965D01*
X200080Y873573D01*
X202653Y871000D01*
X204045Y867639D01*
X204045Y848761D01*
X202653Y845400D01*
X200080Y842827D01*
X196719Y841435D01*
X194878Y841435D01*
X194858Y841432D01*
X194839Y841434D01*
X194737Y841412D01*
X194635Y841396D01*
X194618Y841386D01*
X194598Y841382D01*
X194509Y841329D01*
X194418Y841280D01*
X194404Y841266D01*
X194387Y841256D01*
X194320Y841177D01*
X194248Y841102D01*
X194240Y841084D01*
X194227Y841069D01*
X194188Y840973D01*
X194145Y840879D01*
X194143Y840859D01*
X194135Y840841D01*
X194117Y840674D01*
X194117Y772818D01*
X184932Y763633D01*
X184021Y763633D01*
X183925Y763618D01*
X183828Y763608D01*
X183804Y763598D01*
X183779Y763594D01*
X183693Y763548D01*
X183604Y763508D01*
X183584Y763491D01*
X183561Y763478D01*
X183494Y763408D01*
X183422Y763342D01*
X183410Y763319D01*
X183392Y763300D01*
X183351Y763212D01*
X183304Y763126D01*
X183299Y763101D01*
X183288Y763077D01*
X183277Y762980D01*
X183260Y762884D01*
X183264Y762858D01*
X183261Y762833D01*
X183282Y762737D01*
X183296Y762641D01*
X183308Y762618D01*
X183313Y762592D01*
X183363Y762509D01*
X183407Y762422D01*
X183426Y762403D01*
X183439Y762381D01*
X183513Y762318D01*
X183583Y762250D01*
X183612Y762234D01*
X183626Y762221D01*
X183657Y762209D01*
X183730Y762169D01*
X185868Y761283D01*
X188583Y758568D01*
X190053Y755020D01*
X190053Y751180D01*
X188583Y747632D01*
X185868Y744917D01*
X182320Y743447D01*
X178480Y743447D01*
X176785Y744149D01*
X176671Y744176D01*
X176558Y744205D01*
X176551Y744204D01*
X176545Y744206D01*
X176429Y744195D01*
X176312Y744186D01*
X176307Y744183D01*
X176300Y744183D01*
X176193Y744135D01*
X176086Y744089D01*
X176080Y744085D01*
X176076Y744083D01*
X176062Y744070D01*
X175955Y743984D01*
X166126Y734155D01*
X163968Y731997D01*
X56163Y731997D01*
X56049Y731978D01*
X55932Y731961D01*
X55927Y731959D01*
X55921Y731958D01*
X55818Y731903D01*
X55713Y731850D01*
X55709Y731845D01*
X55703Y731842D01*
X55623Y731758D01*
X55541Y731674D01*
X55537Y731668D01*
X55534Y731664D01*
X55526Y731647D01*
X55460Y731527D01*
X54460Y729113D01*
X51387Y726040D01*
X47373Y724377D01*
X43027Y724377D01*
G37*
%LPD*%
%LPC*%
G36*
X342281Y297635D02*
X342281Y297635D01*
X338920Y299027D01*
X336347Y301600D01*
X334955Y304961D01*
X334955Y318559D01*
X334941Y318649D01*
X334933Y318740D01*
X334921Y318769D01*
X334916Y318801D01*
X334873Y318882D01*
X334837Y318966D01*
X334811Y318998D01*
X334800Y319019D01*
X334777Y319041D01*
X334732Y319097D01*
X299197Y354632D01*
X299197Y546937D01*
X299178Y547052D01*
X299161Y547168D01*
X299159Y547173D01*
X299158Y547179D01*
X299103Y547283D01*
X299050Y547387D01*
X299045Y547391D01*
X299042Y547397D01*
X298958Y547477D01*
X298874Y547559D01*
X298868Y547563D01*
X298864Y547566D01*
X298847Y547574D01*
X298727Y547640D01*
X297913Y547977D01*
X297800Y548004D01*
X297686Y548033D01*
X297679Y548032D01*
X297673Y548034D01*
X297557Y548023D01*
X297440Y548014D01*
X297435Y548011D01*
X297428Y548011D01*
X297321Y547963D01*
X297214Y547917D01*
X297208Y547913D01*
X297204Y547911D01*
X297190Y547898D01*
X297083Y547812D01*
X270540Y521269D01*
X270487Y521195D01*
X270427Y521126D01*
X270415Y521095D01*
X270396Y521069D01*
X270369Y520982D01*
X270335Y520897D01*
X270331Y520856D01*
X270324Y520834D01*
X270325Y520802D01*
X270317Y520731D01*
X270317Y493418D01*
X268159Y491261D01*
X260550Y483651D01*
X260523Y483614D01*
X260489Y483583D01*
X260452Y483515D01*
X260406Y483452D01*
X260393Y483408D01*
X260370Y483367D01*
X260357Y483291D01*
X260334Y483216D01*
X260335Y483171D01*
X260327Y483125D01*
X260338Y483048D01*
X260340Y482971D01*
X260356Y482928D01*
X260363Y482882D01*
X260398Y482813D01*
X260425Y482740D01*
X260453Y482704D01*
X260474Y482663D01*
X260530Y482608D01*
X260578Y482548D01*
X260617Y482523D01*
X260650Y482491D01*
X260770Y482425D01*
X260785Y482415D01*
X260790Y482413D01*
X260797Y482410D01*
X262068Y481883D01*
X264783Y479168D01*
X266253Y475620D01*
X266253Y471780D01*
X264783Y468232D01*
X262068Y465517D01*
X258520Y464047D01*
X254680Y464047D01*
X251132Y465517D01*
X250788Y465861D01*
X250730Y465903D01*
X250678Y465952D01*
X250631Y465974D01*
X250589Y466004D01*
X250520Y466025D01*
X250455Y466056D01*
X250403Y466061D01*
X250353Y466077D01*
X250282Y466075D01*
X250211Y466083D01*
X250160Y466072D01*
X250108Y466070D01*
X250040Y466046D01*
X249970Y466030D01*
X249925Y466004D01*
X249877Y465986D01*
X249821Y465941D01*
X249759Y465904D01*
X249725Y465865D01*
X249685Y465832D01*
X249646Y465772D01*
X249599Y465717D01*
X249580Y465669D01*
X249552Y465625D01*
X249534Y465556D01*
X249507Y465489D01*
X249499Y465418D01*
X249491Y465387D01*
X249493Y465363D01*
X249489Y465322D01*
X249489Y456678D01*
X249500Y456607D01*
X249502Y456535D01*
X249520Y456486D01*
X249528Y456435D01*
X249562Y456371D01*
X249587Y456304D01*
X249619Y456263D01*
X249644Y456217D01*
X249695Y456168D01*
X249740Y456112D01*
X249784Y456084D01*
X249822Y456048D01*
X249887Y456018D01*
X249947Y455979D01*
X249998Y455966D01*
X250045Y455944D01*
X250116Y455937D01*
X250186Y455919D01*
X250238Y455923D01*
X250289Y455917D01*
X250360Y455933D01*
X250431Y455938D01*
X250479Y455959D01*
X250530Y455970D01*
X250591Y456006D01*
X250657Y456034D01*
X250713Y456079D01*
X250741Y456096D01*
X250756Y456113D01*
X250788Y456139D01*
X251132Y456483D01*
X254680Y457953D01*
X258520Y457953D01*
X262068Y456483D01*
X264783Y453768D01*
X266253Y450220D01*
X266253Y446380D01*
X264783Y442832D01*
X262068Y440117D01*
X258520Y438647D01*
X254680Y438647D01*
X254355Y438782D01*
X254311Y438792D01*
X254269Y438812D01*
X254192Y438820D01*
X254116Y438838D01*
X254070Y438834D01*
X254025Y438839D01*
X253948Y438822D01*
X253871Y438815D01*
X253829Y438796D01*
X253784Y438786D01*
X253717Y438746D01*
X253646Y438715D01*
X253612Y438684D01*
X253573Y438660D01*
X253522Y438601D01*
X253465Y438548D01*
X253443Y438508D01*
X253413Y438473D01*
X253384Y438401D01*
X253347Y438333D01*
X253338Y438288D01*
X253321Y438245D01*
X253306Y438109D01*
X253303Y438091D01*
X253304Y438086D01*
X253303Y438078D01*
X253303Y349063D01*
X253322Y348949D01*
X253339Y348832D01*
X253341Y348827D01*
X253342Y348821D01*
X253397Y348718D01*
X253450Y348613D01*
X253455Y348609D01*
X253458Y348603D01*
X253542Y348523D01*
X253626Y348441D01*
X253632Y348437D01*
X253636Y348434D01*
X253653Y348426D01*
X253773Y348360D01*
X256187Y347360D01*
X259260Y344287D01*
X260923Y340273D01*
X260923Y335927D01*
X259260Y331913D01*
X256187Y328840D01*
X252173Y327177D01*
X247827Y327177D01*
X243813Y328840D01*
X240740Y331913D01*
X239077Y335927D01*
X239077Y340273D01*
X240740Y344287D01*
X243813Y347360D01*
X246227Y348360D01*
X246327Y348422D01*
X246427Y348482D01*
X246431Y348486D01*
X246436Y348490D01*
X246510Y348579D01*
X246587Y348668D01*
X246589Y348674D01*
X246593Y348679D01*
X246635Y348787D01*
X246679Y348897D01*
X246680Y348904D01*
X246681Y348909D01*
X246682Y348927D01*
X246697Y349063D01*
X246697Y438489D01*
X246683Y438579D01*
X246675Y438670D01*
X246663Y438700D01*
X246658Y438732D01*
X246615Y438812D01*
X246579Y438896D01*
X246553Y438928D01*
X246542Y438949D01*
X246519Y438971D01*
X246474Y439027D01*
X242883Y442618D01*
X242883Y540854D01*
X247484Y545455D01*
X247553Y545550D01*
X247622Y545644D01*
X247624Y545650D01*
X247628Y545655D01*
X247662Y545766D01*
X247699Y545878D01*
X247698Y545884D01*
X247700Y545890D01*
X247697Y546007D01*
X247696Y546124D01*
X247694Y546131D01*
X247694Y546136D01*
X247688Y546153D01*
X247649Y546285D01*
X246947Y547980D01*
X246947Y551820D01*
X248417Y555368D01*
X251132Y558083D01*
X254680Y559553D01*
X258520Y559553D01*
X262068Y558083D01*
X264783Y555368D01*
X266253Y551820D01*
X266253Y547980D01*
X264783Y544432D01*
X262068Y541717D01*
X258520Y540247D01*
X254680Y540247D01*
X252985Y540949D01*
X252871Y540976D01*
X252758Y541005D01*
X252751Y541004D01*
X252745Y541006D01*
X252629Y540995D01*
X252512Y540986D01*
X252507Y540983D01*
X252500Y540983D01*
X252393Y540935D01*
X252286Y540889D01*
X252280Y540885D01*
X252276Y540883D01*
X252262Y540870D01*
X252155Y540784D01*
X249712Y538341D01*
X249659Y538267D01*
X249599Y538198D01*
X249587Y538167D01*
X249568Y538141D01*
X249541Y538054D01*
X249507Y537969D01*
X249503Y537928D01*
X249496Y537906D01*
X249497Y537874D01*
X249489Y537803D01*
X249489Y532878D01*
X249500Y532807D01*
X249502Y532735D01*
X249520Y532686D01*
X249528Y532635D01*
X249562Y532571D01*
X249587Y532504D01*
X249619Y532463D01*
X249644Y532417D01*
X249695Y532368D01*
X249740Y532312D01*
X249784Y532284D01*
X249822Y532248D01*
X249887Y532218D01*
X249947Y532179D01*
X249998Y532166D01*
X250045Y532144D01*
X250116Y532137D01*
X250186Y532119D01*
X250238Y532123D01*
X250289Y532117D01*
X250360Y532133D01*
X250431Y532138D01*
X250479Y532159D01*
X250530Y532170D01*
X250591Y532206D01*
X250657Y532234D01*
X250713Y532279D01*
X250741Y532296D01*
X250756Y532313D01*
X250788Y532339D01*
X251132Y532683D01*
X254680Y534153D01*
X258520Y534153D01*
X262068Y532683D01*
X264783Y529968D01*
X265845Y527404D01*
X265869Y527365D01*
X265885Y527322D01*
X265934Y527261D01*
X265975Y527195D01*
X266010Y527166D01*
X266039Y527130D01*
X266104Y527088D01*
X266164Y527038D01*
X266207Y527022D01*
X266246Y526997D01*
X266321Y526978D01*
X266394Y526950D01*
X266440Y526948D01*
X266484Y526937D01*
X266562Y526943D01*
X266639Y526940D01*
X266684Y526953D01*
X266729Y526956D01*
X266801Y526987D01*
X266876Y527008D01*
X266913Y527035D01*
X266956Y527053D01*
X267062Y527138D01*
X267078Y527149D01*
X267081Y527153D01*
X267087Y527157D01*
X292412Y552483D01*
X292481Y552578D01*
X292550Y552672D01*
X292552Y552678D01*
X292556Y552683D01*
X292590Y552794D01*
X292627Y552906D01*
X292626Y552912D01*
X292628Y552918D01*
X292625Y553035D01*
X292624Y553152D01*
X292622Y553159D01*
X292622Y553164D01*
X292616Y553181D01*
X292577Y553313D01*
X291577Y555727D01*
X291577Y560073D01*
X293240Y564087D01*
X296313Y567160D01*
X300327Y568823D01*
X304673Y568823D01*
X308687Y567160D01*
X311760Y564087D01*
X313423Y560073D01*
X313423Y555727D01*
X311760Y551713D01*
X308687Y548640D01*
X306273Y547640D01*
X306173Y547578D01*
X306073Y547518D01*
X306069Y547514D01*
X306064Y547510D01*
X305989Y547421D01*
X305913Y547332D01*
X305911Y547326D01*
X305907Y547321D01*
X305865Y547213D01*
X305821Y547103D01*
X305820Y547096D01*
X305819Y547091D01*
X305818Y547073D01*
X305803Y546937D01*
X305803Y357683D01*
X305817Y357593D01*
X305825Y357502D01*
X305837Y357473D01*
X305842Y357441D01*
X305885Y357360D01*
X305921Y357276D01*
X305947Y357244D01*
X305958Y357223D01*
X305981Y357201D01*
X306026Y357145D01*
X335621Y327550D01*
X335637Y327538D01*
X335649Y327523D01*
X335737Y327467D01*
X335821Y327406D01*
X335839Y327401D01*
X335856Y327390D01*
X335957Y327364D01*
X336056Y327334D01*
X336076Y327335D01*
X336095Y327330D01*
X336198Y327338D01*
X336301Y327340D01*
X336320Y327347D01*
X336340Y327349D01*
X336435Y327389D01*
X336533Y327425D01*
X336548Y327437D01*
X336566Y327445D01*
X336697Y327550D01*
X338920Y329773D01*
X342281Y331165D01*
X345919Y331165D01*
X349280Y329773D01*
X351853Y327200D01*
X353245Y323839D01*
X353245Y304961D01*
X351853Y301600D01*
X349280Y299027D01*
X345919Y297635D01*
X342281Y297635D01*
G37*
%LPD*%
%LPC*%
G36*
X816688Y254839D02*
X816688Y254839D01*
X810288Y256554D01*
X804551Y259866D01*
X799866Y264551D01*
X796554Y270288D01*
X794839Y276688D01*
X794839Y283312D01*
X796554Y289712D01*
X799866Y295449D01*
X804551Y300134D01*
X810288Y303446D01*
X816688Y305161D01*
X823312Y305161D01*
X829712Y303446D01*
X835449Y300134D01*
X840134Y295449D01*
X843446Y289712D01*
X845161Y283312D01*
X845161Y276688D01*
X843446Y270288D01*
X840134Y264551D01*
X835449Y259866D01*
X829712Y256554D01*
X823312Y254839D01*
X816688Y254839D01*
G37*
%LPD*%
%LPC*%
G36*
X136688Y334839D02*
X136688Y334839D01*
X130288Y336554D01*
X124551Y339866D01*
X119866Y344551D01*
X116554Y350288D01*
X114839Y356688D01*
X114839Y363312D01*
X116554Y369712D01*
X119866Y375449D01*
X124551Y380134D01*
X130288Y383446D01*
X136688Y385161D01*
X143312Y385161D01*
X149712Y383446D01*
X155449Y380134D01*
X160134Y375449D01*
X163446Y369712D01*
X165161Y363312D01*
X165161Y356688D01*
X163446Y350288D01*
X160134Y344551D01*
X155449Y339866D01*
X149712Y336554D01*
X143312Y334839D01*
X136688Y334839D01*
G37*
%LPD*%
%LPC*%
G36*
X536688Y434839D02*
X536688Y434839D01*
X530288Y436554D01*
X524551Y439866D01*
X519866Y444551D01*
X516554Y450288D01*
X514839Y456688D01*
X514839Y463312D01*
X516554Y469712D01*
X519866Y475449D01*
X524551Y480134D01*
X530288Y483446D01*
X536688Y485161D01*
X543312Y485161D01*
X549712Y483446D01*
X555449Y480134D01*
X560134Y475449D01*
X563446Y469712D01*
X565161Y463312D01*
X565161Y456688D01*
X563446Y450288D01*
X560134Y444551D01*
X555449Y439866D01*
X549712Y436554D01*
X543312Y434839D01*
X536688Y434839D01*
G37*
%LPD*%
%LPC*%
G36*
X100566Y524056D02*
X100566Y524056D01*
X98408Y526214D01*
X90896Y533726D01*
X90859Y533753D01*
X90828Y533787D01*
X90759Y533824D01*
X90696Y533870D01*
X90652Y533883D01*
X90612Y533905D01*
X90535Y533919D01*
X90461Y533942D01*
X90415Y533941D01*
X90370Y533949D01*
X90293Y533938D01*
X90215Y533936D01*
X90172Y533920D01*
X90127Y533913D01*
X90057Y533878D01*
X89984Y533851D01*
X89948Y533822D01*
X89907Y533802D01*
X89853Y533746D01*
X89792Y533697D01*
X89767Y533659D01*
X89735Y533626D01*
X89669Y533506D01*
X89659Y533491D01*
X89658Y533486D01*
X89654Y533479D01*
X89191Y532360D01*
X86440Y529609D01*
X82845Y528120D01*
X78955Y528120D01*
X75360Y529609D01*
X72609Y532360D01*
X71120Y535955D01*
X71120Y539845D01*
X71852Y541612D01*
X71879Y541726D01*
X71907Y541840D01*
X71907Y541846D01*
X71908Y541852D01*
X71897Y541968D01*
X71888Y542085D01*
X71886Y542090D01*
X71885Y542097D01*
X71837Y542204D01*
X71792Y542311D01*
X71787Y542317D01*
X71785Y542321D01*
X71773Y542335D01*
X71687Y542442D01*
X54668Y559461D01*
X54652Y559473D01*
X54640Y559488D01*
X54552Y559544D01*
X54468Y559605D01*
X54449Y559610D01*
X54433Y559621D01*
X54332Y559647D01*
X54233Y559677D01*
X54213Y559676D01*
X54194Y559681D01*
X54091Y559673D01*
X53987Y559671D01*
X53969Y559664D01*
X53949Y559662D01*
X53854Y559622D01*
X53756Y559586D01*
X53741Y559574D01*
X53723Y559566D01*
X53592Y559461D01*
X52740Y558609D01*
X49145Y557120D01*
X45255Y557120D01*
X41660Y558609D01*
X38909Y561360D01*
X37420Y564955D01*
X37420Y568845D01*
X38909Y572440D01*
X41660Y575191D01*
X45255Y576680D01*
X49145Y576680D01*
X52740Y575191D01*
X55491Y572440D01*
X56980Y568845D01*
X56980Y566806D01*
X56994Y566716D01*
X57002Y566625D01*
X57014Y566596D01*
X57019Y566564D01*
X57062Y566483D01*
X57098Y566399D01*
X57124Y566367D01*
X57135Y566346D01*
X57158Y566324D01*
X57203Y566268D01*
X76358Y547113D01*
X76453Y547045D01*
X76547Y546975D01*
X76553Y546973D01*
X76558Y546969D01*
X76669Y546935D01*
X76781Y546899D01*
X76787Y546899D01*
X76793Y546897D01*
X76910Y546900D01*
X77026Y546901D01*
X77034Y546903D01*
X77039Y546903D01*
X77056Y546910D01*
X77188Y546948D01*
X78955Y547680D01*
X82845Y547680D01*
X86440Y546191D01*
X89191Y543440D01*
X89923Y541673D01*
X89984Y541573D01*
X90044Y541473D01*
X90049Y541469D01*
X90052Y541464D01*
X90142Y541389D01*
X90231Y541313D01*
X90237Y541311D01*
X90242Y541307D01*
X90350Y541265D01*
X90459Y541221D01*
X90467Y541220D01*
X90472Y541219D01*
X90490Y541218D01*
X90626Y541203D01*
X92761Y541203D01*
X94408Y539555D01*
X94418Y539548D01*
X94425Y539539D01*
X94518Y539476D01*
X94608Y539412D01*
X94619Y539408D01*
X94629Y539402D01*
X94737Y539372D01*
X94843Y539339D01*
X94855Y539340D01*
X94867Y539337D01*
X94977Y539343D01*
X95089Y539346D01*
X95100Y539350D01*
X95112Y539351D01*
X95215Y539392D01*
X95320Y539430D01*
X95329Y539438D01*
X95340Y539442D01*
X95425Y539515D01*
X95512Y539584D01*
X95518Y539594D01*
X95528Y539602D01*
X95585Y539697D01*
X95645Y539791D01*
X95648Y539803D01*
X95654Y539813D01*
X95698Y539975D01*
X95770Y540428D01*
X96295Y542044D01*
X97067Y543558D01*
X98066Y544933D01*
X99267Y546134D01*
X100642Y547133D01*
X102156Y547905D01*
X103772Y548430D01*
X104777Y548589D01*
X104777Y538662D01*
X104780Y538642D01*
X104778Y538623D01*
X104800Y538521D01*
X104817Y538419D01*
X104826Y538402D01*
X104830Y538382D01*
X104883Y538293D01*
X104932Y538202D01*
X104946Y538188D01*
X104956Y538171D01*
X105035Y538104D01*
X105110Y538033D01*
X105128Y538024D01*
X105143Y538011D01*
X105239Y537973D01*
X105333Y537929D01*
X105353Y537927D01*
X105371Y537919D01*
X105538Y537901D01*
X106301Y537901D01*
X106301Y537138D01*
X106304Y537118D01*
X106302Y537099D01*
X106324Y536997D01*
X106341Y536895D01*
X106350Y536878D01*
X106354Y536858D01*
X106407Y536769D01*
X106456Y536678D01*
X106470Y536664D01*
X106480Y536647D01*
X106559Y536580D01*
X106634Y536509D01*
X106652Y536500D01*
X106667Y536487D01*
X106763Y536448D01*
X106857Y536405D01*
X106877Y536403D01*
X106895Y536395D01*
X107062Y536377D01*
X116989Y536377D01*
X116830Y535372D01*
X116305Y533756D01*
X115533Y532242D01*
X115264Y531870D01*
X115258Y531860D01*
X115250Y531851D01*
X115203Y531750D01*
X115153Y531651D01*
X115151Y531639D01*
X115146Y531628D01*
X115134Y531518D01*
X115118Y531407D01*
X115120Y531395D01*
X115119Y531384D01*
X115143Y531275D01*
X115163Y531165D01*
X115169Y531155D01*
X115171Y531143D01*
X115228Y531048D01*
X115283Y530950D01*
X115291Y530942D01*
X115298Y530932D01*
X115382Y530860D01*
X115464Y530785D01*
X115475Y530780D01*
X115484Y530772D01*
X115588Y530730D01*
X115690Y530686D01*
X115701Y530685D01*
X115713Y530680D01*
X115879Y530662D01*
X156176Y530662D01*
X156266Y530676D01*
X156357Y530684D01*
X156386Y530696D01*
X156418Y530701D01*
X156499Y530744D01*
X156583Y530780D01*
X156615Y530806D01*
X156636Y530817D01*
X156658Y530840D01*
X156714Y530885D01*
X171284Y545455D01*
X171352Y545550D01*
X171422Y545644D01*
X171424Y545650D01*
X171428Y545655D01*
X171462Y545766D01*
X171499Y545878D01*
X171498Y545884D01*
X171500Y545890D01*
X171497Y546007D01*
X171496Y546124D01*
X171494Y546131D01*
X171494Y546136D01*
X171488Y546153D01*
X171449Y546285D01*
X170747Y547980D01*
X170747Y551820D01*
X172217Y555368D01*
X174932Y558083D01*
X178480Y559553D01*
X182320Y559553D01*
X185868Y558083D01*
X188583Y555368D01*
X190053Y551820D01*
X190053Y547980D01*
X188583Y544432D01*
X185868Y541717D01*
X182320Y540247D01*
X178480Y540247D01*
X176785Y540949D01*
X176671Y540976D01*
X176558Y541005D01*
X176551Y541004D01*
X176545Y541006D01*
X176429Y540995D01*
X176312Y540986D01*
X176307Y540983D01*
X176300Y540983D01*
X176193Y540935D01*
X176086Y540889D01*
X176080Y540885D01*
X176076Y540883D01*
X176062Y540870D01*
X175955Y540784D01*
X159227Y524056D01*
X100566Y524056D01*
G37*
%LPD*%
%LPC*%
G36*
X32627Y444877D02*
X32627Y444877D01*
X28613Y446540D01*
X25540Y449613D01*
X23877Y453627D01*
X23877Y457973D01*
X25540Y461987D01*
X28613Y465060D01*
X32627Y466723D01*
X36973Y466723D01*
X39387Y465723D01*
X39501Y465696D01*
X39614Y465667D01*
X39621Y465668D01*
X39627Y465666D01*
X39743Y465677D01*
X39860Y465686D01*
X39865Y465689D01*
X39872Y465690D01*
X39979Y465737D01*
X40086Y465783D01*
X40092Y465787D01*
X40096Y465790D01*
X40110Y465802D01*
X40217Y465888D01*
X91943Y517614D01*
X147438Y517614D01*
X147528Y517628D01*
X147619Y517636D01*
X147649Y517648D01*
X147681Y517653D01*
X147762Y517696D01*
X147846Y517732D01*
X147878Y517758D01*
X147898Y517769D01*
X147921Y517792D01*
X147934Y517803D01*
X168717Y517803D01*
X168807Y517817D01*
X168898Y517825D01*
X168927Y517837D01*
X168959Y517842D01*
X169040Y517885D01*
X169124Y517921D01*
X169156Y517947D01*
X169177Y517958D01*
X169199Y517981D01*
X169255Y518026D01*
X171284Y520055D01*
X171353Y520150D01*
X171422Y520244D01*
X171424Y520250D01*
X171428Y520255D01*
X171462Y520366D01*
X171499Y520478D01*
X171498Y520484D01*
X171500Y520490D01*
X171497Y520607D01*
X171496Y520724D01*
X171494Y520731D01*
X171494Y520736D01*
X171488Y520753D01*
X171449Y520885D01*
X170747Y522580D01*
X170747Y526420D01*
X172217Y529968D01*
X174932Y532683D01*
X178480Y534153D01*
X182320Y534153D01*
X185868Y532683D01*
X188583Y529968D01*
X190053Y526420D01*
X190053Y522580D01*
X188583Y519032D01*
X185868Y516317D01*
X182320Y514847D01*
X178480Y514847D01*
X176785Y515549D01*
X176671Y515576D01*
X176558Y515605D01*
X176551Y515604D01*
X176545Y515606D01*
X176429Y515595D01*
X176312Y515586D01*
X176307Y515583D01*
X176300Y515583D01*
X176193Y515535D01*
X176086Y515489D01*
X176080Y515485D01*
X176076Y515483D01*
X176062Y515470D01*
X175955Y515384D01*
X173926Y513355D01*
X171768Y511197D01*
X150994Y511197D01*
X150904Y511183D01*
X150813Y511175D01*
X150783Y511163D01*
X150751Y511158D01*
X150670Y511115D01*
X150587Y511079D01*
X150554Y511053D01*
X150534Y511042D01*
X150512Y511019D01*
X150498Y511008D01*
X94994Y511008D01*
X94904Y510994D01*
X94813Y510986D01*
X94784Y510974D01*
X94752Y510969D01*
X94671Y510926D01*
X94587Y510890D01*
X94555Y510864D01*
X94534Y510853D01*
X94512Y510830D01*
X94456Y510785D01*
X44888Y461217D01*
X44820Y461123D01*
X44750Y461028D01*
X44748Y461022D01*
X44744Y461017D01*
X44710Y460906D01*
X44673Y460794D01*
X44674Y460788D01*
X44672Y460782D01*
X44675Y460665D01*
X44676Y460548D01*
X44678Y460541D01*
X44678Y460536D01*
X44684Y460519D01*
X44723Y460387D01*
X45723Y457973D01*
X45723Y453627D01*
X44060Y449613D01*
X40987Y446540D01*
X36973Y444877D01*
X32627Y444877D01*
G37*
%LPD*%
%LPC*%
G36*
X32627Y419477D02*
X32627Y419477D01*
X28613Y421140D01*
X25540Y424213D01*
X23877Y428227D01*
X23877Y432573D01*
X25540Y436587D01*
X28613Y439660D01*
X32627Y441323D01*
X36973Y441323D01*
X39387Y440323D01*
X39451Y440308D01*
X39504Y440286D01*
X39567Y440279D01*
X39614Y440267D01*
X39621Y440268D01*
X39627Y440266D01*
X39657Y440269D01*
X39671Y440268D01*
X39682Y440268D01*
X39737Y440277D01*
X39743Y440277D01*
X39860Y440286D01*
X39865Y440289D01*
X39872Y440290D01*
X39905Y440304D01*
X39924Y440307D01*
X39988Y440341D01*
X40086Y440383D01*
X40092Y440387D01*
X40096Y440390D01*
X40110Y440402D01*
X40123Y440413D01*
X40142Y440423D01*
X40162Y440443D01*
X40217Y440488D01*
X102132Y502403D01*
X170811Y502403D01*
X170926Y502422D01*
X171042Y502439D01*
X171048Y502441D01*
X171054Y502442D01*
X171157Y502497D01*
X171262Y502550D01*
X171266Y502555D01*
X171271Y502558D01*
X171351Y502642D01*
X171434Y502726D01*
X171437Y502732D01*
X171441Y502736D01*
X171449Y502753D01*
X171515Y502873D01*
X172217Y504568D01*
X174932Y507283D01*
X178480Y508753D01*
X182320Y508753D01*
X185868Y507283D01*
X188583Y504568D01*
X190053Y501020D01*
X190053Y497180D01*
X188583Y493632D01*
X185868Y490917D01*
X182320Y489447D01*
X178480Y489447D01*
X174932Y490917D01*
X172217Y493632D01*
X171515Y495327D01*
X171453Y495427D01*
X171393Y495527D01*
X171388Y495531D01*
X171385Y495536D01*
X171295Y495611D01*
X171206Y495687D01*
X171200Y495689D01*
X171196Y495693D01*
X171087Y495735D01*
X170978Y495779D01*
X170971Y495780D01*
X170966Y495781D01*
X170948Y495782D01*
X170811Y495797D01*
X105183Y495797D01*
X105093Y495783D01*
X105002Y495775D01*
X104973Y495763D01*
X104941Y495758D01*
X104860Y495715D01*
X104776Y495679D01*
X104744Y495653D01*
X104723Y495642D01*
X104701Y495619D01*
X104645Y495574D01*
X44888Y435817D01*
X44820Y435723D01*
X44750Y435628D01*
X44748Y435622D01*
X44744Y435617D01*
X44710Y435506D01*
X44673Y435394D01*
X44674Y435388D01*
X44672Y435382D01*
X44675Y435265D01*
X44676Y435148D01*
X44678Y435141D01*
X44678Y435136D01*
X44684Y435119D01*
X44723Y434987D01*
X45723Y432573D01*
X45723Y428227D01*
X44060Y424213D01*
X40987Y421140D01*
X36973Y419477D01*
X32627Y419477D01*
G37*
%LPD*%
%LPC*%
G36*
X178480Y565647D02*
X178480Y565647D01*
X174932Y567117D01*
X172217Y569832D01*
X171515Y571527D01*
X171453Y571627D01*
X171393Y571727D01*
X171388Y571731D01*
X171385Y571736D01*
X171295Y571811D01*
X171206Y571887D01*
X171200Y571889D01*
X171196Y571893D01*
X171087Y571935D01*
X170978Y571979D01*
X170971Y571980D01*
X170966Y571981D01*
X170948Y571982D01*
X170811Y571997D01*
X148332Y571997D01*
X146174Y574155D01*
X107442Y612887D01*
X107347Y612955D01*
X107253Y613025D01*
X107247Y613027D01*
X107242Y613031D01*
X107131Y613065D01*
X107019Y613101D01*
X107013Y613101D01*
X107007Y613103D01*
X106890Y613100D01*
X106774Y613099D01*
X106766Y613097D01*
X106761Y613097D01*
X106744Y613090D01*
X106612Y613052D01*
X104845Y612320D01*
X100955Y612320D01*
X97360Y613809D01*
X96995Y614174D01*
X96921Y614227D01*
X96852Y614287D01*
X96822Y614299D01*
X96795Y614318D01*
X96708Y614345D01*
X96624Y614379D01*
X96583Y614383D01*
X96560Y614390D01*
X96528Y614389D01*
X96457Y614397D01*
X56926Y614397D01*
X56811Y614378D01*
X56695Y614361D01*
X56690Y614359D01*
X56683Y614358D01*
X56581Y614303D01*
X56476Y614250D01*
X56471Y614245D01*
X56466Y614242D01*
X56386Y614158D01*
X56304Y614074D01*
X56300Y614068D01*
X56297Y614064D01*
X56289Y614047D01*
X56223Y613927D01*
X55491Y612160D01*
X52740Y609409D01*
X49145Y607920D01*
X45255Y607920D01*
X41660Y609409D01*
X38909Y612160D01*
X37420Y615755D01*
X37420Y619645D01*
X38909Y623240D01*
X41660Y625991D01*
X45255Y627480D01*
X49145Y627480D01*
X52740Y625991D01*
X55491Y623240D01*
X56223Y621473D01*
X56284Y621373D01*
X56344Y621273D01*
X56349Y621269D01*
X56352Y621264D01*
X56442Y621189D01*
X56531Y621113D01*
X56537Y621111D01*
X56542Y621107D01*
X56650Y621065D01*
X56759Y621021D01*
X56767Y621020D01*
X56772Y621019D01*
X56790Y621018D01*
X56926Y621003D01*
X92359Y621003D01*
X92379Y621006D01*
X92398Y621004D01*
X92500Y621026D01*
X92602Y621042D01*
X92619Y621052D01*
X92639Y621056D01*
X92728Y621109D01*
X92819Y621158D01*
X92833Y621172D01*
X92850Y621182D01*
X92917Y621261D01*
X92989Y621336D01*
X92997Y621354D01*
X93010Y621369D01*
X93049Y621465D01*
X93092Y621559D01*
X93094Y621579D01*
X93102Y621597D01*
X93120Y621764D01*
X93120Y624045D01*
X94609Y627640D01*
X97360Y630391D01*
X100955Y631880D01*
X104845Y631880D01*
X108440Y630391D01*
X111191Y627640D01*
X112680Y624045D01*
X112680Y620155D01*
X111948Y618388D01*
X111921Y618274D01*
X111893Y618160D01*
X111893Y618154D01*
X111892Y618148D01*
X111903Y618032D01*
X111912Y617915D01*
X111914Y617910D01*
X111915Y617903D01*
X111963Y617796D01*
X112008Y617689D01*
X112013Y617683D01*
X112015Y617679D01*
X112027Y617665D01*
X112113Y617558D01*
X150845Y578826D01*
X150919Y578773D01*
X150988Y578713D01*
X151019Y578701D01*
X151045Y578682D01*
X151132Y578655D01*
X151217Y578621D01*
X151258Y578617D01*
X151280Y578610D01*
X151312Y578611D01*
X151383Y578603D01*
X170811Y578603D01*
X170926Y578622D01*
X171042Y578639D01*
X171048Y578641D01*
X171054Y578642D01*
X171157Y578697D01*
X171262Y578750D01*
X171266Y578755D01*
X171271Y578758D01*
X171351Y578842D01*
X171434Y578926D01*
X171437Y578932D01*
X171441Y578936D01*
X171449Y578953D01*
X171515Y579073D01*
X172217Y580768D01*
X174932Y583483D01*
X178480Y584953D01*
X182320Y584953D01*
X185868Y583483D01*
X188583Y580768D01*
X190053Y577220D01*
X190053Y573380D01*
X188583Y569832D01*
X185868Y567117D01*
X182320Y565647D01*
X178480Y565647D01*
G37*
%LPD*%
%LPC*%
G36*
X681454Y557140D02*
X681454Y557140D01*
X675455Y559625D01*
X670864Y564216D01*
X668380Y570214D01*
X668380Y599186D01*
X670864Y605184D01*
X675455Y609775D01*
X681454Y612260D01*
X687946Y612260D01*
X693945Y609775D01*
X698536Y605184D01*
X701020Y599186D01*
X701020Y570214D01*
X698536Y564216D01*
X693945Y559625D01*
X687946Y557140D01*
X681454Y557140D01*
G37*
%LPD*%
%LPC*%
G36*
X795254Y177240D02*
X795254Y177240D01*
X789255Y179725D01*
X784664Y184316D01*
X782180Y190314D01*
X782180Y219286D01*
X784664Y225284D01*
X789255Y229875D01*
X795254Y232360D01*
X801746Y232360D01*
X807745Y229875D01*
X812336Y225284D01*
X814820Y219286D01*
X814820Y190314D01*
X812336Y184316D01*
X807745Y179725D01*
X801746Y177240D01*
X795254Y177240D01*
G37*
%LPD*%
%LPC*%
G36*
X681454Y404740D02*
X681454Y404740D01*
X675455Y407225D01*
X670864Y411816D01*
X668380Y417814D01*
X668380Y446786D01*
X670864Y452784D01*
X675455Y457375D01*
X681454Y459860D01*
X687946Y459860D01*
X693945Y457375D01*
X698536Y452784D01*
X701020Y446786D01*
X701020Y417814D01*
X698536Y411816D01*
X693945Y407225D01*
X687946Y404740D01*
X681454Y404740D01*
G37*
%LPD*%
%LPC*%
G36*
X335045Y204819D02*
X335045Y204819D01*
X332069Y207795D01*
X332069Y237405D01*
X335045Y240381D01*
X364655Y240381D01*
X367631Y237405D01*
X367631Y207795D01*
X364655Y204819D01*
X335045Y204819D01*
G37*
%LPD*%
%LPC*%
G36*
X934563Y547969D02*
X934563Y547969D01*
X928028Y550676D01*
X923026Y555678D01*
X920319Y562213D01*
X920319Y569287D01*
X923026Y575822D01*
X928028Y580824D01*
X934563Y583531D01*
X941637Y583531D01*
X948172Y580824D01*
X953174Y575822D01*
X955881Y569287D01*
X955881Y562213D01*
X953174Y555678D01*
X948172Y550676D01*
X941637Y547969D01*
X934563Y547969D01*
G37*
%LPD*%
%LPC*%
G36*
X935863Y327969D02*
X935863Y327969D01*
X929328Y330676D01*
X924326Y335678D01*
X921619Y342213D01*
X921619Y349287D01*
X924326Y355822D01*
X929328Y360824D01*
X935863Y363531D01*
X942937Y363531D01*
X949472Y360824D01*
X954474Y355822D01*
X957181Y349287D01*
X957181Y342213D01*
X954474Y335678D01*
X949472Y330676D01*
X942937Y327969D01*
X935863Y327969D01*
G37*
%LPD*%
%LPC*%
G36*
X286313Y62819D02*
X286313Y62819D01*
X279778Y65526D01*
X274776Y70528D01*
X272069Y77063D01*
X272069Y84137D01*
X274776Y90672D01*
X279778Y95674D01*
X286313Y98381D01*
X293387Y98381D01*
X299922Y95674D01*
X304924Y90672D01*
X307631Y84137D01*
X307631Y77063D01*
X304924Y70528D01*
X299922Y65526D01*
X293387Y62819D01*
X286313Y62819D01*
G37*
%LPD*%
%LPC*%
G36*
X566313Y64119D02*
X566313Y64119D01*
X559778Y66826D01*
X554776Y71828D01*
X552069Y78363D01*
X552069Y85437D01*
X554776Y91972D01*
X559778Y96974D01*
X566313Y99681D01*
X573387Y99681D01*
X579922Y96974D01*
X584924Y91972D01*
X587631Y85437D01*
X587631Y78363D01*
X584924Y71828D01*
X579922Y66826D01*
X573387Y64119D01*
X566313Y64119D01*
G37*
%LPD*%
%LPC*%
G36*
X366974Y294079D02*
X366974Y294079D01*
X362306Y296013D01*
X358733Y299586D01*
X356799Y304254D01*
X356799Y324546D01*
X358733Y329214D01*
X362306Y332787D01*
X366974Y334721D01*
X372026Y334721D01*
X376694Y332787D01*
X380267Y329214D01*
X382201Y324546D01*
X382201Y304254D01*
X380267Y299586D01*
X376694Y296013D01*
X372026Y294079D01*
X366974Y294079D01*
G37*
%LPD*%
%LPC*%
G36*
X499974Y294079D02*
X499974Y294079D01*
X495306Y296013D01*
X491733Y299586D01*
X489799Y304254D01*
X489799Y324546D01*
X491733Y329214D01*
X495306Y332787D01*
X499974Y334721D01*
X505026Y334721D01*
X509694Y332787D01*
X513267Y329214D01*
X515201Y324546D01*
X515201Y304254D01*
X513267Y299586D01*
X509694Y296013D01*
X505026Y294079D01*
X499974Y294079D01*
G37*
%LPD*%
%LPC*%
G36*
X961001Y195519D02*
X961001Y195519D01*
X955274Y197891D01*
X950891Y202274D01*
X948519Y208001D01*
X948519Y214199D01*
X950891Y219926D01*
X955274Y224309D01*
X961001Y226681D01*
X967199Y226681D01*
X972926Y224309D01*
X977309Y219926D01*
X979681Y214199D01*
X979681Y208001D01*
X977309Y202274D01*
X972926Y197891D01*
X967199Y195519D01*
X961001Y195519D01*
G37*
%LPD*%
%LPC*%
G36*
X813271Y671525D02*
X813271Y671525D01*
X808042Y673691D01*
X804041Y677692D01*
X801875Y682921D01*
X801875Y688579D01*
X804041Y693808D01*
X808042Y697809D01*
X813271Y699975D01*
X818929Y699975D01*
X824158Y697809D01*
X828159Y693808D01*
X830325Y688579D01*
X830325Y682921D01*
X828159Y677692D01*
X824158Y673691D01*
X818929Y671525D01*
X813271Y671525D01*
G37*
%LPD*%
%LPC*%
G36*
X407021Y188375D02*
X407021Y188375D01*
X401792Y190541D01*
X397791Y194542D01*
X395625Y199771D01*
X395625Y205429D01*
X397791Y210658D01*
X401792Y214659D01*
X407021Y216825D01*
X412679Y216825D01*
X417908Y214659D01*
X421909Y210658D01*
X424075Y205429D01*
X424075Y199771D01*
X421909Y194542D01*
X417908Y190541D01*
X412679Y188375D01*
X407021Y188375D01*
G37*
%LPD*%
%LPC*%
G36*
X145127Y289077D02*
X145127Y289077D01*
X141113Y290740D01*
X138040Y293813D01*
X136377Y297827D01*
X136377Y302173D01*
X138040Y306187D01*
X141113Y309260D01*
X145127Y310923D01*
X149473Y310923D01*
X153487Y309260D01*
X156560Y306187D01*
X158223Y302173D01*
X158223Y297827D01*
X156560Y293813D01*
X153487Y290740D01*
X149473Y289077D01*
X145127Y289077D01*
G37*
%LPD*%
%LPC*%
G36*
X247827Y250977D02*
X247827Y250977D01*
X243813Y252640D01*
X240740Y255713D01*
X239077Y259727D01*
X239077Y264073D01*
X240740Y268087D01*
X243813Y271160D01*
X247827Y272823D01*
X252173Y272823D01*
X256187Y271160D01*
X259260Y268087D01*
X260923Y264073D01*
X260923Y259727D01*
X259260Y255713D01*
X256187Y252640D01*
X252173Y250977D01*
X247827Y250977D01*
G37*
%LPD*%
%LPC*%
G36*
X254680Y768847D02*
X254680Y768847D01*
X251132Y770317D01*
X248417Y773032D01*
X246947Y776580D01*
X246947Y780420D01*
X248417Y783968D01*
X251132Y786683D01*
X254680Y788153D01*
X258520Y788153D01*
X262068Y786683D01*
X264783Y783968D01*
X266253Y780420D01*
X266253Y776580D01*
X264783Y773032D01*
X262068Y770317D01*
X258520Y768847D01*
X254680Y768847D01*
G37*
%LPD*%
%LPC*%
G36*
X254680Y667247D02*
X254680Y667247D01*
X251132Y668717D01*
X248417Y671432D01*
X246947Y674980D01*
X246947Y678820D01*
X248417Y682368D01*
X251132Y685083D01*
X254680Y686553D01*
X258520Y686553D01*
X262068Y685083D01*
X264783Y682368D01*
X266253Y678820D01*
X266253Y674980D01*
X264783Y671432D01*
X262068Y668717D01*
X258520Y667247D01*
X254680Y667247D01*
G37*
%LPD*%
%LPC*%
G36*
X254680Y565647D02*
X254680Y565647D01*
X251132Y567117D01*
X248417Y569832D01*
X246947Y573380D01*
X246947Y577220D01*
X248417Y580768D01*
X251132Y583483D01*
X254680Y584953D01*
X258520Y584953D01*
X262068Y583483D01*
X264783Y580768D01*
X266253Y577220D01*
X266253Y573380D01*
X264783Y569832D01*
X262068Y567117D01*
X258520Y565647D01*
X254680Y565647D01*
G37*
%LPD*%
%LPC*%
G36*
X254680Y743447D02*
X254680Y743447D01*
X251132Y744917D01*
X248417Y747632D01*
X246947Y751180D01*
X246947Y755020D01*
X248417Y758568D01*
X251132Y761283D01*
X254680Y762753D01*
X258520Y762753D01*
X262068Y761283D01*
X264783Y758568D01*
X266253Y755020D01*
X266253Y751180D01*
X264783Y747632D01*
X262068Y744917D01*
X258520Y743447D01*
X254680Y743447D01*
G37*
%LPD*%
%LPC*%
G36*
X254680Y692647D02*
X254680Y692647D01*
X251132Y694117D01*
X248417Y696832D01*
X246947Y700380D01*
X246947Y704220D01*
X248417Y707768D01*
X251132Y710483D01*
X254680Y711953D01*
X258520Y711953D01*
X262068Y710483D01*
X264783Y707768D01*
X266253Y704220D01*
X266253Y700380D01*
X264783Y696832D01*
X262068Y694117D01*
X258520Y692647D01*
X254680Y692647D01*
G37*
%LPD*%
%LPC*%
G36*
X254680Y718047D02*
X254680Y718047D01*
X251132Y719517D01*
X248417Y722232D01*
X246947Y725780D01*
X246947Y729620D01*
X248417Y733168D01*
X251132Y735883D01*
X254680Y737353D01*
X258520Y737353D01*
X262068Y735883D01*
X264783Y733168D01*
X266253Y729620D01*
X266253Y725780D01*
X264783Y722232D01*
X262068Y719517D01*
X258520Y718047D01*
X254680Y718047D01*
G37*
%LPD*%
%LPC*%
G36*
X817623Y567273D02*
X817623Y567273D01*
X817623Y580939D01*
X819669Y580615D01*
X821950Y579874D01*
X824088Y578785D01*
X826029Y577375D01*
X827725Y575679D01*
X829135Y573738D01*
X830224Y571600D01*
X830965Y569319D01*
X831289Y567273D01*
X817623Y567273D01*
G37*
%LPD*%
%LPC*%
G36*
X818923Y347273D02*
X818923Y347273D01*
X818923Y360939D01*
X820969Y360615D01*
X823250Y359874D01*
X825388Y358785D01*
X827329Y357375D01*
X829025Y355679D01*
X830435Y353738D01*
X831524Y351600D01*
X832265Y349319D01*
X832589Y347273D01*
X818923Y347273D01*
G37*
%LPD*%
%LPC*%
G36*
X291373Y204123D02*
X291373Y204123D01*
X291373Y217789D01*
X293419Y217465D01*
X295700Y216724D01*
X297838Y215635D01*
X299779Y214225D01*
X301475Y212529D01*
X302885Y210588D01*
X303974Y208450D01*
X304715Y206169D01*
X305039Y204123D01*
X291373Y204123D01*
G37*
%LPD*%
%LPC*%
G36*
X571373Y205423D02*
X571373Y205423D01*
X571373Y219089D01*
X573419Y218765D01*
X575700Y218024D01*
X577838Y216935D01*
X579779Y215525D01*
X581475Y213829D01*
X582885Y211888D01*
X583974Y209750D01*
X584715Y207469D01*
X585039Y205423D01*
X571373Y205423D01*
G37*
%LPD*%
%LPC*%
G36*
X291373Y201077D02*
X291373Y201077D01*
X305039Y201077D01*
X304715Y199031D01*
X303974Y196750D01*
X302885Y194612D01*
X301475Y192671D01*
X299779Y190975D01*
X297838Y189565D01*
X295700Y188476D01*
X293419Y187735D01*
X291373Y187411D01*
X291373Y201077D01*
G37*
%LPD*%
%LPC*%
G36*
X800911Y567273D02*
X800911Y567273D01*
X801235Y569319D01*
X801976Y571600D01*
X803065Y573738D01*
X804475Y575679D01*
X806171Y577375D01*
X808112Y578785D01*
X810250Y579874D01*
X812531Y580615D01*
X814577Y580939D01*
X814577Y567273D01*
X800911Y567273D01*
G37*
%LPD*%
%LPC*%
G36*
X817623Y564227D02*
X817623Y564227D01*
X831289Y564227D01*
X830965Y562181D01*
X830224Y559900D01*
X829135Y557762D01*
X827725Y555821D01*
X826029Y554125D01*
X824088Y552715D01*
X821950Y551626D01*
X819669Y550885D01*
X817623Y550561D01*
X817623Y564227D01*
G37*
%LPD*%
%LPC*%
G36*
X802211Y347273D02*
X802211Y347273D01*
X802535Y349319D01*
X803276Y351600D01*
X804365Y353738D01*
X805775Y355679D01*
X807471Y357375D01*
X809412Y358785D01*
X811550Y359874D01*
X813831Y360615D01*
X815877Y360939D01*
X815877Y347273D01*
X802211Y347273D01*
G37*
%LPD*%
%LPC*%
G36*
X818923Y344227D02*
X818923Y344227D01*
X832589Y344227D01*
X832265Y342181D01*
X831524Y339900D01*
X830435Y337762D01*
X829025Y335821D01*
X827329Y334125D01*
X825388Y332715D01*
X823250Y331626D01*
X820969Y330885D01*
X818923Y330561D01*
X818923Y344227D01*
G37*
%LPD*%
%LPC*%
G36*
X274661Y204123D02*
X274661Y204123D01*
X274985Y206169D01*
X275726Y208450D01*
X276815Y210588D01*
X278225Y212529D01*
X279921Y214225D01*
X281862Y215635D01*
X284000Y216724D01*
X286281Y217465D01*
X288327Y217789D01*
X288327Y204123D01*
X274661Y204123D01*
G37*
%LPD*%
%LPC*%
G36*
X554661Y205423D02*
X554661Y205423D01*
X554985Y207469D01*
X555726Y209750D01*
X556815Y211888D01*
X558225Y213829D01*
X559921Y215525D01*
X561862Y216935D01*
X564000Y218024D01*
X566281Y218765D01*
X568327Y219089D01*
X568327Y205423D01*
X554661Y205423D01*
G37*
%LPD*%
%LPC*%
G36*
X571373Y202377D02*
X571373Y202377D01*
X585039Y202377D01*
X584715Y200331D01*
X583974Y198050D01*
X582885Y195912D01*
X581475Y193971D01*
X579779Y192275D01*
X577838Y190865D01*
X575700Y189776D01*
X573419Y189035D01*
X571373Y188711D01*
X571373Y202377D01*
G37*
%LPD*%
%LPC*%
G36*
X286281Y187735D02*
X286281Y187735D01*
X284000Y188476D01*
X281862Y189565D01*
X279921Y190975D01*
X278225Y192671D01*
X276815Y194612D01*
X275726Y196750D01*
X274985Y199031D01*
X274661Y201077D01*
X288327Y201077D01*
X288327Y187411D01*
X286281Y187735D01*
G37*
%LPD*%
%LPC*%
G36*
X566281Y189035D02*
X566281Y189035D01*
X564000Y189776D01*
X561862Y190865D01*
X559921Y192275D01*
X558225Y193971D01*
X556815Y195912D01*
X555726Y198050D01*
X554985Y200331D01*
X554661Y202377D01*
X568327Y202377D01*
X568327Y188711D01*
X566281Y189035D01*
G37*
%LPD*%
%LPC*%
G36*
X812531Y550885D02*
X812531Y550885D01*
X810250Y551626D01*
X808112Y552715D01*
X806171Y554125D01*
X804475Y555821D01*
X803065Y557762D01*
X801976Y559900D01*
X801235Y562181D01*
X800911Y564227D01*
X814577Y564227D01*
X814577Y550561D01*
X812531Y550885D01*
G37*
%LPD*%
%LPC*%
G36*
X813831Y330885D02*
X813831Y330885D01*
X811550Y331626D01*
X809412Y332715D01*
X807471Y334125D01*
X805775Y335821D01*
X804365Y337762D01*
X803276Y339900D01*
X802535Y342181D01*
X802211Y344227D01*
X815877Y344227D01*
X815877Y330561D01*
X813831Y330885D01*
G37*
%LPD*%
%LPC*%
G36*
X171023Y859723D02*
X171023Y859723D01*
X171023Y875866D01*
X171879Y875731D01*
X173400Y875236D01*
X174825Y874510D01*
X176119Y873570D01*
X177250Y872439D01*
X178190Y871145D01*
X178916Y869720D01*
X179411Y868199D01*
X179661Y866620D01*
X179661Y859723D01*
X171023Y859723D01*
G37*
%LPD*%
%LPC*%
G36*
X529423Y315923D02*
X529423Y315923D01*
X529423Y332066D01*
X530279Y331931D01*
X531800Y331436D01*
X533225Y330710D01*
X534519Y329770D01*
X535650Y328639D01*
X536590Y327345D01*
X537316Y325920D01*
X537811Y324399D01*
X538061Y322820D01*
X538061Y315923D01*
X529423Y315923D01*
G37*
%LPD*%
%LPC*%
G36*
X396423Y315923D02*
X396423Y315923D01*
X396423Y332066D01*
X397279Y331931D01*
X398800Y331436D01*
X400225Y330710D01*
X401519Y329770D01*
X402650Y328639D01*
X403590Y327345D01*
X404316Y325920D01*
X404811Y324399D01*
X405061Y322820D01*
X405061Y315923D01*
X396423Y315923D01*
G37*
%LPD*%
%LPC*%
G36*
X171023Y856677D02*
X171023Y856677D01*
X179661Y856677D01*
X179661Y849780D01*
X179411Y848201D01*
X178916Y846680D01*
X178190Y845255D01*
X177250Y843961D01*
X176119Y842830D01*
X174825Y841890D01*
X173400Y841164D01*
X171879Y840669D01*
X171023Y840534D01*
X171023Y856677D01*
G37*
%LPD*%
%LPC*%
G36*
X529423Y312877D02*
X529423Y312877D01*
X538061Y312877D01*
X538061Y305980D01*
X537811Y304401D01*
X537316Y302880D01*
X536590Y301455D01*
X535650Y300161D01*
X534519Y299030D01*
X533225Y298090D01*
X531800Y297364D01*
X530279Y296869D01*
X529423Y296734D01*
X529423Y312877D01*
G37*
%LPD*%
%LPC*%
G36*
X396423Y312877D02*
X396423Y312877D01*
X405061Y312877D01*
X405061Y305980D01*
X404811Y304401D01*
X404316Y302880D01*
X403590Y301455D01*
X402650Y300161D01*
X401519Y299030D01*
X400225Y298090D01*
X398800Y297364D01*
X397279Y296869D01*
X396423Y296734D01*
X396423Y312877D01*
G37*
%LPD*%
%LPC*%
G36*
X159339Y859723D02*
X159339Y859723D01*
X159339Y866620D01*
X159589Y868199D01*
X160084Y869720D01*
X160810Y871145D01*
X161750Y872439D01*
X162881Y873570D01*
X164175Y874510D01*
X165600Y875236D01*
X167121Y875731D01*
X167977Y875866D01*
X167977Y859723D01*
X159339Y859723D01*
G37*
%LPD*%
%LPC*%
G36*
X384739Y315923D02*
X384739Y315923D01*
X384739Y322820D01*
X384989Y324399D01*
X385484Y325920D01*
X386210Y327345D01*
X387150Y328639D01*
X388281Y329770D01*
X389575Y330710D01*
X391000Y331436D01*
X392521Y331931D01*
X393377Y332066D01*
X393377Y315923D01*
X384739Y315923D01*
G37*
%LPD*%
%LPC*%
G36*
X517739Y315923D02*
X517739Y315923D01*
X517739Y322820D01*
X517989Y324399D01*
X518484Y325920D01*
X519210Y327345D01*
X520150Y328639D01*
X521281Y329770D01*
X522575Y330710D01*
X524000Y331436D01*
X525521Y331931D01*
X526377Y332066D01*
X526377Y315923D01*
X517739Y315923D01*
G37*
%LPD*%
%LPC*%
G36*
X525521Y296869D02*
X525521Y296869D01*
X524000Y297364D01*
X522575Y298090D01*
X521281Y299030D01*
X520150Y300161D01*
X519210Y301455D01*
X518484Y302880D01*
X517989Y304401D01*
X517739Y305980D01*
X517739Y312877D01*
X526377Y312877D01*
X526377Y296734D01*
X525521Y296869D01*
G37*
%LPD*%
%LPC*%
G36*
X392521Y296869D02*
X392521Y296869D01*
X391000Y297364D01*
X389575Y298090D01*
X388281Y299030D01*
X387150Y300161D01*
X386210Y301455D01*
X385484Y302880D01*
X384989Y304401D01*
X384739Y305980D01*
X384739Y312877D01*
X393377Y312877D01*
X393377Y296734D01*
X392521Y296869D01*
G37*
%LPD*%
%LPC*%
G36*
X167121Y840669D02*
X167121Y840669D01*
X165600Y841164D01*
X164175Y841890D01*
X162881Y842830D01*
X161750Y843961D01*
X160810Y845255D01*
X160084Y846680D01*
X159589Y848201D01*
X159339Y849780D01*
X159339Y856677D01*
X167977Y856677D01*
X167977Y840534D01*
X167121Y840669D01*
G37*
%LPD*%
%LPC*%
G36*
X342623Y802523D02*
X342623Y802523D01*
X342623Y813962D01*
X344154Y813720D01*
X346106Y813085D01*
X347935Y812153D01*
X349596Y810947D01*
X351047Y809496D01*
X352253Y807835D01*
X353185Y806006D01*
X353820Y804054D01*
X354062Y802523D01*
X342623Y802523D01*
G37*
%LPD*%
%LPC*%
G36*
X328138Y802523D02*
X328138Y802523D01*
X328380Y804054D01*
X329015Y806006D01*
X329947Y807835D01*
X331153Y809496D01*
X332604Y810947D01*
X334265Y812153D01*
X336094Y813085D01*
X338046Y813720D01*
X339577Y813962D01*
X339577Y802523D01*
X328138Y802523D01*
G37*
%LPD*%
%LPC*%
G36*
X342623Y799477D02*
X342623Y799477D01*
X354062Y799477D01*
X353820Y797946D01*
X353185Y795994D01*
X352253Y794165D01*
X351047Y792504D01*
X349596Y791053D01*
X347935Y789847D01*
X346106Y788915D01*
X344154Y788280D01*
X342623Y788038D01*
X342623Y799477D01*
G37*
%LPD*%
%LPC*%
G36*
X338046Y788280D02*
X338046Y788280D01*
X336094Y788915D01*
X334265Y789847D01*
X332604Y791053D01*
X331153Y792504D01*
X329947Y794165D01*
X329015Y795994D01*
X328380Y797946D01*
X328138Y799477D01*
X339577Y799477D01*
X339577Y788038D01*
X338046Y788280D01*
G37*
%LPD*%
%LPC*%
G36*
X36323Y406523D02*
X36323Y406523D01*
X36323Y416846D01*
X37596Y416645D01*
X39383Y416064D01*
X41057Y415211D01*
X42578Y414106D01*
X43906Y412778D01*
X45011Y411257D01*
X45864Y409583D01*
X46445Y407796D01*
X46646Y406523D01*
X36323Y406523D01*
G37*
%LPD*%
%LPC*%
G36*
X206223Y83223D02*
X206223Y83223D01*
X206223Y93546D01*
X207496Y93345D01*
X209283Y92764D01*
X210957Y91911D01*
X212478Y90806D01*
X213806Y89478D01*
X214911Y87957D01*
X215764Y86283D01*
X216345Y84496D01*
X216546Y83223D01*
X206223Y83223D01*
G37*
%LPD*%
%LPC*%
G36*
X481823Y559423D02*
X481823Y559423D01*
X481823Y569746D01*
X483096Y569545D01*
X484883Y568964D01*
X486557Y568111D01*
X488078Y567006D01*
X489406Y565678D01*
X490511Y564157D01*
X491364Y562483D01*
X491945Y560696D01*
X492146Y559423D01*
X481823Y559423D01*
G37*
%LPD*%
%LPC*%
G36*
X46723Y686023D02*
X46723Y686023D01*
X46723Y696346D01*
X47996Y696145D01*
X49783Y695564D01*
X51457Y694711D01*
X52978Y693606D01*
X54306Y692278D01*
X55411Y690757D01*
X56264Y689083D01*
X56845Y687296D01*
X57046Y686023D01*
X46723Y686023D01*
G37*
%LPD*%
%LPC*%
G36*
X174223Y301523D02*
X174223Y301523D01*
X174223Y311846D01*
X175496Y311645D01*
X177283Y311064D01*
X178957Y310211D01*
X180478Y309106D01*
X181806Y307778D01*
X182911Y306257D01*
X183764Y304583D01*
X184345Y302796D01*
X184546Y301523D01*
X174223Y301523D01*
G37*
%LPD*%
%LPC*%
G36*
X380223Y559423D02*
X380223Y559423D01*
X380223Y569746D01*
X381496Y569545D01*
X383283Y568964D01*
X384957Y568111D01*
X386478Y567006D01*
X387806Y565678D01*
X388911Y564157D01*
X389764Y562483D01*
X390345Y560696D01*
X390546Y559423D01*
X380223Y559423D01*
G37*
%LPD*%
%LPC*%
G36*
X160854Y301523D02*
X160854Y301523D01*
X161055Y302796D01*
X161636Y304583D01*
X162489Y306257D01*
X163594Y307778D01*
X164922Y309106D01*
X166443Y310211D01*
X168117Y311064D01*
X169904Y311645D01*
X171177Y311846D01*
X171177Y301523D01*
X160854Y301523D01*
G37*
%LPD*%
%LPC*%
G36*
X36323Y403477D02*
X36323Y403477D01*
X46646Y403477D01*
X46445Y402204D01*
X45864Y400417D01*
X45011Y398743D01*
X43906Y397222D01*
X42578Y395894D01*
X41057Y394789D01*
X39383Y393936D01*
X37596Y393355D01*
X36323Y393154D01*
X36323Y403477D01*
G37*
%LPD*%
%LPC*%
G36*
X481823Y556377D02*
X481823Y556377D01*
X492146Y556377D01*
X491945Y555104D01*
X491364Y553317D01*
X490511Y551643D01*
X489406Y550122D01*
X488078Y548794D01*
X486557Y547689D01*
X484883Y546836D01*
X483096Y546255D01*
X481823Y546054D01*
X481823Y556377D01*
G37*
%LPD*%
%LPC*%
G36*
X181254Y159823D02*
X181254Y159823D01*
X181455Y161096D01*
X182036Y162883D01*
X182889Y164557D01*
X183994Y166078D01*
X185322Y167406D01*
X186843Y168511D01*
X188517Y169364D01*
X190304Y169945D01*
X191577Y170146D01*
X191577Y159823D01*
X181254Y159823D01*
G37*
%LPD*%
%LPC*%
G36*
X46723Y682977D02*
X46723Y682977D01*
X57046Y682977D01*
X56845Y681704D01*
X56264Y679917D01*
X55411Y678243D01*
X54306Y676722D01*
X52978Y675394D01*
X51457Y674289D01*
X49783Y673436D01*
X47996Y672855D01*
X46723Y672654D01*
X46723Y682977D01*
G37*
%LPD*%
%LPC*%
G36*
X380223Y556377D02*
X380223Y556377D01*
X390546Y556377D01*
X390345Y555104D01*
X389764Y553317D01*
X388911Y551643D01*
X387806Y550122D01*
X386478Y548794D01*
X384957Y547689D01*
X383283Y546836D01*
X381496Y546255D01*
X380223Y546054D01*
X380223Y556377D01*
G37*
%LPD*%
%LPC*%
G36*
X174223Y298477D02*
X174223Y298477D01*
X184546Y298477D01*
X184345Y297204D01*
X183764Y295417D01*
X182911Y293743D01*
X181806Y292222D01*
X180478Y290894D01*
X178957Y289789D01*
X177283Y288936D01*
X175496Y288355D01*
X174223Y288154D01*
X174223Y298477D01*
G37*
%LPD*%
%LPC*%
G36*
X22954Y406523D02*
X22954Y406523D01*
X23155Y407796D01*
X23736Y409583D01*
X24589Y411257D01*
X25694Y412778D01*
X27022Y414106D01*
X28543Y415211D01*
X30217Y416064D01*
X32004Y416645D01*
X33277Y416846D01*
X33277Y406523D01*
X22954Y406523D01*
G37*
%LPD*%
%LPC*%
G36*
X468454Y559423D02*
X468454Y559423D01*
X468655Y560696D01*
X469236Y562483D01*
X470089Y564157D01*
X471194Y565678D01*
X472522Y567006D01*
X474043Y568111D01*
X475717Y568964D01*
X477504Y569545D01*
X478777Y569746D01*
X478777Y559423D01*
X468454Y559423D01*
G37*
%LPD*%
%LPC*%
G36*
X33354Y686023D02*
X33354Y686023D01*
X33555Y687296D01*
X34136Y689083D01*
X34989Y690757D01*
X36094Y692278D01*
X37422Y693606D01*
X38943Y694711D01*
X40617Y695564D01*
X42404Y696145D01*
X43677Y696346D01*
X43677Y686023D01*
X33354Y686023D01*
G37*
%LPD*%
%LPC*%
G36*
X366854Y559423D02*
X366854Y559423D01*
X367055Y560696D01*
X367636Y562483D01*
X368489Y564157D01*
X369594Y565678D01*
X370922Y567006D01*
X372443Y568111D01*
X374117Y568964D01*
X375904Y569545D01*
X377177Y569746D01*
X377177Y559423D01*
X366854Y559423D01*
G37*
%LPD*%
%LPC*%
G36*
X192854Y83223D02*
X192854Y83223D01*
X193055Y84496D01*
X193636Y86283D01*
X194489Y87957D01*
X195594Y89478D01*
X196922Y90806D01*
X198443Y91911D01*
X200117Y92764D01*
X201904Y93345D01*
X203177Y93546D01*
X203177Y83223D01*
X192854Y83223D01*
G37*
%LPD*%
%LPC*%
G36*
X206223Y80177D02*
X206223Y80177D01*
X216546Y80177D01*
X216345Y78904D01*
X215764Y77117D01*
X214911Y75443D01*
X213806Y73922D01*
X212478Y72594D01*
X210957Y71489D01*
X209283Y70636D01*
X207496Y70055D01*
X206223Y69854D01*
X206223Y80177D01*
G37*
%LPD*%
%LPC*%
G36*
X42404Y672855D02*
X42404Y672855D01*
X40617Y673436D01*
X38943Y674289D01*
X37422Y675394D01*
X36094Y676722D01*
X34989Y678243D01*
X34136Y679917D01*
X33555Y681704D01*
X33354Y682977D01*
X43677Y682977D01*
X43677Y672654D01*
X42404Y672855D01*
G37*
%LPD*%
%LPC*%
G36*
X169904Y288355D02*
X169904Y288355D01*
X168117Y288936D01*
X166443Y289789D01*
X164922Y290894D01*
X163594Y292222D01*
X162489Y293743D01*
X161636Y295417D01*
X161055Y297204D01*
X160854Y298477D01*
X171177Y298477D01*
X171177Y288154D01*
X169904Y288355D01*
G37*
%LPD*%
%LPC*%
G36*
X201904Y70055D02*
X201904Y70055D01*
X200117Y70636D01*
X198443Y71489D01*
X196922Y72594D01*
X195594Y73922D01*
X194489Y75443D01*
X193636Y77117D01*
X193055Y78904D01*
X192854Y80177D01*
X203177Y80177D01*
X203177Y69854D01*
X201904Y70055D01*
G37*
%LPD*%
%LPC*%
G36*
X477504Y546255D02*
X477504Y546255D01*
X475717Y546836D01*
X474043Y547689D01*
X472522Y548794D01*
X471194Y550122D01*
X470089Y551643D01*
X469236Y553317D01*
X468655Y555104D01*
X468454Y556377D01*
X478777Y556377D01*
X478777Y546054D01*
X477504Y546255D01*
G37*
%LPD*%
%LPC*%
G36*
X32004Y393355D02*
X32004Y393355D01*
X30217Y393936D01*
X28543Y394789D01*
X27022Y395894D01*
X25694Y397222D01*
X24589Y398743D01*
X23736Y400417D01*
X23155Y402204D01*
X22954Y403477D01*
X33277Y403477D01*
X33277Y393154D01*
X32004Y393355D01*
G37*
%LPD*%
%LPC*%
G36*
X375904Y546255D02*
X375904Y546255D01*
X374117Y546836D01*
X372443Y547689D01*
X370922Y548794D01*
X369594Y550122D01*
X368489Y551643D01*
X367636Y553317D01*
X367055Y555104D01*
X366854Y556377D01*
X377177Y556377D01*
X377177Y546054D01*
X375904Y546255D01*
G37*
%LPD*%
%LPC*%
G36*
X107823Y539423D02*
X107823Y539423D01*
X107823Y548589D01*
X108828Y548430D01*
X110444Y547905D01*
X111958Y547133D01*
X113333Y546134D01*
X114534Y544933D01*
X115533Y543558D01*
X116305Y542044D01*
X116830Y540428D01*
X116989Y539423D01*
X107823Y539423D01*
G37*
%LPD*%
%LPC*%
G36*
X129823Y623623D02*
X129823Y623623D01*
X129823Y632789D01*
X130828Y632630D01*
X132444Y632105D01*
X133958Y631333D01*
X135333Y630334D01*
X136534Y629133D01*
X137533Y627758D01*
X138305Y626244D01*
X138830Y624628D01*
X138989Y623623D01*
X129823Y623623D01*
G37*
%LPD*%
%LPC*%
G36*
X30223Y854323D02*
X30223Y854323D01*
X30223Y863489D01*
X31228Y863330D01*
X32844Y862805D01*
X34358Y862033D01*
X35733Y861034D01*
X36934Y859833D01*
X37933Y858458D01*
X38705Y856944D01*
X39230Y855328D01*
X39389Y854323D01*
X30223Y854323D01*
G37*
%LPD*%
%LPC*%
G36*
X117611Y623623D02*
X117611Y623623D01*
X117770Y624628D01*
X118295Y626244D01*
X119067Y627758D01*
X120066Y629133D01*
X121267Y630334D01*
X122642Y631333D01*
X124156Y632105D01*
X125772Y632630D01*
X126777Y632789D01*
X126777Y623623D01*
X117611Y623623D01*
G37*
%LPD*%
%LPC*%
G36*
X30223Y851277D02*
X30223Y851277D01*
X39389Y851277D01*
X39230Y850272D01*
X38705Y848656D01*
X37933Y847142D01*
X36934Y845767D01*
X35733Y844566D01*
X34358Y843567D01*
X32844Y842795D01*
X31228Y842270D01*
X30223Y842111D01*
X30223Y851277D01*
G37*
%LPD*%
%LPC*%
G36*
X129823Y620577D02*
X129823Y620577D01*
X138989Y620577D01*
X138830Y619572D01*
X138305Y617956D01*
X137533Y616442D01*
X136534Y615067D01*
X135333Y613866D01*
X133958Y612867D01*
X132444Y612095D01*
X130828Y611570D01*
X129823Y611411D01*
X129823Y620577D01*
G37*
%LPD*%
%LPC*%
G36*
X18011Y854323D02*
X18011Y854323D01*
X18170Y855328D01*
X18695Y856944D01*
X19467Y858458D01*
X20466Y859833D01*
X21667Y861034D01*
X23042Y862033D01*
X24556Y862805D01*
X26172Y863330D01*
X27177Y863489D01*
X27177Y854323D01*
X18011Y854323D01*
G37*
%LPD*%
%LPC*%
G36*
X321511Y654323D02*
X321511Y654323D01*
X321670Y655328D01*
X322195Y656944D01*
X322967Y658458D01*
X323966Y659833D01*
X325167Y661034D01*
X326542Y662033D01*
X328056Y662805D01*
X329672Y663330D01*
X330677Y663489D01*
X330677Y654323D01*
X321511Y654323D01*
G37*
%LPD*%
%LPC*%
G36*
X26172Y842270D02*
X26172Y842270D01*
X24556Y842795D01*
X23042Y843567D01*
X21667Y844566D01*
X20466Y845767D01*
X19467Y847142D01*
X18695Y848656D01*
X18170Y850272D01*
X18011Y851277D01*
X27177Y851277D01*
X27177Y842111D01*
X26172Y842270D01*
G37*
%LPD*%
%LPC*%
G36*
X125772Y611570D02*
X125772Y611570D01*
X124156Y612095D01*
X122642Y612867D01*
X121267Y613866D01*
X120066Y615067D01*
X119067Y616442D01*
X118295Y617956D01*
X117770Y619572D01*
X117611Y620577D01*
X126777Y620577D01*
X126777Y611411D01*
X125772Y611570D01*
G37*
%LPD*%
%LPC*%
G36*
X329672Y642270D02*
X329672Y642270D01*
X328056Y642795D01*
X326542Y643567D01*
X325167Y644566D01*
X323966Y645767D01*
X322967Y647142D01*
X322195Y648656D01*
X321670Y650272D01*
X321511Y651277D01*
X330677Y651277D01*
X330677Y642111D01*
X329672Y642270D01*
G37*
%LPD*%
%LPC*%
G36*
X181923Y602223D02*
X181923Y602223D01*
X181923Y611260D01*
X182898Y611106D01*
X184495Y610587D01*
X185992Y609825D01*
X187350Y608838D01*
X188538Y607650D01*
X189525Y606292D01*
X190287Y604795D01*
X190806Y603198D01*
X190960Y602223D01*
X181923Y602223D01*
G37*
%LPD*%
%LPC*%
G36*
X258123Y627623D02*
X258123Y627623D01*
X258123Y636660D01*
X259098Y636506D01*
X260695Y635987D01*
X262192Y635225D01*
X263550Y634238D01*
X264738Y633050D01*
X265725Y631692D01*
X266487Y630195D01*
X267006Y628598D01*
X267160Y627623D01*
X258123Y627623D01*
G37*
%LPD*%
%LPC*%
G36*
X181923Y599177D02*
X181923Y599177D01*
X190960Y599177D01*
X190806Y598202D01*
X190287Y596605D01*
X189525Y595108D01*
X188538Y593750D01*
X187350Y592562D01*
X185992Y591575D01*
X184495Y590813D01*
X182898Y590294D01*
X181923Y590140D01*
X181923Y599177D01*
G37*
%LPD*%
%LPC*%
G36*
X169840Y602223D02*
X169840Y602223D01*
X169994Y603198D01*
X170513Y604795D01*
X171275Y606292D01*
X172262Y607650D01*
X173450Y608838D01*
X174808Y609825D01*
X176305Y610587D01*
X177902Y611106D01*
X178877Y611260D01*
X178877Y602223D01*
X169840Y602223D01*
G37*
%LPD*%
%LPC*%
G36*
X177902Y590294D02*
X177902Y590294D01*
X176305Y590813D01*
X174808Y591575D01*
X173450Y592562D01*
X172262Y593750D01*
X171275Y595108D01*
X170513Y596605D01*
X169994Y598202D01*
X169840Y599177D01*
X178877Y599177D01*
X178877Y590140D01*
X177902Y590294D01*
G37*
%LPD*%
%LPC*%
G36*
X378699Y557899D02*
X378699Y557899D01*
X378699Y557901D01*
X378701Y557901D01*
X378701Y557899D01*
X378699Y557899D01*
G37*
%LPD*%
%LPC*%
G36*
X341099Y800999D02*
X341099Y800999D01*
X341099Y801001D01*
X341101Y801001D01*
X341101Y800999D01*
X341099Y800999D01*
G37*
%LPD*%
%LPC*%
G36*
X480299Y557899D02*
X480299Y557899D01*
X480299Y557901D01*
X480301Y557901D01*
X480301Y557899D01*
X480299Y557899D01*
G37*
%LPD*%
%LPC*%
G36*
X569849Y203899D02*
X569849Y203899D01*
X569849Y203901D01*
X569851Y203901D01*
X569851Y203899D01*
X569849Y203899D01*
G37*
%LPD*%
%LPC*%
G36*
X289849Y202599D02*
X289849Y202599D01*
X289849Y202601D01*
X289851Y202601D01*
X289851Y202599D01*
X289849Y202599D01*
G37*
%LPD*%
%LPC*%
G36*
X172699Y299999D02*
X172699Y299999D01*
X172699Y300001D01*
X172701Y300001D01*
X172701Y299999D01*
X172699Y299999D01*
G37*
%LPD*%
%LPC*%
G36*
X28699Y852799D02*
X28699Y852799D01*
X28699Y852801D01*
X28701Y852801D01*
X28701Y852799D01*
X28699Y852799D01*
G37*
%LPD*%
%LPC*%
G36*
X45199Y684499D02*
X45199Y684499D01*
X45199Y684501D01*
X45201Y684501D01*
X45201Y684499D01*
X45199Y684499D01*
G37*
%LPD*%
%LPC*%
G36*
X169499Y858199D02*
X169499Y858199D01*
X169499Y858201D01*
X169501Y858201D01*
X169501Y858199D01*
X169499Y858199D01*
G37*
%LPD*%
%LPC*%
G36*
X817399Y345749D02*
X817399Y345749D01*
X817399Y345751D01*
X817401Y345751D01*
X817401Y345749D01*
X817399Y345749D01*
G37*
%LPD*%
%LPC*%
G36*
X180399Y600699D02*
X180399Y600699D01*
X180399Y600701D01*
X180401Y600701D01*
X180401Y600699D01*
X180399Y600699D01*
G37*
%LPD*%
%LPC*%
G36*
X394899Y314399D02*
X394899Y314399D01*
X394899Y314401D01*
X394901Y314401D01*
X394901Y314399D01*
X394899Y314399D01*
G37*
%LPD*%
%LPC*%
G36*
X527899Y314399D02*
X527899Y314399D01*
X527899Y314401D01*
X527901Y314401D01*
X527901Y314399D01*
X527899Y314399D01*
G37*
%LPD*%
%LPC*%
G36*
X816099Y565749D02*
X816099Y565749D01*
X816099Y565751D01*
X816101Y565751D01*
X816101Y565749D01*
X816099Y565749D01*
G37*
%LPD*%
%LPC*%
G36*
X204699Y81699D02*
X204699Y81699D01*
X204699Y81701D01*
X204701Y81701D01*
X204701Y81699D01*
X204699Y81699D01*
G37*
%LPD*%
%LPC*%
G36*
X34799Y404999D02*
X34799Y404999D01*
X34799Y405001D01*
X34801Y405001D01*
X34801Y404999D01*
X34799Y404999D01*
G37*
%LPD*%
%LPC*%
G36*
X128299Y622099D02*
X128299Y622099D01*
X128299Y622101D01*
X128301Y622101D01*
X128301Y622099D01*
X128299Y622099D01*
G37*
%LPD*%
D10*
X34800Y379600D03*
X34800Y405000D03*
X34800Y430400D03*
X34800Y455800D03*
D11*
X357200Y652800D03*
D12*
X332200Y652800D03*
D11*
X53700Y852800D03*
D12*
X28700Y852800D03*
X128300Y622100D03*
X102900Y622100D03*
X80900Y537900D03*
X106300Y537900D03*
D13*
X684700Y443540D02*
X684700Y421061D01*
X684700Y573461D02*
X684700Y595940D01*
X798500Y216040D02*
X798500Y193561D01*
X798500Y63640D02*
X798500Y41161D01*
D14*
X144100Y850580D02*
X144100Y865820D01*
X169500Y865820D02*
X169500Y850580D01*
X194900Y850580D02*
X194900Y865820D01*
D15*
X796100Y625750D03*
D16*
X816100Y565750D03*
X938100Y565750D03*
X938100Y685750D03*
X816100Y685750D03*
D15*
X797400Y405750D03*
D16*
X817400Y345750D03*
X939400Y345750D03*
X939400Y465750D03*
X817400Y465750D03*
D15*
X629850Y223900D03*
D16*
X569850Y203900D03*
X569850Y81900D03*
X689850Y81900D03*
X689850Y203900D03*
D15*
X349850Y222600D03*
D16*
X289850Y202600D03*
X289850Y80600D03*
X409850Y80600D03*
X409850Y202600D03*
D17*
X604800Y794200D03*
X694800Y794200D03*
X964100Y211100D03*
X964100Y121100D03*
X431100Y801000D03*
X341100Y801000D03*
D10*
X45200Y786100D03*
X45200Y760700D03*
X45200Y735300D03*
X45200Y709900D03*
X45200Y684500D03*
D14*
X344100Y322020D02*
X344100Y306780D01*
X369500Y306780D02*
X369500Y322020D01*
X394900Y322020D02*
X394900Y306780D01*
X477100Y306780D02*
X477100Y322020D01*
X502500Y322020D02*
X502500Y306780D01*
X527900Y306780D02*
X527900Y322020D01*
D10*
X149900Y758300D03*
X73700Y758300D03*
X128500Y81700D03*
X204700Y81700D03*
X193100Y158300D03*
X116900Y158300D03*
X194700Y218300D03*
X118500Y218300D03*
X404100Y557900D03*
X480300Y557900D03*
X302500Y557900D03*
X378700Y557900D03*
D18*
X180400Y778500D03*
X180400Y753100D03*
X180400Y727700D03*
X180400Y702300D03*
X180400Y676900D03*
X180400Y651500D03*
X180400Y626100D03*
X180400Y600700D03*
X180400Y575300D03*
X180400Y549900D03*
X180400Y524500D03*
X180400Y499100D03*
X180400Y473700D03*
X180400Y448300D03*
X256600Y448300D03*
X256600Y473700D03*
X256600Y499100D03*
X256600Y524500D03*
X256600Y549900D03*
X256600Y575300D03*
X256600Y600700D03*
X256600Y626100D03*
X256600Y651500D03*
X256600Y676900D03*
X256600Y702300D03*
X256600Y727700D03*
X256600Y753100D03*
X256600Y778500D03*
D12*
X47200Y566900D03*
X47200Y617700D03*
D10*
X50000Y70000D03*
X50000Y44600D03*
X50000Y170000D03*
X50000Y144600D03*
X50000Y270000D03*
X50000Y244600D03*
X147300Y300000D03*
X172700Y300000D03*
X250000Y261900D03*
X250000Y338100D03*
D19*
X98500Y617700D02*
X47200Y617700D01*
X98500Y617700D02*
X102900Y622100D01*
X149700Y575300D01*
X180400Y575300D01*
X51900Y566900D02*
X47200Y566900D01*
X51900Y566900D02*
X80900Y537900D01*
X91393Y537900D01*
X101934Y527359D01*
X157859Y527359D01*
X180400Y549900D01*
D20*
X357200Y652800D02*
X431100Y726700D01*
X431100Y801000D01*
D19*
X346374Y885726D01*
X161626Y885726D02*
X144100Y868200D01*
X144100Y858200D01*
X161626Y885726D02*
X346374Y885726D01*
D21*
X431100Y801000D02*
X529109Y801000D01*
X564054Y835946D01*
X914054Y835946D01*
X1036078Y713922D02*
X1036078Y460000D01*
X1036078Y40000D01*
X1000000Y750000D02*
X914054Y835946D01*
X1000000Y750000D02*
X1036078Y713922D01*
X814787Y102959D02*
X782213Y102959D01*
X713176Y33922D02*
X690000Y33922D01*
X410000Y33922D01*
X713176Y33922D02*
X782213Y102959D01*
X877746Y40000D02*
X1036078Y40000D01*
X877746Y40000D02*
X814787Y102959D01*
X410000Y33922D02*
X409850Y34072D01*
X409850Y80600D01*
X689850Y34072D02*
X690000Y33922D01*
X945150Y460000D02*
X939400Y465750D01*
X945150Y460000D02*
X1036078Y460000D01*
X938100Y685750D02*
X1000000Y747650D01*
X1000000Y750000D01*
X690000Y81750D02*
X690000Y33922D01*
X690000Y81750D02*
X689850Y81900D01*
D19*
X45200Y786100D02*
X45200Y844300D01*
X53700Y852800D01*
X149900Y758300D02*
X158536Y766936D01*
X190814Y854114D02*
X194900Y858200D01*
X190814Y800000D02*
X190814Y774186D01*
X190814Y800000D02*
X190814Y854114D01*
X183564Y766936D02*
X158536Y766936D01*
X183564Y766936D02*
X190814Y774186D01*
X173272Y786100D02*
X45200Y786100D01*
X173272Y786100D02*
X176086Y788914D01*
X179728Y788914D01*
X190814Y800000D01*
X34800Y379600D02*
X54800Y359600D01*
X54800Y274800D01*
X50000Y270000D01*
X50000Y261124D01*
X38316Y249440D02*
X38316Y181684D01*
X50000Y170000D01*
X38316Y249440D02*
X50000Y261124D01*
X50000Y170000D02*
X50000Y161124D01*
X38316Y149440D02*
X38316Y81684D01*
X50000Y70000D01*
X38316Y149440D02*
X50000Y161124D01*
X28700Y701000D02*
X28700Y852800D01*
X28700Y701000D02*
X45200Y684500D01*
X97059Y632641D01*
X117807Y622100D02*
X128300Y622100D01*
X107266Y632641D02*
X97059Y632641D01*
X107266Y632641D02*
X117807Y622100D01*
X128300Y622100D02*
X159000Y622100D01*
X180400Y600700D01*
X117600Y537900D02*
X106300Y537900D01*
X184714Y564886D02*
X190814Y570986D01*
X190814Y579614D01*
X144586Y564886D02*
X117600Y537900D01*
X144586Y564886D02*
X184714Y564886D01*
X190814Y579614D02*
X180400Y590028D01*
X180400Y600700D01*
X817400Y444557D02*
X817400Y345750D01*
X817400Y444557D02*
X832386Y459543D01*
X832386Y549464D02*
X816100Y565750D01*
X832386Y549464D02*
X832386Y459543D01*
X332200Y652800D02*
X305500Y626100D01*
X256600Y626100D01*
X332200Y652800D02*
X341100Y661700D01*
X341100Y801000D01*
X625950Y260000D02*
X569850Y203900D01*
X731650Y260000D02*
X817400Y345750D01*
X731650Y260000D02*
X625950Y260000D01*
X569850Y203900D02*
X527900Y245850D01*
X527900Y310000D01*
X527900Y314400D01*
X394900Y307650D02*
X289850Y202600D01*
X394900Y307650D02*
X394900Y314400D01*
X472997Y296874D02*
X481203Y296874D01*
X489038Y327596D02*
X496924Y335482D01*
X508076Y335482D01*
X515962Y327596D01*
X455471Y314400D02*
X394900Y314400D01*
X515962Y321938D02*
X515962Y327596D01*
X472997Y296874D02*
X455471Y314400D01*
X515962Y321938D02*
X527900Y310000D01*
X489038Y304709D02*
X481203Y296874D01*
X489038Y304709D02*
X489038Y327596D01*
X133376Y758300D02*
X155060Y779984D01*
X178916Y779984D02*
X180400Y778500D01*
X178916Y779984D02*
X155060Y779984D01*
X73700Y758300D02*
X47600Y758300D01*
X45200Y760700D01*
X73700Y758300D02*
X133376Y758300D01*
X180400Y727700D02*
X162600Y709900D01*
X45200Y709900D01*
X162600Y735300D02*
X180400Y753100D01*
X162600Y735300D02*
X45200Y735300D01*
X180400Y702300D02*
X180400Y701628D01*
X233048Y648980D01*
X193416Y146616D02*
X128500Y81700D01*
X193416Y146616D02*
X197940Y146616D01*
X233048Y181724D01*
X233048Y648980D01*
X128500Y81700D02*
X98500Y51700D01*
X83400Y51700D01*
X76300Y44600D02*
X50000Y44600D01*
X76300Y44600D02*
X83400Y51700D01*
X180400Y640828D02*
X180400Y651500D01*
X180400Y640828D02*
X220000Y601228D01*
X165216Y206616D02*
X116900Y158300D01*
X165216Y206616D02*
X199540Y206616D01*
X220000Y227076D02*
X220000Y601228D01*
X220000Y227076D02*
X199540Y206616D01*
X116900Y158300D02*
X106900Y158300D01*
X96900Y148300D01*
X80000Y148300D01*
X76300Y144600D02*
X50000Y144600D01*
X76300Y144600D02*
X80000Y148300D01*
X180400Y463028D02*
X180400Y473700D01*
X180400Y463028D02*
X206952Y436476D01*
X206952Y230000D01*
X206936Y229984D01*
X178176Y218300D02*
X118500Y218300D01*
X189860Y229984D02*
X206936Y229984D01*
X189860Y229984D02*
X178176Y218300D01*
X118500Y218300D02*
X98500Y238300D01*
X83300Y238300D01*
X77000Y244600D02*
X50000Y244600D01*
X77000Y244600D02*
X83300Y238300D01*
X34800Y455800D02*
X93311Y514311D01*
X149122Y514311D01*
X149311Y514500D01*
X170400Y514500D02*
X180400Y524500D01*
X170400Y514500D02*
X149311Y514500D01*
X103500Y499100D02*
X34800Y430400D01*
X103500Y499100D02*
X180400Y499100D01*
D22*
X629850Y223900D02*
X692650Y161100D01*
X924100Y161100D01*
X964100Y121100D01*
X671720Y727280D02*
X604800Y794200D01*
X797400Y447877D02*
X797400Y405750D01*
X769320Y574657D02*
X671720Y672257D01*
X769320Y574657D02*
X769320Y475957D01*
X671720Y672257D02*
X671720Y727280D01*
X769320Y475957D02*
X797400Y447877D01*
X796100Y625750D02*
X694800Y727050D01*
X694800Y794200D01*
D19*
X302500Y557900D02*
X302500Y356000D01*
X344100Y314400D01*
X267014Y522414D02*
X302500Y557900D01*
X256600Y484372D02*
X256600Y473700D01*
X256600Y484372D02*
X267014Y494786D01*
X267014Y522414D01*
X404100Y557900D02*
X404100Y387400D01*
X477100Y314400D01*
X404100Y557900D02*
X371000Y591000D01*
X362000Y600000D01*
X184714Y712714D02*
X176086Y712714D01*
X169986Y706614D01*
X260914Y611114D02*
X272028Y600000D01*
X260914Y611114D02*
X256858Y611114D01*
X246096Y621876D01*
X180400Y676900D02*
X180400Y687317D01*
X246096Y651332D02*
X246096Y621876D01*
X246096Y651332D02*
X184714Y712714D01*
X169986Y706614D02*
X169986Y697731D01*
X180400Y687317D01*
X272028Y600000D02*
X362000Y600000D01*
X250000Y440172D02*
X250000Y338100D01*
X250000Y440172D02*
X246186Y443986D01*
X246186Y539486D01*
X256600Y549900D01*
M02*
