G04 EAGLE Gerber RS-274X export*
G75*
%MOMM*%
%FSLAX34Y34*%
%LPD*%
%INBottom Copper*%
%IPPOS*%
%AMOC8*
5,1,8,0,0,1.08239X$1,22.5*%
G01*
%ADD10C,1.879600*%
%ADD11R,1.651000X1.651000*%
%ADD12C,1.651000*%
%ADD13C,2.247900*%
%ADD14C,1.524000*%
%ADD15R,2.540000X2.540000*%
%ADD16C,2.540000*%
%ADD17C,2.100000*%
%ADD18C,1.625600*%
%ADD19C,0.152400*%
%ADD20C,1.800000*%

G36*
X337847Y10934D02*
X337847Y10934D01*
X337919Y10936D01*
X337968Y10954D01*
X338019Y10962D01*
X338082Y10996D01*
X338150Y11021D01*
X338190Y11053D01*
X338236Y11078D01*
X338286Y11130D01*
X338342Y11174D01*
X338370Y11218D01*
X338406Y11256D01*
X338436Y11321D01*
X338475Y11381D01*
X338487Y11432D01*
X338509Y11479D01*
X338517Y11550D01*
X338535Y11620D01*
X338531Y11672D01*
X338537Y11723D01*
X338521Y11794D01*
X338516Y11865D01*
X338495Y11913D01*
X338484Y11964D01*
X338447Y12025D01*
X338419Y12091D01*
X338375Y12147D01*
X338358Y12175D01*
X338340Y12190D01*
X338315Y12222D01*
X287941Y62596D01*
X287867Y62649D01*
X287797Y62709D01*
X287767Y62721D01*
X287741Y62740D01*
X287654Y62767D01*
X287569Y62801D01*
X287528Y62805D01*
X287506Y62812D01*
X287474Y62811D01*
X287402Y62819D01*
X286313Y62819D01*
X279778Y65526D01*
X274776Y70528D01*
X272069Y77063D01*
X272069Y84137D01*
X274776Y90672D01*
X279778Y95674D01*
X286313Y98381D01*
X293387Y98381D01*
X299922Y95674D01*
X304924Y90672D01*
X307631Y84137D01*
X307631Y83048D01*
X307645Y82958D01*
X307653Y82867D01*
X307665Y82837D01*
X307670Y82805D01*
X307713Y82724D01*
X307749Y82640D01*
X307775Y82608D01*
X307786Y82588D01*
X307809Y82565D01*
X307854Y82509D01*
X356059Y34304D01*
X356133Y34251D01*
X356203Y34191D01*
X356233Y34179D01*
X356259Y34160D01*
X356346Y34133D01*
X356431Y34099D01*
X356472Y34095D01*
X356494Y34088D01*
X356526Y34089D01*
X356598Y34081D01*
X555158Y34081D01*
X555178Y34084D01*
X555197Y34082D01*
X555299Y34104D01*
X555401Y34120D01*
X555418Y34130D01*
X555438Y34134D01*
X555527Y34187D01*
X555618Y34236D01*
X555632Y34250D01*
X555649Y34260D01*
X555716Y34339D01*
X555788Y34414D01*
X555796Y34432D01*
X555809Y34447D01*
X555848Y34543D01*
X555891Y34637D01*
X555893Y34657D01*
X555901Y34675D01*
X555919Y34842D01*
X555919Y70370D01*
X555905Y70460D01*
X555897Y70551D01*
X555885Y70580D01*
X555880Y70612D01*
X555837Y70693D01*
X555801Y70777D01*
X555775Y70809D01*
X555764Y70830D01*
X555741Y70852D01*
X555696Y70908D01*
X554776Y71828D01*
X552069Y78363D01*
X552069Y85437D01*
X554776Y91972D01*
X559778Y96974D01*
X566313Y99681D01*
X573387Y99681D01*
X579922Y96974D01*
X584924Y91972D01*
X587631Y85437D01*
X587631Y78363D01*
X584924Y71828D01*
X584304Y71208D01*
X584251Y71134D01*
X584191Y71065D01*
X584179Y71034D01*
X584160Y71008D01*
X584133Y70921D01*
X584099Y70836D01*
X584095Y70795D01*
X584088Y70773D01*
X584089Y70741D01*
X584081Y70670D01*
X584081Y34842D01*
X584084Y34822D01*
X584082Y34803D01*
X584104Y34701D01*
X584120Y34599D01*
X584130Y34582D01*
X584134Y34562D01*
X584187Y34473D01*
X584236Y34382D01*
X584250Y34368D01*
X584260Y34351D01*
X584339Y34284D01*
X584414Y34212D01*
X584432Y34204D01*
X584447Y34191D01*
X584543Y34152D01*
X584637Y34109D01*
X584657Y34107D01*
X584675Y34099D01*
X584842Y34081D01*
X759952Y34081D01*
X760042Y34095D01*
X760133Y34103D01*
X760163Y34115D01*
X760195Y34120D01*
X760276Y34163D01*
X760360Y34199D01*
X760392Y34225D01*
X760412Y34236D01*
X760435Y34259D01*
X760491Y34304D01*
X781957Y55770D01*
X782010Y55844D01*
X782069Y55913D01*
X782082Y55944D01*
X782100Y55970D01*
X782127Y56057D01*
X782161Y56142D01*
X782166Y56182D01*
X782173Y56205D01*
X782172Y56237D01*
X782180Y56308D01*
X782180Y66886D01*
X784664Y72884D01*
X789255Y77475D01*
X795254Y79960D01*
X801746Y79960D01*
X807745Y77475D01*
X812336Y72884D01*
X814820Y66886D01*
X814820Y37914D01*
X812336Y31916D01*
X807745Y27325D01*
X801746Y24840D01*
X795254Y24840D01*
X792612Y25934D01*
X792499Y25961D01*
X792385Y25990D01*
X792379Y25989D01*
X792373Y25991D01*
X792256Y25980D01*
X792140Y25971D01*
X792134Y25968D01*
X792128Y25968D01*
X792020Y25920D01*
X791914Y25874D01*
X791908Y25870D01*
X791903Y25868D01*
X791889Y25855D01*
X791783Y25769D01*
X778235Y12222D01*
X778194Y12164D01*
X778144Y12112D01*
X778122Y12065D01*
X778092Y12023D01*
X778071Y11954D01*
X778041Y11889D01*
X778035Y11837D01*
X778020Y11787D01*
X778021Y11716D01*
X778013Y11645D01*
X778025Y11594D01*
X778026Y11542D01*
X778051Y11474D01*
X778066Y11404D01*
X778092Y11360D01*
X778110Y11311D01*
X778155Y11255D01*
X778192Y11193D01*
X778231Y11159D01*
X778264Y11119D01*
X778324Y11080D01*
X778379Y11033D01*
X778427Y11014D01*
X778471Y10986D01*
X778540Y10968D01*
X778607Y10941D01*
X778678Y10933D01*
X778709Y10925D01*
X778733Y10927D01*
X778774Y10923D01*
X1058316Y10923D01*
X1058336Y10926D01*
X1058355Y10924D01*
X1058457Y10946D01*
X1058559Y10962D01*
X1058576Y10972D01*
X1058596Y10976D01*
X1058685Y11029D01*
X1058776Y11078D01*
X1058790Y11092D01*
X1058807Y11102D01*
X1058874Y11181D01*
X1058946Y11256D01*
X1058954Y11274D01*
X1058967Y11289D01*
X1059006Y11385D01*
X1059049Y11479D01*
X1059051Y11499D01*
X1059059Y11517D01*
X1059077Y11684D01*
X1059077Y888316D01*
X1059074Y888336D01*
X1059076Y888355D01*
X1059054Y888457D01*
X1059038Y888559D01*
X1059028Y888576D01*
X1059024Y888596D01*
X1058971Y888685D01*
X1058922Y888776D01*
X1058908Y888790D01*
X1058898Y888807D01*
X1058819Y888874D01*
X1058744Y888946D01*
X1058726Y888954D01*
X1058711Y888967D01*
X1058615Y889006D01*
X1058521Y889049D01*
X1058501Y889051D01*
X1058483Y889059D01*
X1058316Y889077D01*
X-8316Y889077D01*
X-8336Y889074D01*
X-8355Y889076D01*
X-8457Y889054D01*
X-8559Y889038D01*
X-8576Y889028D01*
X-8596Y889024D01*
X-8685Y888971D01*
X-8776Y888922D01*
X-8790Y888908D01*
X-8807Y888898D01*
X-8874Y888819D01*
X-8946Y888744D01*
X-8954Y888726D01*
X-8967Y888711D01*
X-9006Y888615D01*
X-9049Y888521D01*
X-9051Y888501D01*
X-9059Y888483D01*
X-9077Y888316D01*
X-9077Y11684D01*
X-9074Y11664D01*
X-9076Y11645D01*
X-9054Y11543D01*
X-9038Y11441D01*
X-9028Y11424D01*
X-9024Y11404D01*
X-8971Y11315D01*
X-8922Y11224D01*
X-8908Y11210D01*
X-8898Y11193D01*
X-8819Y11126D01*
X-8744Y11054D01*
X-8726Y11046D01*
X-8711Y11033D01*
X-8615Y10994D01*
X-8521Y10951D01*
X-8501Y10949D01*
X-8483Y10941D01*
X-8316Y10923D01*
X337776Y10923D01*
X337847Y10934D01*
G37*
%LPC*%
G36*
X409649Y145919D02*
X409649Y145919D01*
X404474Y148063D01*
X347941Y204596D01*
X347867Y204649D01*
X347797Y204709D01*
X347767Y204721D01*
X347741Y204740D01*
X347654Y204767D01*
X347569Y204801D01*
X347528Y204805D01*
X347506Y204812D01*
X347474Y204811D01*
X347402Y204819D01*
X335045Y204819D01*
X332069Y207795D01*
X332069Y237405D01*
X335045Y240381D01*
X364655Y240381D01*
X367631Y237405D01*
X367631Y225048D01*
X367645Y224958D01*
X367653Y224867D01*
X367665Y224837D01*
X367670Y224805D01*
X367713Y224724D01*
X367749Y224640D01*
X367775Y224608D01*
X367786Y224588D01*
X367809Y224565D01*
X367854Y224509D01*
X395064Y197300D01*
X395143Y197243D01*
X395218Y197181D01*
X395242Y197171D01*
X395263Y197156D01*
X395356Y197127D01*
X395447Y197093D01*
X395473Y197091D01*
X395498Y197084D01*
X395596Y197086D01*
X395693Y197082D01*
X395718Y197089D01*
X395744Y197090D01*
X395836Y197124D01*
X395929Y197151D01*
X395951Y197166D01*
X395975Y197175D01*
X396051Y197235D01*
X396131Y197291D01*
X396147Y197312D01*
X396167Y197328D01*
X396220Y197410D01*
X396278Y197488D01*
X396286Y197513D01*
X396300Y197535D01*
X396324Y197630D01*
X396354Y197722D01*
X396354Y197748D01*
X396360Y197774D01*
X396353Y197871D01*
X396352Y197968D01*
X396343Y198000D01*
X396341Y198019D01*
X396328Y198049D01*
X396305Y198129D01*
X395625Y199771D01*
X395625Y205429D01*
X397400Y209714D01*
X397427Y209828D01*
X397455Y209942D01*
X397455Y209948D01*
X397456Y209954D01*
X397445Y210071D01*
X397436Y210187D01*
X397434Y210193D01*
X397433Y210199D01*
X397385Y210306D01*
X397340Y210413D01*
X397335Y210419D01*
X397333Y210424D01*
X397321Y210437D01*
X397235Y210544D01*
X177097Y430682D01*
X177097Y438711D01*
X177078Y438826D01*
X177061Y438942D01*
X177059Y438948D01*
X177058Y438954D01*
X177003Y439057D01*
X176950Y439162D01*
X176945Y439166D01*
X176942Y439171D01*
X176858Y439251D01*
X176774Y439334D01*
X176768Y439337D01*
X176764Y439341D01*
X176747Y439349D01*
X176627Y439415D01*
X174932Y440117D01*
X172217Y442832D01*
X170747Y446380D01*
X170747Y450220D01*
X172217Y453768D01*
X174932Y456483D01*
X178480Y457953D01*
X182320Y457953D01*
X185868Y456483D01*
X188583Y453768D01*
X190053Y450220D01*
X190053Y446380D01*
X188583Y442832D01*
X185868Y440117D01*
X184173Y439415D01*
X184073Y439353D01*
X183973Y439293D01*
X183969Y439288D01*
X183964Y439285D01*
X183889Y439195D01*
X183813Y439106D01*
X183811Y439100D01*
X183807Y439096D01*
X183765Y438987D01*
X183721Y438878D01*
X183720Y438871D01*
X183719Y438866D01*
X183718Y438848D01*
X183703Y438711D01*
X183703Y433733D01*
X183717Y433643D01*
X183725Y433552D01*
X183737Y433523D01*
X183742Y433491D01*
X183785Y433410D01*
X183821Y433326D01*
X183847Y433294D01*
X183858Y433273D01*
X183881Y433251D01*
X183926Y433195D01*
X401906Y215215D01*
X402000Y215147D01*
X402095Y215077D01*
X402101Y215075D01*
X402106Y215071D01*
X402216Y215037D01*
X402328Y215001D01*
X402335Y215001D01*
X402341Y214999D01*
X402458Y215002D01*
X402574Y215003D01*
X402582Y215005D01*
X402587Y215005D01*
X402604Y215012D01*
X402736Y215050D01*
X407021Y216825D01*
X412679Y216825D01*
X417908Y214659D01*
X421909Y210658D01*
X424075Y205429D01*
X424075Y199771D01*
X421909Y194542D01*
X417908Y190541D01*
X412679Y188375D01*
X407021Y188375D01*
X405379Y189055D01*
X405284Y189077D01*
X405191Y189106D01*
X405165Y189105D01*
X405140Y189111D01*
X405043Y189102D01*
X404945Y189100D01*
X404921Y189091D01*
X404895Y189088D01*
X404806Y189049D01*
X404714Y189015D01*
X404694Y188999D01*
X404670Y188988D01*
X404598Y188922D01*
X404522Y188861D01*
X404508Y188839D01*
X404489Y188822D01*
X404442Y188736D01*
X404389Y188655D01*
X404383Y188629D01*
X404370Y188606D01*
X404353Y188510D01*
X404329Y188416D01*
X404331Y188390D01*
X404327Y188364D01*
X404341Y188268D01*
X404349Y188171D01*
X404359Y188147D01*
X404363Y188121D01*
X404407Y188034D01*
X404445Y187944D01*
X404465Y187919D01*
X404474Y187902D01*
X404498Y187878D01*
X404550Y187814D01*
X418059Y174304D01*
X418133Y174251D01*
X418203Y174191D01*
X418233Y174179D01*
X418259Y174160D01*
X418346Y174133D01*
X418431Y174099D01*
X418472Y174095D01*
X418494Y174088D01*
X418526Y174089D01*
X418598Y174081D01*
X906852Y174081D01*
X906942Y174095D01*
X907033Y174103D01*
X907063Y174115D01*
X907095Y174120D01*
X907176Y174163D01*
X907260Y174199D01*
X907292Y174225D01*
X907312Y174236D01*
X907335Y174259D01*
X907391Y174304D01*
X949284Y216197D01*
X949322Y216251D01*
X949368Y216297D01*
X949409Y216370D01*
X949428Y216397D01*
X949433Y216416D01*
X949449Y216444D01*
X950891Y219926D01*
X955274Y224309D01*
X961001Y226681D01*
X967199Y226681D01*
X972926Y224309D01*
X977309Y219926D01*
X979681Y214199D01*
X979681Y208001D01*
X977309Y202274D01*
X972926Y197891D01*
X969444Y196449D01*
X969389Y196415D01*
X969328Y196389D01*
X969263Y196337D01*
X969235Y196320D01*
X969223Y196305D01*
X969197Y196284D01*
X925044Y152131D01*
X920976Y148063D01*
X915801Y145919D01*
X409649Y145919D01*
G37*
%LPD*%
%LPC*%
G36*
X935863Y327969D02*
X935863Y327969D01*
X929328Y330676D01*
X924326Y335678D01*
X921619Y342213D01*
X921619Y343302D01*
X921605Y343392D01*
X921597Y343483D01*
X921585Y343513D01*
X921580Y343545D01*
X921537Y343626D01*
X921501Y343710D01*
X921475Y343742D01*
X921464Y343762D01*
X921441Y343785D01*
X921396Y343841D01*
X848063Y417174D01*
X845919Y422349D01*
X845919Y524128D01*
X845916Y524148D01*
X845918Y524167D01*
X845896Y524269D01*
X845880Y524371D01*
X845870Y524388D01*
X845866Y524408D01*
X845813Y524497D01*
X845764Y524588D01*
X845750Y524602D01*
X845740Y524619D01*
X845661Y524686D01*
X845586Y524758D01*
X845568Y524766D01*
X845553Y524779D01*
X845457Y524818D01*
X845363Y524861D01*
X845343Y524863D01*
X845325Y524871D01*
X845158Y524889D01*
X727629Y524889D01*
X722454Y527033D01*
X718386Y531101D01*
X691417Y558069D01*
X691323Y558137D01*
X691308Y558148D01*
X691305Y558151D01*
X691304Y558151D01*
X691229Y558207D01*
X691223Y558209D01*
X691218Y558213D01*
X691107Y558247D01*
X690995Y558284D01*
X690989Y558283D01*
X690983Y558285D01*
X690866Y558282D01*
X690749Y558281D01*
X690742Y558279D01*
X690737Y558279D01*
X690719Y558273D01*
X690588Y558234D01*
X687946Y557140D01*
X681454Y557140D01*
X675455Y559625D01*
X670864Y564216D01*
X668380Y570214D01*
X668380Y599186D01*
X670864Y605184D01*
X675455Y609775D01*
X681454Y612260D01*
X687946Y612260D01*
X693945Y609775D01*
X698536Y605184D01*
X701020Y599186D01*
X701020Y588608D01*
X701035Y588518D01*
X701042Y588427D01*
X701055Y588397D01*
X701060Y588366D01*
X701103Y588285D01*
X701138Y588201D01*
X701164Y588169D01*
X701175Y588148D01*
X701198Y588126D01*
X701243Y588070D01*
X736039Y553274D01*
X736113Y553221D01*
X736183Y553161D01*
X736213Y553149D01*
X736239Y553130D01*
X736326Y553103D01*
X736411Y553069D01*
X736452Y553065D01*
X736474Y553058D01*
X736506Y553059D01*
X736578Y553051D01*
X805408Y553051D01*
X805479Y553062D01*
X805550Y553064D01*
X805599Y553082D01*
X805651Y553090D01*
X805714Y553124D01*
X805781Y553149D01*
X805822Y553181D01*
X805868Y553206D01*
X805917Y553258D01*
X805973Y553302D01*
X806001Y553346D01*
X806037Y553384D01*
X806067Y553449D01*
X806106Y553509D01*
X806119Y553560D01*
X806141Y553607D01*
X806149Y553678D01*
X806166Y553748D01*
X806162Y553800D01*
X806168Y553851D01*
X806153Y553922D01*
X806147Y553993D01*
X806127Y554041D01*
X806116Y554092D01*
X806079Y554153D01*
X806051Y554219D01*
X806006Y554275D01*
X805990Y554303D01*
X805972Y554318D01*
X805946Y554350D01*
X804475Y555821D01*
X803065Y557762D01*
X801976Y559900D01*
X801235Y562181D01*
X800911Y564227D01*
X815338Y564227D01*
X815358Y564230D01*
X815377Y564228D01*
X815479Y564250D01*
X815581Y564267D01*
X815598Y564276D01*
X815618Y564280D01*
X815707Y564333D01*
X815798Y564382D01*
X815812Y564396D01*
X815829Y564406D01*
X815896Y564485D01*
X815967Y564560D01*
X815976Y564578D01*
X815989Y564593D01*
X816027Y564689D01*
X816071Y564783D01*
X816073Y564803D01*
X816081Y564821D01*
X816099Y564988D01*
X816099Y565751D01*
X816101Y565751D01*
X816101Y564988D01*
X816104Y564968D01*
X816102Y564949D01*
X816124Y564847D01*
X816141Y564745D01*
X816150Y564728D01*
X816154Y564708D01*
X816207Y564619D01*
X816256Y564528D01*
X816270Y564514D01*
X816280Y564497D01*
X816359Y564430D01*
X816434Y564359D01*
X816452Y564350D01*
X816467Y564337D01*
X816563Y564298D01*
X816657Y564255D01*
X816677Y564253D01*
X816695Y564245D01*
X816862Y564227D01*
X831289Y564227D01*
X830965Y562181D01*
X830224Y559900D01*
X829135Y557762D01*
X827725Y555821D01*
X826254Y554350D01*
X826212Y554292D01*
X826163Y554240D01*
X826141Y554193D01*
X826110Y554151D01*
X826089Y554082D01*
X826059Y554017D01*
X826053Y553965D01*
X826038Y553915D01*
X826040Y553844D01*
X826032Y553773D01*
X826043Y553722D01*
X826044Y553670D01*
X826069Y553602D01*
X826084Y553532D01*
X826111Y553487D01*
X826129Y553439D01*
X826174Y553383D01*
X826210Y553321D01*
X826250Y553287D01*
X826283Y553247D01*
X826343Y553208D01*
X826397Y553161D01*
X826446Y553142D01*
X826489Y553114D01*
X826559Y553096D01*
X826625Y553069D01*
X826697Y553061D01*
X826728Y553053D01*
X826751Y553055D01*
X826792Y553051D01*
X905172Y553051D01*
X905262Y553065D01*
X905353Y553073D01*
X905383Y553085D01*
X905415Y553090D01*
X905496Y553133D01*
X905580Y553169D01*
X905612Y553195D01*
X905632Y553206D01*
X905655Y553229D01*
X905711Y553274D01*
X920096Y567659D01*
X920144Y567726D01*
X920147Y567730D01*
X920149Y567733D01*
X920209Y567803D01*
X920221Y567833D01*
X920240Y567859D01*
X920267Y567946D01*
X920301Y568031D01*
X920305Y568072D01*
X920312Y568094D01*
X920311Y568126D01*
X920319Y568198D01*
X920319Y569287D01*
X923026Y575822D01*
X928028Y580824D01*
X934563Y583531D01*
X941637Y583531D01*
X948172Y580824D01*
X953174Y575822D01*
X955881Y569287D01*
X955881Y562213D01*
X953174Y555678D01*
X948172Y550676D01*
X941637Y547969D01*
X940548Y547969D01*
X940458Y547955D01*
X940367Y547947D01*
X940337Y547935D01*
X940305Y547930D01*
X940224Y547887D01*
X940140Y547851D01*
X940108Y547825D01*
X940088Y547814D01*
X940065Y547791D01*
X940009Y547746D01*
X919296Y527033D01*
X914121Y524889D01*
X874842Y524889D01*
X874822Y524886D01*
X874803Y524888D01*
X874701Y524866D01*
X874599Y524850D01*
X874582Y524840D01*
X874562Y524836D01*
X874473Y524783D01*
X874382Y524734D01*
X874368Y524720D01*
X874351Y524710D01*
X874284Y524631D01*
X874212Y524556D01*
X874204Y524538D01*
X874191Y524523D01*
X874152Y524427D01*
X874109Y524333D01*
X874107Y524313D01*
X874099Y524295D01*
X874081Y524128D01*
X874081Y431298D01*
X874095Y431208D01*
X874103Y431117D01*
X874115Y431087D01*
X874120Y431055D01*
X874163Y430974D01*
X874199Y430890D01*
X874225Y430858D01*
X874236Y430838D01*
X874259Y430815D01*
X874304Y430759D01*
X941309Y363754D01*
X941383Y363701D01*
X941453Y363641D01*
X941483Y363629D01*
X941509Y363610D01*
X941596Y363583D01*
X941681Y363549D01*
X941722Y363545D01*
X941744Y363538D01*
X941776Y363539D01*
X941848Y363531D01*
X942937Y363531D01*
X949472Y360824D01*
X954474Y355822D01*
X957181Y349287D01*
X957181Y342213D01*
X954474Y335678D01*
X949472Y330676D01*
X942937Y327969D01*
X935863Y327969D01*
G37*
%LPD*%
%LPC*%
G36*
X366974Y294079D02*
X366974Y294079D01*
X362306Y296013D01*
X358733Y299586D01*
X356799Y304254D01*
X356799Y308116D01*
X356789Y308181D01*
X356788Y308246D01*
X356765Y308326D01*
X356760Y308359D01*
X356750Y308376D01*
X356741Y308407D01*
X355419Y311599D01*
X355419Y347201D01*
X357563Y352376D01*
X439424Y434237D01*
X444599Y436381D01*
X527747Y436381D01*
X527795Y436388D01*
X527843Y436387D01*
X527915Y436408D01*
X527990Y436420D01*
X528032Y436443D01*
X528078Y436457D01*
X528141Y436500D01*
X528207Y436536D01*
X528240Y436570D01*
X528280Y436598D01*
X528325Y436659D01*
X528377Y436714D01*
X528397Y436757D01*
X528425Y436796D01*
X528449Y436868D01*
X528480Y436937D01*
X528486Y436985D01*
X528500Y437030D01*
X528499Y437106D01*
X528508Y437181D01*
X528497Y437228D01*
X528497Y437276D01*
X528471Y437348D01*
X528455Y437422D01*
X528431Y437463D01*
X528415Y437508D01*
X528368Y437568D01*
X528329Y437633D01*
X528293Y437664D01*
X528263Y437702D01*
X528159Y437778D01*
X528142Y437793D01*
X528136Y437795D01*
X528128Y437801D01*
X524551Y439866D01*
X519866Y444551D01*
X516554Y450288D01*
X514839Y456688D01*
X514839Y463312D01*
X516554Y469712D01*
X519866Y475449D01*
X524551Y480134D01*
X530288Y483446D01*
X536688Y485161D01*
X543312Y485161D01*
X549712Y483446D01*
X555449Y480134D01*
X560134Y475449D01*
X563446Y469712D01*
X565161Y463312D01*
X565161Y456688D01*
X563446Y450288D01*
X560134Y444551D01*
X555449Y439866D01*
X551872Y437801D01*
X551835Y437771D01*
X551793Y437748D01*
X551740Y437693D01*
X551682Y437645D01*
X551656Y437605D01*
X551623Y437570D01*
X551591Y437501D01*
X551551Y437437D01*
X551540Y437390D01*
X551520Y437347D01*
X551511Y437272D01*
X551494Y437198D01*
X551498Y437150D01*
X551492Y437103D01*
X551509Y437028D01*
X551515Y436953D01*
X551535Y436909D01*
X551545Y436862D01*
X551584Y436797D01*
X551614Y436728D01*
X551646Y436692D01*
X551671Y436651D01*
X551728Y436602D01*
X551779Y436546D01*
X551821Y436522D01*
X551858Y436491D01*
X551928Y436463D01*
X551994Y436426D01*
X552041Y436417D01*
X552086Y436399D01*
X552214Y436385D01*
X552236Y436381D01*
X552243Y436382D01*
X552253Y436381D01*
X667619Y436381D01*
X667638Y436384D01*
X667658Y436382D01*
X667759Y436404D01*
X667861Y436420D01*
X667879Y436430D01*
X667898Y436434D01*
X667987Y436487D01*
X668079Y436536D01*
X668092Y436550D01*
X668109Y436560D01*
X668177Y436639D01*
X668248Y436714D01*
X668256Y436732D01*
X668269Y436747D01*
X668308Y436843D01*
X668352Y436937D01*
X668354Y436957D01*
X668361Y436975D01*
X668380Y437142D01*
X668380Y446786D01*
X670864Y452784D01*
X675455Y457375D01*
X681454Y459860D01*
X687946Y459860D01*
X693945Y457375D01*
X698536Y452784D01*
X701020Y446786D01*
X701020Y417814D01*
X698536Y411816D01*
X693945Y407225D01*
X687946Y404740D01*
X681454Y404740D01*
X675455Y407225D01*
X674684Y407996D01*
X674610Y408049D01*
X674541Y408109D01*
X674510Y408121D01*
X674484Y408140D01*
X674397Y408167D01*
X674312Y408201D01*
X674271Y408205D01*
X674249Y408212D01*
X674217Y408211D01*
X674146Y408219D01*
X453548Y408219D01*
X453458Y408205D01*
X453367Y408197D01*
X453337Y408185D01*
X453305Y408180D01*
X453224Y408137D01*
X453140Y408101D01*
X453108Y408075D01*
X453088Y408064D01*
X453065Y408041D01*
X453009Y407996D01*
X383804Y338791D01*
X383761Y338731D01*
X383720Y338688D01*
X383713Y338673D01*
X383691Y338647D01*
X383679Y338617D01*
X383660Y338591D01*
X383633Y338504D01*
X383624Y338481D01*
X383617Y338465D01*
X383616Y338462D01*
X383599Y338419D01*
X383595Y338378D01*
X383588Y338356D01*
X383589Y338324D01*
X383581Y338252D01*
X383581Y324870D01*
X383581Y324866D01*
X383581Y324862D01*
X383601Y324744D01*
X383620Y324627D01*
X383622Y324624D01*
X383623Y324620D01*
X383680Y324515D01*
X383736Y324410D01*
X383738Y324407D01*
X383740Y324404D01*
X383828Y324323D01*
X383914Y324240D01*
X383918Y324239D01*
X383920Y324236D01*
X384029Y324187D01*
X384137Y324137D01*
X384141Y324136D01*
X384145Y324135D01*
X384264Y324123D01*
X384381Y324110D01*
X384385Y324111D01*
X384389Y324110D01*
X384505Y324137D01*
X384622Y324162D01*
X384625Y324164D01*
X384629Y324165D01*
X384730Y324227D01*
X384833Y324288D01*
X384835Y324291D01*
X384839Y324293D01*
X384916Y324385D01*
X384993Y324475D01*
X384994Y324479D01*
X384997Y324482D01*
X385066Y324635D01*
X385484Y325920D01*
X386210Y327345D01*
X387150Y328639D01*
X388281Y329770D01*
X389575Y330710D01*
X391000Y331436D01*
X392521Y331931D01*
X393377Y332066D01*
X393377Y315162D01*
X393380Y315142D01*
X393378Y315123D01*
X393400Y315021D01*
X393417Y314919D01*
X393426Y314902D01*
X393430Y314882D01*
X393483Y314793D01*
X393532Y314702D01*
X393546Y314688D01*
X393556Y314671D01*
X393635Y314604D01*
X393710Y314533D01*
X393728Y314524D01*
X393743Y314511D01*
X393839Y314473D01*
X393933Y314429D01*
X393953Y314427D01*
X393971Y314419D01*
X394138Y314401D01*
X394901Y314401D01*
X394901Y314399D01*
X394138Y314399D01*
X394118Y314396D01*
X394099Y314398D01*
X393997Y314376D01*
X393895Y314359D01*
X393878Y314350D01*
X393858Y314346D01*
X393769Y314293D01*
X393678Y314244D01*
X393664Y314230D01*
X393647Y314220D01*
X393580Y314141D01*
X393509Y314066D01*
X393500Y314048D01*
X393487Y314033D01*
X393448Y313937D01*
X393405Y313843D01*
X393403Y313823D01*
X393395Y313805D01*
X393377Y313638D01*
X393377Y296734D01*
X392521Y296869D01*
X391000Y297364D01*
X389575Y298090D01*
X388281Y299030D01*
X387150Y300161D01*
X386210Y301455D01*
X385484Y302880D01*
X384989Y304401D01*
X384739Y305980D01*
X384739Y310569D01*
X384724Y310665D01*
X384714Y310762D01*
X384704Y310786D01*
X384700Y310812D01*
X384654Y310898D01*
X384614Y310987D01*
X384597Y311006D01*
X384584Y311029D01*
X384514Y311096D01*
X384448Y311168D01*
X384425Y311181D01*
X384406Y311199D01*
X384318Y311240D01*
X384232Y311287D01*
X384207Y311291D01*
X384183Y311302D01*
X384086Y311313D01*
X383990Y311330D01*
X383964Y311326D01*
X383939Y311329D01*
X383843Y311309D01*
X383747Y311294D01*
X383724Y311283D01*
X383698Y311277D01*
X383615Y311227D01*
X383528Y311183D01*
X383509Y311164D01*
X383487Y311151D01*
X383424Y311077D01*
X383356Y311007D01*
X383340Y310979D01*
X383327Y310964D01*
X383315Y310933D01*
X383275Y310860D01*
X382259Y308407D01*
X382244Y308344D01*
X382219Y308283D01*
X382210Y308200D01*
X382203Y308168D01*
X382204Y308149D01*
X382201Y308116D01*
X382201Y304254D01*
X380267Y299586D01*
X376694Y296013D01*
X372026Y294079D01*
X366974Y294079D01*
G37*
%LPD*%
%LPC*%
G36*
X795254Y177240D02*
X795254Y177240D01*
X789255Y179725D01*
X784664Y184316D01*
X782180Y190314D01*
X782180Y200892D01*
X782165Y200982D01*
X782158Y201073D01*
X782145Y201103D01*
X782140Y201135D01*
X782097Y201215D01*
X782062Y201299D01*
X782036Y201331D01*
X782025Y201352D01*
X782002Y201374D01*
X781957Y201430D01*
X727691Y255696D01*
X727617Y255749D01*
X727547Y255809D01*
X727517Y255821D01*
X727491Y255840D01*
X727404Y255867D01*
X727319Y255901D01*
X727278Y255905D01*
X727256Y255912D01*
X727224Y255911D01*
X727152Y255919D01*
X497199Y255919D01*
X492024Y258063D01*
X488063Y262024D01*
X485919Y267199D01*
X485919Y300829D01*
X485908Y300900D01*
X485906Y300971D01*
X485888Y301020D01*
X485880Y301072D01*
X485846Y301135D01*
X485821Y301202D01*
X485789Y301243D01*
X485764Y301289D01*
X485712Y301338D01*
X485668Y301394D01*
X485624Y301423D01*
X485586Y301458D01*
X485521Y301489D01*
X485461Y301527D01*
X485410Y301540D01*
X485363Y301562D01*
X485292Y301570D01*
X485222Y301587D01*
X485170Y301583D01*
X485119Y301589D01*
X485048Y301574D01*
X484977Y301568D01*
X484929Y301548D01*
X484878Y301537D01*
X484817Y301500D01*
X484751Y301472D01*
X484695Y301427D01*
X484667Y301411D01*
X484652Y301393D01*
X484620Y301367D01*
X482280Y299027D01*
X478919Y297635D01*
X475281Y297635D01*
X471920Y299027D01*
X469347Y301600D01*
X467955Y304961D01*
X467955Y323839D01*
X469347Y327200D01*
X471920Y329773D01*
X475281Y331165D01*
X478919Y331165D01*
X482280Y329773D01*
X484853Y327200D01*
X486245Y323839D01*
X486245Y319314D01*
X486260Y319218D01*
X486270Y319121D01*
X486280Y319097D01*
X486284Y319071D01*
X486330Y318985D01*
X486370Y318896D01*
X486387Y318876D01*
X486400Y318853D01*
X486470Y318786D01*
X486536Y318715D01*
X486559Y318702D01*
X486578Y318684D01*
X486666Y318643D01*
X486752Y318596D01*
X486777Y318591D01*
X486801Y318580D01*
X486898Y318570D01*
X486994Y318552D01*
X487020Y318556D01*
X487045Y318553D01*
X487140Y318574D01*
X487237Y318588D01*
X487260Y318600D01*
X487286Y318606D01*
X487370Y318656D01*
X487456Y318700D01*
X487474Y318718D01*
X487497Y318732D01*
X487560Y318806D01*
X487628Y318875D01*
X487644Y318904D01*
X487657Y318919D01*
X487669Y318949D01*
X487709Y319022D01*
X488063Y319876D01*
X489576Y321389D01*
X489629Y321463D01*
X489689Y321533D01*
X489701Y321563D01*
X489720Y321589D01*
X489747Y321676D01*
X489781Y321761D01*
X489785Y321802D01*
X489792Y321824D01*
X489791Y321856D01*
X489799Y321928D01*
X489799Y324546D01*
X491733Y329214D01*
X495306Y332787D01*
X499974Y334721D01*
X505026Y334721D01*
X509694Y332787D01*
X513267Y329214D01*
X515201Y324546D01*
X515201Y320684D01*
X515211Y320619D01*
X515212Y320554D01*
X515235Y320474D01*
X515240Y320441D01*
X515250Y320424D01*
X515259Y320393D01*
X516275Y317940D01*
X516326Y317857D01*
X516372Y317771D01*
X516390Y317753D01*
X516404Y317731D01*
X516480Y317668D01*
X516550Y317601D01*
X516574Y317590D01*
X516594Y317574D01*
X516685Y317539D01*
X516773Y317498D01*
X516799Y317495D01*
X516823Y317486D01*
X516921Y317481D01*
X517017Y317471D01*
X517043Y317476D01*
X517069Y317475D01*
X517163Y317502D01*
X517258Y317523D01*
X517280Y317536D01*
X517305Y317544D01*
X517385Y317599D01*
X517469Y317649D01*
X517486Y317669D01*
X517507Y317684D01*
X517566Y317762D01*
X517629Y317836D01*
X517639Y317860D01*
X517654Y317881D01*
X517684Y317974D01*
X517721Y318064D01*
X517724Y318097D01*
X517730Y318115D01*
X517730Y318148D01*
X517739Y318231D01*
X517739Y322820D01*
X517989Y324399D01*
X518484Y325920D01*
X519210Y327345D01*
X520150Y328639D01*
X521281Y329770D01*
X522575Y330710D01*
X524000Y331436D01*
X525521Y331931D01*
X526377Y332066D01*
X526377Y315162D01*
X526380Y315142D01*
X526378Y315123D01*
X526400Y315021D01*
X526417Y314919D01*
X526426Y314902D01*
X526430Y314882D01*
X526483Y314793D01*
X526532Y314702D01*
X526546Y314688D01*
X526556Y314671D01*
X526635Y314604D01*
X526710Y314533D01*
X526728Y314524D01*
X526743Y314511D01*
X526839Y314473D01*
X526933Y314429D01*
X526953Y314427D01*
X526971Y314419D01*
X527138Y314401D01*
X527901Y314401D01*
X527901Y314399D01*
X527138Y314399D01*
X527118Y314396D01*
X527099Y314398D01*
X526997Y314376D01*
X526895Y314359D01*
X526878Y314350D01*
X526858Y314346D01*
X526769Y314293D01*
X526678Y314244D01*
X526664Y314230D01*
X526647Y314220D01*
X526580Y314141D01*
X526509Y314066D01*
X526500Y314048D01*
X526487Y314033D01*
X526448Y313937D01*
X526405Y313843D01*
X526403Y313823D01*
X526395Y313805D01*
X526377Y313638D01*
X526377Y296734D01*
X525521Y296869D01*
X524000Y297364D01*
X522575Y298090D01*
X521281Y299030D01*
X520150Y300161D01*
X519210Y301455D01*
X518484Y302880D01*
X517989Y304401D01*
X517739Y305980D01*
X517739Y310569D01*
X517724Y310665D01*
X517714Y310762D01*
X517704Y310786D01*
X517700Y310812D01*
X517654Y310898D01*
X517614Y310987D01*
X517597Y311006D01*
X517584Y311029D01*
X517514Y311096D01*
X517448Y311168D01*
X517425Y311181D01*
X517406Y311199D01*
X517318Y311240D01*
X517232Y311287D01*
X517207Y311291D01*
X517183Y311302D01*
X517086Y311313D01*
X516990Y311330D01*
X516964Y311326D01*
X516939Y311329D01*
X516843Y311309D01*
X516747Y311294D01*
X516724Y311283D01*
X516698Y311277D01*
X516615Y311227D01*
X516528Y311183D01*
X516509Y311164D01*
X516487Y311151D01*
X516424Y311077D01*
X516356Y311007D01*
X516340Y310979D01*
X516327Y310964D01*
X516315Y310933D01*
X516275Y310860D01*
X515259Y308407D01*
X515244Y308344D01*
X515219Y308283D01*
X515210Y308200D01*
X515203Y308168D01*
X515204Y308149D01*
X515201Y308116D01*
X515201Y304254D01*
X514139Y301690D01*
X514124Y301626D01*
X514099Y301565D01*
X514090Y301482D01*
X514083Y301450D01*
X514084Y301431D01*
X514081Y301398D01*
X514081Y284842D01*
X514084Y284822D01*
X514082Y284803D01*
X514104Y284701D01*
X514120Y284599D01*
X514130Y284582D01*
X514134Y284562D01*
X514187Y284473D01*
X514236Y284382D01*
X514250Y284368D01*
X514260Y284351D01*
X514339Y284284D01*
X514414Y284212D01*
X514432Y284204D01*
X514447Y284191D01*
X514543Y284152D01*
X514637Y284109D01*
X514657Y284107D01*
X514675Y284099D01*
X514842Y284081D01*
X736101Y284081D01*
X741276Y281937D01*
X745344Y277869D01*
X791783Y231431D01*
X791877Y231363D01*
X791971Y231293D01*
X791977Y231291D01*
X791982Y231287D01*
X792093Y231253D01*
X792205Y231216D01*
X792211Y231217D01*
X792217Y231215D01*
X792334Y231218D01*
X792451Y231219D01*
X792458Y231221D01*
X792463Y231221D01*
X792481Y231227D01*
X792612Y231266D01*
X795254Y232360D01*
X801746Y232360D01*
X807745Y229875D01*
X812336Y225284D01*
X814820Y219286D01*
X814820Y190314D01*
X812336Y184316D01*
X807745Y179725D01*
X801746Y177240D01*
X795254Y177240D01*
G37*
%LPD*%
%LPC*%
G36*
X687021Y189675D02*
X687021Y189675D01*
X681792Y191841D01*
X677791Y195842D01*
X676016Y200127D01*
X675954Y200227D01*
X675894Y200327D01*
X675890Y200331D01*
X675886Y200336D01*
X675796Y200411D01*
X675708Y200487D01*
X675702Y200489D01*
X675697Y200493D01*
X675588Y200535D01*
X675479Y200579D01*
X675472Y200580D01*
X675467Y200581D01*
X675449Y200582D01*
X675313Y200597D01*
X589675Y200597D01*
X585072Y205200D01*
X584998Y205253D01*
X584929Y205313D01*
X584899Y205325D01*
X584873Y205344D01*
X584786Y205371D01*
X584701Y205405D01*
X584660Y205409D01*
X584638Y205416D01*
X584605Y205415D01*
X584534Y205423D01*
X570612Y205423D01*
X570592Y205420D01*
X570573Y205422D01*
X570471Y205400D01*
X570369Y205383D01*
X570352Y205374D01*
X570332Y205370D01*
X570243Y205317D01*
X570152Y205268D01*
X570138Y205254D01*
X570121Y205244D01*
X570054Y205165D01*
X569983Y205090D01*
X569974Y205072D01*
X569961Y205057D01*
X569923Y204961D01*
X569879Y204867D01*
X569877Y204847D01*
X569869Y204829D01*
X569851Y204662D01*
X569851Y203899D01*
X569849Y203899D01*
X569849Y204662D01*
X569846Y204682D01*
X569848Y204701D01*
X569826Y204803D01*
X569809Y204905D01*
X569800Y204922D01*
X569796Y204942D01*
X569743Y205031D01*
X569694Y205122D01*
X569680Y205136D01*
X569670Y205153D01*
X569591Y205220D01*
X569516Y205291D01*
X569498Y205300D01*
X569483Y205313D01*
X569387Y205352D01*
X569293Y205395D01*
X569273Y205397D01*
X569255Y205405D01*
X569088Y205423D01*
X554661Y205423D01*
X554985Y207469D01*
X555726Y209750D01*
X556815Y211888D01*
X558225Y213829D01*
X558680Y214284D01*
X558722Y214342D01*
X558771Y214394D01*
X558793Y214441D01*
X558824Y214483D01*
X558845Y214552D01*
X558875Y214617D01*
X558881Y214669D01*
X558896Y214719D01*
X558894Y214790D01*
X558902Y214861D01*
X558891Y214912D01*
X558890Y214964D01*
X558865Y215032D01*
X558850Y215102D01*
X558823Y215147D01*
X558805Y215195D01*
X558760Y215251D01*
X558724Y215313D01*
X558684Y215347D01*
X558651Y215387D01*
X558591Y215426D01*
X558537Y215473D01*
X558488Y215492D01*
X558445Y215520D01*
X558375Y215538D01*
X558309Y215565D01*
X558237Y215573D01*
X558206Y215581D01*
X558183Y215579D01*
X558142Y215583D01*
X467417Y215583D01*
X465259Y217741D01*
X422690Y260310D01*
X422616Y260363D01*
X422547Y260422D01*
X422517Y260434D01*
X422491Y260453D01*
X422404Y260480D01*
X422319Y260514D01*
X422278Y260519D01*
X422256Y260526D01*
X422223Y260525D01*
X422152Y260533D01*
X364797Y260533D01*
X362639Y262690D01*
X248449Y376880D01*
X246291Y379038D01*
X246291Y442662D01*
X247484Y443855D01*
X247553Y443950D01*
X247622Y444044D01*
X247624Y444050D01*
X247628Y444055D01*
X247662Y444166D01*
X247699Y444278D01*
X247698Y444284D01*
X247700Y444290D01*
X247697Y444407D01*
X247696Y444524D01*
X247694Y444531D01*
X247694Y444536D01*
X247688Y444553D01*
X247649Y444685D01*
X246947Y446380D01*
X246947Y450220D01*
X248417Y453768D01*
X251132Y456483D01*
X254680Y457953D01*
X258520Y457953D01*
X262068Y456483D01*
X264783Y453768D01*
X266253Y450220D01*
X266253Y446380D01*
X264783Y442832D01*
X262068Y440117D01*
X258520Y438647D01*
X254680Y438647D01*
X253949Y438950D01*
X253905Y438960D01*
X253863Y438980D01*
X253786Y438988D01*
X253710Y439006D01*
X253664Y439002D01*
X253619Y439007D01*
X253542Y438990D01*
X253465Y438983D01*
X253423Y438964D01*
X253378Y438955D01*
X253311Y438915D01*
X253240Y438883D01*
X253206Y438852D01*
X253167Y438828D01*
X253116Y438769D01*
X253059Y438717D01*
X253037Y438676D01*
X253007Y438641D01*
X252978Y438569D01*
X252941Y438501D01*
X252932Y438456D01*
X252915Y438413D01*
X252900Y438277D01*
X252897Y438259D01*
X252898Y438254D01*
X252897Y438247D01*
X252897Y382089D01*
X252911Y381999D01*
X252919Y381908D01*
X252931Y381879D01*
X252936Y381847D01*
X252979Y381766D01*
X253015Y381682D01*
X253041Y381650D01*
X253052Y381629D01*
X253075Y381607D01*
X253120Y381551D01*
X367310Y267361D01*
X367384Y267308D01*
X367453Y267249D01*
X367483Y267236D01*
X367509Y267218D01*
X367596Y267191D01*
X367681Y267157D01*
X367722Y267152D01*
X367744Y267145D01*
X367777Y267146D01*
X367848Y267138D01*
X425203Y267138D01*
X427361Y264981D01*
X427361Y264980D01*
X469930Y222412D01*
X470004Y222359D01*
X470073Y222299D01*
X470103Y222287D01*
X470130Y222268D01*
X470217Y222241D01*
X470301Y222207D01*
X470342Y222203D01*
X470365Y222196D01*
X470397Y222197D01*
X470468Y222189D01*
X577425Y222189D01*
X579583Y220031D01*
X592189Y207426D01*
X592262Y207373D01*
X592332Y207313D01*
X592362Y207301D01*
X592388Y207282D01*
X592475Y207255D01*
X592560Y207221D01*
X592601Y207217D01*
X592623Y207210D01*
X592656Y207211D01*
X592727Y207203D01*
X612124Y207203D01*
X612195Y207214D01*
X612267Y207216D01*
X612316Y207234D01*
X612367Y207242D01*
X612430Y207276D01*
X612498Y207301D01*
X612538Y207333D01*
X612584Y207358D01*
X612634Y207410D01*
X612690Y207454D01*
X612718Y207498D01*
X612754Y207536D01*
X612784Y207601D01*
X612823Y207661D01*
X612835Y207712D01*
X612857Y207759D01*
X612865Y207830D01*
X612883Y207900D01*
X612879Y207952D01*
X612884Y208003D01*
X612869Y208074D01*
X612864Y208145D01*
X612843Y208193D01*
X612832Y208244D01*
X612795Y208305D01*
X612767Y208371D01*
X612723Y208427D01*
X612706Y208455D01*
X612688Y208470D01*
X612663Y208502D01*
X612069Y209095D01*
X612069Y238705D01*
X615045Y241681D01*
X644655Y241681D01*
X647631Y238705D01*
X647631Y209095D01*
X647037Y208502D01*
X646996Y208444D01*
X646946Y208392D01*
X646924Y208345D01*
X646894Y208303D01*
X646873Y208234D01*
X646843Y208169D01*
X646837Y208117D01*
X646822Y208067D01*
X646823Y207996D01*
X646816Y207925D01*
X646827Y207874D01*
X646828Y207822D01*
X646853Y207754D01*
X646868Y207684D01*
X646895Y207639D01*
X646912Y207591D01*
X646957Y207535D01*
X646994Y207473D01*
X647034Y207439D01*
X647066Y207399D01*
X647126Y207360D01*
X647181Y207313D01*
X647229Y207294D01*
X647273Y207266D01*
X647343Y207248D01*
X647409Y207221D01*
X647480Y207213D01*
X647512Y207205D01*
X647535Y207207D01*
X647576Y207203D01*
X675313Y207203D01*
X675427Y207222D01*
X675544Y207239D01*
X675549Y207241D01*
X675555Y207242D01*
X675658Y207297D01*
X675763Y207350D01*
X675767Y207355D01*
X675773Y207358D01*
X675853Y207442D01*
X675935Y207526D01*
X675939Y207532D01*
X675942Y207536D01*
X675950Y207553D01*
X676016Y207673D01*
X677791Y211958D01*
X681792Y215959D01*
X687021Y218125D01*
X692679Y218125D01*
X697908Y215959D01*
X701909Y211958D01*
X704075Y206729D01*
X704075Y201071D01*
X701909Y195842D01*
X697908Y191841D01*
X692679Y189675D01*
X687021Y189675D01*
G37*
%LPD*%
%LPC*%
G36*
X254680Y514847D02*
X254680Y514847D01*
X251132Y516317D01*
X248417Y519032D01*
X246947Y522580D01*
X246947Y526420D01*
X248417Y529968D01*
X251132Y532683D01*
X254680Y534153D01*
X258520Y534153D01*
X262068Y532683D01*
X264783Y529968D01*
X265485Y528273D01*
X265547Y528173D01*
X265607Y528073D01*
X265612Y528069D01*
X265615Y528064D01*
X265705Y527989D01*
X265794Y527913D01*
X265800Y527911D01*
X265804Y527907D01*
X265913Y527865D01*
X266022Y527821D01*
X266029Y527820D01*
X266034Y527819D01*
X266052Y527818D01*
X266189Y527803D01*
X482817Y527803D01*
X482907Y527817D01*
X482998Y527825D01*
X483027Y527837D01*
X483059Y527842D01*
X483140Y527885D01*
X483224Y527921D01*
X483256Y527947D01*
X483277Y527958D01*
X483285Y527966D01*
X483286Y527966D01*
X483301Y527982D01*
X483355Y528026D01*
X636474Y681145D01*
X636527Y681219D01*
X636587Y681288D01*
X636599Y681319D01*
X636618Y681345D01*
X636645Y681432D01*
X636679Y681517D01*
X636683Y681558D01*
X636690Y681580D01*
X636689Y681612D01*
X636697Y681683D01*
X636697Y691368D01*
X638632Y693303D01*
X803323Y693303D01*
X803438Y693321D01*
X803554Y693339D01*
X803560Y693341D01*
X803566Y693342D01*
X803668Y693397D01*
X803773Y693450D01*
X803778Y693455D01*
X803783Y693458D01*
X803863Y693542D01*
X803945Y693626D01*
X803949Y693632D01*
X803953Y693636D01*
X803960Y693653D01*
X804026Y693773D01*
X804041Y693808D01*
X808042Y697809D01*
X813271Y699975D01*
X818929Y699975D01*
X824158Y697809D01*
X828159Y693808D01*
X830325Y688579D01*
X830325Y682921D01*
X828159Y677692D01*
X824158Y673691D01*
X818929Y671525D01*
X813271Y671525D01*
X808042Y673691D01*
X804041Y677692D01*
X801875Y682921D01*
X801875Y685936D01*
X801872Y685956D01*
X801874Y685975D01*
X801852Y686077D01*
X801836Y686179D01*
X801826Y686196D01*
X801822Y686216D01*
X801769Y686305D01*
X801720Y686396D01*
X801706Y686410D01*
X801696Y686427D01*
X801617Y686494D01*
X801542Y686566D01*
X801524Y686574D01*
X801509Y686587D01*
X801413Y686626D01*
X801319Y686669D01*
X801299Y686671D01*
X801281Y686679D01*
X801114Y686697D01*
X644064Y686697D01*
X644044Y686694D01*
X644025Y686696D01*
X643923Y686674D01*
X643821Y686658D01*
X643804Y686648D01*
X643784Y686644D01*
X643695Y686591D01*
X643604Y686542D01*
X643590Y686528D01*
X643573Y686518D01*
X643506Y686439D01*
X643434Y686364D01*
X643426Y686346D01*
X643413Y686331D01*
X643374Y686235D01*
X643331Y686141D01*
X643329Y686121D01*
X643321Y686103D01*
X643303Y685936D01*
X643303Y678632D01*
X485868Y521197D01*
X266189Y521197D01*
X266074Y521178D01*
X265958Y521161D01*
X265952Y521159D01*
X265946Y521158D01*
X265843Y521103D01*
X265738Y521050D01*
X265734Y521045D01*
X265729Y521042D01*
X265649Y520958D01*
X265566Y520874D01*
X265563Y520868D01*
X265559Y520864D01*
X265551Y520847D01*
X265485Y520727D01*
X264783Y519032D01*
X262068Y516317D01*
X258520Y514847D01*
X254680Y514847D01*
G37*
%LPD*%
%LPC*%
G36*
X814571Y451525D02*
X814571Y451525D01*
X809342Y453691D01*
X805341Y457692D01*
X803175Y462921D01*
X803175Y468579D01*
X804950Y472864D01*
X804977Y472978D01*
X805005Y473092D01*
X805005Y473098D01*
X805006Y473104D01*
X804995Y473221D01*
X804986Y473337D01*
X804984Y473343D01*
X804983Y473349D01*
X804935Y473456D01*
X804890Y473563D01*
X804885Y473569D01*
X804883Y473574D01*
X804871Y473587D01*
X804785Y473694D01*
X782905Y495574D01*
X782831Y495627D01*
X782762Y495687D01*
X782731Y495699D01*
X782705Y495718D01*
X782618Y495745D01*
X782533Y495779D01*
X782492Y495783D01*
X782470Y495790D01*
X782438Y495789D01*
X782367Y495797D01*
X266189Y495797D01*
X266074Y495778D01*
X265958Y495761D01*
X265952Y495759D01*
X265946Y495758D01*
X265843Y495703D01*
X265738Y495650D01*
X265734Y495645D01*
X265729Y495642D01*
X265649Y495558D01*
X265566Y495474D01*
X265563Y495468D01*
X265559Y495464D01*
X265551Y495447D01*
X265485Y495327D01*
X264783Y493632D01*
X262068Y490917D01*
X258520Y489447D01*
X254680Y489447D01*
X251132Y490917D01*
X248417Y493632D01*
X246947Y497180D01*
X246947Y501020D01*
X248417Y504568D01*
X251132Y507283D01*
X254680Y508753D01*
X258520Y508753D01*
X262068Y507283D01*
X264783Y504568D01*
X265485Y502873D01*
X265547Y502773D01*
X265607Y502673D01*
X265612Y502669D01*
X265615Y502664D01*
X265705Y502589D01*
X265794Y502513D01*
X265800Y502511D01*
X265804Y502507D01*
X265913Y502465D01*
X266022Y502421D01*
X266029Y502420D01*
X266034Y502419D01*
X266052Y502418D01*
X266189Y502403D01*
X785418Y502403D01*
X809456Y478365D01*
X809550Y478297D01*
X809645Y478227D01*
X809651Y478225D01*
X809656Y478221D01*
X809766Y478187D01*
X809878Y478151D01*
X809885Y478151D01*
X809891Y478149D01*
X810008Y478152D01*
X810124Y478153D01*
X810132Y478155D01*
X810137Y478155D01*
X810154Y478162D01*
X810286Y478200D01*
X814571Y479975D01*
X820229Y479975D01*
X825458Y477809D01*
X829459Y473808D01*
X831625Y468579D01*
X831625Y462921D01*
X829459Y457692D01*
X825458Y453691D01*
X820229Y451525D01*
X814571Y451525D01*
G37*
%LPD*%
%LPC*%
G36*
X32627Y368677D02*
X32627Y368677D01*
X28613Y370340D01*
X25540Y373413D01*
X23877Y377427D01*
X23877Y381773D01*
X25540Y385787D01*
X28641Y388888D01*
X28653Y388904D01*
X28668Y388917D01*
X28724Y389004D01*
X28784Y389088D01*
X28790Y389107D01*
X28801Y389124D01*
X28826Y389224D01*
X28857Y389323D01*
X28856Y389343D01*
X28861Y389362D01*
X28853Y389465D01*
X28850Y389569D01*
X28844Y389587D01*
X28842Y389607D01*
X28802Y389702D01*
X28766Y389800D01*
X28754Y389815D01*
X28746Y389834D01*
X28641Y389965D01*
X19813Y398792D01*
X19813Y411208D01*
X28641Y420035D01*
X28653Y420052D01*
X28668Y420064D01*
X28724Y420151D01*
X28784Y420235D01*
X28790Y420254D01*
X28801Y420271D01*
X28826Y420371D01*
X28857Y420470D01*
X28856Y420490D01*
X28861Y420509D01*
X28853Y420612D01*
X28850Y420716D01*
X28844Y420735D01*
X28842Y420755D01*
X28802Y420850D01*
X28766Y420947D01*
X28754Y420963D01*
X28746Y420981D01*
X28641Y421112D01*
X25540Y424213D01*
X23877Y428227D01*
X23877Y432573D01*
X25540Y436587D01*
X28613Y439660D01*
X32627Y441323D01*
X36973Y441323D01*
X40987Y439660D01*
X44060Y436587D01*
X45723Y432573D01*
X45723Y431308D01*
X45734Y431237D01*
X45736Y431165D01*
X45754Y431116D01*
X45762Y431065D01*
X45796Y431002D01*
X45821Y430934D01*
X45853Y430894D01*
X45878Y430847D01*
X45930Y430798D01*
X45974Y430742D01*
X46018Y430714D01*
X46056Y430678D01*
X46121Y430648D01*
X46181Y430609D01*
X46232Y430596D01*
X46279Y430574D01*
X46350Y430567D01*
X46420Y430549D01*
X46472Y430553D01*
X46523Y430547D01*
X46594Y430563D01*
X46665Y430568D01*
X46713Y430589D01*
X46764Y430600D01*
X46825Y430636D01*
X46891Y430665D01*
X46947Y430709D01*
X46975Y430726D01*
X46990Y430744D01*
X47022Y430769D01*
X92233Y475980D01*
X92286Y476054D01*
X92346Y476124D01*
X92358Y476154D01*
X92377Y476180D01*
X92404Y476267D01*
X92438Y476352D01*
X92442Y476393D01*
X92449Y476415D01*
X92448Y476447D01*
X92456Y476519D01*
X92456Y543634D01*
X100566Y551744D01*
X101058Y551744D01*
X101148Y551758D01*
X101239Y551766D01*
X101268Y551778D01*
X101300Y551783D01*
X101381Y551826D01*
X101465Y551862D01*
X101497Y551888D01*
X101518Y551899D01*
X101540Y551922D01*
X101596Y551967D01*
X171284Y621655D01*
X171352Y621750D01*
X171422Y621844D01*
X171424Y621850D01*
X171428Y621855D01*
X171462Y621966D01*
X171473Y622000D01*
X171474Y622001D01*
X171474Y622002D01*
X171499Y622078D01*
X171498Y622084D01*
X171500Y622090D01*
X171497Y622206D01*
X171497Y622212D01*
X171501Y622246D01*
X171497Y622265D01*
X171496Y622324D01*
X171494Y622331D01*
X171494Y622336D01*
X171488Y622353D01*
X171449Y622485D01*
X170747Y624180D01*
X170747Y628020D01*
X171449Y629715D01*
X171476Y629828D01*
X171505Y629942D01*
X171504Y629949D01*
X171506Y629955D01*
X171495Y630071D01*
X171486Y630188D01*
X171483Y630193D01*
X171483Y630200D01*
X171435Y630307D01*
X171389Y630414D01*
X171385Y630420D01*
X171383Y630424D01*
X171370Y630438D01*
X171284Y630545D01*
X146597Y655232D01*
X146597Y747337D01*
X146578Y747451D01*
X146561Y747568D01*
X146559Y747573D01*
X146558Y747579D01*
X146503Y747682D01*
X146450Y747787D01*
X146445Y747791D01*
X146442Y747797D01*
X146358Y747877D01*
X146274Y747959D01*
X146268Y747963D01*
X146264Y747966D01*
X146247Y747974D01*
X146127Y748040D01*
X143713Y749040D01*
X140640Y752113D01*
X138977Y756127D01*
X138977Y760473D01*
X140640Y764487D01*
X143713Y767560D01*
X147727Y769223D01*
X152073Y769223D01*
X156087Y767560D01*
X159160Y764487D01*
X160823Y760473D01*
X160823Y756127D01*
X159160Y752113D01*
X156087Y749040D01*
X153673Y748040D01*
X153573Y747978D01*
X153473Y747918D01*
X153469Y747914D01*
X153464Y747910D01*
X153389Y747821D01*
X153313Y747732D01*
X153311Y747726D01*
X153307Y747721D01*
X153265Y747613D01*
X153221Y747503D01*
X153220Y747496D01*
X153219Y747491D01*
X153218Y747473D01*
X153203Y747337D01*
X153203Y658283D01*
X153217Y658193D01*
X153225Y658102D01*
X153237Y658073D01*
X153242Y658041D01*
X153285Y657960D01*
X153321Y657876D01*
X153347Y657844D01*
X153358Y657823D01*
X153381Y657801D01*
X153426Y657745D01*
X175955Y635216D01*
X176050Y635148D01*
X176144Y635078D01*
X176150Y635076D01*
X176155Y635072D01*
X176266Y635038D01*
X176378Y635001D01*
X176384Y635002D01*
X176390Y635000D01*
X176507Y635003D01*
X176624Y635004D01*
X176631Y635006D01*
X176636Y635006D01*
X176653Y635012D01*
X176785Y635051D01*
X178480Y635753D01*
X182320Y635753D01*
X185868Y634283D01*
X188583Y631568D01*
X190053Y628020D01*
X190053Y624180D01*
X188583Y620632D01*
X185868Y617917D01*
X182320Y616447D01*
X178480Y616447D01*
X176785Y617149D01*
X176671Y617176D01*
X176558Y617205D01*
X176551Y617204D01*
X176545Y617206D01*
X176429Y617195D01*
X176312Y617186D01*
X176307Y617183D01*
X176300Y617183D01*
X176193Y617135D01*
X176086Y617089D01*
X176080Y617085D01*
X176076Y617083D01*
X176062Y617070D01*
X175955Y616984D01*
X108629Y549658D01*
X108586Y549599D01*
X108544Y549555D01*
X108543Y549552D01*
X108533Y549542D01*
X108514Y549498D01*
X108486Y549459D01*
X108463Y549386D01*
X108432Y549317D01*
X108427Y549270D01*
X108413Y549224D01*
X108415Y549148D01*
X108408Y549073D01*
X108418Y549026D01*
X108420Y548978D01*
X108446Y548907D01*
X108462Y548833D01*
X108488Y548792D01*
X108504Y548747D01*
X108551Y548688D01*
X108591Y548623D01*
X108628Y548592D01*
X108658Y548555D01*
X108721Y548514D01*
X108779Y548465D01*
X108839Y548438D01*
X108865Y548422D01*
X108890Y548415D01*
X108932Y548396D01*
X110444Y547905D01*
X111958Y547133D01*
X113333Y546134D01*
X114534Y544933D01*
X115533Y543558D01*
X116305Y542044D01*
X116830Y540428D01*
X116989Y539423D01*
X107062Y539423D01*
X107042Y539420D01*
X107023Y539422D01*
X106921Y539400D01*
X106819Y539383D01*
X106802Y539374D01*
X106782Y539370D01*
X106693Y539317D01*
X106602Y539268D01*
X106588Y539254D01*
X106571Y539244D01*
X106504Y539165D01*
X106433Y539090D01*
X106424Y539072D01*
X106411Y539057D01*
X106373Y538961D01*
X106329Y538867D01*
X106327Y538847D01*
X106319Y538829D01*
X106301Y538662D01*
X106301Y537899D01*
X105538Y537899D01*
X105518Y537896D01*
X105499Y537898D01*
X105397Y537876D01*
X105295Y537859D01*
X105278Y537850D01*
X105258Y537846D01*
X105169Y537793D01*
X105078Y537744D01*
X105064Y537730D01*
X105047Y537720D01*
X104980Y537641D01*
X104909Y537566D01*
X104900Y537548D01*
X104887Y537533D01*
X104848Y537437D01*
X104805Y537343D01*
X104803Y537323D01*
X104795Y537305D01*
X104777Y537138D01*
X104777Y527211D01*
X103772Y527370D01*
X102156Y527895D01*
X100642Y528667D01*
X100270Y528936D01*
X100260Y528942D01*
X100251Y528950D01*
X100150Y528997D01*
X100051Y529047D01*
X100039Y529049D01*
X100028Y529054D01*
X99918Y529066D01*
X99807Y529082D01*
X99795Y529080D01*
X99784Y529081D01*
X99675Y529057D01*
X99565Y529037D01*
X99555Y529031D01*
X99543Y529029D01*
X99448Y528972D01*
X99350Y528917D01*
X99342Y528908D01*
X99332Y528902D01*
X99260Y528818D01*
X99185Y528736D01*
X99180Y528725D01*
X99172Y528715D01*
X99130Y528612D01*
X99086Y528510D01*
X99085Y528498D01*
X99080Y528487D01*
X99062Y528321D01*
X99062Y473467D01*
X96904Y471310D01*
X41542Y415947D01*
X41495Y415883D01*
X41442Y415824D01*
X41424Y415783D01*
X41398Y415747D01*
X41375Y415672D01*
X41343Y415599D01*
X41339Y415555D01*
X41326Y415512D01*
X41328Y415433D01*
X41321Y415354D01*
X41331Y415311D01*
X41332Y415266D01*
X41359Y415192D01*
X41378Y415114D01*
X41401Y415077D01*
X41417Y415035D01*
X41466Y414973D01*
X41508Y414906D01*
X41552Y414867D01*
X41570Y414843D01*
X41594Y414828D01*
X41632Y414793D01*
X42578Y414106D01*
X43906Y412778D01*
X45011Y411257D01*
X45864Y409583D01*
X46445Y407796D01*
X46646Y406523D01*
X35562Y406523D01*
X35542Y406520D01*
X35523Y406522D01*
X35421Y406500D01*
X35319Y406483D01*
X35302Y406474D01*
X35282Y406470D01*
X35193Y406417D01*
X35102Y406368D01*
X35088Y406354D01*
X35071Y406344D01*
X35004Y406265D01*
X34933Y406190D01*
X34924Y406172D01*
X34911Y406157D01*
X34873Y406061D01*
X34829Y405967D01*
X34827Y405947D01*
X34819Y405929D01*
X34801Y405762D01*
X34801Y404999D01*
X34038Y404999D01*
X34018Y404996D01*
X33999Y404998D01*
X33897Y404976D01*
X33795Y404959D01*
X33778Y404950D01*
X33758Y404946D01*
X33669Y404893D01*
X33578Y404844D01*
X33564Y404830D01*
X33547Y404820D01*
X33480Y404741D01*
X33409Y404666D01*
X33400Y404648D01*
X33387Y404633D01*
X33348Y404537D01*
X33305Y404443D01*
X33303Y404423D01*
X33295Y404405D01*
X33277Y404238D01*
X33277Y394986D01*
X33292Y394896D01*
X33299Y394805D01*
X33311Y394775D01*
X33317Y394743D01*
X33359Y394662D01*
X33395Y394578D01*
X33421Y394546D01*
X33432Y394526D01*
X33455Y394503D01*
X33500Y394447D01*
X35024Y392923D01*
X35082Y392882D01*
X35134Y392832D01*
X35181Y392810D01*
X35223Y392780D01*
X35292Y392759D01*
X35357Y392729D01*
X35409Y392723D01*
X35458Y392707D01*
X35530Y392709D01*
X35601Y392701D01*
X35652Y392713D01*
X35704Y392714D01*
X35772Y392738D01*
X35842Y392754D01*
X35886Y392780D01*
X35935Y392798D01*
X35949Y392809D01*
X35909Y392751D01*
X35905Y392739D01*
X35899Y392729D01*
X35872Y392621D01*
X35841Y392514D01*
X35842Y392502D01*
X35839Y392491D01*
X35847Y392380D01*
X35853Y392268D01*
X35857Y392257D01*
X35858Y392245D01*
X35901Y392143D01*
X35942Y392039D01*
X35949Y392030D01*
X35954Y392019D01*
X36059Y391888D01*
X37637Y390310D01*
X37690Y390272D01*
X37737Y390226D01*
X37810Y390186D01*
X37836Y390167D01*
X37855Y390161D01*
X37884Y390145D01*
X40987Y388860D01*
X44060Y385787D01*
X45723Y381773D01*
X45723Y377427D01*
X44060Y373413D01*
X40987Y370340D01*
X36973Y368677D01*
X32627Y368677D01*
G37*
%LPD*%
%LPC*%
G36*
X516688Y834839D02*
X516688Y834839D01*
X510288Y836554D01*
X504551Y839866D01*
X499866Y844551D01*
X496554Y850288D01*
X494839Y856688D01*
X494839Y863312D01*
X496554Y869712D01*
X499866Y875449D01*
X504551Y880134D01*
X510288Y883446D01*
X516688Y885161D01*
X523312Y885161D01*
X529712Y883446D01*
X535449Y880134D01*
X540134Y875449D01*
X543446Y869712D01*
X545161Y863312D01*
X545161Y856688D01*
X543446Y850288D01*
X540134Y844551D01*
X535449Y839866D01*
X529712Y836554D01*
X523312Y834839D01*
X516688Y834839D01*
G37*
%LPD*%
%LPC*%
G36*
X976688Y814839D02*
X976688Y814839D01*
X970288Y816554D01*
X964551Y819866D01*
X959866Y824551D01*
X956554Y830288D01*
X954839Y836688D01*
X954839Y843312D01*
X956554Y849712D01*
X959866Y855449D01*
X964551Y860134D01*
X970288Y863446D01*
X976688Y865161D01*
X983312Y865161D01*
X989712Y863446D01*
X995449Y860134D01*
X1000134Y855449D01*
X1003446Y849712D01*
X1005161Y843312D01*
X1005161Y836688D01*
X1003446Y830288D01*
X1000134Y824551D01*
X995449Y819866D01*
X989712Y816554D01*
X983312Y814839D01*
X976688Y814839D01*
G37*
%LPD*%
%LPC*%
G36*
X816688Y254839D02*
X816688Y254839D01*
X810288Y256554D01*
X804551Y259866D01*
X799866Y264551D01*
X796554Y270288D01*
X794839Y276688D01*
X794839Y283312D01*
X796554Y289712D01*
X799866Y295449D01*
X804551Y300134D01*
X810288Y303446D01*
X816688Y305161D01*
X823312Y305161D01*
X829712Y303446D01*
X835449Y300134D01*
X840134Y295449D01*
X843446Y289712D01*
X845161Y283312D01*
X845161Y276688D01*
X843446Y270288D01*
X840134Y264551D01*
X835449Y259866D01*
X829712Y256554D01*
X823312Y254839D01*
X816688Y254839D01*
G37*
%LPD*%
%LPC*%
G36*
X136688Y334839D02*
X136688Y334839D01*
X130288Y336554D01*
X124551Y339866D01*
X119866Y344551D01*
X116554Y350288D01*
X114839Y356688D01*
X114839Y363312D01*
X116554Y369712D01*
X119866Y375449D01*
X124551Y380134D01*
X130288Y383446D01*
X136688Y385161D01*
X143312Y385161D01*
X149712Y383446D01*
X155449Y380134D01*
X160134Y375449D01*
X163446Y369712D01*
X165161Y363312D01*
X165161Y356688D01*
X163446Y350288D01*
X160134Y344551D01*
X155449Y339866D01*
X149712Y336554D01*
X143312Y334839D01*
X136688Y334839D01*
G37*
%LPD*%
%LPC*%
G36*
X247827Y250977D02*
X247827Y250977D01*
X243813Y252640D01*
X240740Y255713D01*
X239740Y258127D01*
X239678Y258227D01*
X239618Y258327D01*
X239614Y258331D01*
X239610Y258336D01*
X239521Y258411D01*
X239432Y258487D01*
X239426Y258489D01*
X239421Y258493D01*
X239313Y258535D01*
X239203Y258579D01*
X239196Y258580D01*
X239191Y258581D01*
X239173Y258582D01*
X239037Y258597D01*
X184032Y258597D01*
X152717Y289912D01*
X152623Y289980D01*
X152528Y290050D01*
X152522Y290052D01*
X152517Y290056D01*
X152406Y290090D01*
X152294Y290127D01*
X152288Y290126D01*
X152282Y290128D01*
X152165Y290125D01*
X152048Y290124D01*
X152041Y290122D01*
X152036Y290122D01*
X152019Y290116D01*
X151887Y290077D01*
X149473Y289077D01*
X145127Y289077D01*
X141113Y290740D01*
X138040Y293813D01*
X136377Y297827D01*
X136377Y302173D01*
X138040Y306187D01*
X141113Y309260D01*
X145127Y310923D01*
X149473Y310923D01*
X153487Y309260D01*
X156560Y306187D01*
X158223Y302173D01*
X158223Y297827D01*
X157223Y295413D01*
X157196Y295299D01*
X157167Y295186D01*
X157168Y295179D01*
X157166Y295173D01*
X157177Y295057D01*
X157186Y294940D01*
X157189Y294935D01*
X157190Y294928D01*
X157237Y294821D01*
X157283Y294714D01*
X157287Y294708D01*
X157290Y294704D01*
X157302Y294690D01*
X157388Y294583D01*
X186545Y265426D01*
X186619Y265373D01*
X186688Y265313D01*
X186719Y265301D01*
X186745Y265282D01*
X186832Y265255D01*
X186917Y265221D01*
X186958Y265217D01*
X186980Y265210D01*
X187012Y265211D01*
X187083Y265203D01*
X239037Y265203D01*
X239151Y265222D01*
X239268Y265239D01*
X239273Y265241D01*
X239279Y265242D01*
X239382Y265297D01*
X239487Y265350D01*
X239491Y265355D01*
X239497Y265358D01*
X239577Y265442D01*
X239659Y265526D01*
X239663Y265532D01*
X239666Y265536D01*
X239674Y265553D01*
X239740Y265673D01*
X240740Y268087D01*
X243813Y271160D01*
X247827Y272823D01*
X252173Y272823D01*
X256187Y271160D01*
X259260Y268087D01*
X260923Y264073D01*
X260923Y259727D01*
X259260Y255713D01*
X256187Y252640D01*
X252173Y250977D01*
X247827Y250977D01*
G37*
%LPD*%
%LPC*%
G36*
X781295Y607969D02*
X781295Y607969D01*
X778319Y610945D01*
X778319Y640555D01*
X781295Y643531D01*
X810905Y643531D01*
X813881Y640555D01*
X813881Y610945D01*
X810905Y607969D01*
X781295Y607969D01*
G37*
%LPD*%
%LPC*%
G36*
X782595Y387969D02*
X782595Y387969D01*
X779619Y390945D01*
X779619Y420555D01*
X782595Y423531D01*
X812205Y423531D01*
X815181Y420555D01*
X815181Y390945D01*
X812205Y387969D01*
X782595Y387969D01*
G37*
%LPD*%
%LPC*%
G36*
X406313Y62819D02*
X406313Y62819D01*
X399778Y65526D01*
X394776Y70528D01*
X392069Y77063D01*
X392069Y84137D01*
X394776Y90672D01*
X399778Y95674D01*
X406313Y98381D01*
X413387Y98381D01*
X419922Y95674D01*
X424924Y90672D01*
X427631Y84137D01*
X427631Y77063D01*
X424924Y70528D01*
X419922Y65526D01*
X413387Y62819D01*
X406313Y62819D01*
G37*
%LPD*%
%LPC*%
G36*
X686313Y64119D02*
X686313Y64119D01*
X679778Y66826D01*
X674776Y71828D01*
X672069Y78363D01*
X672069Y85437D01*
X674776Y91972D01*
X679778Y96974D01*
X686313Y99681D01*
X693387Y99681D01*
X699922Y96974D01*
X704924Y91972D01*
X707631Y85437D01*
X707631Y78363D01*
X704924Y71828D01*
X699922Y66826D01*
X693387Y64119D01*
X686313Y64119D01*
G37*
%LPD*%
%LPC*%
G36*
X934563Y667969D02*
X934563Y667969D01*
X928028Y670676D01*
X923026Y675678D01*
X920319Y682213D01*
X920319Y689287D01*
X923026Y695822D01*
X928028Y700824D01*
X934563Y703531D01*
X941637Y703531D01*
X948172Y700824D01*
X953174Y695822D01*
X955881Y689287D01*
X955881Y682213D01*
X953174Y675678D01*
X948172Y670676D01*
X941637Y667969D01*
X934563Y667969D01*
G37*
%LPD*%
%LPC*%
G36*
X935863Y447969D02*
X935863Y447969D01*
X929328Y450676D01*
X924326Y455678D01*
X921619Y462213D01*
X921619Y469287D01*
X924326Y475822D01*
X929328Y480824D01*
X935863Y483531D01*
X942937Y483531D01*
X949472Y480824D01*
X954474Y475822D01*
X957181Y469287D01*
X957181Y462213D01*
X954474Y455678D01*
X949472Y450676D01*
X942937Y447969D01*
X935863Y447969D01*
G37*
%LPD*%
%LPC*%
G36*
X141574Y837879D02*
X141574Y837879D01*
X136906Y839813D01*
X133333Y843386D01*
X131399Y848054D01*
X131399Y868346D01*
X133333Y873014D01*
X136906Y876587D01*
X141574Y878521D01*
X146626Y878521D01*
X151294Y876587D01*
X154867Y873014D01*
X156801Y868346D01*
X156801Y848054D01*
X154867Y843386D01*
X151294Y839813D01*
X146626Y837879D01*
X141574Y837879D01*
G37*
%LPD*%
%LPC*%
G36*
X346840Y639464D02*
X346840Y639464D01*
X343864Y642440D01*
X343864Y648957D01*
X343864Y648961D01*
X343864Y648965D01*
X343844Y649082D01*
X343825Y649200D01*
X343823Y649203D01*
X343822Y649207D01*
X343765Y649312D01*
X343709Y649417D01*
X343707Y649420D01*
X343705Y649423D01*
X343617Y649504D01*
X343531Y649586D01*
X343527Y649588D01*
X343525Y649591D01*
X343416Y649640D01*
X343308Y649690D01*
X343304Y649690D01*
X343300Y649692D01*
X343181Y649704D01*
X343064Y649717D01*
X343060Y649716D01*
X343056Y649717D01*
X342940Y649690D01*
X342823Y649665D01*
X342820Y649663D01*
X342816Y649662D01*
X342715Y649600D01*
X342612Y649539D01*
X342610Y649536D01*
X342606Y649534D01*
X342530Y649443D01*
X342452Y649352D01*
X342451Y649348D01*
X342448Y649345D01*
X342379Y649192D01*
X342205Y648656D01*
X341433Y647142D01*
X340434Y645767D01*
X339233Y644566D01*
X337858Y643567D01*
X336344Y642795D01*
X334728Y642270D01*
X333723Y642111D01*
X333723Y652038D01*
X333720Y652058D01*
X333722Y652077D01*
X333700Y652179D01*
X333683Y652281D01*
X333674Y652298D01*
X333670Y652318D01*
X333617Y652407D01*
X333568Y652498D01*
X333554Y652512D01*
X333544Y652529D01*
X333465Y652596D01*
X333390Y652667D01*
X333372Y652676D01*
X333357Y652689D01*
X333261Y652727D01*
X333167Y652771D01*
X333147Y652773D01*
X333129Y652781D01*
X332962Y652799D01*
X332199Y652799D01*
X332199Y652801D01*
X332962Y652801D01*
X332982Y652804D01*
X333001Y652802D01*
X333103Y652824D01*
X333205Y652841D01*
X333222Y652850D01*
X333242Y652854D01*
X333331Y652907D01*
X333422Y652956D01*
X333436Y652970D01*
X333453Y652980D01*
X333520Y653059D01*
X333591Y653134D01*
X333600Y653152D01*
X333613Y653167D01*
X333652Y653263D01*
X333695Y653357D01*
X333697Y653377D01*
X333705Y653395D01*
X333723Y653562D01*
X333723Y663489D01*
X334728Y663330D01*
X336344Y662805D01*
X337858Y662033D01*
X339233Y661034D01*
X340434Y659833D01*
X341433Y658458D01*
X342205Y656944D01*
X342379Y656408D01*
X342381Y656404D01*
X342382Y656400D01*
X342437Y656296D01*
X342492Y656189D01*
X342495Y656186D01*
X342497Y656183D01*
X342583Y656101D01*
X342668Y656018D01*
X342672Y656016D01*
X342675Y656014D01*
X342783Y655964D01*
X342890Y655912D01*
X342894Y655912D01*
X342898Y655910D01*
X343015Y655897D01*
X343135Y655882D01*
X343139Y655883D01*
X343142Y655883D01*
X343258Y655908D01*
X343375Y655932D01*
X343379Y655934D01*
X343383Y655935D01*
X343485Y655996D01*
X343588Y656056D01*
X343591Y656059D01*
X343594Y656061D01*
X343672Y656152D01*
X343750Y656241D01*
X343751Y656245D01*
X343754Y656248D01*
X343799Y656359D01*
X343844Y656469D01*
X343844Y656473D01*
X343846Y656476D01*
X343864Y656643D01*
X343864Y663160D01*
X346840Y666136D01*
X367560Y666136D01*
X370536Y663160D01*
X370536Y642440D01*
X367560Y639464D01*
X346840Y639464D01*
G37*
%LPD*%
%LPC*%
G36*
X961001Y105519D02*
X961001Y105519D01*
X955274Y107891D01*
X950891Y112274D01*
X948519Y118001D01*
X948519Y124199D01*
X950891Y129926D01*
X955274Y134309D01*
X961001Y136681D01*
X967199Y136681D01*
X972926Y134309D01*
X977309Y129926D01*
X979681Y124199D01*
X979681Y118001D01*
X977309Y112274D01*
X972926Y107891D01*
X967199Y105519D01*
X961001Y105519D01*
G37*
%LPD*%
%LPC*%
G36*
X691701Y778619D02*
X691701Y778619D01*
X685974Y780991D01*
X681591Y785374D01*
X679219Y791101D01*
X679219Y797299D01*
X681591Y803026D01*
X685974Y807409D01*
X691701Y809781D01*
X697899Y809781D01*
X703626Y807409D01*
X708009Y803026D01*
X710381Y797299D01*
X710381Y791101D01*
X708009Y785374D01*
X703626Y780991D01*
X697899Y778619D01*
X691701Y778619D01*
G37*
%LPD*%
%LPC*%
G36*
X428001Y785419D02*
X428001Y785419D01*
X422274Y787791D01*
X417891Y792174D01*
X415519Y797901D01*
X415519Y804099D01*
X417891Y809826D01*
X422274Y814209D01*
X428001Y816581D01*
X434199Y816581D01*
X439926Y814209D01*
X444309Y809826D01*
X446681Y804099D01*
X446681Y797901D01*
X444309Y792174D01*
X439926Y787791D01*
X434199Y785419D01*
X428001Y785419D01*
G37*
%LPD*%
%LPC*%
G36*
X601701Y778619D02*
X601701Y778619D01*
X595974Y780991D01*
X591591Y785374D01*
X589219Y791101D01*
X589219Y797299D01*
X591591Y803026D01*
X595974Y807409D01*
X601701Y809781D01*
X607899Y809781D01*
X613626Y807409D01*
X618009Y803026D01*
X620381Y797299D01*
X620381Y791101D01*
X618009Y785374D01*
X613626Y780991D01*
X607899Y778619D01*
X601701Y778619D01*
G37*
%LPD*%
%LPC*%
G36*
X193081Y841435D02*
X193081Y841435D01*
X189720Y842827D01*
X187147Y845400D01*
X185755Y848761D01*
X185755Y867639D01*
X187147Y871000D01*
X189720Y873573D01*
X193081Y874965D01*
X196719Y874965D01*
X200080Y873573D01*
X202653Y871000D01*
X204045Y867639D01*
X204045Y848761D01*
X202653Y845400D01*
X200080Y842827D01*
X196719Y841435D01*
X193081Y841435D01*
G37*
%LPD*%
%LPC*%
G36*
X342281Y297635D02*
X342281Y297635D01*
X338920Y299027D01*
X336347Y301600D01*
X334955Y304961D01*
X334955Y323839D01*
X336347Y327200D01*
X338920Y329773D01*
X342281Y331165D01*
X345919Y331165D01*
X349280Y329773D01*
X351853Y327200D01*
X353245Y323839D01*
X353245Y304961D01*
X351853Y301600D01*
X349280Y299027D01*
X345919Y297635D01*
X342281Y297635D01*
G37*
%LPD*%
%LPC*%
G36*
X44813Y843020D02*
X44813Y843020D01*
X43920Y843913D01*
X43920Y861687D01*
X44813Y862580D01*
X62587Y862580D01*
X63480Y861687D01*
X63480Y843913D01*
X62587Y843020D01*
X44813Y843020D01*
G37*
%LPD*%
%LPC*%
G36*
X43027Y749777D02*
X43027Y749777D01*
X39013Y751440D01*
X35940Y754513D01*
X34277Y758527D01*
X34277Y762873D01*
X35940Y766887D01*
X39013Y769960D01*
X43027Y771623D01*
X47373Y771623D01*
X51387Y769960D01*
X54460Y766887D01*
X56123Y762873D01*
X56123Y758527D01*
X54460Y754513D01*
X51387Y751440D01*
X47373Y749777D01*
X43027Y749777D01*
G37*
%LPD*%
%LPC*%
G36*
X71527Y747377D02*
X71527Y747377D01*
X67513Y749040D01*
X64440Y752113D01*
X62777Y756127D01*
X62777Y760473D01*
X64440Y764487D01*
X67513Y767560D01*
X71527Y769223D01*
X75873Y769223D01*
X79887Y767560D01*
X82960Y764487D01*
X84623Y760473D01*
X84623Y756127D01*
X82960Y752113D01*
X79887Y749040D01*
X75873Y747377D01*
X71527Y747377D01*
G37*
%LPD*%
%LPC*%
G36*
X126327Y70777D02*
X126327Y70777D01*
X122313Y72440D01*
X119240Y75513D01*
X117577Y79527D01*
X117577Y83873D01*
X119240Y87887D01*
X122313Y90960D01*
X126327Y92623D01*
X130673Y92623D01*
X134687Y90960D01*
X137760Y87887D01*
X139423Y83873D01*
X139423Y79527D01*
X137760Y75513D01*
X134687Y72440D01*
X130673Y70777D01*
X126327Y70777D01*
G37*
%LPD*%
%LPC*%
G36*
X47827Y59077D02*
X47827Y59077D01*
X43813Y60740D01*
X40740Y63813D01*
X39077Y67827D01*
X39077Y72173D01*
X40740Y76187D01*
X43813Y79260D01*
X47827Y80923D01*
X52173Y80923D01*
X56187Y79260D01*
X59260Y76187D01*
X60923Y72173D01*
X60923Y67827D01*
X59260Y63813D01*
X56187Y60740D01*
X52173Y59077D01*
X47827Y59077D01*
G37*
%LPD*%
%LPC*%
G36*
X43027Y724377D02*
X43027Y724377D01*
X39013Y726040D01*
X35940Y729113D01*
X34277Y733127D01*
X34277Y737473D01*
X35940Y741487D01*
X39013Y744560D01*
X43027Y746223D01*
X47373Y746223D01*
X51387Y744560D01*
X54460Y741487D01*
X56123Y737473D01*
X56123Y733127D01*
X54460Y729113D01*
X51387Y726040D01*
X47373Y724377D01*
X43027Y724377D01*
G37*
%LPD*%
%LPC*%
G36*
X47827Y33677D02*
X47827Y33677D01*
X43813Y35340D01*
X40740Y38413D01*
X39077Y42427D01*
X39077Y46773D01*
X40740Y50787D01*
X43813Y53860D01*
X47827Y55523D01*
X52173Y55523D01*
X56187Y53860D01*
X59260Y50787D01*
X60923Y46773D01*
X60923Y42427D01*
X59260Y38413D01*
X56187Y35340D01*
X52173Y33677D01*
X47827Y33677D01*
G37*
%LPD*%
%LPC*%
G36*
X401927Y546977D02*
X401927Y546977D01*
X397913Y548640D01*
X394840Y551713D01*
X393177Y555727D01*
X393177Y560073D01*
X394840Y564087D01*
X397913Y567160D01*
X401927Y568823D01*
X406273Y568823D01*
X410287Y567160D01*
X413360Y564087D01*
X415023Y560073D01*
X415023Y555727D01*
X413360Y551713D01*
X410287Y548640D01*
X406273Y546977D01*
X401927Y546977D01*
G37*
%LPD*%
%LPC*%
G36*
X43027Y698977D02*
X43027Y698977D01*
X39013Y700640D01*
X35940Y703713D01*
X34277Y707727D01*
X34277Y712073D01*
X35940Y716087D01*
X39013Y719160D01*
X43027Y720823D01*
X47373Y720823D01*
X51387Y719160D01*
X54460Y716087D01*
X56123Y712073D01*
X56123Y707727D01*
X54460Y703713D01*
X51387Y700640D01*
X47373Y698977D01*
X43027Y698977D01*
G37*
%LPD*%
%LPC*%
G36*
X300327Y546977D02*
X300327Y546977D01*
X296313Y548640D01*
X293240Y551713D01*
X291577Y555727D01*
X291577Y560073D01*
X293240Y564087D01*
X296313Y567160D01*
X300327Y568823D01*
X304673Y568823D01*
X308687Y567160D01*
X311760Y564087D01*
X313423Y560073D01*
X313423Y555727D01*
X311760Y551713D01*
X308687Y548640D01*
X304673Y546977D01*
X300327Y546977D01*
G37*
%LPD*%
%LPC*%
G36*
X32627Y444877D02*
X32627Y444877D01*
X28613Y446540D01*
X25540Y449613D01*
X23877Y453627D01*
X23877Y457973D01*
X25540Y461987D01*
X28613Y465060D01*
X32627Y466723D01*
X36973Y466723D01*
X40987Y465060D01*
X44060Y461987D01*
X45723Y457973D01*
X45723Y453627D01*
X44060Y449613D01*
X40987Y446540D01*
X36973Y444877D01*
X32627Y444877D01*
G37*
%LPD*%
%LPC*%
G36*
X247827Y327177D02*
X247827Y327177D01*
X243813Y328840D01*
X240740Y331913D01*
X239077Y335927D01*
X239077Y340273D01*
X240740Y344287D01*
X243813Y347360D01*
X247827Y349023D01*
X252173Y349023D01*
X256187Y347360D01*
X259260Y344287D01*
X260923Y340273D01*
X260923Y335927D01*
X259260Y331913D01*
X256187Y328840D01*
X252173Y327177D01*
X247827Y327177D01*
G37*
%LPD*%
%LPC*%
G36*
X47827Y259077D02*
X47827Y259077D01*
X43813Y260740D01*
X40740Y263813D01*
X39077Y267827D01*
X39077Y272173D01*
X40740Y276187D01*
X43813Y279260D01*
X47827Y280923D01*
X52173Y280923D01*
X56187Y279260D01*
X59260Y276187D01*
X60923Y272173D01*
X60923Y267827D01*
X59260Y263813D01*
X56187Y260740D01*
X52173Y259077D01*
X47827Y259077D01*
G37*
%LPD*%
%LPC*%
G36*
X47827Y233677D02*
X47827Y233677D01*
X43813Y235340D01*
X40740Y238413D01*
X39077Y242427D01*
X39077Y246773D01*
X40740Y250787D01*
X43813Y253860D01*
X47827Y255523D01*
X52173Y255523D01*
X56187Y253860D01*
X59260Y250787D01*
X60923Y246773D01*
X60923Y242427D01*
X59260Y238413D01*
X56187Y235340D01*
X52173Y233677D01*
X47827Y233677D01*
G37*
%LPD*%
%LPC*%
G36*
X116327Y207377D02*
X116327Y207377D01*
X112313Y209040D01*
X109240Y212113D01*
X107577Y216127D01*
X107577Y220473D01*
X109240Y224487D01*
X112313Y227560D01*
X116327Y229223D01*
X120673Y229223D01*
X124687Y227560D01*
X127760Y224487D01*
X129423Y220473D01*
X129423Y216127D01*
X127760Y212113D01*
X124687Y209040D01*
X120673Y207377D01*
X116327Y207377D01*
G37*
%LPD*%
%LPC*%
G36*
X47827Y159077D02*
X47827Y159077D01*
X43813Y160740D01*
X40740Y163813D01*
X39077Y167827D01*
X39077Y172173D01*
X40740Y176187D01*
X43813Y179260D01*
X47827Y180923D01*
X52173Y180923D01*
X56187Y179260D01*
X59260Y176187D01*
X60923Y172173D01*
X60923Y167827D01*
X59260Y163813D01*
X56187Y160740D01*
X52173Y159077D01*
X47827Y159077D01*
G37*
%LPD*%
%LPC*%
G36*
X43027Y775177D02*
X43027Y775177D01*
X39013Y776840D01*
X35940Y779913D01*
X34277Y783927D01*
X34277Y788273D01*
X35940Y792287D01*
X39013Y795360D01*
X43027Y797023D01*
X47373Y797023D01*
X51387Y795360D01*
X54460Y792287D01*
X56123Y788273D01*
X56123Y783927D01*
X54460Y779913D01*
X51387Y776840D01*
X47373Y775177D01*
X43027Y775177D01*
G37*
%LPD*%
%LPC*%
G36*
X114727Y147377D02*
X114727Y147377D01*
X110713Y149040D01*
X107640Y152113D01*
X105977Y156127D01*
X105977Y160473D01*
X107640Y164487D01*
X110713Y167560D01*
X114727Y169223D01*
X119073Y169223D01*
X123087Y167560D01*
X126160Y164487D01*
X127823Y160473D01*
X127823Y156127D01*
X126160Y152113D01*
X123087Y149040D01*
X119073Y147377D01*
X114727Y147377D01*
G37*
%LPD*%
%LPC*%
G36*
X47827Y133677D02*
X47827Y133677D01*
X43813Y135340D01*
X40740Y138413D01*
X39077Y142427D01*
X39077Y146773D01*
X40740Y150787D01*
X43813Y153860D01*
X47827Y155523D01*
X52173Y155523D01*
X56187Y153860D01*
X59260Y150787D01*
X60923Y146773D01*
X60923Y142427D01*
X59260Y138413D01*
X56187Y135340D01*
X52173Y133677D01*
X47827Y133677D01*
G37*
%LPD*%
%LPC*%
G36*
X45255Y557120D02*
X45255Y557120D01*
X41660Y558609D01*
X38909Y561360D01*
X37420Y564955D01*
X37420Y568845D01*
X38909Y572440D01*
X41660Y575191D01*
X45255Y576680D01*
X49145Y576680D01*
X52740Y575191D01*
X55491Y572440D01*
X56980Y568845D01*
X56980Y564955D01*
X55491Y561360D01*
X52740Y558609D01*
X49145Y557120D01*
X45255Y557120D01*
G37*
%LPD*%
%LPC*%
G36*
X45255Y607920D02*
X45255Y607920D01*
X41660Y609409D01*
X38909Y612160D01*
X37420Y615755D01*
X37420Y619645D01*
X38909Y623240D01*
X41660Y625991D01*
X45255Y627480D01*
X49145Y627480D01*
X52740Y625991D01*
X55491Y623240D01*
X56980Y619645D01*
X56980Y615755D01*
X55491Y612160D01*
X52740Y609409D01*
X49145Y607920D01*
X45255Y607920D01*
G37*
%LPD*%
%LPC*%
G36*
X100955Y612320D02*
X100955Y612320D01*
X97360Y613809D01*
X94609Y616560D01*
X93120Y620155D01*
X93120Y624045D01*
X94609Y627640D01*
X97360Y630391D01*
X100955Y631880D01*
X104845Y631880D01*
X108440Y630391D01*
X111191Y627640D01*
X112680Y624045D01*
X112680Y620155D01*
X111191Y616560D01*
X108440Y613809D01*
X104845Y612320D01*
X100955Y612320D01*
G37*
%LPD*%
%LPC*%
G36*
X78955Y528120D02*
X78955Y528120D01*
X75360Y529609D01*
X72609Y532360D01*
X71120Y535955D01*
X71120Y539845D01*
X72609Y543440D01*
X75360Y546191D01*
X78955Y547680D01*
X82845Y547680D01*
X86440Y546191D01*
X89191Y543440D01*
X90680Y539845D01*
X90680Y535955D01*
X89191Y532360D01*
X86440Y529609D01*
X82845Y528120D01*
X78955Y528120D01*
G37*
%LPD*%
%LPC*%
G36*
X254680Y667247D02*
X254680Y667247D01*
X251132Y668717D01*
X248417Y671432D01*
X246947Y674980D01*
X246947Y678820D01*
X248417Y682368D01*
X251132Y685083D01*
X254680Y686553D01*
X258520Y686553D01*
X262068Y685083D01*
X264783Y682368D01*
X266253Y678820D01*
X266253Y674980D01*
X264783Y671432D01*
X262068Y668717D01*
X258520Y667247D01*
X254680Y667247D01*
G37*
%LPD*%
%LPC*%
G36*
X178480Y667247D02*
X178480Y667247D01*
X174932Y668717D01*
X172217Y671432D01*
X170747Y674980D01*
X170747Y678820D01*
X172217Y682368D01*
X174932Y685083D01*
X178480Y686553D01*
X182320Y686553D01*
X185868Y685083D01*
X188583Y682368D01*
X190053Y678820D01*
X190053Y674980D01*
X188583Y671432D01*
X185868Y668717D01*
X182320Y667247D01*
X178480Y667247D01*
G37*
%LPD*%
%LPC*%
G36*
X178480Y489447D02*
X178480Y489447D01*
X174932Y490917D01*
X172217Y493632D01*
X170747Y497180D01*
X170747Y501020D01*
X172217Y504568D01*
X174932Y507283D01*
X178480Y508753D01*
X182320Y508753D01*
X185868Y507283D01*
X188583Y504568D01*
X190053Y501020D01*
X190053Y497180D01*
X188583Y493632D01*
X185868Y490917D01*
X182320Y489447D01*
X178480Y489447D01*
G37*
%LPD*%
%LPC*%
G36*
X254680Y641847D02*
X254680Y641847D01*
X251132Y643317D01*
X248417Y646032D01*
X246947Y649580D01*
X246947Y653420D01*
X248417Y656968D01*
X251132Y659683D01*
X254680Y661153D01*
X258520Y661153D01*
X262068Y659683D01*
X264783Y656968D01*
X266253Y653420D01*
X266253Y649580D01*
X264783Y646032D01*
X262068Y643317D01*
X258520Y641847D01*
X254680Y641847D01*
G37*
%LPD*%
%LPC*%
G36*
X178480Y641847D02*
X178480Y641847D01*
X174932Y643317D01*
X172217Y646032D01*
X170747Y649580D01*
X170747Y653420D01*
X172217Y656968D01*
X174932Y659683D01*
X178480Y661153D01*
X182320Y661153D01*
X185868Y659683D01*
X188583Y656968D01*
X190053Y653420D01*
X190053Y649580D01*
X188583Y646032D01*
X185868Y643317D01*
X182320Y641847D01*
X178480Y641847D01*
G37*
%LPD*%
%LPC*%
G36*
X178480Y743447D02*
X178480Y743447D01*
X174932Y744917D01*
X172217Y747632D01*
X170747Y751180D01*
X170747Y755020D01*
X172217Y758568D01*
X174932Y761283D01*
X178480Y762753D01*
X182320Y762753D01*
X185868Y761283D01*
X188583Y758568D01*
X190053Y755020D01*
X190053Y751180D01*
X188583Y747632D01*
X185868Y744917D01*
X182320Y743447D01*
X178480Y743447D01*
G37*
%LPD*%
%LPC*%
G36*
X178480Y540247D02*
X178480Y540247D01*
X174932Y541717D01*
X172217Y544432D01*
X170747Y547980D01*
X170747Y551820D01*
X172217Y555368D01*
X174932Y558083D01*
X178480Y559553D01*
X182320Y559553D01*
X185868Y558083D01*
X188583Y555368D01*
X190053Y551820D01*
X190053Y547980D01*
X188583Y544432D01*
X185868Y541717D01*
X182320Y540247D01*
X178480Y540247D01*
G37*
%LPD*%
%LPC*%
G36*
X254680Y464047D02*
X254680Y464047D01*
X251132Y465517D01*
X248417Y468232D01*
X246947Y471780D01*
X246947Y475620D01*
X248417Y479168D01*
X251132Y481883D01*
X254680Y483353D01*
X258520Y483353D01*
X262068Y481883D01*
X264783Y479168D01*
X266253Y475620D01*
X266253Y471780D01*
X264783Y468232D01*
X262068Y465517D01*
X258520Y464047D01*
X254680Y464047D01*
G37*
%LPD*%
%LPC*%
G36*
X254680Y565647D02*
X254680Y565647D01*
X251132Y567117D01*
X248417Y569832D01*
X246947Y573380D01*
X246947Y577220D01*
X248417Y580768D01*
X251132Y583483D01*
X254680Y584953D01*
X258520Y584953D01*
X262068Y583483D01*
X264783Y580768D01*
X266253Y577220D01*
X266253Y573380D01*
X264783Y569832D01*
X262068Y567117D01*
X258520Y565647D01*
X254680Y565647D01*
G37*
%LPD*%
%LPC*%
G36*
X254680Y591047D02*
X254680Y591047D01*
X251132Y592517D01*
X248417Y595232D01*
X246947Y598780D01*
X246947Y602620D01*
X248417Y606168D01*
X251132Y608883D01*
X254680Y610353D01*
X258520Y610353D01*
X262068Y608883D01*
X264783Y606168D01*
X266253Y602620D01*
X266253Y598780D01*
X264783Y595232D01*
X262068Y592517D01*
X258520Y591047D01*
X254680Y591047D01*
G37*
%LPD*%
%LPC*%
G36*
X178480Y565647D02*
X178480Y565647D01*
X174932Y567117D01*
X172217Y569832D01*
X170747Y573380D01*
X170747Y577220D01*
X172217Y580768D01*
X174932Y583483D01*
X178480Y584953D01*
X182320Y584953D01*
X185868Y583483D01*
X188583Y580768D01*
X190053Y577220D01*
X190053Y573380D01*
X188583Y569832D01*
X185868Y567117D01*
X182320Y565647D01*
X178480Y565647D01*
G37*
%LPD*%
%LPC*%
G36*
X178480Y514847D02*
X178480Y514847D01*
X174932Y516317D01*
X172217Y519032D01*
X170747Y522580D01*
X170747Y526420D01*
X172217Y529968D01*
X174932Y532683D01*
X178480Y534153D01*
X182320Y534153D01*
X185868Y532683D01*
X188583Y529968D01*
X190053Y526420D01*
X190053Y522580D01*
X188583Y519032D01*
X185868Y516317D01*
X182320Y514847D01*
X178480Y514847D01*
G37*
%LPD*%
%LPC*%
G36*
X254680Y540247D02*
X254680Y540247D01*
X251132Y541717D01*
X248417Y544432D01*
X246947Y547980D01*
X246947Y551820D01*
X248417Y555368D01*
X251132Y558083D01*
X254680Y559553D01*
X258520Y559553D01*
X262068Y558083D01*
X264783Y555368D01*
X266253Y551820D01*
X266253Y547980D01*
X264783Y544432D01*
X262068Y541717D01*
X258520Y540247D01*
X254680Y540247D01*
G37*
%LPD*%
%LPC*%
G36*
X254680Y768847D02*
X254680Y768847D01*
X251132Y770317D01*
X248417Y773032D01*
X246947Y776580D01*
X246947Y780420D01*
X248417Y783968D01*
X251132Y786683D01*
X254680Y788153D01*
X258520Y788153D01*
X262068Y786683D01*
X264783Y783968D01*
X266253Y780420D01*
X266253Y776580D01*
X264783Y773032D01*
X262068Y770317D01*
X258520Y768847D01*
X254680Y768847D01*
G37*
%LPD*%
%LPC*%
G36*
X178480Y768847D02*
X178480Y768847D01*
X174932Y770317D01*
X172217Y773032D01*
X170747Y776580D01*
X170747Y780420D01*
X172217Y783968D01*
X174932Y786683D01*
X178480Y788153D01*
X182320Y788153D01*
X185868Y786683D01*
X188583Y783968D01*
X190053Y780420D01*
X190053Y776580D01*
X188583Y773032D01*
X185868Y770317D01*
X182320Y768847D01*
X178480Y768847D01*
G37*
%LPD*%
%LPC*%
G36*
X254680Y743447D02*
X254680Y743447D01*
X251132Y744917D01*
X248417Y747632D01*
X246947Y751180D01*
X246947Y755020D01*
X248417Y758568D01*
X251132Y761283D01*
X254680Y762753D01*
X258520Y762753D01*
X262068Y761283D01*
X264783Y758568D01*
X266253Y755020D01*
X266253Y751180D01*
X264783Y747632D01*
X262068Y744917D01*
X258520Y743447D01*
X254680Y743447D01*
G37*
%LPD*%
%LPC*%
G36*
X254680Y718047D02*
X254680Y718047D01*
X251132Y719517D01*
X248417Y722232D01*
X246947Y725780D01*
X246947Y729620D01*
X248417Y733168D01*
X251132Y735883D01*
X254680Y737353D01*
X258520Y737353D01*
X262068Y735883D01*
X264783Y733168D01*
X266253Y729620D01*
X266253Y725780D01*
X264783Y722232D01*
X262068Y719517D01*
X258520Y718047D01*
X254680Y718047D01*
G37*
%LPD*%
%LPC*%
G36*
X178480Y718047D02*
X178480Y718047D01*
X174932Y719517D01*
X172217Y722232D01*
X170747Y725780D01*
X170747Y729620D01*
X172217Y733168D01*
X174932Y735883D01*
X178480Y737353D01*
X182320Y737353D01*
X185868Y735883D01*
X188583Y733168D01*
X190053Y729620D01*
X190053Y725780D01*
X188583Y722232D01*
X185868Y719517D01*
X182320Y718047D01*
X178480Y718047D01*
G37*
%LPD*%
%LPC*%
G36*
X254680Y692647D02*
X254680Y692647D01*
X251132Y694117D01*
X248417Y696832D01*
X246947Y700380D01*
X246947Y704220D01*
X248417Y707768D01*
X251132Y710483D01*
X254680Y711953D01*
X258520Y711953D01*
X262068Y710483D01*
X264783Y707768D01*
X266253Y704220D01*
X266253Y700380D01*
X264783Y696832D01*
X262068Y694117D01*
X258520Y692647D01*
X254680Y692647D01*
G37*
%LPD*%
%LPC*%
G36*
X178480Y692647D02*
X178480Y692647D01*
X174932Y694117D01*
X172217Y696832D01*
X170747Y700380D01*
X170747Y704220D01*
X172217Y707768D01*
X174932Y710483D01*
X178480Y711953D01*
X182320Y711953D01*
X185868Y710483D01*
X188583Y707768D01*
X190053Y704220D01*
X190053Y700380D01*
X188583Y696832D01*
X185868Y694117D01*
X182320Y692647D01*
X178480Y692647D01*
G37*
%LPD*%
%LPC*%
G36*
X178480Y464047D02*
X178480Y464047D01*
X174932Y465517D01*
X172217Y468232D01*
X170747Y471780D01*
X170747Y475620D01*
X172217Y479168D01*
X174932Y481883D01*
X178480Y483353D01*
X182320Y483353D01*
X185868Y481883D01*
X188583Y479168D01*
X190053Y475620D01*
X190053Y471780D01*
X188583Y468232D01*
X185868Y465517D01*
X182320Y464047D01*
X178480Y464047D01*
G37*
%LPD*%
%LPC*%
G36*
X817623Y567273D02*
X817623Y567273D01*
X817623Y580939D01*
X819669Y580615D01*
X821950Y579874D01*
X824088Y578785D01*
X826029Y577375D01*
X827725Y575679D01*
X829135Y573738D01*
X830224Y571600D01*
X830965Y569319D01*
X831289Y567273D01*
X817623Y567273D01*
G37*
%LPD*%
%LPC*%
G36*
X818923Y347273D02*
X818923Y347273D01*
X818923Y360939D01*
X820969Y360615D01*
X823250Y359874D01*
X825388Y358785D01*
X827329Y357375D01*
X829025Y355679D01*
X830435Y353738D01*
X831524Y351600D01*
X832265Y349319D01*
X832589Y347273D01*
X818923Y347273D01*
G37*
%LPD*%
%LPC*%
G36*
X291373Y204123D02*
X291373Y204123D01*
X291373Y217789D01*
X293419Y217465D01*
X295700Y216724D01*
X297838Y215635D01*
X299779Y214225D01*
X301475Y212529D01*
X302885Y210588D01*
X303974Y208450D01*
X304715Y206169D01*
X305039Y204123D01*
X291373Y204123D01*
G37*
%LPD*%
%LPC*%
G36*
X291373Y201077D02*
X291373Y201077D01*
X305039Y201077D01*
X304715Y199031D01*
X303974Y196750D01*
X302885Y194612D01*
X301475Y192671D01*
X299779Y190975D01*
X297838Y189565D01*
X295700Y188476D01*
X293419Y187735D01*
X291373Y187411D01*
X291373Y201077D01*
G37*
%LPD*%
%LPC*%
G36*
X802211Y347273D02*
X802211Y347273D01*
X802535Y349319D01*
X803276Y351600D01*
X804365Y353738D01*
X805775Y355679D01*
X807471Y357375D01*
X809412Y358785D01*
X811550Y359874D01*
X813831Y360615D01*
X815877Y360939D01*
X815877Y347273D01*
X802211Y347273D01*
G37*
%LPD*%
%LPC*%
G36*
X274661Y204123D02*
X274661Y204123D01*
X274985Y206169D01*
X275726Y208450D01*
X276815Y210588D01*
X278225Y212529D01*
X279921Y214225D01*
X281862Y215635D01*
X284000Y216724D01*
X286281Y217465D01*
X288327Y217789D01*
X288327Y204123D01*
X274661Y204123D01*
G37*
%LPD*%
%LPC*%
G36*
X800911Y567273D02*
X800911Y567273D01*
X801235Y569319D01*
X801976Y571600D01*
X803065Y573738D01*
X804475Y575679D01*
X806171Y577375D01*
X808112Y578785D01*
X810250Y579874D01*
X812531Y580615D01*
X814577Y580939D01*
X814577Y567273D01*
X800911Y567273D01*
G37*
%LPD*%
%LPC*%
G36*
X818923Y344227D02*
X818923Y344227D01*
X832589Y344227D01*
X832265Y342181D01*
X831524Y339900D01*
X830435Y337762D01*
X829025Y335821D01*
X827329Y334125D01*
X825388Y332715D01*
X823250Y331626D01*
X820969Y330885D01*
X818923Y330561D01*
X818923Y344227D01*
G37*
%LPD*%
%LPC*%
G36*
X571373Y202377D02*
X571373Y202377D01*
X585039Y202377D01*
X584715Y200331D01*
X583974Y198050D01*
X582885Y195912D01*
X581475Y193971D01*
X579779Y192275D01*
X577838Y190865D01*
X575700Y189776D01*
X573419Y189035D01*
X571373Y188711D01*
X571373Y202377D01*
G37*
%LPD*%
%LPC*%
G36*
X286281Y187735D02*
X286281Y187735D01*
X284000Y188476D01*
X281862Y189565D01*
X279921Y190975D01*
X278225Y192671D01*
X276815Y194612D01*
X275726Y196750D01*
X274985Y199031D01*
X274661Y201077D01*
X288327Y201077D01*
X288327Y187411D01*
X286281Y187735D01*
G37*
%LPD*%
%LPC*%
G36*
X566281Y189035D02*
X566281Y189035D01*
X564000Y189776D01*
X561862Y190865D01*
X559921Y192275D01*
X558225Y193971D01*
X556815Y195912D01*
X555726Y198050D01*
X554985Y200331D01*
X554661Y202377D01*
X568327Y202377D01*
X568327Y188711D01*
X566281Y189035D01*
G37*
%LPD*%
%LPC*%
G36*
X813831Y330885D02*
X813831Y330885D01*
X811550Y331626D01*
X809412Y332715D01*
X807471Y334125D01*
X805775Y335821D01*
X804365Y337762D01*
X803276Y339900D01*
X802535Y342181D01*
X802211Y344227D01*
X815877Y344227D01*
X815877Y330561D01*
X813831Y330885D01*
G37*
%LPD*%
%LPC*%
G36*
X396423Y315923D02*
X396423Y315923D01*
X396423Y332066D01*
X397279Y331931D01*
X398800Y331436D01*
X400225Y330710D01*
X401519Y329770D01*
X402650Y328639D01*
X403590Y327345D01*
X404316Y325920D01*
X404811Y324399D01*
X405061Y322820D01*
X405061Y315923D01*
X396423Y315923D01*
G37*
%LPD*%
%LPC*%
G36*
X171023Y859723D02*
X171023Y859723D01*
X171023Y875866D01*
X171879Y875731D01*
X173400Y875236D01*
X174825Y874510D01*
X176119Y873570D01*
X177250Y872439D01*
X178190Y871145D01*
X178916Y869720D01*
X179411Y868199D01*
X179661Y866620D01*
X179661Y859723D01*
X171023Y859723D01*
G37*
%LPD*%
%LPC*%
G36*
X529423Y315923D02*
X529423Y315923D01*
X529423Y332066D01*
X530279Y331931D01*
X531800Y331436D01*
X533225Y330710D01*
X534519Y329770D01*
X535650Y328639D01*
X536590Y327345D01*
X537316Y325920D01*
X537811Y324399D01*
X538061Y322820D01*
X538061Y315923D01*
X529423Y315923D01*
G37*
%LPD*%
%LPC*%
G36*
X171023Y856677D02*
X171023Y856677D01*
X179661Y856677D01*
X179661Y849780D01*
X179411Y848201D01*
X178916Y846680D01*
X178190Y845255D01*
X177250Y843961D01*
X176119Y842830D01*
X174825Y841890D01*
X173400Y841164D01*
X171879Y840669D01*
X171023Y840534D01*
X171023Y856677D01*
G37*
%LPD*%
%LPC*%
G36*
X396423Y312877D02*
X396423Y312877D01*
X405061Y312877D01*
X405061Y305980D01*
X404811Y304401D01*
X404316Y302880D01*
X403590Y301455D01*
X402650Y300161D01*
X401519Y299030D01*
X400225Y298090D01*
X398800Y297364D01*
X397279Y296869D01*
X396423Y296734D01*
X396423Y312877D01*
G37*
%LPD*%
%LPC*%
G36*
X529423Y312877D02*
X529423Y312877D01*
X538061Y312877D01*
X538061Y305980D01*
X537811Y304401D01*
X537316Y302880D01*
X536590Y301455D01*
X535650Y300161D01*
X534519Y299030D01*
X533225Y298090D01*
X531800Y297364D01*
X530279Y296869D01*
X529423Y296734D01*
X529423Y312877D01*
G37*
%LPD*%
%LPC*%
G36*
X159339Y859723D02*
X159339Y859723D01*
X159339Y866620D01*
X159589Y868199D01*
X160084Y869720D01*
X160810Y871145D01*
X161750Y872439D01*
X162881Y873570D01*
X164175Y874510D01*
X165600Y875236D01*
X167121Y875731D01*
X167977Y875866D01*
X167977Y859723D01*
X159339Y859723D01*
G37*
%LPD*%
%LPC*%
G36*
X167121Y840669D02*
X167121Y840669D01*
X165600Y841164D01*
X164175Y841890D01*
X162881Y842830D01*
X161750Y843961D01*
X160810Y845255D01*
X160084Y846680D01*
X159589Y848201D01*
X159339Y849780D01*
X159339Y856677D01*
X167977Y856677D01*
X167977Y840534D01*
X167121Y840669D01*
G37*
%LPD*%
%LPC*%
G36*
X342623Y802523D02*
X342623Y802523D01*
X342623Y813962D01*
X344154Y813720D01*
X346106Y813085D01*
X347935Y812153D01*
X349596Y810947D01*
X351047Y809496D01*
X352253Y807835D01*
X353185Y806006D01*
X353820Y804054D01*
X354062Y802523D01*
X342623Y802523D01*
G37*
%LPD*%
%LPC*%
G36*
X328138Y802523D02*
X328138Y802523D01*
X328380Y804054D01*
X329015Y806006D01*
X329947Y807835D01*
X331153Y809496D01*
X332604Y810947D01*
X334265Y812153D01*
X336094Y813085D01*
X338046Y813720D01*
X339577Y813962D01*
X339577Y802523D01*
X328138Y802523D01*
G37*
%LPD*%
%LPC*%
G36*
X342623Y799477D02*
X342623Y799477D01*
X354062Y799477D01*
X353820Y797946D01*
X353185Y795994D01*
X352253Y794165D01*
X351047Y792504D01*
X349596Y791053D01*
X347935Y789847D01*
X346106Y788915D01*
X344154Y788280D01*
X342623Y788038D01*
X342623Y799477D01*
G37*
%LPD*%
%LPC*%
G36*
X338046Y788280D02*
X338046Y788280D01*
X336094Y788915D01*
X334265Y789847D01*
X332604Y791053D01*
X331153Y792504D01*
X329947Y794165D01*
X329015Y795994D01*
X328380Y797946D01*
X328138Y799477D01*
X339577Y799477D01*
X339577Y788038D01*
X338046Y788280D01*
G37*
%LPD*%
%LPC*%
G36*
X36232Y393115D02*
X36232Y393115D01*
X36260Y393159D01*
X36278Y393228D01*
X36305Y393295D01*
X36313Y393366D01*
X36320Y393397D01*
X36319Y393421D01*
X36323Y393462D01*
X36323Y403477D01*
X46646Y403477D01*
X46445Y402204D01*
X45864Y400417D01*
X45011Y398743D01*
X43906Y397222D01*
X42578Y395894D01*
X41057Y394789D01*
X39383Y393936D01*
X37596Y393355D01*
X36478Y393178D01*
X36467Y393175D01*
X36455Y393174D01*
X36350Y393136D01*
X36245Y393101D01*
X36235Y393094D01*
X36224Y393090D01*
X36221Y393088D01*
X36232Y393115D01*
G37*
%LPD*%
%LPC*%
G36*
X46723Y686023D02*
X46723Y686023D01*
X46723Y696346D01*
X47996Y696145D01*
X49783Y695564D01*
X51457Y694711D01*
X52978Y693606D01*
X54306Y692278D01*
X55411Y690757D01*
X56264Y689083D01*
X56845Y687296D01*
X57046Y686023D01*
X46723Y686023D01*
G37*
%LPD*%
%LPC*%
G36*
X380223Y559423D02*
X380223Y559423D01*
X380223Y569746D01*
X381496Y569545D01*
X383283Y568964D01*
X384957Y568111D01*
X386478Y567006D01*
X387806Y565678D01*
X388911Y564157D01*
X389764Y562483D01*
X390345Y560696D01*
X390546Y559423D01*
X380223Y559423D01*
G37*
%LPD*%
%LPC*%
G36*
X481823Y559423D02*
X481823Y559423D01*
X481823Y569746D01*
X483096Y569545D01*
X484883Y568964D01*
X486557Y568111D01*
X488078Y567006D01*
X489406Y565678D01*
X490511Y564157D01*
X491364Y562483D01*
X491945Y560696D01*
X492146Y559423D01*
X481823Y559423D01*
G37*
%LPD*%
%LPC*%
G36*
X206223Y83223D02*
X206223Y83223D01*
X206223Y93546D01*
X207496Y93345D01*
X209283Y92764D01*
X210957Y91911D01*
X212478Y90806D01*
X213806Y89478D01*
X214911Y87957D01*
X215764Y86283D01*
X216345Y84496D01*
X216546Y83223D01*
X206223Y83223D01*
G37*
%LPD*%
%LPC*%
G36*
X194623Y159823D02*
X194623Y159823D01*
X194623Y170146D01*
X195896Y169945D01*
X197683Y169364D01*
X199357Y168511D01*
X200878Y167406D01*
X202206Y166078D01*
X203311Y164557D01*
X204164Y162883D01*
X204745Y161096D01*
X204946Y159823D01*
X194623Y159823D01*
G37*
%LPD*%
%LPC*%
G36*
X174223Y301523D02*
X174223Y301523D01*
X174223Y311846D01*
X175496Y311645D01*
X177283Y311064D01*
X178957Y310211D01*
X180478Y309106D01*
X181806Y307778D01*
X182911Y306257D01*
X183764Y304583D01*
X184345Y302796D01*
X184546Y301523D01*
X174223Y301523D01*
G37*
%LPD*%
%LPC*%
G36*
X196223Y219823D02*
X196223Y219823D01*
X196223Y230146D01*
X197496Y229945D01*
X199283Y229364D01*
X200957Y228511D01*
X202478Y227406D01*
X203806Y226078D01*
X204911Y224557D01*
X205764Y222883D01*
X206345Y221096D01*
X206546Y219823D01*
X196223Y219823D01*
G37*
%LPD*%
%LPC*%
G36*
X33354Y686023D02*
X33354Y686023D01*
X33555Y687296D01*
X34136Y689083D01*
X34989Y690757D01*
X36094Y692278D01*
X37422Y693606D01*
X38943Y694711D01*
X40617Y695564D01*
X42404Y696145D01*
X43677Y696346D01*
X43677Y686023D01*
X33354Y686023D01*
G37*
%LPD*%
%LPC*%
G36*
X196223Y216777D02*
X196223Y216777D01*
X206546Y216777D01*
X206345Y215504D01*
X205764Y213717D01*
X204911Y212043D01*
X203806Y210522D01*
X202478Y209194D01*
X200957Y208089D01*
X199283Y207236D01*
X197496Y206655D01*
X196223Y206454D01*
X196223Y216777D01*
G37*
%LPD*%
%LPC*%
G36*
X206223Y80177D02*
X206223Y80177D01*
X216546Y80177D01*
X216345Y78904D01*
X215764Y77117D01*
X214911Y75443D01*
X213806Y73922D01*
X212478Y72594D01*
X210957Y71489D01*
X209283Y70636D01*
X207496Y70055D01*
X206223Y69854D01*
X206223Y80177D01*
G37*
%LPD*%
%LPC*%
G36*
X192854Y83223D02*
X192854Y83223D01*
X193055Y84496D01*
X193636Y86283D01*
X194489Y87957D01*
X195594Y89478D01*
X196922Y90806D01*
X198443Y91911D01*
X200117Y92764D01*
X201904Y93345D01*
X203177Y93546D01*
X203177Y83223D01*
X192854Y83223D01*
G37*
%LPD*%
%LPC*%
G36*
X468454Y559423D02*
X468454Y559423D01*
X468655Y560696D01*
X469236Y562483D01*
X470089Y564157D01*
X471194Y565678D01*
X472522Y567006D01*
X474043Y568111D01*
X475717Y568964D01*
X477504Y569545D01*
X478777Y569746D01*
X478777Y559423D01*
X468454Y559423D01*
G37*
%LPD*%
%LPC*%
G36*
X380223Y556377D02*
X380223Y556377D01*
X390546Y556377D01*
X390345Y555104D01*
X389764Y553317D01*
X388911Y551643D01*
X387806Y550122D01*
X386478Y548794D01*
X384957Y547689D01*
X383283Y546836D01*
X381496Y546255D01*
X380223Y546054D01*
X380223Y556377D01*
G37*
%LPD*%
%LPC*%
G36*
X194623Y156777D02*
X194623Y156777D01*
X204946Y156777D01*
X204745Y155504D01*
X204164Y153717D01*
X203311Y152043D01*
X202206Y150522D01*
X200878Y149194D01*
X199357Y148089D01*
X197683Y147236D01*
X195896Y146655D01*
X194623Y146454D01*
X194623Y156777D01*
G37*
%LPD*%
%LPC*%
G36*
X481823Y556377D02*
X481823Y556377D01*
X492146Y556377D01*
X491945Y555104D01*
X491364Y553317D01*
X490511Y551643D01*
X489406Y550122D01*
X488078Y548794D01*
X486557Y547689D01*
X484883Y546836D01*
X483096Y546255D01*
X481823Y546054D01*
X481823Y556377D01*
G37*
%LPD*%
%LPC*%
G36*
X181254Y159823D02*
X181254Y159823D01*
X181455Y161096D01*
X182036Y162883D01*
X182889Y164557D01*
X183994Y166078D01*
X185322Y167406D01*
X186843Y168511D01*
X188517Y169364D01*
X190304Y169945D01*
X191577Y170146D01*
X191577Y159823D01*
X181254Y159823D01*
G37*
%LPD*%
%LPC*%
G36*
X366854Y559423D02*
X366854Y559423D01*
X367055Y560696D01*
X367636Y562483D01*
X368489Y564157D01*
X369594Y565678D01*
X370922Y567006D01*
X372443Y568111D01*
X374117Y568964D01*
X375904Y569545D01*
X377177Y569746D01*
X377177Y559423D01*
X366854Y559423D01*
G37*
%LPD*%
%LPC*%
G36*
X46723Y682977D02*
X46723Y682977D01*
X57046Y682977D01*
X56845Y681704D01*
X56264Y679917D01*
X55411Y678243D01*
X54306Y676722D01*
X52978Y675394D01*
X51457Y674289D01*
X49783Y673436D01*
X47996Y672855D01*
X46723Y672654D01*
X46723Y682977D01*
G37*
%LPD*%
%LPC*%
G36*
X160854Y301523D02*
X160854Y301523D01*
X161055Y302796D01*
X161636Y304583D01*
X162489Y306257D01*
X163594Y307778D01*
X164922Y309106D01*
X166443Y310211D01*
X168117Y311064D01*
X169904Y311645D01*
X171177Y311846D01*
X171177Y301523D01*
X160854Y301523D01*
G37*
%LPD*%
%LPC*%
G36*
X182854Y219823D02*
X182854Y219823D01*
X183055Y221096D01*
X183636Y222883D01*
X184489Y224557D01*
X185594Y226078D01*
X186922Y227406D01*
X188443Y228511D01*
X190117Y229364D01*
X191904Y229945D01*
X193177Y230146D01*
X193177Y219823D01*
X182854Y219823D01*
G37*
%LPD*%
%LPC*%
G36*
X174223Y298477D02*
X174223Y298477D01*
X184546Y298477D01*
X184345Y297204D01*
X183764Y295417D01*
X182911Y293743D01*
X181806Y292222D01*
X180478Y290894D01*
X178957Y289789D01*
X177283Y288936D01*
X175496Y288355D01*
X174223Y288154D01*
X174223Y298477D01*
G37*
%LPD*%
%LPC*%
G36*
X201904Y70055D02*
X201904Y70055D01*
X200117Y70636D01*
X198443Y71489D01*
X196922Y72594D01*
X195594Y73922D01*
X194489Y75443D01*
X193636Y77117D01*
X193055Y78904D01*
X192854Y80177D01*
X203177Y80177D01*
X203177Y69854D01*
X201904Y70055D01*
G37*
%LPD*%
%LPC*%
G36*
X375904Y546255D02*
X375904Y546255D01*
X374117Y546836D01*
X372443Y547689D01*
X370922Y548794D01*
X369594Y550122D01*
X368489Y551643D01*
X367636Y553317D01*
X367055Y555104D01*
X366854Y556377D01*
X377177Y556377D01*
X377177Y546054D01*
X375904Y546255D01*
G37*
%LPD*%
%LPC*%
G36*
X191904Y206655D02*
X191904Y206655D01*
X190117Y207236D01*
X188443Y208089D01*
X186922Y209194D01*
X185594Y210522D01*
X184489Y212043D01*
X183636Y213717D01*
X183055Y215504D01*
X182854Y216777D01*
X193177Y216777D01*
X193177Y206454D01*
X191904Y206655D01*
G37*
%LPD*%
%LPC*%
G36*
X190304Y146655D02*
X190304Y146655D01*
X188517Y147236D01*
X186843Y148089D01*
X185322Y149194D01*
X183994Y150522D01*
X182889Y152043D01*
X182036Y153717D01*
X181455Y155504D01*
X181254Y156777D01*
X191577Y156777D01*
X191577Y146454D01*
X190304Y146655D01*
G37*
%LPD*%
%LPC*%
G36*
X477504Y546255D02*
X477504Y546255D01*
X475717Y546836D01*
X474043Y547689D01*
X472522Y548794D01*
X471194Y550122D01*
X470089Y551643D01*
X469236Y553317D01*
X468655Y555104D01*
X468454Y556377D01*
X478777Y556377D01*
X478777Y546054D01*
X477504Y546255D01*
G37*
%LPD*%
%LPC*%
G36*
X42404Y672855D02*
X42404Y672855D01*
X40617Y673436D01*
X38943Y674289D01*
X37422Y675394D01*
X36094Y676722D01*
X34989Y678243D01*
X34136Y679917D01*
X33555Y681704D01*
X33354Y682977D01*
X43677Y682977D01*
X43677Y672654D01*
X42404Y672855D01*
G37*
%LPD*%
%LPC*%
G36*
X169904Y288355D02*
X169904Y288355D01*
X168117Y288936D01*
X166443Y289789D01*
X164922Y290894D01*
X163594Y292222D01*
X162489Y293743D01*
X161636Y295417D01*
X161055Y297204D01*
X160854Y298477D01*
X171177Y298477D01*
X171177Y288154D01*
X169904Y288355D01*
G37*
%LPD*%
%LPC*%
G36*
X30223Y854323D02*
X30223Y854323D01*
X30223Y863489D01*
X31228Y863330D01*
X32844Y862805D01*
X34358Y862033D01*
X35733Y861034D01*
X36934Y859833D01*
X37933Y858458D01*
X38705Y856944D01*
X39230Y855328D01*
X39389Y854323D01*
X30223Y854323D01*
G37*
%LPD*%
%LPC*%
G36*
X129823Y623623D02*
X129823Y623623D01*
X129823Y632789D01*
X130828Y632630D01*
X132444Y632105D01*
X133958Y631333D01*
X135333Y630334D01*
X136534Y629133D01*
X137533Y627758D01*
X138305Y626244D01*
X138830Y624628D01*
X138989Y623623D01*
X129823Y623623D01*
G37*
%LPD*%
%LPC*%
G36*
X18011Y854323D02*
X18011Y854323D01*
X18170Y855328D01*
X18695Y856944D01*
X19467Y858458D01*
X20466Y859833D01*
X21667Y861034D01*
X23042Y862033D01*
X24556Y862805D01*
X26172Y863330D01*
X27177Y863489D01*
X27177Y854323D01*
X18011Y854323D01*
G37*
%LPD*%
%LPC*%
G36*
X117611Y623623D02*
X117611Y623623D01*
X117770Y624628D01*
X118295Y626244D01*
X119067Y627758D01*
X120066Y629133D01*
X121267Y630334D01*
X122642Y631333D01*
X124156Y632105D01*
X125772Y632630D01*
X126777Y632789D01*
X126777Y623623D01*
X117611Y623623D01*
G37*
%LPD*%
%LPC*%
G36*
X129823Y620577D02*
X129823Y620577D01*
X138989Y620577D01*
X138830Y619572D01*
X138305Y617956D01*
X137533Y616442D01*
X136534Y615067D01*
X135333Y613866D01*
X133958Y612867D01*
X132444Y612095D01*
X130828Y611570D01*
X129823Y611411D01*
X129823Y620577D01*
G37*
%LPD*%
%LPC*%
G36*
X107823Y536377D02*
X107823Y536377D01*
X116989Y536377D01*
X116830Y535372D01*
X116305Y533756D01*
X115533Y532242D01*
X114534Y530867D01*
X113333Y529666D01*
X111958Y528667D01*
X110444Y527895D01*
X108828Y527370D01*
X107823Y527211D01*
X107823Y536377D01*
G37*
%LPD*%
%LPC*%
G36*
X30223Y851277D02*
X30223Y851277D01*
X39389Y851277D01*
X39230Y850272D01*
X38705Y848656D01*
X37933Y847142D01*
X36934Y845767D01*
X35733Y844566D01*
X34358Y843567D01*
X32844Y842795D01*
X31228Y842270D01*
X30223Y842111D01*
X30223Y851277D01*
G37*
%LPD*%
%LPC*%
G36*
X321511Y654323D02*
X321511Y654323D01*
X321670Y655328D01*
X322195Y656944D01*
X322967Y658458D01*
X323966Y659833D01*
X325167Y661034D01*
X326542Y662033D01*
X328056Y662805D01*
X329672Y663330D01*
X330677Y663489D01*
X330677Y654323D01*
X321511Y654323D01*
G37*
%LPD*%
%LPC*%
G36*
X329672Y642270D02*
X329672Y642270D01*
X328056Y642795D01*
X326542Y643567D01*
X325167Y644566D01*
X323966Y645767D01*
X322967Y647142D01*
X322195Y648656D01*
X321670Y650272D01*
X321511Y651277D01*
X330677Y651277D01*
X330677Y642111D01*
X329672Y642270D01*
G37*
%LPD*%
%LPC*%
G36*
X125772Y611570D02*
X125772Y611570D01*
X124156Y612095D01*
X122642Y612867D01*
X121267Y613866D01*
X120066Y615067D01*
X119067Y616442D01*
X118295Y617956D01*
X117770Y619572D01*
X117611Y620577D01*
X126777Y620577D01*
X126777Y611411D01*
X125772Y611570D01*
G37*
%LPD*%
%LPC*%
G36*
X26172Y842270D02*
X26172Y842270D01*
X24556Y842795D01*
X23042Y843567D01*
X21667Y844566D01*
X20466Y845767D01*
X19467Y847142D01*
X18695Y848656D01*
X18170Y850272D01*
X18011Y851277D01*
X27177Y851277D01*
X27177Y842111D01*
X26172Y842270D01*
G37*
%LPD*%
%LPC*%
G36*
X258123Y627623D02*
X258123Y627623D01*
X258123Y636660D01*
X259098Y636506D01*
X260695Y635987D01*
X262192Y635225D01*
X263550Y634238D01*
X264738Y633050D01*
X265725Y631692D01*
X266487Y630195D01*
X267006Y628598D01*
X267160Y627623D01*
X258123Y627623D01*
G37*
%LPD*%
%LPC*%
G36*
X181923Y602223D02*
X181923Y602223D01*
X181923Y611260D01*
X182898Y611106D01*
X184495Y610587D01*
X185992Y609825D01*
X187350Y608838D01*
X188538Y607650D01*
X189525Y606292D01*
X190287Y604795D01*
X190806Y603198D01*
X190960Y602223D01*
X181923Y602223D01*
G37*
%LPD*%
%LPC*%
G36*
X246040Y627623D02*
X246040Y627623D01*
X246194Y628598D01*
X246713Y630195D01*
X247475Y631692D01*
X248462Y633050D01*
X249650Y634238D01*
X251008Y635225D01*
X252505Y635987D01*
X254102Y636506D01*
X255077Y636660D01*
X255077Y627623D01*
X246040Y627623D01*
G37*
%LPD*%
%LPC*%
G36*
X181923Y599177D02*
X181923Y599177D01*
X190960Y599177D01*
X190806Y598202D01*
X190287Y596605D01*
X189525Y595108D01*
X188538Y593750D01*
X187350Y592562D01*
X185992Y591575D01*
X184495Y590813D01*
X182898Y590294D01*
X181923Y590140D01*
X181923Y599177D01*
G37*
%LPD*%
%LPC*%
G36*
X258123Y624577D02*
X258123Y624577D01*
X267160Y624577D01*
X267006Y623602D01*
X266487Y622005D01*
X265725Y620508D01*
X264738Y619150D01*
X263550Y617962D01*
X262192Y616975D01*
X260695Y616213D01*
X259098Y615694D01*
X258123Y615540D01*
X258123Y624577D01*
G37*
%LPD*%
%LPC*%
G36*
X169840Y602223D02*
X169840Y602223D01*
X169994Y603198D01*
X170513Y604795D01*
X171275Y606292D01*
X172262Y607650D01*
X173450Y608838D01*
X174808Y609825D01*
X176305Y610587D01*
X177902Y611106D01*
X178877Y611260D01*
X178877Y602223D01*
X169840Y602223D01*
G37*
%LPD*%
%LPC*%
G36*
X254102Y615694D02*
X254102Y615694D01*
X252505Y616213D01*
X251008Y616975D01*
X249650Y617962D01*
X248462Y619150D01*
X247475Y620508D01*
X246713Y622005D01*
X246194Y623602D01*
X246040Y624577D01*
X255077Y624577D01*
X255077Y615540D01*
X254102Y615694D01*
G37*
%LPD*%
%LPC*%
G36*
X177902Y590294D02*
X177902Y590294D01*
X176305Y590813D01*
X174808Y591575D01*
X173450Y592562D01*
X172262Y593750D01*
X171275Y595108D01*
X170513Y596605D01*
X169994Y598202D01*
X169840Y599177D01*
X178877Y599177D01*
X178877Y590140D01*
X177902Y590294D01*
G37*
%LPD*%
%LPC*%
G36*
X480299Y557899D02*
X480299Y557899D01*
X480299Y557901D01*
X480301Y557901D01*
X480301Y557899D01*
X480299Y557899D01*
G37*
%LPD*%
%LPC*%
G36*
X378699Y557899D02*
X378699Y557899D01*
X378699Y557901D01*
X378701Y557901D01*
X378701Y557899D01*
X378699Y557899D01*
G37*
%LPD*%
%LPC*%
G36*
X180399Y600699D02*
X180399Y600699D01*
X180399Y600701D01*
X180401Y600701D01*
X180401Y600699D01*
X180399Y600699D01*
G37*
%LPD*%
%LPC*%
G36*
X289849Y202599D02*
X289849Y202599D01*
X289849Y202601D01*
X289851Y202601D01*
X289851Y202599D01*
X289849Y202599D01*
G37*
%LPD*%
%LPC*%
G36*
X172699Y299999D02*
X172699Y299999D01*
X172699Y300001D01*
X172701Y300001D01*
X172701Y299999D01*
X172699Y299999D01*
G37*
%LPD*%
%LPC*%
G36*
X45199Y684499D02*
X45199Y684499D01*
X45199Y684501D01*
X45201Y684501D01*
X45201Y684499D01*
X45199Y684499D01*
G37*
%LPD*%
%LPC*%
G36*
X256599Y626099D02*
X256599Y626099D01*
X256599Y626101D01*
X256601Y626101D01*
X256601Y626099D01*
X256599Y626099D01*
G37*
%LPD*%
%LPC*%
G36*
X128299Y622099D02*
X128299Y622099D01*
X128299Y622101D01*
X128301Y622101D01*
X128301Y622099D01*
X128299Y622099D01*
G37*
%LPD*%
%LPC*%
G36*
X817399Y345749D02*
X817399Y345749D01*
X817399Y345751D01*
X817401Y345751D01*
X817401Y345749D01*
X817399Y345749D01*
G37*
%LPD*%
%LPC*%
G36*
X194699Y218299D02*
X194699Y218299D01*
X194699Y218301D01*
X194701Y218301D01*
X194701Y218299D01*
X194699Y218299D01*
G37*
%LPD*%
%LPC*%
G36*
X341099Y800999D02*
X341099Y800999D01*
X341099Y801001D01*
X341101Y801001D01*
X341101Y800999D01*
X341099Y800999D01*
G37*
%LPD*%
%LPC*%
G36*
X204699Y81699D02*
X204699Y81699D01*
X204699Y81701D01*
X204701Y81701D01*
X204701Y81699D01*
X204699Y81699D01*
G37*
%LPD*%
%LPC*%
G36*
X28699Y852799D02*
X28699Y852799D01*
X28699Y852801D01*
X28701Y852801D01*
X28701Y852799D01*
X28699Y852799D01*
G37*
%LPD*%
%LPC*%
G36*
X169499Y858199D02*
X169499Y858199D01*
X169499Y858201D01*
X169501Y858201D01*
X169501Y858199D01*
X169499Y858199D01*
G37*
%LPD*%
%LPC*%
G36*
X193099Y158299D02*
X193099Y158299D01*
X193099Y158301D01*
X193101Y158301D01*
X193101Y158299D01*
X193099Y158299D01*
G37*
%LPD*%
D10*
X34800Y379600D03*
X34800Y405000D03*
X34800Y430400D03*
X34800Y455800D03*
D11*
X357200Y652800D03*
D12*
X332200Y652800D03*
D11*
X53700Y852800D03*
D12*
X28700Y852800D03*
X128300Y622100D03*
X102900Y622100D03*
X80900Y537900D03*
X106300Y537900D03*
D13*
X684700Y443540D02*
X684700Y421061D01*
X684700Y573461D02*
X684700Y595940D01*
X798500Y216040D02*
X798500Y193561D01*
X798500Y63640D02*
X798500Y41161D01*
D14*
X144100Y850580D02*
X144100Y865820D01*
X169500Y865820D02*
X169500Y850580D01*
X194900Y850580D02*
X194900Y865820D01*
D15*
X796100Y625750D03*
D16*
X816100Y565750D03*
X938100Y565750D03*
X938100Y685750D03*
X816100Y685750D03*
D15*
X797400Y405750D03*
D16*
X817400Y345750D03*
X939400Y345750D03*
X939400Y465750D03*
X817400Y465750D03*
D15*
X629850Y223900D03*
D16*
X569850Y203900D03*
X569850Y81900D03*
X689850Y81900D03*
X689850Y203900D03*
D15*
X349850Y222600D03*
D16*
X289850Y202600D03*
X289850Y80600D03*
X409850Y80600D03*
X409850Y202600D03*
D17*
X604800Y794200D03*
X694800Y794200D03*
X964100Y211100D03*
X964100Y121100D03*
X431100Y801000D03*
X341100Y801000D03*
D10*
X45200Y786100D03*
X45200Y760700D03*
X45200Y735300D03*
X45200Y709900D03*
X45200Y684500D03*
D14*
X344100Y322020D02*
X344100Y306780D01*
X369500Y306780D02*
X369500Y322020D01*
X394900Y322020D02*
X394900Y306780D01*
X477100Y306780D02*
X477100Y322020D01*
X502500Y322020D02*
X502500Y306780D01*
X527900Y306780D02*
X527900Y322020D01*
D10*
X149900Y758300D03*
X73700Y758300D03*
X128500Y81700D03*
X204700Y81700D03*
X193100Y158300D03*
X116900Y158300D03*
X194700Y218300D03*
X118500Y218300D03*
X404100Y557900D03*
X480300Y557900D03*
X302500Y557900D03*
X378700Y557900D03*
D18*
X180400Y778500D03*
X180400Y753100D03*
X180400Y727700D03*
X180400Y702300D03*
X180400Y676900D03*
X180400Y651500D03*
X180400Y626100D03*
X180400Y600700D03*
X180400Y575300D03*
X180400Y549900D03*
X180400Y524500D03*
X180400Y499100D03*
X180400Y473700D03*
X180400Y448300D03*
X256600Y448300D03*
X256600Y473700D03*
X256600Y499100D03*
X256600Y524500D03*
X256600Y549900D03*
X256600Y575300D03*
X256600Y600700D03*
X256600Y626100D03*
X256600Y651500D03*
X256600Y676900D03*
X256600Y702300D03*
X256600Y727700D03*
X256600Y753100D03*
X256600Y778500D03*
D12*
X47200Y566900D03*
X47200Y617700D03*
D10*
X50000Y70000D03*
X50000Y44600D03*
X50000Y170000D03*
X50000Y144600D03*
X50000Y270000D03*
X50000Y244600D03*
X147300Y300000D03*
X172700Y300000D03*
X250000Y261900D03*
X250000Y338100D03*
D19*
X149900Y656600D02*
X149900Y758300D01*
X149900Y656600D02*
X180400Y626100D01*
X23116Y409840D02*
X23116Y400160D01*
X23116Y409840D02*
X29960Y416684D01*
X95759Y542266D02*
X101934Y548441D01*
X34800Y388476D02*
X34800Y379600D01*
X37608Y416684D02*
X29960Y416684D01*
X37608Y416684D02*
X95759Y474835D01*
X23116Y400160D02*
X34800Y388476D01*
X95759Y474835D02*
X95759Y542266D01*
X101934Y548441D02*
X102741Y548441D01*
X180400Y626100D01*
X246186Y781514D02*
X169500Y858200D01*
X246186Y781514D02*
X246186Y774186D01*
X260914Y763514D02*
X267014Y757414D01*
X260914Y763514D02*
X256858Y763514D01*
X256600Y636772D02*
X256600Y626100D01*
X256858Y763514D02*
X246186Y774186D01*
X267014Y647186D02*
X256600Y636772D01*
X267014Y647186D02*
X267014Y757414D01*
X194700Y218300D02*
X194700Y159900D01*
X193100Y158300D01*
X204700Y146700D01*
X204700Y81700D01*
X194700Y218300D02*
X274150Y218300D01*
X289850Y202600D01*
X194700Y218300D02*
X46484Y366516D01*
X34800Y396124D02*
X34800Y405000D01*
X46484Y384440D02*
X46484Y366516D01*
X46484Y384440D02*
X34800Y396124D01*
X34800Y405000D02*
X34900Y405100D01*
X106300Y476500D01*
X106300Y537900D01*
X231200Y600700D02*
X256600Y626100D01*
X231200Y600700D02*
X180400Y600700D01*
X399260Y546216D02*
X408940Y546216D01*
X420624Y557900D02*
X480300Y557900D01*
X387576Y557900D02*
X378700Y557900D01*
X408940Y546216D02*
X420624Y557900D01*
X399260Y546216D02*
X387576Y557900D01*
X378700Y557900D02*
X378700Y606300D01*
X332200Y652800D01*
X172700Y300000D02*
X163824Y300000D01*
X128316Y311684D02*
X34900Y405100D01*
X152140Y311684D02*
X163824Y300000D01*
X152140Y311684D02*
X128316Y311684D01*
X180400Y432050D02*
X180400Y448300D01*
X180400Y432050D02*
X409850Y202600D01*
X591043Y203900D02*
X689850Y203900D01*
X591043Y203900D02*
X576057Y218886D01*
X468785Y218886D02*
X423835Y263835D01*
X468785Y218886D02*
X576057Y218886D01*
X366165Y263835D02*
X249594Y380406D01*
X249594Y441294D02*
X256600Y448300D01*
X249594Y441294D02*
X249594Y380406D01*
X366165Y263835D02*
X423835Y263835D01*
X256600Y499100D02*
X784050Y499100D01*
X817400Y465750D01*
X484500Y524500D02*
X256600Y524500D01*
X640000Y680000D02*
X640000Y690000D01*
X811850Y690000D01*
X816100Y685750D01*
X640000Y680000D02*
X484500Y524500D01*
D20*
X289850Y80600D02*
X350450Y20000D01*
X570000Y20000D01*
X570000Y81750D01*
X569850Y81900D01*
X570000Y20000D02*
X766100Y20000D01*
X798500Y52400D01*
X412450Y160000D02*
X349850Y222600D01*
X913000Y160000D02*
X964100Y211100D01*
X913000Y160000D02*
X412450Y160000D01*
X730430Y538970D02*
X684700Y584700D01*
X860000Y425150D02*
X939400Y345750D01*
X911320Y538970D02*
X938100Y565750D01*
X911320Y538970D02*
X860000Y538970D01*
X730430Y538970D01*
X860000Y538970D02*
X860000Y425150D01*
X447400Y422300D02*
X369500Y344400D01*
X369500Y314400D01*
X447400Y422300D02*
X674700Y422300D01*
X684700Y432300D01*
X733300Y270000D02*
X798500Y204800D01*
X733300Y270000D02*
X500000Y270000D01*
X500000Y311900D01*
X502500Y314400D01*
D19*
X185400Y261900D02*
X147300Y300000D01*
X185400Y261900D02*
X250000Y261900D01*
M02*
